%TF.GenerationSoftware,KiCad,Pcbnew,4.0.7-e2-6376~61~ubuntu18.04.1*%
%TF.CreationDate,2020-08-23T10:05:52+02:00*%
%TF.ProjectId,power,706F7765722E6B696361645F70636200,rev?*%
%TF.FileFunction,Soldermask,Bot*%
%FSLAX46Y46*%
G04 Gerber Fmt 4.6, Leading zero omitted, Abs format (unit mm)*
G04 Created by KiCad (PCBNEW 4.0.7-e2-6376~61~ubuntu18.04.1) date Sun Aug 23 10:05:52 2020*
%MOMM*%
%LPD*%
G01*
G04 APERTURE LIST*
%ADD10C,0.100000*%
%ADD11C,0.150000*%
%ADD12R,2.100000X2.100000*%
%ADD13O,2.100000X2.100000*%
%ADD14R,5.400000X10.400000*%
%ADD15C,6.800000*%
G04 APERTURE END LIST*
D10*
D11*
X82550000Y-20320000D02*
X31750000Y-20320000D01*
X82550000Y-118110000D02*
X82550000Y-20320000D01*
X31750000Y-118110000D02*
X82550000Y-118110000D01*
X31750000Y-20320000D02*
X31750000Y-118110000D01*
D12*
X54610000Y-90170000D03*
D13*
X57150000Y-90170000D03*
X59690000Y-90170000D03*
X62230000Y-90170000D03*
X64770000Y-90170000D03*
X67310000Y-90170000D03*
X69850000Y-90170000D03*
X72390000Y-90170000D03*
D12*
X54610000Y-69850000D03*
D13*
X57150000Y-69850000D03*
X59690000Y-69850000D03*
X62230000Y-69850000D03*
X64770000Y-69850000D03*
X67310000Y-69850000D03*
X69850000Y-69850000D03*
X72390000Y-69850000D03*
D12*
X54610000Y-49530000D03*
D13*
X57150000Y-49530000D03*
X59690000Y-49530000D03*
X62230000Y-49530000D03*
X64770000Y-49530000D03*
X67310000Y-49530000D03*
X69850000Y-49530000D03*
X72390000Y-49530000D03*
D12*
X54610000Y-29210000D03*
D13*
X57150000Y-29210000D03*
X59690000Y-29210000D03*
X62230000Y-29210000D03*
X64770000Y-29210000D03*
X67310000Y-29210000D03*
X69850000Y-29210000D03*
X72390000Y-29210000D03*
D12*
X44450000Y-90170000D03*
D13*
X44450000Y-92710000D03*
X44450000Y-95250000D03*
X44450000Y-97790000D03*
X44450000Y-100330000D03*
X44450000Y-102870000D03*
X44450000Y-105410000D03*
X44450000Y-107950000D03*
D12*
X41910000Y-90170000D03*
D13*
X41910000Y-92710000D03*
X41910000Y-95250000D03*
X41910000Y-97790000D03*
X41910000Y-100330000D03*
X41910000Y-102870000D03*
X41910000Y-105410000D03*
X41910000Y-107950000D03*
D12*
X44450000Y-49530000D03*
D13*
X44450000Y-52070000D03*
X44450000Y-54610000D03*
X44450000Y-57150000D03*
X44450000Y-59690000D03*
X44450000Y-62230000D03*
X44450000Y-64770000D03*
X44450000Y-67310000D03*
D12*
X41910000Y-69850000D03*
D13*
X41910000Y-72390000D03*
X41910000Y-74930000D03*
X41910000Y-77470000D03*
X41910000Y-80010000D03*
X41910000Y-82550000D03*
X41910000Y-85090000D03*
X41910000Y-87630000D03*
D12*
X44450000Y-69850000D03*
D13*
X44450000Y-72390000D03*
X44450000Y-74930000D03*
X44450000Y-77470000D03*
X44450000Y-80010000D03*
X44450000Y-82550000D03*
X44450000Y-85090000D03*
X44450000Y-87630000D03*
D12*
X41910000Y-29210000D03*
D13*
X41910000Y-31750000D03*
X41910000Y-34290000D03*
X41910000Y-36830000D03*
X41910000Y-39370000D03*
X41910000Y-41910000D03*
X41910000Y-44450000D03*
X41910000Y-46990000D03*
D12*
X44450000Y-29210000D03*
D13*
X44450000Y-31750000D03*
X44450000Y-34290000D03*
X44450000Y-36830000D03*
X44450000Y-39370000D03*
X44450000Y-41910000D03*
X44450000Y-44450000D03*
X44450000Y-46990000D03*
D12*
X41910000Y-49530000D03*
D13*
X41910000Y-52070000D03*
X41910000Y-54610000D03*
X41910000Y-57150000D03*
X41910000Y-59690000D03*
X41910000Y-62230000D03*
X41910000Y-64770000D03*
X41910000Y-67310000D03*
D14*
X62230000Y-104140000D03*
D15*
X36830000Y-25400000D03*
X77470000Y-25400000D03*
X36830000Y-113030000D03*
X77470000Y-113030000D03*
M02*
