M48
;DRILL file {KiCad 4.0.7-e2-6376~61~ubuntu18.04.1} date Sun Aug 23 10:06:29 2020
;FORMAT={-:-/ absolute / inch / decimal}
FMAT,2
INCH,TZ
T1C0.039
T2C0.126
%
G90
G05
M72
T1
X1.65Y-1.15
X1.65Y-1.25
X1.65Y-1.35
X1.65Y-1.45
X1.65Y-1.55
X1.65Y-1.65
X1.65Y-1.75
X1.65Y-1.85
X1.65Y-1.95
X1.65Y-2.05
X1.65Y-2.15
X1.65Y-2.25
X1.65Y-2.35
X1.65Y-2.45
X1.65Y-2.55
X1.65Y-2.65
X1.65Y-2.75
X1.65Y-2.85
X1.65Y-2.95
X1.65Y-3.05
X1.65Y-3.15
X1.65Y-3.25
X1.65Y-3.35
X1.65Y-3.45
X1.65Y-3.55
X1.65Y-3.65
X1.65Y-3.75
X1.65Y-3.85
X1.65Y-3.95
X1.65Y-4.05
X1.65Y-4.15
X1.65Y-4.25
X1.75Y-1.15
X1.75Y-1.25
X1.75Y-1.35
X1.75Y-1.45
X1.75Y-1.55
X1.75Y-1.65
X1.75Y-1.75
X1.75Y-1.85
X1.75Y-1.95
X1.75Y-2.05
X1.75Y-2.15
X1.75Y-2.25
X1.75Y-2.35
X1.75Y-2.45
X1.75Y-2.55
X1.75Y-2.65
X1.75Y-2.75
X1.75Y-2.85
X1.75Y-2.95
X1.75Y-3.05
X1.75Y-3.15
X1.75Y-3.25
X1.75Y-3.35
X1.75Y-3.45
X1.75Y-3.55
X1.75Y-3.65
X1.75Y-3.75
X1.75Y-3.85
X1.75Y-3.95
X1.75Y-4.05
X1.75Y-4.15
X1.75Y-4.25
X2.15Y-1.15
X2.15Y-1.95
X2.15Y-2.75
X2.15Y-3.55
X2.25Y-1.15
X2.25Y-1.95
X2.25Y-2.75
X2.25Y-3.55
X2.35Y-1.15
X2.35Y-1.95
X2.35Y-2.75
X2.35Y-3.55
X2.45Y-1.15
X2.45Y-1.95
X2.45Y-2.75
X2.45Y-3.55
X2.55Y-1.15
X2.55Y-1.95
X2.55Y-2.75
X2.55Y-3.55
X2.65Y-1.15
X2.65Y-1.95
X2.65Y-2.75
X2.65Y-3.55
X2.75Y-1.15
X2.75Y-1.95
X2.75Y-2.75
X2.75Y-3.55
X2.85Y-1.15
X2.85Y-1.95
X2.85Y-2.75
X2.85Y-3.55
T2
X1.45Y-1.
X1.45Y-4.45
X3.05Y-1.
X3.05Y-4.45
T0
M30
