%TF.GenerationSoftware,KiCad,Pcbnew,4.0.7-e2-6376~61~ubuntu18.04.1*%
%TF.CreationDate,2020-08-23T10:05:52+02:00*%
%TF.ProjectId,power,706F7765722E6B696361645F70636200,rev?*%
%TF.FileFunction,Legend,Bot*%
%FSLAX46Y46*%
G04 Gerber Fmt 4.6, Leading zero omitted, Abs format (unit mm)*
G04 Created by KiCad (PCBNEW 4.0.7-e2-6376~61~ubuntu18.04.1) date Sun Aug 23 10:05:52 2020*
%MOMM*%
%LPD*%
G01*
G04 APERTURE LIST*
%ADD10C,0.100000*%
%ADD11C,0.150000*%
G04 APERTURE END LIST*
D10*
D11*
X82550000Y-20320000D02*
X31750000Y-20320000D01*
X82550000Y-118110000D02*
X82550000Y-20320000D01*
X31750000Y-118110000D02*
X82550000Y-118110000D01*
X31750000Y-20320000D02*
X31750000Y-118110000D01*
X63563333Y-108402381D02*
X63896667Y-107926190D01*
X64134762Y-108402381D02*
X64134762Y-107402381D01*
X63753809Y-107402381D01*
X63658571Y-107450000D01*
X63610952Y-107497619D01*
X63563333Y-107592857D01*
X63563333Y-107735714D01*
X63610952Y-107830952D01*
X63658571Y-107878571D01*
X63753809Y-107926190D01*
X64134762Y-107926190D01*
X63134762Y-107878571D02*
X62801428Y-107878571D01*
X62658571Y-108402381D02*
X63134762Y-108402381D01*
X63134762Y-107402381D01*
X62658571Y-107402381D01*
X61896666Y-107878571D02*
X62230000Y-107878571D01*
X62230000Y-108402381D02*
X62230000Y-107402381D01*
X61753809Y-107402381D01*
X61230000Y-107402381D02*
X61230000Y-107640476D01*
X61468095Y-107545238D02*
X61230000Y-107640476D01*
X60991904Y-107545238D01*
X61372857Y-107830952D02*
X61230000Y-107640476D01*
X61087142Y-107830952D01*
X60468095Y-107402381D02*
X60468095Y-107640476D01*
X60706190Y-107545238D02*
X60468095Y-107640476D01*
X60229999Y-107545238D01*
X60610952Y-107830952D02*
X60468095Y-107640476D01*
X60325237Y-107830952D01*
M02*
