%TF.GenerationSoftware,KiCad,Pcbnew,4.0.7-e2-6376~61~ubuntu18.04.1*%
%TF.CreationDate,2020-08-23T10:05:52+02:00*%
%TF.ProjectId,power,706F7765722E6B696361645F70636200,rev?*%
%TF.FileFunction,Copper,L1,Top,Signal*%
%FSLAX46Y46*%
G04 Gerber Fmt 4.6, Leading zero omitted, Abs format (unit mm)*
G04 Created by KiCad (PCBNEW 4.0.7-e2-6376~61~ubuntu18.04.1) date Sun Aug 23 10:05:52 2020*
%MOMM*%
%LPD*%
G01*
G04 APERTURE LIST*
%ADD10C,0.100000*%
%ADD11C,0.150000*%
%ADD12R,1.700000X1.700000*%
%ADD13O,1.700000X1.700000*%
%ADD14R,5.000000X10.000000*%
%ADD15C,6.400000*%
%ADD16C,0.254000*%
G04 APERTURE END LIST*
D10*
D11*
X82550000Y-20320000D02*
X31750000Y-20320000D01*
X82550000Y-118110000D02*
X82550000Y-20320000D01*
X31750000Y-118110000D02*
X82550000Y-118110000D01*
X31750000Y-20320000D02*
X31750000Y-118110000D01*
D12*
X54610000Y-90170000D03*
D13*
X57150000Y-90170000D03*
X59690000Y-90170000D03*
X62230000Y-90170000D03*
X64770000Y-90170000D03*
X67310000Y-90170000D03*
X69850000Y-90170000D03*
X72390000Y-90170000D03*
D12*
X54610000Y-69850000D03*
D13*
X57150000Y-69850000D03*
X59690000Y-69850000D03*
X62230000Y-69850000D03*
X64770000Y-69850000D03*
X67310000Y-69850000D03*
X69850000Y-69850000D03*
X72390000Y-69850000D03*
D12*
X54610000Y-49530000D03*
D13*
X57150000Y-49530000D03*
X59690000Y-49530000D03*
X62230000Y-49530000D03*
X64770000Y-49530000D03*
X67310000Y-49530000D03*
X69850000Y-49530000D03*
X72390000Y-49530000D03*
D12*
X54610000Y-29210000D03*
D13*
X57150000Y-29210000D03*
X59690000Y-29210000D03*
X62230000Y-29210000D03*
X64770000Y-29210000D03*
X67310000Y-29210000D03*
X69850000Y-29210000D03*
X72390000Y-29210000D03*
D12*
X44450000Y-90170000D03*
D13*
X44450000Y-92710000D03*
X44450000Y-95250000D03*
X44450000Y-97790000D03*
X44450000Y-100330000D03*
X44450000Y-102870000D03*
X44450000Y-105410000D03*
X44450000Y-107950000D03*
D12*
X41910000Y-90170000D03*
D13*
X41910000Y-92710000D03*
X41910000Y-95250000D03*
X41910000Y-97790000D03*
X41910000Y-100330000D03*
X41910000Y-102870000D03*
X41910000Y-105410000D03*
X41910000Y-107950000D03*
D12*
X44450000Y-49530000D03*
D13*
X44450000Y-52070000D03*
X44450000Y-54610000D03*
X44450000Y-57150000D03*
X44450000Y-59690000D03*
X44450000Y-62230000D03*
X44450000Y-64770000D03*
X44450000Y-67310000D03*
D12*
X41910000Y-69850000D03*
D13*
X41910000Y-72390000D03*
X41910000Y-74930000D03*
X41910000Y-77470000D03*
X41910000Y-80010000D03*
X41910000Y-82550000D03*
X41910000Y-85090000D03*
X41910000Y-87630000D03*
D12*
X44450000Y-69850000D03*
D13*
X44450000Y-72390000D03*
X44450000Y-74930000D03*
X44450000Y-77470000D03*
X44450000Y-80010000D03*
X44450000Y-82550000D03*
X44450000Y-85090000D03*
X44450000Y-87630000D03*
D12*
X41910000Y-29210000D03*
D13*
X41910000Y-31750000D03*
X41910000Y-34290000D03*
X41910000Y-36830000D03*
X41910000Y-39370000D03*
X41910000Y-41910000D03*
X41910000Y-44450000D03*
X41910000Y-46990000D03*
D12*
X44450000Y-29210000D03*
D13*
X44450000Y-31750000D03*
X44450000Y-34290000D03*
X44450000Y-36830000D03*
X44450000Y-39370000D03*
X44450000Y-41910000D03*
X44450000Y-44450000D03*
X44450000Y-46990000D03*
D12*
X41910000Y-49530000D03*
D13*
X41910000Y-52070000D03*
X41910000Y-54610000D03*
X41910000Y-57150000D03*
X41910000Y-59690000D03*
X41910000Y-62230000D03*
X41910000Y-64770000D03*
X41910000Y-67310000D03*
D14*
X62230000Y-104140000D03*
D15*
X36830000Y-25400000D03*
X77470000Y-25400000D03*
X36830000Y-113030000D03*
X77470000Y-113030000D03*
D16*
G36*
X81840000Y-117400000D02*
X32460000Y-117400000D01*
X32460000Y-113789482D01*
X32994336Y-113789482D01*
X33576950Y-115199515D01*
X34654811Y-116279259D01*
X36063825Y-116864333D01*
X37589482Y-116865664D01*
X38999515Y-116283050D01*
X40079259Y-115205189D01*
X40664333Y-113796175D01*
X40664338Y-113789482D01*
X73634336Y-113789482D01*
X74216950Y-115199515D01*
X75294811Y-116279259D01*
X76703825Y-116864333D01*
X78229482Y-116865664D01*
X79639515Y-116283050D01*
X80719259Y-115205189D01*
X81304333Y-113796175D01*
X81305664Y-112270518D01*
X80723050Y-110860485D01*
X79645189Y-109780741D01*
X78236175Y-109195667D01*
X76710518Y-109194336D01*
X75300485Y-109776950D01*
X74220741Y-110854811D01*
X73635667Y-112263825D01*
X73634336Y-113789482D01*
X40664338Y-113789482D01*
X40665664Y-112270518D01*
X40083050Y-110860485D01*
X39005189Y-109780741D01*
X37596175Y-109195667D01*
X36070518Y-109194336D01*
X34660485Y-109776950D01*
X33580741Y-110854811D01*
X32995667Y-112263825D01*
X32994336Y-113789482D01*
X32460000Y-113789482D01*
X32460000Y-31750000D01*
X40395907Y-31750000D01*
X40508946Y-32318285D01*
X40830853Y-32800054D01*
X41160026Y-33020000D01*
X40830853Y-33239946D01*
X40508946Y-33721715D01*
X40395907Y-34290000D01*
X40508946Y-34858285D01*
X40830853Y-35340054D01*
X41160026Y-35560000D01*
X40830853Y-35779946D01*
X40508946Y-36261715D01*
X40395907Y-36830000D01*
X40508946Y-37398285D01*
X40830853Y-37880054D01*
X41160026Y-38100000D01*
X40830853Y-38319946D01*
X40508946Y-38801715D01*
X40395907Y-39370000D01*
X40508946Y-39938285D01*
X40830853Y-40420054D01*
X41160026Y-40640000D01*
X40830853Y-40859946D01*
X40508946Y-41341715D01*
X40395907Y-41910000D01*
X40508946Y-42478285D01*
X40830853Y-42960054D01*
X41160026Y-43180000D01*
X40830853Y-43399946D01*
X40508946Y-43881715D01*
X40395907Y-44450000D01*
X40508946Y-45018285D01*
X40830853Y-45500054D01*
X41160026Y-45720000D01*
X40830853Y-45939946D01*
X40508946Y-46421715D01*
X40395907Y-46990000D01*
X40508946Y-47558285D01*
X40830853Y-48040054D01*
X40872452Y-48067850D01*
X40824683Y-48076838D01*
X40608559Y-48215910D01*
X40463569Y-48428110D01*
X40412560Y-48680000D01*
X40412560Y-50380000D01*
X40456838Y-50615317D01*
X40595910Y-50831441D01*
X40808110Y-50976431D01*
X40875541Y-50990086D01*
X40830853Y-51019946D01*
X40508946Y-51501715D01*
X40395907Y-52070000D01*
X40508946Y-52638285D01*
X40830853Y-53120054D01*
X41160026Y-53340000D01*
X40830853Y-53559946D01*
X40508946Y-54041715D01*
X40395907Y-54610000D01*
X40508946Y-55178285D01*
X40830853Y-55660054D01*
X41160026Y-55880000D01*
X40830853Y-56099946D01*
X40508946Y-56581715D01*
X40395907Y-57150000D01*
X40508946Y-57718285D01*
X40830853Y-58200054D01*
X41160026Y-58420000D01*
X40830853Y-58639946D01*
X40508946Y-59121715D01*
X40395907Y-59690000D01*
X40508946Y-60258285D01*
X40830853Y-60740054D01*
X41160026Y-60960000D01*
X40830853Y-61179946D01*
X40508946Y-61661715D01*
X40395907Y-62230000D01*
X40508946Y-62798285D01*
X40830853Y-63280054D01*
X41160026Y-63500000D01*
X40830853Y-63719946D01*
X40508946Y-64201715D01*
X40395907Y-64770000D01*
X40508946Y-65338285D01*
X40830853Y-65820054D01*
X41160026Y-66040000D01*
X40830853Y-66259946D01*
X40508946Y-66741715D01*
X40395907Y-67310000D01*
X40508946Y-67878285D01*
X40830853Y-68360054D01*
X40872452Y-68387850D01*
X40824683Y-68396838D01*
X40608559Y-68535910D01*
X40463569Y-68748110D01*
X40412560Y-69000000D01*
X40412560Y-70700000D01*
X40456838Y-70935317D01*
X40595910Y-71151441D01*
X40808110Y-71296431D01*
X40875541Y-71310086D01*
X40830853Y-71339946D01*
X40508946Y-71821715D01*
X40395907Y-72390000D01*
X40508946Y-72958285D01*
X40830853Y-73440054D01*
X41160026Y-73660000D01*
X40830853Y-73879946D01*
X40508946Y-74361715D01*
X40395907Y-74930000D01*
X40508946Y-75498285D01*
X40830853Y-75980054D01*
X41160026Y-76200000D01*
X40830853Y-76419946D01*
X40508946Y-76901715D01*
X40395907Y-77470000D01*
X40508946Y-78038285D01*
X40830853Y-78520054D01*
X41160026Y-78740000D01*
X40830853Y-78959946D01*
X40508946Y-79441715D01*
X40395907Y-80010000D01*
X40508946Y-80578285D01*
X40830853Y-81060054D01*
X41160026Y-81280000D01*
X40830853Y-81499946D01*
X40508946Y-81981715D01*
X40395907Y-82550000D01*
X40508946Y-83118285D01*
X40830853Y-83600054D01*
X41160026Y-83820000D01*
X40830853Y-84039946D01*
X40508946Y-84521715D01*
X40395907Y-85090000D01*
X40508946Y-85658285D01*
X40830853Y-86140054D01*
X41160026Y-86360000D01*
X40830853Y-86579946D01*
X40508946Y-87061715D01*
X40395907Y-87630000D01*
X40508946Y-88198285D01*
X40830853Y-88680054D01*
X40872452Y-88707850D01*
X40824683Y-88716838D01*
X40608559Y-88855910D01*
X40463569Y-89068110D01*
X40412560Y-89320000D01*
X40412560Y-91020000D01*
X40456838Y-91255317D01*
X40595910Y-91471441D01*
X40808110Y-91616431D01*
X40875541Y-91630086D01*
X40830853Y-91659946D01*
X40508946Y-92141715D01*
X40395907Y-92710000D01*
X40508946Y-93278285D01*
X40830853Y-93760054D01*
X41160026Y-93980000D01*
X40830853Y-94199946D01*
X40508946Y-94681715D01*
X40395907Y-95250000D01*
X40508946Y-95818285D01*
X40830853Y-96300054D01*
X41160026Y-96520000D01*
X40830853Y-96739946D01*
X40508946Y-97221715D01*
X40395907Y-97790000D01*
X40508946Y-98358285D01*
X40830853Y-98840054D01*
X41160026Y-99060000D01*
X40830853Y-99279946D01*
X40508946Y-99761715D01*
X40395907Y-100330000D01*
X40508946Y-100898285D01*
X40830853Y-101380054D01*
X41160026Y-101600000D01*
X40830853Y-101819946D01*
X40508946Y-102301715D01*
X40395907Y-102870000D01*
X40508946Y-103438285D01*
X40830853Y-103920054D01*
X41160026Y-104140000D01*
X40830853Y-104359946D01*
X40508946Y-104841715D01*
X40395907Y-105410000D01*
X40508946Y-105978285D01*
X40830853Y-106460054D01*
X41160026Y-106680000D01*
X40830853Y-106899946D01*
X40508946Y-107381715D01*
X40395907Y-107950000D01*
X40508946Y-108518285D01*
X40830853Y-109000054D01*
X41312622Y-109321961D01*
X41880907Y-109435000D01*
X41939093Y-109435000D01*
X42507378Y-109321961D01*
X42989147Y-109000054D01*
X43107449Y-108823002D01*
X43265207Y-108823002D01*
X43344155Y-108941175D01*
X43807639Y-109288915D01*
X44025000Y-109214168D01*
X44025000Y-108375000D01*
X44875000Y-108375000D01*
X44875000Y-109214168D01*
X45092361Y-109288915D01*
X45555845Y-108941175D01*
X45788881Y-108592356D01*
X45706310Y-108375000D01*
X44875000Y-108375000D01*
X44025000Y-108375000D01*
X43600000Y-108375000D01*
X43600000Y-107525000D01*
X44025000Y-107525000D01*
X44025000Y-106685832D01*
X44008041Y-106680000D01*
X44025000Y-106674168D01*
X44025000Y-105835000D01*
X44875000Y-105835000D01*
X44875000Y-106674168D01*
X44891959Y-106680000D01*
X44875000Y-106685832D01*
X44875000Y-107525000D01*
X45706310Y-107525000D01*
X45788881Y-107307644D01*
X45555845Y-106958825D01*
X45184214Y-106680000D01*
X45555845Y-106401175D01*
X45788881Y-106052356D01*
X45706310Y-105835000D01*
X44875000Y-105835000D01*
X44025000Y-105835000D01*
X43600000Y-105835000D01*
X43600000Y-105171750D01*
X59095000Y-105171750D01*
X59095000Y-109266310D01*
X59191673Y-109499699D01*
X59370302Y-109678327D01*
X59603691Y-109775000D01*
X61198250Y-109775000D01*
X61357000Y-109616250D01*
X61357000Y-105013000D01*
X63103000Y-105013000D01*
X63103000Y-109616250D01*
X63261750Y-109775000D01*
X64856309Y-109775000D01*
X65089698Y-109678327D01*
X65268327Y-109499699D01*
X65365000Y-109266310D01*
X65365000Y-105171750D01*
X65206250Y-105013000D01*
X63103000Y-105013000D01*
X61357000Y-105013000D01*
X59253750Y-105013000D01*
X59095000Y-105171750D01*
X43600000Y-105171750D01*
X43600000Y-104985000D01*
X44025000Y-104985000D01*
X44025000Y-104145832D01*
X44008041Y-104140000D01*
X44025000Y-104134168D01*
X44025000Y-103295000D01*
X44875000Y-103295000D01*
X44875000Y-104134168D01*
X44891959Y-104140000D01*
X44875000Y-104145832D01*
X44875000Y-104985000D01*
X45706310Y-104985000D01*
X45788881Y-104767644D01*
X45555845Y-104418825D01*
X45184214Y-104140000D01*
X45555845Y-103861175D01*
X45788881Y-103512356D01*
X45706310Y-103295000D01*
X44875000Y-103295000D01*
X44025000Y-103295000D01*
X43600000Y-103295000D01*
X43600000Y-102445000D01*
X44025000Y-102445000D01*
X44025000Y-101605832D01*
X44008041Y-101600000D01*
X44025000Y-101594168D01*
X44025000Y-100755000D01*
X44875000Y-100755000D01*
X44875000Y-101594168D01*
X44891959Y-101600000D01*
X44875000Y-101605832D01*
X44875000Y-102445000D01*
X45706310Y-102445000D01*
X45788881Y-102227644D01*
X45555845Y-101878825D01*
X45184214Y-101600000D01*
X45555845Y-101321175D01*
X45788881Y-100972356D01*
X45706310Y-100755000D01*
X44875000Y-100755000D01*
X44025000Y-100755000D01*
X43600000Y-100755000D01*
X43600000Y-99905000D01*
X44025000Y-99905000D01*
X44025000Y-99065832D01*
X44008041Y-99060000D01*
X44025000Y-99054168D01*
X44025000Y-98215000D01*
X44875000Y-98215000D01*
X44875000Y-99054168D01*
X44891959Y-99060000D01*
X44875000Y-99065832D01*
X44875000Y-99905000D01*
X45706310Y-99905000D01*
X45788881Y-99687644D01*
X45555845Y-99338825D01*
X45184214Y-99060000D01*
X45245938Y-99013690D01*
X59095000Y-99013690D01*
X59095000Y-103108250D01*
X59253750Y-103267000D01*
X61357000Y-103267000D01*
X61357000Y-98663750D01*
X63103000Y-98663750D01*
X63103000Y-103267000D01*
X65206250Y-103267000D01*
X65365000Y-103108250D01*
X65365000Y-99013690D01*
X65268327Y-98780301D01*
X65089698Y-98601673D01*
X64856309Y-98505000D01*
X63261750Y-98505000D01*
X63103000Y-98663750D01*
X61357000Y-98663750D01*
X61198250Y-98505000D01*
X59603691Y-98505000D01*
X59370302Y-98601673D01*
X59191673Y-98780301D01*
X59095000Y-99013690D01*
X45245938Y-99013690D01*
X45555845Y-98781175D01*
X45788881Y-98432356D01*
X45706310Y-98215000D01*
X44875000Y-98215000D01*
X44025000Y-98215000D01*
X43600000Y-98215000D01*
X43600000Y-97365000D01*
X44025000Y-97365000D01*
X44025000Y-96525832D01*
X44008041Y-96520000D01*
X44025000Y-96514168D01*
X44025000Y-95675000D01*
X44875000Y-95675000D01*
X44875000Y-96514168D01*
X44891959Y-96520000D01*
X44875000Y-96525832D01*
X44875000Y-97365000D01*
X45706310Y-97365000D01*
X45788881Y-97147644D01*
X45555845Y-96798825D01*
X45184214Y-96520000D01*
X45555845Y-96241175D01*
X45788881Y-95892356D01*
X45706310Y-95675000D01*
X44875000Y-95675000D01*
X44025000Y-95675000D01*
X43600000Y-95675000D01*
X43600000Y-94825000D01*
X44025000Y-94825000D01*
X44025000Y-93985832D01*
X44008041Y-93980000D01*
X44025000Y-93974168D01*
X44025000Y-93135000D01*
X44875000Y-93135000D01*
X44875000Y-93974168D01*
X44891959Y-93980000D01*
X44875000Y-93985832D01*
X44875000Y-94825000D01*
X45706310Y-94825000D01*
X45788881Y-94607644D01*
X45555845Y-94258825D01*
X45184214Y-93980000D01*
X45555845Y-93701175D01*
X45788881Y-93352356D01*
X45706310Y-93135000D01*
X44875000Y-93135000D01*
X44025000Y-93135000D01*
X43600000Y-93135000D01*
X43600000Y-92285000D01*
X44025000Y-92285000D01*
X44025000Y-90595000D01*
X44875000Y-90595000D01*
X44875000Y-92285000D01*
X45706310Y-92285000D01*
X45788881Y-92067644D01*
X45555845Y-91718825D01*
X45454959Y-91643133D01*
X45659698Y-91558327D01*
X45838327Y-91379699D01*
X45935000Y-91146310D01*
X45935000Y-90753750D01*
X53125000Y-90753750D01*
X53125000Y-91146309D01*
X53221673Y-91379698D01*
X53400301Y-91558327D01*
X53633690Y-91655000D01*
X54026250Y-91655000D01*
X54185000Y-91496250D01*
X54185000Y-90595000D01*
X55035000Y-90595000D01*
X55035000Y-91496250D01*
X55193750Y-91655000D01*
X55586310Y-91655000D01*
X55819699Y-91558327D01*
X55998327Y-91379698D01*
X56083133Y-91174959D01*
X56158825Y-91275845D01*
X56507644Y-91508881D01*
X56725000Y-91426310D01*
X56725000Y-90595000D01*
X57575000Y-90595000D01*
X57575000Y-91426310D01*
X57792356Y-91508881D01*
X58141175Y-91275845D01*
X58420000Y-90904214D01*
X58698825Y-91275845D01*
X59047644Y-91508881D01*
X59265000Y-91426310D01*
X59265000Y-90595000D01*
X60115000Y-90595000D01*
X60115000Y-91426310D01*
X60332356Y-91508881D01*
X60681175Y-91275845D01*
X60960000Y-90904214D01*
X61238825Y-91275845D01*
X61587644Y-91508881D01*
X61805000Y-91426310D01*
X61805000Y-90595000D01*
X60965832Y-90595000D01*
X60960000Y-90611959D01*
X60954168Y-90595000D01*
X60115000Y-90595000D01*
X59265000Y-90595000D01*
X58425832Y-90595000D01*
X58420000Y-90611959D01*
X58414168Y-90595000D01*
X57575000Y-90595000D01*
X56725000Y-90595000D01*
X55035000Y-90595000D01*
X54185000Y-90595000D01*
X53283750Y-90595000D01*
X53125000Y-90753750D01*
X45935000Y-90753750D01*
X45776250Y-90595000D01*
X44875000Y-90595000D01*
X44025000Y-90595000D01*
X43600000Y-90595000D01*
X43600000Y-89745000D01*
X44025000Y-89745000D01*
X44025000Y-88055000D01*
X44875000Y-88055000D01*
X44875000Y-89745000D01*
X45776250Y-89745000D01*
X45935000Y-89586250D01*
X45935000Y-89193691D01*
X53125000Y-89193691D01*
X53125000Y-89586250D01*
X53283750Y-89745000D01*
X54185000Y-89745000D01*
X54185000Y-88843750D01*
X55035000Y-88843750D01*
X55035000Y-89745000D01*
X56725000Y-89745000D01*
X56725000Y-88913690D01*
X57575000Y-88913690D01*
X57575000Y-89745000D01*
X58414168Y-89745000D01*
X58420000Y-89728041D01*
X58425832Y-89745000D01*
X59265000Y-89745000D01*
X59265000Y-88913690D01*
X60115000Y-88913690D01*
X60115000Y-89745000D01*
X60954168Y-89745000D01*
X60960000Y-89728041D01*
X60965832Y-89745000D01*
X61805000Y-89745000D01*
X61805000Y-88913690D01*
X62655000Y-88913690D01*
X62655000Y-89745000D01*
X63080000Y-89745000D01*
X63080000Y-90595000D01*
X62655000Y-90595000D01*
X62655000Y-91426310D01*
X62872356Y-91508881D01*
X63221175Y-91275845D01*
X63395871Y-91043002D01*
X63582205Y-91043002D01*
X63719946Y-91249147D01*
X64201715Y-91571054D01*
X64770000Y-91684093D01*
X65338285Y-91571054D01*
X65820054Y-91249147D01*
X66040000Y-90919974D01*
X66259946Y-91249147D01*
X66741715Y-91571054D01*
X67310000Y-91684093D01*
X67878285Y-91571054D01*
X68360054Y-91249147D01*
X68580000Y-90919974D01*
X68799946Y-91249147D01*
X69281715Y-91571054D01*
X69850000Y-91684093D01*
X70418285Y-91571054D01*
X70900054Y-91249147D01*
X71120000Y-90919974D01*
X71339946Y-91249147D01*
X71821715Y-91571054D01*
X72390000Y-91684093D01*
X72958285Y-91571054D01*
X73440054Y-91249147D01*
X73761961Y-90767378D01*
X73875000Y-90199093D01*
X73875000Y-90140907D01*
X73761961Y-89572622D01*
X73440054Y-89090853D01*
X72958285Y-88768946D01*
X72390000Y-88655907D01*
X71821715Y-88768946D01*
X71339946Y-89090853D01*
X71120000Y-89420026D01*
X70900054Y-89090853D01*
X70418285Y-88768946D01*
X69850000Y-88655907D01*
X69281715Y-88768946D01*
X68799946Y-89090853D01*
X68580000Y-89420026D01*
X68360054Y-89090853D01*
X67878285Y-88768946D01*
X67310000Y-88655907D01*
X66741715Y-88768946D01*
X66259946Y-89090853D01*
X66040000Y-89420026D01*
X65820054Y-89090853D01*
X65338285Y-88768946D01*
X64770000Y-88655907D01*
X64201715Y-88768946D01*
X63719946Y-89090853D01*
X63582205Y-89296998D01*
X63395871Y-89296998D01*
X63221175Y-89064155D01*
X62872356Y-88831119D01*
X62655000Y-88913690D01*
X61805000Y-88913690D01*
X61587644Y-88831119D01*
X61238825Y-89064155D01*
X60960000Y-89435786D01*
X60681175Y-89064155D01*
X60332356Y-88831119D01*
X60115000Y-88913690D01*
X59265000Y-88913690D01*
X59047644Y-88831119D01*
X58698825Y-89064155D01*
X58420000Y-89435786D01*
X58141175Y-89064155D01*
X57792356Y-88831119D01*
X57575000Y-88913690D01*
X56725000Y-88913690D01*
X56507644Y-88831119D01*
X56158825Y-89064155D01*
X56083133Y-89165041D01*
X55998327Y-88960302D01*
X55819699Y-88781673D01*
X55586310Y-88685000D01*
X55193750Y-88685000D01*
X55035000Y-88843750D01*
X54185000Y-88843750D01*
X54026250Y-88685000D01*
X53633690Y-88685000D01*
X53400301Y-88781673D01*
X53221673Y-88960302D01*
X53125000Y-89193691D01*
X45935000Y-89193691D01*
X45935000Y-89193690D01*
X45838327Y-88960301D01*
X45659698Y-88781673D01*
X45454959Y-88696867D01*
X45555845Y-88621175D01*
X45788881Y-88272356D01*
X45706310Y-88055000D01*
X44875000Y-88055000D01*
X44025000Y-88055000D01*
X43600000Y-88055000D01*
X43600000Y-87205000D01*
X44025000Y-87205000D01*
X44025000Y-86365832D01*
X44008041Y-86360000D01*
X44025000Y-86354168D01*
X44025000Y-85515000D01*
X44875000Y-85515000D01*
X44875000Y-86354168D01*
X44891959Y-86360000D01*
X44875000Y-86365832D01*
X44875000Y-87205000D01*
X45706310Y-87205000D01*
X45788881Y-86987644D01*
X45555845Y-86638825D01*
X45184214Y-86360000D01*
X45555845Y-86081175D01*
X45788881Y-85732356D01*
X45706310Y-85515000D01*
X44875000Y-85515000D01*
X44025000Y-85515000D01*
X43600000Y-85515000D01*
X43600000Y-84665000D01*
X44025000Y-84665000D01*
X44025000Y-83825832D01*
X44008041Y-83820000D01*
X44025000Y-83814168D01*
X44025000Y-82975000D01*
X44875000Y-82975000D01*
X44875000Y-83814168D01*
X44891959Y-83820000D01*
X44875000Y-83825832D01*
X44875000Y-84665000D01*
X45706310Y-84665000D01*
X45788881Y-84447644D01*
X45555845Y-84098825D01*
X45184214Y-83820000D01*
X45555845Y-83541175D01*
X45788881Y-83192356D01*
X45706310Y-82975000D01*
X44875000Y-82975000D01*
X44025000Y-82975000D01*
X43600000Y-82975000D01*
X43600000Y-82125000D01*
X44025000Y-82125000D01*
X44025000Y-81285832D01*
X44008041Y-81280000D01*
X44025000Y-81274168D01*
X44025000Y-80435000D01*
X44875000Y-80435000D01*
X44875000Y-81274168D01*
X44891959Y-81280000D01*
X44875000Y-81285832D01*
X44875000Y-82125000D01*
X45706310Y-82125000D01*
X45788881Y-81907644D01*
X45555845Y-81558825D01*
X45184214Y-81280000D01*
X45555845Y-81001175D01*
X45788881Y-80652356D01*
X45706310Y-80435000D01*
X44875000Y-80435000D01*
X44025000Y-80435000D01*
X43600000Y-80435000D01*
X43600000Y-79585000D01*
X44025000Y-79585000D01*
X44025000Y-78745832D01*
X44008041Y-78740000D01*
X44025000Y-78734168D01*
X44025000Y-77895000D01*
X44875000Y-77895000D01*
X44875000Y-78734168D01*
X44891959Y-78740000D01*
X44875000Y-78745832D01*
X44875000Y-79585000D01*
X45706310Y-79585000D01*
X45788881Y-79367644D01*
X45555845Y-79018825D01*
X45184214Y-78740000D01*
X45555845Y-78461175D01*
X45788881Y-78112356D01*
X45706310Y-77895000D01*
X44875000Y-77895000D01*
X44025000Y-77895000D01*
X43600000Y-77895000D01*
X43600000Y-77045000D01*
X44025000Y-77045000D01*
X44025000Y-76205832D01*
X44008041Y-76200000D01*
X44025000Y-76194168D01*
X44025000Y-75355000D01*
X44875000Y-75355000D01*
X44875000Y-76194168D01*
X44891959Y-76200000D01*
X44875000Y-76205832D01*
X44875000Y-77045000D01*
X45706310Y-77045000D01*
X45788881Y-76827644D01*
X45555845Y-76478825D01*
X45184214Y-76200000D01*
X45555845Y-75921175D01*
X45788881Y-75572356D01*
X45706310Y-75355000D01*
X44875000Y-75355000D01*
X44025000Y-75355000D01*
X43600000Y-75355000D01*
X43600000Y-74505000D01*
X44025000Y-74505000D01*
X44025000Y-73665832D01*
X44008041Y-73660000D01*
X44025000Y-73654168D01*
X44025000Y-72815000D01*
X44875000Y-72815000D01*
X44875000Y-73654168D01*
X44891959Y-73660000D01*
X44875000Y-73665832D01*
X44875000Y-74505000D01*
X45706310Y-74505000D01*
X45788881Y-74287644D01*
X45555845Y-73938825D01*
X45184214Y-73660000D01*
X45555845Y-73381175D01*
X45788881Y-73032356D01*
X45706310Y-72815000D01*
X44875000Y-72815000D01*
X44025000Y-72815000D01*
X43600000Y-72815000D01*
X43600000Y-71965000D01*
X44025000Y-71965000D01*
X44025000Y-70275000D01*
X44875000Y-70275000D01*
X44875000Y-71965000D01*
X45706310Y-71965000D01*
X45788881Y-71747644D01*
X45555845Y-71398825D01*
X45454959Y-71323133D01*
X45659698Y-71238327D01*
X45838327Y-71059699D01*
X45935000Y-70826310D01*
X45935000Y-70433750D01*
X53125000Y-70433750D01*
X53125000Y-70826309D01*
X53221673Y-71059698D01*
X53400301Y-71238327D01*
X53633690Y-71335000D01*
X54026250Y-71335000D01*
X54185000Y-71176250D01*
X54185000Y-70275000D01*
X55035000Y-70275000D01*
X55035000Y-71176250D01*
X55193750Y-71335000D01*
X55586310Y-71335000D01*
X55819699Y-71238327D01*
X55998327Y-71059698D01*
X56083133Y-70854959D01*
X56158825Y-70955845D01*
X56507644Y-71188881D01*
X56725000Y-71106310D01*
X56725000Y-70275000D01*
X57575000Y-70275000D01*
X57575000Y-71106310D01*
X57792356Y-71188881D01*
X58141175Y-70955845D01*
X58420000Y-70584214D01*
X58698825Y-70955845D01*
X59047644Y-71188881D01*
X59265000Y-71106310D01*
X59265000Y-70275000D01*
X60115000Y-70275000D01*
X60115000Y-71106310D01*
X60332356Y-71188881D01*
X60681175Y-70955845D01*
X60960000Y-70584214D01*
X61238825Y-70955845D01*
X61587644Y-71188881D01*
X61805000Y-71106310D01*
X61805000Y-70275000D01*
X60965832Y-70275000D01*
X60960000Y-70291959D01*
X60954168Y-70275000D01*
X60115000Y-70275000D01*
X59265000Y-70275000D01*
X58425832Y-70275000D01*
X58420000Y-70291959D01*
X58414168Y-70275000D01*
X57575000Y-70275000D01*
X56725000Y-70275000D01*
X55035000Y-70275000D01*
X54185000Y-70275000D01*
X53283750Y-70275000D01*
X53125000Y-70433750D01*
X45935000Y-70433750D01*
X45776250Y-70275000D01*
X44875000Y-70275000D01*
X44025000Y-70275000D01*
X43600000Y-70275000D01*
X43600000Y-69425000D01*
X44025000Y-69425000D01*
X44025000Y-67735000D01*
X44875000Y-67735000D01*
X44875000Y-69425000D01*
X45776250Y-69425000D01*
X45935000Y-69266250D01*
X45935000Y-68873691D01*
X53125000Y-68873691D01*
X53125000Y-69266250D01*
X53283750Y-69425000D01*
X54185000Y-69425000D01*
X54185000Y-68523750D01*
X55035000Y-68523750D01*
X55035000Y-69425000D01*
X56725000Y-69425000D01*
X56725000Y-68593690D01*
X57575000Y-68593690D01*
X57575000Y-69425000D01*
X58414168Y-69425000D01*
X58420000Y-69408041D01*
X58425832Y-69425000D01*
X59265000Y-69425000D01*
X59265000Y-68593690D01*
X60115000Y-68593690D01*
X60115000Y-69425000D01*
X60954168Y-69425000D01*
X60960000Y-69408041D01*
X60965832Y-69425000D01*
X61805000Y-69425000D01*
X61805000Y-68593690D01*
X62655000Y-68593690D01*
X62655000Y-69425000D01*
X63080000Y-69425000D01*
X63080000Y-70275000D01*
X62655000Y-70275000D01*
X62655000Y-71106310D01*
X62872356Y-71188881D01*
X63221175Y-70955845D01*
X63395871Y-70723002D01*
X63582205Y-70723002D01*
X63719946Y-70929147D01*
X64201715Y-71251054D01*
X64770000Y-71364093D01*
X65338285Y-71251054D01*
X65820054Y-70929147D01*
X66040000Y-70599974D01*
X66259946Y-70929147D01*
X66741715Y-71251054D01*
X67310000Y-71364093D01*
X67878285Y-71251054D01*
X68360054Y-70929147D01*
X68580000Y-70599974D01*
X68799946Y-70929147D01*
X69281715Y-71251054D01*
X69850000Y-71364093D01*
X70418285Y-71251054D01*
X70900054Y-70929147D01*
X71120000Y-70599974D01*
X71339946Y-70929147D01*
X71821715Y-71251054D01*
X72390000Y-71364093D01*
X72958285Y-71251054D01*
X73440054Y-70929147D01*
X73761961Y-70447378D01*
X73875000Y-69879093D01*
X73875000Y-69820907D01*
X73761961Y-69252622D01*
X73440054Y-68770853D01*
X72958285Y-68448946D01*
X72390000Y-68335907D01*
X71821715Y-68448946D01*
X71339946Y-68770853D01*
X71120000Y-69100026D01*
X70900054Y-68770853D01*
X70418285Y-68448946D01*
X69850000Y-68335907D01*
X69281715Y-68448946D01*
X68799946Y-68770853D01*
X68580000Y-69100026D01*
X68360054Y-68770853D01*
X67878285Y-68448946D01*
X67310000Y-68335907D01*
X66741715Y-68448946D01*
X66259946Y-68770853D01*
X66040000Y-69100026D01*
X65820054Y-68770853D01*
X65338285Y-68448946D01*
X64770000Y-68335907D01*
X64201715Y-68448946D01*
X63719946Y-68770853D01*
X63582205Y-68976998D01*
X63395871Y-68976998D01*
X63221175Y-68744155D01*
X62872356Y-68511119D01*
X62655000Y-68593690D01*
X61805000Y-68593690D01*
X61587644Y-68511119D01*
X61238825Y-68744155D01*
X60960000Y-69115786D01*
X60681175Y-68744155D01*
X60332356Y-68511119D01*
X60115000Y-68593690D01*
X59265000Y-68593690D01*
X59047644Y-68511119D01*
X58698825Y-68744155D01*
X58420000Y-69115786D01*
X58141175Y-68744155D01*
X57792356Y-68511119D01*
X57575000Y-68593690D01*
X56725000Y-68593690D01*
X56507644Y-68511119D01*
X56158825Y-68744155D01*
X56083133Y-68845041D01*
X55998327Y-68640302D01*
X55819699Y-68461673D01*
X55586310Y-68365000D01*
X55193750Y-68365000D01*
X55035000Y-68523750D01*
X54185000Y-68523750D01*
X54026250Y-68365000D01*
X53633690Y-68365000D01*
X53400301Y-68461673D01*
X53221673Y-68640302D01*
X53125000Y-68873691D01*
X45935000Y-68873691D01*
X45935000Y-68873690D01*
X45838327Y-68640301D01*
X45659698Y-68461673D01*
X45454959Y-68376867D01*
X45555845Y-68301175D01*
X45788881Y-67952356D01*
X45706310Y-67735000D01*
X44875000Y-67735000D01*
X44025000Y-67735000D01*
X43600000Y-67735000D01*
X43600000Y-66885000D01*
X44025000Y-66885000D01*
X44025000Y-66045832D01*
X44008041Y-66040000D01*
X44025000Y-66034168D01*
X44025000Y-65195000D01*
X44875000Y-65195000D01*
X44875000Y-66034168D01*
X44891959Y-66040000D01*
X44875000Y-66045832D01*
X44875000Y-66885000D01*
X45706310Y-66885000D01*
X45788881Y-66667644D01*
X45555845Y-66318825D01*
X45184214Y-66040000D01*
X45555845Y-65761175D01*
X45788881Y-65412356D01*
X45706310Y-65195000D01*
X44875000Y-65195000D01*
X44025000Y-65195000D01*
X43600000Y-65195000D01*
X43600000Y-64345000D01*
X44025000Y-64345000D01*
X44025000Y-63505832D01*
X44008041Y-63500000D01*
X44025000Y-63494168D01*
X44025000Y-62655000D01*
X44875000Y-62655000D01*
X44875000Y-63494168D01*
X44891959Y-63500000D01*
X44875000Y-63505832D01*
X44875000Y-64345000D01*
X45706310Y-64345000D01*
X45788881Y-64127644D01*
X45555845Y-63778825D01*
X45184214Y-63500000D01*
X45555845Y-63221175D01*
X45788881Y-62872356D01*
X45706310Y-62655000D01*
X44875000Y-62655000D01*
X44025000Y-62655000D01*
X43600000Y-62655000D01*
X43600000Y-61805000D01*
X44025000Y-61805000D01*
X44025000Y-60965832D01*
X44008041Y-60960000D01*
X44025000Y-60954168D01*
X44025000Y-60115000D01*
X44875000Y-60115000D01*
X44875000Y-60954168D01*
X44891959Y-60960000D01*
X44875000Y-60965832D01*
X44875000Y-61805000D01*
X45706310Y-61805000D01*
X45788881Y-61587644D01*
X45555845Y-61238825D01*
X45184214Y-60960000D01*
X45555845Y-60681175D01*
X45788881Y-60332356D01*
X45706310Y-60115000D01*
X44875000Y-60115000D01*
X44025000Y-60115000D01*
X43600000Y-60115000D01*
X43600000Y-59265000D01*
X44025000Y-59265000D01*
X44025000Y-58425832D01*
X44008041Y-58420000D01*
X44025000Y-58414168D01*
X44025000Y-57575000D01*
X44875000Y-57575000D01*
X44875000Y-58414168D01*
X44891959Y-58420000D01*
X44875000Y-58425832D01*
X44875000Y-59265000D01*
X45706310Y-59265000D01*
X45788881Y-59047644D01*
X45555845Y-58698825D01*
X45184214Y-58420000D01*
X45555845Y-58141175D01*
X45788881Y-57792356D01*
X45706310Y-57575000D01*
X44875000Y-57575000D01*
X44025000Y-57575000D01*
X43600000Y-57575000D01*
X43600000Y-56725000D01*
X44025000Y-56725000D01*
X44025000Y-55885832D01*
X44008041Y-55880000D01*
X44025000Y-55874168D01*
X44025000Y-55035000D01*
X44875000Y-55035000D01*
X44875000Y-55874168D01*
X44891959Y-55880000D01*
X44875000Y-55885832D01*
X44875000Y-56725000D01*
X45706310Y-56725000D01*
X45788881Y-56507644D01*
X45555845Y-56158825D01*
X45184214Y-55880000D01*
X45555845Y-55601175D01*
X45788881Y-55252356D01*
X45706310Y-55035000D01*
X44875000Y-55035000D01*
X44025000Y-55035000D01*
X43600000Y-55035000D01*
X43600000Y-54185000D01*
X44025000Y-54185000D01*
X44025000Y-53345832D01*
X44008041Y-53340000D01*
X44025000Y-53334168D01*
X44025000Y-52495000D01*
X44875000Y-52495000D01*
X44875000Y-53334168D01*
X44891959Y-53340000D01*
X44875000Y-53345832D01*
X44875000Y-54185000D01*
X45706310Y-54185000D01*
X45788881Y-53967644D01*
X45555845Y-53618825D01*
X45184214Y-53340000D01*
X45555845Y-53061175D01*
X45788881Y-52712356D01*
X45706310Y-52495000D01*
X44875000Y-52495000D01*
X44025000Y-52495000D01*
X43600000Y-52495000D01*
X43600000Y-51645000D01*
X44025000Y-51645000D01*
X44025000Y-49955000D01*
X44875000Y-49955000D01*
X44875000Y-51645000D01*
X45706310Y-51645000D01*
X45788881Y-51427644D01*
X45555845Y-51078825D01*
X45454959Y-51003133D01*
X45659698Y-50918327D01*
X45838327Y-50739699D01*
X45935000Y-50506310D01*
X45935000Y-50113750D01*
X53125000Y-50113750D01*
X53125000Y-50506309D01*
X53221673Y-50739698D01*
X53400301Y-50918327D01*
X53633690Y-51015000D01*
X54026250Y-51015000D01*
X54185000Y-50856250D01*
X54185000Y-49955000D01*
X55035000Y-49955000D01*
X55035000Y-50856250D01*
X55193750Y-51015000D01*
X55586310Y-51015000D01*
X55819699Y-50918327D01*
X55998327Y-50739698D01*
X56083133Y-50534959D01*
X56158825Y-50635845D01*
X56507644Y-50868881D01*
X56725000Y-50786310D01*
X56725000Y-49955000D01*
X57575000Y-49955000D01*
X57575000Y-50786310D01*
X57792356Y-50868881D01*
X58141175Y-50635845D01*
X58420000Y-50264214D01*
X58698825Y-50635845D01*
X59047644Y-50868881D01*
X59265000Y-50786310D01*
X59265000Y-49955000D01*
X60115000Y-49955000D01*
X60115000Y-50786310D01*
X60332356Y-50868881D01*
X60681175Y-50635845D01*
X60960000Y-50264214D01*
X61238825Y-50635845D01*
X61587644Y-50868881D01*
X61805000Y-50786310D01*
X61805000Y-49955000D01*
X60965832Y-49955000D01*
X60960000Y-49971959D01*
X60954168Y-49955000D01*
X60115000Y-49955000D01*
X59265000Y-49955000D01*
X58425832Y-49955000D01*
X58420000Y-49971959D01*
X58414168Y-49955000D01*
X57575000Y-49955000D01*
X56725000Y-49955000D01*
X55035000Y-49955000D01*
X54185000Y-49955000D01*
X53283750Y-49955000D01*
X53125000Y-50113750D01*
X45935000Y-50113750D01*
X45776250Y-49955000D01*
X44875000Y-49955000D01*
X44025000Y-49955000D01*
X43600000Y-49955000D01*
X43600000Y-49105000D01*
X44025000Y-49105000D01*
X44025000Y-47415000D01*
X44875000Y-47415000D01*
X44875000Y-49105000D01*
X45776250Y-49105000D01*
X45935000Y-48946250D01*
X45935000Y-48553691D01*
X53125000Y-48553691D01*
X53125000Y-48946250D01*
X53283750Y-49105000D01*
X54185000Y-49105000D01*
X54185000Y-48203750D01*
X55035000Y-48203750D01*
X55035000Y-49105000D01*
X56725000Y-49105000D01*
X56725000Y-48273690D01*
X57575000Y-48273690D01*
X57575000Y-49105000D01*
X58414168Y-49105000D01*
X58420000Y-49088041D01*
X58425832Y-49105000D01*
X59265000Y-49105000D01*
X59265000Y-48273690D01*
X60115000Y-48273690D01*
X60115000Y-49105000D01*
X60954168Y-49105000D01*
X60960000Y-49088041D01*
X60965832Y-49105000D01*
X61805000Y-49105000D01*
X61805000Y-48273690D01*
X62655000Y-48273690D01*
X62655000Y-49105000D01*
X63080000Y-49105000D01*
X63080000Y-49955000D01*
X62655000Y-49955000D01*
X62655000Y-50786310D01*
X62872356Y-50868881D01*
X63221175Y-50635845D01*
X63395871Y-50403002D01*
X63582205Y-50403002D01*
X63719946Y-50609147D01*
X64201715Y-50931054D01*
X64770000Y-51044093D01*
X65338285Y-50931054D01*
X65820054Y-50609147D01*
X66040000Y-50279974D01*
X66259946Y-50609147D01*
X66741715Y-50931054D01*
X67310000Y-51044093D01*
X67878285Y-50931054D01*
X68360054Y-50609147D01*
X68580000Y-50279974D01*
X68799946Y-50609147D01*
X69281715Y-50931054D01*
X69850000Y-51044093D01*
X70418285Y-50931054D01*
X70900054Y-50609147D01*
X71120000Y-50279974D01*
X71339946Y-50609147D01*
X71821715Y-50931054D01*
X72390000Y-51044093D01*
X72958285Y-50931054D01*
X73440054Y-50609147D01*
X73761961Y-50127378D01*
X73875000Y-49559093D01*
X73875000Y-49500907D01*
X73761961Y-48932622D01*
X73440054Y-48450853D01*
X72958285Y-48128946D01*
X72390000Y-48015907D01*
X71821715Y-48128946D01*
X71339946Y-48450853D01*
X71120000Y-48780026D01*
X70900054Y-48450853D01*
X70418285Y-48128946D01*
X69850000Y-48015907D01*
X69281715Y-48128946D01*
X68799946Y-48450853D01*
X68580000Y-48780026D01*
X68360054Y-48450853D01*
X67878285Y-48128946D01*
X67310000Y-48015907D01*
X66741715Y-48128946D01*
X66259946Y-48450853D01*
X66040000Y-48780026D01*
X65820054Y-48450853D01*
X65338285Y-48128946D01*
X64770000Y-48015907D01*
X64201715Y-48128946D01*
X63719946Y-48450853D01*
X63582205Y-48656998D01*
X63395871Y-48656998D01*
X63221175Y-48424155D01*
X62872356Y-48191119D01*
X62655000Y-48273690D01*
X61805000Y-48273690D01*
X61587644Y-48191119D01*
X61238825Y-48424155D01*
X60960000Y-48795786D01*
X60681175Y-48424155D01*
X60332356Y-48191119D01*
X60115000Y-48273690D01*
X59265000Y-48273690D01*
X59047644Y-48191119D01*
X58698825Y-48424155D01*
X58420000Y-48795786D01*
X58141175Y-48424155D01*
X57792356Y-48191119D01*
X57575000Y-48273690D01*
X56725000Y-48273690D01*
X56507644Y-48191119D01*
X56158825Y-48424155D01*
X56083133Y-48525041D01*
X55998327Y-48320302D01*
X55819699Y-48141673D01*
X55586310Y-48045000D01*
X55193750Y-48045000D01*
X55035000Y-48203750D01*
X54185000Y-48203750D01*
X54026250Y-48045000D01*
X53633690Y-48045000D01*
X53400301Y-48141673D01*
X53221673Y-48320302D01*
X53125000Y-48553691D01*
X45935000Y-48553691D01*
X45935000Y-48553690D01*
X45838327Y-48320301D01*
X45659698Y-48141673D01*
X45454959Y-48056867D01*
X45555845Y-47981175D01*
X45788881Y-47632356D01*
X45706310Y-47415000D01*
X44875000Y-47415000D01*
X44025000Y-47415000D01*
X43600000Y-47415000D01*
X43600000Y-46565000D01*
X44025000Y-46565000D01*
X44025000Y-45725832D01*
X44008041Y-45720000D01*
X44025000Y-45714168D01*
X44025000Y-44875000D01*
X44875000Y-44875000D01*
X44875000Y-45714168D01*
X44891959Y-45720000D01*
X44875000Y-45725832D01*
X44875000Y-46565000D01*
X45706310Y-46565000D01*
X45788881Y-46347644D01*
X45555845Y-45998825D01*
X45184214Y-45720000D01*
X45555845Y-45441175D01*
X45788881Y-45092356D01*
X45706310Y-44875000D01*
X44875000Y-44875000D01*
X44025000Y-44875000D01*
X43600000Y-44875000D01*
X43600000Y-44025000D01*
X44025000Y-44025000D01*
X44025000Y-43185832D01*
X44008041Y-43180000D01*
X44025000Y-43174168D01*
X44025000Y-42335000D01*
X44875000Y-42335000D01*
X44875000Y-43174168D01*
X44891959Y-43180000D01*
X44875000Y-43185832D01*
X44875000Y-44025000D01*
X45706310Y-44025000D01*
X45788881Y-43807644D01*
X45555845Y-43458825D01*
X45184214Y-43180000D01*
X45555845Y-42901175D01*
X45788881Y-42552356D01*
X45706310Y-42335000D01*
X44875000Y-42335000D01*
X44025000Y-42335000D01*
X43600000Y-42335000D01*
X43600000Y-41485000D01*
X44025000Y-41485000D01*
X44025000Y-40645832D01*
X44008041Y-40640000D01*
X44025000Y-40634168D01*
X44025000Y-39795000D01*
X44875000Y-39795000D01*
X44875000Y-40634168D01*
X44891959Y-40640000D01*
X44875000Y-40645832D01*
X44875000Y-41485000D01*
X45706310Y-41485000D01*
X45788881Y-41267644D01*
X45555845Y-40918825D01*
X45184214Y-40640000D01*
X45555845Y-40361175D01*
X45788881Y-40012356D01*
X45706310Y-39795000D01*
X44875000Y-39795000D01*
X44025000Y-39795000D01*
X43600000Y-39795000D01*
X43600000Y-38945000D01*
X44025000Y-38945000D01*
X44025000Y-38105832D01*
X44008041Y-38100000D01*
X44025000Y-38094168D01*
X44025000Y-37255000D01*
X44875000Y-37255000D01*
X44875000Y-38094168D01*
X44891959Y-38100000D01*
X44875000Y-38105832D01*
X44875000Y-38945000D01*
X45706310Y-38945000D01*
X45788881Y-38727644D01*
X45555845Y-38378825D01*
X45184214Y-38100000D01*
X45555845Y-37821175D01*
X45788881Y-37472356D01*
X45706310Y-37255000D01*
X44875000Y-37255000D01*
X44025000Y-37255000D01*
X43600000Y-37255000D01*
X43600000Y-36405000D01*
X44025000Y-36405000D01*
X44025000Y-35565832D01*
X44008041Y-35560000D01*
X44025000Y-35554168D01*
X44025000Y-34715000D01*
X44875000Y-34715000D01*
X44875000Y-35554168D01*
X44891959Y-35560000D01*
X44875000Y-35565832D01*
X44875000Y-36405000D01*
X45706310Y-36405000D01*
X45788881Y-36187644D01*
X45555845Y-35838825D01*
X45184214Y-35560000D01*
X45555845Y-35281175D01*
X45788881Y-34932356D01*
X45706310Y-34715000D01*
X44875000Y-34715000D01*
X44025000Y-34715000D01*
X43600000Y-34715000D01*
X43600000Y-33865000D01*
X44025000Y-33865000D01*
X44025000Y-33025832D01*
X44008041Y-33020000D01*
X44025000Y-33014168D01*
X44025000Y-32175000D01*
X44875000Y-32175000D01*
X44875000Y-33014168D01*
X44891959Y-33020000D01*
X44875000Y-33025832D01*
X44875000Y-33865000D01*
X45706310Y-33865000D01*
X45788881Y-33647644D01*
X45555845Y-33298825D01*
X45184214Y-33020000D01*
X45555845Y-32741175D01*
X45788881Y-32392356D01*
X45706310Y-32175000D01*
X44875000Y-32175000D01*
X44025000Y-32175000D01*
X43600000Y-32175000D01*
X43600000Y-31325000D01*
X44025000Y-31325000D01*
X44025000Y-29635000D01*
X44875000Y-29635000D01*
X44875000Y-31325000D01*
X45706310Y-31325000D01*
X45788881Y-31107644D01*
X45555845Y-30758825D01*
X45454959Y-30683133D01*
X45659698Y-30598327D01*
X45838327Y-30419699D01*
X45935000Y-30186310D01*
X45935000Y-29793750D01*
X53125000Y-29793750D01*
X53125000Y-30186309D01*
X53221673Y-30419698D01*
X53400301Y-30598327D01*
X53633690Y-30695000D01*
X54026250Y-30695000D01*
X54185000Y-30536250D01*
X54185000Y-29635000D01*
X55035000Y-29635000D01*
X55035000Y-30536250D01*
X55193750Y-30695000D01*
X55586310Y-30695000D01*
X55819699Y-30598327D01*
X55998327Y-30419698D01*
X56083133Y-30214959D01*
X56158825Y-30315845D01*
X56507644Y-30548881D01*
X56725000Y-30466310D01*
X56725000Y-29635000D01*
X57575000Y-29635000D01*
X57575000Y-30466310D01*
X57792356Y-30548881D01*
X58141175Y-30315845D01*
X58420000Y-29944214D01*
X58698825Y-30315845D01*
X59047644Y-30548881D01*
X59265000Y-30466310D01*
X59265000Y-29635000D01*
X60115000Y-29635000D01*
X60115000Y-30466310D01*
X60332356Y-30548881D01*
X60681175Y-30315845D01*
X60960000Y-29944214D01*
X61238825Y-30315845D01*
X61587644Y-30548881D01*
X61805000Y-30466310D01*
X61805000Y-29635000D01*
X60965832Y-29635000D01*
X60960000Y-29651959D01*
X60954168Y-29635000D01*
X60115000Y-29635000D01*
X59265000Y-29635000D01*
X58425832Y-29635000D01*
X58420000Y-29651959D01*
X58414168Y-29635000D01*
X57575000Y-29635000D01*
X56725000Y-29635000D01*
X55035000Y-29635000D01*
X54185000Y-29635000D01*
X53283750Y-29635000D01*
X53125000Y-29793750D01*
X45935000Y-29793750D01*
X45776250Y-29635000D01*
X44875000Y-29635000D01*
X44025000Y-29635000D01*
X43600000Y-29635000D01*
X43600000Y-28785000D01*
X44025000Y-28785000D01*
X44025000Y-27883750D01*
X44875000Y-27883750D01*
X44875000Y-28785000D01*
X45776250Y-28785000D01*
X45935000Y-28626250D01*
X45935000Y-28233691D01*
X53125000Y-28233691D01*
X53125000Y-28626250D01*
X53283750Y-28785000D01*
X54185000Y-28785000D01*
X54185000Y-27883750D01*
X55035000Y-27883750D01*
X55035000Y-28785000D01*
X56725000Y-28785000D01*
X56725000Y-27953690D01*
X57575000Y-27953690D01*
X57575000Y-28785000D01*
X58414168Y-28785000D01*
X58420000Y-28768041D01*
X58425832Y-28785000D01*
X59265000Y-28785000D01*
X59265000Y-27953690D01*
X60115000Y-27953690D01*
X60115000Y-28785000D01*
X60954168Y-28785000D01*
X60960000Y-28768041D01*
X60965832Y-28785000D01*
X61805000Y-28785000D01*
X61805000Y-27953690D01*
X62655000Y-27953690D01*
X62655000Y-28785000D01*
X63080000Y-28785000D01*
X63080000Y-29635000D01*
X62655000Y-29635000D01*
X62655000Y-30466310D01*
X62872356Y-30548881D01*
X63221175Y-30315845D01*
X63395871Y-30083002D01*
X63582205Y-30083002D01*
X63719946Y-30289147D01*
X64201715Y-30611054D01*
X64770000Y-30724093D01*
X65338285Y-30611054D01*
X65820054Y-30289147D01*
X66040000Y-29959974D01*
X66259946Y-30289147D01*
X66741715Y-30611054D01*
X67310000Y-30724093D01*
X67878285Y-30611054D01*
X68360054Y-30289147D01*
X68580000Y-29959974D01*
X68799946Y-30289147D01*
X69281715Y-30611054D01*
X69850000Y-30724093D01*
X70418285Y-30611054D01*
X70900054Y-30289147D01*
X71120000Y-29959974D01*
X71339946Y-30289147D01*
X71821715Y-30611054D01*
X72390000Y-30724093D01*
X72958285Y-30611054D01*
X73440054Y-30289147D01*
X73761961Y-29807378D01*
X73875000Y-29239093D01*
X73875000Y-29180907D01*
X73761961Y-28612622D01*
X73440054Y-28130853D01*
X72958285Y-27808946D01*
X72390000Y-27695907D01*
X71821715Y-27808946D01*
X71339946Y-28130853D01*
X71120000Y-28460026D01*
X70900054Y-28130853D01*
X70418285Y-27808946D01*
X69850000Y-27695907D01*
X69281715Y-27808946D01*
X68799946Y-28130853D01*
X68580000Y-28460026D01*
X68360054Y-28130853D01*
X67878285Y-27808946D01*
X67310000Y-27695907D01*
X66741715Y-27808946D01*
X66259946Y-28130853D01*
X66040000Y-28460026D01*
X65820054Y-28130853D01*
X65338285Y-27808946D01*
X64770000Y-27695907D01*
X64201715Y-27808946D01*
X63719946Y-28130853D01*
X63582205Y-28336998D01*
X63395871Y-28336998D01*
X63221175Y-28104155D01*
X62872356Y-27871119D01*
X62655000Y-27953690D01*
X61805000Y-27953690D01*
X61587644Y-27871119D01*
X61238825Y-28104155D01*
X60960000Y-28475786D01*
X60681175Y-28104155D01*
X60332356Y-27871119D01*
X60115000Y-27953690D01*
X59265000Y-27953690D01*
X59047644Y-27871119D01*
X58698825Y-28104155D01*
X58420000Y-28475786D01*
X58141175Y-28104155D01*
X57792356Y-27871119D01*
X57575000Y-27953690D01*
X56725000Y-27953690D01*
X56507644Y-27871119D01*
X56158825Y-28104155D01*
X56083133Y-28205041D01*
X55998327Y-28000302D01*
X55819699Y-27821673D01*
X55586310Y-27725000D01*
X55193750Y-27725000D01*
X55035000Y-27883750D01*
X54185000Y-27883750D01*
X54026250Y-27725000D01*
X53633690Y-27725000D01*
X53400301Y-27821673D01*
X53221673Y-28000302D01*
X53125000Y-28233691D01*
X45935000Y-28233691D01*
X45935000Y-28233690D01*
X45838327Y-28000301D01*
X45659698Y-27821673D01*
X45426309Y-27725000D01*
X45033750Y-27725000D01*
X44875000Y-27883750D01*
X44025000Y-27883750D01*
X43866250Y-27725000D01*
X43473691Y-27725000D01*
X43240302Y-27821673D01*
X43182104Y-27879871D01*
X43011890Y-27763569D01*
X42760000Y-27712560D01*
X41060000Y-27712560D01*
X40824683Y-27756838D01*
X40608559Y-27895910D01*
X40463569Y-28108110D01*
X40412560Y-28360000D01*
X40412560Y-30060000D01*
X40456838Y-30295317D01*
X40595910Y-30511441D01*
X40808110Y-30656431D01*
X40875541Y-30670086D01*
X40830853Y-30699946D01*
X40508946Y-31181715D01*
X40395907Y-31750000D01*
X32460000Y-31750000D01*
X32460000Y-26159482D01*
X32994336Y-26159482D01*
X33576950Y-27569515D01*
X34654811Y-28649259D01*
X36063825Y-29234333D01*
X37589482Y-29235664D01*
X38999515Y-28653050D01*
X40079259Y-27575189D01*
X40664333Y-26166175D01*
X40664338Y-26159482D01*
X73634336Y-26159482D01*
X74216950Y-27569515D01*
X75294811Y-28649259D01*
X76703825Y-29234333D01*
X78229482Y-29235664D01*
X79639515Y-28653050D01*
X80719259Y-27575189D01*
X81304333Y-26166175D01*
X81305664Y-24640518D01*
X80723050Y-23230485D01*
X79645189Y-22150741D01*
X78236175Y-21565667D01*
X76710518Y-21564336D01*
X75300485Y-22146950D01*
X74220741Y-23224811D01*
X73635667Y-24633825D01*
X73634336Y-26159482D01*
X40664338Y-26159482D01*
X40665664Y-24640518D01*
X40083050Y-23230485D01*
X39005189Y-22150741D01*
X37596175Y-21565667D01*
X36070518Y-21564336D01*
X34660485Y-22146950D01*
X33580741Y-23224811D01*
X32995667Y-24633825D01*
X32994336Y-26159482D01*
X32460000Y-26159482D01*
X32460000Y-21030000D01*
X81840000Y-21030000D01*
X81840000Y-117400000D01*
X81840000Y-117400000D01*
G37*
X81840000Y-117400000D02*
X32460000Y-117400000D01*
X32460000Y-113789482D01*
X32994336Y-113789482D01*
X33576950Y-115199515D01*
X34654811Y-116279259D01*
X36063825Y-116864333D01*
X37589482Y-116865664D01*
X38999515Y-116283050D01*
X40079259Y-115205189D01*
X40664333Y-113796175D01*
X40664338Y-113789482D01*
X73634336Y-113789482D01*
X74216950Y-115199515D01*
X75294811Y-116279259D01*
X76703825Y-116864333D01*
X78229482Y-116865664D01*
X79639515Y-116283050D01*
X80719259Y-115205189D01*
X81304333Y-113796175D01*
X81305664Y-112270518D01*
X80723050Y-110860485D01*
X79645189Y-109780741D01*
X78236175Y-109195667D01*
X76710518Y-109194336D01*
X75300485Y-109776950D01*
X74220741Y-110854811D01*
X73635667Y-112263825D01*
X73634336Y-113789482D01*
X40664338Y-113789482D01*
X40665664Y-112270518D01*
X40083050Y-110860485D01*
X39005189Y-109780741D01*
X37596175Y-109195667D01*
X36070518Y-109194336D01*
X34660485Y-109776950D01*
X33580741Y-110854811D01*
X32995667Y-112263825D01*
X32994336Y-113789482D01*
X32460000Y-113789482D01*
X32460000Y-31750000D01*
X40395907Y-31750000D01*
X40508946Y-32318285D01*
X40830853Y-32800054D01*
X41160026Y-33020000D01*
X40830853Y-33239946D01*
X40508946Y-33721715D01*
X40395907Y-34290000D01*
X40508946Y-34858285D01*
X40830853Y-35340054D01*
X41160026Y-35560000D01*
X40830853Y-35779946D01*
X40508946Y-36261715D01*
X40395907Y-36830000D01*
X40508946Y-37398285D01*
X40830853Y-37880054D01*
X41160026Y-38100000D01*
X40830853Y-38319946D01*
X40508946Y-38801715D01*
X40395907Y-39370000D01*
X40508946Y-39938285D01*
X40830853Y-40420054D01*
X41160026Y-40640000D01*
X40830853Y-40859946D01*
X40508946Y-41341715D01*
X40395907Y-41910000D01*
X40508946Y-42478285D01*
X40830853Y-42960054D01*
X41160026Y-43180000D01*
X40830853Y-43399946D01*
X40508946Y-43881715D01*
X40395907Y-44450000D01*
X40508946Y-45018285D01*
X40830853Y-45500054D01*
X41160026Y-45720000D01*
X40830853Y-45939946D01*
X40508946Y-46421715D01*
X40395907Y-46990000D01*
X40508946Y-47558285D01*
X40830853Y-48040054D01*
X40872452Y-48067850D01*
X40824683Y-48076838D01*
X40608559Y-48215910D01*
X40463569Y-48428110D01*
X40412560Y-48680000D01*
X40412560Y-50380000D01*
X40456838Y-50615317D01*
X40595910Y-50831441D01*
X40808110Y-50976431D01*
X40875541Y-50990086D01*
X40830853Y-51019946D01*
X40508946Y-51501715D01*
X40395907Y-52070000D01*
X40508946Y-52638285D01*
X40830853Y-53120054D01*
X41160026Y-53340000D01*
X40830853Y-53559946D01*
X40508946Y-54041715D01*
X40395907Y-54610000D01*
X40508946Y-55178285D01*
X40830853Y-55660054D01*
X41160026Y-55880000D01*
X40830853Y-56099946D01*
X40508946Y-56581715D01*
X40395907Y-57150000D01*
X40508946Y-57718285D01*
X40830853Y-58200054D01*
X41160026Y-58420000D01*
X40830853Y-58639946D01*
X40508946Y-59121715D01*
X40395907Y-59690000D01*
X40508946Y-60258285D01*
X40830853Y-60740054D01*
X41160026Y-60960000D01*
X40830853Y-61179946D01*
X40508946Y-61661715D01*
X40395907Y-62230000D01*
X40508946Y-62798285D01*
X40830853Y-63280054D01*
X41160026Y-63500000D01*
X40830853Y-63719946D01*
X40508946Y-64201715D01*
X40395907Y-64770000D01*
X40508946Y-65338285D01*
X40830853Y-65820054D01*
X41160026Y-66040000D01*
X40830853Y-66259946D01*
X40508946Y-66741715D01*
X40395907Y-67310000D01*
X40508946Y-67878285D01*
X40830853Y-68360054D01*
X40872452Y-68387850D01*
X40824683Y-68396838D01*
X40608559Y-68535910D01*
X40463569Y-68748110D01*
X40412560Y-69000000D01*
X40412560Y-70700000D01*
X40456838Y-70935317D01*
X40595910Y-71151441D01*
X40808110Y-71296431D01*
X40875541Y-71310086D01*
X40830853Y-71339946D01*
X40508946Y-71821715D01*
X40395907Y-72390000D01*
X40508946Y-72958285D01*
X40830853Y-73440054D01*
X41160026Y-73660000D01*
X40830853Y-73879946D01*
X40508946Y-74361715D01*
X40395907Y-74930000D01*
X40508946Y-75498285D01*
X40830853Y-75980054D01*
X41160026Y-76200000D01*
X40830853Y-76419946D01*
X40508946Y-76901715D01*
X40395907Y-77470000D01*
X40508946Y-78038285D01*
X40830853Y-78520054D01*
X41160026Y-78740000D01*
X40830853Y-78959946D01*
X40508946Y-79441715D01*
X40395907Y-80010000D01*
X40508946Y-80578285D01*
X40830853Y-81060054D01*
X41160026Y-81280000D01*
X40830853Y-81499946D01*
X40508946Y-81981715D01*
X40395907Y-82550000D01*
X40508946Y-83118285D01*
X40830853Y-83600054D01*
X41160026Y-83820000D01*
X40830853Y-84039946D01*
X40508946Y-84521715D01*
X40395907Y-85090000D01*
X40508946Y-85658285D01*
X40830853Y-86140054D01*
X41160026Y-86360000D01*
X40830853Y-86579946D01*
X40508946Y-87061715D01*
X40395907Y-87630000D01*
X40508946Y-88198285D01*
X40830853Y-88680054D01*
X40872452Y-88707850D01*
X40824683Y-88716838D01*
X40608559Y-88855910D01*
X40463569Y-89068110D01*
X40412560Y-89320000D01*
X40412560Y-91020000D01*
X40456838Y-91255317D01*
X40595910Y-91471441D01*
X40808110Y-91616431D01*
X40875541Y-91630086D01*
X40830853Y-91659946D01*
X40508946Y-92141715D01*
X40395907Y-92710000D01*
X40508946Y-93278285D01*
X40830853Y-93760054D01*
X41160026Y-93980000D01*
X40830853Y-94199946D01*
X40508946Y-94681715D01*
X40395907Y-95250000D01*
X40508946Y-95818285D01*
X40830853Y-96300054D01*
X41160026Y-96520000D01*
X40830853Y-96739946D01*
X40508946Y-97221715D01*
X40395907Y-97790000D01*
X40508946Y-98358285D01*
X40830853Y-98840054D01*
X41160026Y-99060000D01*
X40830853Y-99279946D01*
X40508946Y-99761715D01*
X40395907Y-100330000D01*
X40508946Y-100898285D01*
X40830853Y-101380054D01*
X41160026Y-101600000D01*
X40830853Y-101819946D01*
X40508946Y-102301715D01*
X40395907Y-102870000D01*
X40508946Y-103438285D01*
X40830853Y-103920054D01*
X41160026Y-104140000D01*
X40830853Y-104359946D01*
X40508946Y-104841715D01*
X40395907Y-105410000D01*
X40508946Y-105978285D01*
X40830853Y-106460054D01*
X41160026Y-106680000D01*
X40830853Y-106899946D01*
X40508946Y-107381715D01*
X40395907Y-107950000D01*
X40508946Y-108518285D01*
X40830853Y-109000054D01*
X41312622Y-109321961D01*
X41880907Y-109435000D01*
X41939093Y-109435000D01*
X42507378Y-109321961D01*
X42989147Y-109000054D01*
X43107449Y-108823002D01*
X43265207Y-108823002D01*
X43344155Y-108941175D01*
X43807639Y-109288915D01*
X44025000Y-109214168D01*
X44025000Y-108375000D01*
X44875000Y-108375000D01*
X44875000Y-109214168D01*
X45092361Y-109288915D01*
X45555845Y-108941175D01*
X45788881Y-108592356D01*
X45706310Y-108375000D01*
X44875000Y-108375000D01*
X44025000Y-108375000D01*
X43600000Y-108375000D01*
X43600000Y-107525000D01*
X44025000Y-107525000D01*
X44025000Y-106685832D01*
X44008041Y-106680000D01*
X44025000Y-106674168D01*
X44025000Y-105835000D01*
X44875000Y-105835000D01*
X44875000Y-106674168D01*
X44891959Y-106680000D01*
X44875000Y-106685832D01*
X44875000Y-107525000D01*
X45706310Y-107525000D01*
X45788881Y-107307644D01*
X45555845Y-106958825D01*
X45184214Y-106680000D01*
X45555845Y-106401175D01*
X45788881Y-106052356D01*
X45706310Y-105835000D01*
X44875000Y-105835000D01*
X44025000Y-105835000D01*
X43600000Y-105835000D01*
X43600000Y-105171750D01*
X59095000Y-105171750D01*
X59095000Y-109266310D01*
X59191673Y-109499699D01*
X59370302Y-109678327D01*
X59603691Y-109775000D01*
X61198250Y-109775000D01*
X61357000Y-109616250D01*
X61357000Y-105013000D01*
X63103000Y-105013000D01*
X63103000Y-109616250D01*
X63261750Y-109775000D01*
X64856309Y-109775000D01*
X65089698Y-109678327D01*
X65268327Y-109499699D01*
X65365000Y-109266310D01*
X65365000Y-105171750D01*
X65206250Y-105013000D01*
X63103000Y-105013000D01*
X61357000Y-105013000D01*
X59253750Y-105013000D01*
X59095000Y-105171750D01*
X43600000Y-105171750D01*
X43600000Y-104985000D01*
X44025000Y-104985000D01*
X44025000Y-104145832D01*
X44008041Y-104140000D01*
X44025000Y-104134168D01*
X44025000Y-103295000D01*
X44875000Y-103295000D01*
X44875000Y-104134168D01*
X44891959Y-104140000D01*
X44875000Y-104145832D01*
X44875000Y-104985000D01*
X45706310Y-104985000D01*
X45788881Y-104767644D01*
X45555845Y-104418825D01*
X45184214Y-104140000D01*
X45555845Y-103861175D01*
X45788881Y-103512356D01*
X45706310Y-103295000D01*
X44875000Y-103295000D01*
X44025000Y-103295000D01*
X43600000Y-103295000D01*
X43600000Y-102445000D01*
X44025000Y-102445000D01*
X44025000Y-101605832D01*
X44008041Y-101600000D01*
X44025000Y-101594168D01*
X44025000Y-100755000D01*
X44875000Y-100755000D01*
X44875000Y-101594168D01*
X44891959Y-101600000D01*
X44875000Y-101605832D01*
X44875000Y-102445000D01*
X45706310Y-102445000D01*
X45788881Y-102227644D01*
X45555845Y-101878825D01*
X45184214Y-101600000D01*
X45555845Y-101321175D01*
X45788881Y-100972356D01*
X45706310Y-100755000D01*
X44875000Y-100755000D01*
X44025000Y-100755000D01*
X43600000Y-100755000D01*
X43600000Y-99905000D01*
X44025000Y-99905000D01*
X44025000Y-99065832D01*
X44008041Y-99060000D01*
X44025000Y-99054168D01*
X44025000Y-98215000D01*
X44875000Y-98215000D01*
X44875000Y-99054168D01*
X44891959Y-99060000D01*
X44875000Y-99065832D01*
X44875000Y-99905000D01*
X45706310Y-99905000D01*
X45788881Y-99687644D01*
X45555845Y-99338825D01*
X45184214Y-99060000D01*
X45245938Y-99013690D01*
X59095000Y-99013690D01*
X59095000Y-103108250D01*
X59253750Y-103267000D01*
X61357000Y-103267000D01*
X61357000Y-98663750D01*
X63103000Y-98663750D01*
X63103000Y-103267000D01*
X65206250Y-103267000D01*
X65365000Y-103108250D01*
X65365000Y-99013690D01*
X65268327Y-98780301D01*
X65089698Y-98601673D01*
X64856309Y-98505000D01*
X63261750Y-98505000D01*
X63103000Y-98663750D01*
X61357000Y-98663750D01*
X61198250Y-98505000D01*
X59603691Y-98505000D01*
X59370302Y-98601673D01*
X59191673Y-98780301D01*
X59095000Y-99013690D01*
X45245938Y-99013690D01*
X45555845Y-98781175D01*
X45788881Y-98432356D01*
X45706310Y-98215000D01*
X44875000Y-98215000D01*
X44025000Y-98215000D01*
X43600000Y-98215000D01*
X43600000Y-97365000D01*
X44025000Y-97365000D01*
X44025000Y-96525832D01*
X44008041Y-96520000D01*
X44025000Y-96514168D01*
X44025000Y-95675000D01*
X44875000Y-95675000D01*
X44875000Y-96514168D01*
X44891959Y-96520000D01*
X44875000Y-96525832D01*
X44875000Y-97365000D01*
X45706310Y-97365000D01*
X45788881Y-97147644D01*
X45555845Y-96798825D01*
X45184214Y-96520000D01*
X45555845Y-96241175D01*
X45788881Y-95892356D01*
X45706310Y-95675000D01*
X44875000Y-95675000D01*
X44025000Y-95675000D01*
X43600000Y-95675000D01*
X43600000Y-94825000D01*
X44025000Y-94825000D01*
X44025000Y-93985832D01*
X44008041Y-93980000D01*
X44025000Y-93974168D01*
X44025000Y-93135000D01*
X44875000Y-93135000D01*
X44875000Y-93974168D01*
X44891959Y-93980000D01*
X44875000Y-93985832D01*
X44875000Y-94825000D01*
X45706310Y-94825000D01*
X45788881Y-94607644D01*
X45555845Y-94258825D01*
X45184214Y-93980000D01*
X45555845Y-93701175D01*
X45788881Y-93352356D01*
X45706310Y-93135000D01*
X44875000Y-93135000D01*
X44025000Y-93135000D01*
X43600000Y-93135000D01*
X43600000Y-92285000D01*
X44025000Y-92285000D01*
X44025000Y-90595000D01*
X44875000Y-90595000D01*
X44875000Y-92285000D01*
X45706310Y-92285000D01*
X45788881Y-92067644D01*
X45555845Y-91718825D01*
X45454959Y-91643133D01*
X45659698Y-91558327D01*
X45838327Y-91379699D01*
X45935000Y-91146310D01*
X45935000Y-90753750D01*
X53125000Y-90753750D01*
X53125000Y-91146309D01*
X53221673Y-91379698D01*
X53400301Y-91558327D01*
X53633690Y-91655000D01*
X54026250Y-91655000D01*
X54185000Y-91496250D01*
X54185000Y-90595000D01*
X55035000Y-90595000D01*
X55035000Y-91496250D01*
X55193750Y-91655000D01*
X55586310Y-91655000D01*
X55819699Y-91558327D01*
X55998327Y-91379698D01*
X56083133Y-91174959D01*
X56158825Y-91275845D01*
X56507644Y-91508881D01*
X56725000Y-91426310D01*
X56725000Y-90595000D01*
X57575000Y-90595000D01*
X57575000Y-91426310D01*
X57792356Y-91508881D01*
X58141175Y-91275845D01*
X58420000Y-90904214D01*
X58698825Y-91275845D01*
X59047644Y-91508881D01*
X59265000Y-91426310D01*
X59265000Y-90595000D01*
X60115000Y-90595000D01*
X60115000Y-91426310D01*
X60332356Y-91508881D01*
X60681175Y-91275845D01*
X60960000Y-90904214D01*
X61238825Y-91275845D01*
X61587644Y-91508881D01*
X61805000Y-91426310D01*
X61805000Y-90595000D01*
X60965832Y-90595000D01*
X60960000Y-90611959D01*
X60954168Y-90595000D01*
X60115000Y-90595000D01*
X59265000Y-90595000D01*
X58425832Y-90595000D01*
X58420000Y-90611959D01*
X58414168Y-90595000D01*
X57575000Y-90595000D01*
X56725000Y-90595000D01*
X55035000Y-90595000D01*
X54185000Y-90595000D01*
X53283750Y-90595000D01*
X53125000Y-90753750D01*
X45935000Y-90753750D01*
X45776250Y-90595000D01*
X44875000Y-90595000D01*
X44025000Y-90595000D01*
X43600000Y-90595000D01*
X43600000Y-89745000D01*
X44025000Y-89745000D01*
X44025000Y-88055000D01*
X44875000Y-88055000D01*
X44875000Y-89745000D01*
X45776250Y-89745000D01*
X45935000Y-89586250D01*
X45935000Y-89193691D01*
X53125000Y-89193691D01*
X53125000Y-89586250D01*
X53283750Y-89745000D01*
X54185000Y-89745000D01*
X54185000Y-88843750D01*
X55035000Y-88843750D01*
X55035000Y-89745000D01*
X56725000Y-89745000D01*
X56725000Y-88913690D01*
X57575000Y-88913690D01*
X57575000Y-89745000D01*
X58414168Y-89745000D01*
X58420000Y-89728041D01*
X58425832Y-89745000D01*
X59265000Y-89745000D01*
X59265000Y-88913690D01*
X60115000Y-88913690D01*
X60115000Y-89745000D01*
X60954168Y-89745000D01*
X60960000Y-89728041D01*
X60965832Y-89745000D01*
X61805000Y-89745000D01*
X61805000Y-88913690D01*
X62655000Y-88913690D01*
X62655000Y-89745000D01*
X63080000Y-89745000D01*
X63080000Y-90595000D01*
X62655000Y-90595000D01*
X62655000Y-91426310D01*
X62872356Y-91508881D01*
X63221175Y-91275845D01*
X63395871Y-91043002D01*
X63582205Y-91043002D01*
X63719946Y-91249147D01*
X64201715Y-91571054D01*
X64770000Y-91684093D01*
X65338285Y-91571054D01*
X65820054Y-91249147D01*
X66040000Y-90919974D01*
X66259946Y-91249147D01*
X66741715Y-91571054D01*
X67310000Y-91684093D01*
X67878285Y-91571054D01*
X68360054Y-91249147D01*
X68580000Y-90919974D01*
X68799946Y-91249147D01*
X69281715Y-91571054D01*
X69850000Y-91684093D01*
X70418285Y-91571054D01*
X70900054Y-91249147D01*
X71120000Y-90919974D01*
X71339946Y-91249147D01*
X71821715Y-91571054D01*
X72390000Y-91684093D01*
X72958285Y-91571054D01*
X73440054Y-91249147D01*
X73761961Y-90767378D01*
X73875000Y-90199093D01*
X73875000Y-90140907D01*
X73761961Y-89572622D01*
X73440054Y-89090853D01*
X72958285Y-88768946D01*
X72390000Y-88655907D01*
X71821715Y-88768946D01*
X71339946Y-89090853D01*
X71120000Y-89420026D01*
X70900054Y-89090853D01*
X70418285Y-88768946D01*
X69850000Y-88655907D01*
X69281715Y-88768946D01*
X68799946Y-89090853D01*
X68580000Y-89420026D01*
X68360054Y-89090853D01*
X67878285Y-88768946D01*
X67310000Y-88655907D01*
X66741715Y-88768946D01*
X66259946Y-89090853D01*
X66040000Y-89420026D01*
X65820054Y-89090853D01*
X65338285Y-88768946D01*
X64770000Y-88655907D01*
X64201715Y-88768946D01*
X63719946Y-89090853D01*
X63582205Y-89296998D01*
X63395871Y-89296998D01*
X63221175Y-89064155D01*
X62872356Y-88831119D01*
X62655000Y-88913690D01*
X61805000Y-88913690D01*
X61587644Y-88831119D01*
X61238825Y-89064155D01*
X60960000Y-89435786D01*
X60681175Y-89064155D01*
X60332356Y-88831119D01*
X60115000Y-88913690D01*
X59265000Y-88913690D01*
X59047644Y-88831119D01*
X58698825Y-89064155D01*
X58420000Y-89435786D01*
X58141175Y-89064155D01*
X57792356Y-88831119D01*
X57575000Y-88913690D01*
X56725000Y-88913690D01*
X56507644Y-88831119D01*
X56158825Y-89064155D01*
X56083133Y-89165041D01*
X55998327Y-88960302D01*
X55819699Y-88781673D01*
X55586310Y-88685000D01*
X55193750Y-88685000D01*
X55035000Y-88843750D01*
X54185000Y-88843750D01*
X54026250Y-88685000D01*
X53633690Y-88685000D01*
X53400301Y-88781673D01*
X53221673Y-88960302D01*
X53125000Y-89193691D01*
X45935000Y-89193691D01*
X45935000Y-89193690D01*
X45838327Y-88960301D01*
X45659698Y-88781673D01*
X45454959Y-88696867D01*
X45555845Y-88621175D01*
X45788881Y-88272356D01*
X45706310Y-88055000D01*
X44875000Y-88055000D01*
X44025000Y-88055000D01*
X43600000Y-88055000D01*
X43600000Y-87205000D01*
X44025000Y-87205000D01*
X44025000Y-86365832D01*
X44008041Y-86360000D01*
X44025000Y-86354168D01*
X44025000Y-85515000D01*
X44875000Y-85515000D01*
X44875000Y-86354168D01*
X44891959Y-86360000D01*
X44875000Y-86365832D01*
X44875000Y-87205000D01*
X45706310Y-87205000D01*
X45788881Y-86987644D01*
X45555845Y-86638825D01*
X45184214Y-86360000D01*
X45555845Y-86081175D01*
X45788881Y-85732356D01*
X45706310Y-85515000D01*
X44875000Y-85515000D01*
X44025000Y-85515000D01*
X43600000Y-85515000D01*
X43600000Y-84665000D01*
X44025000Y-84665000D01*
X44025000Y-83825832D01*
X44008041Y-83820000D01*
X44025000Y-83814168D01*
X44025000Y-82975000D01*
X44875000Y-82975000D01*
X44875000Y-83814168D01*
X44891959Y-83820000D01*
X44875000Y-83825832D01*
X44875000Y-84665000D01*
X45706310Y-84665000D01*
X45788881Y-84447644D01*
X45555845Y-84098825D01*
X45184214Y-83820000D01*
X45555845Y-83541175D01*
X45788881Y-83192356D01*
X45706310Y-82975000D01*
X44875000Y-82975000D01*
X44025000Y-82975000D01*
X43600000Y-82975000D01*
X43600000Y-82125000D01*
X44025000Y-82125000D01*
X44025000Y-81285832D01*
X44008041Y-81280000D01*
X44025000Y-81274168D01*
X44025000Y-80435000D01*
X44875000Y-80435000D01*
X44875000Y-81274168D01*
X44891959Y-81280000D01*
X44875000Y-81285832D01*
X44875000Y-82125000D01*
X45706310Y-82125000D01*
X45788881Y-81907644D01*
X45555845Y-81558825D01*
X45184214Y-81280000D01*
X45555845Y-81001175D01*
X45788881Y-80652356D01*
X45706310Y-80435000D01*
X44875000Y-80435000D01*
X44025000Y-80435000D01*
X43600000Y-80435000D01*
X43600000Y-79585000D01*
X44025000Y-79585000D01*
X44025000Y-78745832D01*
X44008041Y-78740000D01*
X44025000Y-78734168D01*
X44025000Y-77895000D01*
X44875000Y-77895000D01*
X44875000Y-78734168D01*
X44891959Y-78740000D01*
X44875000Y-78745832D01*
X44875000Y-79585000D01*
X45706310Y-79585000D01*
X45788881Y-79367644D01*
X45555845Y-79018825D01*
X45184214Y-78740000D01*
X45555845Y-78461175D01*
X45788881Y-78112356D01*
X45706310Y-77895000D01*
X44875000Y-77895000D01*
X44025000Y-77895000D01*
X43600000Y-77895000D01*
X43600000Y-77045000D01*
X44025000Y-77045000D01*
X44025000Y-76205832D01*
X44008041Y-76200000D01*
X44025000Y-76194168D01*
X44025000Y-75355000D01*
X44875000Y-75355000D01*
X44875000Y-76194168D01*
X44891959Y-76200000D01*
X44875000Y-76205832D01*
X44875000Y-77045000D01*
X45706310Y-77045000D01*
X45788881Y-76827644D01*
X45555845Y-76478825D01*
X45184214Y-76200000D01*
X45555845Y-75921175D01*
X45788881Y-75572356D01*
X45706310Y-75355000D01*
X44875000Y-75355000D01*
X44025000Y-75355000D01*
X43600000Y-75355000D01*
X43600000Y-74505000D01*
X44025000Y-74505000D01*
X44025000Y-73665832D01*
X44008041Y-73660000D01*
X44025000Y-73654168D01*
X44025000Y-72815000D01*
X44875000Y-72815000D01*
X44875000Y-73654168D01*
X44891959Y-73660000D01*
X44875000Y-73665832D01*
X44875000Y-74505000D01*
X45706310Y-74505000D01*
X45788881Y-74287644D01*
X45555845Y-73938825D01*
X45184214Y-73660000D01*
X45555845Y-73381175D01*
X45788881Y-73032356D01*
X45706310Y-72815000D01*
X44875000Y-72815000D01*
X44025000Y-72815000D01*
X43600000Y-72815000D01*
X43600000Y-71965000D01*
X44025000Y-71965000D01*
X44025000Y-70275000D01*
X44875000Y-70275000D01*
X44875000Y-71965000D01*
X45706310Y-71965000D01*
X45788881Y-71747644D01*
X45555845Y-71398825D01*
X45454959Y-71323133D01*
X45659698Y-71238327D01*
X45838327Y-71059699D01*
X45935000Y-70826310D01*
X45935000Y-70433750D01*
X53125000Y-70433750D01*
X53125000Y-70826309D01*
X53221673Y-71059698D01*
X53400301Y-71238327D01*
X53633690Y-71335000D01*
X54026250Y-71335000D01*
X54185000Y-71176250D01*
X54185000Y-70275000D01*
X55035000Y-70275000D01*
X55035000Y-71176250D01*
X55193750Y-71335000D01*
X55586310Y-71335000D01*
X55819699Y-71238327D01*
X55998327Y-71059698D01*
X56083133Y-70854959D01*
X56158825Y-70955845D01*
X56507644Y-71188881D01*
X56725000Y-71106310D01*
X56725000Y-70275000D01*
X57575000Y-70275000D01*
X57575000Y-71106310D01*
X57792356Y-71188881D01*
X58141175Y-70955845D01*
X58420000Y-70584214D01*
X58698825Y-70955845D01*
X59047644Y-71188881D01*
X59265000Y-71106310D01*
X59265000Y-70275000D01*
X60115000Y-70275000D01*
X60115000Y-71106310D01*
X60332356Y-71188881D01*
X60681175Y-70955845D01*
X60960000Y-70584214D01*
X61238825Y-70955845D01*
X61587644Y-71188881D01*
X61805000Y-71106310D01*
X61805000Y-70275000D01*
X60965832Y-70275000D01*
X60960000Y-70291959D01*
X60954168Y-70275000D01*
X60115000Y-70275000D01*
X59265000Y-70275000D01*
X58425832Y-70275000D01*
X58420000Y-70291959D01*
X58414168Y-70275000D01*
X57575000Y-70275000D01*
X56725000Y-70275000D01*
X55035000Y-70275000D01*
X54185000Y-70275000D01*
X53283750Y-70275000D01*
X53125000Y-70433750D01*
X45935000Y-70433750D01*
X45776250Y-70275000D01*
X44875000Y-70275000D01*
X44025000Y-70275000D01*
X43600000Y-70275000D01*
X43600000Y-69425000D01*
X44025000Y-69425000D01*
X44025000Y-67735000D01*
X44875000Y-67735000D01*
X44875000Y-69425000D01*
X45776250Y-69425000D01*
X45935000Y-69266250D01*
X45935000Y-68873691D01*
X53125000Y-68873691D01*
X53125000Y-69266250D01*
X53283750Y-69425000D01*
X54185000Y-69425000D01*
X54185000Y-68523750D01*
X55035000Y-68523750D01*
X55035000Y-69425000D01*
X56725000Y-69425000D01*
X56725000Y-68593690D01*
X57575000Y-68593690D01*
X57575000Y-69425000D01*
X58414168Y-69425000D01*
X58420000Y-69408041D01*
X58425832Y-69425000D01*
X59265000Y-69425000D01*
X59265000Y-68593690D01*
X60115000Y-68593690D01*
X60115000Y-69425000D01*
X60954168Y-69425000D01*
X60960000Y-69408041D01*
X60965832Y-69425000D01*
X61805000Y-69425000D01*
X61805000Y-68593690D01*
X62655000Y-68593690D01*
X62655000Y-69425000D01*
X63080000Y-69425000D01*
X63080000Y-70275000D01*
X62655000Y-70275000D01*
X62655000Y-71106310D01*
X62872356Y-71188881D01*
X63221175Y-70955845D01*
X63395871Y-70723002D01*
X63582205Y-70723002D01*
X63719946Y-70929147D01*
X64201715Y-71251054D01*
X64770000Y-71364093D01*
X65338285Y-71251054D01*
X65820054Y-70929147D01*
X66040000Y-70599974D01*
X66259946Y-70929147D01*
X66741715Y-71251054D01*
X67310000Y-71364093D01*
X67878285Y-71251054D01*
X68360054Y-70929147D01*
X68580000Y-70599974D01*
X68799946Y-70929147D01*
X69281715Y-71251054D01*
X69850000Y-71364093D01*
X70418285Y-71251054D01*
X70900054Y-70929147D01*
X71120000Y-70599974D01*
X71339946Y-70929147D01*
X71821715Y-71251054D01*
X72390000Y-71364093D01*
X72958285Y-71251054D01*
X73440054Y-70929147D01*
X73761961Y-70447378D01*
X73875000Y-69879093D01*
X73875000Y-69820907D01*
X73761961Y-69252622D01*
X73440054Y-68770853D01*
X72958285Y-68448946D01*
X72390000Y-68335907D01*
X71821715Y-68448946D01*
X71339946Y-68770853D01*
X71120000Y-69100026D01*
X70900054Y-68770853D01*
X70418285Y-68448946D01*
X69850000Y-68335907D01*
X69281715Y-68448946D01*
X68799946Y-68770853D01*
X68580000Y-69100026D01*
X68360054Y-68770853D01*
X67878285Y-68448946D01*
X67310000Y-68335907D01*
X66741715Y-68448946D01*
X66259946Y-68770853D01*
X66040000Y-69100026D01*
X65820054Y-68770853D01*
X65338285Y-68448946D01*
X64770000Y-68335907D01*
X64201715Y-68448946D01*
X63719946Y-68770853D01*
X63582205Y-68976998D01*
X63395871Y-68976998D01*
X63221175Y-68744155D01*
X62872356Y-68511119D01*
X62655000Y-68593690D01*
X61805000Y-68593690D01*
X61587644Y-68511119D01*
X61238825Y-68744155D01*
X60960000Y-69115786D01*
X60681175Y-68744155D01*
X60332356Y-68511119D01*
X60115000Y-68593690D01*
X59265000Y-68593690D01*
X59047644Y-68511119D01*
X58698825Y-68744155D01*
X58420000Y-69115786D01*
X58141175Y-68744155D01*
X57792356Y-68511119D01*
X57575000Y-68593690D01*
X56725000Y-68593690D01*
X56507644Y-68511119D01*
X56158825Y-68744155D01*
X56083133Y-68845041D01*
X55998327Y-68640302D01*
X55819699Y-68461673D01*
X55586310Y-68365000D01*
X55193750Y-68365000D01*
X55035000Y-68523750D01*
X54185000Y-68523750D01*
X54026250Y-68365000D01*
X53633690Y-68365000D01*
X53400301Y-68461673D01*
X53221673Y-68640302D01*
X53125000Y-68873691D01*
X45935000Y-68873691D01*
X45935000Y-68873690D01*
X45838327Y-68640301D01*
X45659698Y-68461673D01*
X45454959Y-68376867D01*
X45555845Y-68301175D01*
X45788881Y-67952356D01*
X45706310Y-67735000D01*
X44875000Y-67735000D01*
X44025000Y-67735000D01*
X43600000Y-67735000D01*
X43600000Y-66885000D01*
X44025000Y-66885000D01*
X44025000Y-66045832D01*
X44008041Y-66040000D01*
X44025000Y-66034168D01*
X44025000Y-65195000D01*
X44875000Y-65195000D01*
X44875000Y-66034168D01*
X44891959Y-66040000D01*
X44875000Y-66045832D01*
X44875000Y-66885000D01*
X45706310Y-66885000D01*
X45788881Y-66667644D01*
X45555845Y-66318825D01*
X45184214Y-66040000D01*
X45555845Y-65761175D01*
X45788881Y-65412356D01*
X45706310Y-65195000D01*
X44875000Y-65195000D01*
X44025000Y-65195000D01*
X43600000Y-65195000D01*
X43600000Y-64345000D01*
X44025000Y-64345000D01*
X44025000Y-63505832D01*
X44008041Y-63500000D01*
X44025000Y-63494168D01*
X44025000Y-62655000D01*
X44875000Y-62655000D01*
X44875000Y-63494168D01*
X44891959Y-63500000D01*
X44875000Y-63505832D01*
X44875000Y-64345000D01*
X45706310Y-64345000D01*
X45788881Y-64127644D01*
X45555845Y-63778825D01*
X45184214Y-63500000D01*
X45555845Y-63221175D01*
X45788881Y-62872356D01*
X45706310Y-62655000D01*
X44875000Y-62655000D01*
X44025000Y-62655000D01*
X43600000Y-62655000D01*
X43600000Y-61805000D01*
X44025000Y-61805000D01*
X44025000Y-60965832D01*
X44008041Y-60960000D01*
X44025000Y-60954168D01*
X44025000Y-60115000D01*
X44875000Y-60115000D01*
X44875000Y-60954168D01*
X44891959Y-60960000D01*
X44875000Y-60965832D01*
X44875000Y-61805000D01*
X45706310Y-61805000D01*
X45788881Y-61587644D01*
X45555845Y-61238825D01*
X45184214Y-60960000D01*
X45555845Y-60681175D01*
X45788881Y-60332356D01*
X45706310Y-60115000D01*
X44875000Y-60115000D01*
X44025000Y-60115000D01*
X43600000Y-60115000D01*
X43600000Y-59265000D01*
X44025000Y-59265000D01*
X44025000Y-58425832D01*
X44008041Y-58420000D01*
X44025000Y-58414168D01*
X44025000Y-57575000D01*
X44875000Y-57575000D01*
X44875000Y-58414168D01*
X44891959Y-58420000D01*
X44875000Y-58425832D01*
X44875000Y-59265000D01*
X45706310Y-59265000D01*
X45788881Y-59047644D01*
X45555845Y-58698825D01*
X45184214Y-58420000D01*
X45555845Y-58141175D01*
X45788881Y-57792356D01*
X45706310Y-57575000D01*
X44875000Y-57575000D01*
X44025000Y-57575000D01*
X43600000Y-57575000D01*
X43600000Y-56725000D01*
X44025000Y-56725000D01*
X44025000Y-55885832D01*
X44008041Y-55880000D01*
X44025000Y-55874168D01*
X44025000Y-55035000D01*
X44875000Y-55035000D01*
X44875000Y-55874168D01*
X44891959Y-55880000D01*
X44875000Y-55885832D01*
X44875000Y-56725000D01*
X45706310Y-56725000D01*
X45788881Y-56507644D01*
X45555845Y-56158825D01*
X45184214Y-55880000D01*
X45555845Y-55601175D01*
X45788881Y-55252356D01*
X45706310Y-55035000D01*
X44875000Y-55035000D01*
X44025000Y-55035000D01*
X43600000Y-55035000D01*
X43600000Y-54185000D01*
X44025000Y-54185000D01*
X44025000Y-53345832D01*
X44008041Y-53340000D01*
X44025000Y-53334168D01*
X44025000Y-52495000D01*
X44875000Y-52495000D01*
X44875000Y-53334168D01*
X44891959Y-53340000D01*
X44875000Y-53345832D01*
X44875000Y-54185000D01*
X45706310Y-54185000D01*
X45788881Y-53967644D01*
X45555845Y-53618825D01*
X45184214Y-53340000D01*
X45555845Y-53061175D01*
X45788881Y-52712356D01*
X45706310Y-52495000D01*
X44875000Y-52495000D01*
X44025000Y-52495000D01*
X43600000Y-52495000D01*
X43600000Y-51645000D01*
X44025000Y-51645000D01*
X44025000Y-49955000D01*
X44875000Y-49955000D01*
X44875000Y-51645000D01*
X45706310Y-51645000D01*
X45788881Y-51427644D01*
X45555845Y-51078825D01*
X45454959Y-51003133D01*
X45659698Y-50918327D01*
X45838327Y-50739699D01*
X45935000Y-50506310D01*
X45935000Y-50113750D01*
X53125000Y-50113750D01*
X53125000Y-50506309D01*
X53221673Y-50739698D01*
X53400301Y-50918327D01*
X53633690Y-51015000D01*
X54026250Y-51015000D01*
X54185000Y-50856250D01*
X54185000Y-49955000D01*
X55035000Y-49955000D01*
X55035000Y-50856250D01*
X55193750Y-51015000D01*
X55586310Y-51015000D01*
X55819699Y-50918327D01*
X55998327Y-50739698D01*
X56083133Y-50534959D01*
X56158825Y-50635845D01*
X56507644Y-50868881D01*
X56725000Y-50786310D01*
X56725000Y-49955000D01*
X57575000Y-49955000D01*
X57575000Y-50786310D01*
X57792356Y-50868881D01*
X58141175Y-50635845D01*
X58420000Y-50264214D01*
X58698825Y-50635845D01*
X59047644Y-50868881D01*
X59265000Y-50786310D01*
X59265000Y-49955000D01*
X60115000Y-49955000D01*
X60115000Y-50786310D01*
X60332356Y-50868881D01*
X60681175Y-50635845D01*
X60960000Y-50264214D01*
X61238825Y-50635845D01*
X61587644Y-50868881D01*
X61805000Y-50786310D01*
X61805000Y-49955000D01*
X60965832Y-49955000D01*
X60960000Y-49971959D01*
X60954168Y-49955000D01*
X60115000Y-49955000D01*
X59265000Y-49955000D01*
X58425832Y-49955000D01*
X58420000Y-49971959D01*
X58414168Y-49955000D01*
X57575000Y-49955000D01*
X56725000Y-49955000D01*
X55035000Y-49955000D01*
X54185000Y-49955000D01*
X53283750Y-49955000D01*
X53125000Y-50113750D01*
X45935000Y-50113750D01*
X45776250Y-49955000D01*
X44875000Y-49955000D01*
X44025000Y-49955000D01*
X43600000Y-49955000D01*
X43600000Y-49105000D01*
X44025000Y-49105000D01*
X44025000Y-47415000D01*
X44875000Y-47415000D01*
X44875000Y-49105000D01*
X45776250Y-49105000D01*
X45935000Y-48946250D01*
X45935000Y-48553691D01*
X53125000Y-48553691D01*
X53125000Y-48946250D01*
X53283750Y-49105000D01*
X54185000Y-49105000D01*
X54185000Y-48203750D01*
X55035000Y-48203750D01*
X55035000Y-49105000D01*
X56725000Y-49105000D01*
X56725000Y-48273690D01*
X57575000Y-48273690D01*
X57575000Y-49105000D01*
X58414168Y-49105000D01*
X58420000Y-49088041D01*
X58425832Y-49105000D01*
X59265000Y-49105000D01*
X59265000Y-48273690D01*
X60115000Y-48273690D01*
X60115000Y-49105000D01*
X60954168Y-49105000D01*
X60960000Y-49088041D01*
X60965832Y-49105000D01*
X61805000Y-49105000D01*
X61805000Y-48273690D01*
X62655000Y-48273690D01*
X62655000Y-49105000D01*
X63080000Y-49105000D01*
X63080000Y-49955000D01*
X62655000Y-49955000D01*
X62655000Y-50786310D01*
X62872356Y-50868881D01*
X63221175Y-50635845D01*
X63395871Y-50403002D01*
X63582205Y-50403002D01*
X63719946Y-50609147D01*
X64201715Y-50931054D01*
X64770000Y-51044093D01*
X65338285Y-50931054D01*
X65820054Y-50609147D01*
X66040000Y-50279974D01*
X66259946Y-50609147D01*
X66741715Y-50931054D01*
X67310000Y-51044093D01*
X67878285Y-50931054D01*
X68360054Y-50609147D01*
X68580000Y-50279974D01*
X68799946Y-50609147D01*
X69281715Y-50931054D01*
X69850000Y-51044093D01*
X70418285Y-50931054D01*
X70900054Y-50609147D01*
X71120000Y-50279974D01*
X71339946Y-50609147D01*
X71821715Y-50931054D01*
X72390000Y-51044093D01*
X72958285Y-50931054D01*
X73440054Y-50609147D01*
X73761961Y-50127378D01*
X73875000Y-49559093D01*
X73875000Y-49500907D01*
X73761961Y-48932622D01*
X73440054Y-48450853D01*
X72958285Y-48128946D01*
X72390000Y-48015907D01*
X71821715Y-48128946D01*
X71339946Y-48450853D01*
X71120000Y-48780026D01*
X70900054Y-48450853D01*
X70418285Y-48128946D01*
X69850000Y-48015907D01*
X69281715Y-48128946D01*
X68799946Y-48450853D01*
X68580000Y-48780026D01*
X68360054Y-48450853D01*
X67878285Y-48128946D01*
X67310000Y-48015907D01*
X66741715Y-48128946D01*
X66259946Y-48450853D01*
X66040000Y-48780026D01*
X65820054Y-48450853D01*
X65338285Y-48128946D01*
X64770000Y-48015907D01*
X64201715Y-48128946D01*
X63719946Y-48450853D01*
X63582205Y-48656998D01*
X63395871Y-48656998D01*
X63221175Y-48424155D01*
X62872356Y-48191119D01*
X62655000Y-48273690D01*
X61805000Y-48273690D01*
X61587644Y-48191119D01*
X61238825Y-48424155D01*
X60960000Y-48795786D01*
X60681175Y-48424155D01*
X60332356Y-48191119D01*
X60115000Y-48273690D01*
X59265000Y-48273690D01*
X59047644Y-48191119D01*
X58698825Y-48424155D01*
X58420000Y-48795786D01*
X58141175Y-48424155D01*
X57792356Y-48191119D01*
X57575000Y-48273690D01*
X56725000Y-48273690D01*
X56507644Y-48191119D01*
X56158825Y-48424155D01*
X56083133Y-48525041D01*
X55998327Y-48320302D01*
X55819699Y-48141673D01*
X55586310Y-48045000D01*
X55193750Y-48045000D01*
X55035000Y-48203750D01*
X54185000Y-48203750D01*
X54026250Y-48045000D01*
X53633690Y-48045000D01*
X53400301Y-48141673D01*
X53221673Y-48320302D01*
X53125000Y-48553691D01*
X45935000Y-48553691D01*
X45935000Y-48553690D01*
X45838327Y-48320301D01*
X45659698Y-48141673D01*
X45454959Y-48056867D01*
X45555845Y-47981175D01*
X45788881Y-47632356D01*
X45706310Y-47415000D01*
X44875000Y-47415000D01*
X44025000Y-47415000D01*
X43600000Y-47415000D01*
X43600000Y-46565000D01*
X44025000Y-46565000D01*
X44025000Y-45725832D01*
X44008041Y-45720000D01*
X44025000Y-45714168D01*
X44025000Y-44875000D01*
X44875000Y-44875000D01*
X44875000Y-45714168D01*
X44891959Y-45720000D01*
X44875000Y-45725832D01*
X44875000Y-46565000D01*
X45706310Y-46565000D01*
X45788881Y-46347644D01*
X45555845Y-45998825D01*
X45184214Y-45720000D01*
X45555845Y-45441175D01*
X45788881Y-45092356D01*
X45706310Y-44875000D01*
X44875000Y-44875000D01*
X44025000Y-44875000D01*
X43600000Y-44875000D01*
X43600000Y-44025000D01*
X44025000Y-44025000D01*
X44025000Y-43185832D01*
X44008041Y-43180000D01*
X44025000Y-43174168D01*
X44025000Y-42335000D01*
X44875000Y-42335000D01*
X44875000Y-43174168D01*
X44891959Y-43180000D01*
X44875000Y-43185832D01*
X44875000Y-44025000D01*
X45706310Y-44025000D01*
X45788881Y-43807644D01*
X45555845Y-43458825D01*
X45184214Y-43180000D01*
X45555845Y-42901175D01*
X45788881Y-42552356D01*
X45706310Y-42335000D01*
X44875000Y-42335000D01*
X44025000Y-42335000D01*
X43600000Y-42335000D01*
X43600000Y-41485000D01*
X44025000Y-41485000D01*
X44025000Y-40645832D01*
X44008041Y-40640000D01*
X44025000Y-40634168D01*
X44025000Y-39795000D01*
X44875000Y-39795000D01*
X44875000Y-40634168D01*
X44891959Y-40640000D01*
X44875000Y-40645832D01*
X44875000Y-41485000D01*
X45706310Y-41485000D01*
X45788881Y-41267644D01*
X45555845Y-40918825D01*
X45184214Y-40640000D01*
X45555845Y-40361175D01*
X45788881Y-40012356D01*
X45706310Y-39795000D01*
X44875000Y-39795000D01*
X44025000Y-39795000D01*
X43600000Y-39795000D01*
X43600000Y-38945000D01*
X44025000Y-38945000D01*
X44025000Y-38105832D01*
X44008041Y-38100000D01*
X44025000Y-38094168D01*
X44025000Y-37255000D01*
X44875000Y-37255000D01*
X44875000Y-38094168D01*
X44891959Y-38100000D01*
X44875000Y-38105832D01*
X44875000Y-38945000D01*
X45706310Y-38945000D01*
X45788881Y-38727644D01*
X45555845Y-38378825D01*
X45184214Y-38100000D01*
X45555845Y-37821175D01*
X45788881Y-37472356D01*
X45706310Y-37255000D01*
X44875000Y-37255000D01*
X44025000Y-37255000D01*
X43600000Y-37255000D01*
X43600000Y-36405000D01*
X44025000Y-36405000D01*
X44025000Y-35565832D01*
X44008041Y-35560000D01*
X44025000Y-35554168D01*
X44025000Y-34715000D01*
X44875000Y-34715000D01*
X44875000Y-35554168D01*
X44891959Y-35560000D01*
X44875000Y-35565832D01*
X44875000Y-36405000D01*
X45706310Y-36405000D01*
X45788881Y-36187644D01*
X45555845Y-35838825D01*
X45184214Y-35560000D01*
X45555845Y-35281175D01*
X45788881Y-34932356D01*
X45706310Y-34715000D01*
X44875000Y-34715000D01*
X44025000Y-34715000D01*
X43600000Y-34715000D01*
X43600000Y-33865000D01*
X44025000Y-33865000D01*
X44025000Y-33025832D01*
X44008041Y-33020000D01*
X44025000Y-33014168D01*
X44025000Y-32175000D01*
X44875000Y-32175000D01*
X44875000Y-33014168D01*
X44891959Y-33020000D01*
X44875000Y-33025832D01*
X44875000Y-33865000D01*
X45706310Y-33865000D01*
X45788881Y-33647644D01*
X45555845Y-33298825D01*
X45184214Y-33020000D01*
X45555845Y-32741175D01*
X45788881Y-32392356D01*
X45706310Y-32175000D01*
X44875000Y-32175000D01*
X44025000Y-32175000D01*
X43600000Y-32175000D01*
X43600000Y-31325000D01*
X44025000Y-31325000D01*
X44025000Y-29635000D01*
X44875000Y-29635000D01*
X44875000Y-31325000D01*
X45706310Y-31325000D01*
X45788881Y-31107644D01*
X45555845Y-30758825D01*
X45454959Y-30683133D01*
X45659698Y-30598327D01*
X45838327Y-30419699D01*
X45935000Y-30186310D01*
X45935000Y-29793750D01*
X53125000Y-29793750D01*
X53125000Y-30186309D01*
X53221673Y-30419698D01*
X53400301Y-30598327D01*
X53633690Y-30695000D01*
X54026250Y-30695000D01*
X54185000Y-30536250D01*
X54185000Y-29635000D01*
X55035000Y-29635000D01*
X55035000Y-30536250D01*
X55193750Y-30695000D01*
X55586310Y-30695000D01*
X55819699Y-30598327D01*
X55998327Y-30419698D01*
X56083133Y-30214959D01*
X56158825Y-30315845D01*
X56507644Y-30548881D01*
X56725000Y-30466310D01*
X56725000Y-29635000D01*
X57575000Y-29635000D01*
X57575000Y-30466310D01*
X57792356Y-30548881D01*
X58141175Y-30315845D01*
X58420000Y-29944214D01*
X58698825Y-30315845D01*
X59047644Y-30548881D01*
X59265000Y-30466310D01*
X59265000Y-29635000D01*
X60115000Y-29635000D01*
X60115000Y-30466310D01*
X60332356Y-30548881D01*
X60681175Y-30315845D01*
X60960000Y-29944214D01*
X61238825Y-30315845D01*
X61587644Y-30548881D01*
X61805000Y-30466310D01*
X61805000Y-29635000D01*
X60965832Y-29635000D01*
X60960000Y-29651959D01*
X60954168Y-29635000D01*
X60115000Y-29635000D01*
X59265000Y-29635000D01*
X58425832Y-29635000D01*
X58420000Y-29651959D01*
X58414168Y-29635000D01*
X57575000Y-29635000D01*
X56725000Y-29635000D01*
X55035000Y-29635000D01*
X54185000Y-29635000D01*
X53283750Y-29635000D01*
X53125000Y-29793750D01*
X45935000Y-29793750D01*
X45776250Y-29635000D01*
X44875000Y-29635000D01*
X44025000Y-29635000D01*
X43600000Y-29635000D01*
X43600000Y-28785000D01*
X44025000Y-28785000D01*
X44025000Y-27883750D01*
X44875000Y-27883750D01*
X44875000Y-28785000D01*
X45776250Y-28785000D01*
X45935000Y-28626250D01*
X45935000Y-28233691D01*
X53125000Y-28233691D01*
X53125000Y-28626250D01*
X53283750Y-28785000D01*
X54185000Y-28785000D01*
X54185000Y-27883750D01*
X55035000Y-27883750D01*
X55035000Y-28785000D01*
X56725000Y-28785000D01*
X56725000Y-27953690D01*
X57575000Y-27953690D01*
X57575000Y-28785000D01*
X58414168Y-28785000D01*
X58420000Y-28768041D01*
X58425832Y-28785000D01*
X59265000Y-28785000D01*
X59265000Y-27953690D01*
X60115000Y-27953690D01*
X60115000Y-28785000D01*
X60954168Y-28785000D01*
X60960000Y-28768041D01*
X60965832Y-28785000D01*
X61805000Y-28785000D01*
X61805000Y-27953690D01*
X62655000Y-27953690D01*
X62655000Y-28785000D01*
X63080000Y-28785000D01*
X63080000Y-29635000D01*
X62655000Y-29635000D01*
X62655000Y-30466310D01*
X62872356Y-30548881D01*
X63221175Y-30315845D01*
X63395871Y-30083002D01*
X63582205Y-30083002D01*
X63719946Y-30289147D01*
X64201715Y-30611054D01*
X64770000Y-30724093D01*
X65338285Y-30611054D01*
X65820054Y-30289147D01*
X66040000Y-29959974D01*
X66259946Y-30289147D01*
X66741715Y-30611054D01*
X67310000Y-30724093D01*
X67878285Y-30611054D01*
X68360054Y-30289147D01*
X68580000Y-29959974D01*
X68799946Y-30289147D01*
X69281715Y-30611054D01*
X69850000Y-30724093D01*
X70418285Y-30611054D01*
X70900054Y-30289147D01*
X71120000Y-29959974D01*
X71339946Y-30289147D01*
X71821715Y-30611054D01*
X72390000Y-30724093D01*
X72958285Y-30611054D01*
X73440054Y-30289147D01*
X73761961Y-29807378D01*
X73875000Y-29239093D01*
X73875000Y-29180907D01*
X73761961Y-28612622D01*
X73440054Y-28130853D01*
X72958285Y-27808946D01*
X72390000Y-27695907D01*
X71821715Y-27808946D01*
X71339946Y-28130853D01*
X71120000Y-28460026D01*
X70900054Y-28130853D01*
X70418285Y-27808946D01*
X69850000Y-27695907D01*
X69281715Y-27808946D01*
X68799946Y-28130853D01*
X68580000Y-28460026D01*
X68360054Y-28130853D01*
X67878285Y-27808946D01*
X67310000Y-27695907D01*
X66741715Y-27808946D01*
X66259946Y-28130853D01*
X66040000Y-28460026D01*
X65820054Y-28130853D01*
X65338285Y-27808946D01*
X64770000Y-27695907D01*
X64201715Y-27808946D01*
X63719946Y-28130853D01*
X63582205Y-28336998D01*
X63395871Y-28336998D01*
X63221175Y-28104155D01*
X62872356Y-27871119D01*
X62655000Y-27953690D01*
X61805000Y-27953690D01*
X61587644Y-27871119D01*
X61238825Y-28104155D01*
X60960000Y-28475786D01*
X60681175Y-28104155D01*
X60332356Y-27871119D01*
X60115000Y-27953690D01*
X59265000Y-27953690D01*
X59047644Y-27871119D01*
X58698825Y-28104155D01*
X58420000Y-28475786D01*
X58141175Y-28104155D01*
X57792356Y-27871119D01*
X57575000Y-27953690D01*
X56725000Y-27953690D01*
X56507644Y-27871119D01*
X56158825Y-28104155D01*
X56083133Y-28205041D01*
X55998327Y-28000302D01*
X55819699Y-27821673D01*
X55586310Y-27725000D01*
X55193750Y-27725000D01*
X55035000Y-27883750D01*
X54185000Y-27883750D01*
X54026250Y-27725000D01*
X53633690Y-27725000D01*
X53400301Y-27821673D01*
X53221673Y-28000302D01*
X53125000Y-28233691D01*
X45935000Y-28233691D01*
X45935000Y-28233690D01*
X45838327Y-28000301D01*
X45659698Y-27821673D01*
X45426309Y-27725000D01*
X45033750Y-27725000D01*
X44875000Y-27883750D01*
X44025000Y-27883750D01*
X43866250Y-27725000D01*
X43473691Y-27725000D01*
X43240302Y-27821673D01*
X43182104Y-27879871D01*
X43011890Y-27763569D01*
X42760000Y-27712560D01*
X41060000Y-27712560D01*
X40824683Y-27756838D01*
X40608559Y-27895910D01*
X40463569Y-28108110D01*
X40412560Y-28360000D01*
X40412560Y-30060000D01*
X40456838Y-30295317D01*
X40595910Y-30511441D01*
X40808110Y-30656431D01*
X40875541Y-30670086D01*
X40830853Y-30699946D01*
X40508946Y-31181715D01*
X40395907Y-31750000D01*
X32460000Y-31750000D01*
X32460000Y-26159482D01*
X32994336Y-26159482D01*
X33576950Y-27569515D01*
X34654811Y-28649259D01*
X36063825Y-29234333D01*
X37589482Y-29235664D01*
X38999515Y-28653050D01*
X40079259Y-27575189D01*
X40664333Y-26166175D01*
X40664338Y-26159482D01*
X73634336Y-26159482D01*
X74216950Y-27569515D01*
X75294811Y-28649259D01*
X76703825Y-29234333D01*
X78229482Y-29235664D01*
X79639515Y-28653050D01*
X80719259Y-27575189D01*
X81304333Y-26166175D01*
X81305664Y-24640518D01*
X80723050Y-23230485D01*
X79645189Y-22150741D01*
X78236175Y-21565667D01*
X76710518Y-21564336D01*
X75300485Y-22146950D01*
X74220741Y-23224811D01*
X73635667Y-24633825D01*
X73634336Y-26159482D01*
X40664338Y-26159482D01*
X40665664Y-24640518D01*
X40083050Y-23230485D01*
X39005189Y-22150741D01*
X37596175Y-21565667D01*
X36070518Y-21564336D01*
X34660485Y-22146950D01*
X33580741Y-23224811D01*
X32995667Y-24633825D01*
X32994336Y-26159482D01*
X32460000Y-26159482D01*
X32460000Y-21030000D01*
X81840000Y-21030000D01*
X81840000Y-117400000D01*
M02*
