%TF.GenerationSoftware,KiCad,Pcbnew,4.0.7-e2-6376~61~ubuntu18.04.1*%
%TF.CreationDate,2020-07-26T21:14:29+02:00*%
%TF.ProjectId,testio_panel,74657374696F5F70616E656C2E6B6963,rev?*%
%TF.FileFunction,Soldermask,Bot*%
%FSLAX46Y46*%
G04 Gerber Fmt 4.6, Leading zero omitted, Abs format (unit mm)*
G04 Created by KiCad (PCBNEW 4.0.7-e2-6376~61~ubuntu18.04.1) date Sun Jul 26 21:14:29 2020*
%MOMM*%
%LPD*%
G01*
G04 APERTURE LIST*
%ADD10C,0.150000*%
%ADD11O,1.900000X1.300000*%
%ADD12R,1.900000X1.300000*%
%ADD13R,2.200000X2.200000*%
%ADD14C,2.200000*%
%ADD15R,2.100000X2.100000*%
%ADD16O,2.100000X2.100000*%
%ADD17C,1.800000*%
%ADD18O,1.800000X1.800000*%
%ADD19R,2.000000X2.000000*%
%ADD20O,2.000000X2.000000*%
G04 APERTURE END LIST*
D10*
X104727500Y-97425000D02*
X104727500Y-61230000D01*
X104727500Y-61230000D02*
X104727500Y-97425000D01*
X104727500Y-97425000D02*
X63135000Y-97425000D01*
X63135000Y-97425000D02*
X104727500Y-97425000D01*
X104727500Y-97425000D02*
X146320000Y-97425000D01*
X146320000Y-97425000D02*
X104727500Y-97425000D01*
X104727500Y-97425000D02*
X104727500Y-133620000D01*
X104727500Y-133620000D02*
X104727500Y-97425000D01*
X146320000Y-133620000D02*
X146320000Y-97425000D01*
X146320000Y-97425000D02*
X146320000Y-61230000D01*
X104727500Y-133620000D02*
X146320000Y-133620000D01*
X63135000Y-133620000D02*
X104727500Y-133620000D01*
X146320000Y-61230000D02*
X104727500Y-61230000D01*
X63135000Y-97425000D02*
X63135000Y-133620000D01*
X104727500Y-61230000D02*
X63135000Y-61230000D01*
X63135000Y-61230000D02*
X63135000Y-97425000D01*
D11*
X118062500Y-116792500D03*
X118062500Y-115522500D03*
D12*
X118062500Y-118062500D03*
D11*
X76470000Y-116792500D03*
X76470000Y-115522500D03*
D12*
X76470000Y-118062500D03*
D11*
X118062500Y-80597500D03*
X118062500Y-79327500D03*
D12*
X118062500Y-81867500D03*
D11*
X113300000Y-116792500D03*
X113300000Y-115522500D03*
D12*
X113300000Y-118062500D03*
D11*
X71707500Y-116792500D03*
X71707500Y-115522500D03*
D12*
X71707500Y-118062500D03*
D11*
X113300000Y-80597500D03*
X113300000Y-79327500D03*
D12*
X113300000Y-81867500D03*
D13*
X109807500Y-127270000D03*
D14*
X109807500Y-124730000D03*
D13*
X68215000Y-127270000D03*
D14*
X68215000Y-124730000D03*
D13*
X109807500Y-91075000D03*
D14*
X109807500Y-88535000D03*
D11*
X108537500Y-116792500D03*
X108537500Y-115522500D03*
D12*
X108537500Y-118062500D03*
D11*
X66945000Y-116792500D03*
X66945000Y-115522500D03*
D12*
X66945000Y-118062500D03*
D11*
X108537500Y-80597500D03*
X108537500Y-79327500D03*
D12*
X108537500Y-81867500D03*
D11*
X122825000Y-116792500D03*
X122825000Y-115522500D03*
D12*
X122825000Y-118062500D03*
D11*
X81232500Y-116792500D03*
X81232500Y-115522500D03*
D12*
X81232500Y-118062500D03*
D11*
X122825000Y-80597500D03*
X122825000Y-79327500D03*
D12*
X122825000Y-81867500D03*
D13*
X118697500Y-127270000D03*
D14*
X118697500Y-124730000D03*
D13*
X77105000Y-127270000D03*
D14*
X77105000Y-124730000D03*
D13*
X118697500Y-91075000D03*
D14*
X118697500Y-88535000D03*
D13*
X123142500Y-127270000D03*
D14*
X123142500Y-124730000D03*
D13*
X81550000Y-127270000D03*
D14*
X81550000Y-124730000D03*
D13*
X123142500Y-91075000D03*
D14*
X123142500Y-88535000D03*
D13*
X114252500Y-127270000D03*
D14*
X114252500Y-124730000D03*
D13*
X72660000Y-127270000D03*
D14*
X72660000Y-124730000D03*
D13*
X114252500Y-91075000D03*
D14*
X114252500Y-88535000D03*
D15*
X116792500Y-101552500D03*
D16*
X119332500Y-101552500D03*
X121872500Y-101552500D03*
X124412500Y-101552500D03*
X126952500Y-101552500D03*
X129492500Y-101552500D03*
X132032500Y-101552500D03*
X134572500Y-101552500D03*
D15*
X75200000Y-101552500D03*
D16*
X77740000Y-101552500D03*
X80280000Y-101552500D03*
X82820000Y-101552500D03*
X85360000Y-101552500D03*
X87900000Y-101552500D03*
X90440000Y-101552500D03*
X92980000Y-101552500D03*
D15*
X116792500Y-65357500D03*
D16*
X119332500Y-65357500D03*
X121872500Y-65357500D03*
X124412500Y-65357500D03*
X126952500Y-65357500D03*
X129492500Y-65357500D03*
X132032500Y-65357500D03*
X134572500Y-65357500D03*
D17*
X118380000Y-106632500D03*
D18*
X118380000Y-111712500D03*
D17*
X76787500Y-106632500D03*
D18*
X76787500Y-111712500D03*
D17*
X118380000Y-70437500D03*
D18*
X118380000Y-75517500D03*
D17*
X113617500Y-106632500D03*
D18*
X113617500Y-111712500D03*
D17*
X72025000Y-106632500D03*
D18*
X72025000Y-111712500D03*
D17*
X113617500Y-70437500D03*
D18*
X113617500Y-75517500D03*
D17*
X123142500Y-106632500D03*
D18*
X123142500Y-111712500D03*
D17*
X81550000Y-106632500D03*
D18*
X81550000Y-111712500D03*
D17*
X123142500Y-70437500D03*
D18*
X123142500Y-75517500D03*
D17*
X132667500Y-106632500D03*
D18*
X132667500Y-111712500D03*
D17*
X91075000Y-106632500D03*
D18*
X91075000Y-111712500D03*
D17*
X132667500Y-70437500D03*
D18*
X132667500Y-75517500D03*
D17*
X127905000Y-106632500D03*
D18*
X127905000Y-111712500D03*
D17*
X86312500Y-106632500D03*
D18*
X86312500Y-111712500D03*
D17*
X127905000Y-70437500D03*
D18*
X127905000Y-75517500D03*
D17*
X108855000Y-106632500D03*
D18*
X108855000Y-111712500D03*
D17*
X67262500Y-106632500D03*
D18*
X67262500Y-111712500D03*
D17*
X108855000Y-70437500D03*
D18*
X108855000Y-75517500D03*
D19*
X134255000Y-122190000D03*
D20*
X116475000Y-129810000D03*
X131715000Y-122190000D03*
X119015000Y-129810000D03*
X129175000Y-122190000D03*
X121555000Y-129810000D03*
X126635000Y-122190000D03*
X124095000Y-129810000D03*
X124095000Y-122190000D03*
X126635000Y-129810000D03*
X121555000Y-122190000D03*
X129175000Y-129810000D03*
X119015000Y-122190000D03*
X131715000Y-129810000D03*
X116475000Y-122190000D03*
X134255000Y-129810000D03*
D19*
X92662500Y-122190000D03*
D20*
X74882500Y-129810000D03*
X90122500Y-122190000D03*
X77422500Y-129810000D03*
X87582500Y-122190000D03*
X79962500Y-129810000D03*
X85042500Y-122190000D03*
X82502500Y-129810000D03*
X82502500Y-122190000D03*
X85042500Y-129810000D03*
X79962500Y-122190000D03*
X87582500Y-129810000D03*
X77422500Y-122190000D03*
X90122500Y-129810000D03*
X74882500Y-122190000D03*
X92662500Y-129810000D03*
D19*
X134255000Y-85995000D03*
D20*
X116475000Y-93615000D03*
X131715000Y-85995000D03*
X119015000Y-93615000D03*
X129175000Y-85995000D03*
X121555000Y-93615000D03*
X126635000Y-85995000D03*
X124095000Y-93615000D03*
X124095000Y-85995000D03*
X126635000Y-93615000D03*
X121555000Y-85995000D03*
X129175000Y-93615000D03*
X119015000Y-85995000D03*
X131715000Y-93615000D03*
X116475000Y-85995000D03*
X134255000Y-93615000D03*
D13*
X140922500Y-127270000D03*
D14*
X140922500Y-124730000D03*
D13*
X99330000Y-127270000D03*
D14*
X99330000Y-124730000D03*
D13*
X140922500Y-91075000D03*
D14*
X140922500Y-88535000D03*
D13*
X127587500Y-127270000D03*
D14*
X127587500Y-124730000D03*
D13*
X85995000Y-127270000D03*
D14*
X85995000Y-124730000D03*
D13*
X127587500Y-91075000D03*
D14*
X127587500Y-88535000D03*
D13*
X136477500Y-127270000D03*
D14*
X136477500Y-124730000D03*
D13*
X94885000Y-127270000D03*
D14*
X94885000Y-124730000D03*
D13*
X136477500Y-91075000D03*
D14*
X136477500Y-88535000D03*
D13*
X132032500Y-127270000D03*
D14*
X132032500Y-124730000D03*
D13*
X90440000Y-127270000D03*
D14*
X90440000Y-124730000D03*
D13*
X132032500Y-91075000D03*
D14*
X132032500Y-88535000D03*
D15*
X143145000Y-103775000D03*
D16*
X143145000Y-106315000D03*
D15*
X101552500Y-103775000D03*
D16*
X101552500Y-106315000D03*
D15*
X143145000Y-67580000D03*
D16*
X143145000Y-70120000D03*
D11*
X127587500Y-116792500D03*
X127587500Y-115522500D03*
D12*
X127587500Y-118062500D03*
D11*
X85995000Y-116792500D03*
X85995000Y-115522500D03*
D12*
X85995000Y-118062500D03*
D11*
X127587500Y-80597500D03*
X127587500Y-79327500D03*
D12*
X127587500Y-81867500D03*
D17*
X139970000Y-106632500D03*
D18*
X139970000Y-111712500D03*
D17*
X98377500Y-106632500D03*
D18*
X98377500Y-111712500D03*
D17*
X139970000Y-70437500D03*
D18*
X139970000Y-75517500D03*
D17*
X136477500Y-106632500D03*
D18*
X136477500Y-111712500D03*
D17*
X94885000Y-106632500D03*
D18*
X94885000Y-111712500D03*
D17*
X136477500Y-70437500D03*
D18*
X136477500Y-75517500D03*
D11*
X137112500Y-116792500D03*
X137112500Y-115522500D03*
D12*
X137112500Y-118062500D03*
D11*
X95520000Y-116792500D03*
X95520000Y-115522500D03*
D12*
X95520000Y-118062500D03*
D11*
X137112500Y-80597500D03*
X137112500Y-79327500D03*
D12*
X137112500Y-81867500D03*
D11*
X132350000Y-116792500D03*
X132350000Y-115522500D03*
D12*
X132350000Y-118062500D03*
D11*
X90757500Y-116792500D03*
X90757500Y-115522500D03*
D12*
X90757500Y-118062500D03*
D11*
X132350000Y-80597500D03*
X132350000Y-79327500D03*
D12*
X132350000Y-81867500D03*
D11*
X141875000Y-116792500D03*
X141875000Y-115522500D03*
D12*
X141875000Y-118062500D03*
D11*
X100282500Y-116792500D03*
X100282500Y-115522500D03*
D12*
X100282500Y-118062500D03*
D11*
X141875000Y-80597500D03*
X141875000Y-79327500D03*
D12*
X141875000Y-81867500D03*
D13*
X68215000Y-91075000D03*
D14*
X68215000Y-88535000D03*
D13*
X72660000Y-91075000D03*
D14*
X72660000Y-88535000D03*
D13*
X77105000Y-91075000D03*
D14*
X77105000Y-88535000D03*
D13*
X81550000Y-91075000D03*
D14*
X81550000Y-88535000D03*
D13*
X85995000Y-91075000D03*
D14*
X85995000Y-88535000D03*
D13*
X90440000Y-91075000D03*
D14*
X90440000Y-88535000D03*
D13*
X94885000Y-91075000D03*
D14*
X94885000Y-88535000D03*
D13*
X99330000Y-91075000D03*
D14*
X99330000Y-88535000D03*
D15*
X75200000Y-65357500D03*
D16*
X77740000Y-65357500D03*
X80280000Y-65357500D03*
X82820000Y-65357500D03*
X85360000Y-65357500D03*
X87900000Y-65357500D03*
X90440000Y-65357500D03*
X92980000Y-65357500D03*
D15*
X101552500Y-67580000D03*
D16*
X101552500Y-70120000D03*
D11*
X66945000Y-80597500D03*
X66945000Y-79327500D03*
D12*
X66945000Y-81867500D03*
D11*
X71707500Y-80597500D03*
X71707500Y-79327500D03*
D12*
X71707500Y-81867500D03*
D11*
X76470000Y-80597500D03*
X76470000Y-79327500D03*
D12*
X76470000Y-81867500D03*
D11*
X81232500Y-80597500D03*
X81232500Y-79327500D03*
D12*
X81232500Y-81867500D03*
D11*
X85995000Y-80597500D03*
X85995000Y-79327500D03*
D12*
X85995000Y-81867500D03*
D11*
X90757500Y-80597500D03*
X90757500Y-79327500D03*
D12*
X90757500Y-81867500D03*
D11*
X95520000Y-80597500D03*
X95520000Y-79327500D03*
D12*
X95520000Y-81867500D03*
D11*
X100282500Y-80597500D03*
X100282500Y-79327500D03*
D12*
X100282500Y-81867500D03*
D17*
X67262500Y-70437500D03*
D18*
X67262500Y-75517500D03*
D17*
X72025000Y-70437500D03*
D18*
X72025000Y-75517500D03*
D17*
X76787500Y-70437500D03*
D18*
X76787500Y-75517500D03*
D17*
X81550000Y-70437500D03*
D18*
X81550000Y-75517500D03*
D17*
X86312500Y-70437500D03*
D18*
X86312500Y-75517500D03*
D17*
X91075000Y-70437500D03*
D18*
X91075000Y-75517500D03*
D17*
X94885000Y-70437500D03*
D18*
X94885000Y-75517500D03*
D17*
X98377500Y-70437500D03*
D18*
X98377500Y-75517500D03*
D19*
X92662500Y-85995000D03*
D20*
X74882500Y-93615000D03*
X90122500Y-85995000D03*
X77422500Y-93615000D03*
X87582500Y-85995000D03*
X79962500Y-93615000D03*
X85042500Y-85995000D03*
X82502500Y-93615000D03*
X82502500Y-85995000D03*
X85042500Y-93615000D03*
X79962500Y-85995000D03*
X87582500Y-93615000D03*
X77422500Y-85995000D03*
X90122500Y-93615000D03*
X74882500Y-85995000D03*
X92662500Y-93615000D03*
M02*
