M48
;DRILL file {KiCad 4.0.7-e2-6376~61~ubuntu18.04.1} date Sun Jul 26 21:18:30 2020
;FORMAT={-:-/ absolute / inch / decimal}
FMAT,2
INCH,TZ
T1C0.024
T2C0.028
T3C0.031
T4C0.035
T5C0.039
%
G90
G05
M72
T1
X2.6356Y-3.1231
X2.6356Y-3.1731
X2.6356Y-3.2231
X2.6356Y-4.5481
X2.6356Y-4.5981
X2.6356Y-4.6481
X2.8231Y-3.1231
X2.8231Y-3.1731
X2.8231Y-3.2231
X2.8231Y-4.5481
X2.8231Y-4.5981
X2.8231Y-4.6481
X3.0106Y-3.1231
X3.0106Y-3.1731
X3.0106Y-3.2231
X3.0106Y-4.5481
X3.0106Y-4.5981
X3.0106Y-4.6481
X3.1981Y-3.1231
X3.1981Y-3.1731
X3.1981Y-3.2231
X3.1981Y-4.5481
X3.1981Y-4.5981
X3.1981Y-4.6481
X3.3856Y-3.1231
X3.3856Y-3.1731
X3.3856Y-3.2231
X3.3856Y-4.5481
X3.3856Y-4.5981
X3.3856Y-4.6481
X3.5731Y-3.1231
X3.5731Y-3.1731
X3.5731Y-3.2231
X3.5731Y-4.5481
X3.5731Y-4.5981
X3.5731Y-4.6481
X3.7606Y-3.1231
X3.7606Y-3.1731
X3.7606Y-3.2231
X3.7606Y-4.5481
X3.7606Y-4.5981
X3.7606Y-4.6481
X3.9481Y-3.1231
X3.9481Y-3.1731
X3.9481Y-3.2231
X3.9481Y-4.5481
X3.9481Y-4.5981
X3.9481Y-4.6481
X4.2731Y-3.1231
X4.2731Y-3.1731
X4.2731Y-3.2231
X4.2731Y-4.5481
X4.2731Y-4.5981
X4.2731Y-4.6481
X4.4606Y-3.1231
X4.4606Y-3.1731
X4.4606Y-3.2231
X4.4606Y-4.5481
X4.4606Y-4.5981
X4.4606Y-4.6481
X4.6481Y-3.1231
X4.6481Y-3.1731
X4.6481Y-3.2231
X4.6481Y-4.5481
X4.6481Y-4.5981
X4.6481Y-4.6481
X4.8356Y-3.1231
X4.8356Y-3.1731
X4.8356Y-3.2231
X4.8356Y-4.5481
X4.8356Y-4.5981
X4.8356Y-4.6481
X5.0231Y-3.1231
X5.0231Y-3.1731
X5.0231Y-3.2231
X5.0231Y-4.5481
X5.0231Y-4.5981
X5.0231Y-4.6481
X5.2106Y-3.1231
X5.2106Y-3.1731
X5.2106Y-3.2231
X5.2106Y-4.5481
X5.2106Y-4.5981
X5.2106Y-4.6481
X5.3981Y-3.1231
X5.3981Y-3.1731
X5.3981Y-3.2231
X5.3981Y-4.5481
X5.3981Y-4.5981
X5.3981Y-4.6481
X5.5856Y-3.1231
X5.5856Y-3.1731
X5.5856Y-3.2231
X5.5856Y-4.5481
X5.5856Y-4.5981
X5.5856Y-4.6481
T2
X2.6481Y-2.7731
X2.6481Y-2.9731
X2.6481Y-4.1981
X2.6481Y-4.3981
X2.8356Y-2.7731
X2.8356Y-2.9731
X2.8356Y-4.1981
X2.8356Y-4.3981
X3.0231Y-2.7731
X3.0231Y-2.9731
X3.0231Y-4.1981
X3.0231Y-4.3981
X3.2106Y-2.7731
X3.2106Y-2.9731
X3.2106Y-4.1981
X3.2106Y-4.3981
X3.3981Y-2.7731
X3.3981Y-2.9731
X3.3981Y-4.1981
X3.3981Y-4.3981
X3.5856Y-2.7731
X3.5856Y-2.9731
X3.5856Y-4.1981
X3.5856Y-4.3981
X3.7356Y-2.7731
X3.7356Y-2.9731
X3.7356Y-4.1981
X3.7356Y-4.3981
X3.8731Y-2.7731
X3.8731Y-2.9731
X3.8731Y-4.1981
X3.8731Y-4.3981
X4.2856Y-2.7731
X4.2856Y-2.9731
X4.2856Y-4.1981
X4.2856Y-4.3981
X4.4731Y-2.7731
X4.4731Y-2.9731
X4.4731Y-4.1981
X4.4731Y-4.3981
X4.6606Y-2.7731
X4.6606Y-2.9731
X4.6606Y-4.1981
X4.6606Y-4.3981
X4.8481Y-2.7731
X4.8481Y-2.9731
X4.8481Y-4.1981
X4.8481Y-4.3981
X5.0356Y-2.7731
X5.0356Y-2.9731
X5.0356Y-4.1981
X5.0356Y-4.3981
X5.2231Y-2.7731
X5.2231Y-2.9731
X5.2231Y-4.1981
X5.2231Y-4.3981
X5.3731Y-2.7731
X5.3731Y-2.9731
X5.3731Y-4.1981
X5.3731Y-4.3981
X5.5106Y-2.7731
X5.5106Y-2.9731
X5.5106Y-4.1981
X5.5106Y-4.3981
T3
X2.9481Y-3.3856
X2.9481Y-3.6856
X2.9481Y-4.8106
X2.9481Y-5.1106
X3.0481Y-3.3856
X3.0481Y-3.6856
X3.0481Y-4.8106
X3.0481Y-5.1106
X3.1481Y-3.3856
X3.1481Y-3.6856
X3.1481Y-4.8106
X3.1481Y-5.1106
X3.2481Y-3.3856
X3.2481Y-3.6856
X3.2481Y-4.8106
X3.2481Y-5.1106
X3.3481Y-3.3856
X3.3481Y-3.6856
X3.3481Y-4.8106
X3.3481Y-5.1106
X3.4481Y-3.3856
X3.4481Y-3.6856
X3.4481Y-4.8106
X3.4481Y-5.1106
X3.5481Y-3.3856
X3.5481Y-3.6856
X3.5481Y-4.8106
X3.5481Y-5.1106
X3.6481Y-3.3856
X3.6481Y-3.6856
X3.6481Y-4.8106
X3.6481Y-5.1106
X4.5856Y-3.3856
X4.5856Y-3.6856
X4.5856Y-4.8106
X4.5856Y-5.1106
X4.6856Y-3.3856
X4.6856Y-3.6856
X4.6856Y-4.8106
X4.6856Y-5.1106
X4.7856Y-3.3856
X4.7856Y-3.6856
X4.7856Y-4.8106
X4.7856Y-5.1106
X4.8856Y-3.3856
X4.8856Y-3.6856
X4.8856Y-4.8106
X4.8856Y-5.1106
X4.9856Y-3.3856
X4.9856Y-3.6856
X4.9856Y-4.8106
X4.9856Y-5.1106
X5.0856Y-3.3856
X5.0856Y-3.6856
X5.0856Y-4.8106
X5.0856Y-5.1106
X5.1856Y-3.3856
X5.1856Y-3.6856
X5.1856Y-4.8106
X5.1856Y-5.1106
X5.2856Y-3.3856
X5.2856Y-3.6856
X5.2856Y-4.8106
X5.2856Y-5.1106
T4
X2.6856Y-3.4856
X2.6856Y-3.5856
X2.6856Y-4.9106
X2.6856Y-5.0106
X2.8606Y-3.4856
X2.8606Y-3.5856
X2.8606Y-4.9106
X2.8606Y-5.0106
X3.0356Y-3.4856
X3.0356Y-3.5856
X3.0356Y-4.9106
X3.0356Y-5.0106
X3.2106Y-3.4856
X3.2106Y-3.5856
X3.2106Y-4.9106
X3.2106Y-5.0106
X3.3856Y-3.4856
X3.3856Y-3.5856
X3.3856Y-4.9106
X3.3856Y-5.0106
X3.5606Y-3.4856
X3.5606Y-3.5856
X3.5606Y-4.9106
X3.5606Y-5.0106
X3.7356Y-3.4856
X3.7356Y-3.5856
X3.7356Y-4.9106
X3.7356Y-5.0106
X3.9106Y-3.4856
X3.9106Y-3.5856
X3.9106Y-4.9106
X3.9106Y-5.0106
X4.3231Y-3.4856
X4.3231Y-3.5856
X4.3231Y-4.9106
X4.3231Y-5.0106
X4.4981Y-3.4856
X4.4981Y-3.5856
X4.4981Y-4.9106
X4.4981Y-5.0106
X4.6731Y-3.4856
X4.6731Y-3.5856
X4.6731Y-4.9106
X4.6731Y-5.0106
X4.8481Y-3.4856
X4.8481Y-3.5856
X4.8481Y-4.9106
X4.8481Y-5.0106
X5.0231Y-3.4856
X5.0231Y-3.5856
X5.0231Y-4.9106
X5.0231Y-5.0106
X5.1981Y-3.4856
X5.1981Y-3.5856
X5.1981Y-4.9106
X5.1981Y-5.0106
X5.3731Y-3.4856
X5.3731Y-3.5856
X5.3731Y-4.9106
X5.3731Y-5.0106
X5.5481Y-3.4856
X5.5481Y-3.5856
X5.5481Y-4.9106
X5.5481Y-5.0106
T5
X2.9606Y-2.5731
X2.9606Y-3.9981
X3.0606Y-2.5731
X3.0606Y-3.9981
X3.1606Y-2.5731
X3.1606Y-3.9981
X3.2606Y-2.5731
X3.2606Y-3.9981
X3.3606Y-2.5731
X3.3606Y-3.9981
X3.4606Y-2.5731
X3.4606Y-3.9981
X3.5606Y-2.5731
X3.5606Y-3.9981
X3.6606Y-2.5731
X3.6606Y-3.9981
X3.9981Y-2.6606
X3.9981Y-2.7606
X3.9981Y-4.0856
X3.9981Y-4.1856
X4.5981Y-2.5731
X4.5981Y-3.9981
X4.6981Y-2.5731
X4.6981Y-3.9981
X4.7981Y-2.5731
X4.7981Y-3.9981
X4.8981Y-2.5731
X4.8981Y-3.9981
X4.9981Y-2.5731
X4.9981Y-3.9981
X5.0981Y-2.5731
X5.0981Y-3.9981
X5.1981Y-2.5731
X5.1981Y-3.9981
X5.2981Y-2.5731
X5.2981Y-3.9981
X5.6356Y-2.6606
X5.6356Y-2.7606
X5.6356Y-4.0856
X5.6356Y-4.1856
T0
M30
