%TF.GenerationSoftware,KiCad,Pcbnew,4.0.7-e2-6376~61~ubuntu18.04.1*%
%TF.CreationDate,2020-07-26T21:14:29+02:00*%
%TF.ProjectId,testio_panel,74657374696F5F70616E656C2E6B6963,rev?*%
%TF.FileFunction,Legend,Top*%
%FSLAX46Y46*%
G04 Gerber Fmt 4.6, Leading zero omitted, Abs format (unit mm)*
G04 Created by KiCad (PCBNEW 4.0.7-e2-6376~61~ubuntu18.04.1) date Sun Jul 26 21:14:29 2020*
%MOMM*%
%LPD*%
G01*
G04 APERTURE LIST*
%ADD10C,0.150000*%
%ADD11C,0.120000*%
G04 APERTURE END LIST*
D10*
X104727500Y-97425000D02*
X104727500Y-61230000D01*
X104727500Y-61230000D02*
X104727500Y-97425000D01*
X104727500Y-97425000D02*
X63135000Y-97425000D01*
X63135000Y-97425000D02*
X104727500Y-97425000D01*
X104727500Y-97425000D02*
X146320000Y-97425000D01*
X146320000Y-97425000D02*
X104727500Y-97425000D01*
X104727500Y-97425000D02*
X104727500Y-133620000D01*
X104727500Y-133620000D02*
X104727500Y-97425000D01*
X146320000Y-133620000D02*
X146320000Y-97425000D01*
X146320000Y-97425000D02*
X146320000Y-61230000D01*
X104727500Y-133620000D02*
X146320000Y-133620000D01*
X63135000Y-133620000D02*
X104727500Y-133620000D01*
X146320000Y-61230000D02*
X104727500Y-61230000D01*
X63135000Y-97425000D02*
X63135000Y-133620000D01*
X104727500Y-61230000D02*
X63135000Y-61230000D01*
X63135000Y-61230000D02*
X63135000Y-97425000D01*
X119357900Y-119027700D02*
X119357900Y-114557300D01*
D11*
X119912500Y-118592500D02*
X119912500Y-114992500D01*
X119900978Y-118630978D02*
G75*
G02X115462500Y-116792500I-1838478J1838478D01*
G01*
X119900978Y-114954022D02*
G75*
G03X115462500Y-116792500I-1838478J-1838478D01*
G01*
D10*
X77765400Y-119027700D02*
X77765400Y-114557300D01*
D11*
X78320000Y-118592500D02*
X78320000Y-114992500D01*
X78308478Y-118630978D02*
G75*
G02X73870000Y-116792500I-1838478J1838478D01*
G01*
X78308478Y-114954022D02*
G75*
G03X73870000Y-116792500I-1838478J-1838478D01*
G01*
D10*
X119357900Y-82832700D02*
X119357900Y-78362300D01*
D11*
X119912500Y-82397500D02*
X119912500Y-78797500D01*
X119900978Y-82435978D02*
G75*
G02X115462500Y-80597500I-1838478J1838478D01*
G01*
X119900978Y-78759022D02*
G75*
G03X115462500Y-80597500I-1838478J-1838478D01*
G01*
D10*
X114595400Y-119027700D02*
X114595400Y-114557300D01*
D11*
X115150000Y-118592500D02*
X115150000Y-114992500D01*
X115138478Y-118630978D02*
G75*
G02X110700000Y-116792500I-1838478J1838478D01*
G01*
X115138478Y-114954022D02*
G75*
G03X110700000Y-116792500I-1838478J-1838478D01*
G01*
D10*
X73002900Y-119027700D02*
X73002900Y-114557300D01*
D11*
X73557500Y-118592500D02*
X73557500Y-114992500D01*
X73545978Y-118630978D02*
G75*
G02X69107500Y-116792500I-1838478J1838478D01*
G01*
X73545978Y-114954022D02*
G75*
G03X69107500Y-116792500I-1838478J-1838478D01*
G01*
D10*
X114595400Y-82832700D02*
X114595400Y-78362300D01*
D11*
X115150000Y-82397500D02*
X115150000Y-78797500D01*
X115138478Y-82435978D02*
G75*
G02X110700000Y-80597500I-1838478J1838478D01*
G01*
X115138478Y-78759022D02*
G75*
G03X110700000Y-80597500I-1838478J-1838478D01*
G01*
X108728892Y-124327665D02*
G75*
G03X108571984Y-127560000I1078608J-1672335D01*
G01*
X110886108Y-124327665D02*
G75*
G02X111043016Y-127560000I-1078608J-1672335D01*
G01*
X108727663Y-124958870D02*
G75*
G03X108727500Y-127040961I1079837J-1041130D01*
G01*
X110887337Y-124958870D02*
G75*
G02X110887500Y-127040961I-1079837J-1041130D01*
G01*
X108571500Y-127560000D02*
X108727500Y-127560000D01*
X110887500Y-127560000D02*
X111043500Y-127560000D01*
X67136392Y-124327665D02*
G75*
G03X66979484Y-127560000I1078608J-1672335D01*
G01*
X69293608Y-124327665D02*
G75*
G02X69450516Y-127560000I-1078608J-1672335D01*
G01*
X67135163Y-124958870D02*
G75*
G03X67135000Y-127040961I1079837J-1041130D01*
G01*
X69294837Y-124958870D02*
G75*
G02X69295000Y-127040961I-1079837J-1041130D01*
G01*
X66979000Y-127560000D02*
X67135000Y-127560000D01*
X69295000Y-127560000D02*
X69451000Y-127560000D01*
X108728892Y-88132665D02*
G75*
G03X108571984Y-91365000I1078608J-1672335D01*
G01*
X110886108Y-88132665D02*
G75*
G02X111043016Y-91365000I-1078608J-1672335D01*
G01*
X108727663Y-88763870D02*
G75*
G03X108727500Y-90845961I1079837J-1041130D01*
G01*
X110887337Y-88763870D02*
G75*
G02X110887500Y-90845961I-1079837J-1041130D01*
G01*
X108571500Y-91365000D02*
X108727500Y-91365000D01*
X110887500Y-91365000D02*
X111043500Y-91365000D01*
D10*
X109832900Y-119027700D02*
X109832900Y-114557300D01*
D11*
X110387500Y-118592500D02*
X110387500Y-114992500D01*
X110375978Y-118630978D02*
G75*
G02X105937500Y-116792500I-1838478J1838478D01*
G01*
X110375978Y-114954022D02*
G75*
G03X105937500Y-116792500I-1838478J-1838478D01*
G01*
D10*
X68240400Y-119027700D02*
X68240400Y-114557300D01*
D11*
X68795000Y-118592500D02*
X68795000Y-114992500D01*
X68783478Y-118630978D02*
G75*
G02X64345000Y-116792500I-1838478J1838478D01*
G01*
X68783478Y-114954022D02*
G75*
G03X64345000Y-116792500I-1838478J-1838478D01*
G01*
D10*
X109832900Y-82832700D02*
X109832900Y-78362300D01*
D11*
X110387500Y-82397500D02*
X110387500Y-78797500D01*
X110375978Y-82435978D02*
G75*
G02X105937500Y-80597500I-1838478J1838478D01*
G01*
X110375978Y-78759022D02*
G75*
G03X105937500Y-80597500I-1838478J-1838478D01*
G01*
D10*
X124120400Y-119027700D02*
X124120400Y-114557300D01*
D11*
X124675000Y-118592500D02*
X124675000Y-114992500D01*
X124663478Y-118630978D02*
G75*
G02X120225000Y-116792500I-1838478J1838478D01*
G01*
X124663478Y-114954022D02*
G75*
G03X120225000Y-116792500I-1838478J-1838478D01*
G01*
D10*
X82527900Y-119027700D02*
X82527900Y-114557300D01*
D11*
X83082500Y-118592500D02*
X83082500Y-114992500D01*
X83070978Y-118630978D02*
G75*
G02X78632500Y-116792500I-1838478J1838478D01*
G01*
X83070978Y-114954022D02*
G75*
G03X78632500Y-116792500I-1838478J-1838478D01*
G01*
D10*
X124120400Y-82832700D02*
X124120400Y-78362300D01*
D11*
X124675000Y-82397500D02*
X124675000Y-78797500D01*
X124663478Y-82435978D02*
G75*
G02X120225000Y-80597500I-1838478J1838478D01*
G01*
X124663478Y-78759022D02*
G75*
G03X120225000Y-80597500I-1838478J-1838478D01*
G01*
X117618892Y-124327665D02*
G75*
G03X117461984Y-127560000I1078608J-1672335D01*
G01*
X119776108Y-124327665D02*
G75*
G02X119933016Y-127560000I-1078608J-1672335D01*
G01*
X117617663Y-124958870D02*
G75*
G03X117617500Y-127040961I1079837J-1041130D01*
G01*
X119777337Y-124958870D02*
G75*
G02X119777500Y-127040961I-1079837J-1041130D01*
G01*
X117461500Y-127560000D02*
X117617500Y-127560000D01*
X119777500Y-127560000D02*
X119933500Y-127560000D01*
X76026392Y-124327665D02*
G75*
G03X75869484Y-127560000I1078608J-1672335D01*
G01*
X78183608Y-124327665D02*
G75*
G02X78340516Y-127560000I-1078608J-1672335D01*
G01*
X76025163Y-124958870D02*
G75*
G03X76025000Y-127040961I1079837J-1041130D01*
G01*
X78184837Y-124958870D02*
G75*
G02X78185000Y-127040961I-1079837J-1041130D01*
G01*
X75869000Y-127560000D02*
X76025000Y-127560000D01*
X78185000Y-127560000D02*
X78341000Y-127560000D01*
X117618892Y-88132665D02*
G75*
G03X117461984Y-91365000I1078608J-1672335D01*
G01*
X119776108Y-88132665D02*
G75*
G02X119933016Y-91365000I-1078608J-1672335D01*
G01*
X117617663Y-88763870D02*
G75*
G03X117617500Y-90845961I1079837J-1041130D01*
G01*
X119777337Y-88763870D02*
G75*
G02X119777500Y-90845961I-1079837J-1041130D01*
G01*
X117461500Y-91365000D02*
X117617500Y-91365000D01*
X119777500Y-91365000D02*
X119933500Y-91365000D01*
X122063892Y-124327665D02*
G75*
G03X121906984Y-127560000I1078608J-1672335D01*
G01*
X124221108Y-124327665D02*
G75*
G02X124378016Y-127560000I-1078608J-1672335D01*
G01*
X122062663Y-124958870D02*
G75*
G03X122062500Y-127040961I1079837J-1041130D01*
G01*
X124222337Y-124958870D02*
G75*
G02X124222500Y-127040961I-1079837J-1041130D01*
G01*
X121906500Y-127560000D02*
X122062500Y-127560000D01*
X124222500Y-127560000D02*
X124378500Y-127560000D01*
X80471392Y-124327665D02*
G75*
G03X80314484Y-127560000I1078608J-1672335D01*
G01*
X82628608Y-124327665D02*
G75*
G02X82785516Y-127560000I-1078608J-1672335D01*
G01*
X80470163Y-124958870D02*
G75*
G03X80470000Y-127040961I1079837J-1041130D01*
G01*
X82629837Y-124958870D02*
G75*
G02X82630000Y-127040961I-1079837J-1041130D01*
G01*
X80314000Y-127560000D02*
X80470000Y-127560000D01*
X82630000Y-127560000D02*
X82786000Y-127560000D01*
X122063892Y-88132665D02*
G75*
G03X121906984Y-91365000I1078608J-1672335D01*
G01*
X124221108Y-88132665D02*
G75*
G02X124378016Y-91365000I-1078608J-1672335D01*
G01*
X122062663Y-88763870D02*
G75*
G03X122062500Y-90845961I1079837J-1041130D01*
G01*
X124222337Y-88763870D02*
G75*
G02X124222500Y-90845961I-1079837J-1041130D01*
G01*
X121906500Y-91365000D02*
X122062500Y-91365000D01*
X124222500Y-91365000D02*
X124378500Y-91365000D01*
X113173892Y-124327665D02*
G75*
G03X113016984Y-127560000I1078608J-1672335D01*
G01*
X115331108Y-124327665D02*
G75*
G02X115488016Y-127560000I-1078608J-1672335D01*
G01*
X113172663Y-124958870D02*
G75*
G03X113172500Y-127040961I1079837J-1041130D01*
G01*
X115332337Y-124958870D02*
G75*
G02X115332500Y-127040961I-1079837J-1041130D01*
G01*
X113016500Y-127560000D02*
X113172500Y-127560000D01*
X115332500Y-127560000D02*
X115488500Y-127560000D01*
X71581392Y-124327665D02*
G75*
G03X71424484Y-127560000I1078608J-1672335D01*
G01*
X73738608Y-124327665D02*
G75*
G02X73895516Y-127560000I-1078608J-1672335D01*
G01*
X71580163Y-124958870D02*
G75*
G03X71580000Y-127040961I1079837J-1041130D01*
G01*
X73739837Y-124958870D02*
G75*
G02X73740000Y-127040961I-1079837J-1041130D01*
G01*
X71424000Y-127560000D02*
X71580000Y-127560000D01*
X73740000Y-127560000D02*
X73896000Y-127560000D01*
X113173892Y-88132665D02*
G75*
G03X113016984Y-91365000I1078608J-1672335D01*
G01*
X115331108Y-88132665D02*
G75*
G02X115488016Y-91365000I-1078608J-1672335D01*
G01*
X113172663Y-88763870D02*
G75*
G03X113172500Y-90845961I1079837J-1041130D01*
G01*
X115332337Y-88763870D02*
G75*
G02X115332500Y-90845961I-1079837J-1041130D01*
G01*
X113016500Y-91365000D02*
X113172500Y-91365000D01*
X115332500Y-91365000D02*
X115488500Y-91365000D01*
D10*
X116792500Y-99774500D02*
X118189500Y-98377500D01*
X118189500Y-98377500D02*
X115395500Y-98377500D01*
X116792500Y-99774500D02*
X115395500Y-98377500D01*
D11*
X135902500Y-102882500D02*
X135902500Y-100222500D01*
X118062500Y-102882500D02*
X135902500Y-102882500D01*
X118062500Y-100222500D02*
X135902500Y-100222500D01*
X118062500Y-102882500D02*
X118062500Y-100222500D01*
X116792500Y-102882500D02*
X115462500Y-102882500D01*
X115462500Y-102882500D02*
X115462500Y-101552500D01*
D10*
X75200000Y-99774500D02*
X76597000Y-98377500D01*
X76597000Y-98377500D02*
X73803000Y-98377500D01*
X75200000Y-99774500D02*
X73803000Y-98377500D01*
D11*
X94310000Y-102882500D02*
X94310000Y-100222500D01*
X76470000Y-102882500D02*
X94310000Y-102882500D01*
X76470000Y-100222500D02*
X94310000Y-100222500D01*
X76470000Y-102882500D02*
X76470000Y-100222500D01*
X75200000Y-102882500D02*
X73870000Y-102882500D01*
X73870000Y-102882500D02*
X73870000Y-101552500D01*
D10*
X116792500Y-63579500D02*
X118189500Y-62182500D01*
X118189500Y-62182500D02*
X115395500Y-62182500D01*
X116792500Y-63579500D02*
X115395500Y-62182500D01*
D11*
X135902500Y-66687500D02*
X135902500Y-64027500D01*
X118062500Y-66687500D02*
X135902500Y-66687500D01*
X118062500Y-64027500D02*
X135902500Y-64027500D01*
X118062500Y-66687500D02*
X118062500Y-64027500D01*
X116792500Y-66687500D02*
X115462500Y-66687500D01*
X115462500Y-66687500D02*
X115462500Y-65357500D01*
X119240000Y-107312500D02*
X119240000Y-111032500D01*
X117520000Y-107312500D02*
X117520000Y-111032500D01*
X77647500Y-107312500D02*
X77647500Y-111032500D01*
X75927500Y-107312500D02*
X75927500Y-111032500D01*
X119240000Y-71117500D02*
X119240000Y-74837500D01*
X117520000Y-71117500D02*
X117520000Y-74837500D01*
X114477500Y-107312500D02*
X114477500Y-111032500D01*
X112757500Y-107312500D02*
X112757500Y-111032500D01*
X72885000Y-107312500D02*
X72885000Y-111032500D01*
X71165000Y-107312500D02*
X71165000Y-111032500D01*
X114477500Y-71117500D02*
X114477500Y-74837500D01*
X112757500Y-71117500D02*
X112757500Y-74837500D01*
X124002500Y-107312500D02*
X124002500Y-111032500D01*
X122282500Y-107312500D02*
X122282500Y-111032500D01*
X82410000Y-107312500D02*
X82410000Y-111032500D01*
X80690000Y-107312500D02*
X80690000Y-111032500D01*
X124002500Y-71117500D02*
X124002500Y-74837500D01*
X122282500Y-71117500D02*
X122282500Y-74837500D01*
X133527500Y-107312500D02*
X133527500Y-111032500D01*
X131807500Y-107312500D02*
X131807500Y-111032500D01*
X91935000Y-107312500D02*
X91935000Y-111032500D01*
X90215000Y-107312500D02*
X90215000Y-111032500D01*
X133527500Y-71117500D02*
X133527500Y-74837500D01*
X131807500Y-71117500D02*
X131807500Y-74837500D01*
X128765000Y-107312500D02*
X128765000Y-111032500D01*
X127045000Y-107312500D02*
X127045000Y-111032500D01*
X87172500Y-107312500D02*
X87172500Y-111032500D01*
X85452500Y-107312500D02*
X85452500Y-111032500D01*
X128765000Y-71117500D02*
X128765000Y-74837500D01*
X127045000Y-71117500D02*
X127045000Y-74837500D01*
X109715000Y-107312500D02*
X109715000Y-111032500D01*
X107995000Y-107312500D02*
X107995000Y-111032500D01*
X68122500Y-107312500D02*
X68122500Y-111032500D01*
X66402500Y-107312500D02*
X66402500Y-111032500D01*
X109715000Y-71117500D02*
X109715000Y-74837500D01*
X107995000Y-71117500D02*
X107995000Y-74837500D01*
X136935000Y-120790000D02*
X135665000Y-120790000D01*
X136935000Y-120790000D02*
X136935000Y-123330000D01*
X136735000Y-120990000D02*
X136735000Y-131010000D01*
X136735000Y-131010000D02*
X113995000Y-131010000D01*
X113995000Y-131010000D02*
X113995000Y-120990000D01*
X113995000Y-120990000D02*
X136735000Y-120990000D01*
X134890000Y-123970000D02*
X133620000Y-123970000D01*
X133620000Y-123970000D02*
X133620000Y-128030000D01*
X133620000Y-128030000D02*
X134890000Y-128030000D01*
X134890000Y-128030000D02*
X134890000Y-123970000D01*
X134890000Y-126000000D02*
X133620000Y-126000000D01*
X132350000Y-123970000D02*
X131080000Y-123970000D01*
X131080000Y-123970000D02*
X131080000Y-128030000D01*
X131080000Y-128030000D02*
X132350000Y-128030000D01*
X132350000Y-128030000D02*
X132350000Y-123970000D01*
X132350000Y-126000000D02*
X131080000Y-126000000D01*
X129810000Y-123970000D02*
X128540000Y-123970000D01*
X128540000Y-123970000D02*
X128540000Y-128030000D01*
X128540000Y-128030000D02*
X129810000Y-128030000D01*
X129810000Y-128030000D02*
X129810000Y-123970000D01*
X129810000Y-126000000D02*
X128540000Y-126000000D01*
X127270000Y-123970000D02*
X126000000Y-123970000D01*
X126000000Y-123970000D02*
X126000000Y-128030000D01*
X126000000Y-128030000D02*
X127270000Y-128030000D01*
X127270000Y-128030000D02*
X127270000Y-123970000D01*
X127270000Y-126000000D02*
X126000000Y-126000000D01*
X124730000Y-123970000D02*
X123460000Y-123970000D01*
X123460000Y-123970000D02*
X123460000Y-128030000D01*
X123460000Y-128030000D02*
X124730000Y-128030000D01*
X124730000Y-128030000D02*
X124730000Y-123970000D01*
X124730000Y-126000000D02*
X123460000Y-126000000D01*
X122190000Y-123970000D02*
X120920000Y-123970000D01*
X120920000Y-123970000D02*
X120920000Y-128030000D01*
X120920000Y-128030000D02*
X122190000Y-128030000D01*
X122190000Y-128030000D02*
X122190000Y-123970000D01*
X122190000Y-126000000D02*
X120920000Y-126000000D01*
X119650000Y-123970000D02*
X118380000Y-123970000D01*
X118380000Y-123970000D02*
X118380000Y-128030000D01*
X118380000Y-128030000D02*
X119650000Y-128030000D01*
X119650000Y-128030000D02*
X119650000Y-123970000D01*
X119650000Y-126000000D02*
X118380000Y-126000000D01*
X117110000Y-123970000D02*
X115840000Y-123970000D01*
X115840000Y-123970000D02*
X115840000Y-128030000D01*
X115840000Y-128030000D02*
X117110000Y-128030000D01*
X117110000Y-128030000D02*
X117110000Y-123970000D01*
X117110000Y-126000000D02*
X115840000Y-126000000D01*
X95342500Y-120790000D02*
X94072500Y-120790000D01*
X95342500Y-120790000D02*
X95342500Y-123330000D01*
X95142500Y-120990000D02*
X95142500Y-131010000D01*
X95142500Y-131010000D02*
X72402500Y-131010000D01*
X72402500Y-131010000D02*
X72402500Y-120990000D01*
X72402500Y-120990000D02*
X95142500Y-120990000D01*
X93297500Y-123970000D02*
X92027500Y-123970000D01*
X92027500Y-123970000D02*
X92027500Y-128030000D01*
X92027500Y-128030000D02*
X93297500Y-128030000D01*
X93297500Y-128030000D02*
X93297500Y-123970000D01*
X93297500Y-126000000D02*
X92027500Y-126000000D01*
X90757500Y-123970000D02*
X89487500Y-123970000D01*
X89487500Y-123970000D02*
X89487500Y-128030000D01*
X89487500Y-128030000D02*
X90757500Y-128030000D01*
X90757500Y-128030000D02*
X90757500Y-123970000D01*
X90757500Y-126000000D02*
X89487500Y-126000000D01*
X88217500Y-123970000D02*
X86947500Y-123970000D01*
X86947500Y-123970000D02*
X86947500Y-128030000D01*
X86947500Y-128030000D02*
X88217500Y-128030000D01*
X88217500Y-128030000D02*
X88217500Y-123970000D01*
X88217500Y-126000000D02*
X86947500Y-126000000D01*
X85677500Y-123970000D02*
X84407500Y-123970000D01*
X84407500Y-123970000D02*
X84407500Y-128030000D01*
X84407500Y-128030000D02*
X85677500Y-128030000D01*
X85677500Y-128030000D02*
X85677500Y-123970000D01*
X85677500Y-126000000D02*
X84407500Y-126000000D01*
X83137500Y-123970000D02*
X81867500Y-123970000D01*
X81867500Y-123970000D02*
X81867500Y-128030000D01*
X81867500Y-128030000D02*
X83137500Y-128030000D01*
X83137500Y-128030000D02*
X83137500Y-123970000D01*
X83137500Y-126000000D02*
X81867500Y-126000000D01*
X80597500Y-123970000D02*
X79327500Y-123970000D01*
X79327500Y-123970000D02*
X79327500Y-128030000D01*
X79327500Y-128030000D02*
X80597500Y-128030000D01*
X80597500Y-128030000D02*
X80597500Y-123970000D01*
X80597500Y-126000000D02*
X79327500Y-126000000D01*
X78057500Y-123970000D02*
X76787500Y-123970000D01*
X76787500Y-123970000D02*
X76787500Y-128030000D01*
X76787500Y-128030000D02*
X78057500Y-128030000D01*
X78057500Y-128030000D02*
X78057500Y-123970000D01*
X78057500Y-126000000D02*
X76787500Y-126000000D01*
X75517500Y-123970000D02*
X74247500Y-123970000D01*
X74247500Y-123970000D02*
X74247500Y-128030000D01*
X74247500Y-128030000D02*
X75517500Y-128030000D01*
X75517500Y-128030000D02*
X75517500Y-123970000D01*
X75517500Y-126000000D02*
X74247500Y-126000000D01*
X136935000Y-84595000D02*
X135665000Y-84595000D01*
X136935000Y-84595000D02*
X136935000Y-87135000D01*
X136735000Y-84795000D02*
X136735000Y-94815000D01*
X136735000Y-94815000D02*
X113995000Y-94815000D01*
X113995000Y-94815000D02*
X113995000Y-84795000D01*
X113995000Y-84795000D02*
X136735000Y-84795000D01*
X134890000Y-87775000D02*
X133620000Y-87775000D01*
X133620000Y-87775000D02*
X133620000Y-91835000D01*
X133620000Y-91835000D02*
X134890000Y-91835000D01*
X134890000Y-91835000D02*
X134890000Y-87775000D01*
X134890000Y-89805000D02*
X133620000Y-89805000D01*
X132350000Y-87775000D02*
X131080000Y-87775000D01*
X131080000Y-87775000D02*
X131080000Y-91835000D01*
X131080000Y-91835000D02*
X132350000Y-91835000D01*
X132350000Y-91835000D02*
X132350000Y-87775000D01*
X132350000Y-89805000D02*
X131080000Y-89805000D01*
X129810000Y-87775000D02*
X128540000Y-87775000D01*
X128540000Y-87775000D02*
X128540000Y-91835000D01*
X128540000Y-91835000D02*
X129810000Y-91835000D01*
X129810000Y-91835000D02*
X129810000Y-87775000D01*
X129810000Y-89805000D02*
X128540000Y-89805000D01*
X127270000Y-87775000D02*
X126000000Y-87775000D01*
X126000000Y-87775000D02*
X126000000Y-91835000D01*
X126000000Y-91835000D02*
X127270000Y-91835000D01*
X127270000Y-91835000D02*
X127270000Y-87775000D01*
X127270000Y-89805000D02*
X126000000Y-89805000D01*
X124730000Y-87775000D02*
X123460000Y-87775000D01*
X123460000Y-87775000D02*
X123460000Y-91835000D01*
X123460000Y-91835000D02*
X124730000Y-91835000D01*
X124730000Y-91835000D02*
X124730000Y-87775000D01*
X124730000Y-89805000D02*
X123460000Y-89805000D01*
X122190000Y-87775000D02*
X120920000Y-87775000D01*
X120920000Y-87775000D02*
X120920000Y-91835000D01*
X120920000Y-91835000D02*
X122190000Y-91835000D01*
X122190000Y-91835000D02*
X122190000Y-87775000D01*
X122190000Y-89805000D02*
X120920000Y-89805000D01*
X119650000Y-87775000D02*
X118380000Y-87775000D01*
X118380000Y-87775000D02*
X118380000Y-91835000D01*
X118380000Y-91835000D02*
X119650000Y-91835000D01*
X119650000Y-91835000D02*
X119650000Y-87775000D01*
X119650000Y-89805000D02*
X118380000Y-89805000D01*
X117110000Y-87775000D02*
X115840000Y-87775000D01*
X115840000Y-87775000D02*
X115840000Y-91835000D01*
X115840000Y-91835000D02*
X117110000Y-91835000D01*
X117110000Y-91835000D02*
X117110000Y-87775000D01*
X117110000Y-89805000D02*
X115840000Y-89805000D01*
X139843892Y-124327665D02*
G75*
G03X139686984Y-127560000I1078608J-1672335D01*
G01*
X142001108Y-124327665D02*
G75*
G02X142158016Y-127560000I-1078608J-1672335D01*
G01*
X139842663Y-124958870D02*
G75*
G03X139842500Y-127040961I1079837J-1041130D01*
G01*
X142002337Y-124958870D02*
G75*
G02X142002500Y-127040961I-1079837J-1041130D01*
G01*
X139686500Y-127560000D02*
X139842500Y-127560000D01*
X142002500Y-127560000D02*
X142158500Y-127560000D01*
X98251392Y-124327665D02*
G75*
G03X98094484Y-127560000I1078608J-1672335D01*
G01*
X100408608Y-124327665D02*
G75*
G02X100565516Y-127560000I-1078608J-1672335D01*
G01*
X98250163Y-124958870D02*
G75*
G03X98250000Y-127040961I1079837J-1041130D01*
G01*
X100409837Y-124958870D02*
G75*
G02X100410000Y-127040961I-1079837J-1041130D01*
G01*
X98094000Y-127560000D02*
X98250000Y-127560000D01*
X100410000Y-127560000D02*
X100566000Y-127560000D01*
X139843892Y-88132665D02*
G75*
G03X139686984Y-91365000I1078608J-1672335D01*
G01*
X142001108Y-88132665D02*
G75*
G02X142158016Y-91365000I-1078608J-1672335D01*
G01*
X139842663Y-88763870D02*
G75*
G03X139842500Y-90845961I1079837J-1041130D01*
G01*
X142002337Y-88763870D02*
G75*
G02X142002500Y-90845961I-1079837J-1041130D01*
G01*
X139686500Y-91365000D02*
X139842500Y-91365000D01*
X142002500Y-91365000D02*
X142158500Y-91365000D01*
X126508892Y-124327665D02*
G75*
G03X126351984Y-127560000I1078608J-1672335D01*
G01*
X128666108Y-124327665D02*
G75*
G02X128823016Y-127560000I-1078608J-1672335D01*
G01*
X126507663Y-124958870D02*
G75*
G03X126507500Y-127040961I1079837J-1041130D01*
G01*
X128667337Y-124958870D02*
G75*
G02X128667500Y-127040961I-1079837J-1041130D01*
G01*
X126351500Y-127560000D02*
X126507500Y-127560000D01*
X128667500Y-127560000D02*
X128823500Y-127560000D01*
X84916392Y-124327665D02*
G75*
G03X84759484Y-127560000I1078608J-1672335D01*
G01*
X87073608Y-124327665D02*
G75*
G02X87230516Y-127560000I-1078608J-1672335D01*
G01*
X84915163Y-124958870D02*
G75*
G03X84915000Y-127040961I1079837J-1041130D01*
G01*
X87074837Y-124958870D02*
G75*
G02X87075000Y-127040961I-1079837J-1041130D01*
G01*
X84759000Y-127560000D02*
X84915000Y-127560000D01*
X87075000Y-127560000D02*
X87231000Y-127560000D01*
X126508892Y-88132665D02*
G75*
G03X126351984Y-91365000I1078608J-1672335D01*
G01*
X128666108Y-88132665D02*
G75*
G02X128823016Y-91365000I-1078608J-1672335D01*
G01*
X126507663Y-88763870D02*
G75*
G03X126507500Y-90845961I1079837J-1041130D01*
G01*
X128667337Y-88763870D02*
G75*
G02X128667500Y-90845961I-1079837J-1041130D01*
G01*
X126351500Y-91365000D02*
X126507500Y-91365000D01*
X128667500Y-91365000D02*
X128823500Y-91365000D01*
X135398892Y-124327665D02*
G75*
G03X135241984Y-127560000I1078608J-1672335D01*
G01*
X137556108Y-124327665D02*
G75*
G02X137713016Y-127560000I-1078608J-1672335D01*
G01*
X135397663Y-124958870D02*
G75*
G03X135397500Y-127040961I1079837J-1041130D01*
G01*
X137557337Y-124958870D02*
G75*
G02X137557500Y-127040961I-1079837J-1041130D01*
G01*
X135241500Y-127560000D02*
X135397500Y-127560000D01*
X137557500Y-127560000D02*
X137713500Y-127560000D01*
X93806392Y-124327665D02*
G75*
G03X93649484Y-127560000I1078608J-1672335D01*
G01*
X95963608Y-124327665D02*
G75*
G02X96120516Y-127560000I-1078608J-1672335D01*
G01*
X93805163Y-124958870D02*
G75*
G03X93805000Y-127040961I1079837J-1041130D01*
G01*
X95964837Y-124958870D02*
G75*
G02X95965000Y-127040961I-1079837J-1041130D01*
G01*
X93649000Y-127560000D02*
X93805000Y-127560000D01*
X95965000Y-127560000D02*
X96121000Y-127560000D01*
X135398892Y-88132665D02*
G75*
G03X135241984Y-91365000I1078608J-1672335D01*
G01*
X137556108Y-88132665D02*
G75*
G02X137713016Y-91365000I-1078608J-1672335D01*
G01*
X135397663Y-88763870D02*
G75*
G03X135397500Y-90845961I1079837J-1041130D01*
G01*
X137557337Y-88763870D02*
G75*
G02X137557500Y-90845961I-1079837J-1041130D01*
G01*
X135241500Y-91365000D02*
X135397500Y-91365000D01*
X137557500Y-91365000D02*
X137713500Y-91365000D01*
X130953892Y-124327665D02*
G75*
G03X130796984Y-127560000I1078608J-1672335D01*
G01*
X133111108Y-124327665D02*
G75*
G02X133268016Y-127560000I-1078608J-1672335D01*
G01*
X130952663Y-124958870D02*
G75*
G03X130952500Y-127040961I1079837J-1041130D01*
G01*
X133112337Y-124958870D02*
G75*
G02X133112500Y-127040961I-1079837J-1041130D01*
G01*
X130796500Y-127560000D02*
X130952500Y-127560000D01*
X133112500Y-127560000D02*
X133268500Y-127560000D01*
X89361392Y-124327665D02*
G75*
G03X89204484Y-127560000I1078608J-1672335D01*
G01*
X91518608Y-124327665D02*
G75*
G02X91675516Y-127560000I-1078608J-1672335D01*
G01*
X89360163Y-124958870D02*
G75*
G03X89360000Y-127040961I1079837J-1041130D01*
G01*
X91519837Y-124958870D02*
G75*
G02X91520000Y-127040961I-1079837J-1041130D01*
G01*
X89204000Y-127560000D02*
X89360000Y-127560000D01*
X91520000Y-127560000D02*
X91676000Y-127560000D01*
X130953892Y-88132665D02*
G75*
G03X130796984Y-91365000I1078608J-1672335D01*
G01*
X133111108Y-88132665D02*
G75*
G02X133268016Y-91365000I-1078608J-1672335D01*
G01*
X130952663Y-88763870D02*
G75*
G03X130952500Y-90845961I1079837J-1041130D01*
G01*
X133112337Y-88763870D02*
G75*
G02X133112500Y-90845961I-1079837J-1041130D01*
G01*
X130796500Y-91365000D02*
X130952500Y-91365000D01*
X133112500Y-91365000D02*
X133268500Y-91365000D01*
D10*
X144923000Y-103775000D02*
X146320000Y-102378000D01*
X146320000Y-102378000D02*
X146320000Y-105172000D01*
X146320000Y-105172000D02*
X144923000Y-103775000D01*
D11*
X141815000Y-107645000D02*
X144475000Y-107645000D01*
X141815000Y-105045000D02*
X141815000Y-107645000D01*
X144475000Y-105045000D02*
X144475000Y-107645000D01*
X141815000Y-105045000D02*
X144475000Y-105045000D01*
X141815000Y-103775000D02*
X141815000Y-102445000D01*
X141815000Y-102445000D02*
X143145000Y-102445000D01*
D10*
X103330500Y-103775000D02*
X104727500Y-102378000D01*
X104727500Y-102378000D02*
X104727500Y-105172000D01*
X104727500Y-105172000D02*
X103330500Y-103775000D01*
D11*
X100222500Y-107645000D02*
X102882500Y-107645000D01*
X100222500Y-105045000D02*
X100222500Y-107645000D01*
X102882500Y-105045000D02*
X102882500Y-107645000D01*
X100222500Y-105045000D02*
X102882500Y-105045000D01*
X100222500Y-103775000D02*
X100222500Y-102445000D01*
X100222500Y-102445000D02*
X101552500Y-102445000D01*
D10*
X144923000Y-67580000D02*
X146320000Y-66183000D01*
X146320000Y-66183000D02*
X146320000Y-68977000D01*
X146320000Y-68977000D02*
X144923000Y-67580000D01*
D11*
X141815000Y-71450000D02*
X144475000Y-71450000D01*
X141815000Y-68850000D02*
X141815000Y-71450000D01*
X144475000Y-68850000D02*
X144475000Y-71450000D01*
X141815000Y-68850000D02*
X144475000Y-68850000D01*
X141815000Y-67580000D02*
X141815000Y-66250000D01*
X141815000Y-66250000D02*
X143145000Y-66250000D01*
D10*
X128882900Y-119027700D02*
X128882900Y-114557300D01*
D11*
X129437500Y-118592500D02*
X129437500Y-114992500D01*
X129425978Y-118630978D02*
G75*
G02X124987500Y-116792500I-1838478J1838478D01*
G01*
X129425978Y-114954022D02*
G75*
G03X124987500Y-116792500I-1838478J-1838478D01*
G01*
D10*
X87290400Y-119027700D02*
X87290400Y-114557300D01*
D11*
X87845000Y-118592500D02*
X87845000Y-114992500D01*
X87833478Y-118630978D02*
G75*
G02X83395000Y-116792500I-1838478J1838478D01*
G01*
X87833478Y-114954022D02*
G75*
G03X83395000Y-116792500I-1838478J-1838478D01*
G01*
D10*
X128882900Y-82832700D02*
X128882900Y-78362300D01*
D11*
X129437500Y-82397500D02*
X129437500Y-78797500D01*
X129425978Y-82435978D02*
G75*
G02X124987500Y-80597500I-1838478J1838478D01*
G01*
X129425978Y-78759022D02*
G75*
G03X124987500Y-80597500I-1838478J-1838478D01*
G01*
X140830000Y-107312500D02*
X140830000Y-111032500D01*
X139110000Y-107312500D02*
X139110000Y-111032500D01*
X99237500Y-107312500D02*
X99237500Y-111032500D01*
X97517500Y-107312500D02*
X97517500Y-111032500D01*
X140830000Y-71117500D02*
X140830000Y-74837500D01*
X139110000Y-71117500D02*
X139110000Y-74837500D01*
X137337500Y-107312500D02*
X137337500Y-111032500D01*
X135617500Y-107312500D02*
X135617500Y-111032500D01*
X95745000Y-107312500D02*
X95745000Y-111032500D01*
X94025000Y-107312500D02*
X94025000Y-111032500D01*
X137337500Y-71117500D02*
X137337500Y-74837500D01*
X135617500Y-71117500D02*
X135617500Y-74837500D01*
D10*
X138407900Y-119027700D02*
X138407900Y-114557300D01*
D11*
X138962500Y-118592500D02*
X138962500Y-114992500D01*
X138950978Y-118630978D02*
G75*
G02X134512500Y-116792500I-1838478J1838478D01*
G01*
X138950978Y-114954022D02*
G75*
G03X134512500Y-116792500I-1838478J-1838478D01*
G01*
D10*
X96815400Y-119027700D02*
X96815400Y-114557300D01*
D11*
X97370000Y-118592500D02*
X97370000Y-114992500D01*
X97358478Y-118630978D02*
G75*
G02X92920000Y-116792500I-1838478J1838478D01*
G01*
X97358478Y-114954022D02*
G75*
G03X92920000Y-116792500I-1838478J-1838478D01*
G01*
D10*
X138407900Y-82832700D02*
X138407900Y-78362300D01*
D11*
X138962500Y-82397500D02*
X138962500Y-78797500D01*
X138950978Y-82435978D02*
G75*
G02X134512500Y-80597500I-1838478J1838478D01*
G01*
X138950978Y-78759022D02*
G75*
G03X134512500Y-80597500I-1838478J-1838478D01*
G01*
D10*
X133645400Y-119027700D02*
X133645400Y-114557300D01*
D11*
X134200000Y-118592500D02*
X134200000Y-114992500D01*
X134188478Y-118630978D02*
G75*
G02X129750000Y-116792500I-1838478J1838478D01*
G01*
X134188478Y-114954022D02*
G75*
G03X129750000Y-116792500I-1838478J-1838478D01*
G01*
D10*
X92052900Y-119027700D02*
X92052900Y-114557300D01*
D11*
X92607500Y-118592500D02*
X92607500Y-114992500D01*
X92595978Y-118630978D02*
G75*
G02X88157500Y-116792500I-1838478J1838478D01*
G01*
X92595978Y-114954022D02*
G75*
G03X88157500Y-116792500I-1838478J-1838478D01*
G01*
D10*
X133645400Y-82832700D02*
X133645400Y-78362300D01*
D11*
X134200000Y-82397500D02*
X134200000Y-78797500D01*
X134188478Y-82435978D02*
G75*
G02X129750000Y-80597500I-1838478J1838478D01*
G01*
X134188478Y-78759022D02*
G75*
G03X129750000Y-80597500I-1838478J-1838478D01*
G01*
D10*
X143170400Y-119027700D02*
X143170400Y-114557300D01*
D11*
X143725000Y-118592500D02*
X143725000Y-114992500D01*
X143713478Y-118630978D02*
G75*
G02X139275000Y-116792500I-1838478J1838478D01*
G01*
X143713478Y-114954022D02*
G75*
G03X139275000Y-116792500I-1838478J-1838478D01*
G01*
D10*
X101577900Y-119027700D02*
X101577900Y-114557300D01*
D11*
X102132500Y-118592500D02*
X102132500Y-114992500D01*
X102120978Y-118630978D02*
G75*
G02X97682500Y-116792500I-1838478J1838478D01*
G01*
X102120978Y-114954022D02*
G75*
G03X97682500Y-116792500I-1838478J-1838478D01*
G01*
D10*
X143170400Y-82832700D02*
X143170400Y-78362300D01*
D11*
X143725000Y-82397500D02*
X143725000Y-78797500D01*
X143713478Y-82435978D02*
G75*
G02X139275000Y-80597500I-1838478J1838478D01*
G01*
X143713478Y-78759022D02*
G75*
G03X139275000Y-80597500I-1838478J-1838478D01*
G01*
X67136392Y-88132665D02*
G75*
G03X66979484Y-91365000I1078608J-1672335D01*
G01*
X69293608Y-88132665D02*
G75*
G02X69450516Y-91365000I-1078608J-1672335D01*
G01*
X67135163Y-88763870D02*
G75*
G03X67135000Y-90845961I1079837J-1041130D01*
G01*
X69294837Y-88763870D02*
G75*
G02X69295000Y-90845961I-1079837J-1041130D01*
G01*
X66979000Y-91365000D02*
X67135000Y-91365000D01*
X69295000Y-91365000D02*
X69451000Y-91365000D01*
X71581392Y-88132665D02*
G75*
G03X71424484Y-91365000I1078608J-1672335D01*
G01*
X73738608Y-88132665D02*
G75*
G02X73895516Y-91365000I-1078608J-1672335D01*
G01*
X71580163Y-88763870D02*
G75*
G03X71580000Y-90845961I1079837J-1041130D01*
G01*
X73739837Y-88763870D02*
G75*
G02X73740000Y-90845961I-1079837J-1041130D01*
G01*
X71424000Y-91365000D02*
X71580000Y-91365000D01*
X73740000Y-91365000D02*
X73896000Y-91365000D01*
X76026392Y-88132665D02*
G75*
G03X75869484Y-91365000I1078608J-1672335D01*
G01*
X78183608Y-88132665D02*
G75*
G02X78340516Y-91365000I-1078608J-1672335D01*
G01*
X76025163Y-88763870D02*
G75*
G03X76025000Y-90845961I1079837J-1041130D01*
G01*
X78184837Y-88763870D02*
G75*
G02X78185000Y-90845961I-1079837J-1041130D01*
G01*
X75869000Y-91365000D02*
X76025000Y-91365000D01*
X78185000Y-91365000D02*
X78341000Y-91365000D01*
X80471392Y-88132665D02*
G75*
G03X80314484Y-91365000I1078608J-1672335D01*
G01*
X82628608Y-88132665D02*
G75*
G02X82785516Y-91365000I-1078608J-1672335D01*
G01*
X80470163Y-88763870D02*
G75*
G03X80470000Y-90845961I1079837J-1041130D01*
G01*
X82629837Y-88763870D02*
G75*
G02X82630000Y-90845961I-1079837J-1041130D01*
G01*
X80314000Y-91365000D02*
X80470000Y-91365000D01*
X82630000Y-91365000D02*
X82786000Y-91365000D01*
X84916392Y-88132665D02*
G75*
G03X84759484Y-91365000I1078608J-1672335D01*
G01*
X87073608Y-88132665D02*
G75*
G02X87230516Y-91365000I-1078608J-1672335D01*
G01*
X84915163Y-88763870D02*
G75*
G03X84915000Y-90845961I1079837J-1041130D01*
G01*
X87074837Y-88763870D02*
G75*
G02X87075000Y-90845961I-1079837J-1041130D01*
G01*
X84759000Y-91365000D02*
X84915000Y-91365000D01*
X87075000Y-91365000D02*
X87231000Y-91365000D01*
X89361392Y-88132665D02*
G75*
G03X89204484Y-91365000I1078608J-1672335D01*
G01*
X91518608Y-88132665D02*
G75*
G02X91675516Y-91365000I-1078608J-1672335D01*
G01*
X89360163Y-88763870D02*
G75*
G03X89360000Y-90845961I1079837J-1041130D01*
G01*
X91519837Y-88763870D02*
G75*
G02X91520000Y-90845961I-1079837J-1041130D01*
G01*
X89204000Y-91365000D02*
X89360000Y-91365000D01*
X91520000Y-91365000D02*
X91676000Y-91365000D01*
X93806392Y-88132665D02*
G75*
G03X93649484Y-91365000I1078608J-1672335D01*
G01*
X95963608Y-88132665D02*
G75*
G02X96120516Y-91365000I-1078608J-1672335D01*
G01*
X93805163Y-88763870D02*
G75*
G03X93805000Y-90845961I1079837J-1041130D01*
G01*
X95964837Y-88763870D02*
G75*
G02X95965000Y-90845961I-1079837J-1041130D01*
G01*
X93649000Y-91365000D02*
X93805000Y-91365000D01*
X95965000Y-91365000D02*
X96121000Y-91365000D01*
X98251392Y-88132665D02*
G75*
G03X98094484Y-91365000I1078608J-1672335D01*
G01*
X100408608Y-88132665D02*
G75*
G02X100565516Y-91365000I-1078608J-1672335D01*
G01*
X98250163Y-88763870D02*
G75*
G03X98250000Y-90845961I1079837J-1041130D01*
G01*
X100409837Y-88763870D02*
G75*
G02X100410000Y-90845961I-1079837J-1041130D01*
G01*
X98094000Y-91365000D02*
X98250000Y-91365000D01*
X100410000Y-91365000D02*
X100566000Y-91365000D01*
D10*
X75200000Y-63579500D02*
X76597000Y-62182500D01*
X76597000Y-62182500D02*
X73803000Y-62182500D01*
X75200000Y-63579500D02*
X73803000Y-62182500D01*
D11*
X94310000Y-66687500D02*
X94310000Y-64027500D01*
X76470000Y-66687500D02*
X94310000Y-66687500D01*
X76470000Y-64027500D02*
X94310000Y-64027500D01*
X76470000Y-66687500D02*
X76470000Y-64027500D01*
X75200000Y-66687500D02*
X73870000Y-66687500D01*
X73870000Y-66687500D02*
X73870000Y-65357500D01*
D10*
X103330500Y-67580000D02*
X104727500Y-66183000D01*
X104727500Y-66183000D02*
X104727500Y-68977000D01*
X104727500Y-68977000D02*
X103330500Y-67580000D01*
D11*
X100222500Y-71450000D02*
X102882500Y-71450000D01*
X100222500Y-68850000D02*
X100222500Y-71450000D01*
X102882500Y-68850000D02*
X102882500Y-71450000D01*
X100222500Y-68850000D02*
X102882500Y-68850000D01*
X100222500Y-67580000D02*
X100222500Y-66250000D01*
X100222500Y-66250000D02*
X101552500Y-66250000D01*
D10*
X68240400Y-82832700D02*
X68240400Y-78362300D01*
D11*
X68795000Y-82397500D02*
X68795000Y-78797500D01*
X68783478Y-82435978D02*
G75*
G02X64345000Y-80597500I-1838478J1838478D01*
G01*
X68783478Y-78759022D02*
G75*
G03X64345000Y-80597500I-1838478J-1838478D01*
G01*
D10*
X73002900Y-82832700D02*
X73002900Y-78362300D01*
D11*
X73557500Y-82397500D02*
X73557500Y-78797500D01*
X73545978Y-82435978D02*
G75*
G02X69107500Y-80597500I-1838478J1838478D01*
G01*
X73545978Y-78759022D02*
G75*
G03X69107500Y-80597500I-1838478J-1838478D01*
G01*
D10*
X77765400Y-82832700D02*
X77765400Y-78362300D01*
D11*
X78320000Y-82397500D02*
X78320000Y-78797500D01*
X78308478Y-82435978D02*
G75*
G02X73870000Y-80597500I-1838478J1838478D01*
G01*
X78308478Y-78759022D02*
G75*
G03X73870000Y-80597500I-1838478J-1838478D01*
G01*
D10*
X82527900Y-82832700D02*
X82527900Y-78362300D01*
D11*
X83082500Y-82397500D02*
X83082500Y-78797500D01*
X83070978Y-82435978D02*
G75*
G02X78632500Y-80597500I-1838478J1838478D01*
G01*
X83070978Y-78759022D02*
G75*
G03X78632500Y-80597500I-1838478J-1838478D01*
G01*
D10*
X87290400Y-82832700D02*
X87290400Y-78362300D01*
D11*
X87845000Y-82397500D02*
X87845000Y-78797500D01*
X87833478Y-82435978D02*
G75*
G02X83395000Y-80597500I-1838478J1838478D01*
G01*
X87833478Y-78759022D02*
G75*
G03X83395000Y-80597500I-1838478J-1838478D01*
G01*
D10*
X92052900Y-82832700D02*
X92052900Y-78362300D01*
D11*
X92607500Y-82397500D02*
X92607500Y-78797500D01*
X92595978Y-82435978D02*
G75*
G02X88157500Y-80597500I-1838478J1838478D01*
G01*
X92595978Y-78759022D02*
G75*
G03X88157500Y-80597500I-1838478J-1838478D01*
G01*
D10*
X96815400Y-82832700D02*
X96815400Y-78362300D01*
D11*
X97370000Y-82397500D02*
X97370000Y-78797500D01*
X97358478Y-82435978D02*
G75*
G02X92920000Y-80597500I-1838478J1838478D01*
G01*
X97358478Y-78759022D02*
G75*
G03X92920000Y-80597500I-1838478J-1838478D01*
G01*
D10*
X101577900Y-82832700D02*
X101577900Y-78362300D01*
D11*
X102132500Y-82397500D02*
X102132500Y-78797500D01*
X102120978Y-82435978D02*
G75*
G02X97682500Y-80597500I-1838478J1838478D01*
G01*
X102120978Y-78759022D02*
G75*
G03X97682500Y-80597500I-1838478J-1838478D01*
G01*
X68122500Y-71117500D02*
X68122500Y-74837500D01*
X66402500Y-71117500D02*
X66402500Y-74837500D01*
X72885000Y-71117500D02*
X72885000Y-74837500D01*
X71165000Y-71117500D02*
X71165000Y-74837500D01*
X77647500Y-71117500D02*
X77647500Y-74837500D01*
X75927500Y-71117500D02*
X75927500Y-74837500D01*
X82410000Y-71117500D02*
X82410000Y-74837500D01*
X80690000Y-71117500D02*
X80690000Y-74837500D01*
X87172500Y-71117500D02*
X87172500Y-74837500D01*
X85452500Y-71117500D02*
X85452500Y-74837500D01*
X91935000Y-71117500D02*
X91935000Y-74837500D01*
X90215000Y-71117500D02*
X90215000Y-74837500D01*
X95745000Y-71117500D02*
X95745000Y-74837500D01*
X94025000Y-71117500D02*
X94025000Y-74837500D01*
X99237500Y-71117500D02*
X99237500Y-74837500D01*
X97517500Y-71117500D02*
X97517500Y-74837500D01*
X95342500Y-84595000D02*
X94072500Y-84595000D01*
X95342500Y-84595000D02*
X95342500Y-87135000D01*
X95142500Y-84795000D02*
X95142500Y-94815000D01*
X95142500Y-94815000D02*
X72402500Y-94815000D01*
X72402500Y-94815000D02*
X72402500Y-84795000D01*
X72402500Y-84795000D02*
X95142500Y-84795000D01*
X93297500Y-87775000D02*
X92027500Y-87775000D01*
X92027500Y-87775000D02*
X92027500Y-91835000D01*
X92027500Y-91835000D02*
X93297500Y-91835000D01*
X93297500Y-91835000D02*
X93297500Y-87775000D01*
X93297500Y-89805000D02*
X92027500Y-89805000D01*
X90757500Y-87775000D02*
X89487500Y-87775000D01*
X89487500Y-87775000D02*
X89487500Y-91835000D01*
X89487500Y-91835000D02*
X90757500Y-91835000D01*
X90757500Y-91835000D02*
X90757500Y-87775000D01*
X90757500Y-89805000D02*
X89487500Y-89805000D01*
X88217500Y-87775000D02*
X86947500Y-87775000D01*
X86947500Y-87775000D02*
X86947500Y-91835000D01*
X86947500Y-91835000D02*
X88217500Y-91835000D01*
X88217500Y-91835000D02*
X88217500Y-87775000D01*
X88217500Y-89805000D02*
X86947500Y-89805000D01*
X85677500Y-87775000D02*
X84407500Y-87775000D01*
X84407500Y-87775000D02*
X84407500Y-91835000D01*
X84407500Y-91835000D02*
X85677500Y-91835000D01*
X85677500Y-91835000D02*
X85677500Y-87775000D01*
X85677500Y-89805000D02*
X84407500Y-89805000D01*
X83137500Y-87775000D02*
X81867500Y-87775000D01*
X81867500Y-87775000D02*
X81867500Y-91835000D01*
X81867500Y-91835000D02*
X83137500Y-91835000D01*
X83137500Y-91835000D02*
X83137500Y-87775000D01*
X83137500Y-89805000D02*
X81867500Y-89805000D01*
X80597500Y-87775000D02*
X79327500Y-87775000D01*
X79327500Y-87775000D02*
X79327500Y-91835000D01*
X79327500Y-91835000D02*
X80597500Y-91835000D01*
X80597500Y-91835000D02*
X80597500Y-87775000D01*
X80597500Y-89805000D02*
X79327500Y-89805000D01*
X78057500Y-87775000D02*
X76787500Y-87775000D01*
X76787500Y-87775000D02*
X76787500Y-91835000D01*
X76787500Y-91835000D02*
X78057500Y-91835000D01*
X78057500Y-91835000D02*
X78057500Y-87775000D01*
X78057500Y-89805000D02*
X76787500Y-89805000D01*
X75517500Y-87775000D02*
X74247500Y-87775000D01*
X74247500Y-87775000D02*
X74247500Y-91835000D01*
X74247500Y-91835000D02*
X75517500Y-91835000D01*
X75517500Y-91835000D02*
X75517500Y-87775000D01*
X75517500Y-89805000D02*
X74247500Y-89805000D01*
D10*
X117276619Y-117840119D02*
X117229000Y-117935357D01*
X117133762Y-118030595D01*
X116990905Y-118173452D01*
X116943286Y-118268691D01*
X116943286Y-118363929D01*
X117181381Y-118316310D02*
X117133762Y-118411548D01*
X117038524Y-118506786D01*
X116848048Y-118554405D01*
X116514714Y-118554405D01*
X116324238Y-118506786D01*
X116229000Y-118411548D01*
X116181381Y-118316310D01*
X116181381Y-118125833D01*
X116229000Y-118030595D01*
X116324238Y-117935357D01*
X116514714Y-117887738D01*
X116848048Y-117887738D01*
X117038524Y-117935357D01*
X117133762Y-118030595D01*
X117181381Y-118125833D01*
X117181381Y-118316310D01*
X117181381Y-116935357D02*
X117181381Y-117506786D01*
X117181381Y-117221072D02*
X116181381Y-117221072D01*
X116324238Y-117316310D01*
X116419476Y-117411548D01*
X116467095Y-117506786D01*
X116181381Y-116316310D02*
X116181381Y-116221071D01*
X116229000Y-116125833D01*
X116276619Y-116078214D01*
X116371857Y-116030595D01*
X116562333Y-115982976D01*
X116800429Y-115982976D01*
X116990905Y-116030595D01*
X117086143Y-116078214D01*
X117133762Y-116125833D01*
X117181381Y-116221071D01*
X117181381Y-116316310D01*
X117133762Y-116411548D01*
X117086143Y-116459167D01*
X116990905Y-116506786D01*
X116800429Y-116554405D01*
X116562333Y-116554405D01*
X116371857Y-116506786D01*
X116276619Y-116459167D01*
X116229000Y-116411548D01*
X116181381Y-116316310D01*
X116181381Y-115649643D02*
X116181381Y-115030595D01*
X116562333Y-115363929D01*
X116562333Y-115221071D01*
X116609952Y-115125833D01*
X116657571Y-115078214D01*
X116752810Y-115030595D01*
X116990905Y-115030595D01*
X117086143Y-115078214D01*
X117133762Y-115125833D01*
X117181381Y-115221071D01*
X117181381Y-115506786D01*
X117133762Y-115602024D01*
X117086143Y-115649643D01*
X75684119Y-117840119D02*
X75636500Y-117935357D01*
X75541262Y-118030595D01*
X75398405Y-118173452D01*
X75350786Y-118268691D01*
X75350786Y-118363929D01*
X75588881Y-118316310D02*
X75541262Y-118411548D01*
X75446024Y-118506786D01*
X75255548Y-118554405D01*
X74922214Y-118554405D01*
X74731738Y-118506786D01*
X74636500Y-118411548D01*
X74588881Y-118316310D01*
X74588881Y-118125833D01*
X74636500Y-118030595D01*
X74731738Y-117935357D01*
X74922214Y-117887738D01*
X75255548Y-117887738D01*
X75446024Y-117935357D01*
X75541262Y-118030595D01*
X75588881Y-118125833D01*
X75588881Y-118316310D01*
X75588881Y-116935357D02*
X75588881Y-117506786D01*
X75588881Y-117221072D02*
X74588881Y-117221072D01*
X74731738Y-117316310D01*
X74826976Y-117411548D01*
X74874595Y-117506786D01*
X74588881Y-116316310D02*
X74588881Y-116221071D01*
X74636500Y-116125833D01*
X74684119Y-116078214D01*
X74779357Y-116030595D01*
X74969833Y-115982976D01*
X75207929Y-115982976D01*
X75398405Y-116030595D01*
X75493643Y-116078214D01*
X75541262Y-116125833D01*
X75588881Y-116221071D01*
X75588881Y-116316310D01*
X75541262Y-116411548D01*
X75493643Y-116459167D01*
X75398405Y-116506786D01*
X75207929Y-116554405D01*
X74969833Y-116554405D01*
X74779357Y-116506786D01*
X74684119Y-116459167D01*
X74636500Y-116411548D01*
X74588881Y-116316310D01*
X74588881Y-115649643D02*
X74588881Y-115030595D01*
X74969833Y-115363929D01*
X74969833Y-115221071D01*
X75017452Y-115125833D01*
X75065071Y-115078214D01*
X75160310Y-115030595D01*
X75398405Y-115030595D01*
X75493643Y-115078214D01*
X75541262Y-115125833D01*
X75588881Y-115221071D01*
X75588881Y-115506786D01*
X75541262Y-115602024D01*
X75493643Y-115649643D01*
X117276619Y-81645119D02*
X117229000Y-81740357D01*
X117133762Y-81835595D01*
X116990905Y-81978452D01*
X116943286Y-82073691D01*
X116943286Y-82168929D01*
X117181381Y-82121310D02*
X117133762Y-82216548D01*
X117038524Y-82311786D01*
X116848048Y-82359405D01*
X116514714Y-82359405D01*
X116324238Y-82311786D01*
X116229000Y-82216548D01*
X116181381Y-82121310D01*
X116181381Y-81930833D01*
X116229000Y-81835595D01*
X116324238Y-81740357D01*
X116514714Y-81692738D01*
X116848048Y-81692738D01*
X117038524Y-81740357D01*
X117133762Y-81835595D01*
X117181381Y-81930833D01*
X117181381Y-82121310D01*
X117181381Y-80740357D02*
X117181381Y-81311786D01*
X117181381Y-81026072D02*
X116181381Y-81026072D01*
X116324238Y-81121310D01*
X116419476Y-81216548D01*
X116467095Y-81311786D01*
X116181381Y-80121310D02*
X116181381Y-80026071D01*
X116229000Y-79930833D01*
X116276619Y-79883214D01*
X116371857Y-79835595D01*
X116562333Y-79787976D01*
X116800429Y-79787976D01*
X116990905Y-79835595D01*
X117086143Y-79883214D01*
X117133762Y-79930833D01*
X117181381Y-80026071D01*
X117181381Y-80121310D01*
X117133762Y-80216548D01*
X117086143Y-80264167D01*
X116990905Y-80311786D01*
X116800429Y-80359405D01*
X116562333Y-80359405D01*
X116371857Y-80311786D01*
X116276619Y-80264167D01*
X116229000Y-80216548D01*
X116181381Y-80121310D01*
X116181381Y-79454643D02*
X116181381Y-78835595D01*
X116562333Y-79168929D01*
X116562333Y-79026071D01*
X116609952Y-78930833D01*
X116657571Y-78883214D01*
X116752810Y-78835595D01*
X116990905Y-78835595D01*
X117086143Y-78883214D01*
X117133762Y-78930833D01*
X117181381Y-79026071D01*
X117181381Y-79311786D01*
X117133762Y-79407024D01*
X117086143Y-79454643D01*
X112514119Y-117840119D02*
X112466500Y-117935357D01*
X112371262Y-118030595D01*
X112228405Y-118173452D01*
X112180786Y-118268691D01*
X112180786Y-118363929D01*
X112418881Y-118316310D02*
X112371262Y-118411548D01*
X112276024Y-118506786D01*
X112085548Y-118554405D01*
X111752214Y-118554405D01*
X111561738Y-118506786D01*
X111466500Y-118411548D01*
X111418881Y-118316310D01*
X111418881Y-118125833D01*
X111466500Y-118030595D01*
X111561738Y-117935357D01*
X111752214Y-117887738D01*
X112085548Y-117887738D01*
X112276024Y-117935357D01*
X112371262Y-118030595D01*
X112418881Y-118125833D01*
X112418881Y-118316310D01*
X112418881Y-116935357D02*
X112418881Y-117506786D01*
X112418881Y-117221072D02*
X111418881Y-117221072D01*
X111561738Y-117316310D01*
X111656976Y-117411548D01*
X111704595Y-117506786D01*
X111418881Y-116316310D02*
X111418881Y-116221071D01*
X111466500Y-116125833D01*
X111514119Y-116078214D01*
X111609357Y-116030595D01*
X111799833Y-115982976D01*
X112037929Y-115982976D01*
X112228405Y-116030595D01*
X112323643Y-116078214D01*
X112371262Y-116125833D01*
X112418881Y-116221071D01*
X112418881Y-116316310D01*
X112371262Y-116411548D01*
X112323643Y-116459167D01*
X112228405Y-116506786D01*
X112037929Y-116554405D01*
X111799833Y-116554405D01*
X111609357Y-116506786D01*
X111514119Y-116459167D01*
X111466500Y-116411548D01*
X111418881Y-116316310D01*
X111514119Y-115602024D02*
X111466500Y-115554405D01*
X111418881Y-115459167D01*
X111418881Y-115221071D01*
X111466500Y-115125833D01*
X111514119Y-115078214D01*
X111609357Y-115030595D01*
X111704595Y-115030595D01*
X111847452Y-115078214D01*
X112418881Y-115649643D01*
X112418881Y-115030595D01*
X70921619Y-117840119D02*
X70874000Y-117935357D01*
X70778762Y-118030595D01*
X70635905Y-118173452D01*
X70588286Y-118268691D01*
X70588286Y-118363929D01*
X70826381Y-118316310D02*
X70778762Y-118411548D01*
X70683524Y-118506786D01*
X70493048Y-118554405D01*
X70159714Y-118554405D01*
X69969238Y-118506786D01*
X69874000Y-118411548D01*
X69826381Y-118316310D01*
X69826381Y-118125833D01*
X69874000Y-118030595D01*
X69969238Y-117935357D01*
X70159714Y-117887738D01*
X70493048Y-117887738D01*
X70683524Y-117935357D01*
X70778762Y-118030595D01*
X70826381Y-118125833D01*
X70826381Y-118316310D01*
X70826381Y-116935357D02*
X70826381Y-117506786D01*
X70826381Y-117221072D02*
X69826381Y-117221072D01*
X69969238Y-117316310D01*
X70064476Y-117411548D01*
X70112095Y-117506786D01*
X69826381Y-116316310D02*
X69826381Y-116221071D01*
X69874000Y-116125833D01*
X69921619Y-116078214D01*
X70016857Y-116030595D01*
X70207333Y-115982976D01*
X70445429Y-115982976D01*
X70635905Y-116030595D01*
X70731143Y-116078214D01*
X70778762Y-116125833D01*
X70826381Y-116221071D01*
X70826381Y-116316310D01*
X70778762Y-116411548D01*
X70731143Y-116459167D01*
X70635905Y-116506786D01*
X70445429Y-116554405D01*
X70207333Y-116554405D01*
X70016857Y-116506786D01*
X69921619Y-116459167D01*
X69874000Y-116411548D01*
X69826381Y-116316310D01*
X69921619Y-115602024D02*
X69874000Y-115554405D01*
X69826381Y-115459167D01*
X69826381Y-115221071D01*
X69874000Y-115125833D01*
X69921619Y-115078214D01*
X70016857Y-115030595D01*
X70112095Y-115030595D01*
X70254952Y-115078214D01*
X70826381Y-115649643D01*
X70826381Y-115030595D01*
X112514119Y-81645119D02*
X112466500Y-81740357D01*
X112371262Y-81835595D01*
X112228405Y-81978452D01*
X112180786Y-82073691D01*
X112180786Y-82168929D01*
X112418881Y-82121310D02*
X112371262Y-82216548D01*
X112276024Y-82311786D01*
X112085548Y-82359405D01*
X111752214Y-82359405D01*
X111561738Y-82311786D01*
X111466500Y-82216548D01*
X111418881Y-82121310D01*
X111418881Y-81930833D01*
X111466500Y-81835595D01*
X111561738Y-81740357D01*
X111752214Y-81692738D01*
X112085548Y-81692738D01*
X112276024Y-81740357D01*
X112371262Y-81835595D01*
X112418881Y-81930833D01*
X112418881Y-82121310D01*
X112418881Y-80740357D02*
X112418881Y-81311786D01*
X112418881Y-81026072D02*
X111418881Y-81026072D01*
X111561738Y-81121310D01*
X111656976Y-81216548D01*
X111704595Y-81311786D01*
X111418881Y-80121310D02*
X111418881Y-80026071D01*
X111466500Y-79930833D01*
X111514119Y-79883214D01*
X111609357Y-79835595D01*
X111799833Y-79787976D01*
X112037929Y-79787976D01*
X112228405Y-79835595D01*
X112323643Y-79883214D01*
X112371262Y-79930833D01*
X112418881Y-80026071D01*
X112418881Y-80121310D01*
X112371262Y-80216548D01*
X112323643Y-80264167D01*
X112228405Y-80311786D01*
X112037929Y-80359405D01*
X111799833Y-80359405D01*
X111609357Y-80311786D01*
X111514119Y-80264167D01*
X111466500Y-80216548D01*
X111418881Y-80121310D01*
X111514119Y-79407024D02*
X111466500Y-79359405D01*
X111418881Y-79264167D01*
X111418881Y-79026071D01*
X111466500Y-78930833D01*
X111514119Y-78883214D01*
X111609357Y-78835595D01*
X111704595Y-78835595D01*
X111847452Y-78883214D01*
X112418881Y-79454643D01*
X112418881Y-78835595D01*
X107299881Y-127690476D02*
X106299881Y-127690476D01*
X106299881Y-127452381D01*
X106347500Y-127309523D01*
X106442738Y-127214285D01*
X106537976Y-127166666D01*
X106728452Y-127119047D01*
X106871310Y-127119047D01*
X107061786Y-127166666D01*
X107157024Y-127214285D01*
X107252262Y-127309523D01*
X107299881Y-127452381D01*
X107299881Y-127690476D01*
X107299881Y-126166666D02*
X107299881Y-126738095D01*
X107299881Y-126452381D02*
X106299881Y-126452381D01*
X106442738Y-126547619D01*
X106537976Y-126642857D01*
X106585595Y-126738095D01*
X106299881Y-125547619D02*
X106299881Y-125452380D01*
X106347500Y-125357142D01*
X106395119Y-125309523D01*
X106490357Y-125261904D01*
X106680833Y-125214285D01*
X106918929Y-125214285D01*
X107109405Y-125261904D01*
X107204643Y-125309523D01*
X107252262Y-125357142D01*
X107299881Y-125452380D01*
X107299881Y-125547619D01*
X107252262Y-125642857D01*
X107204643Y-125690476D01*
X107109405Y-125738095D01*
X106918929Y-125785714D01*
X106680833Y-125785714D01*
X106490357Y-125738095D01*
X106395119Y-125690476D01*
X106347500Y-125642857D01*
X106299881Y-125547619D01*
X107299881Y-124261904D02*
X107299881Y-124833333D01*
X107299881Y-124547619D02*
X106299881Y-124547619D01*
X106442738Y-124642857D01*
X106537976Y-124738095D01*
X106585595Y-124833333D01*
X65707381Y-127690476D02*
X64707381Y-127690476D01*
X64707381Y-127452381D01*
X64755000Y-127309523D01*
X64850238Y-127214285D01*
X64945476Y-127166666D01*
X65135952Y-127119047D01*
X65278810Y-127119047D01*
X65469286Y-127166666D01*
X65564524Y-127214285D01*
X65659762Y-127309523D01*
X65707381Y-127452381D01*
X65707381Y-127690476D01*
X65707381Y-126166666D02*
X65707381Y-126738095D01*
X65707381Y-126452381D02*
X64707381Y-126452381D01*
X64850238Y-126547619D01*
X64945476Y-126642857D01*
X64993095Y-126738095D01*
X64707381Y-125547619D02*
X64707381Y-125452380D01*
X64755000Y-125357142D01*
X64802619Y-125309523D01*
X64897857Y-125261904D01*
X65088333Y-125214285D01*
X65326429Y-125214285D01*
X65516905Y-125261904D01*
X65612143Y-125309523D01*
X65659762Y-125357142D01*
X65707381Y-125452380D01*
X65707381Y-125547619D01*
X65659762Y-125642857D01*
X65612143Y-125690476D01*
X65516905Y-125738095D01*
X65326429Y-125785714D01*
X65088333Y-125785714D01*
X64897857Y-125738095D01*
X64802619Y-125690476D01*
X64755000Y-125642857D01*
X64707381Y-125547619D01*
X65707381Y-124261904D02*
X65707381Y-124833333D01*
X65707381Y-124547619D02*
X64707381Y-124547619D01*
X64850238Y-124642857D01*
X64945476Y-124738095D01*
X64993095Y-124833333D01*
X107299881Y-91495476D02*
X106299881Y-91495476D01*
X106299881Y-91257381D01*
X106347500Y-91114523D01*
X106442738Y-91019285D01*
X106537976Y-90971666D01*
X106728452Y-90924047D01*
X106871310Y-90924047D01*
X107061786Y-90971666D01*
X107157024Y-91019285D01*
X107252262Y-91114523D01*
X107299881Y-91257381D01*
X107299881Y-91495476D01*
X107299881Y-89971666D02*
X107299881Y-90543095D01*
X107299881Y-90257381D02*
X106299881Y-90257381D01*
X106442738Y-90352619D01*
X106537976Y-90447857D01*
X106585595Y-90543095D01*
X106299881Y-89352619D02*
X106299881Y-89257380D01*
X106347500Y-89162142D01*
X106395119Y-89114523D01*
X106490357Y-89066904D01*
X106680833Y-89019285D01*
X106918929Y-89019285D01*
X107109405Y-89066904D01*
X107204643Y-89114523D01*
X107252262Y-89162142D01*
X107299881Y-89257380D01*
X107299881Y-89352619D01*
X107252262Y-89447857D01*
X107204643Y-89495476D01*
X107109405Y-89543095D01*
X106918929Y-89590714D01*
X106680833Y-89590714D01*
X106490357Y-89543095D01*
X106395119Y-89495476D01*
X106347500Y-89447857D01*
X106299881Y-89352619D01*
X107299881Y-88066904D02*
X107299881Y-88638333D01*
X107299881Y-88352619D02*
X106299881Y-88352619D01*
X106442738Y-88447857D01*
X106537976Y-88543095D01*
X106585595Y-88638333D01*
X107751619Y-117840119D02*
X107704000Y-117935357D01*
X107608762Y-118030595D01*
X107465905Y-118173452D01*
X107418286Y-118268691D01*
X107418286Y-118363929D01*
X107656381Y-118316310D02*
X107608762Y-118411548D01*
X107513524Y-118506786D01*
X107323048Y-118554405D01*
X106989714Y-118554405D01*
X106799238Y-118506786D01*
X106704000Y-118411548D01*
X106656381Y-118316310D01*
X106656381Y-118125833D01*
X106704000Y-118030595D01*
X106799238Y-117935357D01*
X106989714Y-117887738D01*
X107323048Y-117887738D01*
X107513524Y-117935357D01*
X107608762Y-118030595D01*
X107656381Y-118125833D01*
X107656381Y-118316310D01*
X107656381Y-116935357D02*
X107656381Y-117506786D01*
X107656381Y-117221072D02*
X106656381Y-117221072D01*
X106799238Y-117316310D01*
X106894476Y-117411548D01*
X106942095Y-117506786D01*
X106656381Y-116316310D02*
X106656381Y-116221071D01*
X106704000Y-116125833D01*
X106751619Y-116078214D01*
X106846857Y-116030595D01*
X107037333Y-115982976D01*
X107275429Y-115982976D01*
X107465905Y-116030595D01*
X107561143Y-116078214D01*
X107608762Y-116125833D01*
X107656381Y-116221071D01*
X107656381Y-116316310D01*
X107608762Y-116411548D01*
X107561143Y-116459167D01*
X107465905Y-116506786D01*
X107275429Y-116554405D01*
X107037333Y-116554405D01*
X106846857Y-116506786D01*
X106751619Y-116459167D01*
X106704000Y-116411548D01*
X106656381Y-116316310D01*
X107656381Y-115030595D02*
X107656381Y-115602024D01*
X107656381Y-115316310D02*
X106656381Y-115316310D01*
X106799238Y-115411548D01*
X106894476Y-115506786D01*
X106942095Y-115602024D01*
X66159119Y-117840119D02*
X66111500Y-117935357D01*
X66016262Y-118030595D01*
X65873405Y-118173452D01*
X65825786Y-118268691D01*
X65825786Y-118363929D01*
X66063881Y-118316310D02*
X66016262Y-118411548D01*
X65921024Y-118506786D01*
X65730548Y-118554405D01*
X65397214Y-118554405D01*
X65206738Y-118506786D01*
X65111500Y-118411548D01*
X65063881Y-118316310D01*
X65063881Y-118125833D01*
X65111500Y-118030595D01*
X65206738Y-117935357D01*
X65397214Y-117887738D01*
X65730548Y-117887738D01*
X65921024Y-117935357D01*
X66016262Y-118030595D01*
X66063881Y-118125833D01*
X66063881Y-118316310D01*
X66063881Y-116935357D02*
X66063881Y-117506786D01*
X66063881Y-117221072D02*
X65063881Y-117221072D01*
X65206738Y-117316310D01*
X65301976Y-117411548D01*
X65349595Y-117506786D01*
X65063881Y-116316310D02*
X65063881Y-116221071D01*
X65111500Y-116125833D01*
X65159119Y-116078214D01*
X65254357Y-116030595D01*
X65444833Y-115982976D01*
X65682929Y-115982976D01*
X65873405Y-116030595D01*
X65968643Y-116078214D01*
X66016262Y-116125833D01*
X66063881Y-116221071D01*
X66063881Y-116316310D01*
X66016262Y-116411548D01*
X65968643Y-116459167D01*
X65873405Y-116506786D01*
X65682929Y-116554405D01*
X65444833Y-116554405D01*
X65254357Y-116506786D01*
X65159119Y-116459167D01*
X65111500Y-116411548D01*
X65063881Y-116316310D01*
X66063881Y-115030595D02*
X66063881Y-115602024D01*
X66063881Y-115316310D02*
X65063881Y-115316310D01*
X65206738Y-115411548D01*
X65301976Y-115506786D01*
X65349595Y-115602024D01*
X107751619Y-81645119D02*
X107704000Y-81740357D01*
X107608762Y-81835595D01*
X107465905Y-81978452D01*
X107418286Y-82073691D01*
X107418286Y-82168929D01*
X107656381Y-82121310D02*
X107608762Y-82216548D01*
X107513524Y-82311786D01*
X107323048Y-82359405D01*
X106989714Y-82359405D01*
X106799238Y-82311786D01*
X106704000Y-82216548D01*
X106656381Y-82121310D01*
X106656381Y-81930833D01*
X106704000Y-81835595D01*
X106799238Y-81740357D01*
X106989714Y-81692738D01*
X107323048Y-81692738D01*
X107513524Y-81740357D01*
X107608762Y-81835595D01*
X107656381Y-81930833D01*
X107656381Y-82121310D01*
X107656381Y-80740357D02*
X107656381Y-81311786D01*
X107656381Y-81026072D02*
X106656381Y-81026072D01*
X106799238Y-81121310D01*
X106894476Y-81216548D01*
X106942095Y-81311786D01*
X106656381Y-80121310D02*
X106656381Y-80026071D01*
X106704000Y-79930833D01*
X106751619Y-79883214D01*
X106846857Y-79835595D01*
X107037333Y-79787976D01*
X107275429Y-79787976D01*
X107465905Y-79835595D01*
X107561143Y-79883214D01*
X107608762Y-79930833D01*
X107656381Y-80026071D01*
X107656381Y-80121310D01*
X107608762Y-80216548D01*
X107561143Y-80264167D01*
X107465905Y-80311786D01*
X107275429Y-80359405D01*
X107037333Y-80359405D01*
X106846857Y-80311786D01*
X106751619Y-80264167D01*
X106704000Y-80216548D01*
X106656381Y-80121310D01*
X107656381Y-78835595D02*
X107656381Y-79407024D01*
X107656381Y-79121310D02*
X106656381Y-79121310D01*
X106799238Y-79216548D01*
X106894476Y-79311786D01*
X106942095Y-79407024D01*
X122039119Y-117840119D02*
X121991500Y-117935357D01*
X121896262Y-118030595D01*
X121753405Y-118173452D01*
X121705786Y-118268691D01*
X121705786Y-118363929D01*
X121943881Y-118316310D02*
X121896262Y-118411548D01*
X121801024Y-118506786D01*
X121610548Y-118554405D01*
X121277214Y-118554405D01*
X121086738Y-118506786D01*
X120991500Y-118411548D01*
X120943881Y-118316310D01*
X120943881Y-118125833D01*
X120991500Y-118030595D01*
X121086738Y-117935357D01*
X121277214Y-117887738D01*
X121610548Y-117887738D01*
X121801024Y-117935357D01*
X121896262Y-118030595D01*
X121943881Y-118125833D01*
X121943881Y-118316310D01*
X121943881Y-116935357D02*
X121943881Y-117506786D01*
X121943881Y-117221072D02*
X120943881Y-117221072D01*
X121086738Y-117316310D01*
X121181976Y-117411548D01*
X121229595Y-117506786D01*
X120943881Y-116316310D02*
X120943881Y-116221071D01*
X120991500Y-116125833D01*
X121039119Y-116078214D01*
X121134357Y-116030595D01*
X121324833Y-115982976D01*
X121562929Y-115982976D01*
X121753405Y-116030595D01*
X121848643Y-116078214D01*
X121896262Y-116125833D01*
X121943881Y-116221071D01*
X121943881Y-116316310D01*
X121896262Y-116411548D01*
X121848643Y-116459167D01*
X121753405Y-116506786D01*
X121562929Y-116554405D01*
X121324833Y-116554405D01*
X121134357Y-116506786D01*
X121039119Y-116459167D01*
X120991500Y-116411548D01*
X120943881Y-116316310D01*
X121277214Y-115125833D02*
X121943881Y-115125833D01*
X120896262Y-115363929D02*
X121610548Y-115602024D01*
X121610548Y-114982976D01*
X80446619Y-117840119D02*
X80399000Y-117935357D01*
X80303762Y-118030595D01*
X80160905Y-118173452D01*
X80113286Y-118268691D01*
X80113286Y-118363929D01*
X80351381Y-118316310D02*
X80303762Y-118411548D01*
X80208524Y-118506786D01*
X80018048Y-118554405D01*
X79684714Y-118554405D01*
X79494238Y-118506786D01*
X79399000Y-118411548D01*
X79351381Y-118316310D01*
X79351381Y-118125833D01*
X79399000Y-118030595D01*
X79494238Y-117935357D01*
X79684714Y-117887738D01*
X80018048Y-117887738D01*
X80208524Y-117935357D01*
X80303762Y-118030595D01*
X80351381Y-118125833D01*
X80351381Y-118316310D01*
X80351381Y-116935357D02*
X80351381Y-117506786D01*
X80351381Y-117221072D02*
X79351381Y-117221072D01*
X79494238Y-117316310D01*
X79589476Y-117411548D01*
X79637095Y-117506786D01*
X79351381Y-116316310D02*
X79351381Y-116221071D01*
X79399000Y-116125833D01*
X79446619Y-116078214D01*
X79541857Y-116030595D01*
X79732333Y-115982976D01*
X79970429Y-115982976D01*
X80160905Y-116030595D01*
X80256143Y-116078214D01*
X80303762Y-116125833D01*
X80351381Y-116221071D01*
X80351381Y-116316310D01*
X80303762Y-116411548D01*
X80256143Y-116459167D01*
X80160905Y-116506786D01*
X79970429Y-116554405D01*
X79732333Y-116554405D01*
X79541857Y-116506786D01*
X79446619Y-116459167D01*
X79399000Y-116411548D01*
X79351381Y-116316310D01*
X79684714Y-115125833D02*
X80351381Y-115125833D01*
X79303762Y-115363929D02*
X80018048Y-115602024D01*
X80018048Y-114982976D01*
X122039119Y-81645119D02*
X121991500Y-81740357D01*
X121896262Y-81835595D01*
X121753405Y-81978452D01*
X121705786Y-82073691D01*
X121705786Y-82168929D01*
X121943881Y-82121310D02*
X121896262Y-82216548D01*
X121801024Y-82311786D01*
X121610548Y-82359405D01*
X121277214Y-82359405D01*
X121086738Y-82311786D01*
X120991500Y-82216548D01*
X120943881Y-82121310D01*
X120943881Y-81930833D01*
X120991500Y-81835595D01*
X121086738Y-81740357D01*
X121277214Y-81692738D01*
X121610548Y-81692738D01*
X121801024Y-81740357D01*
X121896262Y-81835595D01*
X121943881Y-81930833D01*
X121943881Y-82121310D01*
X121943881Y-80740357D02*
X121943881Y-81311786D01*
X121943881Y-81026072D02*
X120943881Y-81026072D01*
X121086738Y-81121310D01*
X121181976Y-81216548D01*
X121229595Y-81311786D01*
X120943881Y-80121310D02*
X120943881Y-80026071D01*
X120991500Y-79930833D01*
X121039119Y-79883214D01*
X121134357Y-79835595D01*
X121324833Y-79787976D01*
X121562929Y-79787976D01*
X121753405Y-79835595D01*
X121848643Y-79883214D01*
X121896262Y-79930833D01*
X121943881Y-80026071D01*
X121943881Y-80121310D01*
X121896262Y-80216548D01*
X121848643Y-80264167D01*
X121753405Y-80311786D01*
X121562929Y-80359405D01*
X121324833Y-80359405D01*
X121134357Y-80311786D01*
X121039119Y-80264167D01*
X120991500Y-80216548D01*
X120943881Y-80121310D01*
X121277214Y-78930833D02*
X121943881Y-78930833D01*
X120896262Y-79168929D02*
X121610548Y-79407024D01*
X121610548Y-78787976D01*
X116189881Y-127690476D02*
X115189881Y-127690476D01*
X115189881Y-127452381D01*
X115237500Y-127309523D01*
X115332738Y-127214285D01*
X115427976Y-127166666D01*
X115618452Y-127119047D01*
X115761310Y-127119047D01*
X115951786Y-127166666D01*
X116047024Y-127214285D01*
X116142262Y-127309523D01*
X116189881Y-127452381D01*
X116189881Y-127690476D01*
X116189881Y-126166666D02*
X116189881Y-126738095D01*
X116189881Y-126452381D02*
X115189881Y-126452381D01*
X115332738Y-126547619D01*
X115427976Y-126642857D01*
X115475595Y-126738095D01*
X115189881Y-125547619D02*
X115189881Y-125452380D01*
X115237500Y-125357142D01*
X115285119Y-125309523D01*
X115380357Y-125261904D01*
X115570833Y-125214285D01*
X115808929Y-125214285D01*
X115999405Y-125261904D01*
X116094643Y-125309523D01*
X116142262Y-125357142D01*
X116189881Y-125452380D01*
X116189881Y-125547619D01*
X116142262Y-125642857D01*
X116094643Y-125690476D01*
X115999405Y-125738095D01*
X115808929Y-125785714D01*
X115570833Y-125785714D01*
X115380357Y-125738095D01*
X115285119Y-125690476D01*
X115237500Y-125642857D01*
X115189881Y-125547619D01*
X115189881Y-124880952D02*
X115189881Y-124261904D01*
X115570833Y-124595238D01*
X115570833Y-124452380D01*
X115618452Y-124357142D01*
X115666071Y-124309523D01*
X115761310Y-124261904D01*
X115999405Y-124261904D01*
X116094643Y-124309523D01*
X116142262Y-124357142D01*
X116189881Y-124452380D01*
X116189881Y-124738095D01*
X116142262Y-124833333D01*
X116094643Y-124880952D01*
X74597381Y-127690476D02*
X73597381Y-127690476D01*
X73597381Y-127452381D01*
X73645000Y-127309523D01*
X73740238Y-127214285D01*
X73835476Y-127166666D01*
X74025952Y-127119047D01*
X74168810Y-127119047D01*
X74359286Y-127166666D01*
X74454524Y-127214285D01*
X74549762Y-127309523D01*
X74597381Y-127452381D01*
X74597381Y-127690476D01*
X74597381Y-126166666D02*
X74597381Y-126738095D01*
X74597381Y-126452381D02*
X73597381Y-126452381D01*
X73740238Y-126547619D01*
X73835476Y-126642857D01*
X73883095Y-126738095D01*
X73597381Y-125547619D02*
X73597381Y-125452380D01*
X73645000Y-125357142D01*
X73692619Y-125309523D01*
X73787857Y-125261904D01*
X73978333Y-125214285D01*
X74216429Y-125214285D01*
X74406905Y-125261904D01*
X74502143Y-125309523D01*
X74549762Y-125357142D01*
X74597381Y-125452380D01*
X74597381Y-125547619D01*
X74549762Y-125642857D01*
X74502143Y-125690476D01*
X74406905Y-125738095D01*
X74216429Y-125785714D01*
X73978333Y-125785714D01*
X73787857Y-125738095D01*
X73692619Y-125690476D01*
X73645000Y-125642857D01*
X73597381Y-125547619D01*
X73597381Y-124880952D02*
X73597381Y-124261904D01*
X73978333Y-124595238D01*
X73978333Y-124452380D01*
X74025952Y-124357142D01*
X74073571Y-124309523D01*
X74168810Y-124261904D01*
X74406905Y-124261904D01*
X74502143Y-124309523D01*
X74549762Y-124357142D01*
X74597381Y-124452380D01*
X74597381Y-124738095D01*
X74549762Y-124833333D01*
X74502143Y-124880952D01*
X116189881Y-91495476D02*
X115189881Y-91495476D01*
X115189881Y-91257381D01*
X115237500Y-91114523D01*
X115332738Y-91019285D01*
X115427976Y-90971666D01*
X115618452Y-90924047D01*
X115761310Y-90924047D01*
X115951786Y-90971666D01*
X116047024Y-91019285D01*
X116142262Y-91114523D01*
X116189881Y-91257381D01*
X116189881Y-91495476D01*
X116189881Y-89971666D02*
X116189881Y-90543095D01*
X116189881Y-90257381D02*
X115189881Y-90257381D01*
X115332738Y-90352619D01*
X115427976Y-90447857D01*
X115475595Y-90543095D01*
X115189881Y-89352619D02*
X115189881Y-89257380D01*
X115237500Y-89162142D01*
X115285119Y-89114523D01*
X115380357Y-89066904D01*
X115570833Y-89019285D01*
X115808929Y-89019285D01*
X115999405Y-89066904D01*
X116094643Y-89114523D01*
X116142262Y-89162142D01*
X116189881Y-89257380D01*
X116189881Y-89352619D01*
X116142262Y-89447857D01*
X116094643Y-89495476D01*
X115999405Y-89543095D01*
X115808929Y-89590714D01*
X115570833Y-89590714D01*
X115380357Y-89543095D01*
X115285119Y-89495476D01*
X115237500Y-89447857D01*
X115189881Y-89352619D01*
X115189881Y-88685952D02*
X115189881Y-88066904D01*
X115570833Y-88400238D01*
X115570833Y-88257380D01*
X115618452Y-88162142D01*
X115666071Y-88114523D01*
X115761310Y-88066904D01*
X115999405Y-88066904D01*
X116094643Y-88114523D01*
X116142262Y-88162142D01*
X116189881Y-88257380D01*
X116189881Y-88543095D01*
X116142262Y-88638333D01*
X116094643Y-88685952D01*
X120634881Y-127690476D02*
X119634881Y-127690476D01*
X119634881Y-127452381D01*
X119682500Y-127309523D01*
X119777738Y-127214285D01*
X119872976Y-127166666D01*
X120063452Y-127119047D01*
X120206310Y-127119047D01*
X120396786Y-127166666D01*
X120492024Y-127214285D01*
X120587262Y-127309523D01*
X120634881Y-127452381D01*
X120634881Y-127690476D01*
X120634881Y-126166666D02*
X120634881Y-126738095D01*
X120634881Y-126452381D02*
X119634881Y-126452381D01*
X119777738Y-126547619D01*
X119872976Y-126642857D01*
X119920595Y-126738095D01*
X119634881Y-125547619D02*
X119634881Y-125452380D01*
X119682500Y-125357142D01*
X119730119Y-125309523D01*
X119825357Y-125261904D01*
X120015833Y-125214285D01*
X120253929Y-125214285D01*
X120444405Y-125261904D01*
X120539643Y-125309523D01*
X120587262Y-125357142D01*
X120634881Y-125452380D01*
X120634881Y-125547619D01*
X120587262Y-125642857D01*
X120539643Y-125690476D01*
X120444405Y-125738095D01*
X120253929Y-125785714D01*
X120015833Y-125785714D01*
X119825357Y-125738095D01*
X119730119Y-125690476D01*
X119682500Y-125642857D01*
X119634881Y-125547619D01*
X119968214Y-124357142D02*
X120634881Y-124357142D01*
X119587262Y-124595238D02*
X120301548Y-124833333D01*
X120301548Y-124214285D01*
X79042381Y-127690476D02*
X78042381Y-127690476D01*
X78042381Y-127452381D01*
X78090000Y-127309523D01*
X78185238Y-127214285D01*
X78280476Y-127166666D01*
X78470952Y-127119047D01*
X78613810Y-127119047D01*
X78804286Y-127166666D01*
X78899524Y-127214285D01*
X78994762Y-127309523D01*
X79042381Y-127452381D01*
X79042381Y-127690476D01*
X79042381Y-126166666D02*
X79042381Y-126738095D01*
X79042381Y-126452381D02*
X78042381Y-126452381D01*
X78185238Y-126547619D01*
X78280476Y-126642857D01*
X78328095Y-126738095D01*
X78042381Y-125547619D02*
X78042381Y-125452380D01*
X78090000Y-125357142D01*
X78137619Y-125309523D01*
X78232857Y-125261904D01*
X78423333Y-125214285D01*
X78661429Y-125214285D01*
X78851905Y-125261904D01*
X78947143Y-125309523D01*
X78994762Y-125357142D01*
X79042381Y-125452380D01*
X79042381Y-125547619D01*
X78994762Y-125642857D01*
X78947143Y-125690476D01*
X78851905Y-125738095D01*
X78661429Y-125785714D01*
X78423333Y-125785714D01*
X78232857Y-125738095D01*
X78137619Y-125690476D01*
X78090000Y-125642857D01*
X78042381Y-125547619D01*
X78375714Y-124357142D02*
X79042381Y-124357142D01*
X77994762Y-124595238D02*
X78709048Y-124833333D01*
X78709048Y-124214285D01*
X120634881Y-91495476D02*
X119634881Y-91495476D01*
X119634881Y-91257381D01*
X119682500Y-91114523D01*
X119777738Y-91019285D01*
X119872976Y-90971666D01*
X120063452Y-90924047D01*
X120206310Y-90924047D01*
X120396786Y-90971666D01*
X120492024Y-91019285D01*
X120587262Y-91114523D01*
X120634881Y-91257381D01*
X120634881Y-91495476D01*
X120634881Y-89971666D02*
X120634881Y-90543095D01*
X120634881Y-90257381D02*
X119634881Y-90257381D01*
X119777738Y-90352619D01*
X119872976Y-90447857D01*
X119920595Y-90543095D01*
X119634881Y-89352619D02*
X119634881Y-89257380D01*
X119682500Y-89162142D01*
X119730119Y-89114523D01*
X119825357Y-89066904D01*
X120015833Y-89019285D01*
X120253929Y-89019285D01*
X120444405Y-89066904D01*
X120539643Y-89114523D01*
X120587262Y-89162142D01*
X120634881Y-89257380D01*
X120634881Y-89352619D01*
X120587262Y-89447857D01*
X120539643Y-89495476D01*
X120444405Y-89543095D01*
X120253929Y-89590714D01*
X120015833Y-89590714D01*
X119825357Y-89543095D01*
X119730119Y-89495476D01*
X119682500Y-89447857D01*
X119634881Y-89352619D01*
X119968214Y-88162142D02*
X120634881Y-88162142D01*
X119587262Y-88400238D02*
X120301548Y-88638333D01*
X120301548Y-88019285D01*
X111744881Y-127690476D02*
X110744881Y-127690476D01*
X110744881Y-127452381D01*
X110792500Y-127309523D01*
X110887738Y-127214285D01*
X110982976Y-127166666D01*
X111173452Y-127119047D01*
X111316310Y-127119047D01*
X111506786Y-127166666D01*
X111602024Y-127214285D01*
X111697262Y-127309523D01*
X111744881Y-127452381D01*
X111744881Y-127690476D01*
X111744881Y-126166666D02*
X111744881Y-126738095D01*
X111744881Y-126452381D02*
X110744881Y-126452381D01*
X110887738Y-126547619D01*
X110982976Y-126642857D01*
X111030595Y-126738095D01*
X110744881Y-125547619D02*
X110744881Y-125452380D01*
X110792500Y-125357142D01*
X110840119Y-125309523D01*
X110935357Y-125261904D01*
X111125833Y-125214285D01*
X111363929Y-125214285D01*
X111554405Y-125261904D01*
X111649643Y-125309523D01*
X111697262Y-125357142D01*
X111744881Y-125452380D01*
X111744881Y-125547619D01*
X111697262Y-125642857D01*
X111649643Y-125690476D01*
X111554405Y-125738095D01*
X111363929Y-125785714D01*
X111125833Y-125785714D01*
X110935357Y-125738095D01*
X110840119Y-125690476D01*
X110792500Y-125642857D01*
X110744881Y-125547619D01*
X110840119Y-124833333D02*
X110792500Y-124785714D01*
X110744881Y-124690476D01*
X110744881Y-124452380D01*
X110792500Y-124357142D01*
X110840119Y-124309523D01*
X110935357Y-124261904D01*
X111030595Y-124261904D01*
X111173452Y-124309523D01*
X111744881Y-124880952D01*
X111744881Y-124261904D01*
X70152381Y-127690476D02*
X69152381Y-127690476D01*
X69152381Y-127452381D01*
X69200000Y-127309523D01*
X69295238Y-127214285D01*
X69390476Y-127166666D01*
X69580952Y-127119047D01*
X69723810Y-127119047D01*
X69914286Y-127166666D01*
X70009524Y-127214285D01*
X70104762Y-127309523D01*
X70152381Y-127452381D01*
X70152381Y-127690476D01*
X70152381Y-126166666D02*
X70152381Y-126738095D01*
X70152381Y-126452381D02*
X69152381Y-126452381D01*
X69295238Y-126547619D01*
X69390476Y-126642857D01*
X69438095Y-126738095D01*
X69152381Y-125547619D02*
X69152381Y-125452380D01*
X69200000Y-125357142D01*
X69247619Y-125309523D01*
X69342857Y-125261904D01*
X69533333Y-125214285D01*
X69771429Y-125214285D01*
X69961905Y-125261904D01*
X70057143Y-125309523D01*
X70104762Y-125357142D01*
X70152381Y-125452380D01*
X70152381Y-125547619D01*
X70104762Y-125642857D01*
X70057143Y-125690476D01*
X69961905Y-125738095D01*
X69771429Y-125785714D01*
X69533333Y-125785714D01*
X69342857Y-125738095D01*
X69247619Y-125690476D01*
X69200000Y-125642857D01*
X69152381Y-125547619D01*
X69247619Y-124833333D02*
X69200000Y-124785714D01*
X69152381Y-124690476D01*
X69152381Y-124452380D01*
X69200000Y-124357142D01*
X69247619Y-124309523D01*
X69342857Y-124261904D01*
X69438095Y-124261904D01*
X69580952Y-124309523D01*
X70152381Y-124880952D01*
X70152381Y-124261904D01*
X111744881Y-91495476D02*
X110744881Y-91495476D01*
X110744881Y-91257381D01*
X110792500Y-91114523D01*
X110887738Y-91019285D01*
X110982976Y-90971666D01*
X111173452Y-90924047D01*
X111316310Y-90924047D01*
X111506786Y-90971666D01*
X111602024Y-91019285D01*
X111697262Y-91114523D01*
X111744881Y-91257381D01*
X111744881Y-91495476D01*
X111744881Y-89971666D02*
X111744881Y-90543095D01*
X111744881Y-90257381D02*
X110744881Y-90257381D01*
X110887738Y-90352619D01*
X110982976Y-90447857D01*
X111030595Y-90543095D01*
X110744881Y-89352619D02*
X110744881Y-89257380D01*
X110792500Y-89162142D01*
X110840119Y-89114523D01*
X110935357Y-89066904D01*
X111125833Y-89019285D01*
X111363929Y-89019285D01*
X111554405Y-89066904D01*
X111649643Y-89114523D01*
X111697262Y-89162142D01*
X111744881Y-89257380D01*
X111744881Y-89352619D01*
X111697262Y-89447857D01*
X111649643Y-89495476D01*
X111554405Y-89543095D01*
X111363929Y-89590714D01*
X111125833Y-89590714D01*
X110935357Y-89543095D01*
X110840119Y-89495476D01*
X110792500Y-89447857D01*
X110744881Y-89352619D01*
X110840119Y-88638333D02*
X110792500Y-88590714D01*
X110744881Y-88495476D01*
X110744881Y-88257380D01*
X110792500Y-88162142D01*
X110840119Y-88114523D01*
X110935357Y-88066904D01*
X111030595Y-88066904D01*
X111173452Y-88114523D01*
X111744881Y-88685952D01*
X111744881Y-88066904D01*
X113914881Y-102838214D02*
X114629167Y-102838214D01*
X114772024Y-102885834D01*
X114867262Y-102981072D01*
X114914881Y-103123929D01*
X114914881Y-103219167D01*
X114914881Y-101838214D02*
X114914881Y-102409643D01*
X114914881Y-102123929D02*
X113914881Y-102123929D01*
X114057738Y-102219167D01*
X114152976Y-102314405D01*
X114200595Y-102409643D01*
X113914881Y-101219167D02*
X113914881Y-101123928D01*
X113962500Y-101028690D01*
X114010119Y-100981071D01*
X114105357Y-100933452D01*
X114295833Y-100885833D01*
X114533929Y-100885833D01*
X114724405Y-100933452D01*
X114819643Y-100981071D01*
X114867262Y-101028690D01*
X114914881Y-101123928D01*
X114914881Y-101219167D01*
X114867262Y-101314405D01*
X114819643Y-101362024D01*
X114724405Y-101409643D01*
X114533929Y-101457262D01*
X114295833Y-101457262D01*
X114105357Y-101409643D01*
X114010119Y-101362024D01*
X113962500Y-101314405D01*
X113914881Y-101219167D01*
X114914881Y-99933452D02*
X114914881Y-100504881D01*
X114914881Y-100219167D02*
X113914881Y-100219167D01*
X114057738Y-100314405D01*
X114152976Y-100409643D01*
X114200595Y-100504881D01*
X72322381Y-102838214D02*
X73036667Y-102838214D01*
X73179524Y-102885834D01*
X73274762Y-102981072D01*
X73322381Y-103123929D01*
X73322381Y-103219167D01*
X73322381Y-101838214D02*
X73322381Y-102409643D01*
X73322381Y-102123929D02*
X72322381Y-102123929D01*
X72465238Y-102219167D01*
X72560476Y-102314405D01*
X72608095Y-102409643D01*
X72322381Y-101219167D02*
X72322381Y-101123928D01*
X72370000Y-101028690D01*
X72417619Y-100981071D01*
X72512857Y-100933452D01*
X72703333Y-100885833D01*
X72941429Y-100885833D01*
X73131905Y-100933452D01*
X73227143Y-100981071D01*
X73274762Y-101028690D01*
X73322381Y-101123928D01*
X73322381Y-101219167D01*
X73274762Y-101314405D01*
X73227143Y-101362024D01*
X73131905Y-101409643D01*
X72941429Y-101457262D01*
X72703333Y-101457262D01*
X72512857Y-101409643D01*
X72417619Y-101362024D01*
X72370000Y-101314405D01*
X72322381Y-101219167D01*
X73322381Y-99933452D02*
X73322381Y-100504881D01*
X73322381Y-100219167D02*
X72322381Y-100219167D01*
X72465238Y-100314405D01*
X72560476Y-100409643D01*
X72608095Y-100504881D01*
X113914881Y-66643214D02*
X114629167Y-66643214D01*
X114772024Y-66690834D01*
X114867262Y-66786072D01*
X114914881Y-66928929D01*
X114914881Y-67024167D01*
X114914881Y-65643214D02*
X114914881Y-66214643D01*
X114914881Y-65928929D02*
X113914881Y-65928929D01*
X114057738Y-66024167D01*
X114152976Y-66119405D01*
X114200595Y-66214643D01*
X113914881Y-65024167D02*
X113914881Y-64928928D01*
X113962500Y-64833690D01*
X114010119Y-64786071D01*
X114105357Y-64738452D01*
X114295833Y-64690833D01*
X114533929Y-64690833D01*
X114724405Y-64738452D01*
X114819643Y-64786071D01*
X114867262Y-64833690D01*
X114914881Y-64928928D01*
X114914881Y-65024167D01*
X114867262Y-65119405D01*
X114819643Y-65167024D01*
X114724405Y-65214643D01*
X114533929Y-65262262D01*
X114295833Y-65262262D01*
X114105357Y-65214643D01*
X114010119Y-65167024D01*
X113962500Y-65119405D01*
X113914881Y-65024167D01*
X114914881Y-63738452D02*
X114914881Y-64309881D01*
X114914881Y-64024167D02*
X113914881Y-64024167D01*
X114057738Y-64119405D01*
X114152976Y-64214643D01*
X114200595Y-64309881D01*
X118832381Y-110291547D02*
X118356190Y-110624881D01*
X118832381Y-110862976D02*
X117832381Y-110862976D01*
X117832381Y-110482023D01*
X117880000Y-110386785D01*
X117927619Y-110339166D01*
X118022857Y-110291547D01*
X118165714Y-110291547D01*
X118260952Y-110339166D01*
X118308571Y-110386785D01*
X118356190Y-110482023D01*
X118356190Y-110862976D01*
X118832381Y-109339166D02*
X118832381Y-109910595D01*
X118832381Y-109624881D02*
X117832381Y-109624881D01*
X117975238Y-109720119D01*
X118070476Y-109815357D01*
X118118095Y-109910595D01*
X117832381Y-108720119D02*
X117832381Y-108624880D01*
X117880000Y-108529642D01*
X117927619Y-108482023D01*
X118022857Y-108434404D01*
X118213333Y-108386785D01*
X118451429Y-108386785D01*
X118641905Y-108434404D01*
X118737143Y-108482023D01*
X118784762Y-108529642D01*
X118832381Y-108624880D01*
X118832381Y-108720119D01*
X118784762Y-108815357D01*
X118737143Y-108862976D01*
X118641905Y-108910595D01*
X118451429Y-108958214D01*
X118213333Y-108958214D01*
X118022857Y-108910595D01*
X117927619Y-108862976D01*
X117880000Y-108815357D01*
X117832381Y-108720119D01*
X117832381Y-108053452D02*
X117832381Y-107434404D01*
X118213333Y-107767738D01*
X118213333Y-107624880D01*
X118260952Y-107529642D01*
X118308571Y-107482023D01*
X118403810Y-107434404D01*
X118641905Y-107434404D01*
X118737143Y-107482023D01*
X118784762Y-107529642D01*
X118832381Y-107624880D01*
X118832381Y-107910595D01*
X118784762Y-108005833D01*
X118737143Y-108053452D01*
X77239881Y-110291547D02*
X76763690Y-110624881D01*
X77239881Y-110862976D02*
X76239881Y-110862976D01*
X76239881Y-110482023D01*
X76287500Y-110386785D01*
X76335119Y-110339166D01*
X76430357Y-110291547D01*
X76573214Y-110291547D01*
X76668452Y-110339166D01*
X76716071Y-110386785D01*
X76763690Y-110482023D01*
X76763690Y-110862976D01*
X77239881Y-109339166D02*
X77239881Y-109910595D01*
X77239881Y-109624881D02*
X76239881Y-109624881D01*
X76382738Y-109720119D01*
X76477976Y-109815357D01*
X76525595Y-109910595D01*
X76239881Y-108720119D02*
X76239881Y-108624880D01*
X76287500Y-108529642D01*
X76335119Y-108482023D01*
X76430357Y-108434404D01*
X76620833Y-108386785D01*
X76858929Y-108386785D01*
X77049405Y-108434404D01*
X77144643Y-108482023D01*
X77192262Y-108529642D01*
X77239881Y-108624880D01*
X77239881Y-108720119D01*
X77192262Y-108815357D01*
X77144643Y-108862976D01*
X77049405Y-108910595D01*
X76858929Y-108958214D01*
X76620833Y-108958214D01*
X76430357Y-108910595D01*
X76335119Y-108862976D01*
X76287500Y-108815357D01*
X76239881Y-108720119D01*
X76239881Y-108053452D02*
X76239881Y-107434404D01*
X76620833Y-107767738D01*
X76620833Y-107624880D01*
X76668452Y-107529642D01*
X76716071Y-107482023D01*
X76811310Y-107434404D01*
X77049405Y-107434404D01*
X77144643Y-107482023D01*
X77192262Y-107529642D01*
X77239881Y-107624880D01*
X77239881Y-107910595D01*
X77192262Y-108005833D01*
X77144643Y-108053452D01*
X118832381Y-74096547D02*
X118356190Y-74429881D01*
X118832381Y-74667976D02*
X117832381Y-74667976D01*
X117832381Y-74287023D01*
X117880000Y-74191785D01*
X117927619Y-74144166D01*
X118022857Y-74096547D01*
X118165714Y-74096547D01*
X118260952Y-74144166D01*
X118308571Y-74191785D01*
X118356190Y-74287023D01*
X118356190Y-74667976D01*
X118832381Y-73144166D02*
X118832381Y-73715595D01*
X118832381Y-73429881D02*
X117832381Y-73429881D01*
X117975238Y-73525119D01*
X118070476Y-73620357D01*
X118118095Y-73715595D01*
X117832381Y-72525119D02*
X117832381Y-72429880D01*
X117880000Y-72334642D01*
X117927619Y-72287023D01*
X118022857Y-72239404D01*
X118213333Y-72191785D01*
X118451429Y-72191785D01*
X118641905Y-72239404D01*
X118737143Y-72287023D01*
X118784762Y-72334642D01*
X118832381Y-72429880D01*
X118832381Y-72525119D01*
X118784762Y-72620357D01*
X118737143Y-72667976D01*
X118641905Y-72715595D01*
X118451429Y-72763214D01*
X118213333Y-72763214D01*
X118022857Y-72715595D01*
X117927619Y-72667976D01*
X117880000Y-72620357D01*
X117832381Y-72525119D01*
X117832381Y-71858452D02*
X117832381Y-71239404D01*
X118213333Y-71572738D01*
X118213333Y-71429880D01*
X118260952Y-71334642D01*
X118308571Y-71287023D01*
X118403810Y-71239404D01*
X118641905Y-71239404D01*
X118737143Y-71287023D01*
X118784762Y-71334642D01*
X118832381Y-71429880D01*
X118832381Y-71715595D01*
X118784762Y-71810833D01*
X118737143Y-71858452D01*
X114069881Y-110291547D02*
X113593690Y-110624881D01*
X114069881Y-110862976D02*
X113069881Y-110862976D01*
X113069881Y-110482023D01*
X113117500Y-110386785D01*
X113165119Y-110339166D01*
X113260357Y-110291547D01*
X113403214Y-110291547D01*
X113498452Y-110339166D01*
X113546071Y-110386785D01*
X113593690Y-110482023D01*
X113593690Y-110862976D01*
X114069881Y-109339166D02*
X114069881Y-109910595D01*
X114069881Y-109624881D02*
X113069881Y-109624881D01*
X113212738Y-109720119D01*
X113307976Y-109815357D01*
X113355595Y-109910595D01*
X113069881Y-108720119D02*
X113069881Y-108624880D01*
X113117500Y-108529642D01*
X113165119Y-108482023D01*
X113260357Y-108434404D01*
X113450833Y-108386785D01*
X113688929Y-108386785D01*
X113879405Y-108434404D01*
X113974643Y-108482023D01*
X114022262Y-108529642D01*
X114069881Y-108624880D01*
X114069881Y-108720119D01*
X114022262Y-108815357D01*
X113974643Y-108862976D01*
X113879405Y-108910595D01*
X113688929Y-108958214D01*
X113450833Y-108958214D01*
X113260357Y-108910595D01*
X113165119Y-108862976D01*
X113117500Y-108815357D01*
X113069881Y-108720119D01*
X113165119Y-108005833D02*
X113117500Y-107958214D01*
X113069881Y-107862976D01*
X113069881Y-107624880D01*
X113117500Y-107529642D01*
X113165119Y-107482023D01*
X113260357Y-107434404D01*
X113355595Y-107434404D01*
X113498452Y-107482023D01*
X114069881Y-108053452D01*
X114069881Y-107434404D01*
X72477381Y-110291547D02*
X72001190Y-110624881D01*
X72477381Y-110862976D02*
X71477381Y-110862976D01*
X71477381Y-110482023D01*
X71525000Y-110386785D01*
X71572619Y-110339166D01*
X71667857Y-110291547D01*
X71810714Y-110291547D01*
X71905952Y-110339166D01*
X71953571Y-110386785D01*
X72001190Y-110482023D01*
X72001190Y-110862976D01*
X72477381Y-109339166D02*
X72477381Y-109910595D01*
X72477381Y-109624881D02*
X71477381Y-109624881D01*
X71620238Y-109720119D01*
X71715476Y-109815357D01*
X71763095Y-109910595D01*
X71477381Y-108720119D02*
X71477381Y-108624880D01*
X71525000Y-108529642D01*
X71572619Y-108482023D01*
X71667857Y-108434404D01*
X71858333Y-108386785D01*
X72096429Y-108386785D01*
X72286905Y-108434404D01*
X72382143Y-108482023D01*
X72429762Y-108529642D01*
X72477381Y-108624880D01*
X72477381Y-108720119D01*
X72429762Y-108815357D01*
X72382143Y-108862976D01*
X72286905Y-108910595D01*
X72096429Y-108958214D01*
X71858333Y-108958214D01*
X71667857Y-108910595D01*
X71572619Y-108862976D01*
X71525000Y-108815357D01*
X71477381Y-108720119D01*
X71572619Y-108005833D02*
X71525000Y-107958214D01*
X71477381Y-107862976D01*
X71477381Y-107624880D01*
X71525000Y-107529642D01*
X71572619Y-107482023D01*
X71667857Y-107434404D01*
X71763095Y-107434404D01*
X71905952Y-107482023D01*
X72477381Y-108053452D01*
X72477381Y-107434404D01*
X114069881Y-74096547D02*
X113593690Y-74429881D01*
X114069881Y-74667976D02*
X113069881Y-74667976D01*
X113069881Y-74287023D01*
X113117500Y-74191785D01*
X113165119Y-74144166D01*
X113260357Y-74096547D01*
X113403214Y-74096547D01*
X113498452Y-74144166D01*
X113546071Y-74191785D01*
X113593690Y-74287023D01*
X113593690Y-74667976D01*
X114069881Y-73144166D02*
X114069881Y-73715595D01*
X114069881Y-73429881D02*
X113069881Y-73429881D01*
X113212738Y-73525119D01*
X113307976Y-73620357D01*
X113355595Y-73715595D01*
X113069881Y-72525119D02*
X113069881Y-72429880D01*
X113117500Y-72334642D01*
X113165119Y-72287023D01*
X113260357Y-72239404D01*
X113450833Y-72191785D01*
X113688929Y-72191785D01*
X113879405Y-72239404D01*
X113974643Y-72287023D01*
X114022262Y-72334642D01*
X114069881Y-72429880D01*
X114069881Y-72525119D01*
X114022262Y-72620357D01*
X113974643Y-72667976D01*
X113879405Y-72715595D01*
X113688929Y-72763214D01*
X113450833Y-72763214D01*
X113260357Y-72715595D01*
X113165119Y-72667976D01*
X113117500Y-72620357D01*
X113069881Y-72525119D01*
X113165119Y-71810833D02*
X113117500Y-71763214D01*
X113069881Y-71667976D01*
X113069881Y-71429880D01*
X113117500Y-71334642D01*
X113165119Y-71287023D01*
X113260357Y-71239404D01*
X113355595Y-71239404D01*
X113498452Y-71287023D01*
X114069881Y-71858452D01*
X114069881Y-71239404D01*
X123594881Y-110291547D02*
X123118690Y-110624881D01*
X123594881Y-110862976D02*
X122594881Y-110862976D01*
X122594881Y-110482023D01*
X122642500Y-110386785D01*
X122690119Y-110339166D01*
X122785357Y-110291547D01*
X122928214Y-110291547D01*
X123023452Y-110339166D01*
X123071071Y-110386785D01*
X123118690Y-110482023D01*
X123118690Y-110862976D01*
X123594881Y-109339166D02*
X123594881Y-109910595D01*
X123594881Y-109624881D02*
X122594881Y-109624881D01*
X122737738Y-109720119D01*
X122832976Y-109815357D01*
X122880595Y-109910595D01*
X122594881Y-108720119D02*
X122594881Y-108624880D01*
X122642500Y-108529642D01*
X122690119Y-108482023D01*
X122785357Y-108434404D01*
X122975833Y-108386785D01*
X123213929Y-108386785D01*
X123404405Y-108434404D01*
X123499643Y-108482023D01*
X123547262Y-108529642D01*
X123594881Y-108624880D01*
X123594881Y-108720119D01*
X123547262Y-108815357D01*
X123499643Y-108862976D01*
X123404405Y-108910595D01*
X123213929Y-108958214D01*
X122975833Y-108958214D01*
X122785357Y-108910595D01*
X122690119Y-108862976D01*
X122642500Y-108815357D01*
X122594881Y-108720119D01*
X122928214Y-107529642D02*
X123594881Y-107529642D01*
X122547262Y-107767738D02*
X123261548Y-108005833D01*
X123261548Y-107386785D01*
X82002381Y-110291547D02*
X81526190Y-110624881D01*
X82002381Y-110862976D02*
X81002381Y-110862976D01*
X81002381Y-110482023D01*
X81050000Y-110386785D01*
X81097619Y-110339166D01*
X81192857Y-110291547D01*
X81335714Y-110291547D01*
X81430952Y-110339166D01*
X81478571Y-110386785D01*
X81526190Y-110482023D01*
X81526190Y-110862976D01*
X82002381Y-109339166D02*
X82002381Y-109910595D01*
X82002381Y-109624881D02*
X81002381Y-109624881D01*
X81145238Y-109720119D01*
X81240476Y-109815357D01*
X81288095Y-109910595D01*
X81002381Y-108720119D02*
X81002381Y-108624880D01*
X81050000Y-108529642D01*
X81097619Y-108482023D01*
X81192857Y-108434404D01*
X81383333Y-108386785D01*
X81621429Y-108386785D01*
X81811905Y-108434404D01*
X81907143Y-108482023D01*
X81954762Y-108529642D01*
X82002381Y-108624880D01*
X82002381Y-108720119D01*
X81954762Y-108815357D01*
X81907143Y-108862976D01*
X81811905Y-108910595D01*
X81621429Y-108958214D01*
X81383333Y-108958214D01*
X81192857Y-108910595D01*
X81097619Y-108862976D01*
X81050000Y-108815357D01*
X81002381Y-108720119D01*
X81335714Y-107529642D02*
X82002381Y-107529642D01*
X80954762Y-107767738D02*
X81669048Y-108005833D01*
X81669048Y-107386785D01*
X123594881Y-74096547D02*
X123118690Y-74429881D01*
X123594881Y-74667976D02*
X122594881Y-74667976D01*
X122594881Y-74287023D01*
X122642500Y-74191785D01*
X122690119Y-74144166D01*
X122785357Y-74096547D01*
X122928214Y-74096547D01*
X123023452Y-74144166D01*
X123071071Y-74191785D01*
X123118690Y-74287023D01*
X123118690Y-74667976D01*
X123594881Y-73144166D02*
X123594881Y-73715595D01*
X123594881Y-73429881D02*
X122594881Y-73429881D01*
X122737738Y-73525119D01*
X122832976Y-73620357D01*
X122880595Y-73715595D01*
X122594881Y-72525119D02*
X122594881Y-72429880D01*
X122642500Y-72334642D01*
X122690119Y-72287023D01*
X122785357Y-72239404D01*
X122975833Y-72191785D01*
X123213929Y-72191785D01*
X123404405Y-72239404D01*
X123499643Y-72287023D01*
X123547262Y-72334642D01*
X123594881Y-72429880D01*
X123594881Y-72525119D01*
X123547262Y-72620357D01*
X123499643Y-72667976D01*
X123404405Y-72715595D01*
X123213929Y-72763214D01*
X122975833Y-72763214D01*
X122785357Y-72715595D01*
X122690119Y-72667976D01*
X122642500Y-72620357D01*
X122594881Y-72525119D01*
X122928214Y-71334642D02*
X123594881Y-71334642D01*
X122547262Y-71572738D02*
X123261548Y-71810833D01*
X123261548Y-71191785D01*
X133119881Y-110291547D02*
X132643690Y-110624881D01*
X133119881Y-110862976D02*
X132119881Y-110862976D01*
X132119881Y-110482023D01*
X132167500Y-110386785D01*
X132215119Y-110339166D01*
X132310357Y-110291547D01*
X132453214Y-110291547D01*
X132548452Y-110339166D01*
X132596071Y-110386785D01*
X132643690Y-110482023D01*
X132643690Y-110862976D01*
X133119881Y-109339166D02*
X133119881Y-109910595D01*
X133119881Y-109624881D02*
X132119881Y-109624881D01*
X132262738Y-109720119D01*
X132357976Y-109815357D01*
X132405595Y-109910595D01*
X132119881Y-108720119D02*
X132119881Y-108624880D01*
X132167500Y-108529642D01*
X132215119Y-108482023D01*
X132310357Y-108434404D01*
X132500833Y-108386785D01*
X132738929Y-108386785D01*
X132929405Y-108434404D01*
X133024643Y-108482023D01*
X133072262Y-108529642D01*
X133119881Y-108624880D01*
X133119881Y-108720119D01*
X133072262Y-108815357D01*
X133024643Y-108862976D01*
X132929405Y-108910595D01*
X132738929Y-108958214D01*
X132500833Y-108958214D01*
X132310357Y-108910595D01*
X132215119Y-108862976D01*
X132167500Y-108815357D01*
X132119881Y-108720119D01*
X132119881Y-107529642D02*
X132119881Y-107720119D01*
X132167500Y-107815357D01*
X132215119Y-107862976D01*
X132357976Y-107958214D01*
X132548452Y-108005833D01*
X132929405Y-108005833D01*
X133024643Y-107958214D01*
X133072262Y-107910595D01*
X133119881Y-107815357D01*
X133119881Y-107624880D01*
X133072262Y-107529642D01*
X133024643Y-107482023D01*
X132929405Y-107434404D01*
X132691310Y-107434404D01*
X132596071Y-107482023D01*
X132548452Y-107529642D01*
X132500833Y-107624880D01*
X132500833Y-107815357D01*
X132548452Y-107910595D01*
X132596071Y-107958214D01*
X132691310Y-108005833D01*
X91527381Y-110291547D02*
X91051190Y-110624881D01*
X91527381Y-110862976D02*
X90527381Y-110862976D01*
X90527381Y-110482023D01*
X90575000Y-110386785D01*
X90622619Y-110339166D01*
X90717857Y-110291547D01*
X90860714Y-110291547D01*
X90955952Y-110339166D01*
X91003571Y-110386785D01*
X91051190Y-110482023D01*
X91051190Y-110862976D01*
X91527381Y-109339166D02*
X91527381Y-109910595D01*
X91527381Y-109624881D02*
X90527381Y-109624881D01*
X90670238Y-109720119D01*
X90765476Y-109815357D01*
X90813095Y-109910595D01*
X90527381Y-108720119D02*
X90527381Y-108624880D01*
X90575000Y-108529642D01*
X90622619Y-108482023D01*
X90717857Y-108434404D01*
X90908333Y-108386785D01*
X91146429Y-108386785D01*
X91336905Y-108434404D01*
X91432143Y-108482023D01*
X91479762Y-108529642D01*
X91527381Y-108624880D01*
X91527381Y-108720119D01*
X91479762Y-108815357D01*
X91432143Y-108862976D01*
X91336905Y-108910595D01*
X91146429Y-108958214D01*
X90908333Y-108958214D01*
X90717857Y-108910595D01*
X90622619Y-108862976D01*
X90575000Y-108815357D01*
X90527381Y-108720119D01*
X90527381Y-107529642D02*
X90527381Y-107720119D01*
X90575000Y-107815357D01*
X90622619Y-107862976D01*
X90765476Y-107958214D01*
X90955952Y-108005833D01*
X91336905Y-108005833D01*
X91432143Y-107958214D01*
X91479762Y-107910595D01*
X91527381Y-107815357D01*
X91527381Y-107624880D01*
X91479762Y-107529642D01*
X91432143Y-107482023D01*
X91336905Y-107434404D01*
X91098810Y-107434404D01*
X91003571Y-107482023D01*
X90955952Y-107529642D01*
X90908333Y-107624880D01*
X90908333Y-107815357D01*
X90955952Y-107910595D01*
X91003571Y-107958214D01*
X91098810Y-108005833D01*
X133119881Y-74096547D02*
X132643690Y-74429881D01*
X133119881Y-74667976D02*
X132119881Y-74667976D01*
X132119881Y-74287023D01*
X132167500Y-74191785D01*
X132215119Y-74144166D01*
X132310357Y-74096547D01*
X132453214Y-74096547D01*
X132548452Y-74144166D01*
X132596071Y-74191785D01*
X132643690Y-74287023D01*
X132643690Y-74667976D01*
X133119881Y-73144166D02*
X133119881Y-73715595D01*
X133119881Y-73429881D02*
X132119881Y-73429881D01*
X132262738Y-73525119D01*
X132357976Y-73620357D01*
X132405595Y-73715595D01*
X132119881Y-72525119D02*
X132119881Y-72429880D01*
X132167500Y-72334642D01*
X132215119Y-72287023D01*
X132310357Y-72239404D01*
X132500833Y-72191785D01*
X132738929Y-72191785D01*
X132929405Y-72239404D01*
X133024643Y-72287023D01*
X133072262Y-72334642D01*
X133119881Y-72429880D01*
X133119881Y-72525119D01*
X133072262Y-72620357D01*
X133024643Y-72667976D01*
X132929405Y-72715595D01*
X132738929Y-72763214D01*
X132500833Y-72763214D01*
X132310357Y-72715595D01*
X132215119Y-72667976D01*
X132167500Y-72620357D01*
X132119881Y-72525119D01*
X132119881Y-71334642D02*
X132119881Y-71525119D01*
X132167500Y-71620357D01*
X132215119Y-71667976D01*
X132357976Y-71763214D01*
X132548452Y-71810833D01*
X132929405Y-71810833D01*
X133024643Y-71763214D01*
X133072262Y-71715595D01*
X133119881Y-71620357D01*
X133119881Y-71429880D01*
X133072262Y-71334642D01*
X133024643Y-71287023D01*
X132929405Y-71239404D01*
X132691310Y-71239404D01*
X132596071Y-71287023D01*
X132548452Y-71334642D01*
X132500833Y-71429880D01*
X132500833Y-71620357D01*
X132548452Y-71715595D01*
X132596071Y-71763214D01*
X132691310Y-71810833D01*
X128357381Y-110291547D02*
X127881190Y-110624881D01*
X128357381Y-110862976D02*
X127357381Y-110862976D01*
X127357381Y-110482023D01*
X127405000Y-110386785D01*
X127452619Y-110339166D01*
X127547857Y-110291547D01*
X127690714Y-110291547D01*
X127785952Y-110339166D01*
X127833571Y-110386785D01*
X127881190Y-110482023D01*
X127881190Y-110862976D01*
X128357381Y-109339166D02*
X128357381Y-109910595D01*
X128357381Y-109624881D02*
X127357381Y-109624881D01*
X127500238Y-109720119D01*
X127595476Y-109815357D01*
X127643095Y-109910595D01*
X127357381Y-108720119D02*
X127357381Y-108624880D01*
X127405000Y-108529642D01*
X127452619Y-108482023D01*
X127547857Y-108434404D01*
X127738333Y-108386785D01*
X127976429Y-108386785D01*
X128166905Y-108434404D01*
X128262143Y-108482023D01*
X128309762Y-108529642D01*
X128357381Y-108624880D01*
X128357381Y-108720119D01*
X128309762Y-108815357D01*
X128262143Y-108862976D01*
X128166905Y-108910595D01*
X127976429Y-108958214D01*
X127738333Y-108958214D01*
X127547857Y-108910595D01*
X127452619Y-108862976D01*
X127405000Y-108815357D01*
X127357381Y-108720119D01*
X127357381Y-107482023D02*
X127357381Y-107958214D01*
X127833571Y-108005833D01*
X127785952Y-107958214D01*
X127738333Y-107862976D01*
X127738333Y-107624880D01*
X127785952Y-107529642D01*
X127833571Y-107482023D01*
X127928810Y-107434404D01*
X128166905Y-107434404D01*
X128262143Y-107482023D01*
X128309762Y-107529642D01*
X128357381Y-107624880D01*
X128357381Y-107862976D01*
X128309762Y-107958214D01*
X128262143Y-108005833D01*
X86764881Y-110291547D02*
X86288690Y-110624881D01*
X86764881Y-110862976D02*
X85764881Y-110862976D01*
X85764881Y-110482023D01*
X85812500Y-110386785D01*
X85860119Y-110339166D01*
X85955357Y-110291547D01*
X86098214Y-110291547D01*
X86193452Y-110339166D01*
X86241071Y-110386785D01*
X86288690Y-110482023D01*
X86288690Y-110862976D01*
X86764881Y-109339166D02*
X86764881Y-109910595D01*
X86764881Y-109624881D02*
X85764881Y-109624881D01*
X85907738Y-109720119D01*
X86002976Y-109815357D01*
X86050595Y-109910595D01*
X85764881Y-108720119D02*
X85764881Y-108624880D01*
X85812500Y-108529642D01*
X85860119Y-108482023D01*
X85955357Y-108434404D01*
X86145833Y-108386785D01*
X86383929Y-108386785D01*
X86574405Y-108434404D01*
X86669643Y-108482023D01*
X86717262Y-108529642D01*
X86764881Y-108624880D01*
X86764881Y-108720119D01*
X86717262Y-108815357D01*
X86669643Y-108862976D01*
X86574405Y-108910595D01*
X86383929Y-108958214D01*
X86145833Y-108958214D01*
X85955357Y-108910595D01*
X85860119Y-108862976D01*
X85812500Y-108815357D01*
X85764881Y-108720119D01*
X85764881Y-107482023D02*
X85764881Y-107958214D01*
X86241071Y-108005833D01*
X86193452Y-107958214D01*
X86145833Y-107862976D01*
X86145833Y-107624880D01*
X86193452Y-107529642D01*
X86241071Y-107482023D01*
X86336310Y-107434404D01*
X86574405Y-107434404D01*
X86669643Y-107482023D01*
X86717262Y-107529642D01*
X86764881Y-107624880D01*
X86764881Y-107862976D01*
X86717262Y-107958214D01*
X86669643Y-108005833D01*
X128357381Y-74096547D02*
X127881190Y-74429881D01*
X128357381Y-74667976D02*
X127357381Y-74667976D01*
X127357381Y-74287023D01*
X127405000Y-74191785D01*
X127452619Y-74144166D01*
X127547857Y-74096547D01*
X127690714Y-74096547D01*
X127785952Y-74144166D01*
X127833571Y-74191785D01*
X127881190Y-74287023D01*
X127881190Y-74667976D01*
X128357381Y-73144166D02*
X128357381Y-73715595D01*
X128357381Y-73429881D02*
X127357381Y-73429881D01*
X127500238Y-73525119D01*
X127595476Y-73620357D01*
X127643095Y-73715595D01*
X127357381Y-72525119D02*
X127357381Y-72429880D01*
X127405000Y-72334642D01*
X127452619Y-72287023D01*
X127547857Y-72239404D01*
X127738333Y-72191785D01*
X127976429Y-72191785D01*
X128166905Y-72239404D01*
X128262143Y-72287023D01*
X128309762Y-72334642D01*
X128357381Y-72429880D01*
X128357381Y-72525119D01*
X128309762Y-72620357D01*
X128262143Y-72667976D01*
X128166905Y-72715595D01*
X127976429Y-72763214D01*
X127738333Y-72763214D01*
X127547857Y-72715595D01*
X127452619Y-72667976D01*
X127405000Y-72620357D01*
X127357381Y-72525119D01*
X127357381Y-71287023D02*
X127357381Y-71763214D01*
X127833571Y-71810833D01*
X127785952Y-71763214D01*
X127738333Y-71667976D01*
X127738333Y-71429880D01*
X127785952Y-71334642D01*
X127833571Y-71287023D01*
X127928810Y-71239404D01*
X128166905Y-71239404D01*
X128262143Y-71287023D01*
X128309762Y-71334642D01*
X128357381Y-71429880D01*
X128357381Y-71667976D01*
X128309762Y-71763214D01*
X128262143Y-71810833D01*
X109307381Y-110291547D02*
X108831190Y-110624881D01*
X109307381Y-110862976D02*
X108307381Y-110862976D01*
X108307381Y-110482023D01*
X108355000Y-110386785D01*
X108402619Y-110339166D01*
X108497857Y-110291547D01*
X108640714Y-110291547D01*
X108735952Y-110339166D01*
X108783571Y-110386785D01*
X108831190Y-110482023D01*
X108831190Y-110862976D01*
X109307381Y-109339166D02*
X109307381Y-109910595D01*
X109307381Y-109624881D02*
X108307381Y-109624881D01*
X108450238Y-109720119D01*
X108545476Y-109815357D01*
X108593095Y-109910595D01*
X108307381Y-108720119D02*
X108307381Y-108624880D01*
X108355000Y-108529642D01*
X108402619Y-108482023D01*
X108497857Y-108434404D01*
X108688333Y-108386785D01*
X108926429Y-108386785D01*
X109116905Y-108434404D01*
X109212143Y-108482023D01*
X109259762Y-108529642D01*
X109307381Y-108624880D01*
X109307381Y-108720119D01*
X109259762Y-108815357D01*
X109212143Y-108862976D01*
X109116905Y-108910595D01*
X108926429Y-108958214D01*
X108688333Y-108958214D01*
X108497857Y-108910595D01*
X108402619Y-108862976D01*
X108355000Y-108815357D01*
X108307381Y-108720119D01*
X109307381Y-107434404D02*
X109307381Y-108005833D01*
X109307381Y-107720119D02*
X108307381Y-107720119D01*
X108450238Y-107815357D01*
X108545476Y-107910595D01*
X108593095Y-108005833D01*
X67714881Y-110291547D02*
X67238690Y-110624881D01*
X67714881Y-110862976D02*
X66714881Y-110862976D01*
X66714881Y-110482023D01*
X66762500Y-110386785D01*
X66810119Y-110339166D01*
X66905357Y-110291547D01*
X67048214Y-110291547D01*
X67143452Y-110339166D01*
X67191071Y-110386785D01*
X67238690Y-110482023D01*
X67238690Y-110862976D01*
X67714881Y-109339166D02*
X67714881Y-109910595D01*
X67714881Y-109624881D02*
X66714881Y-109624881D01*
X66857738Y-109720119D01*
X66952976Y-109815357D01*
X67000595Y-109910595D01*
X66714881Y-108720119D02*
X66714881Y-108624880D01*
X66762500Y-108529642D01*
X66810119Y-108482023D01*
X66905357Y-108434404D01*
X67095833Y-108386785D01*
X67333929Y-108386785D01*
X67524405Y-108434404D01*
X67619643Y-108482023D01*
X67667262Y-108529642D01*
X67714881Y-108624880D01*
X67714881Y-108720119D01*
X67667262Y-108815357D01*
X67619643Y-108862976D01*
X67524405Y-108910595D01*
X67333929Y-108958214D01*
X67095833Y-108958214D01*
X66905357Y-108910595D01*
X66810119Y-108862976D01*
X66762500Y-108815357D01*
X66714881Y-108720119D01*
X67714881Y-107434404D02*
X67714881Y-108005833D01*
X67714881Y-107720119D02*
X66714881Y-107720119D01*
X66857738Y-107815357D01*
X66952976Y-107910595D01*
X67000595Y-108005833D01*
X109307381Y-74096547D02*
X108831190Y-74429881D01*
X109307381Y-74667976D02*
X108307381Y-74667976D01*
X108307381Y-74287023D01*
X108355000Y-74191785D01*
X108402619Y-74144166D01*
X108497857Y-74096547D01*
X108640714Y-74096547D01*
X108735952Y-74144166D01*
X108783571Y-74191785D01*
X108831190Y-74287023D01*
X108831190Y-74667976D01*
X109307381Y-73144166D02*
X109307381Y-73715595D01*
X109307381Y-73429881D02*
X108307381Y-73429881D01*
X108450238Y-73525119D01*
X108545476Y-73620357D01*
X108593095Y-73715595D01*
X108307381Y-72525119D02*
X108307381Y-72429880D01*
X108355000Y-72334642D01*
X108402619Y-72287023D01*
X108497857Y-72239404D01*
X108688333Y-72191785D01*
X108926429Y-72191785D01*
X109116905Y-72239404D01*
X109212143Y-72287023D01*
X109259762Y-72334642D01*
X109307381Y-72429880D01*
X109307381Y-72525119D01*
X109259762Y-72620357D01*
X109212143Y-72667976D01*
X109116905Y-72715595D01*
X108926429Y-72763214D01*
X108688333Y-72763214D01*
X108497857Y-72715595D01*
X108402619Y-72667976D01*
X108355000Y-72620357D01*
X108307381Y-72525119D01*
X109307381Y-71239404D02*
X109307381Y-71810833D01*
X109307381Y-71525119D02*
X108307381Y-71525119D01*
X108450238Y-71620357D01*
X108545476Y-71715595D01*
X108593095Y-71810833D01*
X138139762Y-128285714D02*
X138187381Y-128142857D01*
X138187381Y-127904761D01*
X138139762Y-127809523D01*
X138092143Y-127761904D01*
X137996905Y-127714285D01*
X137901667Y-127714285D01*
X137806429Y-127761904D01*
X137758810Y-127809523D01*
X137711190Y-127904761D01*
X137663571Y-128095238D01*
X137615952Y-128190476D01*
X137568333Y-128238095D01*
X137473095Y-128285714D01*
X137377857Y-128285714D01*
X137282619Y-128238095D01*
X137235000Y-128190476D01*
X137187381Y-128095238D01*
X137187381Y-127857142D01*
X137235000Y-127714285D01*
X137187381Y-127380952D02*
X138187381Y-127142857D01*
X137473095Y-126952380D01*
X138187381Y-126761904D01*
X137187381Y-126523809D01*
X138187381Y-125619047D02*
X138187381Y-126190476D01*
X138187381Y-125904762D02*
X137187381Y-125904762D01*
X137330238Y-126000000D01*
X137425476Y-126095238D01*
X137473095Y-126190476D01*
X137187381Y-125000000D02*
X137187381Y-124904761D01*
X137235000Y-124809523D01*
X137282619Y-124761904D01*
X137377857Y-124714285D01*
X137568333Y-124666666D01*
X137806429Y-124666666D01*
X137996905Y-124714285D01*
X138092143Y-124761904D01*
X138139762Y-124809523D01*
X138187381Y-124904761D01*
X138187381Y-125000000D01*
X138139762Y-125095238D01*
X138092143Y-125142857D01*
X137996905Y-125190476D01*
X137806429Y-125238095D01*
X137568333Y-125238095D01*
X137377857Y-125190476D01*
X137282619Y-125142857D01*
X137235000Y-125095238D01*
X137187381Y-125000000D01*
X138187381Y-123714285D02*
X138187381Y-124285714D01*
X138187381Y-124000000D02*
X137187381Y-124000000D01*
X137330238Y-124095238D01*
X137425476Y-124190476D01*
X137473095Y-124285714D01*
X96547262Y-128285714D02*
X96594881Y-128142857D01*
X96594881Y-127904761D01*
X96547262Y-127809523D01*
X96499643Y-127761904D01*
X96404405Y-127714285D01*
X96309167Y-127714285D01*
X96213929Y-127761904D01*
X96166310Y-127809523D01*
X96118690Y-127904761D01*
X96071071Y-128095238D01*
X96023452Y-128190476D01*
X95975833Y-128238095D01*
X95880595Y-128285714D01*
X95785357Y-128285714D01*
X95690119Y-128238095D01*
X95642500Y-128190476D01*
X95594881Y-128095238D01*
X95594881Y-127857142D01*
X95642500Y-127714285D01*
X95594881Y-127380952D02*
X96594881Y-127142857D01*
X95880595Y-126952380D01*
X96594881Y-126761904D01*
X95594881Y-126523809D01*
X96594881Y-125619047D02*
X96594881Y-126190476D01*
X96594881Y-125904762D02*
X95594881Y-125904762D01*
X95737738Y-126000000D01*
X95832976Y-126095238D01*
X95880595Y-126190476D01*
X95594881Y-125000000D02*
X95594881Y-124904761D01*
X95642500Y-124809523D01*
X95690119Y-124761904D01*
X95785357Y-124714285D01*
X95975833Y-124666666D01*
X96213929Y-124666666D01*
X96404405Y-124714285D01*
X96499643Y-124761904D01*
X96547262Y-124809523D01*
X96594881Y-124904761D01*
X96594881Y-125000000D01*
X96547262Y-125095238D01*
X96499643Y-125142857D01*
X96404405Y-125190476D01*
X96213929Y-125238095D01*
X95975833Y-125238095D01*
X95785357Y-125190476D01*
X95690119Y-125142857D01*
X95642500Y-125095238D01*
X95594881Y-125000000D01*
X96594881Y-123714285D02*
X96594881Y-124285714D01*
X96594881Y-124000000D02*
X95594881Y-124000000D01*
X95737738Y-124095238D01*
X95832976Y-124190476D01*
X95880595Y-124285714D01*
X138139762Y-92090714D02*
X138187381Y-91947857D01*
X138187381Y-91709761D01*
X138139762Y-91614523D01*
X138092143Y-91566904D01*
X137996905Y-91519285D01*
X137901667Y-91519285D01*
X137806429Y-91566904D01*
X137758810Y-91614523D01*
X137711190Y-91709761D01*
X137663571Y-91900238D01*
X137615952Y-91995476D01*
X137568333Y-92043095D01*
X137473095Y-92090714D01*
X137377857Y-92090714D01*
X137282619Y-92043095D01*
X137235000Y-91995476D01*
X137187381Y-91900238D01*
X137187381Y-91662142D01*
X137235000Y-91519285D01*
X137187381Y-91185952D02*
X138187381Y-90947857D01*
X137473095Y-90757380D01*
X138187381Y-90566904D01*
X137187381Y-90328809D01*
X138187381Y-89424047D02*
X138187381Y-89995476D01*
X138187381Y-89709762D02*
X137187381Y-89709762D01*
X137330238Y-89805000D01*
X137425476Y-89900238D01*
X137473095Y-89995476D01*
X137187381Y-88805000D02*
X137187381Y-88709761D01*
X137235000Y-88614523D01*
X137282619Y-88566904D01*
X137377857Y-88519285D01*
X137568333Y-88471666D01*
X137806429Y-88471666D01*
X137996905Y-88519285D01*
X138092143Y-88566904D01*
X138139762Y-88614523D01*
X138187381Y-88709761D01*
X138187381Y-88805000D01*
X138139762Y-88900238D01*
X138092143Y-88947857D01*
X137996905Y-88995476D01*
X137806429Y-89043095D01*
X137568333Y-89043095D01*
X137377857Y-88995476D01*
X137282619Y-88947857D01*
X137235000Y-88900238D01*
X137187381Y-88805000D01*
X138187381Y-87519285D02*
X138187381Y-88090714D01*
X138187381Y-87805000D02*
X137187381Y-87805000D01*
X137330238Y-87900238D01*
X137425476Y-87995476D01*
X137473095Y-88090714D01*
X138414881Y-127690476D02*
X137414881Y-127690476D01*
X137414881Y-127452381D01*
X137462500Y-127309523D01*
X137557738Y-127214285D01*
X137652976Y-127166666D01*
X137843452Y-127119047D01*
X137986310Y-127119047D01*
X138176786Y-127166666D01*
X138272024Y-127214285D01*
X138367262Y-127309523D01*
X138414881Y-127452381D01*
X138414881Y-127690476D01*
X138414881Y-126166666D02*
X138414881Y-126738095D01*
X138414881Y-126452381D02*
X137414881Y-126452381D01*
X137557738Y-126547619D01*
X137652976Y-126642857D01*
X137700595Y-126738095D01*
X137414881Y-125547619D02*
X137414881Y-125452380D01*
X137462500Y-125357142D01*
X137510119Y-125309523D01*
X137605357Y-125261904D01*
X137795833Y-125214285D01*
X138033929Y-125214285D01*
X138224405Y-125261904D01*
X138319643Y-125309523D01*
X138367262Y-125357142D01*
X138414881Y-125452380D01*
X138414881Y-125547619D01*
X138367262Y-125642857D01*
X138319643Y-125690476D01*
X138224405Y-125738095D01*
X138033929Y-125785714D01*
X137795833Y-125785714D01*
X137605357Y-125738095D01*
X137510119Y-125690476D01*
X137462500Y-125642857D01*
X137414881Y-125547619D01*
X137843452Y-124642857D02*
X137795833Y-124738095D01*
X137748214Y-124785714D01*
X137652976Y-124833333D01*
X137605357Y-124833333D01*
X137510119Y-124785714D01*
X137462500Y-124738095D01*
X137414881Y-124642857D01*
X137414881Y-124452380D01*
X137462500Y-124357142D01*
X137510119Y-124309523D01*
X137605357Y-124261904D01*
X137652976Y-124261904D01*
X137748214Y-124309523D01*
X137795833Y-124357142D01*
X137843452Y-124452380D01*
X137843452Y-124642857D01*
X137891071Y-124738095D01*
X137938690Y-124785714D01*
X138033929Y-124833333D01*
X138224405Y-124833333D01*
X138319643Y-124785714D01*
X138367262Y-124738095D01*
X138414881Y-124642857D01*
X138414881Y-124452380D01*
X138367262Y-124357142D01*
X138319643Y-124309523D01*
X138224405Y-124261904D01*
X138033929Y-124261904D01*
X137938690Y-124309523D01*
X137891071Y-124357142D01*
X137843452Y-124452380D01*
X96822381Y-127690476D02*
X95822381Y-127690476D01*
X95822381Y-127452381D01*
X95870000Y-127309523D01*
X95965238Y-127214285D01*
X96060476Y-127166666D01*
X96250952Y-127119047D01*
X96393810Y-127119047D01*
X96584286Y-127166666D01*
X96679524Y-127214285D01*
X96774762Y-127309523D01*
X96822381Y-127452381D01*
X96822381Y-127690476D01*
X96822381Y-126166666D02*
X96822381Y-126738095D01*
X96822381Y-126452381D02*
X95822381Y-126452381D01*
X95965238Y-126547619D01*
X96060476Y-126642857D01*
X96108095Y-126738095D01*
X95822381Y-125547619D02*
X95822381Y-125452380D01*
X95870000Y-125357142D01*
X95917619Y-125309523D01*
X96012857Y-125261904D01*
X96203333Y-125214285D01*
X96441429Y-125214285D01*
X96631905Y-125261904D01*
X96727143Y-125309523D01*
X96774762Y-125357142D01*
X96822381Y-125452380D01*
X96822381Y-125547619D01*
X96774762Y-125642857D01*
X96727143Y-125690476D01*
X96631905Y-125738095D01*
X96441429Y-125785714D01*
X96203333Y-125785714D01*
X96012857Y-125738095D01*
X95917619Y-125690476D01*
X95870000Y-125642857D01*
X95822381Y-125547619D01*
X96250952Y-124642857D02*
X96203333Y-124738095D01*
X96155714Y-124785714D01*
X96060476Y-124833333D01*
X96012857Y-124833333D01*
X95917619Y-124785714D01*
X95870000Y-124738095D01*
X95822381Y-124642857D01*
X95822381Y-124452380D01*
X95870000Y-124357142D01*
X95917619Y-124309523D01*
X96012857Y-124261904D01*
X96060476Y-124261904D01*
X96155714Y-124309523D01*
X96203333Y-124357142D01*
X96250952Y-124452380D01*
X96250952Y-124642857D01*
X96298571Y-124738095D01*
X96346190Y-124785714D01*
X96441429Y-124833333D01*
X96631905Y-124833333D01*
X96727143Y-124785714D01*
X96774762Y-124738095D01*
X96822381Y-124642857D01*
X96822381Y-124452380D01*
X96774762Y-124357142D01*
X96727143Y-124309523D01*
X96631905Y-124261904D01*
X96441429Y-124261904D01*
X96346190Y-124309523D01*
X96298571Y-124357142D01*
X96250952Y-124452380D01*
X138414881Y-91495476D02*
X137414881Y-91495476D01*
X137414881Y-91257381D01*
X137462500Y-91114523D01*
X137557738Y-91019285D01*
X137652976Y-90971666D01*
X137843452Y-90924047D01*
X137986310Y-90924047D01*
X138176786Y-90971666D01*
X138272024Y-91019285D01*
X138367262Y-91114523D01*
X138414881Y-91257381D01*
X138414881Y-91495476D01*
X138414881Y-89971666D02*
X138414881Y-90543095D01*
X138414881Y-90257381D02*
X137414881Y-90257381D01*
X137557738Y-90352619D01*
X137652976Y-90447857D01*
X137700595Y-90543095D01*
X137414881Y-89352619D02*
X137414881Y-89257380D01*
X137462500Y-89162142D01*
X137510119Y-89114523D01*
X137605357Y-89066904D01*
X137795833Y-89019285D01*
X138033929Y-89019285D01*
X138224405Y-89066904D01*
X138319643Y-89114523D01*
X138367262Y-89162142D01*
X138414881Y-89257380D01*
X138414881Y-89352619D01*
X138367262Y-89447857D01*
X138319643Y-89495476D01*
X138224405Y-89543095D01*
X138033929Y-89590714D01*
X137795833Y-89590714D01*
X137605357Y-89543095D01*
X137510119Y-89495476D01*
X137462500Y-89447857D01*
X137414881Y-89352619D01*
X137843452Y-88447857D02*
X137795833Y-88543095D01*
X137748214Y-88590714D01*
X137652976Y-88638333D01*
X137605357Y-88638333D01*
X137510119Y-88590714D01*
X137462500Y-88543095D01*
X137414881Y-88447857D01*
X137414881Y-88257380D01*
X137462500Y-88162142D01*
X137510119Y-88114523D01*
X137605357Y-88066904D01*
X137652976Y-88066904D01*
X137748214Y-88114523D01*
X137795833Y-88162142D01*
X137843452Y-88257380D01*
X137843452Y-88447857D01*
X137891071Y-88543095D01*
X137938690Y-88590714D01*
X138033929Y-88638333D01*
X138224405Y-88638333D01*
X138319643Y-88590714D01*
X138367262Y-88543095D01*
X138414881Y-88447857D01*
X138414881Y-88257380D01*
X138367262Y-88162142D01*
X138319643Y-88114523D01*
X138224405Y-88066904D01*
X138033929Y-88066904D01*
X137938690Y-88114523D01*
X137891071Y-88162142D01*
X137843452Y-88257380D01*
X125079881Y-127690476D02*
X124079881Y-127690476D01*
X124079881Y-127452381D01*
X124127500Y-127309523D01*
X124222738Y-127214285D01*
X124317976Y-127166666D01*
X124508452Y-127119047D01*
X124651310Y-127119047D01*
X124841786Y-127166666D01*
X124937024Y-127214285D01*
X125032262Y-127309523D01*
X125079881Y-127452381D01*
X125079881Y-127690476D01*
X125079881Y-126166666D02*
X125079881Y-126738095D01*
X125079881Y-126452381D02*
X124079881Y-126452381D01*
X124222738Y-126547619D01*
X124317976Y-126642857D01*
X124365595Y-126738095D01*
X124079881Y-125547619D02*
X124079881Y-125452380D01*
X124127500Y-125357142D01*
X124175119Y-125309523D01*
X124270357Y-125261904D01*
X124460833Y-125214285D01*
X124698929Y-125214285D01*
X124889405Y-125261904D01*
X124984643Y-125309523D01*
X125032262Y-125357142D01*
X125079881Y-125452380D01*
X125079881Y-125547619D01*
X125032262Y-125642857D01*
X124984643Y-125690476D01*
X124889405Y-125738095D01*
X124698929Y-125785714D01*
X124460833Y-125785714D01*
X124270357Y-125738095D01*
X124175119Y-125690476D01*
X124127500Y-125642857D01*
X124079881Y-125547619D01*
X124079881Y-124309523D02*
X124079881Y-124785714D01*
X124556071Y-124833333D01*
X124508452Y-124785714D01*
X124460833Y-124690476D01*
X124460833Y-124452380D01*
X124508452Y-124357142D01*
X124556071Y-124309523D01*
X124651310Y-124261904D01*
X124889405Y-124261904D01*
X124984643Y-124309523D01*
X125032262Y-124357142D01*
X125079881Y-124452380D01*
X125079881Y-124690476D01*
X125032262Y-124785714D01*
X124984643Y-124833333D01*
X83487381Y-127690476D02*
X82487381Y-127690476D01*
X82487381Y-127452381D01*
X82535000Y-127309523D01*
X82630238Y-127214285D01*
X82725476Y-127166666D01*
X82915952Y-127119047D01*
X83058810Y-127119047D01*
X83249286Y-127166666D01*
X83344524Y-127214285D01*
X83439762Y-127309523D01*
X83487381Y-127452381D01*
X83487381Y-127690476D01*
X83487381Y-126166666D02*
X83487381Y-126738095D01*
X83487381Y-126452381D02*
X82487381Y-126452381D01*
X82630238Y-126547619D01*
X82725476Y-126642857D01*
X82773095Y-126738095D01*
X82487381Y-125547619D02*
X82487381Y-125452380D01*
X82535000Y-125357142D01*
X82582619Y-125309523D01*
X82677857Y-125261904D01*
X82868333Y-125214285D01*
X83106429Y-125214285D01*
X83296905Y-125261904D01*
X83392143Y-125309523D01*
X83439762Y-125357142D01*
X83487381Y-125452380D01*
X83487381Y-125547619D01*
X83439762Y-125642857D01*
X83392143Y-125690476D01*
X83296905Y-125738095D01*
X83106429Y-125785714D01*
X82868333Y-125785714D01*
X82677857Y-125738095D01*
X82582619Y-125690476D01*
X82535000Y-125642857D01*
X82487381Y-125547619D01*
X82487381Y-124309523D02*
X82487381Y-124785714D01*
X82963571Y-124833333D01*
X82915952Y-124785714D01*
X82868333Y-124690476D01*
X82868333Y-124452380D01*
X82915952Y-124357142D01*
X82963571Y-124309523D01*
X83058810Y-124261904D01*
X83296905Y-124261904D01*
X83392143Y-124309523D01*
X83439762Y-124357142D01*
X83487381Y-124452380D01*
X83487381Y-124690476D01*
X83439762Y-124785714D01*
X83392143Y-124833333D01*
X125079881Y-91495476D02*
X124079881Y-91495476D01*
X124079881Y-91257381D01*
X124127500Y-91114523D01*
X124222738Y-91019285D01*
X124317976Y-90971666D01*
X124508452Y-90924047D01*
X124651310Y-90924047D01*
X124841786Y-90971666D01*
X124937024Y-91019285D01*
X125032262Y-91114523D01*
X125079881Y-91257381D01*
X125079881Y-91495476D01*
X125079881Y-89971666D02*
X125079881Y-90543095D01*
X125079881Y-90257381D02*
X124079881Y-90257381D01*
X124222738Y-90352619D01*
X124317976Y-90447857D01*
X124365595Y-90543095D01*
X124079881Y-89352619D02*
X124079881Y-89257380D01*
X124127500Y-89162142D01*
X124175119Y-89114523D01*
X124270357Y-89066904D01*
X124460833Y-89019285D01*
X124698929Y-89019285D01*
X124889405Y-89066904D01*
X124984643Y-89114523D01*
X125032262Y-89162142D01*
X125079881Y-89257380D01*
X125079881Y-89352619D01*
X125032262Y-89447857D01*
X124984643Y-89495476D01*
X124889405Y-89543095D01*
X124698929Y-89590714D01*
X124460833Y-89590714D01*
X124270357Y-89543095D01*
X124175119Y-89495476D01*
X124127500Y-89447857D01*
X124079881Y-89352619D01*
X124079881Y-88114523D02*
X124079881Y-88590714D01*
X124556071Y-88638333D01*
X124508452Y-88590714D01*
X124460833Y-88495476D01*
X124460833Y-88257380D01*
X124508452Y-88162142D01*
X124556071Y-88114523D01*
X124651310Y-88066904D01*
X124889405Y-88066904D01*
X124984643Y-88114523D01*
X125032262Y-88162142D01*
X125079881Y-88257380D01*
X125079881Y-88495476D01*
X125032262Y-88590714D01*
X124984643Y-88638333D01*
X133969881Y-127690476D02*
X132969881Y-127690476D01*
X132969881Y-127452381D01*
X133017500Y-127309523D01*
X133112738Y-127214285D01*
X133207976Y-127166666D01*
X133398452Y-127119047D01*
X133541310Y-127119047D01*
X133731786Y-127166666D01*
X133827024Y-127214285D01*
X133922262Y-127309523D01*
X133969881Y-127452381D01*
X133969881Y-127690476D01*
X133969881Y-126166666D02*
X133969881Y-126738095D01*
X133969881Y-126452381D02*
X132969881Y-126452381D01*
X133112738Y-126547619D01*
X133207976Y-126642857D01*
X133255595Y-126738095D01*
X132969881Y-125547619D02*
X132969881Y-125452380D01*
X133017500Y-125357142D01*
X133065119Y-125309523D01*
X133160357Y-125261904D01*
X133350833Y-125214285D01*
X133588929Y-125214285D01*
X133779405Y-125261904D01*
X133874643Y-125309523D01*
X133922262Y-125357142D01*
X133969881Y-125452380D01*
X133969881Y-125547619D01*
X133922262Y-125642857D01*
X133874643Y-125690476D01*
X133779405Y-125738095D01*
X133588929Y-125785714D01*
X133350833Y-125785714D01*
X133160357Y-125738095D01*
X133065119Y-125690476D01*
X133017500Y-125642857D01*
X132969881Y-125547619D01*
X132969881Y-124880952D02*
X132969881Y-124214285D01*
X133969881Y-124642857D01*
X92377381Y-127690476D02*
X91377381Y-127690476D01*
X91377381Y-127452381D01*
X91425000Y-127309523D01*
X91520238Y-127214285D01*
X91615476Y-127166666D01*
X91805952Y-127119047D01*
X91948810Y-127119047D01*
X92139286Y-127166666D01*
X92234524Y-127214285D01*
X92329762Y-127309523D01*
X92377381Y-127452381D01*
X92377381Y-127690476D01*
X92377381Y-126166666D02*
X92377381Y-126738095D01*
X92377381Y-126452381D02*
X91377381Y-126452381D01*
X91520238Y-126547619D01*
X91615476Y-126642857D01*
X91663095Y-126738095D01*
X91377381Y-125547619D02*
X91377381Y-125452380D01*
X91425000Y-125357142D01*
X91472619Y-125309523D01*
X91567857Y-125261904D01*
X91758333Y-125214285D01*
X91996429Y-125214285D01*
X92186905Y-125261904D01*
X92282143Y-125309523D01*
X92329762Y-125357142D01*
X92377381Y-125452380D01*
X92377381Y-125547619D01*
X92329762Y-125642857D01*
X92282143Y-125690476D01*
X92186905Y-125738095D01*
X91996429Y-125785714D01*
X91758333Y-125785714D01*
X91567857Y-125738095D01*
X91472619Y-125690476D01*
X91425000Y-125642857D01*
X91377381Y-125547619D01*
X91377381Y-124880952D02*
X91377381Y-124214285D01*
X92377381Y-124642857D01*
X133969881Y-91495476D02*
X132969881Y-91495476D01*
X132969881Y-91257381D01*
X133017500Y-91114523D01*
X133112738Y-91019285D01*
X133207976Y-90971666D01*
X133398452Y-90924047D01*
X133541310Y-90924047D01*
X133731786Y-90971666D01*
X133827024Y-91019285D01*
X133922262Y-91114523D01*
X133969881Y-91257381D01*
X133969881Y-91495476D01*
X133969881Y-89971666D02*
X133969881Y-90543095D01*
X133969881Y-90257381D02*
X132969881Y-90257381D01*
X133112738Y-90352619D01*
X133207976Y-90447857D01*
X133255595Y-90543095D01*
X132969881Y-89352619D02*
X132969881Y-89257380D01*
X133017500Y-89162142D01*
X133065119Y-89114523D01*
X133160357Y-89066904D01*
X133350833Y-89019285D01*
X133588929Y-89019285D01*
X133779405Y-89066904D01*
X133874643Y-89114523D01*
X133922262Y-89162142D01*
X133969881Y-89257380D01*
X133969881Y-89352619D01*
X133922262Y-89447857D01*
X133874643Y-89495476D01*
X133779405Y-89543095D01*
X133588929Y-89590714D01*
X133350833Y-89590714D01*
X133160357Y-89543095D01*
X133065119Y-89495476D01*
X133017500Y-89447857D01*
X132969881Y-89352619D01*
X132969881Y-88685952D02*
X132969881Y-88019285D01*
X133969881Y-88447857D01*
X129524881Y-127690476D02*
X128524881Y-127690476D01*
X128524881Y-127452381D01*
X128572500Y-127309523D01*
X128667738Y-127214285D01*
X128762976Y-127166666D01*
X128953452Y-127119047D01*
X129096310Y-127119047D01*
X129286786Y-127166666D01*
X129382024Y-127214285D01*
X129477262Y-127309523D01*
X129524881Y-127452381D01*
X129524881Y-127690476D01*
X129524881Y-126166666D02*
X129524881Y-126738095D01*
X129524881Y-126452381D02*
X128524881Y-126452381D01*
X128667738Y-126547619D01*
X128762976Y-126642857D01*
X128810595Y-126738095D01*
X128524881Y-125547619D02*
X128524881Y-125452380D01*
X128572500Y-125357142D01*
X128620119Y-125309523D01*
X128715357Y-125261904D01*
X128905833Y-125214285D01*
X129143929Y-125214285D01*
X129334405Y-125261904D01*
X129429643Y-125309523D01*
X129477262Y-125357142D01*
X129524881Y-125452380D01*
X129524881Y-125547619D01*
X129477262Y-125642857D01*
X129429643Y-125690476D01*
X129334405Y-125738095D01*
X129143929Y-125785714D01*
X128905833Y-125785714D01*
X128715357Y-125738095D01*
X128620119Y-125690476D01*
X128572500Y-125642857D01*
X128524881Y-125547619D01*
X128524881Y-124357142D02*
X128524881Y-124547619D01*
X128572500Y-124642857D01*
X128620119Y-124690476D01*
X128762976Y-124785714D01*
X128953452Y-124833333D01*
X129334405Y-124833333D01*
X129429643Y-124785714D01*
X129477262Y-124738095D01*
X129524881Y-124642857D01*
X129524881Y-124452380D01*
X129477262Y-124357142D01*
X129429643Y-124309523D01*
X129334405Y-124261904D01*
X129096310Y-124261904D01*
X129001071Y-124309523D01*
X128953452Y-124357142D01*
X128905833Y-124452380D01*
X128905833Y-124642857D01*
X128953452Y-124738095D01*
X129001071Y-124785714D01*
X129096310Y-124833333D01*
X87932381Y-127690476D02*
X86932381Y-127690476D01*
X86932381Y-127452381D01*
X86980000Y-127309523D01*
X87075238Y-127214285D01*
X87170476Y-127166666D01*
X87360952Y-127119047D01*
X87503810Y-127119047D01*
X87694286Y-127166666D01*
X87789524Y-127214285D01*
X87884762Y-127309523D01*
X87932381Y-127452381D01*
X87932381Y-127690476D01*
X87932381Y-126166666D02*
X87932381Y-126738095D01*
X87932381Y-126452381D02*
X86932381Y-126452381D01*
X87075238Y-126547619D01*
X87170476Y-126642857D01*
X87218095Y-126738095D01*
X86932381Y-125547619D02*
X86932381Y-125452380D01*
X86980000Y-125357142D01*
X87027619Y-125309523D01*
X87122857Y-125261904D01*
X87313333Y-125214285D01*
X87551429Y-125214285D01*
X87741905Y-125261904D01*
X87837143Y-125309523D01*
X87884762Y-125357142D01*
X87932381Y-125452380D01*
X87932381Y-125547619D01*
X87884762Y-125642857D01*
X87837143Y-125690476D01*
X87741905Y-125738095D01*
X87551429Y-125785714D01*
X87313333Y-125785714D01*
X87122857Y-125738095D01*
X87027619Y-125690476D01*
X86980000Y-125642857D01*
X86932381Y-125547619D01*
X86932381Y-124357142D02*
X86932381Y-124547619D01*
X86980000Y-124642857D01*
X87027619Y-124690476D01*
X87170476Y-124785714D01*
X87360952Y-124833333D01*
X87741905Y-124833333D01*
X87837143Y-124785714D01*
X87884762Y-124738095D01*
X87932381Y-124642857D01*
X87932381Y-124452380D01*
X87884762Y-124357142D01*
X87837143Y-124309523D01*
X87741905Y-124261904D01*
X87503810Y-124261904D01*
X87408571Y-124309523D01*
X87360952Y-124357142D01*
X87313333Y-124452380D01*
X87313333Y-124642857D01*
X87360952Y-124738095D01*
X87408571Y-124785714D01*
X87503810Y-124833333D01*
X129524881Y-91495476D02*
X128524881Y-91495476D01*
X128524881Y-91257381D01*
X128572500Y-91114523D01*
X128667738Y-91019285D01*
X128762976Y-90971666D01*
X128953452Y-90924047D01*
X129096310Y-90924047D01*
X129286786Y-90971666D01*
X129382024Y-91019285D01*
X129477262Y-91114523D01*
X129524881Y-91257381D01*
X129524881Y-91495476D01*
X129524881Y-89971666D02*
X129524881Y-90543095D01*
X129524881Y-90257381D02*
X128524881Y-90257381D01*
X128667738Y-90352619D01*
X128762976Y-90447857D01*
X128810595Y-90543095D01*
X128524881Y-89352619D02*
X128524881Y-89257380D01*
X128572500Y-89162142D01*
X128620119Y-89114523D01*
X128715357Y-89066904D01*
X128905833Y-89019285D01*
X129143929Y-89019285D01*
X129334405Y-89066904D01*
X129429643Y-89114523D01*
X129477262Y-89162142D01*
X129524881Y-89257380D01*
X129524881Y-89352619D01*
X129477262Y-89447857D01*
X129429643Y-89495476D01*
X129334405Y-89543095D01*
X129143929Y-89590714D01*
X128905833Y-89590714D01*
X128715357Y-89543095D01*
X128620119Y-89495476D01*
X128572500Y-89447857D01*
X128524881Y-89352619D01*
X128524881Y-88162142D02*
X128524881Y-88352619D01*
X128572500Y-88447857D01*
X128620119Y-88495476D01*
X128762976Y-88590714D01*
X128953452Y-88638333D01*
X129334405Y-88638333D01*
X129429643Y-88590714D01*
X129477262Y-88543095D01*
X129524881Y-88447857D01*
X129524881Y-88257380D01*
X129477262Y-88162142D01*
X129429643Y-88114523D01*
X129334405Y-88066904D01*
X129096310Y-88066904D01*
X129001071Y-88114523D01*
X128953452Y-88162142D01*
X128905833Y-88257380D01*
X128905833Y-88447857D01*
X128953452Y-88543095D01*
X129001071Y-88590714D01*
X129096310Y-88638333D01*
X141859286Y-100897381D02*
X141859286Y-101611667D01*
X141811666Y-101754524D01*
X141716428Y-101849762D01*
X141573571Y-101897381D01*
X141478333Y-101897381D01*
X142859286Y-101897381D02*
X142287857Y-101897381D01*
X142573571Y-101897381D02*
X142573571Y-100897381D01*
X142478333Y-101040238D01*
X142383095Y-101135476D01*
X142287857Y-101183095D01*
X143478333Y-100897381D02*
X143573572Y-100897381D01*
X143668810Y-100945000D01*
X143716429Y-100992619D01*
X143764048Y-101087857D01*
X143811667Y-101278333D01*
X143811667Y-101516429D01*
X143764048Y-101706905D01*
X143716429Y-101802143D01*
X143668810Y-101849762D01*
X143573572Y-101897381D01*
X143478333Y-101897381D01*
X143383095Y-101849762D01*
X143335476Y-101802143D01*
X143287857Y-101706905D01*
X143240238Y-101516429D01*
X143240238Y-101278333D01*
X143287857Y-101087857D01*
X143335476Y-100992619D01*
X143383095Y-100945000D01*
X143478333Y-100897381D01*
X144192619Y-100992619D02*
X144240238Y-100945000D01*
X144335476Y-100897381D01*
X144573572Y-100897381D01*
X144668810Y-100945000D01*
X144716429Y-100992619D01*
X144764048Y-101087857D01*
X144764048Y-101183095D01*
X144716429Y-101325952D01*
X144145000Y-101897381D01*
X144764048Y-101897381D01*
X100266786Y-100897381D02*
X100266786Y-101611667D01*
X100219166Y-101754524D01*
X100123928Y-101849762D01*
X99981071Y-101897381D01*
X99885833Y-101897381D01*
X101266786Y-101897381D02*
X100695357Y-101897381D01*
X100981071Y-101897381D02*
X100981071Y-100897381D01*
X100885833Y-101040238D01*
X100790595Y-101135476D01*
X100695357Y-101183095D01*
X101885833Y-100897381D02*
X101981072Y-100897381D01*
X102076310Y-100945000D01*
X102123929Y-100992619D01*
X102171548Y-101087857D01*
X102219167Y-101278333D01*
X102219167Y-101516429D01*
X102171548Y-101706905D01*
X102123929Y-101802143D01*
X102076310Y-101849762D01*
X101981072Y-101897381D01*
X101885833Y-101897381D01*
X101790595Y-101849762D01*
X101742976Y-101802143D01*
X101695357Y-101706905D01*
X101647738Y-101516429D01*
X101647738Y-101278333D01*
X101695357Y-101087857D01*
X101742976Y-100992619D01*
X101790595Y-100945000D01*
X101885833Y-100897381D01*
X102600119Y-100992619D02*
X102647738Y-100945000D01*
X102742976Y-100897381D01*
X102981072Y-100897381D01*
X103076310Y-100945000D01*
X103123929Y-100992619D01*
X103171548Y-101087857D01*
X103171548Y-101183095D01*
X103123929Y-101325952D01*
X102552500Y-101897381D01*
X103171548Y-101897381D01*
X141859286Y-64702381D02*
X141859286Y-65416667D01*
X141811666Y-65559524D01*
X141716428Y-65654762D01*
X141573571Y-65702381D01*
X141478333Y-65702381D01*
X142859286Y-65702381D02*
X142287857Y-65702381D01*
X142573571Y-65702381D02*
X142573571Y-64702381D01*
X142478333Y-64845238D01*
X142383095Y-64940476D01*
X142287857Y-64988095D01*
X143478333Y-64702381D02*
X143573572Y-64702381D01*
X143668810Y-64750000D01*
X143716429Y-64797619D01*
X143764048Y-64892857D01*
X143811667Y-65083333D01*
X143811667Y-65321429D01*
X143764048Y-65511905D01*
X143716429Y-65607143D01*
X143668810Y-65654762D01*
X143573572Y-65702381D01*
X143478333Y-65702381D01*
X143383095Y-65654762D01*
X143335476Y-65607143D01*
X143287857Y-65511905D01*
X143240238Y-65321429D01*
X143240238Y-65083333D01*
X143287857Y-64892857D01*
X143335476Y-64797619D01*
X143383095Y-64750000D01*
X143478333Y-64702381D01*
X144192619Y-64797619D02*
X144240238Y-64750000D01*
X144335476Y-64702381D01*
X144573572Y-64702381D01*
X144668810Y-64750000D01*
X144716429Y-64797619D01*
X144764048Y-64892857D01*
X144764048Y-64988095D01*
X144716429Y-65130952D01*
X144145000Y-65702381D01*
X144764048Y-65702381D01*
X126801619Y-117840119D02*
X126754000Y-117935357D01*
X126658762Y-118030595D01*
X126515905Y-118173452D01*
X126468286Y-118268691D01*
X126468286Y-118363929D01*
X126706381Y-118316310D02*
X126658762Y-118411548D01*
X126563524Y-118506786D01*
X126373048Y-118554405D01*
X126039714Y-118554405D01*
X125849238Y-118506786D01*
X125754000Y-118411548D01*
X125706381Y-118316310D01*
X125706381Y-118125833D01*
X125754000Y-118030595D01*
X125849238Y-117935357D01*
X126039714Y-117887738D01*
X126373048Y-117887738D01*
X126563524Y-117935357D01*
X126658762Y-118030595D01*
X126706381Y-118125833D01*
X126706381Y-118316310D01*
X126706381Y-116935357D02*
X126706381Y-117506786D01*
X126706381Y-117221072D02*
X125706381Y-117221072D01*
X125849238Y-117316310D01*
X125944476Y-117411548D01*
X125992095Y-117506786D01*
X125706381Y-116316310D02*
X125706381Y-116221071D01*
X125754000Y-116125833D01*
X125801619Y-116078214D01*
X125896857Y-116030595D01*
X126087333Y-115982976D01*
X126325429Y-115982976D01*
X126515905Y-116030595D01*
X126611143Y-116078214D01*
X126658762Y-116125833D01*
X126706381Y-116221071D01*
X126706381Y-116316310D01*
X126658762Y-116411548D01*
X126611143Y-116459167D01*
X126515905Y-116506786D01*
X126325429Y-116554405D01*
X126087333Y-116554405D01*
X125896857Y-116506786D01*
X125801619Y-116459167D01*
X125754000Y-116411548D01*
X125706381Y-116316310D01*
X125706381Y-115078214D02*
X125706381Y-115554405D01*
X126182571Y-115602024D01*
X126134952Y-115554405D01*
X126087333Y-115459167D01*
X126087333Y-115221071D01*
X126134952Y-115125833D01*
X126182571Y-115078214D01*
X126277810Y-115030595D01*
X126515905Y-115030595D01*
X126611143Y-115078214D01*
X126658762Y-115125833D01*
X126706381Y-115221071D01*
X126706381Y-115459167D01*
X126658762Y-115554405D01*
X126611143Y-115602024D01*
X85209119Y-117840119D02*
X85161500Y-117935357D01*
X85066262Y-118030595D01*
X84923405Y-118173452D01*
X84875786Y-118268691D01*
X84875786Y-118363929D01*
X85113881Y-118316310D02*
X85066262Y-118411548D01*
X84971024Y-118506786D01*
X84780548Y-118554405D01*
X84447214Y-118554405D01*
X84256738Y-118506786D01*
X84161500Y-118411548D01*
X84113881Y-118316310D01*
X84113881Y-118125833D01*
X84161500Y-118030595D01*
X84256738Y-117935357D01*
X84447214Y-117887738D01*
X84780548Y-117887738D01*
X84971024Y-117935357D01*
X85066262Y-118030595D01*
X85113881Y-118125833D01*
X85113881Y-118316310D01*
X85113881Y-116935357D02*
X85113881Y-117506786D01*
X85113881Y-117221072D02*
X84113881Y-117221072D01*
X84256738Y-117316310D01*
X84351976Y-117411548D01*
X84399595Y-117506786D01*
X84113881Y-116316310D02*
X84113881Y-116221071D01*
X84161500Y-116125833D01*
X84209119Y-116078214D01*
X84304357Y-116030595D01*
X84494833Y-115982976D01*
X84732929Y-115982976D01*
X84923405Y-116030595D01*
X85018643Y-116078214D01*
X85066262Y-116125833D01*
X85113881Y-116221071D01*
X85113881Y-116316310D01*
X85066262Y-116411548D01*
X85018643Y-116459167D01*
X84923405Y-116506786D01*
X84732929Y-116554405D01*
X84494833Y-116554405D01*
X84304357Y-116506786D01*
X84209119Y-116459167D01*
X84161500Y-116411548D01*
X84113881Y-116316310D01*
X84113881Y-115078214D02*
X84113881Y-115554405D01*
X84590071Y-115602024D01*
X84542452Y-115554405D01*
X84494833Y-115459167D01*
X84494833Y-115221071D01*
X84542452Y-115125833D01*
X84590071Y-115078214D01*
X84685310Y-115030595D01*
X84923405Y-115030595D01*
X85018643Y-115078214D01*
X85066262Y-115125833D01*
X85113881Y-115221071D01*
X85113881Y-115459167D01*
X85066262Y-115554405D01*
X85018643Y-115602024D01*
X126801619Y-81645119D02*
X126754000Y-81740357D01*
X126658762Y-81835595D01*
X126515905Y-81978452D01*
X126468286Y-82073691D01*
X126468286Y-82168929D01*
X126706381Y-82121310D02*
X126658762Y-82216548D01*
X126563524Y-82311786D01*
X126373048Y-82359405D01*
X126039714Y-82359405D01*
X125849238Y-82311786D01*
X125754000Y-82216548D01*
X125706381Y-82121310D01*
X125706381Y-81930833D01*
X125754000Y-81835595D01*
X125849238Y-81740357D01*
X126039714Y-81692738D01*
X126373048Y-81692738D01*
X126563524Y-81740357D01*
X126658762Y-81835595D01*
X126706381Y-81930833D01*
X126706381Y-82121310D01*
X126706381Y-80740357D02*
X126706381Y-81311786D01*
X126706381Y-81026072D02*
X125706381Y-81026072D01*
X125849238Y-81121310D01*
X125944476Y-81216548D01*
X125992095Y-81311786D01*
X125706381Y-80121310D02*
X125706381Y-80026071D01*
X125754000Y-79930833D01*
X125801619Y-79883214D01*
X125896857Y-79835595D01*
X126087333Y-79787976D01*
X126325429Y-79787976D01*
X126515905Y-79835595D01*
X126611143Y-79883214D01*
X126658762Y-79930833D01*
X126706381Y-80026071D01*
X126706381Y-80121310D01*
X126658762Y-80216548D01*
X126611143Y-80264167D01*
X126515905Y-80311786D01*
X126325429Y-80359405D01*
X126087333Y-80359405D01*
X125896857Y-80311786D01*
X125801619Y-80264167D01*
X125754000Y-80216548D01*
X125706381Y-80121310D01*
X125706381Y-78883214D02*
X125706381Y-79359405D01*
X126182571Y-79407024D01*
X126134952Y-79359405D01*
X126087333Y-79264167D01*
X126087333Y-79026071D01*
X126134952Y-78930833D01*
X126182571Y-78883214D01*
X126277810Y-78835595D01*
X126515905Y-78835595D01*
X126611143Y-78883214D01*
X126658762Y-78930833D01*
X126706381Y-79026071D01*
X126706381Y-79264167D01*
X126658762Y-79359405D01*
X126611143Y-79407024D01*
X140422381Y-110291547D02*
X139946190Y-110624881D01*
X140422381Y-110862976D02*
X139422381Y-110862976D01*
X139422381Y-110482023D01*
X139470000Y-110386785D01*
X139517619Y-110339166D01*
X139612857Y-110291547D01*
X139755714Y-110291547D01*
X139850952Y-110339166D01*
X139898571Y-110386785D01*
X139946190Y-110482023D01*
X139946190Y-110862976D01*
X140422381Y-109339166D02*
X140422381Y-109910595D01*
X140422381Y-109624881D02*
X139422381Y-109624881D01*
X139565238Y-109720119D01*
X139660476Y-109815357D01*
X139708095Y-109910595D01*
X139422381Y-108720119D02*
X139422381Y-108624880D01*
X139470000Y-108529642D01*
X139517619Y-108482023D01*
X139612857Y-108434404D01*
X139803333Y-108386785D01*
X140041429Y-108386785D01*
X140231905Y-108434404D01*
X140327143Y-108482023D01*
X140374762Y-108529642D01*
X140422381Y-108624880D01*
X140422381Y-108720119D01*
X140374762Y-108815357D01*
X140327143Y-108862976D01*
X140231905Y-108910595D01*
X140041429Y-108958214D01*
X139803333Y-108958214D01*
X139612857Y-108910595D01*
X139517619Y-108862976D01*
X139470000Y-108815357D01*
X139422381Y-108720119D01*
X139850952Y-107815357D02*
X139803333Y-107910595D01*
X139755714Y-107958214D01*
X139660476Y-108005833D01*
X139612857Y-108005833D01*
X139517619Y-107958214D01*
X139470000Y-107910595D01*
X139422381Y-107815357D01*
X139422381Y-107624880D01*
X139470000Y-107529642D01*
X139517619Y-107482023D01*
X139612857Y-107434404D01*
X139660476Y-107434404D01*
X139755714Y-107482023D01*
X139803333Y-107529642D01*
X139850952Y-107624880D01*
X139850952Y-107815357D01*
X139898571Y-107910595D01*
X139946190Y-107958214D01*
X140041429Y-108005833D01*
X140231905Y-108005833D01*
X140327143Y-107958214D01*
X140374762Y-107910595D01*
X140422381Y-107815357D01*
X140422381Y-107624880D01*
X140374762Y-107529642D01*
X140327143Y-107482023D01*
X140231905Y-107434404D01*
X140041429Y-107434404D01*
X139946190Y-107482023D01*
X139898571Y-107529642D01*
X139850952Y-107624880D01*
X98829881Y-110291547D02*
X98353690Y-110624881D01*
X98829881Y-110862976D02*
X97829881Y-110862976D01*
X97829881Y-110482023D01*
X97877500Y-110386785D01*
X97925119Y-110339166D01*
X98020357Y-110291547D01*
X98163214Y-110291547D01*
X98258452Y-110339166D01*
X98306071Y-110386785D01*
X98353690Y-110482023D01*
X98353690Y-110862976D01*
X98829881Y-109339166D02*
X98829881Y-109910595D01*
X98829881Y-109624881D02*
X97829881Y-109624881D01*
X97972738Y-109720119D01*
X98067976Y-109815357D01*
X98115595Y-109910595D01*
X97829881Y-108720119D02*
X97829881Y-108624880D01*
X97877500Y-108529642D01*
X97925119Y-108482023D01*
X98020357Y-108434404D01*
X98210833Y-108386785D01*
X98448929Y-108386785D01*
X98639405Y-108434404D01*
X98734643Y-108482023D01*
X98782262Y-108529642D01*
X98829881Y-108624880D01*
X98829881Y-108720119D01*
X98782262Y-108815357D01*
X98734643Y-108862976D01*
X98639405Y-108910595D01*
X98448929Y-108958214D01*
X98210833Y-108958214D01*
X98020357Y-108910595D01*
X97925119Y-108862976D01*
X97877500Y-108815357D01*
X97829881Y-108720119D01*
X98258452Y-107815357D02*
X98210833Y-107910595D01*
X98163214Y-107958214D01*
X98067976Y-108005833D01*
X98020357Y-108005833D01*
X97925119Y-107958214D01*
X97877500Y-107910595D01*
X97829881Y-107815357D01*
X97829881Y-107624880D01*
X97877500Y-107529642D01*
X97925119Y-107482023D01*
X98020357Y-107434404D01*
X98067976Y-107434404D01*
X98163214Y-107482023D01*
X98210833Y-107529642D01*
X98258452Y-107624880D01*
X98258452Y-107815357D01*
X98306071Y-107910595D01*
X98353690Y-107958214D01*
X98448929Y-108005833D01*
X98639405Y-108005833D01*
X98734643Y-107958214D01*
X98782262Y-107910595D01*
X98829881Y-107815357D01*
X98829881Y-107624880D01*
X98782262Y-107529642D01*
X98734643Y-107482023D01*
X98639405Y-107434404D01*
X98448929Y-107434404D01*
X98353690Y-107482023D01*
X98306071Y-107529642D01*
X98258452Y-107624880D01*
X140422381Y-74096547D02*
X139946190Y-74429881D01*
X140422381Y-74667976D02*
X139422381Y-74667976D01*
X139422381Y-74287023D01*
X139470000Y-74191785D01*
X139517619Y-74144166D01*
X139612857Y-74096547D01*
X139755714Y-74096547D01*
X139850952Y-74144166D01*
X139898571Y-74191785D01*
X139946190Y-74287023D01*
X139946190Y-74667976D01*
X140422381Y-73144166D02*
X140422381Y-73715595D01*
X140422381Y-73429881D02*
X139422381Y-73429881D01*
X139565238Y-73525119D01*
X139660476Y-73620357D01*
X139708095Y-73715595D01*
X139422381Y-72525119D02*
X139422381Y-72429880D01*
X139470000Y-72334642D01*
X139517619Y-72287023D01*
X139612857Y-72239404D01*
X139803333Y-72191785D01*
X140041429Y-72191785D01*
X140231905Y-72239404D01*
X140327143Y-72287023D01*
X140374762Y-72334642D01*
X140422381Y-72429880D01*
X140422381Y-72525119D01*
X140374762Y-72620357D01*
X140327143Y-72667976D01*
X140231905Y-72715595D01*
X140041429Y-72763214D01*
X139803333Y-72763214D01*
X139612857Y-72715595D01*
X139517619Y-72667976D01*
X139470000Y-72620357D01*
X139422381Y-72525119D01*
X139850952Y-71620357D02*
X139803333Y-71715595D01*
X139755714Y-71763214D01*
X139660476Y-71810833D01*
X139612857Y-71810833D01*
X139517619Y-71763214D01*
X139470000Y-71715595D01*
X139422381Y-71620357D01*
X139422381Y-71429880D01*
X139470000Y-71334642D01*
X139517619Y-71287023D01*
X139612857Y-71239404D01*
X139660476Y-71239404D01*
X139755714Y-71287023D01*
X139803333Y-71334642D01*
X139850952Y-71429880D01*
X139850952Y-71620357D01*
X139898571Y-71715595D01*
X139946190Y-71763214D01*
X140041429Y-71810833D01*
X140231905Y-71810833D01*
X140327143Y-71763214D01*
X140374762Y-71715595D01*
X140422381Y-71620357D01*
X140422381Y-71429880D01*
X140374762Y-71334642D01*
X140327143Y-71287023D01*
X140231905Y-71239404D01*
X140041429Y-71239404D01*
X139946190Y-71287023D01*
X139898571Y-71334642D01*
X139850952Y-71429880D01*
X136929881Y-110291547D02*
X136453690Y-110624881D01*
X136929881Y-110862976D02*
X135929881Y-110862976D01*
X135929881Y-110482023D01*
X135977500Y-110386785D01*
X136025119Y-110339166D01*
X136120357Y-110291547D01*
X136263214Y-110291547D01*
X136358452Y-110339166D01*
X136406071Y-110386785D01*
X136453690Y-110482023D01*
X136453690Y-110862976D01*
X136929881Y-109339166D02*
X136929881Y-109910595D01*
X136929881Y-109624881D02*
X135929881Y-109624881D01*
X136072738Y-109720119D01*
X136167976Y-109815357D01*
X136215595Y-109910595D01*
X135929881Y-108720119D02*
X135929881Y-108624880D01*
X135977500Y-108529642D01*
X136025119Y-108482023D01*
X136120357Y-108434404D01*
X136310833Y-108386785D01*
X136548929Y-108386785D01*
X136739405Y-108434404D01*
X136834643Y-108482023D01*
X136882262Y-108529642D01*
X136929881Y-108624880D01*
X136929881Y-108720119D01*
X136882262Y-108815357D01*
X136834643Y-108862976D01*
X136739405Y-108910595D01*
X136548929Y-108958214D01*
X136310833Y-108958214D01*
X136120357Y-108910595D01*
X136025119Y-108862976D01*
X135977500Y-108815357D01*
X135929881Y-108720119D01*
X135929881Y-108053452D02*
X135929881Y-107386785D01*
X136929881Y-107815357D01*
X95337381Y-110291547D02*
X94861190Y-110624881D01*
X95337381Y-110862976D02*
X94337381Y-110862976D01*
X94337381Y-110482023D01*
X94385000Y-110386785D01*
X94432619Y-110339166D01*
X94527857Y-110291547D01*
X94670714Y-110291547D01*
X94765952Y-110339166D01*
X94813571Y-110386785D01*
X94861190Y-110482023D01*
X94861190Y-110862976D01*
X95337381Y-109339166D02*
X95337381Y-109910595D01*
X95337381Y-109624881D02*
X94337381Y-109624881D01*
X94480238Y-109720119D01*
X94575476Y-109815357D01*
X94623095Y-109910595D01*
X94337381Y-108720119D02*
X94337381Y-108624880D01*
X94385000Y-108529642D01*
X94432619Y-108482023D01*
X94527857Y-108434404D01*
X94718333Y-108386785D01*
X94956429Y-108386785D01*
X95146905Y-108434404D01*
X95242143Y-108482023D01*
X95289762Y-108529642D01*
X95337381Y-108624880D01*
X95337381Y-108720119D01*
X95289762Y-108815357D01*
X95242143Y-108862976D01*
X95146905Y-108910595D01*
X94956429Y-108958214D01*
X94718333Y-108958214D01*
X94527857Y-108910595D01*
X94432619Y-108862976D01*
X94385000Y-108815357D01*
X94337381Y-108720119D01*
X94337381Y-108053452D02*
X94337381Y-107386785D01*
X95337381Y-107815357D01*
X136929881Y-74096547D02*
X136453690Y-74429881D01*
X136929881Y-74667976D02*
X135929881Y-74667976D01*
X135929881Y-74287023D01*
X135977500Y-74191785D01*
X136025119Y-74144166D01*
X136120357Y-74096547D01*
X136263214Y-74096547D01*
X136358452Y-74144166D01*
X136406071Y-74191785D01*
X136453690Y-74287023D01*
X136453690Y-74667976D01*
X136929881Y-73144166D02*
X136929881Y-73715595D01*
X136929881Y-73429881D02*
X135929881Y-73429881D01*
X136072738Y-73525119D01*
X136167976Y-73620357D01*
X136215595Y-73715595D01*
X135929881Y-72525119D02*
X135929881Y-72429880D01*
X135977500Y-72334642D01*
X136025119Y-72287023D01*
X136120357Y-72239404D01*
X136310833Y-72191785D01*
X136548929Y-72191785D01*
X136739405Y-72239404D01*
X136834643Y-72287023D01*
X136882262Y-72334642D01*
X136929881Y-72429880D01*
X136929881Y-72525119D01*
X136882262Y-72620357D01*
X136834643Y-72667976D01*
X136739405Y-72715595D01*
X136548929Y-72763214D01*
X136310833Y-72763214D01*
X136120357Y-72715595D01*
X136025119Y-72667976D01*
X135977500Y-72620357D01*
X135929881Y-72525119D01*
X135929881Y-71858452D02*
X135929881Y-71191785D01*
X136929881Y-71620357D01*
X136326619Y-117840119D02*
X136279000Y-117935357D01*
X136183762Y-118030595D01*
X136040905Y-118173452D01*
X135993286Y-118268691D01*
X135993286Y-118363929D01*
X136231381Y-118316310D02*
X136183762Y-118411548D01*
X136088524Y-118506786D01*
X135898048Y-118554405D01*
X135564714Y-118554405D01*
X135374238Y-118506786D01*
X135279000Y-118411548D01*
X135231381Y-118316310D01*
X135231381Y-118125833D01*
X135279000Y-118030595D01*
X135374238Y-117935357D01*
X135564714Y-117887738D01*
X135898048Y-117887738D01*
X136088524Y-117935357D01*
X136183762Y-118030595D01*
X136231381Y-118125833D01*
X136231381Y-118316310D01*
X136231381Y-116935357D02*
X136231381Y-117506786D01*
X136231381Y-117221072D02*
X135231381Y-117221072D01*
X135374238Y-117316310D01*
X135469476Y-117411548D01*
X135517095Y-117506786D01*
X135231381Y-116316310D02*
X135231381Y-116221071D01*
X135279000Y-116125833D01*
X135326619Y-116078214D01*
X135421857Y-116030595D01*
X135612333Y-115982976D01*
X135850429Y-115982976D01*
X136040905Y-116030595D01*
X136136143Y-116078214D01*
X136183762Y-116125833D01*
X136231381Y-116221071D01*
X136231381Y-116316310D01*
X136183762Y-116411548D01*
X136136143Y-116459167D01*
X136040905Y-116506786D01*
X135850429Y-116554405D01*
X135612333Y-116554405D01*
X135421857Y-116506786D01*
X135326619Y-116459167D01*
X135279000Y-116411548D01*
X135231381Y-116316310D01*
X135231381Y-115649643D02*
X135231381Y-114982976D01*
X136231381Y-115411548D01*
X94734119Y-117840119D02*
X94686500Y-117935357D01*
X94591262Y-118030595D01*
X94448405Y-118173452D01*
X94400786Y-118268691D01*
X94400786Y-118363929D01*
X94638881Y-118316310D02*
X94591262Y-118411548D01*
X94496024Y-118506786D01*
X94305548Y-118554405D01*
X93972214Y-118554405D01*
X93781738Y-118506786D01*
X93686500Y-118411548D01*
X93638881Y-118316310D01*
X93638881Y-118125833D01*
X93686500Y-118030595D01*
X93781738Y-117935357D01*
X93972214Y-117887738D01*
X94305548Y-117887738D01*
X94496024Y-117935357D01*
X94591262Y-118030595D01*
X94638881Y-118125833D01*
X94638881Y-118316310D01*
X94638881Y-116935357D02*
X94638881Y-117506786D01*
X94638881Y-117221072D02*
X93638881Y-117221072D01*
X93781738Y-117316310D01*
X93876976Y-117411548D01*
X93924595Y-117506786D01*
X93638881Y-116316310D02*
X93638881Y-116221071D01*
X93686500Y-116125833D01*
X93734119Y-116078214D01*
X93829357Y-116030595D01*
X94019833Y-115982976D01*
X94257929Y-115982976D01*
X94448405Y-116030595D01*
X94543643Y-116078214D01*
X94591262Y-116125833D01*
X94638881Y-116221071D01*
X94638881Y-116316310D01*
X94591262Y-116411548D01*
X94543643Y-116459167D01*
X94448405Y-116506786D01*
X94257929Y-116554405D01*
X94019833Y-116554405D01*
X93829357Y-116506786D01*
X93734119Y-116459167D01*
X93686500Y-116411548D01*
X93638881Y-116316310D01*
X93638881Y-115649643D02*
X93638881Y-114982976D01*
X94638881Y-115411548D01*
X136326619Y-81645119D02*
X136279000Y-81740357D01*
X136183762Y-81835595D01*
X136040905Y-81978452D01*
X135993286Y-82073691D01*
X135993286Y-82168929D01*
X136231381Y-82121310D02*
X136183762Y-82216548D01*
X136088524Y-82311786D01*
X135898048Y-82359405D01*
X135564714Y-82359405D01*
X135374238Y-82311786D01*
X135279000Y-82216548D01*
X135231381Y-82121310D01*
X135231381Y-81930833D01*
X135279000Y-81835595D01*
X135374238Y-81740357D01*
X135564714Y-81692738D01*
X135898048Y-81692738D01*
X136088524Y-81740357D01*
X136183762Y-81835595D01*
X136231381Y-81930833D01*
X136231381Y-82121310D01*
X136231381Y-80740357D02*
X136231381Y-81311786D01*
X136231381Y-81026072D02*
X135231381Y-81026072D01*
X135374238Y-81121310D01*
X135469476Y-81216548D01*
X135517095Y-81311786D01*
X135231381Y-80121310D02*
X135231381Y-80026071D01*
X135279000Y-79930833D01*
X135326619Y-79883214D01*
X135421857Y-79835595D01*
X135612333Y-79787976D01*
X135850429Y-79787976D01*
X136040905Y-79835595D01*
X136136143Y-79883214D01*
X136183762Y-79930833D01*
X136231381Y-80026071D01*
X136231381Y-80121310D01*
X136183762Y-80216548D01*
X136136143Y-80264167D01*
X136040905Y-80311786D01*
X135850429Y-80359405D01*
X135612333Y-80359405D01*
X135421857Y-80311786D01*
X135326619Y-80264167D01*
X135279000Y-80216548D01*
X135231381Y-80121310D01*
X135231381Y-79454643D02*
X135231381Y-78787976D01*
X136231381Y-79216548D01*
X131564119Y-117840119D02*
X131516500Y-117935357D01*
X131421262Y-118030595D01*
X131278405Y-118173452D01*
X131230786Y-118268691D01*
X131230786Y-118363929D01*
X131468881Y-118316310D02*
X131421262Y-118411548D01*
X131326024Y-118506786D01*
X131135548Y-118554405D01*
X130802214Y-118554405D01*
X130611738Y-118506786D01*
X130516500Y-118411548D01*
X130468881Y-118316310D01*
X130468881Y-118125833D01*
X130516500Y-118030595D01*
X130611738Y-117935357D01*
X130802214Y-117887738D01*
X131135548Y-117887738D01*
X131326024Y-117935357D01*
X131421262Y-118030595D01*
X131468881Y-118125833D01*
X131468881Y-118316310D01*
X131468881Y-116935357D02*
X131468881Y-117506786D01*
X131468881Y-117221072D02*
X130468881Y-117221072D01*
X130611738Y-117316310D01*
X130706976Y-117411548D01*
X130754595Y-117506786D01*
X130468881Y-116316310D02*
X130468881Y-116221071D01*
X130516500Y-116125833D01*
X130564119Y-116078214D01*
X130659357Y-116030595D01*
X130849833Y-115982976D01*
X131087929Y-115982976D01*
X131278405Y-116030595D01*
X131373643Y-116078214D01*
X131421262Y-116125833D01*
X131468881Y-116221071D01*
X131468881Y-116316310D01*
X131421262Y-116411548D01*
X131373643Y-116459167D01*
X131278405Y-116506786D01*
X131087929Y-116554405D01*
X130849833Y-116554405D01*
X130659357Y-116506786D01*
X130564119Y-116459167D01*
X130516500Y-116411548D01*
X130468881Y-116316310D01*
X130468881Y-115125833D02*
X130468881Y-115316310D01*
X130516500Y-115411548D01*
X130564119Y-115459167D01*
X130706976Y-115554405D01*
X130897452Y-115602024D01*
X131278405Y-115602024D01*
X131373643Y-115554405D01*
X131421262Y-115506786D01*
X131468881Y-115411548D01*
X131468881Y-115221071D01*
X131421262Y-115125833D01*
X131373643Y-115078214D01*
X131278405Y-115030595D01*
X131040310Y-115030595D01*
X130945071Y-115078214D01*
X130897452Y-115125833D01*
X130849833Y-115221071D01*
X130849833Y-115411548D01*
X130897452Y-115506786D01*
X130945071Y-115554405D01*
X131040310Y-115602024D01*
X89971619Y-117840119D02*
X89924000Y-117935357D01*
X89828762Y-118030595D01*
X89685905Y-118173452D01*
X89638286Y-118268691D01*
X89638286Y-118363929D01*
X89876381Y-118316310D02*
X89828762Y-118411548D01*
X89733524Y-118506786D01*
X89543048Y-118554405D01*
X89209714Y-118554405D01*
X89019238Y-118506786D01*
X88924000Y-118411548D01*
X88876381Y-118316310D01*
X88876381Y-118125833D01*
X88924000Y-118030595D01*
X89019238Y-117935357D01*
X89209714Y-117887738D01*
X89543048Y-117887738D01*
X89733524Y-117935357D01*
X89828762Y-118030595D01*
X89876381Y-118125833D01*
X89876381Y-118316310D01*
X89876381Y-116935357D02*
X89876381Y-117506786D01*
X89876381Y-117221072D02*
X88876381Y-117221072D01*
X89019238Y-117316310D01*
X89114476Y-117411548D01*
X89162095Y-117506786D01*
X88876381Y-116316310D02*
X88876381Y-116221071D01*
X88924000Y-116125833D01*
X88971619Y-116078214D01*
X89066857Y-116030595D01*
X89257333Y-115982976D01*
X89495429Y-115982976D01*
X89685905Y-116030595D01*
X89781143Y-116078214D01*
X89828762Y-116125833D01*
X89876381Y-116221071D01*
X89876381Y-116316310D01*
X89828762Y-116411548D01*
X89781143Y-116459167D01*
X89685905Y-116506786D01*
X89495429Y-116554405D01*
X89257333Y-116554405D01*
X89066857Y-116506786D01*
X88971619Y-116459167D01*
X88924000Y-116411548D01*
X88876381Y-116316310D01*
X88876381Y-115125833D02*
X88876381Y-115316310D01*
X88924000Y-115411548D01*
X88971619Y-115459167D01*
X89114476Y-115554405D01*
X89304952Y-115602024D01*
X89685905Y-115602024D01*
X89781143Y-115554405D01*
X89828762Y-115506786D01*
X89876381Y-115411548D01*
X89876381Y-115221071D01*
X89828762Y-115125833D01*
X89781143Y-115078214D01*
X89685905Y-115030595D01*
X89447810Y-115030595D01*
X89352571Y-115078214D01*
X89304952Y-115125833D01*
X89257333Y-115221071D01*
X89257333Y-115411548D01*
X89304952Y-115506786D01*
X89352571Y-115554405D01*
X89447810Y-115602024D01*
X131564119Y-81645119D02*
X131516500Y-81740357D01*
X131421262Y-81835595D01*
X131278405Y-81978452D01*
X131230786Y-82073691D01*
X131230786Y-82168929D01*
X131468881Y-82121310D02*
X131421262Y-82216548D01*
X131326024Y-82311786D01*
X131135548Y-82359405D01*
X130802214Y-82359405D01*
X130611738Y-82311786D01*
X130516500Y-82216548D01*
X130468881Y-82121310D01*
X130468881Y-81930833D01*
X130516500Y-81835595D01*
X130611738Y-81740357D01*
X130802214Y-81692738D01*
X131135548Y-81692738D01*
X131326024Y-81740357D01*
X131421262Y-81835595D01*
X131468881Y-81930833D01*
X131468881Y-82121310D01*
X131468881Y-80740357D02*
X131468881Y-81311786D01*
X131468881Y-81026072D02*
X130468881Y-81026072D01*
X130611738Y-81121310D01*
X130706976Y-81216548D01*
X130754595Y-81311786D01*
X130468881Y-80121310D02*
X130468881Y-80026071D01*
X130516500Y-79930833D01*
X130564119Y-79883214D01*
X130659357Y-79835595D01*
X130849833Y-79787976D01*
X131087929Y-79787976D01*
X131278405Y-79835595D01*
X131373643Y-79883214D01*
X131421262Y-79930833D01*
X131468881Y-80026071D01*
X131468881Y-80121310D01*
X131421262Y-80216548D01*
X131373643Y-80264167D01*
X131278405Y-80311786D01*
X131087929Y-80359405D01*
X130849833Y-80359405D01*
X130659357Y-80311786D01*
X130564119Y-80264167D01*
X130516500Y-80216548D01*
X130468881Y-80121310D01*
X130468881Y-78930833D02*
X130468881Y-79121310D01*
X130516500Y-79216548D01*
X130564119Y-79264167D01*
X130706976Y-79359405D01*
X130897452Y-79407024D01*
X131278405Y-79407024D01*
X131373643Y-79359405D01*
X131421262Y-79311786D01*
X131468881Y-79216548D01*
X131468881Y-79026071D01*
X131421262Y-78930833D01*
X131373643Y-78883214D01*
X131278405Y-78835595D01*
X131040310Y-78835595D01*
X130945071Y-78883214D01*
X130897452Y-78930833D01*
X130849833Y-79026071D01*
X130849833Y-79216548D01*
X130897452Y-79311786D01*
X130945071Y-79359405D01*
X131040310Y-79407024D01*
X141089119Y-117840119D02*
X141041500Y-117935357D01*
X140946262Y-118030595D01*
X140803405Y-118173452D01*
X140755786Y-118268691D01*
X140755786Y-118363929D01*
X140993881Y-118316310D02*
X140946262Y-118411548D01*
X140851024Y-118506786D01*
X140660548Y-118554405D01*
X140327214Y-118554405D01*
X140136738Y-118506786D01*
X140041500Y-118411548D01*
X139993881Y-118316310D01*
X139993881Y-118125833D01*
X140041500Y-118030595D01*
X140136738Y-117935357D01*
X140327214Y-117887738D01*
X140660548Y-117887738D01*
X140851024Y-117935357D01*
X140946262Y-118030595D01*
X140993881Y-118125833D01*
X140993881Y-118316310D01*
X140993881Y-116935357D02*
X140993881Y-117506786D01*
X140993881Y-117221072D02*
X139993881Y-117221072D01*
X140136738Y-117316310D01*
X140231976Y-117411548D01*
X140279595Y-117506786D01*
X139993881Y-116316310D02*
X139993881Y-116221071D01*
X140041500Y-116125833D01*
X140089119Y-116078214D01*
X140184357Y-116030595D01*
X140374833Y-115982976D01*
X140612929Y-115982976D01*
X140803405Y-116030595D01*
X140898643Y-116078214D01*
X140946262Y-116125833D01*
X140993881Y-116221071D01*
X140993881Y-116316310D01*
X140946262Y-116411548D01*
X140898643Y-116459167D01*
X140803405Y-116506786D01*
X140612929Y-116554405D01*
X140374833Y-116554405D01*
X140184357Y-116506786D01*
X140089119Y-116459167D01*
X140041500Y-116411548D01*
X139993881Y-116316310D01*
X140422452Y-115411548D02*
X140374833Y-115506786D01*
X140327214Y-115554405D01*
X140231976Y-115602024D01*
X140184357Y-115602024D01*
X140089119Y-115554405D01*
X140041500Y-115506786D01*
X139993881Y-115411548D01*
X139993881Y-115221071D01*
X140041500Y-115125833D01*
X140089119Y-115078214D01*
X140184357Y-115030595D01*
X140231976Y-115030595D01*
X140327214Y-115078214D01*
X140374833Y-115125833D01*
X140422452Y-115221071D01*
X140422452Y-115411548D01*
X140470071Y-115506786D01*
X140517690Y-115554405D01*
X140612929Y-115602024D01*
X140803405Y-115602024D01*
X140898643Y-115554405D01*
X140946262Y-115506786D01*
X140993881Y-115411548D01*
X140993881Y-115221071D01*
X140946262Y-115125833D01*
X140898643Y-115078214D01*
X140803405Y-115030595D01*
X140612929Y-115030595D01*
X140517690Y-115078214D01*
X140470071Y-115125833D01*
X140422452Y-115221071D01*
X99496619Y-117840119D02*
X99449000Y-117935357D01*
X99353762Y-118030595D01*
X99210905Y-118173452D01*
X99163286Y-118268691D01*
X99163286Y-118363929D01*
X99401381Y-118316310D02*
X99353762Y-118411548D01*
X99258524Y-118506786D01*
X99068048Y-118554405D01*
X98734714Y-118554405D01*
X98544238Y-118506786D01*
X98449000Y-118411548D01*
X98401381Y-118316310D01*
X98401381Y-118125833D01*
X98449000Y-118030595D01*
X98544238Y-117935357D01*
X98734714Y-117887738D01*
X99068048Y-117887738D01*
X99258524Y-117935357D01*
X99353762Y-118030595D01*
X99401381Y-118125833D01*
X99401381Y-118316310D01*
X99401381Y-116935357D02*
X99401381Y-117506786D01*
X99401381Y-117221072D02*
X98401381Y-117221072D01*
X98544238Y-117316310D01*
X98639476Y-117411548D01*
X98687095Y-117506786D01*
X98401381Y-116316310D02*
X98401381Y-116221071D01*
X98449000Y-116125833D01*
X98496619Y-116078214D01*
X98591857Y-116030595D01*
X98782333Y-115982976D01*
X99020429Y-115982976D01*
X99210905Y-116030595D01*
X99306143Y-116078214D01*
X99353762Y-116125833D01*
X99401381Y-116221071D01*
X99401381Y-116316310D01*
X99353762Y-116411548D01*
X99306143Y-116459167D01*
X99210905Y-116506786D01*
X99020429Y-116554405D01*
X98782333Y-116554405D01*
X98591857Y-116506786D01*
X98496619Y-116459167D01*
X98449000Y-116411548D01*
X98401381Y-116316310D01*
X98829952Y-115411548D02*
X98782333Y-115506786D01*
X98734714Y-115554405D01*
X98639476Y-115602024D01*
X98591857Y-115602024D01*
X98496619Y-115554405D01*
X98449000Y-115506786D01*
X98401381Y-115411548D01*
X98401381Y-115221071D01*
X98449000Y-115125833D01*
X98496619Y-115078214D01*
X98591857Y-115030595D01*
X98639476Y-115030595D01*
X98734714Y-115078214D01*
X98782333Y-115125833D01*
X98829952Y-115221071D01*
X98829952Y-115411548D01*
X98877571Y-115506786D01*
X98925190Y-115554405D01*
X99020429Y-115602024D01*
X99210905Y-115602024D01*
X99306143Y-115554405D01*
X99353762Y-115506786D01*
X99401381Y-115411548D01*
X99401381Y-115221071D01*
X99353762Y-115125833D01*
X99306143Y-115078214D01*
X99210905Y-115030595D01*
X99020429Y-115030595D01*
X98925190Y-115078214D01*
X98877571Y-115125833D01*
X98829952Y-115221071D01*
X141089119Y-81645119D02*
X141041500Y-81740357D01*
X140946262Y-81835595D01*
X140803405Y-81978452D01*
X140755786Y-82073691D01*
X140755786Y-82168929D01*
X140993881Y-82121310D02*
X140946262Y-82216548D01*
X140851024Y-82311786D01*
X140660548Y-82359405D01*
X140327214Y-82359405D01*
X140136738Y-82311786D01*
X140041500Y-82216548D01*
X139993881Y-82121310D01*
X139993881Y-81930833D01*
X140041500Y-81835595D01*
X140136738Y-81740357D01*
X140327214Y-81692738D01*
X140660548Y-81692738D01*
X140851024Y-81740357D01*
X140946262Y-81835595D01*
X140993881Y-81930833D01*
X140993881Y-82121310D01*
X140993881Y-80740357D02*
X140993881Y-81311786D01*
X140993881Y-81026072D02*
X139993881Y-81026072D01*
X140136738Y-81121310D01*
X140231976Y-81216548D01*
X140279595Y-81311786D01*
X139993881Y-80121310D02*
X139993881Y-80026071D01*
X140041500Y-79930833D01*
X140089119Y-79883214D01*
X140184357Y-79835595D01*
X140374833Y-79787976D01*
X140612929Y-79787976D01*
X140803405Y-79835595D01*
X140898643Y-79883214D01*
X140946262Y-79930833D01*
X140993881Y-80026071D01*
X140993881Y-80121310D01*
X140946262Y-80216548D01*
X140898643Y-80264167D01*
X140803405Y-80311786D01*
X140612929Y-80359405D01*
X140374833Y-80359405D01*
X140184357Y-80311786D01*
X140089119Y-80264167D01*
X140041500Y-80216548D01*
X139993881Y-80121310D01*
X140422452Y-79216548D02*
X140374833Y-79311786D01*
X140327214Y-79359405D01*
X140231976Y-79407024D01*
X140184357Y-79407024D01*
X140089119Y-79359405D01*
X140041500Y-79311786D01*
X139993881Y-79216548D01*
X139993881Y-79026071D01*
X140041500Y-78930833D01*
X140089119Y-78883214D01*
X140184357Y-78835595D01*
X140231976Y-78835595D01*
X140327214Y-78883214D01*
X140374833Y-78930833D01*
X140422452Y-79026071D01*
X140422452Y-79216548D01*
X140470071Y-79311786D01*
X140517690Y-79359405D01*
X140612929Y-79407024D01*
X140803405Y-79407024D01*
X140898643Y-79359405D01*
X140946262Y-79311786D01*
X140993881Y-79216548D01*
X140993881Y-79026071D01*
X140946262Y-78930833D01*
X140898643Y-78883214D01*
X140803405Y-78835595D01*
X140612929Y-78835595D01*
X140517690Y-78883214D01*
X140470071Y-78930833D01*
X140422452Y-79026071D01*
X65707381Y-91495476D02*
X64707381Y-91495476D01*
X64707381Y-91257381D01*
X64755000Y-91114523D01*
X64850238Y-91019285D01*
X64945476Y-90971666D01*
X65135952Y-90924047D01*
X65278810Y-90924047D01*
X65469286Y-90971666D01*
X65564524Y-91019285D01*
X65659762Y-91114523D01*
X65707381Y-91257381D01*
X65707381Y-91495476D01*
X65707381Y-89971666D02*
X65707381Y-90543095D01*
X65707381Y-90257381D02*
X64707381Y-90257381D01*
X64850238Y-90352619D01*
X64945476Y-90447857D01*
X64993095Y-90543095D01*
X64707381Y-89352619D02*
X64707381Y-89257380D01*
X64755000Y-89162142D01*
X64802619Y-89114523D01*
X64897857Y-89066904D01*
X65088333Y-89019285D01*
X65326429Y-89019285D01*
X65516905Y-89066904D01*
X65612143Y-89114523D01*
X65659762Y-89162142D01*
X65707381Y-89257380D01*
X65707381Y-89352619D01*
X65659762Y-89447857D01*
X65612143Y-89495476D01*
X65516905Y-89543095D01*
X65326429Y-89590714D01*
X65088333Y-89590714D01*
X64897857Y-89543095D01*
X64802619Y-89495476D01*
X64755000Y-89447857D01*
X64707381Y-89352619D01*
X65707381Y-88066904D02*
X65707381Y-88638333D01*
X65707381Y-88352619D02*
X64707381Y-88352619D01*
X64850238Y-88447857D01*
X64945476Y-88543095D01*
X64993095Y-88638333D01*
X70152381Y-91495476D02*
X69152381Y-91495476D01*
X69152381Y-91257381D01*
X69200000Y-91114523D01*
X69295238Y-91019285D01*
X69390476Y-90971666D01*
X69580952Y-90924047D01*
X69723810Y-90924047D01*
X69914286Y-90971666D01*
X70009524Y-91019285D01*
X70104762Y-91114523D01*
X70152381Y-91257381D01*
X70152381Y-91495476D01*
X70152381Y-89971666D02*
X70152381Y-90543095D01*
X70152381Y-90257381D02*
X69152381Y-90257381D01*
X69295238Y-90352619D01*
X69390476Y-90447857D01*
X69438095Y-90543095D01*
X69152381Y-89352619D02*
X69152381Y-89257380D01*
X69200000Y-89162142D01*
X69247619Y-89114523D01*
X69342857Y-89066904D01*
X69533333Y-89019285D01*
X69771429Y-89019285D01*
X69961905Y-89066904D01*
X70057143Y-89114523D01*
X70104762Y-89162142D01*
X70152381Y-89257380D01*
X70152381Y-89352619D01*
X70104762Y-89447857D01*
X70057143Y-89495476D01*
X69961905Y-89543095D01*
X69771429Y-89590714D01*
X69533333Y-89590714D01*
X69342857Y-89543095D01*
X69247619Y-89495476D01*
X69200000Y-89447857D01*
X69152381Y-89352619D01*
X69247619Y-88638333D02*
X69200000Y-88590714D01*
X69152381Y-88495476D01*
X69152381Y-88257380D01*
X69200000Y-88162142D01*
X69247619Y-88114523D01*
X69342857Y-88066904D01*
X69438095Y-88066904D01*
X69580952Y-88114523D01*
X70152381Y-88685952D01*
X70152381Y-88066904D01*
X74597381Y-91495476D02*
X73597381Y-91495476D01*
X73597381Y-91257381D01*
X73645000Y-91114523D01*
X73740238Y-91019285D01*
X73835476Y-90971666D01*
X74025952Y-90924047D01*
X74168810Y-90924047D01*
X74359286Y-90971666D01*
X74454524Y-91019285D01*
X74549762Y-91114523D01*
X74597381Y-91257381D01*
X74597381Y-91495476D01*
X74597381Y-89971666D02*
X74597381Y-90543095D01*
X74597381Y-90257381D02*
X73597381Y-90257381D01*
X73740238Y-90352619D01*
X73835476Y-90447857D01*
X73883095Y-90543095D01*
X73597381Y-89352619D02*
X73597381Y-89257380D01*
X73645000Y-89162142D01*
X73692619Y-89114523D01*
X73787857Y-89066904D01*
X73978333Y-89019285D01*
X74216429Y-89019285D01*
X74406905Y-89066904D01*
X74502143Y-89114523D01*
X74549762Y-89162142D01*
X74597381Y-89257380D01*
X74597381Y-89352619D01*
X74549762Y-89447857D01*
X74502143Y-89495476D01*
X74406905Y-89543095D01*
X74216429Y-89590714D01*
X73978333Y-89590714D01*
X73787857Y-89543095D01*
X73692619Y-89495476D01*
X73645000Y-89447857D01*
X73597381Y-89352619D01*
X73597381Y-88685952D02*
X73597381Y-88066904D01*
X73978333Y-88400238D01*
X73978333Y-88257380D01*
X74025952Y-88162142D01*
X74073571Y-88114523D01*
X74168810Y-88066904D01*
X74406905Y-88066904D01*
X74502143Y-88114523D01*
X74549762Y-88162142D01*
X74597381Y-88257380D01*
X74597381Y-88543095D01*
X74549762Y-88638333D01*
X74502143Y-88685952D01*
X79042381Y-91495476D02*
X78042381Y-91495476D01*
X78042381Y-91257381D01*
X78090000Y-91114523D01*
X78185238Y-91019285D01*
X78280476Y-90971666D01*
X78470952Y-90924047D01*
X78613810Y-90924047D01*
X78804286Y-90971666D01*
X78899524Y-91019285D01*
X78994762Y-91114523D01*
X79042381Y-91257381D01*
X79042381Y-91495476D01*
X79042381Y-89971666D02*
X79042381Y-90543095D01*
X79042381Y-90257381D02*
X78042381Y-90257381D01*
X78185238Y-90352619D01*
X78280476Y-90447857D01*
X78328095Y-90543095D01*
X78042381Y-89352619D02*
X78042381Y-89257380D01*
X78090000Y-89162142D01*
X78137619Y-89114523D01*
X78232857Y-89066904D01*
X78423333Y-89019285D01*
X78661429Y-89019285D01*
X78851905Y-89066904D01*
X78947143Y-89114523D01*
X78994762Y-89162142D01*
X79042381Y-89257380D01*
X79042381Y-89352619D01*
X78994762Y-89447857D01*
X78947143Y-89495476D01*
X78851905Y-89543095D01*
X78661429Y-89590714D01*
X78423333Y-89590714D01*
X78232857Y-89543095D01*
X78137619Y-89495476D01*
X78090000Y-89447857D01*
X78042381Y-89352619D01*
X78375714Y-88162142D02*
X79042381Y-88162142D01*
X77994762Y-88400238D02*
X78709048Y-88638333D01*
X78709048Y-88019285D01*
X83487381Y-91495476D02*
X82487381Y-91495476D01*
X82487381Y-91257381D01*
X82535000Y-91114523D01*
X82630238Y-91019285D01*
X82725476Y-90971666D01*
X82915952Y-90924047D01*
X83058810Y-90924047D01*
X83249286Y-90971666D01*
X83344524Y-91019285D01*
X83439762Y-91114523D01*
X83487381Y-91257381D01*
X83487381Y-91495476D01*
X83487381Y-89971666D02*
X83487381Y-90543095D01*
X83487381Y-90257381D02*
X82487381Y-90257381D01*
X82630238Y-90352619D01*
X82725476Y-90447857D01*
X82773095Y-90543095D01*
X82487381Y-89352619D02*
X82487381Y-89257380D01*
X82535000Y-89162142D01*
X82582619Y-89114523D01*
X82677857Y-89066904D01*
X82868333Y-89019285D01*
X83106429Y-89019285D01*
X83296905Y-89066904D01*
X83392143Y-89114523D01*
X83439762Y-89162142D01*
X83487381Y-89257380D01*
X83487381Y-89352619D01*
X83439762Y-89447857D01*
X83392143Y-89495476D01*
X83296905Y-89543095D01*
X83106429Y-89590714D01*
X82868333Y-89590714D01*
X82677857Y-89543095D01*
X82582619Y-89495476D01*
X82535000Y-89447857D01*
X82487381Y-89352619D01*
X82487381Y-88114523D02*
X82487381Y-88590714D01*
X82963571Y-88638333D01*
X82915952Y-88590714D01*
X82868333Y-88495476D01*
X82868333Y-88257380D01*
X82915952Y-88162142D01*
X82963571Y-88114523D01*
X83058810Y-88066904D01*
X83296905Y-88066904D01*
X83392143Y-88114523D01*
X83439762Y-88162142D01*
X83487381Y-88257380D01*
X83487381Y-88495476D01*
X83439762Y-88590714D01*
X83392143Y-88638333D01*
X87932381Y-91495476D02*
X86932381Y-91495476D01*
X86932381Y-91257381D01*
X86980000Y-91114523D01*
X87075238Y-91019285D01*
X87170476Y-90971666D01*
X87360952Y-90924047D01*
X87503810Y-90924047D01*
X87694286Y-90971666D01*
X87789524Y-91019285D01*
X87884762Y-91114523D01*
X87932381Y-91257381D01*
X87932381Y-91495476D01*
X87932381Y-89971666D02*
X87932381Y-90543095D01*
X87932381Y-90257381D02*
X86932381Y-90257381D01*
X87075238Y-90352619D01*
X87170476Y-90447857D01*
X87218095Y-90543095D01*
X86932381Y-89352619D02*
X86932381Y-89257380D01*
X86980000Y-89162142D01*
X87027619Y-89114523D01*
X87122857Y-89066904D01*
X87313333Y-89019285D01*
X87551429Y-89019285D01*
X87741905Y-89066904D01*
X87837143Y-89114523D01*
X87884762Y-89162142D01*
X87932381Y-89257380D01*
X87932381Y-89352619D01*
X87884762Y-89447857D01*
X87837143Y-89495476D01*
X87741905Y-89543095D01*
X87551429Y-89590714D01*
X87313333Y-89590714D01*
X87122857Y-89543095D01*
X87027619Y-89495476D01*
X86980000Y-89447857D01*
X86932381Y-89352619D01*
X86932381Y-88162142D02*
X86932381Y-88352619D01*
X86980000Y-88447857D01*
X87027619Y-88495476D01*
X87170476Y-88590714D01*
X87360952Y-88638333D01*
X87741905Y-88638333D01*
X87837143Y-88590714D01*
X87884762Y-88543095D01*
X87932381Y-88447857D01*
X87932381Y-88257380D01*
X87884762Y-88162142D01*
X87837143Y-88114523D01*
X87741905Y-88066904D01*
X87503810Y-88066904D01*
X87408571Y-88114523D01*
X87360952Y-88162142D01*
X87313333Y-88257380D01*
X87313333Y-88447857D01*
X87360952Y-88543095D01*
X87408571Y-88590714D01*
X87503810Y-88638333D01*
X92377381Y-91495476D02*
X91377381Y-91495476D01*
X91377381Y-91257381D01*
X91425000Y-91114523D01*
X91520238Y-91019285D01*
X91615476Y-90971666D01*
X91805952Y-90924047D01*
X91948810Y-90924047D01*
X92139286Y-90971666D01*
X92234524Y-91019285D01*
X92329762Y-91114523D01*
X92377381Y-91257381D01*
X92377381Y-91495476D01*
X92377381Y-89971666D02*
X92377381Y-90543095D01*
X92377381Y-90257381D02*
X91377381Y-90257381D01*
X91520238Y-90352619D01*
X91615476Y-90447857D01*
X91663095Y-90543095D01*
X91377381Y-89352619D02*
X91377381Y-89257380D01*
X91425000Y-89162142D01*
X91472619Y-89114523D01*
X91567857Y-89066904D01*
X91758333Y-89019285D01*
X91996429Y-89019285D01*
X92186905Y-89066904D01*
X92282143Y-89114523D01*
X92329762Y-89162142D01*
X92377381Y-89257380D01*
X92377381Y-89352619D01*
X92329762Y-89447857D01*
X92282143Y-89495476D01*
X92186905Y-89543095D01*
X91996429Y-89590714D01*
X91758333Y-89590714D01*
X91567857Y-89543095D01*
X91472619Y-89495476D01*
X91425000Y-89447857D01*
X91377381Y-89352619D01*
X91377381Y-88685952D02*
X91377381Y-88019285D01*
X92377381Y-88447857D01*
X96822381Y-91495476D02*
X95822381Y-91495476D01*
X95822381Y-91257381D01*
X95870000Y-91114523D01*
X95965238Y-91019285D01*
X96060476Y-90971666D01*
X96250952Y-90924047D01*
X96393810Y-90924047D01*
X96584286Y-90971666D01*
X96679524Y-91019285D01*
X96774762Y-91114523D01*
X96822381Y-91257381D01*
X96822381Y-91495476D01*
X96822381Y-89971666D02*
X96822381Y-90543095D01*
X96822381Y-90257381D02*
X95822381Y-90257381D01*
X95965238Y-90352619D01*
X96060476Y-90447857D01*
X96108095Y-90543095D01*
X95822381Y-89352619D02*
X95822381Y-89257380D01*
X95870000Y-89162142D01*
X95917619Y-89114523D01*
X96012857Y-89066904D01*
X96203333Y-89019285D01*
X96441429Y-89019285D01*
X96631905Y-89066904D01*
X96727143Y-89114523D01*
X96774762Y-89162142D01*
X96822381Y-89257380D01*
X96822381Y-89352619D01*
X96774762Y-89447857D01*
X96727143Y-89495476D01*
X96631905Y-89543095D01*
X96441429Y-89590714D01*
X96203333Y-89590714D01*
X96012857Y-89543095D01*
X95917619Y-89495476D01*
X95870000Y-89447857D01*
X95822381Y-89352619D01*
X96250952Y-88447857D02*
X96203333Y-88543095D01*
X96155714Y-88590714D01*
X96060476Y-88638333D01*
X96012857Y-88638333D01*
X95917619Y-88590714D01*
X95870000Y-88543095D01*
X95822381Y-88447857D01*
X95822381Y-88257380D01*
X95870000Y-88162142D01*
X95917619Y-88114523D01*
X96012857Y-88066904D01*
X96060476Y-88066904D01*
X96155714Y-88114523D01*
X96203333Y-88162142D01*
X96250952Y-88257380D01*
X96250952Y-88447857D01*
X96298571Y-88543095D01*
X96346190Y-88590714D01*
X96441429Y-88638333D01*
X96631905Y-88638333D01*
X96727143Y-88590714D01*
X96774762Y-88543095D01*
X96822381Y-88447857D01*
X96822381Y-88257380D01*
X96774762Y-88162142D01*
X96727143Y-88114523D01*
X96631905Y-88066904D01*
X96441429Y-88066904D01*
X96346190Y-88114523D01*
X96298571Y-88162142D01*
X96250952Y-88257380D01*
X72322381Y-66643214D02*
X73036667Y-66643214D01*
X73179524Y-66690834D01*
X73274762Y-66786072D01*
X73322381Y-66928929D01*
X73322381Y-67024167D01*
X73322381Y-65643214D02*
X73322381Y-66214643D01*
X73322381Y-65928929D02*
X72322381Y-65928929D01*
X72465238Y-66024167D01*
X72560476Y-66119405D01*
X72608095Y-66214643D01*
X72322381Y-65024167D02*
X72322381Y-64928928D01*
X72370000Y-64833690D01*
X72417619Y-64786071D01*
X72512857Y-64738452D01*
X72703333Y-64690833D01*
X72941429Y-64690833D01*
X73131905Y-64738452D01*
X73227143Y-64786071D01*
X73274762Y-64833690D01*
X73322381Y-64928928D01*
X73322381Y-65024167D01*
X73274762Y-65119405D01*
X73227143Y-65167024D01*
X73131905Y-65214643D01*
X72941429Y-65262262D01*
X72703333Y-65262262D01*
X72512857Y-65214643D01*
X72417619Y-65167024D01*
X72370000Y-65119405D01*
X72322381Y-65024167D01*
X73322381Y-63738452D02*
X73322381Y-64309881D01*
X73322381Y-64024167D02*
X72322381Y-64024167D01*
X72465238Y-64119405D01*
X72560476Y-64214643D01*
X72608095Y-64309881D01*
X100266786Y-64702381D02*
X100266786Y-65416667D01*
X100219166Y-65559524D01*
X100123928Y-65654762D01*
X99981071Y-65702381D01*
X99885833Y-65702381D01*
X101266786Y-65702381D02*
X100695357Y-65702381D01*
X100981071Y-65702381D02*
X100981071Y-64702381D01*
X100885833Y-64845238D01*
X100790595Y-64940476D01*
X100695357Y-64988095D01*
X101885833Y-64702381D02*
X101981072Y-64702381D01*
X102076310Y-64750000D01*
X102123929Y-64797619D01*
X102171548Y-64892857D01*
X102219167Y-65083333D01*
X102219167Y-65321429D01*
X102171548Y-65511905D01*
X102123929Y-65607143D01*
X102076310Y-65654762D01*
X101981072Y-65702381D01*
X101885833Y-65702381D01*
X101790595Y-65654762D01*
X101742976Y-65607143D01*
X101695357Y-65511905D01*
X101647738Y-65321429D01*
X101647738Y-65083333D01*
X101695357Y-64892857D01*
X101742976Y-64797619D01*
X101790595Y-64750000D01*
X101885833Y-64702381D01*
X102600119Y-64797619D02*
X102647738Y-64750000D01*
X102742976Y-64702381D01*
X102981072Y-64702381D01*
X103076310Y-64750000D01*
X103123929Y-64797619D01*
X103171548Y-64892857D01*
X103171548Y-64988095D01*
X103123929Y-65130952D01*
X102552500Y-65702381D01*
X103171548Y-65702381D01*
X66159119Y-81645119D02*
X66111500Y-81740357D01*
X66016262Y-81835595D01*
X65873405Y-81978452D01*
X65825786Y-82073691D01*
X65825786Y-82168929D01*
X66063881Y-82121310D02*
X66016262Y-82216548D01*
X65921024Y-82311786D01*
X65730548Y-82359405D01*
X65397214Y-82359405D01*
X65206738Y-82311786D01*
X65111500Y-82216548D01*
X65063881Y-82121310D01*
X65063881Y-81930833D01*
X65111500Y-81835595D01*
X65206738Y-81740357D01*
X65397214Y-81692738D01*
X65730548Y-81692738D01*
X65921024Y-81740357D01*
X66016262Y-81835595D01*
X66063881Y-81930833D01*
X66063881Y-82121310D01*
X66063881Y-80740357D02*
X66063881Y-81311786D01*
X66063881Y-81026072D02*
X65063881Y-81026072D01*
X65206738Y-81121310D01*
X65301976Y-81216548D01*
X65349595Y-81311786D01*
X65063881Y-80121310D02*
X65063881Y-80026071D01*
X65111500Y-79930833D01*
X65159119Y-79883214D01*
X65254357Y-79835595D01*
X65444833Y-79787976D01*
X65682929Y-79787976D01*
X65873405Y-79835595D01*
X65968643Y-79883214D01*
X66016262Y-79930833D01*
X66063881Y-80026071D01*
X66063881Y-80121310D01*
X66016262Y-80216548D01*
X65968643Y-80264167D01*
X65873405Y-80311786D01*
X65682929Y-80359405D01*
X65444833Y-80359405D01*
X65254357Y-80311786D01*
X65159119Y-80264167D01*
X65111500Y-80216548D01*
X65063881Y-80121310D01*
X66063881Y-78835595D02*
X66063881Y-79407024D01*
X66063881Y-79121310D02*
X65063881Y-79121310D01*
X65206738Y-79216548D01*
X65301976Y-79311786D01*
X65349595Y-79407024D01*
X70921619Y-81645119D02*
X70874000Y-81740357D01*
X70778762Y-81835595D01*
X70635905Y-81978452D01*
X70588286Y-82073691D01*
X70588286Y-82168929D01*
X70826381Y-82121310D02*
X70778762Y-82216548D01*
X70683524Y-82311786D01*
X70493048Y-82359405D01*
X70159714Y-82359405D01*
X69969238Y-82311786D01*
X69874000Y-82216548D01*
X69826381Y-82121310D01*
X69826381Y-81930833D01*
X69874000Y-81835595D01*
X69969238Y-81740357D01*
X70159714Y-81692738D01*
X70493048Y-81692738D01*
X70683524Y-81740357D01*
X70778762Y-81835595D01*
X70826381Y-81930833D01*
X70826381Y-82121310D01*
X70826381Y-80740357D02*
X70826381Y-81311786D01*
X70826381Y-81026072D02*
X69826381Y-81026072D01*
X69969238Y-81121310D01*
X70064476Y-81216548D01*
X70112095Y-81311786D01*
X69826381Y-80121310D02*
X69826381Y-80026071D01*
X69874000Y-79930833D01*
X69921619Y-79883214D01*
X70016857Y-79835595D01*
X70207333Y-79787976D01*
X70445429Y-79787976D01*
X70635905Y-79835595D01*
X70731143Y-79883214D01*
X70778762Y-79930833D01*
X70826381Y-80026071D01*
X70826381Y-80121310D01*
X70778762Y-80216548D01*
X70731143Y-80264167D01*
X70635905Y-80311786D01*
X70445429Y-80359405D01*
X70207333Y-80359405D01*
X70016857Y-80311786D01*
X69921619Y-80264167D01*
X69874000Y-80216548D01*
X69826381Y-80121310D01*
X69921619Y-79407024D02*
X69874000Y-79359405D01*
X69826381Y-79264167D01*
X69826381Y-79026071D01*
X69874000Y-78930833D01*
X69921619Y-78883214D01*
X70016857Y-78835595D01*
X70112095Y-78835595D01*
X70254952Y-78883214D01*
X70826381Y-79454643D01*
X70826381Y-78835595D01*
X75684119Y-81645119D02*
X75636500Y-81740357D01*
X75541262Y-81835595D01*
X75398405Y-81978452D01*
X75350786Y-82073691D01*
X75350786Y-82168929D01*
X75588881Y-82121310D02*
X75541262Y-82216548D01*
X75446024Y-82311786D01*
X75255548Y-82359405D01*
X74922214Y-82359405D01*
X74731738Y-82311786D01*
X74636500Y-82216548D01*
X74588881Y-82121310D01*
X74588881Y-81930833D01*
X74636500Y-81835595D01*
X74731738Y-81740357D01*
X74922214Y-81692738D01*
X75255548Y-81692738D01*
X75446024Y-81740357D01*
X75541262Y-81835595D01*
X75588881Y-81930833D01*
X75588881Y-82121310D01*
X75588881Y-80740357D02*
X75588881Y-81311786D01*
X75588881Y-81026072D02*
X74588881Y-81026072D01*
X74731738Y-81121310D01*
X74826976Y-81216548D01*
X74874595Y-81311786D01*
X74588881Y-80121310D02*
X74588881Y-80026071D01*
X74636500Y-79930833D01*
X74684119Y-79883214D01*
X74779357Y-79835595D01*
X74969833Y-79787976D01*
X75207929Y-79787976D01*
X75398405Y-79835595D01*
X75493643Y-79883214D01*
X75541262Y-79930833D01*
X75588881Y-80026071D01*
X75588881Y-80121310D01*
X75541262Y-80216548D01*
X75493643Y-80264167D01*
X75398405Y-80311786D01*
X75207929Y-80359405D01*
X74969833Y-80359405D01*
X74779357Y-80311786D01*
X74684119Y-80264167D01*
X74636500Y-80216548D01*
X74588881Y-80121310D01*
X74588881Y-79454643D02*
X74588881Y-78835595D01*
X74969833Y-79168929D01*
X74969833Y-79026071D01*
X75017452Y-78930833D01*
X75065071Y-78883214D01*
X75160310Y-78835595D01*
X75398405Y-78835595D01*
X75493643Y-78883214D01*
X75541262Y-78930833D01*
X75588881Y-79026071D01*
X75588881Y-79311786D01*
X75541262Y-79407024D01*
X75493643Y-79454643D01*
X80446619Y-81645119D02*
X80399000Y-81740357D01*
X80303762Y-81835595D01*
X80160905Y-81978452D01*
X80113286Y-82073691D01*
X80113286Y-82168929D01*
X80351381Y-82121310D02*
X80303762Y-82216548D01*
X80208524Y-82311786D01*
X80018048Y-82359405D01*
X79684714Y-82359405D01*
X79494238Y-82311786D01*
X79399000Y-82216548D01*
X79351381Y-82121310D01*
X79351381Y-81930833D01*
X79399000Y-81835595D01*
X79494238Y-81740357D01*
X79684714Y-81692738D01*
X80018048Y-81692738D01*
X80208524Y-81740357D01*
X80303762Y-81835595D01*
X80351381Y-81930833D01*
X80351381Y-82121310D01*
X80351381Y-80740357D02*
X80351381Y-81311786D01*
X80351381Y-81026072D02*
X79351381Y-81026072D01*
X79494238Y-81121310D01*
X79589476Y-81216548D01*
X79637095Y-81311786D01*
X79351381Y-80121310D02*
X79351381Y-80026071D01*
X79399000Y-79930833D01*
X79446619Y-79883214D01*
X79541857Y-79835595D01*
X79732333Y-79787976D01*
X79970429Y-79787976D01*
X80160905Y-79835595D01*
X80256143Y-79883214D01*
X80303762Y-79930833D01*
X80351381Y-80026071D01*
X80351381Y-80121310D01*
X80303762Y-80216548D01*
X80256143Y-80264167D01*
X80160905Y-80311786D01*
X79970429Y-80359405D01*
X79732333Y-80359405D01*
X79541857Y-80311786D01*
X79446619Y-80264167D01*
X79399000Y-80216548D01*
X79351381Y-80121310D01*
X79684714Y-78930833D02*
X80351381Y-78930833D01*
X79303762Y-79168929D02*
X80018048Y-79407024D01*
X80018048Y-78787976D01*
X85209119Y-81645119D02*
X85161500Y-81740357D01*
X85066262Y-81835595D01*
X84923405Y-81978452D01*
X84875786Y-82073691D01*
X84875786Y-82168929D01*
X85113881Y-82121310D02*
X85066262Y-82216548D01*
X84971024Y-82311786D01*
X84780548Y-82359405D01*
X84447214Y-82359405D01*
X84256738Y-82311786D01*
X84161500Y-82216548D01*
X84113881Y-82121310D01*
X84113881Y-81930833D01*
X84161500Y-81835595D01*
X84256738Y-81740357D01*
X84447214Y-81692738D01*
X84780548Y-81692738D01*
X84971024Y-81740357D01*
X85066262Y-81835595D01*
X85113881Y-81930833D01*
X85113881Y-82121310D01*
X85113881Y-80740357D02*
X85113881Y-81311786D01*
X85113881Y-81026072D02*
X84113881Y-81026072D01*
X84256738Y-81121310D01*
X84351976Y-81216548D01*
X84399595Y-81311786D01*
X84113881Y-80121310D02*
X84113881Y-80026071D01*
X84161500Y-79930833D01*
X84209119Y-79883214D01*
X84304357Y-79835595D01*
X84494833Y-79787976D01*
X84732929Y-79787976D01*
X84923405Y-79835595D01*
X85018643Y-79883214D01*
X85066262Y-79930833D01*
X85113881Y-80026071D01*
X85113881Y-80121310D01*
X85066262Y-80216548D01*
X85018643Y-80264167D01*
X84923405Y-80311786D01*
X84732929Y-80359405D01*
X84494833Y-80359405D01*
X84304357Y-80311786D01*
X84209119Y-80264167D01*
X84161500Y-80216548D01*
X84113881Y-80121310D01*
X84113881Y-78883214D02*
X84113881Y-79359405D01*
X84590071Y-79407024D01*
X84542452Y-79359405D01*
X84494833Y-79264167D01*
X84494833Y-79026071D01*
X84542452Y-78930833D01*
X84590071Y-78883214D01*
X84685310Y-78835595D01*
X84923405Y-78835595D01*
X85018643Y-78883214D01*
X85066262Y-78930833D01*
X85113881Y-79026071D01*
X85113881Y-79264167D01*
X85066262Y-79359405D01*
X85018643Y-79407024D01*
X89971619Y-81645119D02*
X89924000Y-81740357D01*
X89828762Y-81835595D01*
X89685905Y-81978452D01*
X89638286Y-82073691D01*
X89638286Y-82168929D01*
X89876381Y-82121310D02*
X89828762Y-82216548D01*
X89733524Y-82311786D01*
X89543048Y-82359405D01*
X89209714Y-82359405D01*
X89019238Y-82311786D01*
X88924000Y-82216548D01*
X88876381Y-82121310D01*
X88876381Y-81930833D01*
X88924000Y-81835595D01*
X89019238Y-81740357D01*
X89209714Y-81692738D01*
X89543048Y-81692738D01*
X89733524Y-81740357D01*
X89828762Y-81835595D01*
X89876381Y-81930833D01*
X89876381Y-82121310D01*
X89876381Y-80740357D02*
X89876381Y-81311786D01*
X89876381Y-81026072D02*
X88876381Y-81026072D01*
X89019238Y-81121310D01*
X89114476Y-81216548D01*
X89162095Y-81311786D01*
X88876381Y-80121310D02*
X88876381Y-80026071D01*
X88924000Y-79930833D01*
X88971619Y-79883214D01*
X89066857Y-79835595D01*
X89257333Y-79787976D01*
X89495429Y-79787976D01*
X89685905Y-79835595D01*
X89781143Y-79883214D01*
X89828762Y-79930833D01*
X89876381Y-80026071D01*
X89876381Y-80121310D01*
X89828762Y-80216548D01*
X89781143Y-80264167D01*
X89685905Y-80311786D01*
X89495429Y-80359405D01*
X89257333Y-80359405D01*
X89066857Y-80311786D01*
X88971619Y-80264167D01*
X88924000Y-80216548D01*
X88876381Y-80121310D01*
X88876381Y-78930833D02*
X88876381Y-79121310D01*
X88924000Y-79216548D01*
X88971619Y-79264167D01*
X89114476Y-79359405D01*
X89304952Y-79407024D01*
X89685905Y-79407024D01*
X89781143Y-79359405D01*
X89828762Y-79311786D01*
X89876381Y-79216548D01*
X89876381Y-79026071D01*
X89828762Y-78930833D01*
X89781143Y-78883214D01*
X89685905Y-78835595D01*
X89447810Y-78835595D01*
X89352571Y-78883214D01*
X89304952Y-78930833D01*
X89257333Y-79026071D01*
X89257333Y-79216548D01*
X89304952Y-79311786D01*
X89352571Y-79359405D01*
X89447810Y-79407024D01*
X94734119Y-81645119D02*
X94686500Y-81740357D01*
X94591262Y-81835595D01*
X94448405Y-81978452D01*
X94400786Y-82073691D01*
X94400786Y-82168929D01*
X94638881Y-82121310D02*
X94591262Y-82216548D01*
X94496024Y-82311786D01*
X94305548Y-82359405D01*
X93972214Y-82359405D01*
X93781738Y-82311786D01*
X93686500Y-82216548D01*
X93638881Y-82121310D01*
X93638881Y-81930833D01*
X93686500Y-81835595D01*
X93781738Y-81740357D01*
X93972214Y-81692738D01*
X94305548Y-81692738D01*
X94496024Y-81740357D01*
X94591262Y-81835595D01*
X94638881Y-81930833D01*
X94638881Y-82121310D01*
X94638881Y-80740357D02*
X94638881Y-81311786D01*
X94638881Y-81026072D02*
X93638881Y-81026072D01*
X93781738Y-81121310D01*
X93876976Y-81216548D01*
X93924595Y-81311786D01*
X93638881Y-80121310D02*
X93638881Y-80026071D01*
X93686500Y-79930833D01*
X93734119Y-79883214D01*
X93829357Y-79835595D01*
X94019833Y-79787976D01*
X94257929Y-79787976D01*
X94448405Y-79835595D01*
X94543643Y-79883214D01*
X94591262Y-79930833D01*
X94638881Y-80026071D01*
X94638881Y-80121310D01*
X94591262Y-80216548D01*
X94543643Y-80264167D01*
X94448405Y-80311786D01*
X94257929Y-80359405D01*
X94019833Y-80359405D01*
X93829357Y-80311786D01*
X93734119Y-80264167D01*
X93686500Y-80216548D01*
X93638881Y-80121310D01*
X93638881Y-79454643D02*
X93638881Y-78787976D01*
X94638881Y-79216548D01*
X99496619Y-81645119D02*
X99449000Y-81740357D01*
X99353762Y-81835595D01*
X99210905Y-81978452D01*
X99163286Y-82073691D01*
X99163286Y-82168929D01*
X99401381Y-82121310D02*
X99353762Y-82216548D01*
X99258524Y-82311786D01*
X99068048Y-82359405D01*
X98734714Y-82359405D01*
X98544238Y-82311786D01*
X98449000Y-82216548D01*
X98401381Y-82121310D01*
X98401381Y-81930833D01*
X98449000Y-81835595D01*
X98544238Y-81740357D01*
X98734714Y-81692738D01*
X99068048Y-81692738D01*
X99258524Y-81740357D01*
X99353762Y-81835595D01*
X99401381Y-81930833D01*
X99401381Y-82121310D01*
X99401381Y-80740357D02*
X99401381Y-81311786D01*
X99401381Y-81026072D02*
X98401381Y-81026072D01*
X98544238Y-81121310D01*
X98639476Y-81216548D01*
X98687095Y-81311786D01*
X98401381Y-80121310D02*
X98401381Y-80026071D01*
X98449000Y-79930833D01*
X98496619Y-79883214D01*
X98591857Y-79835595D01*
X98782333Y-79787976D01*
X99020429Y-79787976D01*
X99210905Y-79835595D01*
X99306143Y-79883214D01*
X99353762Y-79930833D01*
X99401381Y-80026071D01*
X99401381Y-80121310D01*
X99353762Y-80216548D01*
X99306143Y-80264167D01*
X99210905Y-80311786D01*
X99020429Y-80359405D01*
X98782333Y-80359405D01*
X98591857Y-80311786D01*
X98496619Y-80264167D01*
X98449000Y-80216548D01*
X98401381Y-80121310D01*
X98829952Y-79216548D02*
X98782333Y-79311786D01*
X98734714Y-79359405D01*
X98639476Y-79407024D01*
X98591857Y-79407024D01*
X98496619Y-79359405D01*
X98449000Y-79311786D01*
X98401381Y-79216548D01*
X98401381Y-79026071D01*
X98449000Y-78930833D01*
X98496619Y-78883214D01*
X98591857Y-78835595D01*
X98639476Y-78835595D01*
X98734714Y-78883214D01*
X98782333Y-78930833D01*
X98829952Y-79026071D01*
X98829952Y-79216548D01*
X98877571Y-79311786D01*
X98925190Y-79359405D01*
X99020429Y-79407024D01*
X99210905Y-79407024D01*
X99306143Y-79359405D01*
X99353762Y-79311786D01*
X99401381Y-79216548D01*
X99401381Y-79026071D01*
X99353762Y-78930833D01*
X99306143Y-78883214D01*
X99210905Y-78835595D01*
X99020429Y-78835595D01*
X98925190Y-78883214D01*
X98877571Y-78930833D01*
X98829952Y-79026071D01*
X67714881Y-74096547D02*
X67238690Y-74429881D01*
X67714881Y-74667976D02*
X66714881Y-74667976D01*
X66714881Y-74287023D01*
X66762500Y-74191785D01*
X66810119Y-74144166D01*
X66905357Y-74096547D01*
X67048214Y-74096547D01*
X67143452Y-74144166D01*
X67191071Y-74191785D01*
X67238690Y-74287023D01*
X67238690Y-74667976D01*
X67714881Y-73144166D02*
X67714881Y-73715595D01*
X67714881Y-73429881D02*
X66714881Y-73429881D01*
X66857738Y-73525119D01*
X66952976Y-73620357D01*
X67000595Y-73715595D01*
X66714881Y-72525119D02*
X66714881Y-72429880D01*
X66762500Y-72334642D01*
X66810119Y-72287023D01*
X66905357Y-72239404D01*
X67095833Y-72191785D01*
X67333929Y-72191785D01*
X67524405Y-72239404D01*
X67619643Y-72287023D01*
X67667262Y-72334642D01*
X67714881Y-72429880D01*
X67714881Y-72525119D01*
X67667262Y-72620357D01*
X67619643Y-72667976D01*
X67524405Y-72715595D01*
X67333929Y-72763214D01*
X67095833Y-72763214D01*
X66905357Y-72715595D01*
X66810119Y-72667976D01*
X66762500Y-72620357D01*
X66714881Y-72525119D01*
X67714881Y-71239404D02*
X67714881Y-71810833D01*
X67714881Y-71525119D02*
X66714881Y-71525119D01*
X66857738Y-71620357D01*
X66952976Y-71715595D01*
X67000595Y-71810833D01*
X72477381Y-74096547D02*
X72001190Y-74429881D01*
X72477381Y-74667976D02*
X71477381Y-74667976D01*
X71477381Y-74287023D01*
X71525000Y-74191785D01*
X71572619Y-74144166D01*
X71667857Y-74096547D01*
X71810714Y-74096547D01*
X71905952Y-74144166D01*
X71953571Y-74191785D01*
X72001190Y-74287023D01*
X72001190Y-74667976D01*
X72477381Y-73144166D02*
X72477381Y-73715595D01*
X72477381Y-73429881D02*
X71477381Y-73429881D01*
X71620238Y-73525119D01*
X71715476Y-73620357D01*
X71763095Y-73715595D01*
X71477381Y-72525119D02*
X71477381Y-72429880D01*
X71525000Y-72334642D01*
X71572619Y-72287023D01*
X71667857Y-72239404D01*
X71858333Y-72191785D01*
X72096429Y-72191785D01*
X72286905Y-72239404D01*
X72382143Y-72287023D01*
X72429762Y-72334642D01*
X72477381Y-72429880D01*
X72477381Y-72525119D01*
X72429762Y-72620357D01*
X72382143Y-72667976D01*
X72286905Y-72715595D01*
X72096429Y-72763214D01*
X71858333Y-72763214D01*
X71667857Y-72715595D01*
X71572619Y-72667976D01*
X71525000Y-72620357D01*
X71477381Y-72525119D01*
X71572619Y-71810833D02*
X71525000Y-71763214D01*
X71477381Y-71667976D01*
X71477381Y-71429880D01*
X71525000Y-71334642D01*
X71572619Y-71287023D01*
X71667857Y-71239404D01*
X71763095Y-71239404D01*
X71905952Y-71287023D01*
X72477381Y-71858452D01*
X72477381Y-71239404D01*
X77239881Y-74096547D02*
X76763690Y-74429881D01*
X77239881Y-74667976D02*
X76239881Y-74667976D01*
X76239881Y-74287023D01*
X76287500Y-74191785D01*
X76335119Y-74144166D01*
X76430357Y-74096547D01*
X76573214Y-74096547D01*
X76668452Y-74144166D01*
X76716071Y-74191785D01*
X76763690Y-74287023D01*
X76763690Y-74667976D01*
X77239881Y-73144166D02*
X77239881Y-73715595D01*
X77239881Y-73429881D02*
X76239881Y-73429881D01*
X76382738Y-73525119D01*
X76477976Y-73620357D01*
X76525595Y-73715595D01*
X76239881Y-72525119D02*
X76239881Y-72429880D01*
X76287500Y-72334642D01*
X76335119Y-72287023D01*
X76430357Y-72239404D01*
X76620833Y-72191785D01*
X76858929Y-72191785D01*
X77049405Y-72239404D01*
X77144643Y-72287023D01*
X77192262Y-72334642D01*
X77239881Y-72429880D01*
X77239881Y-72525119D01*
X77192262Y-72620357D01*
X77144643Y-72667976D01*
X77049405Y-72715595D01*
X76858929Y-72763214D01*
X76620833Y-72763214D01*
X76430357Y-72715595D01*
X76335119Y-72667976D01*
X76287500Y-72620357D01*
X76239881Y-72525119D01*
X76239881Y-71858452D02*
X76239881Y-71239404D01*
X76620833Y-71572738D01*
X76620833Y-71429880D01*
X76668452Y-71334642D01*
X76716071Y-71287023D01*
X76811310Y-71239404D01*
X77049405Y-71239404D01*
X77144643Y-71287023D01*
X77192262Y-71334642D01*
X77239881Y-71429880D01*
X77239881Y-71715595D01*
X77192262Y-71810833D01*
X77144643Y-71858452D01*
X82002381Y-74096547D02*
X81526190Y-74429881D01*
X82002381Y-74667976D02*
X81002381Y-74667976D01*
X81002381Y-74287023D01*
X81050000Y-74191785D01*
X81097619Y-74144166D01*
X81192857Y-74096547D01*
X81335714Y-74096547D01*
X81430952Y-74144166D01*
X81478571Y-74191785D01*
X81526190Y-74287023D01*
X81526190Y-74667976D01*
X82002381Y-73144166D02*
X82002381Y-73715595D01*
X82002381Y-73429881D02*
X81002381Y-73429881D01*
X81145238Y-73525119D01*
X81240476Y-73620357D01*
X81288095Y-73715595D01*
X81002381Y-72525119D02*
X81002381Y-72429880D01*
X81050000Y-72334642D01*
X81097619Y-72287023D01*
X81192857Y-72239404D01*
X81383333Y-72191785D01*
X81621429Y-72191785D01*
X81811905Y-72239404D01*
X81907143Y-72287023D01*
X81954762Y-72334642D01*
X82002381Y-72429880D01*
X82002381Y-72525119D01*
X81954762Y-72620357D01*
X81907143Y-72667976D01*
X81811905Y-72715595D01*
X81621429Y-72763214D01*
X81383333Y-72763214D01*
X81192857Y-72715595D01*
X81097619Y-72667976D01*
X81050000Y-72620357D01*
X81002381Y-72525119D01*
X81335714Y-71334642D02*
X82002381Y-71334642D01*
X80954762Y-71572738D02*
X81669048Y-71810833D01*
X81669048Y-71191785D01*
X86764881Y-74096547D02*
X86288690Y-74429881D01*
X86764881Y-74667976D02*
X85764881Y-74667976D01*
X85764881Y-74287023D01*
X85812500Y-74191785D01*
X85860119Y-74144166D01*
X85955357Y-74096547D01*
X86098214Y-74096547D01*
X86193452Y-74144166D01*
X86241071Y-74191785D01*
X86288690Y-74287023D01*
X86288690Y-74667976D01*
X86764881Y-73144166D02*
X86764881Y-73715595D01*
X86764881Y-73429881D02*
X85764881Y-73429881D01*
X85907738Y-73525119D01*
X86002976Y-73620357D01*
X86050595Y-73715595D01*
X85764881Y-72525119D02*
X85764881Y-72429880D01*
X85812500Y-72334642D01*
X85860119Y-72287023D01*
X85955357Y-72239404D01*
X86145833Y-72191785D01*
X86383929Y-72191785D01*
X86574405Y-72239404D01*
X86669643Y-72287023D01*
X86717262Y-72334642D01*
X86764881Y-72429880D01*
X86764881Y-72525119D01*
X86717262Y-72620357D01*
X86669643Y-72667976D01*
X86574405Y-72715595D01*
X86383929Y-72763214D01*
X86145833Y-72763214D01*
X85955357Y-72715595D01*
X85860119Y-72667976D01*
X85812500Y-72620357D01*
X85764881Y-72525119D01*
X85764881Y-71287023D02*
X85764881Y-71763214D01*
X86241071Y-71810833D01*
X86193452Y-71763214D01*
X86145833Y-71667976D01*
X86145833Y-71429880D01*
X86193452Y-71334642D01*
X86241071Y-71287023D01*
X86336310Y-71239404D01*
X86574405Y-71239404D01*
X86669643Y-71287023D01*
X86717262Y-71334642D01*
X86764881Y-71429880D01*
X86764881Y-71667976D01*
X86717262Y-71763214D01*
X86669643Y-71810833D01*
X91527381Y-74096547D02*
X91051190Y-74429881D01*
X91527381Y-74667976D02*
X90527381Y-74667976D01*
X90527381Y-74287023D01*
X90575000Y-74191785D01*
X90622619Y-74144166D01*
X90717857Y-74096547D01*
X90860714Y-74096547D01*
X90955952Y-74144166D01*
X91003571Y-74191785D01*
X91051190Y-74287023D01*
X91051190Y-74667976D01*
X91527381Y-73144166D02*
X91527381Y-73715595D01*
X91527381Y-73429881D02*
X90527381Y-73429881D01*
X90670238Y-73525119D01*
X90765476Y-73620357D01*
X90813095Y-73715595D01*
X90527381Y-72525119D02*
X90527381Y-72429880D01*
X90575000Y-72334642D01*
X90622619Y-72287023D01*
X90717857Y-72239404D01*
X90908333Y-72191785D01*
X91146429Y-72191785D01*
X91336905Y-72239404D01*
X91432143Y-72287023D01*
X91479762Y-72334642D01*
X91527381Y-72429880D01*
X91527381Y-72525119D01*
X91479762Y-72620357D01*
X91432143Y-72667976D01*
X91336905Y-72715595D01*
X91146429Y-72763214D01*
X90908333Y-72763214D01*
X90717857Y-72715595D01*
X90622619Y-72667976D01*
X90575000Y-72620357D01*
X90527381Y-72525119D01*
X90527381Y-71334642D02*
X90527381Y-71525119D01*
X90575000Y-71620357D01*
X90622619Y-71667976D01*
X90765476Y-71763214D01*
X90955952Y-71810833D01*
X91336905Y-71810833D01*
X91432143Y-71763214D01*
X91479762Y-71715595D01*
X91527381Y-71620357D01*
X91527381Y-71429880D01*
X91479762Y-71334642D01*
X91432143Y-71287023D01*
X91336905Y-71239404D01*
X91098810Y-71239404D01*
X91003571Y-71287023D01*
X90955952Y-71334642D01*
X90908333Y-71429880D01*
X90908333Y-71620357D01*
X90955952Y-71715595D01*
X91003571Y-71763214D01*
X91098810Y-71810833D01*
X95337381Y-74096547D02*
X94861190Y-74429881D01*
X95337381Y-74667976D02*
X94337381Y-74667976D01*
X94337381Y-74287023D01*
X94385000Y-74191785D01*
X94432619Y-74144166D01*
X94527857Y-74096547D01*
X94670714Y-74096547D01*
X94765952Y-74144166D01*
X94813571Y-74191785D01*
X94861190Y-74287023D01*
X94861190Y-74667976D01*
X95337381Y-73144166D02*
X95337381Y-73715595D01*
X95337381Y-73429881D02*
X94337381Y-73429881D01*
X94480238Y-73525119D01*
X94575476Y-73620357D01*
X94623095Y-73715595D01*
X94337381Y-72525119D02*
X94337381Y-72429880D01*
X94385000Y-72334642D01*
X94432619Y-72287023D01*
X94527857Y-72239404D01*
X94718333Y-72191785D01*
X94956429Y-72191785D01*
X95146905Y-72239404D01*
X95242143Y-72287023D01*
X95289762Y-72334642D01*
X95337381Y-72429880D01*
X95337381Y-72525119D01*
X95289762Y-72620357D01*
X95242143Y-72667976D01*
X95146905Y-72715595D01*
X94956429Y-72763214D01*
X94718333Y-72763214D01*
X94527857Y-72715595D01*
X94432619Y-72667976D01*
X94385000Y-72620357D01*
X94337381Y-72525119D01*
X94337381Y-71858452D02*
X94337381Y-71191785D01*
X95337381Y-71620357D01*
X98829881Y-74096547D02*
X98353690Y-74429881D01*
X98829881Y-74667976D02*
X97829881Y-74667976D01*
X97829881Y-74287023D01*
X97877500Y-74191785D01*
X97925119Y-74144166D01*
X98020357Y-74096547D01*
X98163214Y-74096547D01*
X98258452Y-74144166D01*
X98306071Y-74191785D01*
X98353690Y-74287023D01*
X98353690Y-74667976D01*
X98829881Y-73144166D02*
X98829881Y-73715595D01*
X98829881Y-73429881D02*
X97829881Y-73429881D01*
X97972738Y-73525119D01*
X98067976Y-73620357D01*
X98115595Y-73715595D01*
X97829881Y-72525119D02*
X97829881Y-72429880D01*
X97877500Y-72334642D01*
X97925119Y-72287023D01*
X98020357Y-72239404D01*
X98210833Y-72191785D01*
X98448929Y-72191785D01*
X98639405Y-72239404D01*
X98734643Y-72287023D01*
X98782262Y-72334642D01*
X98829881Y-72429880D01*
X98829881Y-72525119D01*
X98782262Y-72620357D01*
X98734643Y-72667976D01*
X98639405Y-72715595D01*
X98448929Y-72763214D01*
X98210833Y-72763214D01*
X98020357Y-72715595D01*
X97925119Y-72667976D01*
X97877500Y-72620357D01*
X97829881Y-72525119D01*
X98258452Y-71620357D02*
X98210833Y-71715595D01*
X98163214Y-71763214D01*
X98067976Y-71810833D01*
X98020357Y-71810833D01*
X97925119Y-71763214D01*
X97877500Y-71715595D01*
X97829881Y-71620357D01*
X97829881Y-71429880D01*
X97877500Y-71334642D01*
X97925119Y-71287023D01*
X98020357Y-71239404D01*
X98067976Y-71239404D01*
X98163214Y-71287023D01*
X98210833Y-71334642D01*
X98258452Y-71429880D01*
X98258452Y-71620357D01*
X98306071Y-71715595D01*
X98353690Y-71763214D01*
X98448929Y-71810833D01*
X98639405Y-71810833D01*
X98734643Y-71763214D01*
X98782262Y-71715595D01*
X98829881Y-71620357D01*
X98829881Y-71429880D01*
X98782262Y-71334642D01*
X98734643Y-71287023D01*
X98639405Y-71239404D01*
X98448929Y-71239404D01*
X98353690Y-71287023D01*
X98306071Y-71334642D01*
X98258452Y-71429880D01*
X96547262Y-92090714D02*
X96594881Y-91947857D01*
X96594881Y-91709761D01*
X96547262Y-91614523D01*
X96499643Y-91566904D01*
X96404405Y-91519285D01*
X96309167Y-91519285D01*
X96213929Y-91566904D01*
X96166310Y-91614523D01*
X96118690Y-91709761D01*
X96071071Y-91900238D01*
X96023452Y-91995476D01*
X95975833Y-92043095D01*
X95880595Y-92090714D01*
X95785357Y-92090714D01*
X95690119Y-92043095D01*
X95642500Y-91995476D01*
X95594881Y-91900238D01*
X95594881Y-91662142D01*
X95642500Y-91519285D01*
X95594881Y-91185952D02*
X96594881Y-90947857D01*
X95880595Y-90757380D01*
X96594881Y-90566904D01*
X95594881Y-90328809D01*
X96594881Y-89424047D02*
X96594881Y-89995476D01*
X96594881Y-89709762D02*
X95594881Y-89709762D01*
X95737738Y-89805000D01*
X95832976Y-89900238D01*
X95880595Y-89995476D01*
X95594881Y-88805000D02*
X95594881Y-88709761D01*
X95642500Y-88614523D01*
X95690119Y-88566904D01*
X95785357Y-88519285D01*
X95975833Y-88471666D01*
X96213929Y-88471666D01*
X96404405Y-88519285D01*
X96499643Y-88566904D01*
X96547262Y-88614523D01*
X96594881Y-88709761D01*
X96594881Y-88805000D01*
X96547262Y-88900238D01*
X96499643Y-88947857D01*
X96404405Y-88995476D01*
X96213929Y-89043095D01*
X95975833Y-89043095D01*
X95785357Y-88995476D01*
X95690119Y-88947857D01*
X95642500Y-88900238D01*
X95594881Y-88805000D01*
X96594881Y-87519285D02*
X96594881Y-88090714D01*
X96594881Y-87805000D02*
X95594881Y-87805000D01*
X95737738Y-87900238D01*
X95832976Y-87995476D01*
X95880595Y-88090714D01*
M02*
