%TF.GenerationSoftware,KiCad,Pcbnew,4.0.7-e2-6376~61~ubuntu18.04.1*%
%TF.CreationDate,2020-08-28T19:46:44+02:00*%
%TF.ProjectId,control,636F6E74726F6C2E6B696361645F7063,rev?*%
%TF.FileFunction,Copper,L1,Top,Signal*%
%FSLAX46Y46*%
G04 Gerber Fmt 4.6, Leading zero omitted, Abs format (unit mm)*
G04 Created by KiCad (PCBNEW 4.0.7-e2-6376~61~ubuntu18.04.1) date Fri Aug 28 19:46:44 2020*
%MOMM*%
%LPD*%
G01*
G04 APERTURE LIST*
%ADD10C,0.100000*%
%ADD11C,0.150000*%
%ADD12C,6.400000*%
%ADD13C,1.600000*%
%ADD14R,1.600000X1.600000*%
%ADD15O,1.600000X1.600000*%
%ADD16R,1.700000X1.700000*%
%ADD17O,1.700000X1.700000*%
%ADD18O,1.500000X0.900000*%
%ADD19R,1.500000X0.900000*%
%ADD20O,0.900000X1.500000*%
%ADD21R,0.900000X1.500000*%
%ADD22C,1.400000*%
%ADD23O,1.400000X1.400000*%
%ADD24C,0.600000*%
%ADD25C,0.250000*%
%ADD26C,0.500000*%
G04 APERTURE END LIST*
D10*
D11*
X41440000Y-15405000D02*
X41440000Y-115405000D01*
X41440000Y-115405000D02*
X141440000Y-115405000D01*
X141440000Y-15405000D02*
X141440000Y-115405000D01*
X41440000Y-15405000D02*
X141440000Y-15405000D01*
D12*
X136525000Y-20320000D03*
X46355000Y-20320000D03*
X46355000Y-110490000D03*
X136525000Y-110490000D03*
D13*
X62230000Y-23257500D03*
X62230000Y-28257500D03*
X61277500Y-37545000D03*
X61277500Y-42545000D03*
D14*
X67310000Y-21907500D03*
D15*
X67310000Y-28257500D03*
D14*
X66357500Y-36195000D03*
D15*
X66357500Y-42545000D03*
D16*
X110779360Y-25344588D03*
D17*
X113319360Y-25344588D03*
X115859360Y-25344588D03*
X118399360Y-25344588D03*
X120939360Y-25344588D03*
X123479360Y-25344588D03*
X126019360Y-25344588D03*
X128559360Y-25344588D03*
D16*
X110779360Y-22804588D03*
D17*
X113319360Y-22804588D03*
X115859360Y-22804588D03*
X118399360Y-22804588D03*
X120939360Y-22804588D03*
X123479360Y-22804588D03*
X126019360Y-22804588D03*
X128559360Y-22804588D03*
D16*
X47942500Y-60007500D03*
D17*
X47942500Y-62547500D03*
D16*
X54292500Y-38735000D03*
X54292500Y-41275000D03*
X103187500Y-43180000D03*
D17*
X103187500Y-40640000D03*
D16*
X99377500Y-59055000D03*
D17*
X99377500Y-61595000D03*
D16*
X86042500Y-48577500D03*
X88582500Y-48577500D03*
X91122500Y-48577500D03*
X121285000Y-103822500D03*
X46672500Y-95885000D03*
X81597500Y-98107500D03*
X81597500Y-87947500D03*
X81597500Y-95567500D03*
X46672500Y-88265000D03*
X81597500Y-90487500D03*
X46672500Y-90805000D03*
X81597500Y-93027500D03*
X46672500Y-93345000D03*
X127000000Y-103822500D03*
D17*
X124460000Y-103822500D03*
D16*
X117475000Y-87312500D03*
X117475000Y-84772500D03*
X117475000Y-82232500D03*
D18*
X54292500Y-26670000D03*
X54292500Y-25400000D03*
D19*
X54292500Y-27940000D03*
D18*
X59055000Y-32067500D03*
X59055000Y-30797500D03*
D19*
X59055000Y-33337500D03*
D18*
X63182500Y-32067500D03*
X63182500Y-33337500D03*
D19*
X63182500Y-30797500D03*
D18*
X68897500Y-32067500D03*
X68897500Y-30797500D03*
D19*
X68897500Y-33337500D03*
D18*
X54292500Y-32067500D03*
X54292500Y-30797500D03*
D19*
X54292500Y-33337500D03*
D18*
X110807500Y-30480000D03*
X110807500Y-31750000D03*
D19*
X110807500Y-29210000D03*
D18*
X115570000Y-30480000D03*
X115570000Y-31750000D03*
D19*
X115570000Y-29210000D03*
D18*
X120332500Y-30480000D03*
X120332500Y-31750000D03*
D19*
X120332500Y-29210000D03*
D18*
X125095000Y-30480000D03*
X125095000Y-31750000D03*
D19*
X125095000Y-29210000D03*
D18*
X125730000Y-35877500D03*
X125730000Y-34607500D03*
D19*
X125730000Y-37147500D03*
D18*
X120967500Y-35877500D03*
X120967500Y-34607500D03*
D19*
X120967500Y-37147500D03*
D18*
X116205000Y-35877500D03*
X116205000Y-34607500D03*
D19*
X116205000Y-37147500D03*
D18*
X111442500Y-35877500D03*
X111442500Y-34607500D03*
D19*
X111442500Y-37147500D03*
D18*
X58737500Y-46355000D03*
X58737500Y-45085000D03*
D19*
X58737500Y-47625000D03*
D18*
X62865000Y-46355000D03*
X62865000Y-47625000D03*
D19*
X62865000Y-45085000D03*
D18*
X68580000Y-46355000D03*
X68580000Y-45085000D03*
D19*
X68580000Y-47625000D03*
D18*
X88900000Y-55245000D03*
X88900000Y-53975000D03*
D19*
X88900000Y-56515000D03*
D18*
X98425000Y-66040000D03*
X98425000Y-64770000D03*
D19*
X98425000Y-67310000D03*
D20*
X111737974Y-103757972D03*
X110467974Y-103757972D03*
D21*
X113007974Y-103757972D03*
D20*
X117135474Y-103757972D03*
X115865474Y-103757972D03*
D21*
X118405474Y-103757972D03*
D18*
X112712500Y-66675000D03*
X112712500Y-65405000D03*
D19*
X112712500Y-67945000D03*
D18*
X117475000Y-66675000D03*
X117475000Y-65405000D03*
D19*
X117475000Y-67945000D03*
D18*
X122237500Y-66675000D03*
X122237500Y-65405000D03*
D19*
X122237500Y-67945000D03*
D20*
X62231126Y-94225876D03*
X60961126Y-94225876D03*
D21*
X63501126Y-94225876D03*
D18*
X112712500Y-72072500D03*
X112712500Y-70802500D03*
D19*
X112712500Y-73342500D03*
D18*
X117475000Y-72072500D03*
X117475000Y-70802500D03*
D19*
X117475000Y-73342500D03*
D20*
X62231126Y-89463376D03*
X60961126Y-89463376D03*
D21*
X63501126Y-89463376D03*
D18*
X112712500Y-77470000D03*
X112712500Y-76200000D03*
D19*
X112712500Y-78740000D03*
D18*
X117475000Y-77470000D03*
X117475000Y-76200000D03*
D19*
X117475000Y-78740000D03*
D20*
X51436126Y-85335876D03*
X52706126Y-85335876D03*
D21*
X50166126Y-85335876D03*
D18*
X76517500Y-81280000D03*
X76517500Y-80010000D03*
D19*
X76517500Y-82550000D03*
D20*
X56833626Y-80573376D03*
X58103626Y-80573376D03*
D21*
X55563626Y-80573376D03*
D20*
X56833626Y-104385876D03*
X58103626Y-104385876D03*
D21*
X55563626Y-104385876D03*
D18*
X76517500Y-97472500D03*
X76517500Y-96202500D03*
D19*
X76517500Y-98742500D03*
D18*
X76517500Y-86677500D03*
X76517500Y-85407500D03*
D19*
X76517500Y-87947500D03*
D20*
X56833626Y-85335876D03*
X58103626Y-85335876D03*
D21*
X55563626Y-85335876D03*
D20*
X56833626Y-99623376D03*
X58103626Y-99623376D03*
D21*
X55563626Y-99623376D03*
D18*
X76517500Y-92075000D03*
X76517500Y-90805000D03*
D19*
X76517500Y-93345000D03*
D20*
X56833626Y-90098376D03*
X58103626Y-90098376D03*
D21*
X55563626Y-90098376D03*
D20*
X56833626Y-94860876D03*
X58103626Y-94860876D03*
D21*
X55563626Y-94860876D03*
D20*
X51436126Y-90098376D03*
X52706126Y-90098376D03*
D21*
X50166126Y-90098376D03*
D20*
X51436126Y-99623376D03*
X52706126Y-99623376D03*
D21*
X50166126Y-99623376D03*
D18*
X76517500Y-102870000D03*
X76517500Y-101600000D03*
D19*
X76517500Y-104140000D03*
D20*
X51436126Y-94860876D03*
X52706126Y-94860876D03*
D21*
X50166126Y-94860876D03*
D18*
X84137500Y-60642500D03*
X84137500Y-59372500D03*
D19*
X84137500Y-61912500D03*
D18*
X84137500Y-66040000D03*
X84137500Y-64770000D03*
D19*
X84137500Y-67310000D03*
D18*
X88900000Y-60642500D03*
X88900000Y-59372500D03*
D19*
X88900000Y-61912500D03*
D18*
X88900000Y-66040000D03*
X88900000Y-64770000D03*
D19*
X88900000Y-67310000D03*
D18*
X88900000Y-71437500D03*
X88900000Y-70167500D03*
D19*
X88900000Y-72707500D03*
D18*
X88900000Y-76835000D03*
X88900000Y-75565000D03*
D19*
X88900000Y-78105000D03*
D18*
X84137500Y-71437500D03*
X84137500Y-70167500D03*
D19*
X84137500Y-72707500D03*
D18*
X84137500Y-76835000D03*
X84137500Y-75565000D03*
D19*
X84137500Y-78105000D03*
D18*
X93662500Y-60642500D03*
X93662500Y-59372500D03*
D19*
X93662500Y-61912500D03*
D18*
X93662500Y-66040000D03*
X93662500Y-64770000D03*
D19*
X93662500Y-67310000D03*
D18*
X93662500Y-71437500D03*
X93662500Y-70167500D03*
D19*
X93662500Y-72707500D03*
D18*
X93662500Y-76835000D03*
X93662500Y-75565000D03*
D19*
X93662500Y-78105000D03*
D18*
X122237500Y-72072500D03*
X122237500Y-70802500D03*
D19*
X122237500Y-73342500D03*
D18*
X122237500Y-82867500D03*
X122237500Y-81597500D03*
D19*
X122237500Y-84137500D03*
D18*
X127000000Y-82867500D03*
X127000000Y-81597500D03*
D19*
X127000000Y-84137500D03*
D18*
X127000000Y-72072500D03*
X127000000Y-70802500D03*
D19*
X127000000Y-73342500D03*
D18*
X127000000Y-66675000D03*
X127000000Y-65405000D03*
D19*
X127000000Y-67945000D03*
D18*
X122237500Y-77470000D03*
X122237500Y-76200000D03*
D19*
X122237500Y-78740000D03*
D18*
X127000000Y-77470000D03*
X127000000Y-76200000D03*
D19*
X127000000Y-78740000D03*
D18*
X122237500Y-88265000D03*
X122237500Y-86995000D03*
D19*
X122237500Y-89535000D03*
D18*
X122237500Y-99060000D03*
X122237500Y-97790000D03*
D19*
X122237500Y-100330000D03*
D18*
X127000000Y-99060000D03*
X127000000Y-97790000D03*
D19*
X127000000Y-100330000D03*
D18*
X127000000Y-88265000D03*
X127000000Y-86995000D03*
D19*
X127000000Y-89535000D03*
D18*
X122237500Y-93662500D03*
X122237500Y-92392500D03*
D19*
X122237500Y-94932500D03*
D18*
X127000000Y-93662500D03*
X127000000Y-92392500D03*
D19*
X127000000Y-94932500D03*
D20*
X121160740Y-45606810D03*
X119890740Y-45606810D03*
D21*
X122430740Y-45606810D03*
D20*
X110365740Y-45606810D03*
X109095740Y-45606810D03*
D21*
X111635740Y-45606810D03*
D20*
X110365740Y-40844310D03*
X109095740Y-40844310D03*
D21*
X111635740Y-40844310D03*
D20*
X121160740Y-40844310D03*
X119890740Y-40844310D03*
D21*
X122430740Y-40844310D03*
D20*
X115763240Y-40844310D03*
X114493240Y-40844310D03*
D21*
X117033240Y-40844310D03*
D20*
X126558240Y-45606810D03*
X125288240Y-45606810D03*
D21*
X127828240Y-45606810D03*
D20*
X126558240Y-40844310D03*
X125288240Y-40844310D03*
D21*
X127828240Y-40844310D03*
D22*
X57467500Y-23177500D03*
D23*
X57467500Y-28257500D03*
D22*
X59690000Y-23177500D03*
D23*
X59690000Y-28257500D03*
D22*
X69850000Y-28257500D03*
D23*
X69850000Y-23177500D03*
D22*
X72072500Y-23177500D03*
D23*
X72072500Y-28257500D03*
D22*
X72072500Y-35242500D03*
D23*
X72072500Y-30162500D03*
D22*
X64770000Y-28257500D03*
D23*
X64770000Y-23177500D03*
D22*
X106362500Y-28575000D03*
D23*
X106362500Y-33655000D03*
D22*
X58737500Y-37465000D03*
D23*
X58737500Y-42545000D03*
D22*
X68580000Y-42545000D03*
D23*
X68580000Y-37465000D03*
D22*
X70802500Y-37465000D03*
D23*
X70802500Y-42545000D03*
D22*
X71755000Y-49530000D03*
D23*
X71755000Y-44450000D03*
D22*
X63817500Y-42545000D03*
D23*
X63817500Y-37465000D03*
D22*
X85090000Y-51752500D03*
D23*
X85090000Y-56832500D03*
D22*
X96837500Y-57150000D03*
D23*
X96837500Y-62230000D03*
D22*
X111125000Y-95567500D03*
D23*
X111125000Y-100647500D03*
D22*
X115252500Y-62865000D03*
D23*
X110172500Y-62865000D03*
D22*
X117157500Y-62865000D03*
D23*
X122237500Y-62865000D03*
D22*
X65604896Y-98126242D03*
D23*
X60524896Y-98126242D03*
D22*
X65604896Y-86378742D03*
D23*
X60524896Y-86378742D03*
D22*
X48142396Y-81298742D03*
D23*
X53222396Y-81298742D03*
D22*
X67627500Y-81597500D03*
D23*
X72707500Y-81597500D03*
D22*
X65604896Y-81616242D03*
D23*
X60524896Y-81616242D03*
D22*
X65604896Y-102571242D03*
D23*
X60524896Y-102571242D03*
D22*
X67627500Y-98425000D03*
D23*
X72707500Y-98425000D03*
D22*
X67627500Y-85407500D03*
D23*
X72707500Y-85407500D03*
D22*
X65604896Y-84156242D03*
D23*
X60524896Y-84156242D03*
D22*
X65604896Y-100348742D03*
D23*
X60524896Y-100348742D03*
D22*
X67945000Y-95567500D03*
D23*
X67945000Y-90487500D03*
D22*
X48142396Y-102888742D03*
D23*
X53222396Y-102888742D03*
D22*
X67627500Y-102552500D03*
D23*
X72707500Y-102552500D03*
D22*
X82867500Y-51752500D03*
D23*
X82867500Y-56832500D03*
D22*
X92075000Y-51752500D03*
D23*
X92075000Y-56832500D03*
D22*
X94297500Y-51752500D03*
D23*
X94297500Y-56832500D03*
D22*
X113347500Y-91757500D03*
D23*
X118427500Y-91757500D03*
D22*
X113347500Y-94297500D03*
D23*
X118427500Y-94297500D03*
D22*
X129540000Y-62865000D03*
D23*
X124460000Y-62865000D03*
D22*
X113347500Y-96837500D03*
D23*
X118427500Y-96837500D03*
D22*
X113347500Y-99060000D03*
D23*
X118427500Y-99060000D03*
D22*
X106362500Y-47942500D03*
D23*
X106362500Y-42862500D03*
D22*
X106362500Y-35877500D03*
D23*
X106362500Y-40957500D03*
D22*
X114300000Y-49530000D03*
D23*
X114300000Y-44450000D03*
D24*
X78422500Y-28575000D03*
X64770000Y-78105000D03*
X85725000Y-87947500D03*
X132397500Y-77470000D03*
X131762500Y-93662500D03*
X108267500Y-81597500D03*
X109220000Y-78740000D03*
X79375000Y-80010000D03*
X125730000Y-85407500D03*
D25*
X62230000Y-23257500D02*
X64690000Y-23257500D01*
X64690000Y-23257500D02*
X64770000Y-23177500D01*
X67310000Y-21907500D02*
X68580000Y-21907500D01*
X68580000Y-21907500D02*
X69850000Y-23177500D01*
X64770000Y-23177500D02*
X66040000Y-21907500D01*
X66040000Y-21907500D02*
X67310000Y-21907500D01*
X59690000Y-28257500D02*
X62230000Y-28257500D01*
X59055000Y-30797500D02*
X59055000Y-28892500D01*
X59055000Y-28892500D02*
X59690000Y-28257500D01*
X67310000Y-36195000D02*
X68580000Y-37465000D01*
X66357500Y-36195000D02*
X67310000Y-36195000D01*
X63817500Y-37465000D02*
X65087500Y-36195000D01*
X65087500Y-36195000D02*
X66357500Y-36195000D01*
X61277500Y-37545000D02*
X63737500Y-37545000D01*
X63737500Y-37545000D02*
X63817500Y-37465000D01*
X58737500Y-42545000D02*
X58737500Y-43534949D01*
X58737500Y-43534949D02*
X58737500Y-45085000D01*
X58737500Y-42545000D02*
X61277500Y-42545000D01*
X112077500Y-27742728D02*
X112077500Y-30210000D01*
X112077500Y-30210000D02*
X111807500Y-30480000D01*
X111807500Y-30480000D02*
X110807500Y-30480000D01*
X110779360Y-25344588D02*
X110779360Y-26444588D01*
X110779360Y-26444588D02*
X112077500Y-27742728D01*
X110779360Y-22804588D02*
X110779360Y-23904588D01*
X110779360Y-23904588D02*
X110779360Y-25344588D01*
X113319360Y-25344588D02*
X113319360Y-29229360D01*
X113319360Y-29229360D02*
X114570000Y-30480000D01*
X114570000Y-30480000D02*
X115570000Y-30480000D01*
X113319360Y-22804588D02*
X113319360Y-24006669D01*
X113319360Y-24006669D02*
X113319360Y-25344588D01*
X115859360Y-27276860D02*
X119062500Y-30480000D01*
X119062500Y-30480000D02*
X120332500Y-30480000D01*
X115859360Y-25344588D02*
X115859360Y-27276860D01*
X115859360Y-22804588D02*
X115859360Y-25344588D01*
X121920000Y-28257500D02*
X121920000Y-28305000D01*
X121920000Y-28305000D02*
X124095000Y-30480000D01*
X124095000Y-30480000D02*
X125095000Y-30480000D01*
X119380000Y-28257500D02*
X121920000Y-28257500D01*
X118399360Y-27276860D02*
X119380000Y-28257500D01*
X118399360Y-25344588D02*
X118399360Y-27276860D01*
X118399360Y-22804588D02*
X118399360Y-25344588D01*
X120939360Y-25344588D02*
X120939360Y-26640450D01*
X120939360Y-26640450D02*
X122555000Y-28256090D01*
X122555000Y-28256090D02*
X125926092Y-28256090D01*
X125926092Y-28256090D02*
X125927502Y-28257500D01*
X127000000Y-35607500D02*
X126730000Y-35877500D01*
X125927502Y-28257500D02*
X126365000Y-28257500D01*
X126365000Y-28257500D02*
X127000000Y-28892500D01*
X127000000Y-28892500D02*
X127000000Y-35607500D01*
X126730000Y-35877500D02*
X125730000Y-35877500D01*
X120939360Y-22804588D02*
X120939360Y-25344588D01*
X123479360Y-25344588D02*
X123479360Y-27276860D01*
X123479360Y-27276860D02*
X123825000Y-27622500D01*
X126366410Y-27622500D02*
X127635000Y-28891090D01*
X123825000Y-27622500D02*
X126366410Y-27622500D01*
X127635000Y-28891090D02*
X127635000Y-37465000D01*
X127635000Y-37465000D02*
X127000000Y-38100000D01*
X124190000Y-38100000D02*
X121967500Y-35877500D01*
X127000000Y-38100000D02*
X124190000Y-38100000D01*
X121967500Y-35877500D02*
X120967500Y-35877500D01*
X123479360Y-22804588D02*
X123479360Y-25344588D01*
X126019360Y-25344588D02*
X126019360Y-26639040D01*
X117205000Y-35877500D02*
X116205000Y-35877500D01*
X126019360Y-26639040D02*
X128085010Y-28704690D01*
X128085010Y-28704690D02*
X128085009Y-37651401D01*
X128085009Y-37651401D02*
X127186400Y-38550010D01*
X127186400Y-38550010D02*
X119877510Y-38550010D01*
X119877510Y-38550010D02*
X117205000Y-35877500D01*
X126019360Y-22804588D02*
X126019360Y-25344588D01*
X127372800Y-39000020D02*
X116272518Y-39000020D01*
X116272518Y-39000020D02*
X113149998Y-35877500D01*
X113149998Y-35877500D02*
X112442500Y-35877500D01*
X112442500Y-35877500D02*
X111442500Y-35877500D01*
X128559360Y-25344588D02*
X128559360Y-37813460D01*
X128559360Y-37813460D02*
X127372800Y-39000020D01*
X128559360Y-22804588D02*
X128559360Y-24006669D01*
X128559360Y-24006669D02*
X128559360Y-25344588D01*
D26*
X111125000Y-95567500D02*
X97790000Y-108902500D01*
X97790000Y-108902500D02*
X54156154Y-108902500D01*
X54156154Y-108902500D02*
X48142396Y-102888742D01*
X72072500Y-23177500D02*
X78740000Y-23177500D01*
X78740000Y-23177500D02*
X80010000Y-23177500D01*
X78422500Y-28575000D02*
X78422500Y-23495000D01*
X78422500Y-23495000D02*
X78740000Y-23177500D01*
X43815000Y-98561346D02*
X43815000Y-85626138D01*
X43815000Y-85626138D02*
X48142396Y-81298742D01*
X48142396Y-102888742D02*
X43815000Y-98561346D01*
X45402500Y-61197500D02*
X45402500Y-76517500D01*
X45402500Y-76517500D02*
X45402500Y-78558846D01*
X64770000Y-78105000D02*
X63182500Y-76517500D01*
X63182500Y-76517500D02*
X45402500Y-76517500D01*
X45402500Y-78558846D02*
X48142396Y-81298742D01*
X47942500Y-60007500D02*
X46592500Y-60007500D01*
X46592500Y-60007500D02*
X45402500Y-61197500D01*
X119062500Y-60960000D02*
X127635000Y-60960000D01*
X127635000Y-60960000D02*
X129540000Y-62865000D01*
X117157500Y-62865000D02*
X119062500Y-60960000D01*
X96837500Y-57150000D02*
X109537500Y-57150000D01*
X109537500Y-57150000D02*
X115252500Y-62865000D01*
X94297500Y-51752500D02*
X94297500Y-54610000D01*
X94297500Y-54610000D02*
X96837500Y-57150000D01*
X94297500Y-47942500D02*
X94297500Y-51752500D01*
X92710000Y-46355000D02*
X94297500Y-47942500D01*
X83820000Y-46355000D02*
X92710000Y-46355000D01*
X80645000Y-49530000D02*
X83820000Y-46355000D01*
X71755000Y-49530000D02*
X80645000Y-49530000D01*
X80645000Y-49530000D02*
X82867500Y-51752500D01*
X47942500Y-60007500D02*
X47942500Y-49530000D01*
X47942500Y-49530000D02*
X47942500Y-27305000D01*
X71755000Y-49530000D02*
X47942500Y-49530000D01*
X100965000Y-23177500D02*
X102552500Y-24765000D01*
X102552500Y-24765000D02*
X106362500Y-28575000D01*
X102235000Y-34290000D02*
X102235000Y-25082500D01*
X102235000Y-25082500D02*
X102552500Y-24765000D01*
X103822500Y-35877500D02*
X102235000Y-34290000D01*
X106362500Y-35877500D02*
X103822500Y-35877500D01*
X80010000Y-23177500D02*
X100965000Y-23177500D01*
X80607551Y-23177500D02*
X80010000Y-23177500D01*
X106362500Y-47942500D02*
X105372551Y-47942500D01*
X105372551Y-47942500D02*
X80607551Y-23177500D01*
X106362500Y-47942500D02*
X107950000Y-49530000D01*
X107950000Y-49530000D02*
X114300000Y-49530000D01*
X47942500Y-27305000D02*
X52070000Y-23177500D01*
X52070000Y-23177500D02*
X57467500Y-23177500D01*
X61277500Y-24765000D02*
X70485000Y-24765000D01*
X70485000Y-24765000D02*
X72072500Y-23177500D01*
X59690000Y-23177500D02*
X61277500Y-24765000D01*
X60325000Y-39052500D02*
X69215000Y-39052500D01*
X69215000Y-39052500D02*
X70802500Y-37465000D01*
X58737500Y-37465000D02*
X60325000Y-39052500D01*
X72072500Y-35242500D02*
X72072500Y-36195000D01*
X72072500Y-36195000D02*
X70802500Y-37465000D01*
X57467500Y-23177500D02*
X59690000Y-23177500D01*
X65604896Y-102571242D02*
X67608758Y-102571242D01*
X67608758Y-102571242D02*
X67627500Y-102552500D01*
X65604896Y-98126242D02*
X67328742Y-98126242D01*
X67328742Y-98126242D02*
X67627500Y-98425000D01*
X65604896Y-98126242D02*
X65604896Y-97907604D01*
X65604896Y-97907604D02*
X67945000Y-95567500D01*
X65604896Y-81616242D02*
X67608758Y-81616242D01*
X67608758Y-81616242D02*
X67627500Y-81597500D01*
X65604896Y-84156242D02*
X65604896Y-85407500D01*
X65604896Y-85407500D02*
X65604896Y-86378742D01*
X67627500Y-85407500D02*
X65604896Y-85407500D01*
X115252500Y-62865000D02*
X117157500Y-62865000D01*
X113347500Y-96837500D02*
X113347500Y-95567500D01*
X113347500Y-95567500D02*
X113347500Y-94297500D01*
X111125000Y-95567500D02*
X113347500Y-95567500D01*
X113347500Y-94297500D02*
X113347500Y-91757500D01*
X113347500Y-99060000D02*
X113347500Y-96837500D01*
X92075000Y-51752500D02*
X94297500Y-51752500D01*
X82867500Y-51752500D02*
X85090000Y-51752500D01*
X65604896Y-100348742D02*
X65604896Y-102571242D01*
X65604896Y-98126242D02*
X65604896Y-100348742D01*
X65604896Y-81616242D02*
X65604896Y-84156242D01*
D25*
X52387500Y-35730000D02*
X52387500Y-27575000D01*
X52387500Y-27575000D02*
X53292500Y-26670000D01*
X53292500Y-26670000D02*
X54292500Y-26670000D01*
X54292500Y-38735000D02*
X54292500Y-37635000D01*
X54292500Y-37635000D02*
X52387500Y-35730000D01*
X56515000Y-45402500D02*
X57467500Y-46355000D01*
X57467500Y-46355000D02*
X58737500Y-46355000D01*
X56515000Y-42397500D02*
X56515000Y-45402500D01*
X55392500Y-41275000D02*
X56515000Y-42397500D01*
X53022500Y-34290000D02*
X53022500Y-32337500D01*
X53022500Y-32337500D02*
X53292500Y-32067500D01*
X53292500Y-32067500D02*
X54292500Y-32067500D01*
X56197500Y-37465000D02*
X53022500Y-34290000D01*
X56197500Y-40470000D02*
X56197500Y-37465000D01*
X54292500Y-41275000D02*
X55392500Y-41275000D01*
X55392500Y-41275000D02*
X56197500Y-40470000D01*
X106362500Y-42862500D02*
X109095740Y-45595740D01*
X109095740Y-45595740D02*
X109095740Y-45606810D01*
X103187500Y-43180000D02*
X106045000Y-43180000D01*
X106045000Y-43180000D02*
X106362500Y-42862500D01*
X109796430Y-47307500D02*
X117490050Y-47307500D01*
X117490050Y-47307500D02*
X119190740Y-45606810D01*
X119190740Y-45606810D02*
X119890740Y-45606810D01*
X109095740Y-45606810D02*
X109095740Y-46606810D01*
X109095740Y-46606810D02*
X109796430Y-47307500D01*
X106362500Y-40957500D02*
X108982550Y-40957500D01*
X108982550Y-40957500D02*
X109095740Y-40844310D01*
X103187500Y-40640000D02*
X106045000Y-40640000D01*
X106045000Y-40640000D02*
X106362500Y-40957500D01*
X113665000Y-45851068D02*
X115183982Y-45851068D01*
X115183982Y-45851068D02*
X119890740Y-41144310D01*
X119890740Y-41144310D02*
X119890740Y-40844310D01*
X110365740Y-44008240D02*
X111822172Y-44008240D01*
X111822172Y-44008240D02*
X113665000Y-45851068D01*
X109095740Y-42738240D02*
X110365740Y-44008240D01*
X110365740Y-44008240D02*
X110365740Y-45606810D01*
X109095740Y-40844310D02*
X109095740Y-42738240D01*
X99377500Y-59055000D02*
X98277500Y-59055000D01*
X98277500Y-59055000D02*
X96690000Y-60642500D01*
X96690000Y-60642500D02*
X94662500Y-60642500D01*
X94662500Y-60642500D02*
X93662500Y-60642500D01*
X90487500Y-59690000D02*
X91440000Y-60642500D01*
X91440000Y-60642500D02*
X93662500Y-60642500D01*
X90487500Y-55832500D02*
X90487500Y-59690000D01*
X88900000Y-55245000D02*
X89900000Y-55245000D01*
X89900000Y-55245000D02*
X90487500Y-55832500D01*
X99377500Y-61595000D02*
X99377500Y-63500000D01*
X99377500Y-63500000D02*
X100012500Y-64135000D01*
X100012500Y-64135000D02*
X100012500Y-65452500D01*
X100012500Y-65452500D02*
X99425000Y-66040000D01*
X99425000Y-66040000D02*
X98425000Y-66040000D01*
X98425000Y-66040000D02*
X93662500Y-66040000D01*
X88900000Y-66040000D02*
X89900000Y-66040000D01*
X89900000Y-66040000D02*
X93662500Y-66040000D01*
X82867500Y-56832500D02*
X86360000Y-53340000D01*
X86360000Y-53340000D02*
X86360000Y-49995000D01*
X86360000Y-49995000D02*
X86042500Y-49677500D01*
X86042500Y-49677500D02*
X86042500Y-48577500D01*
X82867500Y-56832500D02*
X82867500Y-58402500D01*
X82867500Y-58402500D02*
X83837500Y-59372500D01*
X83837500Y-59372500D02*
X84137500Y-59372500D01*
X92075000Y-55245000D02*
X88582500Y-51752500D01*
X88582500Y-51752500D02*
X88582500Y-48577500D01*
X92075000Y-56832500D02*
X92075000Y-55245000D01*
X90805000Y-53338590D02*
X90805000Y-49995000D01*
X90805000Y-49995000D02*
X91122500Y-49677500D01*
X91122500Y-49677500D02*
X91122500Y-48577500D01*
X92525009Y-55058599D02*
X90805000Y-53338590D01*
X94297500Y-56832500D02*
X92525010Y-55060010D01*
X92525010Y-55060010D02*
X92525009Y-55058599D01*
X94297500Y-56832500D02*
X94297500Y-58737500D01*
X94297500Y-58737500D02*
X93662500Y-59372500D01*
X111125000Y-100647500D02*
X110425001Y-101347499D01*
X110425001Y-101347499D02*
X110425001Y-103714999D01*
X110425001Y-103714999D02*
X110467974Y-103757972D01*
X111437502Y-105727500D02*
X118280000Y-105727500D01*
X118280000Y-105727500D02*
X120185000Y-103822500D01*
X120185000Y-103822500D02*
X121285000Y-103822500D01*
X110467974Y-103757972D02*
X110467974Y-104757972D01*
X110467974Y-104757972D02*
X111437502Y-105727500D01*
X80310000Y-98107500D02*
X81597500Y-98107500D01*
X76517500Y-101600000D02*
X76817500Y-101600000D01*
X76817500Y-101600000D02*
X80310000Y-98107500D01*
X72707500Y-102552500D02*
X73660000Y-101600000D01*
X73660000Y-101600000D02*
X76517500Y-101600000D01*
X85725000Y-87947500D02*
X87312500Y-86360000D01*
X87312500Y-86360000D02*
X87312500Y-77422500D01*
X87312500Y-77422500D02*
X87900000Y-76835000D01*
X87900000Y-76835000D02*
X88900000Y-76835000D01*
X76517500Y-80010000D02*
X77787500Y-80010000D01*
X77787500Y-80010000D02*
X81597500Y-83820000D01*
X81597500Y-83820000D02*
X81597500Y-87947500D01*
X72707500Y-81597500D02*
X74295000Y-80010000D01*
X74295000Y-80010000D02*
X76517500Y-80010000D01*
X88900000Y-76835000D02*
X93662500Y-76835000D01*
X86360000Y-80010000D02*
X86360000Y-72977500D01*
X86360000Y-72977500D02*
X87900000Y-71437500D01*
X87900000Y-71437500D02*
X88900000Y-71437500D01*
X84455000Y-81915000D02*
X86360000Y-80010000D01*
X84455000Y-93810000D02*
X84455000Y-81915000D01*
X81597500Y-95567500D02*
X82697500Y-95567500D01*
X82697500Y-95567500D02*
X84455000Y-93810000D01*
X76517500Y-96202500D02*
X80962500Y-96202500D01*
X80962500Y-96202500D02*
X81597500Y-95567500D01*
X72707500Y-98425000D02*
X74930000Y-96202500D01*
X74930000Y-96202500D02*
X76517500Y-96202500D01*
X88900000Y-71437500D02*
X93662500Y-71437500D01*
X52068590Y-79375000D02*
X56635250Y-79375000D01*
X56635250Y-79375000D02*
X56833626Y-79573376D01*
X56833626Y-79573376D02*
X56833626Y-80573376D01*
X48260000Y-87777500D02*
X48260000Y-83183590D01*
X48260000Y-83183590D02*
X52068590Y-79375000D01*
X46672500Y-88265000D02*
X47772500Y-88265000D01*
X47772500Y-88265000D02*
X48260000Y-87777500D01*
X59506136Y-89228066D02*
X59506136Y-91200886D01*
X59506136Y-91200886D02*
X62231126Y-93925876D01*
X62231126Y-93925876D02*
X62231126Y-94225876D01*
X56833626Y-85335876D02*
X56833626Y-86555556D01*
X56833626Y-86555556D02*
X59506136Y-89228066D01*
X56833626Y-80573376D02*
X56833626Y-85335876D01*
X76517500Y-85407500D02*
X77787500Y-85407500D01*
X79057500Y-86677500D02*
X79057500Y-89535000D01*
X77787500Y-85407500D02*
X79057500Y-86677500D01*
X79057500Y-89535000D02*
X80010000Y-90487500D01*
X80010000Y-90487500D02*
X81597500Y-90487500D01*
X72707500Y-85407500D02*
X76517500Y-85407500D01*
X46672500Y-90805000D02*
X47772500Y-90805000D01*
X53657500Y-80010000D02*
X54492396Y-80844896D01*
X47772500Y-90805000D02*
X48763616Y-89813884D01*
X48763616Y-89813884D02*
X48763616Y-83316384D01*
X48763616Y-83316384D02*
X52070000Y-80010000D01*
X52070000Y-80010000D02*
X53657500Y-80010000D01*
X54492396Y-80844896D02*
X54492396Y-81616242D01*
X54161116Y-87744776D02*
X55244716Y-88828376D01*
X54492396Y-81616242D02*
X54161116Y-81947522D01*
X54161116Y-81947522D02*
X54161116Y-87744776D01*
X55244716Y-88828376D02*
X56563626Y-88828376D01*
X56563626Y-88828376D02*
X56833626Y-89098376D01*
X56833626Y-89098376D02*
X56833626Y-90098376D01*
X76517500Y-90805000D02*
X77787500Y-90805000D01*
X77787500Y-90805000D02*
X80010000Y-93027500D01*
X80010000Y-93027500D02*
X81597500Y-93027500D01*
X67945000Y-90487500D02*
X76200000Y-90487500D01*
X76200000Y-90487500D02*
X76517500Y-90805000D01*
X49213626Y-88558376D02*
X49213626Y-93345000D01*
X49213626Y-93345000D02*
X49213626Y-100575876D01*
X46672500Y-93345000D02*
X49213626Y-93345000D01*
X51436126Y-85335876D02*
X51436126Y-86335876D01*
X51436126Y-86335876D02*
X49213626Y-88558376D01*
X51436126Y-100623376D02*
X51436126Y-99623376D01*
X49213626Y-100575876D02*
X49531126Y-100893376D01*
X49531126Y-100893376D02*
X51166126Y-100893376D01*
X51166126Y-100893376D02*
X51436126Y-100623376D01*
X118427500Y-96837500D02*
X117135474Y-98129526D01*
X117135474Y-98129526D02*
X117135474Y-103757972D01*
X125730000Y-99330000D02*
X125730000Y-101452500D01*
X125730000Y-101452500D02*
X127000000Y-102722500D01*
X127000000Y-102722500D02*
X127000000Y-103822500D01*
X127000000Y-99060000D02*
X126000000Y-99060000D01*
X126000000Y-99060000D02*
X125730000Y-99330000D01*
X118427500Y-96837500D02*
X119380000Y-97790000D01*
X119380000Y-97790000D02*
X122237500Y-97790000D01*
X122237500Y-97790000D02*
X121285000Y-97790000D01*
X121285000Y-97790000D02*
X120967500Y-97472500D01*
X120967500Y-97472500D02*
X120967500Y-87265000D01*
X120967500Y-87265000D02*
X121237500Y-86995000D01*
X121237500Y-86995000D02*
X122237500Y-86995000D01*
X124460000Y-99377500D02*
X124142500Y-99060000D01*
X124142500Y-99060000D02*
X123825000Y-99060000D01*
X124460000Y-103822500D02*
X124460000Y-99377500D01*
X118427500Y-99060000D02*
X122237500Y-99060000D01*
X123825000Y-99060000D02*
X125095000Y-97790000D01*
X125095000Y-97790000D02*
X127000000Y-97790000D01*
X122237500Y-99060000D02*
X123825000Y-99060000D01*
X127000000Y-86995000D02*
X128000000Y-86995000D01*
X128000000Y-97790000D02*
X127000000Y-97790000D01*
X128000000Y-86995000D02*
X128270000Y-87265000D01*
X128270000Y-87265000D02*
X128270000Y-97520000D01*
X128270000Y-97520000D02*
X128000000Y-97790000D01*
X119380000Y-86507500D02*
X119380000Y-68532500D01*
X119380000Y-68532500D02*
X121237500Y-66675000D01*
X121237500Y-66675000D02*
X122237500Y-66675000D01*
X117475000Y-87312500D02*
X118575000Y-87312500D01*
X118575000Y-87312500D02*
X119380000Y-86507500D01*
X117475000Y-84772500D02*
X118575000Y-84772500D01*
X118575000Y-84772500D02*
X118745000Y-84602500D01*
X118745000Y-84602500D02*
X118745000Y-72342500D01*
X118745000Y-72342500D02*
X118475000Y-72072500D01*
X118475000Y-72072500D02*
X117475000Y-72072500D01*
X116205000Y-79862500D02*
X116205000Y-77740000D01*
X116205000Y-77740000D02*
X116475000Y-77470000D01*
X116475000Y-77470000D02*
X117475000Y-77470000D01*
X117475000Y-82232500D02*
X117475000Y-81132500D01*
X117475000Y-81132500D02*
X116205000Y-79862500D01*
X57467500Y-28257500D02*
X57467500Y-31480000D01*
X57467500Y-31480000D02*
X58055000Y-32067500D01*
X58055000Y-32067500D02*
X59055000Y-32067500D01*
X54292500Y-25400000D02*
X54610000Y-25400000D01*
X54610000Y-25400000D02*
X56767501Y-27557501D01*
X56767501Y-27557501D02*
X57467500Y-28257500D01*
X54292500Y-27940000D02*
X54292500Y-28640000D01*
X54292500Y-28640000D02*
X54292500Y-30797500D01*
X62547500Y-29527500D02*
X63500000Y-29527500D01*
X63500000Y-29527500D02*
X64770000Y-28257500D01*
X61912500Y-30162500D02*
X62547500Y-29527500D01*
X61912500Y-31797500D02*
X61912500Y-30162500D01*
X63182500Y-32067500D02*
X62182500Y-32067500D01*
X62182500Y-32067500D02*
X61912500Y-31797500D01*
X72072500Y-28257500D02*
X70485000Y-29845000D01*
X67580000Y-29845000D02*
X66627500Y-30797500D01*
X70485000Y-29845000D02*
X67580000Y-29845000D01*
X68897500Y-32067500D02*
X67897500Y-32067500D01*
X67897500Y-32067500D02*
X66627500Y-30797500D01*
X66627500Y-30797500D02*
X64182500Y-30797500D01*
X64182500Y-30797500D02*
X63182500Y-30797500D01*
X128587500Y-54610000D02*
X126682500Y-54610000D01*
X126682500Y-54610000D02*
X105410000Y-54610000D01*
X126558240Y-45606810D02*
X126558240Y-54485740D01*
X126558240Y-54485740D02*
X126682500Y-54610000D01*
X132397500Y-77470000D02*
X132397500Y-58420000D01*
X132397500Y-58420000D02*
X128587500Y-54610000D01*
X80962500Y-30162500D02*
X72072500Y-30162500D01*
X105410000Y-54610000D02*
X80962500Y-30162500D01*
X68897500Y-30797500D02*
X71437500Y-30797500D01*
X71437500Y-30797500D02*
X72072500Y-30162500D01*
X122237500Y-77470000D02*
X123237500Y-77470000D01*
X123237500Y-77470000D02*
X127000000Y-77470000D01*
X126558240Y-45606810D02*
X126558240Y-40844310D01*
X110172500Y-33337500D02*
X110172500Y-38100000D01*
X110172500Y-38100000D02*
X111125000Y-39052500D01*
X115763240Y-39563240D02*
X115763240Y-40844310D01*
X111125000Y-39052500D02*
X115252500Y-39052500D01*
X115252500Y-39052500D02*
X115763240Y-39563240D01*
X110172500Y-33337500D02*
X107632500Y-33337500D01*
X110807500Y-33337500D02*
X110172500Y-33337500D01*
X111442500Y-33337500D02*
X110807500Y-33337500D01*
X110807500Y-32702500D02*
X110807500Y-33337500D01*
X107632500Y-33337500D02*
X107315000Y-33655000D01*
X107315000Y-33655000D02*
X106362500Y-33655000D01*
X111442500Y-33337500D02*
X115570000Y-33337500D01*
X115570000Y-33337500D02*
X116205000Y-33337500D01*
X115570000Y-31750000D02*
X115570000Y-33337500D01*
X116205000Y-33337500D02*
X120332500Y-33337500D01*
X116205000Y-34607500D02*
X116205000Y-33907500D01*
X116205000Y-33907500D02*
X116205000Y-33337500D01*
X120332500Y-33337500D02*
X120967500Y-33337500D01*
X120967500Y-33337500D02*
X125730000Y-33337500D01*
X120967500Y-34607500D02*
X120967500Y-33907500D01*
X120967500Y-33907500D02*
X120967500Y-33337500D01*
X120332500Y-31750000D02*
X120332500Y-33337500D01*
X125095000Y-31750000D02*
X125095000Y-32450000D01*
X125095000Y-32450000D02*
X125730000Y-33085000D01*
X125730000Y-33085000D02*
X125730000Y-33337500D01*
X125730000Y-33337500D02*
X125730000Y-34607500D01*
X111442500Y-33337500D02*
X111442500Y-34607500D01*
X110807500Y-31750000D02*
X110807500Y-32702500D01*
X62230000Y-43497500D02*
X62865000Y-43497500D01*
X62865000Y-43497500D02*
X63817500Y-42545000D01*
X61277500Y-44450000D02*
X62230000Y-43497500D01*
X61277500Y-45767500D02*
X61277500Y-44450000D01*
X62865000Y-46355000D02*
X61865000Y-46355000D01*
X61865000Y-46355000D02*
X61277500Y-45767500D01*
X66357500Y-45085000D02*
X67310000Y-44132500D01*
X69215000Y-44132500D02*
X70802500Y-42545000D01*
X67310000Y-44132500D02*
X69215000Y-44132500D01*
X67627500Y-46355000D02*
X68580000Y-46355000D01*
X66357500Y-45085000D02*
X67627500Y-46355000D01*
X62865000Y-45085000D02*
X66357500Y-45085000D01*
X131762500Y-58737500D02*
X131762500Y-93662500D01*
X128270000Y-55245000D02*
X131762500Y-58737500D01*
X105408590Y-55245000D02*
X128270000Y-55245000D01*
X93913591Y-43750001D02*
X105408590Y-55245000D01*
X71755000Y-44450000D02*
X72454999Y-43750001D01*
X72454999Y-43750001D02*
X93913591Y-43750001D01*
X68580000Y-45085000D02*
X71120000Y-45085000D01*
X71120000Y-45085000D02*
X71755000Y-44450000D01*
X122237500Y-93662500D02*
X127126029Y-93662500D01*
X127126029Y-93662500D02*
X127000000Y-93662500D01*
X86360000Y-55515000D02*
X86360000Y-56832500D01*
X86360000Y-56832500D02*
X86360000Y-60642500D01*
X85090000Y-56832500D02*
X86360000Y-56832500D01*
X84137500Y-60642500D02*
X86360000Y-60642500D01*
X86360000Y-60642500D02*
X88900000Y-60642500D01*
X88900000Y-53975000D02*
X87900000Y-53975000D01*
X87900000Y-53975000D02*
X86360000Y-55515000D01*
X111737974Y-103757972D02*
X111737974Y-102757972D01*
X111737974Y-102757972D02*
X114617500Y-99878446D01*
X114617500Y-99878446D02*
X114617500Y-87947500D01*
X114617500Y-87947500D02*
X108267500Y-81597500D01*
X96837500Y-62230000D02*
X96137501Y-62929999D01*
X96137501Y-62929999D02*
X95250000Y-63817500D01*
X87947500Y-63817500D02*
X85725000Y-66040000D01*
X85725000Y-66040000D02*
X84137500Y-66040000D01*
X95250000Y-63817500D02*
X87947500Y-63817500D01*
X96202500Y-64770000D02*
X95250000Y-63817500D01*
X98425000Y-64770000D02*
X96202500Y-64770000D01*
X113007974Y-103757972D02*
X113707974Y-103757972D01*
X113707974Y-103757972D02*
X115865474Y-103757972D01*
X109220000Y-78740000D02*
X85090000Y-102870000D01*
X85090000Y-102870000D02*
X76517500Y-102870000D01*
X71755000Y-105727500D02*
X74612500Y-102870000D01*
X74612500Y-102870000D02*
X76517500Y-102870000D01*
X55071205Y-105727500D02*
X71755000Y-105727500D01*
X53222396Y-102888742D02*
X53222396Y-103878691D01*
X53222396Y-103878691D02*
X55071205Y-105727500D01*
X52706126Y-99623376D02*
X52706126Y-102372472D01*
X52706126Y-102372472D02*
X53222396Y-102888742D01*
X110172500Y-62865000D02*
X112712500Y-65405000D01*
X118727500Y-64452500D02*
X123777500Y-64452500D01*
X123777500Y-64452500D02*
X126000000Y-66675000D01*
X117475000Y-65405000D02*
X117775000Y-65405000D01*
X117775000Y-65405000D02*
X118727500Y-64452500D01*
X112712500Y-65405000D02*
X117475000Y-65405000D01*
X127000000Y-66675000D02*
X126000000Y-66675000D01*
X123825000Y-72072500D02*
X122237500Y-72072500D01*
X126000000Y-66675000D02*
X124777500Y-67897500D01*
X124777500Y-67897500D02*
X124777500Y-71120000D01*
X124777500Y-71120000D02*
X123825000Y-72072500D01*
X112712500Y-67945000D02*
X112712500Y-68645000D01*
X112712500Y-68645000D02*
X112712500Y-70802500D01*
X117475000Y-67945000D02*
X117475000Y-70802500D01*
X112712500Y-70802500D02*
X117475000Y-70802500D01*
X117475000Y-66675000D02*
X119062500Y-66675000D01*
X119062500Y-66675000D02*
X120332500Y-65405000D01*
X120332500Y-65405000D02*
X122237500Y-65405000D01*
X60961126Y-94225876D02*
X60961126Y-97690012D01*
X60961126Y-97690012D02*
X60524896Y-98126242D01*
X60524896Y-98126242D02*
X58030760Y-98126242D01*
X58030760Y-98126242D02*
X56833626Y-99323376D01*
X56833626Y-99323376D02*
X56833626Y-99623376D01*
X56833626Y-99623376D02*
X56833626Y-104385876D01*
X83502500Y-81597500D02*
X82867500Y-80962500D01*
X84137500Y-76835000D02*
X83137500Y-76835000D01*
X82867500Y-77105000D02*
X82867500Y-80962500D01*
X83137500Y-76835000D02*
X82867500Y-77105000D01*
X83502500Y-88327502D02*
X83502500Y-81597500D01*
X80582498Y-89217500D02*
X82612502Y-89217500D01*
X82612502Y-89217500D02*
X83502500Y-88327502D01*
X79692500Y-83455000D02*
X79692500Y-88327502D01*
X79692500Y-88327502D02*
X80582498Y-89217500D01*
X76517500Y-81280000D02*
X77517500Y-81280000D01*
X77517500Y-81280000D02*
X79692500Y-83455000D01*
X96837500Y-68897500D02*
X100012500Y-72072500D01*
X100012500Y-72072500D02*
X112712500Y-72072500D01*
X88265000Y-68897500D02*
X96837500Y-68897500D01*
X85909990Y-71252510D02*
X88265000Y-68897500D01*
X84137500Y-76835000D02*
X84263529Y-76835000D01*
X84263529Y-76835000D02*
X85909990Y-75188539D01*
X85909990Y-75188539D02*
X85909990Y-71252510D01*
X111712500Y-72072500D02*
X112712500Y-72072500D01*
X69920498Y-80327500D02*
X61813638Y-80327500D01*
X61813638Y-80327500D02*
X60524896Y-81616242D01*
X73612500Y-83185000D02*
X72777998Y-83185000D01*
X72777998Y-83185000D02*
X69920498Y-80327500D01*
X76517500Y-81280000D02*
X75517500Y-81280000D01*
X75517500Y-81280000D02*
X73612500Y-83185000D01*
X60524896Y-81616242D02*
X59482030Y-80573376D01*
X59482030Y-80573376D02*
X58103626Y-80573376D01*
X117475000Y-76200000D02*
X117475000Y-75500000D01*
X117475000Y-75500000D02*
X117475000Y-73342500D01*
X112712500Y-76200000D02*
X117475000Y-76200000D01*
X112712500Y-76200000D02*
X112712500Y-73342500D01*
X60524896Y-86378742D02*
X60524896Y-89027146D01*
X60524896Y-89027146D02*
X60961126Y-89463376D01*
X86995000Y-96837500D02*
X106362500Y-77470000D01*
X106362500Y-77470000D02*
X112712500Y-77470000D01*
X78152500Y-96837500D02*
X86995000Y-96837500D01*
X76517500Y-97472500D02*
X77517500Y-97472500D01*
X77517500Y-97472500D02*
X78152500Y-96837500D01*
X79375000Y-80010000D02*
X80645000Y-80010000D01*
X80645000Y-80010000D02*
X82222501Y-78432499D01*
X82222501Y-78432499D02*
X82222501Y-72352499D01*
X82222501Y-72352499D02*
X83137500Y-71437500D01*
X83137500Y-71437500D02*
X84137500Y-71437500D01*
X69167500Y-103822500D02*
X61776154Y-103822500D01*
X61776154Y-103822500D02*
X60524896Y-102571242D01*
X76517500Y-97472500D02*
X75517500Y-97472500D01*
X75517500Y-97472500D02*
X69167500Y-103822500D01*
X60524896Y-102571242D02*
X58710262Y-104385876D01*
X58710262Y-104385876D02*
X58103626Y-104385876D01*
X53222396Y-81298742D02*
X53222396Y-84819606D01*
X53222396Y-84819606D02*
X52706126Y-85335876D01*
X52706126Y-85335876D02*
X52706126Y-87240876D01*
X52706126Y-87240876D02*
X51436126Y-88510876D01*
X51436126Y-88510876D02*
X51436126Y-90098376D01*
X54611126Y-93890876D02*
X54611126Y-102433376D01*
X54611126Y-102433376D02*
X55563626Y-103385876D01*
X55563626Y-103385876D02*
X55563626Y-104385876D01*
X58103626Y-90098376D02*
X58103626Y-90398376D01*
X58103626Y-90398376D02*
X54611126Y-93890876D01*
X54611126Y-87558376D02*
X54611126Y-82525876D01*
X54611126Y-82525876D02*
X55563626Y-81573376D01*
X55563626Y-81573376D02*
X55563626Y-80573376D01*
X55246126Y-88193376D02*
X54611126Y-87558376D01*
X57198626Y-88193376D02*
X55246126Y-88193376D01*
X58103626Y-90098376D02*
X58103626Y-89098376D01*
X58103626Y-89098376D02*
X57198626Y-88193376D01*
X73977500Y-87630000D02*
X74930000Y-86677500D01*
X74930000Y-86677500D02*
X76517500Y-86677500D01*
X65087500Y-87630000D02*
X73977500Y-87630000D01*
X61613742Y-84156242D02*
X65087500Y-87630000D01*
X60524896Y-84156242D02*
X61613742Y-84156242D01*
X60524896Y-84156242D02*
X59345262Y-85335876D01*
X59345262Y-85335876D02*
X58103626Y-85335876D01*
X58103626Y-94860876D02*
X58103626Y-95860876D01*
X58103626Y-95860876D02*
X55563626Y-98400876D01*
X55563626Y-98400876D02*
X55563626Y-98623376D01*
X55563626Y-98623376D02*
X55563626Y-99623376D01*
X58103626Y-94860876D02*
X58103626Y-93860876D01*
X58103626Y-93860876D02*
X59056126Y-92908376D01*
X59056126Y-92908376D02*
X59056126Y-89414466D01*
X59056126Y-89414466D02*
X57200036Y-87558376D01*
X57200036Y-87558376D02*
X56198626Y-87558376D01*
X56198626Y-87558376D02*
X55563626Y-86923376D01*
X55563626Y-86923376D02*
X55563626Y-85335876D01*
X60524896Y-100348742D02*
X68798638Y-92075000D01*
X68798638Y-92075000D02*
X76517500Y-92075000D01*
X60524896Y-100348742D02*
X59799530Y-99623376D01*
X59799530Y-99623376D02*
X58103626Y-99623376D01*
X55563626Y-90098376D02*
X52706126Y-90098376D01*
X52706126Y-95813376D02*
X52706126Y-94860876D01*
X50166126Y-98353376D02*
X52706126Y-95813376D01*
X50166126Y-99623376D02*
X50166126Y-98353376D01*
X50166126Y-90098376D02*
X50166126Y-91368376D01*
X50166126Y-91368376D02*
X52706126Y-93908376D01*
X52706126Y-93908376D02*
X52706126Y-94860876D01*
X84137500Y-70167500D02*
X84137500Y-69467500D01*
X84137500Y-69467500D02*
X84137500Y-67310000D01*
X84137500Y-75565000D02*
X84137500Y-72707500D01*
X120967500Y-71120000D02*
X120967500Y-81280000D01*
X120967500Y-81280000D02*
X120967500Y-81327500D01*
X118427500Y-91757500D02*
X119830010Y-90354990D01*
X119830010Y-82417490D02*
X120967500Y-81280000D01*
X119830010Y-90354990D02*
X119830010Y-82417490D01*
X122237500Y-70802500D02*
X121285000Y-70802500D01*
X121285000Y-70802500D02*
X120967500Y-71120000D01*
X120967500Y-81327500D02*
X121237500Y-81597500D01*
X121237500Y-81597500D02*
X122237500Y-81597500D01*
X123507500Y-82867500D02*
X127000000Y-82867500D01*
X123507500Y-82867500D02*
X123507500Y-81867500D01*
X123507500Y-87995000D02*
X123507500Y-82867500D01*
X122237500Y-88265000D02*
X123237500Y-88265000D01*
X123237500Y-88265000D02*
X123507500Y-87995000D01*
X123507500Y-81867500D02*
X123237500Y-81597500D01*
X123237500Y-81597500D02*
X122237500Y-81597500D01*
X122237500Y-73342500D02*
X122237500Y-76200000D01*
X118427500Y-94297500D02*
X120517490Y-92207510D01*
X120517490Y-83587510D02*
X121237500Y-82867500D01*
X120517490Y-92207510D02*
X120517490Y-83587510D01*
X121237500Y-82867500D02*
X122237500Y-82867500D01*
X127000000Y-70802500D02*
X127952500Y-70802500D01*
X127952500Y-70802500D02*
X128270000Y-71120000D01*
X128270000Y-71120000D02*
X128270000Y-81327500D01*
X128270000Y-81327500D02*
X128000000Y-81597500D01*
X128000000Y-81597500D02*
X127000000Y-81597500D01*
X125730000Y-85407500D02*
X125730000Y-87995000D01*
X125730000Y-87995000D02*
X126000000Y-88265000D01*
X126000000Y-88265000D02*
X127000000Y-88265000D01*
X124460000Y-62865000D02*
X125159999Y-63564999D01*
X125159999Y-63564999D02*
X127000000Y-65405000D01*
X127000000Y-72072500D02*
X126000000Y-72072500D01*
X126000000Y-72072500D02*
X125412500Y-71485000D01*
X125412500Y-71485000D02*
X125412500Y-70167500D01*
X125412500Y-70167500D02*
X126047500Y-69532500D01*
X126047500Y-69532500D02*
X127952500Y-69532500D01*
X127952500Y-69532500D02*
X128587500Y-68897500D01*
X128587500Y-68897500D02*
X128587500Y-65992500D01*
X128587500Y-65992500D02*
X128000000Y-65405000D01*
X128000000Y-65405000D02*
X127000000Y-65405000D01*
X127000000Y-73342500D02*
X127000000Y-76200000D01*
X122237500Y-89535000D02*
X122237500Y-92266471D01*
X122237500Y-92266471D02*
X122237500Y-92392500D01*
X127000000Y-89535000D02*
X127000000Y-92392500D01*
X125288240Y-45606810D02*
X124588240Y-45606810D01*
X124588240Y-45606810D02*
X122430740Y-45606810D01*
X119062500Y-39687500D02*
X120303930Y-39687500D01*
X120303930Y-39687500D02*
X121160740Y-40544310D01*
X121160740Y-40544310D02*
X121160740Y-40844310D01*
X118427500Y-40322500D02*
X119062500Y-39687500D01*
X118427500Y-41910000D02*
X118427500Y-40322500D01*
X116587499Y-43750001D02*
X118427500Y-41910000D01*
X114300000Y-44450000D02*
X114999999Y-43750001D01*
X114999999Y-43750001D02*
X116587499Y-43750001D01*
X114300000Y-44450000D02*
X114300000Y-41037550D01*
X114300000Y-41037550D02*
X114493240Y-40844310D01*
X125288240Y-40844310D02*
X124588240Y-40844310D01*
X124588240Y-40844310D02*
X122430740Y-40844310D01*
M02*
