M48
;DRILL file {KiCad 4.0.7-e2-6376~61~ubuntu18.04.1} date Fri Aug 28 19:46:47 2020
;FORMAT={-:-/ absolute / inch / decimal}
FMAT,2
INCH,TZ
T1C0.016
T2C0.024
T3C0.028
T4C0.031
T5C0.039
T6C0.126
%
G90
G05
M72
T1
X2.55Y-3.075
X3.0875Y-1.125
X3.125Y-3.15
X3.375Y-3.4625
X4.2625Y-3.2125
X4.3Y-3.1
X4.95Y-3.3625
X5.1875Y-3.6875
X5.2125Y-3.05
T2
X1.975Y-3.3597
X1.975Y-3.5472
X1.975Y-3.7347
X1.975Y-3.9222
X2.025Y-3.3597
X2.025Y-3.5472
X2.025Y-3.7347
X2.025Y-3.9222
X2.075Y-3.3597
X2.075Y-3.5472
X2.075Y-3.7347
X2.075Y-3.9222
X2.1375Y-1.
X2.1375Y-1.05
X2.1375Y-1.1
X2.1375Y-1.2125
X2.1375Y-1.2625
X2.1375Y-1.3125
X2.1875Y-3.1722
X2.1875Y-3.3597
X2.1875Y-3.5472
X2.1875Y-3.7347
X2.1875Y-3.9222
X2.1875Y-4.1097
X2.2375Y-3.1722
X2.2375Y-3.3597
X2.2375Y-3.5472
X2.2375Y-3.7347
X2.2375Y-3.9222
X2.2375Y-4.1097
X2.2875Y-3.1722
X2.2875Y-3.3597
X2.2875Y-3.5472
X2.2875Y-3.7347
X2.2875Y-3.9222
X2.2875Y-4.1097
X2.3125Y-1.775
X2.3125Y-1.825
X2.3125Y-1.875
X2.325Y-1.2125
X2.325Y-1.2625
X2.325Y-1.3125
X2.4Y-3.5222
X2.4Y-3.7097
X2.45Y-3.5222
X2.45Y-3.7097
X2.475Y-1.775
X2.475Y-1.825
X2.475Y-1.875
X2.4875Y-1.2125
X2.4875Y-1.2625
X2.4875Y-1.3125
X2.5Y-3.5222
X2.5Y-3.7097
X2.7Y-1.775
X2.7Y-1.825
X2.7Y-1.875
X2.7125Y-1.2125
X2.7125Y-1.2625
X2.7125Y-1.3125
X3.0125Y-3.15
X3.0125Y-3.2
X3.0125Y-3.25
X3.0125Y-3.3625
X3.0125Y-3.4125
X3.0125Y-3.4625
X3.0125Y-3.575
X3.0125Y-3.625
X3.0125Y-3.675
X3.0125Y-3.7875
X3.0125Y-3.8375
X3.0125Y-3.8875
X3.0125Y-4.
X3.0125Y-4.05
X3.0125Y-4.1
X3.3125Y-2.3375
X3.3125Y-2.3875
X3.3125Y-2.4375
X3.3125Y-2.55
X3.3125Y-2.6
X3.3125Y-2.65
X3.3125Y-2.7625
X3.3125Y-2.8125
X3.3125Y-2.8625
X3.3125Y-2.975
X3.3125Y-3.025
X3.3125Y-3.075
X3.5Y-2.125
X3.5Y-2.175
X3.5Y-2.225
X3.5Y-2.3375
X3.5Y-2.3875
X3.5Y-2.4375
X3.5Y-2.55
X3.5Y-2.6
X3.5Y-2.65
X3.5Y-2.7625
X3.5Y-2.8125
X3.5Y-2.8625
X3.5Y-2.975
X3.5Y-3.025
X3.5Y-3.075
X3.6875Y-2.3375
X3.6875Y-2.3875
X3.6875Y-2.4375
X3.6875Y-2.55
X3.6875Y-2.6
X3.6875Y-2.65
X3.6875Y-2.7625
X3.6875Y-2.8125
X3.6875Y-2.8625
X3.6875Y-2.975
X3.6875Y-3.025
X3.6875Y-3.075
X3.875Y-2.55
X3.875Y-2.6
X3.875Y-2.65
X4.2951Y-1.608
X4.2951Y-1.7955
X4.3451Y-1.608
X4.3451Y-1.7955
X4.3491Y-4.085
X4.3625Y-1.15
X4.3625Y-1.2
X4.3625Y-1.25
X4.3875Y-1.3625
X4.3875Y-1.4125
X4.3875Y-1.4625
X4.3951Y-1.608
X4.3951Y-1.7955
X4.3991Y-4.085
X4.4375Y-2.575
X4.4375Y-2.625
X4.4375Y-2.675
X4.4375Y-2.7875
X4.4375Y-2.8375
X4.4375Y-2.8875
X4.4375Y-3.
X4.4375Y-3.05
X4.4375Y-3.1
X4.4491Y-4.085
X4.5076Y-1.608
X4.55Y-1.15
X4.55Y-1.2
X4.55Y-1.25
X4.5576Y-1.608
X4.5616Y-4.085
X4.575Y-1.3625
X4.575Y-1.4125
X4.575Y-1.4625
X4.6076Y-1.608
X4.6116Y-4.085
X4.625Y-2.575
X4.625Y-2.625
X4.625Y-2.675
X4.625Y-2.7875
X4.625Y-2.8375
X4.625Y-2.8875
X4.625Y-3.
X4.625Y-3.05
X4.625Y-3.1
X4.6616Y-4.085
X4.7201Y-1.608
X4.7201Y-1.7955
X4.7375Y-1.15
X4.7375Y-1.2
X4.7375Y-1.25
X4.7625Y-1.3625
X4.7625Y-1.4125
X4.7625Y-1.4625
X4.7701Y-1.608
X4.7701Y-1.7955
X4.8125Y-2.575
X4.8125Y-2.625
X4.8125Y-2.675
X4.8125Y-2.7875
X4.8125Y-2.8375
X4.8125Y-2.8875
X4.8125Y-3.
X4.8125Y-3.05
X4.8125Y-3.1
X4.8125Y-3.2125
X4.8125Y-3.2625
X4.8125Y-3.3125
X4.8125Y-3.425
X4.8125Y-3.475
X4.8125Y-3.525
X4.8125Y-3.6375
X4.8125Y-3.6875
X4.8125Y-3.7375
X4.8125Y-3.85
X4.8125Y-3.9
X4.8125Y-3.95
X4.8201Y-1.608
X4.8201Y-1.7955
X4.925Y-1.15
X4.925Y-1.2
X4.925Y-1.25
X4.9326Y-1.608
X4.9326Y-1.7955
X4.95Y-1.3625
X4.95Y-1.4125
X4.95Y-1.4625
X4.9826Y-1.608
X4.9826Y-1.7955
X5.Y-2.575
X5.Y-2.625
X5.Y-2.675
X5.Y-2.7875
X5.Y-2.8375
X5.Y-2.8875
X5.Y-3.
X5.Y-3.05
X5.Y-3.1
X5.Y-3.2125
X5.Y-3.2625
X5.Y-3.3125
X5.Y-3.425
X5.Y-3.475
X5.Y-3.525
X5.Y-3.6375
X5.Y-3.6875
X5.Y-3.7375
X5.Y-3.85
X5.Y-3.9
X5.Y-3.95
X5.0326Y-1.608
X5.0326Y-1.7955
T3
X1.8954Y-3.2007
X1.8954Y-4.0507
X2.0954Y-3.2007
X2.0954Y-4.0507
X2.2625Y-0.9125
X2.2625Y-1.1125
X2.3125Y-1.475
X2.3125Y-1.675
X2.35Y-0.9125
X2.35Y-1.1125
X2.3829Y-3.2132
X2.3829Y-3.3132
X2.3829Y-3.4007
X2.3829Y-3.8632
X2.3829Y-3.9507
X2.3829Y-4.0382
X2.5125Y-1.475
X2.5125Y-1.675
X2.55Y-0.9125
X2.55Y-1.1125
X2.5829Y-3.2132
X2.5829Y-3.3132
X2.5829Y-3.4007
X2.5829Y-3.8632
X2.5829Y-3.9507
X2.5829Y-4.0382
X2.6625Y-3.2125
X2.6625Y-3.3625
X2.6625Y-3.875
X2.6625Y-4.0375
X2.675Y-3.5625
X2.675Y-3.7625
X2.7Y-1.475
X2.7Y-1.675
X2.75Y-0.9125
X2.75Y-1.1125
X2.7875Y-1.475
X2.7875Y-1.675
X2.825Y-1.75
X2.825Y-1.95
X2.8375Y-0.9125
X2.8375Y-1.1125
X2.8375Y-1.1875
X2.8375Y-1.3875
X2.8625Y-3.2125
X2.8625Y-3.3625
X2.8625Y-3.875
X2.8625Y-4.0375
X3.2625Y-2.0375
X3.2625Y-2.2375
X3.35Y-2.0375
X3.35Y-2.2375
X3.625Y-2.0375
X3.625Y-2.2375
X3.7125Y-2.0375
X3.7125Y-2.2375
X3.8125Y-2.25
X3.8125Y-2.45
X4.1875Y-1.125
X4.1875Y-1.325
X4.1875Y-1.4125
X4.1875Y-1.6125
X4.1875Y-1.6875
X4.1875Y-1.8875
X4.3375Y-2.475
X4.375Y-3.7625
X4.375Y-3.9625
X4.4625Y-3.6125
X4.4625Y-3.7125
X4.4625Y-3.8125
X4.4625Y-3.9
X4.5Y-1.75
X4.5Y-1.95
X4.5375Y-2.475
X4.6125Y-2.475
X4.6625Y-3.6125
X4.6625Y-3.7125
X4.6625Y-3.8125
X4.6625Y-3.9
X4.8125Y-2.475
X4.9Y-2.475
X5.1Y-2.475
T4
X2.4125Y-1.4781
X2.4125Y-1.675
X2.45Y-0.9156
X2.45Y-1.1125
X2.6125Y-1.425
X2.6125Y-1.675
X2.65Y-0.8625
X2.65Y-1.1125
T5
X1.8375Y-3.475
X1.8375Y-3.575
X1.8375Y-3.675
X1.8375Y-3.775
X1.8875Y-2.3625
X1.8875Y-2.4625
X2.1375Y-1.525
X2.1375Y-1.625
X3.2125Y-3.4625
X3.2125Y-3.5625
X3.2125Y-3.6625
X3.2125Y-3.7625
X3.2125Y-3.8625
X3.3875Y-1.9125
X3.4875Y-1.9125
X3.5875Y-1.9125
X3.9125Y-2.325
X3.9125Y-2.425
X4.0625Y-1.6
X4.0625Y-1.7
X4.3614Y-0.8978
X4.3614Y-0.9978
X4.4614Y-0.8978
X4.4614Y-0.9978
X4.5614Y-0.8978
X4.5614Y-0.9978
X4.625Y-3.2375
X4.625Y-3.3375
X4.625Y-3.4375
X4.6614Y-0.8978
X4.6614Y-0.9978
X4.7614Y-0.8978
X4.7614Y-0.9978
X4.775Y-4.0875
X4.8614Y-0.8978
X4.8614Y-0.9978
X4.9Y-4.0875
X4.9614Y-0.8978
X4.9614Y-0.9978
X5.Y-4.0875
X5.0614Y-0.8978
X5.0614Y-0.9978
T6
X1.825Y-0.8
X1.825Y-4.35
X5.375Y-0.8
X5.375Y-4.35
T0
M30
