%TF.GenerationSoftware,KiCad,Pcbnew,4.0.7-e2-6376~61~ubuntu18.04.1*%
%TF.CreationDate,2020-08-28T19:46:44+02:00*%
%TF.ProjectId,control,636F6E74726F6C2E6B696361645F7063,rev?*%
%TF.FileFunction,Soldermask,Top*%
%FSLAX46Y46*%
G04 Gerber Fmt 4.6, Leading zero omitted, Abs format (unit mm)*
G04 Created by KiCad (PCBNEW 4.0.7-e2-6376~61~ubuntu18.04.1) date Fri Aug 28 19:46:44 2020*
%MOMM*%
%LPD*%
G01*
G04 APERTURE LIST*
%ADD10C,0.100000*%
%ADD11C,0.150000*%
%ADD12C,6.800000*%
%ADD13C,2.000000*%
%ADD14R,2.000000X2.000000*%
%ADD15O,2.000000X2.000000*%
%ADD16R,2.100000X2.100000*%
%ADD17O,2.100000X2.100000*%
%ADD18O,1.900000X1.300000*%
%ADD19R,1.900000X1.300000*%
%ADD20O,1.300000X1.900000*%
%ADD21R,1.300000X1.900000*%
%ADD22C,1.800000*%
%ADD23O,1.800000X1.800000*%
G04 APERTURE END LIST*
D10*
D11*
X41440000Y-15405000D02*
X41440000Y-115405000D01*
X41440000Y-115405000D02*
X141440000Y-115405000D01*
X141440000Y-15405000D02*
X141440000Y-115405000D01*
X41440000Y-15405000D02*
X141440000Y-15405000D01*
D12*
X136525000Y-20320000D03*
X46355000Y-20320000D03*
X46355000Y-110490000D03*
X136525000Y-110490000D03*
D13*
X62230000Y-23257500D03*
X62230000Y-28257500D03*
X61277500Y-37545000D03*
X61277500Y-42545000D03*
D14*
X67310000Y-21907500D03*
D15*
X67310000Y-28257500D03*
D14*
X66357500Y-36195000D03*
D15*
X66357500Y-42545000D03*
D16*
X110779360Y-25344588D03*
D17*
X113319360Y-25344588D03*
X115859360Y-25344588D03*
X118399360Y-25344588D03*
X120939360Y-25344588D03*
X123479360Y-25344588D03*
X126019360Y-25344588D03*
X128559360Y-25344588D03*
D16*
X110779360Y-22804588D03*
D17*
X113319360Y-22804588D03*
X115859360Y-22804588D03*
X118399360Y-22804588D03*
X120939360Y-22804588D03*
X123479360Y-22804588D03*
X126019360Y-22804588D03*
X128559360Y-22804588D03*
D16*
X47942500Y-60007500D03*
D17*
X47942500Y-62547500D03*
D16*
X54292500Y-38735000D03*
X54292500Y-41275000D03*
X103187500Y-43180000D03*
D17*
X103187500Y-40640000D03*
D16*
X99377500Y-59055000D03*
D17*
X99377500Y-61595000D03*
D16*
X86042500Y-48577500D03*
X88582500Y-48577500D03*
X91122500Y-48577500D03*
X121285000Y-103822500D03*
X46672500Y-95885000D03*
X81597500Y-98107500D03*
X81597500Y-87947500D03*
X81597500Y-95567500D03*
X46672500Y-88265000D03*
X81597500Y-90487500D03*
X46672500Y-90805000D03*
X81597500Y-93027500D03*
X46672500Y-93345000D03*
X127000000Y-103822500D03*
D17*
X124460000Y-103822500D03*
D16*
X117475000Y-87312500D03*
X117475000Y-84772500D03*
X117475000Y-82232500D03*
D18*
X54292500Y-26670000D03*
X54292500Y-25400000D03*
D19*
X54292500Y-27940000D03*
D18*
X59055000Y-32067500D03*
X59055000Y-30797500D03*
D19*
X59055000Y-33337500D03*
D18*
X63182500Y-32067500D03*
X63182500Y-33337500D03*
D19*
X63182500Y-30797500D03*
D18*
X68897500Y-32067500D03*
X68897500Y-30797500D03*
D19*
X68897500Y-33337500D03*
D18*
X54292500Y-32067500D03*
X54292500Y-30797500D03*
D19*
X54292500Y-33337500D03*
D18*
X110807500Y-30480000D03*
X110807500Y-31750000D03*
D19*
X110807500Y-29210000D03*
D18*
X115570000Y-30480000D03*
X115570000Y-31750000D03*
D19*
X115570000Y-29210000D03*
D18*
X120332500Y-30480000D03*
X120332500Y-31750000D03*
D19*
X120332500Y-29210000D03*
D18*
X125095000Y-30480000D03*
X125095000Y-31750000D03*
D19*
X125095000Y-29210000D03*
D18*
X125730000Y-35877500D03*
X125730000Y-34607500D03*
D19*
X125730000Y-37147500D03*
D18*
X120967500Y-35877500D03*
X120967500Y-34607500D03*
D19*
X120967500Y-37147500D03*
D18*
X116205000Y-35877500D03*
X116205000Y-34607500D03*
D19*
X116205000Y-37147500D03*
D18*
X111442500Y-35877500D03*
X111442500Y-34607500D03*
D19*
X111442500Y-37147500D03*
D18*
X58737500Y-46355000D03*
X58737500Y-45085000D03*
D19*
X58737500Y-47625000D03*
D18*
X62865000Y-46355000D03*
X62865000Y-47625000D03*
D19*
X62865000Y-45085000D03*
D18*
X68580000Y-46355000D03*
X68580000Y-45085000D03*
D19*
X68580000Y-47625000D03*
D18*
X88900000Y-55245000D03*
X88900000Y-53975000D03*
D19*
X88900000Y-56515000D03*
D18*
X98425000Y-66040000D03*
X98425000Y-64770000D03*
D19*
X98425000Y-67310000D03*
D20*
X111737974Y-103757972D03*
X110467974Y-103757972D03*
D21*
X113007974Y-103757972D03*
D20*
X117135474Y-103757972D03*
X115865474Y-103757972D03*
D21*
X118405474Y-103757972D03*
D18*
X112712500Y-66675000D03*
X112712500Y-65405000D03*
D19*
X112712500Y-67945000D03*
D18*
X117475000Y-66675000D03*
X117475000Y-65405000D03*
D19*
X117475000Y-67945000D03*
D18*
X122237500Y-66675000D03*
X122237500Y-65405000D03*
D19*
X122237500Y-67945000D03*
D20*
X62231126Y-94225876D03*
X60961126Y-94225876D03*
D21*
X63501126Y-94225876D03*
D18*
X112712500Y-72072500D03*
X112712500Y-70802500D03*
D19*
X112712500Y-73342500D03*
D18*
X117475000Y-72072500D03*
X117475000Y-70802500D03*
D19*
X117475000Y-73342500D03*
D20*
X62231126Y-89463376D03*
X60961126Y-89463376D03*
D21*
X63501126Y-89463376D03*
D18*
X112712500Y-77470000D03*
X112712500Y-76200000D03*
D19*
X112712500Y-78740000D03*
D18*
X117475000Y-77470000D03*
X117475000Y-76200000D03*
D19*
X117475000Y-78740000D03*
D20*
X51436126Y-85335876D03*
X52706126Y-85335876D03*
D21*
X50166126Y-85335876D03*
D18*
X76517500Y-81280000D03*
X76517500Y-80010000D03*
D19*
X76517500Y-82550000D03*
D20*
X56833626Y-80573376D03*
X58103626Y-80573376D03*
D21*
X55563626Y-80573376D03*
D20*
X56833626Y-104385876D03*
X58103626Y-104385876D03*
D21*
X55563626Y-104385876D03*
D18*
X76517500Y-97472500D03*
X76517500Y-96202500D03*
D19*
X76517500Y-98742500D03*
D18*
X76517500Y-86677500D03*
X76517500Y-85407500D03*
D19*
X76517500Y-87947500D03*
D20*
X56833626Y-85335876D03*
X58103626Y-85335876D03*
D21*
X55563626Y-85335876D03*
D20*
X56833626Y-99623376D03*
X58103626Y-99623376D03*
D21*
X55563626Y-99623376D03*
D18*
X76517500Y-92075000D03*
X76517500Y-90805000D03*
D19*
X76517500Y-93345000D03*
D20*
X56833626Y-90098376D03*
X58103626Y-90098376D03*
D21*
X55563626Y-90098376D03*
D20*
X56833626Y-94860876D03*
X58103626Y-94860876D03*
D21*
X55563626Y-94860876D03*
D20*
X51436126Y-90098376D03*
X52706126Y-90098376D03*
D21*
X50166126Y-90098376D03*
D20*
X51436126Y-99623376D03*
X52706126Y-99623376D03*
D21*
X50166126Y-99623376D03*
D18*
X76517500Y-102870000D03*
X76517500Y-101600000D03*
D19*
X76517500Y-104140000D03*
D20*
X51436126Y-94860876D03*
X52706126Y-94860876D03*
D21*
X50166126Y-94860876D03*
D18*
X84137500Y-60642500D03*
X84137500Y-59372500D03*
D19*
X84137500Y-61912500D03*
D18*
X84137500Y-66040000D03*
X84137500Y-64770000D03*
D19*
X84137500Y-67310000D03*
D18*
X88900000Y-60642500D03*
X88900000Y-59372500D03*
D19*
X88900000Y-61912500D03*
D18*
X88900000Y-66040000D03*
X88900000Y-64770000D03*
D19*
X88900000Y-67310000D03*
D18*
X88900000Y-71437500D03*
X88900000Y-70167500D03*
D19*
X88900000Y-72707500D03*
D18*
X88900000Y-76835000D03*
X88900000Y-75565000D03*
D19*
X88900000Y-78105000D03*
D18*
X84137500Y-71437500D03*
X84137500Y-70167500D03*
D19*
X84137500Y-72707500D03*
D18*
X84137500Y-76835000D03*
X84137500Y-75565000D03*
D19*
X84137500Y-78105000D03*
D18*
X93662500Y-60642500D03*
X93662500Y-59372500D03*
D19*
X93662500Y-61912500D03*
D18*
X93662500Y-66040000D03*
X93662500Y-64770000D03*
D19*
X93662500Y-67310000D03*
D18*
X93662500Y-71437500D03*
X93662500Y-70167500D03*
D19*
X93662500Y-72707500D03*
D18*
X93662500Y-76835000D03*
X93662500Y-75565000D03*
D19*
X93662500Y-78105000D03*
D18*
X122237500Y-72072500D03*
X122237500Y-70802500D03*
D19*
X122237500Y-73342500D03*
D18*
X122237500Y-82867500D03*
X122237500Y-81597500D03*
D19*
X122237500Y-84137500D03*
D18*
X127000000Y-82867500D03*
X127000000Y-81597500D03*
D19*
X127000000Y-84137500D03*
D18*
X127000000Y-72072500D03*
X127000000Y-70802500D03*
D19*
X127000000Y-73342500D03*
D18*
X127000000Y-66675000D03*
X127000000Y-65405000D03*
D19*
X127000000Y-67945000D03*
D18*
X122237500Y-77470000D03*
X122237500Y-76200000D03*
D19*
X122237500Y-78740000D03*
D18*
X127000000Y-77470000D03*
X127000000Y-76200000D03*
D19*
X127000000Y-78740000D03*
D18*
X122237500Y-88265000D03*
X122237500Y-86995000D03*
D19*
X122237500Y-89535000D03*
D18*
X122237500Y-99060000D03*
X122237500Y-97790000D03*
D19*
X122237500Y-100330000D03*
D18*
X127000000Y-99060000D03*
X127000000Y-97790000D03*
D19*
X127000000Y-100330000D03*
D18*
X127000000Y-88265000D03*
X127000000Y-86995000D03*
D19*
X127000000Y-89535000D03*
D18*
X122237500Y-93662500D03*
X122237500Y-92392500D03*
D19*
X122237500Y-94932500D03*
D18*
X127000000Y-93662500D03*
X127000000Y-92392500D03*
D19*
X127000000Y-94932500D03*
D20*
X121160740Y-45606810D03*
X119890740Y-45606810D03*
D21*
X122430740Y-45606810D03*
D20*
X110365740Y-45606810D03*
X109095740Y-45606810D03*
D21*
X111635740Y-45606810D03*
D20*
X110365740Y-40844310D03*
X109095740Y-40844310D03*
D21*
X111635740Y-40844310D03*
D20*
X121160740Y-40844310D03*
X119890740Y-40844310D03*
D21*
X122430740Y-40844310D03*
D20*
X115763240Y-40844310D03*
X114493240Y-40844310D03*
D21*
X117033240Y-40844310D03*
D20*
X126558240Y-45606810D03*
X125288240Y-45606810D03*
D21*
X127828240Y-45606810D03*
D20*
X126558240Y-40844310D03*
X125288240Y-40844310D03*
D21*
X127828240Y-40844310D03*
D22*
X57467500Y-23177500D03*
D23*
X57467500Y-28257500D03*
D22*
X59690000Y-23177500D03*
D23*
X59690000Y-28257500D03*
D22*
X69850000Y-28257500D03*
D23*
X69850000Y-23177500D03*
D22*
X72072500Y-23177500D03*
D23*
X72072500Y-28257500D03*
D22*
X72072500Y-35242500D03*
D23*
X72072500Y-30162500D03*
D22*
X64770000Y-28257500D03*
D23*
X64770000Y-23177500D03*
D22*
X106362500Y-28575000D03*
D23*
X106362500Y-33655000D03*
D22*
X58737500Y-37465000D03*
D23*
X58737500Y-42545000D03*
D22*
X68580000Y-42545000D03*
D23*
X68580000Y-37465000D03*
D22*
X70802500Y-37465000D03*
D23*
X70802500Y-42545000D03*
D22*
X71755000Y-49530000D03*
D23*
X71755000Y-44450000D03*
D22*
X63817500Y-42545000D03*
D23*
X63817500Y-37465000D03*
D22*
X85090000Y-51752500D03*
D23*
X85090000Y-56832500D03*
D22*
X96837500Y-57150000D03*
D23*
X96837500Y-62230000D03*
D22*
X111125000Y-95567500D03*
D23*
X111125000Y-100647500D03*
D22*
X115252500Y-62865000D03*
D23*
X110172500Y-62865000D03*
D22*
X117157500Y-62865000D03*
D23*
X122237500Y-62865000D03*
D22*
X65604896Y-98126242D03*
D23*
X60524896Y-98126242D03*
D22*
X65604896Y-86378742D03*
D23*
X60524896Y-86378742D03*
D22*
X48142396Y-81298742D03*
D23*
X53222396Y-81298742D03*
D22*
X67627500Y-81597500D03*
D23*
X72707500Y-81597500D03*
D22*
X65604896Y-81616242D03*
D23*
X60524896Y-81616242D03*
D22*
X65604896Y-102571242D03*
D23*
X60524896Y-102571242D03*
D22*
X67627500Y-98425000D03*
D23*
X72707500Y-98425000D03*
D22*
X67627500Y-85407500D03*
D23*
X72707500Y-85407500D03*
D22*
X65604896Y-84156242D03*
D23*
X60524896Y-84156242D03*
D22*
X65604896Y-100348742D03*
D23*
X60524896Y-100348742D03*
D22*
X67945000Y-95567500D03*
D23*
X67945000Y-90487500D03*
D22*
X48142396Y-102888742D03*
D23*
X53222396Y-102888742D03*
D22*
X67627500Y-102552500D03*
D23*
X72707500Y-102552500D03*
D22*
X82867500Y-51752500D03*
D23*
X82867500Y-56832500D03*
D22*
X92075000Y-51752500D03*
D23*
X92075000Y-56832500D03*
D22*
X94297500Y-51752500D03*
D23*
X94297500Y-56832500D03*
D22*
X113347500Y-91757500D03*
D23*
X118427500Y-91757500D03*
D22*
X113347500Y-94297500D03*
D23*
X118427500Y-94297500D03*
D22*
X129540000Y-62865000D03*
D23*
X124460000Y-62865000D03*
D22*
X113347500Y-96837500D03*
D23*
X118427500Y-96837500D03*
D22*
X113347500Y-99060000D03*
D23*
X118427500Y-99060000D03*
D22*
X106362500Y-47942500D03*
D23*
X106362500Y-42862500D03*
D22*
X106362500Y-35877500D03*
D23*
X106362500Y-40957500D03*
D22*
X114300000Y-49530000D03*
D23*
X114300000Y-44450000D03*
M02*
