M48
;DRILL file {KiCad 4.0.7-e2-6376~61~ubuntu18.04.1} date Sun Aug  8 20:37:07 2021
;FORMAT={-:-/ absolute / inch / decimal}
FMAT,2
INCH,TZ
T1C0.016
T2C0.024
T3C0.028
T4C0.031
T5C0.039
T6C0.126
%
G90
G05
M72
T1
X1.8935Y-3.75
X1.925Y-3.775
X2.05Y-1.2
X2.125Y-0.675
X2.125Y-0.775
X2.175Y-1.2
X2.2Y-2.2
X2.25Y-2.175
X2.3Y-2.15
X2.4Y-0.8
X2.4Y-0.85
X2.425Y-2.775
X2.525Y-1.025
X2.525Y-1.075
X2.55Y-1.45
X2.6Y-1.55
X2.675Y-1.7001
X2.675Y-2.675
X2.675Y-2.75
X2.7Y-1.65
X2.7Y-2.7
X2.725Y-1.7501
X2.75Y-1.
X2.75Y-1.8
X2.75Y-4.
X2.775Y-1.9001
X2.775Y-2.5
X2.8Y-1.
X2.8Y-1.5
X2.8Y-1.95
X2.85Y-3.875
X2.85Y-4.225
X2.9Y-1.225
X2.9Y-1.975
X2.9Y-2.25
X2.925Y-1.7001
X2.95Y-0.9
X2.95Y-1.15
X2.95Y-1.2
X2.95Y-1.2315
X2.95Y-1.725
X2.95Y-2.525
X2.975Y-2.6
X3.Y-0.85
X3.05Y-1.7501
X3.075Y-0.9
X3.075Y-1.65
X3.1Y-0.775
X3.1Y-1.2
X3.1Y-1.775
X3.125Y-1.675
X3.125Y-2.525
X3.15Y-1.95
X3.15Y-3.1
X3.15Y-3.55
X3.15Y-3.775
X3.175Y-2.425
X3.2Y-1.125
X3.2Y-1.475
X3.225Y-1.575
X3.225Y-2.175
X3.25Y-0.975
X3.275Y-1.8
X3.3Y-1.875
X3.325Y-1.9001
X3.35Y-1.225
X3.35Y-2.025
X3.375Y-0.85
X3.4Y-1.225
X3.425Y-2.3
X3.55Y-2.4
X3.55Y-3.475
X3.55Y-3.6
X3.575Y-2.425
X3.575Y-3.525
X3.575Y-3.575
X3.6Y-2.45
X3.625Y-2.225
X3.625Y-2.675
X3.675Y-1.625
X3.7Y-1.45
X3.725Y-1.525
X3.725Y-2.625
X3.725Y-2.8
X3.75Y-1.5
X3.775Y-1.475
X3.775Y-3.1
X3.8Y-0.925
X3.8Y-1.7501
X3.8Y-3.5
X3.825Y-1.7001
X3.85Y-1.55
X3.875Y-1.6
X3.875Y-1.675
X3.9Y-1.8251
X3.925Y-1.85
X3.925Y-2.775
X3.925Y-3.525
X3.95Y-1.575
X3.95Y-3.475
X4.Y-1.5
X4.Y-2.
X4.Y-2.1
X4.Y-2.65
X4.025Y-0.675
X4.025Y-2.625
X4.05Y-2.025
X4.05Y-2.15
X4.05Y-2.55
X4.075Y-1.9001
X4.075Y-2.125
X4.1Y-1.625
X4.15Y-1.225
X4.15Y-3.5
X4.175Y-2.35
X4.175Y-3.55
X4.2Y-1.225
X4.2Y-1.925
X4.3Y-1.65
X4.325Y-1.8251
X4.325Y-3.225
X4.35Y-1.775
X4.375Y-1.8751
X4.375Y-3.075
X4.375Y-3.375
X4.4Y-1.7001
X4.4Y-2.875
X4.425Y-1.9001
X4.425Y-2.1
X4.425Y-2.45
X4.5Y-1.8501
X4.525Y-1.7501
X4.55Y-3.775
X4.6Y-1.875
X4.6Y-2.05
X4.625Y-2.425
X4.65Y-1.8
X4.65Y-2.05
X4.675Y-1.675
X4.675Y-2.075
X4.7Y-1.775
X4.7Y-2.05
X4.725Y-1.7251
X4.725Y-2.075
X4.75Y-1.6
X4.75Y-3.775
X4.75Y-3.875
X4.775Y-1.525
X4.775Y-3.2
X4.8Y-1.625
X4.8Y-3.225
X4.85Y-1.5
X4.85Y-2.4
X4.875Y-1.525
X4.875Y-2.375
X4.9Y-1.45
X4.9Y-2.35
X4.9Y-3.225
T2
X1.85Y-2.375
X1.85Y-3.8
X1.85Y-3.85
X1.85Y-3.9
X1.85Y-4.025
X1.85Y-4.075
X1.85Y-4.125
X1.9Y-2.375
X1.95Y-2.375
X2.025Y-2.55
X2.025Y-2.6
X2.025Y-2.65
X2.05Y-4.025
X2.05Y-4.075
X2.05Y-4.125
X2.075Y-1.05
X2.075Y-1.1
X2.075Y-1.15
X2.075Y-1.275
X2.075Y-1.325
X2.075Y-1.375
X2.075Y-2.375
X2.125Y-2.375
X2.175Y-2.375
X2.225Y-2.55
X2.225Y-2.6
X2.225Y-2.65
X2.25Y-4.025
X2.25Y-4.075
X2.25Y-4.125
X2.275Y-0.825
X2.275Y-0.875
X2.275Y-0.925
X2.275Y-1.05
X2.275Y-1.1
X2.275Y-1.15
X2.275Y-1.275
X2.275Y-1.325
X2.275Y-1.375
X2.3Y-2.375
X2.35Y-2.375
X2.4Y-2.375
X2.425Y-2.55
X2.425Y-2.6
X2.425Y-2.65
X2.45Y-4.025
X2.45Y-4.075
X2.45Y-4.125
X2.45Y-4.25
X2.45Y-4.3
X2.45Y-4.35
X2.475Y-0.825
X2.475Y-0.875
X2.475Y-0.925
X2.475Y-1.05
X2.475Y-1.1
X2.475Y-1.15
X2.475Y-1.275
X2.475Y-1.325
X2.475Y-1.375
X2.525Y-2.375
X2.575Y-2.375
X2.625Y-2.375
X2.625Y-2.55
X2.625Y-2.6
X2.625Y-2.65
X2.65Y-4.025
X2.65Y-4.075
X2.65Y-4.125
X2.65Y-4.25
X2.65Y-4.3
X2.65Y-4.35
X2.675Y-0.825
X2.675Y-0.875
X2.675Y-0.925
X2.675Y-1.05
X2.675Y-1.1
X2.675Y-1.15
X2.675Y-1.275
X2.675Y-1.325
X2.675Y-1.375
X2.875Y-0.825
X2.875Y-0.875
X2.875Y-0.925
X2.875Y-1.05
X2.875Y-1.1
X2.875Y-1.15
X2.875Y-1.275
X2.875Y-1.325
X2.875Y-1.375
X3.075Y-1.05
X3.075Y-1.1
X3.075Y-1.15
X3.075Y-1.275
X3.075Y-1.325
X3.075Y-1.375
X3.075Y-2.375
X3.075Y-2.425
X3.075Y-2.475
X3.075Y-2.6
X3.075Y-2.65
X3.075Y-2.7
X3.075Y-2.825
X3.075Y-2.875
X3.075Y-2.925
X3.075Y-3.05
X3.075Y-3.1
X3.075Y-3.15
X3.075Y-3.275
X3.075Y-3.325
X3.075Y-3.375
X3.075Y-3.5
X3.075Y-3.55
X3.075Y-3.6
X3.075Y-3.725
X3.075Y-3.775
X3.075Y-3.825
X3.075Y-3.95
X3.075Y-4.
X3.075Y-4.05
X3.075Y-4.175
X3.075Y-4.225
X3.075Y-4.275
X3.275Y-0.825
X3.275Y-0.875
X3.275Y-0.925
X3.275Y-1.05
X3.275Y-1.1
X3.275Y-1.15
X3.275Y-1.275
X3.275Y-1.325
X3.275Y-1.375
X3.275Y-2.375
X3.275Y-2.425
X3.275Y-2.475
X3.275Y-2.6
X3.275Y-2.65
X3.275Y-2.7
X3.275Y-2.825
X3.275Y-2.875
X3.275Y-2.925
X3.275Y-3.05
X3.275Y-3.1
X3.275Y-3.15
X3.275Y-3.275
X3.275Y-3.325
X3.275Y-3.375
X3.275Y-3.5
X3.275Y-3.55
X3.275Y-3.6
X3.275Y-3.725
X3.275Y-3.775
X3.275Y-3.825
X3.275Y-3.95
X3.275Y-4.
X3.275Y-4.05
X3.275Y-4.175
X3.275Y-4.225
X3.275Y-4.275
X3.475Y-0.825
X3.475Y-0.875
X3.475Y-0.925
X3.475Y-1.05
X3.475Y-1.1
X3.475Y-1.15
X3.475Y-1.275
X3.475Y-1.325
X3.475Y-1.375
X3.475Y-2.375
X3.475Y-2.425
X3.475Y-2.475
X3.475Y-2.6
X3.475Y-2.65
X3.475Y-2.7
X3.475Y-2.825
X3.475Y-2.875
X3.475Y-2.925
X3.475Y-3.05
X3.475Y-3.1
X3.475Y-3.15
X3.475Y-3.275
X3.475Y-3.325
X3.475Y-3.375
X3.475Y-3.5
X3.475Y-3.55
X3.475Y-3.6
X3.475Y-3.725
X3.475Y-3.775
X3.475Y-3.825
X3.475Y-3.95
X3.475Y-4.
X3.475Y-4.05
X3.475Y-4.175
X3.475Y-4.225
X3.475Y-4.275
X3.675Y-0.825
X3.675Y-0.875
X3.675Y-0.925
X3.675Y-1.05
X3.675Y-1.1
X3.675Y-1.15
X3.675Y-1.275
X3.675Y-1.325
X3.675Y-1.375
X3.675Y-2.375
X3.675Y-2.425
X3.675Y-2.475
X3.675Y-2.6
X3.675Y-2.65
X3.675Y-2.7
X3.675Y-2.825
X3.675Y-2.875
X3.675Y-2.925
X3.675Y-3.05
X3.675Y-3.1
X3.675Y-3.15
X3.675Y-3.275
X3.675Y-3.325
X3.675Y-3.375
X3.675Y-3.5
X3.675Y-3.55
X3.675Y-3.6
X3.675Y-3.725
X3.675Y-3.775
X3.675Y-3.825
X3.675Y-3.95
X3.675Y-4.
X3.675Y-4.05
X3.675Y-4.175
X3.675Y-4.225
X3.675Y-4.275
X3.875Y-0.825
X3.875Y-0.875
X3.875Y-0.925
X3.875Y-1.05
X3.875Y-1.1
X3.875Y-1.15
X3.875Y-1.275
X3.875Y-1.325
X3.875Y-1.375
X3.875Y-2.375
X3.875Y-2.425
X3.875Y-2.475
X3.875Y-2.6
X3.875Y-2.65
X3.875Y-2.7
X3.875Y-2.825
X3.875Y-2.875
X3.875Y-2.925
X3.875Y-3.05
X3.875Y-3.1
X3.875Y-3.15
X3.875Y-3.275
X3.875Y-3.325
X3.875Y-3.375
X3.875Y-3.5
X3.875Y-3.55
X3.875Y-3.6
X3.875Y-3.725
X3.875Y-3.775
X3.875Y-3.825
X3.875Y-3.95
X3.875Y-4.
X3.875Y-4.05
X3.875Y-4.175
X3.875Y-4.225
X3.875Y-4.275
X4.075Y-0.825
X4.075Y-0.875
X4.075Y-0.925
X4.075Y-1.05
X4.075Y-1.1
X4.075Y-1.15
X4.075Y-1.275
X4.075Y-1.325
X4.075Y-1.375
X4.075Y-2.375
X4.075Y-2.425
X4.075Y-2.475
X4.075Y-2.6
X4.075Y-2.65
X4.075Y-2.7
X4.075Y-2.825
X4.075Y-2.875
X4.075Y-2.925
X4.075Y-3.05
X4.075Y-3.1
X4.075Y-3.15
X4.075Y-3.275
X4.075Y-3.325
X4.075Y-3.375
X4.075Y-3.5
X4.075Y-3.55
X4.075Y-3.6
X4.075Y-3.725
X4.075Y-3.775
X4.075Y-3.825
X4.075Y-3.95
X4.075Y-4.
X4.075Y-4.05
X4.075Y-4.175
X4.075Y-4.225
X4.075Y-4.275
X4.275Y-0.825
X4.275Y-0.875
X4.275Y-0.925
X4.275Y-1.05
X4.275Y-1.1
X4.275Y-1.15
X4.275Y-1.275
X4.275Y-1.325
X4.275Y-1.375
X4.275Y-2.375
X4.275Y-2.425
X4.275Y-2.475
X4.275Y-2.6
X4.275Y-2.65
X4.275Y-2.7
X4.275Y-2.825
X4.275Y-2.875
X4.275Y-2.925
X4.275Y-3.05
X4.275Y-3.1
X4.275Y-3.15
X4.275Y-3.275
X4.275Y-3.325
X4.275Y-3.375
X4.275Y-3.5
X4.275Y-3.55
X4.275Y-3.6
X4.475Y-0.825
X4.475Y-0.875
X4.475Y-0.925
X4.475Y-1.05
X4.475Y-1.1
X4.475Y-1.15
X4.475Y-1.275
X4.475Y-1.325
X4.475Y-1.375
X4.475Y-2.375
X4.475Y-2.425
X4.475Y-2.475
X4.475Y-2.6
X4.475Y-2.65
X4.475Y-2.7
X4.475Y-2.825
X4.475Y-2.875
X4.475Y-2.925
X4.475Y-3.05
X4.475Y-3.1
X4.475Y-3.15
X4.475Y-3.275
X4.475Y-3.325
X4.475Y-3.375
X4.475Y-3.5
X4.475Y-3.55
X4.475Y-3.6
X4.475Y-3.725
X4.475Y-3.775
X4.475Y-3.825
X4.475Y-3.95
X4.475Y-4.
X4.475Y-4.05
X4.675Y-0.825
X4.675Y-0.875
X4.675Y-0.925
X4.675Y-1.05
X4.675Y-1.1
X4.675Y-1.15
X4.675Y-1.275
X4.675Y-1.325
X4.675Y-1.375
X4.85Y-2.825
X4.85Y-2.875
X4.85Y-2.925
X4.85Y-3.05
X4.85Y-3.1
X4.85Y-3.15
X4.85Y-3.275
X4.85Y-3.325
X4.85Y-3.375
X4.85Y-3.5
X4.85Y-3.55
X4.85Y-3.6
X4.85Y-3.725
X4.85Y-3.775
X4.85Y-3.825
X4.85Y-3.95
X4.85Y-4.
X4.85Y-4.05
X4.875Y-0.825
X4.875Y-0.875
X4.875Y-0.925
X4.875Y-1.05
X4.875Y-1.1
X4.875Y-1.15
X4.875Y-1.275
X4.875Y-1.325
X4.875Y-1.375
X5.05Y-2.825
X5.05Y-2.875
X5.05Y-2.925
X5.05Y-3.05
X5.05Y-3.1
X5.05Y-3.15
X5.05Y-3.275
X5.05Y-3.325
X5.05Y-3.375
X5.05Y-3.5
X5.05Y-3.55
X5.05Y-3.6
X5.05Y-3.725
X5.05Y-3.775
X5.05Y-3.825
X5.075Y-0.825
X5.075Y-0.875
X5.075Y-0.925
X5.075Y-1.05
X5.075Y-1.1
X5.075Y-1.15
X5.075Y-1.275
X5.075Y-1.325
X5.075Y-1.375
X5.275Y-1.05
X5.275Y-1.1
X5.275Y-1.15
X5.275Y-1.275
X5.275Y-1.325
X5.275Y-1.375
X5.45Y-1.275
X5.45Y-1.325
X5.45Y-1.375
X5.475Y-1.05
X5.475Y-1.1
X5.475Y-1.15
T3
X1.725Y-1.3
X1.725Y-1.4
X1.725Y-1.5
X1.725Y-1.6
X1.725Y-1.7
X1.725Y-1.8
X1.725Y-1.9
X1.725Y-2.
X1.725Y-2.1
X1.725Y-2.2
X1.925Y-1.3
X1.925Y-1.4
X1.925Y-1.5
X1.925Y-1.6
X1.925Y-1.7
X1.925Y-1.8
X1.925Y-1.9
X1.925Y-2.
X1.925Y-2.1
X1.925Y-2.2
X2.3Y-0.725
X2.5Y-0.725
X2.6Y-0.725
X2.8Y-0.725
X2.9Y-2.575
X2.9Y-2.775
X2.9Y-3.475
X2.9Y-3.675
X2.9Y-3.775
X2.9Y-3.975
X2.9Y-4.075
X2.9Y-4.275
X3.Y-2.25
X3.2Y-2.25
X3.275Y-2.25
X3.3Y-0.725
X3.475Y-2.25
X3.5Y-0.725
X3.575Y-2.25
X3.575Y-4.375
X3.6Y-0.725
X3.775Y-2.25
X3.775Y-4.375
X3.8Y-0.725
X3.95Y-2.25
X4.1Y-0.725
X4.15Y-2.25
X4.25Y-2.25
X4.3Y-0.725
X4.4Y-0.725
X4.45Y-2.25
X4.6Y-0.725
X4.675Y-0.725
X4.875Y-0.725
X5.025Y-1.5
X5.025Y-1.65
X5.225Y-1.5
X5.225Y-1.65
X5.225Y-2.85
X5.3Y-1.65
X5.425Y-2.85
X5.5Y-1.65
T4
X1.825Y-2.825
X1.825Y-2.925
X1.825Y-3.025
X1.825Y-3.125
X1.825Y-3.225
X1.825Y-3.325
X1.825Y-3.425
X1.825Y-3.525
X2.Y-3.675
X2.Y-3.925
X2.075Y-2.825
X2.075Y-2.925
X2.075Y-3.025
X2.075Y-3.125
X2.075Y-3.225
X2.075Y-3.325
X2.075Y-3.425
X2.075Y-3.525
X2.1Y-3.675
X2.1Y-3.925
X2.175Y-2.825
X2.175Y-2.925
X2.175Y-3.025
X2.175Y-3.125
X2.175Y-3.225
X2.175Y-3.325
X2.175Y-3.425
X2.175Y-3.525
X2.2Y-3.675
X2.2Y-3.925
X2.3Y-3.675
X2.3Y-3.925
X2.4Y-3.675
X2.4Y-3.925
X2.475Y-2.825
X2.475Y-2.925
X2.475Y-3.025
X2.475Y-3.125
X2.475Y-3.225
X2.475Y-3.325
X2.475Y-3.425
X2.475Y-3.525
X2.5Y-3.675
X2.5Y-3.925
X2.6Y-3.675
X2.6Y-3.925
X2.7Y-3.675
X2.7Y-3.925
X5.125Y-1.575
X5.3Y-1.5
X5.375Y-1.575
X5.4969Y-1.5
T5
X1.725Y-1.15
X1.8Y-2.575
X1.825Y-1.15
X2.025Y-1.5
X2.025Y-1.6
X2.025Y-1.7
X2.025Y-1.8
X2.025Y-1.9
X2.025Y-2.
X2.025Y-2.1
X2.025Y-2.2
X2.125Y-1.5
X2.125Y-1.6
X2.125Y-1.7
X2.125Y-1.8
X2.125Y-1.9
X2.125Y-2.
X2.125Y-2.1
X2.125Y-2.2
X2.6Y-2.825
X2.6Y-2.925
X2.6Y-3.025
X2.6Y-3.125
X2.6Y-3.225
X2.6Y-3.325
X2.6Y-3.425
X2.6Y-3.525
X2.7Y-2.825
X2.7Y-2.925
X2.7Y-3.025
X2.7Y-3.125
X2.7Y-3.225
X2.7Y-3.325
X2.7Y-3.425
X2.7Y-3.525
X2.9Y-2.9
X2.9Y-3.
X2.9Y-3.1
X2.9Y-3.2
X2.9Y-3.3
X3.425Y-2.125
X3.525Y-2.125
X3.625Y-2.125
X4.15Y-2.15
X4.25Y-2.15
X5.075Y-0.7
X5.15Y-1.8
X5.15Y-1.9
X5.15Y-2.
X5.15Y-2.1
X5.15Y-2.2
X5.15Y-2.3
X5.15Y-2.4
X5.15Y-2.5
X5.25Y-1.8
X5.25Y-1.9
X5.25Y-2.
X5.25Y-2.1
X5.25Y-2.2
X5.25Y-2.3
X5.25Y-2.4
X5.25Y-2.5
X5.35Y-1.8
X5.35Y-1.9
X5.35Y-2.
X5.35Y-2.1
X5.35Y-2.2
X5.35Y-2.3
X5.35Y-2.4
X5.35Y-2.5
X5.425Y-3.075
X5.425Y-3.175
X5.425Y-3.275
X5.425Y-3.375
X5.45Y-1.8
X5.45Y-1.9
X5.45Y-2.
X5.45Y-2.1
X5.45Y-2.2
X5.45Y-2.3
X5.45Y-2.4
X5.45Y-2.5
T6
X1.825Y-0.8
X1.825Y-4.35
X5.375Y-0.8
X5.375Y-4.35
T0
M30
