%TF.GenerationSoftware,KiCad,Pcbnew,4.0.7-e2-6376~61~ubuntu18.04.1*%
%TF.CreationDate,2021-08-08T20:36:29+02:00*%
%TF.ProjectId,core,636F72652E6B696361645F7063620000,rev?*%
%TF.FileFunction,Soldermask,Bot*%
%FSLAX46Y46*%
G04 Gerber Fmt 4.6, Leading zero omitted, Abs format (unit mm)*
G04 Created by KiCad (PCBNEW 4.0.7-e2-6376~61~ubuntu18.04.1) date Sun Aug  8 20:36:29 2021*
%MOMM*%
%LPD*%
G01*
G04 APERTURE LIST*
%ADD10C,0.150000*%
%ADD11O,1.900000X1.300000*%
%ADD12R,1.900000X1.300000*%
%ADD13R,2.100000X2.100000*%
%ADD14O,2.100000X2.100000*%
%ADD15C,6.800000*%
%ADD16C,2.000000*%
%ADD17R,2.000000X2.000000*%
%ADD18O,2.000000X2.000000*%
%ADD19O,1.300000X1.900000*%
%ADD20R,1.300000X1.900000*%
%ADD21C,1.800000*%
%ADD22O,1.800000X1.800000*%
G04 APERTURE END LIST*
D10*
X41440000Y-15405000D02*
X41440000Y-115405000D01*
X41440000Y-115405000D02*
X141440000Y-115405000D01*
X141440000Y-15405000D02*
X141440000Y-115405000D01*
X41440000Y-15405000D02*
X141440000Y-15405000D01*
D11*
X78105000Y-84455000D03*
X78105000Y-83185000D03*
D12*
X78105000Y-85725000D03*
D13*
X130810000Y-45720000D03*
D14*
X130810000Y-48260000D03*
X130810000Y-50800000D03*
X130810000Y-53340000D03*
X130810000Y-55880000D03*
X130810000Y-58420000D03*
X130810000Y-60960000D03*
X130810000Y-63500000D03*
D11*
X118745000Y-27940000D03*
X118745000Y-26670000D03*
D12*
X118745000Y-29210000D03*
D15*
X46355000Y-110490000D03*
X136525000Y-110490000D03*
X136525000Y-20320000D03*
D16*
X139620000Y-38100000D03*
X134620000Y-38100000D03*
D17*
X130175000Y-40005000D03*
D18*
X136525000Y-40005000D03*
D17*
X46355000Y-71755000D03*
D18*
X52705000Y-71755000D03*
D17*
X50800000Y-99695000D03*
D18*
X50800000Y-93345000D03*
D17*
X46355000Y-74295000D03*
D18*
X52705000Y-74295000D03*
D17*
X46355000Y-76835000D03*
D18*
X52705000Y-76835000D03*
D17*
X46355000Y-79375000D03*
D18*
X52705000Y-79375000D03*
D17*
X46355000Y-81915000D03*
D18*
X52705000Y-81915000D03*
D17*
X46355000Y-84455000D03*
D18*
X52705000Y-84455000D03*
D17*
X46355000Y-86995000D03*
D18*
X52705000Y-86995000D03*
D17*
X46355000Y-89535000D03*
D18*
X52705000Y-89535000D03*
D17*
X53340000Y-99695000D03*
D18*
X53340000Y-93345000D03*
D17*
X55880000Y-99695000D03*
D18*
X55880000Y-93345000D03*
D17*
X58420000Y-99695000D03*
D18*
X58420000Y-93345000D03*
D17*
X60960000Y-99695000D03*
D18*
X60960000Y-93345000D03*
D17*
X63500000Y-99695000D03*
D18*
X63500000Y-93345000D03*
D17*
X66040000Y-99695000D03*
D18*
X66040000Y-93345000D03*
D17*
X68580000Y-99695000D03*
D18*
X68580000Y-93345000D03*
D13*
X43815000Y-29210000D03*
D14*
X46355000Y-29210000D03*
D13*
X105410000Y-54610000D03*
X107950000Y-54610000D03*
X66040000Y-71755000D03*
D14*
X66040000Y-74295000D03*
X66040000Y-76835000D03*
X66040000Y-79375000D03*
X66040000Y-81915000D03*
X66040000Y-84455000D03*
X66040000Y-86995000D03*
X66040000Y-89535000D03*
D13*
X128905000Y-17780000D03*
X45720000Y-65405000D03*
X135890000Y-45720000D03*
D14*
X135890000Y-48260000D03*
X135890000Y-50800000D03*
X135890000Y-53340000D03*
X135890000Y-55880000D03*
X135890000Y-58420000D03*
X135890000Y-60960000D03*
X135890000Y-63500000D03*
D13*
X133350000Y-45720000D03*
D14*
X133350000Y-48260000D03*
X133350000Y-50800000D03*
X133350000Y-53340000D03*
X133350000Y-55880000D03*
X133350000Y-58420000D03*
X133350000Y-60960000D03*
X133350000Y-63500000D03*
D13*
X138430000Y-45720000D03*
D14*
X138430000Y-48260000D03*
X138430000Y-50800000D03*
X138430000Y-53340000D03*
X138430000Y-55880000D03*
X138430000Y-58420000D03*
X138430000Y-60960000D03*
X138430000Y-63500000D03*
D13*
X53975000Y-38100000D03*
D14*
X53975000Y-40640000D03*
X53975000Y-43180000D03*
X53975000Y-45720000D03*
X53975000Y-48260000D03*
X53975000Y-50800000D03*
X53975000Y-53340000D03*
X53975000Y-55880000D03*
D13*
X137795000Y-78105000D03*
X51435000Y-38100000D03*
D14*
X51435000Y-40640000D03*
X51435000Y-43180000D03*
X51435000Y-45720000D03*
X51435000Y-48260000D03*
X51435000Y-50800000D03*
X51435000Y-53340000D03*
X51435000Y-55880000D03*
D13*
X137795000Y-83185000D03*
X137795000Y-80645000D03*
X137795000Y-85725000D03*
X89535000Y-53975000D03*
X86995000Y-53975000D03*
X92075000Y-53975000D03*
X73660000Y-83820000D03*
X73660000Y-81280000D03*
X73660000Y-78740000D03*
X73660000Y-76200000D03*
X73660000Y-73660000D03*
D11*
X139065000Y-27940000D03*
X139065000Y-26670000D03*
D12*
X139065000Y-29210000D03*
D11*
X133985000Y-27940000D03*
X133985000Y-26670000D03*
D12*
X133985000Y-29210000D03*
D19*
X65405000Y-60325000D03*
X64135000Y-60325000D03*
D20*
X66675000Y-60325000D03*
D19*
X59690000Y-60325000D03*
X58420000Y-60325000D03*
D20*
X60960000Y-60325000D03*
D19*
X53975000Y-60325000D03*
X52705000Y-60325000D03*
D20*
X55245000Y-60325000D03*
D11*
X138430000Y-33655000D03*
X138430000Y-34925000D03*
D12*
X138430000Y-32385000D03*
D19*
X48260000Y-60325000D03*
X46990000Y-60325000D03*
D20*
X49530000Y-60325000D03*
D11*
X133985000Y-33655000D03*
X133985000Y-32385000D03*
D12*
X133985000Y-34925000D03*
D11*
X62865000Y-33655000D03*
X62865000Y-32385000D03*
D12*
X62865000Y-34925000D03*
D11*
X57785000Y-33655000D03*
X57785000Y-32385000D03*
D12*
X57785000Y-34925000D03*
D11*
X52705000Y-27940000D03*
X52705000Y-26670000D03*
D12*
X52705000Y-29210000D03*
D11*
X52705000Y-33655000D03*
X52705000Y-32385000D03*
D12*
X52705000Y-34925000D03*
D11*
X57785000Y-22225000D03*
X57785000Y-20955000D03*
D12*
X57785000Y-23495000D03*
D11*
X57785000Y-27940000D03*
X57785000Y-26670000D03*
D12*
X57785000Y-29210000D03*
D11*
X62865000Y-27940000D03*
X62865000Y-26670000D03*
D12*
X62865000Y-29210000D03*
D11*
X62865000Y-22225000D03*
X62865000Y-20955000D03*
D12*
X62865000Y-23495000D03*
D11*
X67945000Y-27940000D03*
X67945000Y-26670000D03*
D12*
X67945000Y-29210000D03*
D11*
X67945000Y-22225000D03*
X67945000Y-20955000D03*
D12*
X67945000Y-23495000D03*
D11*
X67945000Y-33655000D03*
X67945000Y-32385000D03*
D12*
X67945000Y-34925000D03*
D11*
X73025000Y-33655000D03*
X73025000Y-32385000D03*
D12*
X73025000Y-34925000D03*
D11*
X78105000Y-27940000D03*
X78105000Y-26670000D03*
D12*
X78105000Y-29210000D03*
D11*
X78105000Y-33655000D03*
X78105000Y-32385000D03*
D12*
X78105000Y-34925000D03*
D11*
X73025000Y-22225000D03*
X73025000Y-20955000D03*
D12*
X73025000Y-23495000D03*
D11*
X73025000Y-27940000D03*
X73025000Y-26670000D03*
D12*
X73025000Y-29210000D03*
D11*
X83185000Y-33655000D03*
X83185000Y-32385000D03*
D12*
X83185000Y-34925000D03*
D11*
X88265000Y-33655000D03*
X88265000Y-32385000D03*
D12*
X88265000Y-34925000D03*
D11*
X83185000Y-22225000D03*
X83185000Y-20955000D03*
D12*
X83185000Y-23495000D03*
D11*
X83185000Y-27940000D03*
X83185000Y-26670000D03*
D12*
X83185000Y-29210000D03*
D11*
X88265000Y-27940000D03*
X88265000Y-26670000D03*
D12*
X88265000Y-29210000D03*
D11*
X88265000Y-22225000D03*
X88265000Y-20955000D03*
D12*
X88265000Y-23495000D03*
D11*
X93345000Y-27940000D03*
X93345000Y-26670000D03*
D12*
X93345000Y-29210000D03*
D11*
X93345000Y-22225000D03*
X93345000Y-20955000D03*
D12*
X93345000Y-23495000D03*
D11*
X98425000Y-33655000D03*
X98425000Y-32385000D03*
D12*
X98425000Y-34925000D03*
D11*
X93345000Y-33655000D03*
X93345000Y-32385000D03*
D12*
X93345000Y-34925000D03*
D11*
X98425000Y-22225000D03*
X98425000Y-20955000D03*
D12*
X98425000Y-23495000D03*
D11*
X98425000Y-27940000D03*
X98425000Y-26670000D03*
D12*
X98425000Y-29210000D03*
D11*
X103505000Y-33655000D03*
X103505000Y-32385000D03*
D12*
X103505000Y-34925000D03*
D11*
X108585000Y-33655000D03*
X108585000Y-32385000D03*
D12*
X108585000Y-34925000D03*
D11*
X103505000Y-22225000D03*
X103505000Y-20955000D03*
D12*
X103505000Y-23495000D03*
D11*
X103505000Y-27940000D03*
X103505000Y-26670000D03*
D12*
X103505000Y-29210000D03*
D11*
X108585000Y-27940000D03*
X108585000Y-26670000D03*
D12*
X108585000Y-29210000D03*
D11*
X108585000Y-22225000D03*
X108585000Y-20955000D03*
D12*
X108585000Y-23495000D03*
D11*
X113665000Y-27940000D03*
X113665000Y-26670000D03*
D12*
X113665000Y-29210000D03*
D11*
X113665000Y-22225000D03*
X113665000Y-20955000D03*
D12*
X113665000Y-23495000D03*
D11*
X118745000Y-33655000D03*
X118745000Y-32385000D03*
D12*
X118745000Y-34925000D03*
D11*
X113665000Y-33655000D03*
X113665000Y-32385000D03*
D12*
X113665000Y-34925000D03*
D11*
X118745000Y-22225000D03*
X118745000Y-20955000D03*
D12*
X118745000Y-23495000D03*
D11*
X123825000Y-22225000D03*
X123825000Y-20955000D03*
D12*
X123825000Y-23495000D03*
D11*
X123825000Y-27940000D03*
X123825000Y-26670000D03*
D12*
X123825000Y-29210000D03*
D11*
X123825000Y-33655000D03*
X123825000Y-32385000D03*
D12*
X123825000Y-34925000D03*
D11*
X128905000Y-33655000D03*
X128905000Y-32385000D03*
D12*
X128905000Y-34925000D03*
D11*
X128905000Y-22225000D03*
X128905000Y-20955000D03*
D12*
X128905000Y-23495000D03*
D11*
X128905000Y-27940000D03*
X128905000Y-26670000D03*
D12*
X128905000Y-29210000D03*
D11*
X128270000Y-95885000D03*
X128270000Y-94615000D03*
D12*
X128270000Y-97155000D03*
D11*
X123190000Y-95885000D03*
X123190000Y-94615000D03*
D12*
X123190000Y-97155000D03*
D11*
X128270000Y-73025000D03*
X128270000Y-71755000D03*
D12*
X128270000Y-74295000D03*
D11*
X128270000Y-90170000D03*
X128270000Y-88900000D03*
D12*
X128270000Y-91440000D03*
D11*
X123190000Y-90170000D03*
X123190000Y-88900000D03*
D12*
X123190000Y-91440000D03*
D11*
X123190000Y-101600000D03*
X123190000Y-100330000D03*
D12*
X123190000Y-102870000D03*
D11*
X128270000Y-78740000D03*
X128270000Y-77470000D03*
D12*
X128270000Y-80010000D03*
D11*
X128270000Y-84455000D03*
X128270000Y-83185000D03*
D12*
X128270000Y-85725000D03*
D11*
X123190000Y-73025000D03*
X123190000Y-71755000D03*
D12*
X123190000Y-74295000D03*
D11*
X123190000Y-78740000D03*
X123190000Y-77470000D03*
D12*
X123190000Y-80010000D03*
D11*
X123190000Y-84455000D03*
X123190000Y-83185000D03*
D12*
X123190000Y-85725000D03*
D11*
X78105000Y-95885000D03*
X78105000Y-94615000D03*
D12*
X78105000Y-97155000D03*
D11*
X88265000Y-67310000D03*
X88265000Y-66040000D03*
D12*
X88265000Y-68580000D03*
D11*
X78105000Y-90170000D03*
X78105000Y-88900000D03*
D12*
X78105000Y-91440000D03*
D11*
X83185000Y-95885000D03*
X83185000Y-94615000D03*
D12*
X83185000Y-97155000D03*
D11*
X78105000Y-101600000D03*
X78105000Y-100330000D03*
D12*
X78105000Y-102870000D03*
D11*
X88265000Y-73025000D03*
X88265000Y-71755000D03*
D12*
X88265000Y-74295000D03*
D11*
X83185000Y-90170000D03*
X83185000Y-88900000D03*
D12*
X83185000Y-91440000D03*
D11*
X88265000Y-78740000D03*
X88265000Y-77470000D03*
D12*
X88265000Y-80010000D03*
D11*
X78105000Y-78740000D03*
X78105000Y-77470000D03*
D12*
X78105000Y-80010000D03*
D11*
X83185000Y-84455000D03*
X83185000Y-83185000D03*
D12*
X83185000Y-85725000D03*
D11*
X83185000Y-101600000D03*
X83185000Y-100330000D03*
D12*
X83185000Y-102870000D03*
D11*
X83185000Y-107315000D03*
X83185000Y-106045000D03*
D12*
X83185000Y-108585000D03*
D11*
X88265000Y-84455000D03*
X88265000Y-83185000D03*
D12*
X88265000Y-85725000D03*
D11*
X78105000Y-73025000D03*
X78105000Y-71755000D03*
D12*
X78105000Y-74295000D03*
D11*
X83185000Y-78740000D03*
X83185000Y-77470000D03*
D12*
X83185000Y-80010000D03*
D11*
X83185000Y-67310000D03*
X83185000Y-66040000D03*
D12*
X83185000Y-68580000D03*
D11*
X83185000Y-61595000D03*
X83185000Y-60325000D03*
D12*
X83185000Y-62865000D03*
D11*
X88265000Y-101600000D03*
X88265000Y-100330000D03*
D12*
X88265000Y-102870000D03*
D11*
X88265000Y-107315000D03*
X88265000Y-106045000D03*
D12*
X88265000Y-108585000D03*
D11*
X78105000Y-67310000D03*
X78105000Y-66040000D03*
D12*
X78105000Y-68580000D03*
D11*
X83185000Y-73025000D03*
X83185000Y-71755000D03*
D12*
X83185000Y-74295000D03*
D11*
X88265000Y-90170000D03*
X88265000Y-88900000D03*
D12*
X88265000Y-91440000D03*
D11*
X88265000Y-95885000D03*
X88265000Y-94615000D03*
D12*
X88265000Y-97155000D03*
D11*
X78105000Y-61595000D03*
X78105000Y-60325000D03*
D12*
X78105000Y-62865000D03*
D11*
X78105000Y-107315000D03*
X78105000Y-106045000D03*
D12*
X78105000Y-108585000D03*
D11*
X88265000Y-61595000D03*
X88265000Y-60325000D03*
D12*
X88265000Y-62865000D03*
D11*
X98425000Y-90170000D03*
X98425000Y-88900000D03*
D12*
X98425000Y-91440000D03*
D11*
X98425000Y-101600000D03*
X98425000Y-100330000D03*
D12*
X98425000Y-102870000D03*
D11*
X98425000Y-107315000D03*
X98425000Y-106045000D03*
D12*
X98425000Y-108585000D03*
D11*
X103505000Y-101600000D03*
X103505000Y-100330000D03*
D12*
X103505000Y-102870000D03*
D11*
X103505000Y-107315000D03*
X103505000Y-106045000D03*
D12*
X103505000Y-108585000D03*
D11*
X98425000Y-78740000D03*
X98425000Y-77470000D03*
D12*
X98425000Y-80010000D03*
D11*
X98425000Y-84455000D03*
X98425000Y-83185000D03*
D12*
X98425000Y-85725000D03*
D11*
X98425000Y-95885000D03*
X98425000Y-94615000D03*
D12*
X98425000Y-97155000D03*
D11*
X98425000Y-73025000D03*
X98425000Y-71755000D03*
D12*
X98425000Y-74295000D03*
D11*
X93345000Y-101600000D03*
X93345000Y-100330000D03*
D12*
X93345000Y-102870000D03*
D11*
X93345000Y-107315000D03*
X93345000Y-106045000D03*
D12*
X93345000Y-108585000D03*
D11*
X93345000Y-84455000D03*
X93345000Y-83185000D03*
D12*
X93345000Y-85725000D03*
D11*
X98425000Y-61595000D03*
X98425000Y-60325000D03*
D12*
X98425000Y-62865000D03*
D11*
X98425000Y-67310000D03*
X98425000Y-66040000D03*
D12*
X98425000Y-68580000D03*
D11*
X93345000Y-78740000D03*
X93345000Y-77470000D03*
D12*
X93345000Y-80010000D03*
D11*
X93345000Y-95885000D03*
X93345000Y-94615000D03*
D12*
X93345000Y-97155000D03*
D11*
X93345000Y-90170000D03*
X93345000Y-88900000D03*
D12*
X93345000Y-91440000D03*
D11*
X93345000Y-73025000D03*
X93345000Y-71755000D03*
D12*
X93345000Y-74295000D03*
D11*
X93345000Y-61595000D03*
X93345000Y-60325000D03*
D12*
X93345000Y-62865000D03*
D11*
X93345000Y-67310000D03*
X93345000Y-66040000D03*
D12*
X93345000Y-68580000D03*
D11*
X103505000Y-78740000D03*
X103505000Y-77470000D03*
D12*
X103505000Y-80010000D03*
D11*
X113665000Y-90170000D03*
X113665000Y-88900000D03*
D12*
X113665000Y-91440000D03*
D11*
X103505000Y-73025000D03*
X103505000Y-71755000D03*
D12*
X103505000Y-74295000D03*
D11*
X113665000Y-101600000D03*
X113665000Y-100330000D03*
D12*
X113665000Y-102870000D03*
D11*
X103505000Y-61595000D03*
X103505000Y-60325000D03*
D12*
X103505000Y-62865000D03*
D11*
X103505000Y-67310000D03*
X103505000Y-66040000D03*
D12*
X103505000Y-68580000D03*
D11*
X103505000Y-90170000D03*
X103505000Y-88900000D03*
D12*
X103505000Y-91440000D03*
D11*
X103505000Y-95885000D03*
X103505000Y-94615000D03*
D12*
X103505000Y-97155000D03*
D11*
X113665000Y-95885000D03*
X113665000Y-94615000D03*
D12*
X113665000Y-97155000D03*
D11*
X108585000Y-73025000D03*
X108585000Y-71755000D03*
D12*
X108585000Y-74295000D03*
D11*
X108585000Y-90170000D03*
X108585000Y-88900000D03*
D12*
X108585000Y-91440000D03*
D11*
X103505000Y-84455000D03*
X103505000Y-83185000D03*
D12*
X103505000Y-85725000D03*
D11*
X113665000Y-61595000D03*
X113665000Y-60325000D03*
D12*
X113665000Y-62865000D03*
D11*
X113665000Y-73025000D03*
X113665000Y-71755000D03*
D12*
X113665000Y-74295000D03*
D11*
X108585000Y-61595000D03*
X108585000Y-60325000D03*
D12*
X108585000Y-62865000D03*
D11*
X113665000Y-67310000D03*
X113665000Y-66040000D03*
D12*
X113665000Y-68580000D03*
D11*
X108585000Y-67310000D03*
X108585000Y-66040000D03*
D12*
X108585000Y-68580000D03*
D11*
X113665000Y-78740000D03*
X113665000Y-77470000D03*
D12*
X113665000Y-80010000D03*
D11*
X113665000Y-84455000D03*
X113665000Y-83185000D03*
D12*
X113665000Y-85725000D03*
D11*
X108585000Y-78740000D03*
X108585000Y-77470000D03*
D12*
X108585000Y-80010000D03*
D11*
X108585000Y-84455000D03*
X108585000Y-83185000D03*
D12*
X108585000Y-85725000D03*
D11*
X46990000Y-97790000D03*
X46990000Y-96520000D03*
D12*
X46990000Y-99060000D03*
D11*
X51435000Y-66040000D03*
X51435000Y-67310000D03*
D12*
X51435000Y-64770000D03*
D11*
X56515000Y-66040000D03*
X56515000Y-67310000D03*
D12*
X56515000Y-64770000D03*
D11*
X61595000Y-66040000D03*
X61595000Y-67310000D03*
D12*
X61595000Y-64770000D03*
D11*
X66675000Y-66040000D03*
X66675000Y-67310000D03*
D12*
X66675000Y-64770000D03*
D11*
X46990000Y-103505000D03*
X46990000Y-102235000D03*
D12*
X46990000Y-104775000D03*
D11*
X52070000Y-103505000D03*
X52070000Y-102235000D03*
D12*
X52070000Y-104775000D03*
D11*
X57150000Y-103505000D03*
X57150000Y-102235000D03*
D12*
X57150000Y-104775000D03*
D11*
X62230000Y-103505000D03*
X62230000Y-102235000D03*
D12*
X62230000Y-104775000D03*
D11*
X62230000Y-109220000D03*
X62230000Y-107950000D03*
D12*
X62230000Y-110490000D03*
D11*
X67310000Y-109220000D03*
X67310000Y-107950000D03*
D12*
X67310000Y-110490000D03*
D11*
X67310000Y-103505000D03*
X67310000Y-102235000D03*
D12*
X67310000Y-104775000D03*
D21*
X118745000Y-18415000D03*
D22*
X123825000Y-18415000D03*
D21*
X43815000Y-33020000D03*
D22*
X48895000Y-33020000D03*
D21*
X134620000Y-41910000D03*
D22*
X139700000Y-41910000D03*
D21*
X127635000Y-38100000D03*
D22*
X132715000Y-38100000D03*
D21*
X127635000Y-41910000D03*
D22*
X132715000Y-41910000D03*
D21*
X43815000Y-35560000D03*
D22*
X48895000Y-35560000D03*
D21*
X43815000Y-38100000D03*
D22*
X48895000Y-38100000D03*
D21*
X58420000Y-18415000D03*
D22*
X63500000Y-18415000D03*
D21*
X43815000Y-48260000D03*
D22*
X48895000Y-48260000D03*
D21*
X71120000Y-18415000D03*
D22*
X66040000Y-18415000D03*
D21*
X43815000Y-40640000D03*
D22*
X48895000Y-40640000D03*
D21*
X83820000Y-18415000D03*
D22*
X88900000Y-18415000D03*
D21*
X43815000Y-50800000D03*
D22*
X48895000Y-50800000D03*
D21*
X96520000Y-18415000D03*
D22*
X91440000Y-18415000D03*
D21*
X43815000Y-43180000D03*
D22*
X48895000Y-43180000D03*
D21*
X104140000Y-18415000D03*
D22*
X109220000Y-18415000D03*
D21*
X43815000Y-53340000D03*
D22*
X48895000Y-53340000D03*
D21*
X116840000Y-18415000D03*
D22*
X111760000Y-18415000D03*
D21*
X43815000Y-45720000D03*
D22*
X48895000Y-45720000D03*
D21*
X43815000Y-55880000D03*
D22*
X48895000Y-55880000D03*
D21*
X137795000Y-72390000D03*
D22*
X132715000Y-72390000D03*
D21*
X73660000Y-93345000D03*
D22*
X73660000Y-88265000D03*
D21*
X73660000Y-108585000D03*
D22*
X73660000Y-103505000D03*
D21*
X73660000Y-95885000D03*
D22*
X73660000Y-100965000D03*
D21*
X73660000Y-70485000D03*
D22*
X73660000Y-65405000D03*
D21*
X90805000Y-111125000D03*
D22*
X95885000Y-111125000D03*
D21*
X90805000Y-57150000D03*
D22*
X95885000Y-57150000D03*
D21*
X81280000Y-57150000D03*
D22*
X76200000Y-57150000D03*
D21*
X83185000Y-57150000D03*
D22*
X88265000Y-57150000D03*
D21*
X100330000Y-57150000D03*
D22*
X105410000Y-57150000D03*
D21*
X113030000Y-57150000D03*
D22*
X107950000Y-57150000D03*
D17*
X62865000Y-89535000D03*
D18*
X55245000Y-71755000D03*
X62865000Y-86995000D03*
X55245000Y-74295000D03*
X62865000Y-84455000D03*
X55245000Y-76835000D03*
X62865000Y-81915000D03*
X55245000Y-79375000D03*
X62865000Y-79375000D03*
X55245000Y-81915000D03*
X62865000Y-76835000D03*
X55245000Y-84455000D03*
X62865000Y-74295000D03*
X55245000Y-86995000D03*
X62865000Y-71755000D03*
X55245000Y-89535000D03*
D15*
X46355000Y-20320000D03*
D13*
X68580000Y-71755000D03*
D14*
X68580000Y-74295000D03*
X68580000Y-76835000D03*
X68580000Y-79375000D03*
X68580000Y-81915000D03*
X68580000Y-84455000D03*
X68580000Y-86995000D03*
X68580000Y-89535000D03*
M02*
