%TF.GenerationSoftware,KiCad,Pcbnew,4.0.7-e2-6376~61~ubuntu18.04.1*%
%TF.CreationDate,2021-08-08T20:36:29+02:00*%
%TF.ProjectId,core,636F72652E6B696361645F7063620000,rev?*%
%TF.FileFunction,Copper,L1,Top,Signal*%
%FSLAX46Y46*%
G04 Gerber Fmt 4.6, Leading zero omitted, Abs format (unit mm)*
G04 Created by KiCad (PCBNEW 4.0.7-e2-6376~61~ubuntu18.04.1) date Sun Aug  8 20:36:29 2021*
%MOMM*%
%LPD*%
G01*
G04 APERTURE LIST*
%ADD10C,0.150000*%
%ADD11O,1.500000X0.900000*%
%ADD12R,1.500000X0.900000*%
%ADD13R,1.700000X1.700000*%
%ADD14O,1.700000X1.700000*%
%ADD15C,6.400000*%
%ADD16C,1.600000*%
%ADD17R,1.600000X1.600000*%
%ADD18O,1.600000X1.600000*%
%ADD19O,0.900000X1.500000*%
%ADD20R,0.900000X1.500000*%
%ADD21C,1.400000*%
%ADD22O,1.400000X1.400000*%
%ADD23C,0.600000*%
%ADD24C,0.250000*%
%ADD25C,0.500000*%
G04 APERTURE END LIST*
D10*
X41440000Y-15405000D02*
X41440000Y-115405000D01*
X41440000Y-115405000D02*
X141440000Y-115405000D01*
X141440000Y-15405000D02*
X141440000Y-115405000D01*
X41440000Y-15405000D02*
X141440000Y-15405000D01*
D11*
X78105000Y-84455000D03*
X78105000Y-83185000D03*
D12*
X78105000Y-85725000D03*
D13*
X130810000Y-45720000D03*
D14*
X130810000Y-48260000D03*
X130810000Y-50800000D03*
X130810000Y-53340000D03*
X130810000Y-55880000D03*
X130810000Y-58420000D03*
X130810000Y-60960000D03*
X130810000Y-63500000D03*
D11*
X118745000Y-27940000D03*
X118745000Y-26670000D03*
D12*
X118745000Y-29210000D03*
D15*
X46355000Y-110490000D03*
X136525000Y-110490000D03*
X136525000Y-20320000D03*
D16*
X139620000Y-38100000D03*
X134620000Y-38100000D03*
D17*
X130175000Y-40005000D03*
D18*
X136525000Y-40005000D03*
D17*
X46355000Y-71755000D03*
D18*
X52705000Y-71755000D03*
D17*
X50800000Y-99695000D03*
D18*
X50800000Y-93345000D03*
D17*
X46355000Y-74295000D03*
D18*
X52705000Y-74295000D03*
D17*
X46355000Y-76835000D03*
D18*
X52705000Y-76835000D03*
D17*
X46355000Y-79375000D03*
D18*
X52705000Y-79375000D03*
D17*
X46355000Y-81915000D03*
D18*
X52705000Y-81915000D03*
D17*
X46355000Y-84455000D03*
D18*
X52705000Y-84455000D03*
D17*
X46355000Y-86995000D03*
D18*
X52705000Y-86995000D03*
D17*
X46355000Y-89535000D03*
D18*
X52705000Y-89535000D03*
D17*
X53340000Y-99695000D03*
D18*
X53340000Y-93345000D03*
D17*
X55880000Y-99695000D03*
D18*
X55880000Y-93345000D03*
D17*
X58420000Y-99695000D03*
D18*
X58420000Y-93345000D03*
D17*
X60960000Y-99695000D03*
D18*
X60960000Y-93345000D03*
D17*
X63500000Y-99695000D03*
D18*
X63500000Y-93345000D03*
D17*
X66040000Y-99695000D03*
D18*
X66040000Y-93345000D03*
D17*
X68580000Y-99695000D03*
D18*
X68580000Y-93345000D03*
D13*
X43815000Y-29210000D03*
D14*
X46355000Y-29210000D03*
D13*
X105410000Y-54610000D03*
X107950000Y-54610000D03*
X66040000Y-71755000D03*
D14*
X66040000Y-74295000D03*
X66040000Y-76835000D03*
X66040000Y-79375000D03*
X66040000Y-81915000D03*
X66040000Y-84455000D03*
X66040000Y-86995000D03*
X66040000Y-89535000D03*
D13*
X128905000Y-17780000D03*
X45720000Y-65405000D03*
X135890000Y-45720000D03*
D14*
X135890000Y-48260000D03*
X135890000Y-50800000D03*
X135890000Y-53340000D03*
X135890000Y-55880000D03*
X135890000Y-58420000D03*
X135890000Y-60960000D03*
X135890000Y-63500000D03*
D13*
X133350000Y-45720000D03*
D14*
X133350000Y-48260000D03*
X133350000Y-50800000D03*
X133350000Y-53340000D03*
X133350000Y-55880000D03*
X133350000Y-58420000D03*
X133350000Y-60960000D03*
X133350000Y-63500000D03*
D13*
X138430000Y-45720000D03*
D14*
X138430000Y-48260000D03*
X138430000Y-50800000D03*
X138430000Y-53340000D03*
X138430000Y-55880000D03*
X138430000Y-58420000D03*
X138430000Y-60960000D03*
X138430000Y-63500000D03*
D13*
X53975000Y-38100000D03*
D14*
X53975000Y-40640000D03*
X53975000Y-43180000D03*
X53975000Y-45720000D03*
X53975000Y-48260000D03*
X53975000Y-50800000D03*
X53975000Y-53340000D03*
X53975000Y-55880000D03*
D13*
X137795000Y-78105000D03*
X51435000Y-38100000D03*
D14*
X51435000Y-40640000D03*
X51435000Y-43180000D03*
X51435000Y-45720000D03*
X51435000Y-48260000D03*
X51435000Y-50800000D03*
X51435000Y-53340000D03*
X51435000Y-55880000D03*
D13*
X137795000Y-83185000D03*
X137795000Y-80645000D03*
X137795000Y-85725000D03*
X89535000Y-53975000D03*
X86995000Y-53975000D03*
X92075000Y-53975000D03*
X73660000Y-83820000D03*
X73660000Y-81280000D03*
X73660000Y-78740000D03*
X73660000Y-76200000D03*
X73660000Y-73660000D03*
D11*
X139065000Y-27940000D03*
X139065000Y-26670000D03*
D12*
X139065000Y-29210000D03*
D11*
X133985000Y-27940000D03*
X133985000Y-26670000D03*
D12*
X133985000Y-29210000D03*
D19*
X65405000Y-60325000D03*
X64135000Y-60325000D03*
D20*
X66675000Y-60325000D03*
D19*
X59690000Y-60325000D03*
X58420000Y-60325000D03*
D20*
X60960000Y-60325000D03*
D19*
X53975000Y-60325000D03*
X52705000Y-60325000D03*
D20*
X55245000Y-60325000D03*
D11*
X138430000Y-33655000D03*
X138430000Y-34925000D03*
D12*
X138430000Y-32385000D03*
D19*
X48260000Y-60325000D03*
X46990000Y-60325000D03*
D20*
X49530000Y-60325000D03*
D11*
X133985000Y-33655000D03*
X133985000Y-32385000D03*
D12*
X133985000Y-34925000D03*
D11*
X62865000Y-33655000D03*
X62865000Y-32385000D03*
D12*
X62865000Y-34925000D03*
D11*
X57785000Y-33655000D03*
X57785000Y-32385000D03*
D12*
X57785000Y-34925000D03*
D11*
X52705000Y-27940000D03*
X52705000Y-26670000D03*
D12*
X52705000Y-29210000D03*
D11*
X52705000Y-33655000D03*
X52705000Y-32385000D03*
D12*
X52705000Y-34925000D03*
D11*
X57785000Y-22225000D03*
X57785000Y-20955000D03*
D12*
X57785000Y-23495000D03*
D11*
X57785000Y-27940000D03*
X57785000Y-26670000D03*
D12*
X57785000Y-29210000D03*
D11*
X62865000Y-27940000D03*
X62865000Y-26670000D03*
D12*
X62865000Y-29210000D03*
D11*
X62865000Y-22225000D03*
X62865000Y-20955000D03*
D12*
X62865000Y-23495000D03*
D11*
X67945000Y-27940000D03*
X67945000Y-26670000D03*
D12*
X67945000Y-29210000D03*
D11*
X67945000Y-22225000D03*
X67945000Y-20955000D03*
D12*
X67945000Y-23495000D03*
D11*
X67945000Y-33655000D03*
X67945000Y-32385000D03*
D12*
X67945000Y-34925000D03*
D11*
X73025000Y-33655000D03*
X73025000Y-32385000D03*
D12*
X73025000Y-34925000D03*
D11*
X78105000Y-27940000D03*
X78105000Y-26670000D03*
D12*
X78105000Y-29210000D03*
D11*
X78105000Y-33655000D03*
X78105000Y-32385000D03*
D12*
X78105000Y-34925000D03*
D11*
X73025000Y-22225000D03*
X73025000Y-20955000D03*
D12*
X73025000Y-23495000D03*
D11*
X73025000Y-27940000D03*
X73025000Y-26670000D03*
D12*
X73025000Y-29210000D03*
D11*
X83185000Y-33655000D03*
X83185000Y-32385000D03*
D12*
X83185000Y-34925000D03*
D11*
X88265000Y-33655000D03*
X88265000Y-32385000D03*
D12*
X88265000Y-34925000D03*
D11*
X83185000Y-22225000D03*
X83185000Y-20955000D03*
D12*
X83185000Y-23495000D03*
D11*
X83185000Y-27940000D03*
X83185000Y-26670000D03*
D12*
X83185000Y-29210000D03*
D11*
X88265000Y-27940000D03*
X88265000Y-26670000D03*
D12*
X88265000Y-29210000D03*
D11*
X88265000Y-22225000D03*
X88265000Y-20955000D03*
D12*
X88265000Y-23495000D03*
D11*
X93345000Y-27940000D03*
X93345000Y-26670000D03*
D12*
X93345000Y-29210000D03*
D11*
X93345000Y-22225000D03*
X93345000Y-20955000D03*
D12*
X93345000Y-23495000D03*
D11*
X98425000Y-33655000D03*
X98425000Y-32385000D03*
D12*
X98425000Y-34925000D03*
D11*
X93345000Y-33655000D03*
X93345000Y-32385000D03*
D12*
X93345000Y-34925000D03*
D11*
X98425000Y-22225000D03*
X98425000Y-20955000D03*
D12*
X98425000Y-23495000D03*
D11*
X98425000Y-27940000D03*
X98425000Y-26670000D03*
D12*
X98425000Y-29210000D03*
D11*
X103505000Y-33655000D03*
X103505000Y-32385000D03*
D12*
X103505000Y-34925000D03*
D11*
X108585000Y-33655000D03*
X108585000Y-32385000D03*
D12*
X108585000Y-34925000D03*
D11*
X103505000Y-22225000D03*
X103505000Y-20955000D03*
D12*
X103505000Y-23495000D03*
D11*
X103505000Y-27940000D03*
X103505000Y-26670000D03*
D12*
X103505000Y-29210000D03*
D11*
X108585000Y-27940000D03*
X108585000Y-26670000D03*
D12*
X108585000Y-29210000D03*
D11*
X108585000Y-22225000D03*
X108585000Y-20955000D03*
D12*
X108585000Y-23495000D03*
D11*
X113665000Y-27940000D03*
X113665000Y-26670000D03*
D12*
X113665000Y-29210000D03*
D11*
X113665000Y-22225000D03*
X113665000Y-20955000D03*
D12*
X113665000Y-23495000D03*
D11*
X118745000Y-33655000D03*
X118745000Y-32385000D03*
D12*
X118745000Y-34925000D03*
D11*
X113665000Y-33655000D03*
X113665000Y-32385000D03*
D12*
X113665000Y-34925000D03*
D11*
X118745000Y-22225000D03*
X118745000Y-20955000D03*
D12*
X118745000Y-23495000D03*
D11*
X123825000Y-22225000D03*
X123825000Y-20955000D03*
D12*
X123825000Y-23495000D03*
D11*
X123825000Y-27940000D03*
X123825000Y-26670000D03*
D12*
X123825000Y-29210000D03*
D11*
X123825000Y-33655000D03*
X123825000Y-32385000D03*
D12*
X123825000Y-34925000D03*
D11*
X128905000Y-33655000D03*
X128905000Y-32385000D03*
D12*
X128905000Y-34925000D03*
D11*
X128905000Y-22225000D03*
X128905000Y-20955000D03*
D12*
X128905000Y-23495000D03*
D11*
X128905000Y-27940000D03*
X128905000Y-26670000D03*
D12*
X128905000Y-29210000D03*
D11*
X128270000Y-95885000D03*
X128270000Y-94615000D03*
D12*
X128270000Y-97155000D03*
D11*
X123190000Y-95885000D03*
X123190000Y-94615000D03*
D12*
X123190000Y-97155000D03*
D11*
X128270000Y-73025000D03*
X128270000Y-71755000D03*
D12*
X128270000Y-74295000D03*
D11*
X128270000Y-90170000D03*
X128270000Y-88900000D03*
D12*
X128270000Y-91440000D03*
D11*
X123190000Y-90170000D03*
X123190000Y-88900000D03*
D12*
X123190000Y-91440000D03*
D11*
X123190000Y-101600000D03*
X123190000Y-100330000D03*
D12*
X123190000Y-102870000D03*
D11*
X128270000Y-78740000D03*
X128270000Y-77470000D03*
D12*
X128270000Y-80010000D03*
D11*
X128270000Y-84455000D03*
X128270000Y-83185000D03*
D12*
X128270000Y-85725000D03*
D11*
X123190000Y-73025000D03*
X123190000Y-71755000D03*
D12*
X123190000Y-74295000D03*
D11*
X123190000Y-78740000D03*
X123190000Y-77470000D03*
D12*
X123190000Y-80010000D03*
D11*
X123190000Y-84455000D03*
X123190000Y-83185000D03*
D12*
X123190000Y-85725000D03*
D11*
X78105000Y-95885000D03*
X78105000Y-94615000D03*
D12*
X78105000Y-97155000D03*
D11*
X88265000Y-67310000D03*
X88265000Y-66040000D03*
D12*
X88265000Y-68580000D03*
D11*
X78105000Y-90170000D03*
X78105000Y-88900000D03*
D12*
X78105000Y-91440000D03*
D11*
X83185000Y-95885000D03*
X83185000Y-94615000D03*
D12*
X83185000Y-97155000D03*
D11*
X78105000Y-101600000D03*
X78105000Y-100330000D03*
D12*
X78105000Y-102870000D03*
D11*
X88265000Y-73025000D03*
X88265000Y-71755000D03*
D12*
X88265000Y-74295000D03*
D11*
X83185000Y-90170000D03*
X83185000Y-88900000D03*
D12*
X83185000Y-91440000D03*
D11*
X88265000Y-78740000D03*
X88265000Y-77470000D03*
D12*
X88265000Y-80010000D03*
D11*
X78105000Y-78740000D03*
X78105000Y-77470000D03*
D12*
X78105000Y-80010000D03*
D11*
X83185000Y-84455000D03*
X83185000Y-83185000D03*
D12*
X83185000Y-85725000D03*
D11*
X83185000Y-101600000D03*
X83185000Y-100330000D03*
D12*
X83185000Y-102870000D03*
D11*
X83185000Y-107315000D03*
X83185000Y-106045000D03*
D12*
X83185000Y-108585000D03*
D11*
X88265000Y-84455000D03*
X88265000Y-83185000D03*
D12*
X88265000Y-85725000D03*
D11*
X78105000Y-73025000D03*
X78105000Y-71755000D03*
D12*
X78105000Y-74295000D03*
D11*
X83185000Y-78740000D03*
X83185000Y-77470000D03*
D12*
X83185000Y-80010000D03*
D11*
X83185000Y-67310000D03*
X83185000Y-66040000D03*
D12*
X83185000Y-68580000D03*
D11*
X83185000Y-61595000D03*
X83185000Y-60325000D03*
D12*
X83185000Y-62865000D03*
D11*
X88265000Y-101600000D03*
X88265000Y-100330000D03*
D12*
X88265000Y-102870000D03*
D11*
X88265000Y-107315000D03*
X88265000Y-106045000D03*
D12*
X88265000Y-108585000D03*
D11*
X78105000Y-67310000D03*
X78105000Y-66040000D03*
D12*
X78105000Y-68580000D03*
D11*
X83185000Y-73025000D03*
X83185000Y-71755000D03*
D12*
X83185000Y-74295000D03*
D11*
X88265000Y-90170000D03*
X88265000Y-88900000D03*
D12*
X88265000Y-91440000D03*
D11*
X88265000Y-95885000D03*
X88265000Y-94615000D03*
D12*
X88265000Y-97155000D03*
D11*
X78105000Y-61595000D03*
X78105000Y-60325000D03*
D12*
X78105000Y-62865000D03*
D11*
X78105000Y-107315000D03*
X78105000Y-106045000D03*
D12*
X78105000Y-108585000D03*
D11*
X88265000Y-61595000D03*
X88265000Y-60325000D03*
D12*
X88265000Y-62865000D03*
D11*
X98425000Y-90170000D03*
X98425000Y-88900000D03*
D12*
X98425000Y-91440000D03*
D11*
X98425000Y-101600000D03*
X98425000Y-100330000D03*
D12*
X98425000Y-102870000D03*
D11*
X98425000Y-107315000D03*
X98425000Y-106045000D03*
D12*
X98425000Y-108585000D03*
D11*
X103505000Y-101600000D03*
X103505000Y-100330000D03*
D12*
X103505000Y-102870000D03*
D11*
X103505000Y-107315000D03*
X103505000Y-106045000D03*
D12*
X103505000Y-108585000D03*
D11*
X98425000Y-78740000D03*
X98425000Y-77470000D03*
D12*
X98425000Y-80010000D03*
D11*
X98425000Y-84455000D03*
X98425000Y-83185000D03*
D12*
X98425000Y-85725000D03*
D11*
X98425000Y-95885000D03*
X98425000Y-94615000D03*
D12*
X98425000Y-97155000D03*
D11*
X98425000Y-73025000D03*
X98425000Y-71755000D03*
D12*
X98425000Y-74295000D03*
D11*
X93345000Y-101600000D03*
X93345000Y-100330000D03*
D12*
X93345000Y-102870000D03*
D11*
X93345000Y-107315000D03*
X93345000Y-106045000D03*
D12*
X93345000Y-108585000D03*
D11*
X93345000Y-84455000D03*
X93345000Y-83185000D03*
D12*
X93345000Y-85725000D03*
D11*
X98425000Y-61595000D03*
X98425000Y-60325000D03*
D12*
X98425000Y-62865000D03*
D11*
X98425000Y-67310000D03*
X98425000Y-66040000D03*
D12*
X98425000Y-68580000D03*
D11*
X93345000Y-78740000D03*
X93345000Y-77470000D03*
D12*
X93345000Y-80010000D03*
D11*
X93345000Y-95885000D03*
X93345000Y-94615000D03*
D12*
X93345000Y-97155000D03*
D11*
X93345000Y-90170000D03*
X93345000Y-88900000D03*
D12*
X93345000Y-91440000D03*
D11*
X93345000Y-73025000D03*
X93345000Y-71755000D03*
D12*
X93345000Y-74295000D03*
D11*
X93345000Y-61595000D03*
X93345000Y-60325000D03*
D12*
X93345000Y-62865000D03*
D11*
X93345000Y-67310000D03*
X93345000Y-66040000D03*
D12*
X93345000Y-68580000D03*
D11*
X103505000Y-78740000D03*
X103505000Y-77470000D03*
D12*
X103505000Y-80010000D03*
D11*
X113665000Y-90170000D03*
X113665000Y-88900000D03*
D12*
X113665000Y-91440000D03*
D11*
X103505000Y-73025000D03*
X103505000Y-71755000D03*
D12*
X103505000Y-74295000D03*
D11*
X113665000Y-101600000D03*
X113665000Y-100330000D03*
D12*
X113665000Y-102870000D03*
D11*
X103505000Y-61595000D03*
X103505000Y-60325000D03*
D12*
X103505000Y-62865000D03*
D11*
X103505000Y-67310000D03*
X103505000Y-66040000D03*
D12*
X103505000Y-68580000D03*
D11*
X103505000Y-90170000D03*
X103505000Y-88900000D03*
D12*
X103505000Y-91440000D03*
D11*
X103505000Y-95885000D03*
X103505000Y-94615000D03*
D12*
X103505000Y-97155000D03*
D11*
X113665000Y-95885000D03*
X113665000Y-94615000D03*
D12*
X113665000Y-97155000D03*
D11*
X108585000Y-73025000D03*
X108585000Y-71755000D03*
D12*
X108585000Y-74295000D03*
D11*
X108585000Y-90170000D03*
X108585000Y-88900000D03*
D12*
X108585000Y-91440000D03*
D11*
X103505000Y-84455000D03*
X103505000Y-83185000D03*
D12*
X103505000Y-85725000D03*
D11*
X113665000Y-61595000D03*
X113665000Y-60325000D03*
D12*
X113665000Y-62865000D03*
D11*
X113665000Y-73025000D03*
X113665000Y-71755000D03*
D12*
X113665000Y-74295000D03*
D11*
X108585000Y-61595000D03*
X108585000Y-60325000D03*
D12*
X108585000Y-62865000D03*
D11*
X113665000Y-67310000D03*
X113665000Y-66040000D03*
D12*
X113665000Y-68580000D03*
D11*
X108585000Y-67310000D03*
X108585000Y-66040000D03*
D12*
X108585000Y-68580000D03*
D11*
X113665000Y-78740000D03*
X113665000Y-77470000D03*
D12*
X113665000Y-80010000D03*
D11*
X113665000Y-84455000D03*
X113665000Y-83185000D03*
D12*
X113665000Y-85725000D03*
D11*
X108585000Y-78740000D03*
X108585000Y-77470000D03*
D12*
X108585000Y-80010000D03*
D11*
X108585000Y-84455000D03*
X108585000Y-83185000D03*
D12*
X108585000Y-85725000D03*
D11*
X46990000Y-97790000D03*
X46990000Y-96520000D03*
D12*
X46990000Y-99060000D03*
D11*
X51435000Y-66040000D03*
X51435000Y-67310000D03*
D12*
X51435000Y-64770000D03*
D11*
X56515000Y-66040000D03*
X56515000Y-67310000D03*
D12*
X56515000Y-64770000D03*
D11*
X61595000Y-66040000D03*
X61595000Y-67310000D03*
D12*
X61595000Y-64770000D03*
D11*
X66675000Y-66040000D03*
X66675000Y-67310000D03*
D12*
X66675000Y-64770000D03*
D11*
X46990000Y-103505000D03*
X46990000Y-102235000D03*
D12*
X46990000Y-104775000D03*
D11*
X52070000Y-103505000D03*
X52070000Y-102235000D03*
D12*
X52070000Y-104775000D03*
D11*
X57150000Y-103505000D03*
X57150000Y-102235000D03*
D12*
X57150000Y-104775000D03*
D11*
X62230000Y-103505000D03*
X62230000Y-102235000D03*
D12*
X62230000Y-104775000D03*
D11*
X62230000Y-109220000D03*
X62230000Y-107950000D03*
D12*
X62230000Y-110490000D03*
D11*
X67310000Y-109220000D03*
X67310000Y-107950000D03*
D12*
X67310000Y-110490000D03*
D11*
X67310000Y-103505000D03*
X67310000Y-102235000D03*
D12*
X67310000Y-104775000D03*
D21*
X118745000Y-18415000D03*
D22*
X123825000Y-18415000D03*
D21*
X43815000Y-33020000D03*
D22*
X48895000Y-33020000D03*
D21*
X134620000Y-41910000D03*
D22*
X139700000Y-41910000D03*
D21*
X127635000Y-38100000D03*
D22*
X132715000Y-38100000D03*
D21*
X127635000Y-41910000D03*
D22*
X132715000Y-41910000D03*
D21*
X43815000Y-35560000D03*
D22*
X48895000Y-35560000D03*
D21*
X43815000Y-38100000D03*
D22*
X48895000Y-38100000D03*
D21*
X58420000Y-18415000D03*
D22*
X63500000Y-18415000D03*
D21*
X43815000Y-48260000D03*
D22*
X48895000Y-48260000D03*
D21*
X71120000Y-18415000D03*
D22*
X66040000Y-18415000D03*
D21*
X43815000Y-40640000D03*
D22*
X48895000Y-40640000D03*
D21*
X83820000Y-18415000D03*
D22*
X88900000Y-18415000D03*
D21*
X43815000Y-50800000D03*
D22*
X48895000Y-50800000D03*
D21*
X96520000Y-18415000D03*
D22*
X91440000Y-18415000D03*
D21*
X43815000Y-43180000D03*
D22*
X48895000Y-43180000D03*
D21*
X104140000Y-18415000D03*
D22*
X109220000Y-18415000D03*
D21*
X43815000Y-53340000D03*
D22*
X48895000Y-53340000D03*
D21*
X116840000Y-18415000D03*
D22*
X111760000Y-18415000D03*
D21*
X43815000Y-45720000D03*
D22*
X48895000Y-45720000D03*
D21*
X43815000Y-55880000D03*
D22*
X48895000Y-55880000D03*
D21*
X137795000Y-72390000D03*
D22*
X132715000Y-72390000D03*
D21*
X73660000Y-93345000D03*
D22*
X73660000Y-88265000D03*
D21*
X73660000Y-108585000D03*
D22*
X73660000Y-103505000D03*
D21*
X73660000Y-95885000D03*
D22*
X73660000Y-100965000D03*
D21*
X73660000Y-70485000D03*
D22*
X73660000Y-65405000D03*
D21*
X90805000Y-111125000D03*
D22*
X95885000Y-111125000D03*
D21*
X90805000Y-57150000D03*
D22*
X95885000Y-57150000D03*
D21*
X81280000Y-57150000D03*
D22*
X76200000Y-57150000D03*
D21*
X83185000Y-57150000D03*
D22*
X88265000Y-57150000D03*
D21*
X100330000Y-57150000D03*
D22*
X105410000Y-57150000D03*
D21*
X113030000Y-57150000D03*
D22*
X107950000Y-57150000D03*
D17*
X62865000Y-89535000D03*
D18*
X55245000Y-71755000D03*
X62865000Y-86995000D03*
X55245000Y-74295000D03*
X62865000Y-84455000D03*
X55245000Y-76835000D03*
X62865000Y-81915000D03*
X55245000Y-79375000D03*
X62865000Y-79375000D03*
X55245000Y-81915000D03*
X62865000Y-76835000D03*
X55245000Y-84455000D03*
X62865000Y-74295000D03*
X55245000Y-86995000D03*
X62865000Y-71755000D03*
X55245000Y-89535000D03*
D15*
X46355000Y-20320000D03*
D13*
X68580000Y-71755000D03*
D14*
X68580000Y-74295000D03*
X68580000Y-76835000D03*
X68580000Y-79375000D03*
X68580000Y-81915000D03*
X68580000Y-84455000D03*
X68580000Y-86995000D03*
X68580000Y-89535000D03*
D23*
X118745000Y-42545705D03*
X118745000Y-52705000D03*
X121285000Y-81280000D03*
X98425000Y-42545705D03*
X79375000Y-42545000D03*
X120015000Y-43817115D03*
X120015000Y-52705000D03*
X74930000Y-43815000D03*
X80645705Y-61595705D03*
X119380000Y-45085000D03*
X119380000Y-52070000D03*
X110490000Y-45085000D03*
X78740000Y-45085000D03*
X117475000Y-61595000D03*
X109855000Y-46356410D03*
X99060000Y-46356410D03*
X116840000Y-47625000D03*
X116840000Y-52070000D03*
X120650000Y-95885000D03*
X111125000Y-47627820D03*
X83820000Y-47625000D03*
X69850000Y-101600000D03*
X106680000Y-48895000D03*
X106045000Y-90170000D03*
X72390000Y-107315000D03*
X73660000Y-50165000D03*
X73660000Y-57150000D03*
X74930000Y-64135000D03*
X75565000Y-66040000D03*
X72390000Y-98425000D03*
X102870000Y-51435000D03*
X102870000Y-54610000D03*
X102870000Y-64770000D03*
X85090000Y-51435000D03*
X109220000Y-41910000D03*
X78105000Y-41910000D03*
X68580000Y-41910000D03*
X68580000Y-68580000D03*
X111760000Y-43181410D03*
X97155000Y-43181410D03*
X74295000Y-43181410D03*
X79375000Y-64135000D03*
X67945000Y-43181410D03*
X67945000Y-67945000D03*
X114935000Y-44452820D03*
X112395000Y-62230000D03*
X96520000Y-44452820D03*
X95885000Y-78740000D03*
X77470000Y-44452820D03*
X80010000Y-78740000D03*
X80010000Y-90170000D03*
X80010000Y-95885000D03*
X67945000Y-69850000D03*
X69215000Y-44452820D03*
X48094987Y-95250000D03*
X118110000Y-45720705D03*
X118110000Y-52070000D03*
X121920000Y-81915000D03*
X124460000Y-81915000D03*
X83185000Y-45720705D03*
X69850000Y-45720705D03*
X61595000Y-70485000D03*
X48895000Y-95885000D03*
X114300000Y-46992115D03*
X111760000Y-73025000D03*
X99695000Y-46990000D03*
X101600000Y-67310000D03*
X112395000Y-48263525D03*
X112395000Y-53340000D03*
X115570000Y-95885000D03*
X103505000Y-48263525D03*
X103505000Y-53975000D03*
X84455000Y-48263525D03*
X70485000Y-48263525D03*
X70485000Y-63500000D03*
X80010000Y-49530000D03*
X106045000Y-59690000D03*
X101600000Y-50800000D03*
X101600000Y-53340000D03*
X124460000Y-36830000D03*
X124460000Y-59690000D03*
X91440000Y-62230000D03*
X93980000Y-36830000D03*
X64770000Y-36830000D03*
X95885000Y-37465000D03*
X81280000Y-37465000D03*
X71120000Y-38100000D03*
X71120000Y-49530000D03*
X123190000Y-38100000D03*
X123190000Y-60960000D03*
X95250000Y-38100000D03*
X101600000Y-38100000D03*
X123825000Y-38735000D03*
X123825000Y-60325000D03*
X94615000Y-38735000D03*
X121285000Y-38735000D03*
X99695000Y-89535000D03*
X100330000Y-88265000D03*
X99695000Y-70485000D03*
X97790000Y-39370000D03*
X58420000Y-54610000D03*
X66040000Y-39370000D03*
X81915000Y-40005000D03*
X81915000Y-55245000D03*
X92075000Y-56515000D03*
X90170000Y-60960000D03*
X90170000Y-88265000D03*
X90170000Y-91440000D03*
X57150000Y-55245000D03*
X100330000Y-40005000D03*
X98425000Y-40640000D03*
X102235000Y-66675000D03*
X55880000Y-55880000D03*
X120650000Y-40640000D03*
X120650000Y-98425000D03*
X109855000Y-81915000D03*
X104140000Y-41275000D03*
X93345000Y-41275000D03*
X90805000Y-61595000D03*
X90805000Y-89535000D03*
X90805000Y-90805000D03*
X121920000Y-41275000D03*
X94615000Y-71120000D03*
X94615000Y-66675000D03*
X86995000Y-58420000D03*
X92075000Y-67945000D03*
X52070000Y-30480000D03*
X55245000Y-30480000D03*
X53975000Y-17145000D03*
X53975000Y-19685000D03*
X60960000Y-20320000D03*
X60960000Y-21590000D03*
X64135000Y-26035000D03*
X64135000Y-27305000D03*
X102235000Y-17145000D03*
X96520000Y-23495000D03*
X78105000Y-22860000D03*
X78740000Y-30480000D03*
X74930000Y-30480000D03*
X71120000Y-25400000D03*
X69850000Y-25400000D03*
X85090000Y-31115000D03*
X86360000Y-31115000D03*
X78740000Y-19685000D03*
X76200000Y-21590000D03*
X74930000Y-22860000D03*
X74930000Y-29210000D03*
X73660000Y-31115000D03*
X85725000Y-21590000D03*
X82550000Y-24765000D03*
X81280000Y-28575000D03*
X74930000Y-31280003D03*
X105410000Y-31115000D03*
X106680000Y-31115000D03*
X96520000Y-88900000D03*
X105410000Y-88900000D03*
X111125000Y-85725000D03*
X111125000Y-78105000D03*
D24*
X123825000Y-18415000D02*
X125730000Y-16510000D01*
X130810000Y-16510000D02*
X132080000Y-17780000D01*
X133985000Y-24765000D02*
X138430000Y-24765000D01*
X125730000Y-16510000D02*
X130810000Y-16510000D01*
X132080000Y-17780000D02*
X132080000Y-22860000D01*
X132080000Y-22860000D02*
X133985000Y-24765000D01*
X138430000Y-24765000D02*
X139065000Y-25400000D01*
X139065000Y-25400000D02*
X139065000Y-26670000D01*
X139620000Y-38100000D02*
X140419999Y-37300001D01*
X140419999Y-37300001D02*
X140419999Y-27724999D01*
X140419999Y-27724999D02*
X139365000Y-26670000D01*
X139365000Y-26670000D02*
X139065000Y-26670000D01*
X132080000Y-40005000D02*
X130175000Y-40005000D01*
X132715000Y-39370000D02*
X132080000Y-40005000D01*
X132715000Y-38100000D02*
X132715000Y-39370000D01*
X134620000Y-38100000D02*
X134620000Y-41910000D01*
X132715000Y-38100000D02*
X134620000Y-38100000D01*
D25*
X93345000Y-68580000D02*
X98425000Y-68580000D01*
X83185000Y-62865000D02*
X88265000Y-62865000D01*
D24*
X46355000Y-71755000D02*
X46355000Y-70705000D01*
X46355000Y-70705000D02*
X49750000Y-67310000D01*
X49750000Y-67310000D02*
X50435000Y-67310000D01*
X50435000Y-67310000D02*
X51435000Y-67310000D01*
X46355000Y-74295000D02*
X46355000Y-73245000D01*
X46355000Y-73245000D02*
X46355000Y-71755000D01*
X46355000Y-76835000D02*
X46355000Y-74295000D01*
X46355000Y-79375000D02*
X46355000Y-76835000D01*
X46355000Y-81915000D02*
X46355000Y-79375000D01*
X46355000Y-84455000D02*
X46355000Y-83405000D01*
X46355000Y-83405000D02*
X46355000Y-81915000D01*
X46355000Y-86995000D02*
X46355000Y-85945000D01*
X46355000Y-85945000D02*
X46355000Y-84455000D01*
X46355000Y-89535000D02*
X46355000Y-88485000D01*
X46355000Y-88485000D02*
X46355000Y-86995000D01*
X52705000Y-71755000D02*
X55245000Y-71755000D01*
X46990000Y-96520000D02*
X48675000Y-96520000D01*
X48675000Y-96520000D02*
X50800000Y-98645000D01*
X50800000Y-98645000D02*
X50800000Y-99695000D01*
X55245000Y-74295000D02*
X54113630Y-74295000D01*
X54113630Y-74295000D02*
X52705000Y-74295000D01*
X52705000Y-76835000D02*
X55245000Y-76835000D01*
X55245000Y-79375000D02*
X52705000Y-79375000D01*
X52705000Y-81915000D02*
X55245000Y-81915000D01*
X52705000Y-84455000D02*
X55245000Y-84455000D01*
X52705000Y-86995000D02*
X55245000Y-86995000D01*
X52705000Y-89535000D02*
X55245000Y-89535000D01*
X59690000Y-85090000D02*
X62865000Y-81915000D01*
X59690000Y-90805000D02*
X59690000Y-85090000D01*
X60960000Y-92075000D02*
X59690000Y-90805000D01*
X60960000Y-93345000D02*
X60960000Y-92075000D01*
X66040000Y-81915000D02*
X68580000Y-81915000D01*
X62865000Y-81915000D02*
X66040000Y-81915000D01*
X63500000Y-93345000D02*
X63500000Y-92075000D01*
X63500000Y-92075000D02*
X62865000Y-91440000D01*
X62865000Y-91440000D02*
X61593590Y-91440000D01*
X60325000Y-86995000D02*
X62865000Y-84455000D01*
X61593590Y-91440000D02*
X60325000Y-90171410D01*
X60325000Y-90171410D02*
X60325000Y-86995000D01*
X66040000Y-84455000D02*
X62865000Y-84455000D01*
X68580000Y-84455000D02*
X67377919Y-84455000D01*
X67377919Y-84455000D02*
X66040000Y-84455000D01*
X60960000Y-87630000D02*
X61595000Y-86995000D01*
X61595000Y-86995000D02*
X62865000Y-86995000D01*
X60960000Y-90170000D02*
X60960000Y-87630000D01*
X61595000Y-90805000D02*
X60960000Y-90170000D01*
X65405000Y-90805000D02*
X61595000Y-90805000D01*
X66040000Y-91440000D02*
X65405000Y-90805000D01*
X66040000Y-93345000D02*
X66040000Y-91440000D01*
X66040000Y-86995000D02*
X68580000Y-86995000D01*
X62865000Y-86995000D02*
X66040000Y-86995000D01*
X68580000Y-89535000D02*
X68580000Y-93345000D01*
X62865000Y-89535000D02*
X66040000Y-89535000D01*
X68580000Y-89535000D02*
X66040000Y-89535000D01*
D25*
X140335000Y-44450000D02*
X140335000Y-72390000D01*
X140335000Y-72390000D02*
X140335000Y-100330000D01*
X137795000Y-72390000D02*
X140335000Y-72390000D01*
X127635000Y-41910000D02*
X127635000Y-42899949D01*
X127635000Y-42899949D02*
X128550051Y-43815000D01*
X128550051Y-43815000D02*
X139700000Y-43815000D01*
X139700000Y-43815000D02*
X140335000Y-44450000D01*
X92075000Y-112395000D02*
X90805000Y-111125000D01*
X140335000Y-100330000D02*
X128270000Y-112395000D01*
X128270000Y-112395000D02*
X92075000Y-112395000D01*
X108585000Y-52705000D02*
X110490000Y-52705000D01*
X107950000Y-52070000D02*
X108585000Y-52705000D01*
X104775000Y-52070000D02*
X107950000Y-52070000D01*
X102235000Y-52705000D02*
X104140000Y-52705000D01*
X104140000Y-52705000D02*
X104775000Y-52070000D01*
X100965000Y-52070000D02*
X101600000Y-52070000D01*
X101600000Y-52070000D02*
X102235000Y-52705000D01*
X110490000Y-52705000D02*
X113030000Y-55245000D01*
X113030000Y-55245000D02*
X113030000Y-57150000D01*
X100330000Y-52070000D02*
X100965000Y-52070000D01*
X99695000Y-52070000D02*
X100330000Y-52070000D01*
X100330000Y-52070000D02*
X100330000Y-52705000D01*
X99695000Y-52070000D02*
X85565002Y-52070000D01*
X85565002Y-52070000D02*
X83140003Y-54494999D01*
X83140003Y-54494999D02*
X81395001Y-54494999D01*
X81395001Y-54494999D02*
X80010000Y-55880000D01*
X100330000Y-52705000D02*
X99695000Y-52070000D01*
X100330000Y-52705000D02*
X100965000Y-52070000D01*
X100330000Y-57150000D02*
X100330000Y-52705000D01*
X71120000Y-112395000D02*
X89535000Y-112395000D01*
X89535000Y-112395000D02*
X90805000Y-111125000D01*
X70485000Y-111760000D02*
X71120000Y-112395000D01*
X73025000Y-105410000D02*
X70485000Y-107950000D01*
X54610000Y-112395000D02*
X48260000Y-106045000D01*
X70485000Y-107950000D02*
X70485000Y-111760000D01*
X70485000Y-111760000D02*
X69850000Y-112395000D01*
X43180000Y-56515000D02*
X43815000Y-55880000D01*
X69850000Y-112395000D02*
X54610000Y-112395000D01*
X48260000Y-106045000D02*
X43815000Y-106045000D01*
X43815000Y-106045000D02*
X43180000Y-105410000D01*
X43180000Y-105410000D02*
X43180000Y-56515000D01*
X73025000Y-105410000D02*
X72390000Y-104775000D01*
X73660000Y-106045000D02*
X73025000Y-105410000D01*
X81280000Y-57150000D02*
X80010000Y-55880000D01*
X80010000Y-55880000D02*
X73025000Y-55880000D01*
X73025000Y-55880000D02*
X72390000Y-56515000D01*
X72390000Y-69215000D02*
X73660000Y-70485000D01*
X72390000Y-56515000D02*
X72390000Y-69215000D01*
X84455000Y-55880000D02*
X89535000Y-55880000D01*
X89535000Y-55880000D02*
X90805000Y-57150000D01*
X83185000Y-57150000D02*
X84455000Y-55880000D01*
X81280000Y-57150000D02*
X83185000Y-57150000D01*
X72390000Y-100330000D02*
X73660000Y-99060000D01*
X73660000Y-99060000D02*
X73660000Y-95885000D01*
X72390000Y-104775000D02*
X72390000Y-100330000D01*
X73660000Y-108585000D02*
X73660000Y-106045000D01*
X73660000Y-93345000D02*
X73660000Y-95885000D01*
X116840000Y-18415000D02*
X118745000Y-18415000D01*
X43815000Y-29210000D02*
X43815000Y-33020000D01*
X43815000Y-35560000D02*
X43815000Y-33020000D01*
X43815000Y-38100000D02*
X43815000Y-35560000D01*
X43815000Y-53340000D02*
X43815000Y-55880000D01*
X43815000Y-50800000D02*
X43815000Y-53340000D01*
X43815000Y-48260000D02*
X43815000Y-50800000D01*
X43815000Y-45720000D02*
X43815000Y-48260000D01*
X43815000Y-43180000D02*
X43815000Y-45720000D01*
X43815000Y-40640000D02*
X43815000Y-43180000D01*
X43815000Y-38100000D02*
X43815000Y-40640000D01*
X53975000Y-18415000D02*
X43815000Y-28575000D01*
X43815000Y-28575000D02*
X43815000Y-29210000D01*
X58420000Y-18415000D02*
X53975000Y-18415000D01*
X104140000Y-18415000D02*
X105410000Y-17145000D01*
X105410000Y-17145000D02*
X115570000Y-17145000D01*
X115570000Y-17145000D02*
X116840000Y-18415000D01*
X96520000Y-18415000D02*
X104140000Y-18415000D01*
X83820000Y-18415000D02*
X85090000Y-17145000D01*
X85090000Y-17145000D02*
X95250000Y-17145000D01*
X95250000Y-17145000D02*
X96520000Y-18415000D01*
X71120000Y-18415000D02*
X83820000Y-18415000D01*
X58420000Y-18415000D02*
X59690000Y-17145000D01*
X59690000Y-17145000D02*
X69850000Y-17145000D01*
X69850000Y-17145000D02*
X71120000Y-18415000D01*
D24*
X105410000Y-77470000D02*
X108585000Y-77470000D01*
X104505000Y-77470000D02*
X105410000Y-77470000D01*
X105410000Y-77470000D02*
X105045000Y-77470000D01*
X105045000Y-77470000D02*
X104775000Y-77200000D01*
X104775000Y-71485000D02*
X104775000Y-71755000D01*
X104775000Y-71755000D02*
X104775000Y-72025000D01*
X108585000Y-71755000D02*
X104775000Y-71755000D01*
X104775000Y-71485000D02*
X104775000Y-66040000D01*
X104775000Y-66040000D02*
X104775000Y-60595000D01*
X108585000Y-66040000D02*
X104775000Y-66040000D01*
X105410000Y-60325000D02*
X108585000Y-60325000D01*
X103505000Y-60325000D02*
X105410000Y-60325000D01*
X105410000Y-60325000D02*
X105045000Y-60325000D01*
X105045000Y-60325000D02*
X104775000Y-60595000D01*
X103505000Y-60325000D02*
X103505000Y-59055000D01*
X103505000Y-59055000D02*
X105410000Y-57150000D01*
X105410000Y-54610000D02*
X105410000Y-55710000D01*
X105410000Y-55710000D02*
X105410000Y-57150000D01*
X104505000Y-71755000D02*
X104775000Y-71485000D01*
X104775000Y-60595000D02*
X104505000Y-60325000D01*
X104505000Y-60325000D02*
X103505000Y-60325000D01*
X103505000Y-77470000D02*
X104505000Y-77470000D01*
X104505000Y-77470000D02*
X104775000Y-77200000D01*
X104775000Y-77200000D02*
X104775000Y-72025000D01*
X104775000Y-72025000D02*
X104505000Y-71755000D01*
X104505000Y-71755000D02*
X103505000Y-71755000D01*
X114935000Y-65770000D02*
X114935000Y-66310000D01*
X114935000Y-77200000D02*
X114935000Y-77740000D01*
X114935000Y-89170000D02*
X114935000Y-88630000D01*
X114935000Y-94885000D02*
X114935000Y-94345000D01*
X114665000Y-94615000D02*
X114935000Y-94885000D01*
X114935000Y-94885000D02*
X114935000Y-100060000D01*
X114935000Y-100060000D02*
X114665000Y-100330000D01*
X114665000Y-100330000D02*
X113665000Y-100330000D01*
X114665000Y-88900000D02*
X114935000Y-89170000D01*
X114935000Y-89170000D02*
X114935000Y-94345000D01*
X114935000Y-94345000D02*
X114665000Y-94615000D01*
X114665000Y-94615000D02*
X113665000Y-94615000D01*
X114665000Y-77470000D02*
X114935000Y-77740000D01*
X114935000Y-77740000D02*
X114935000Y-88630000D01*
X114935000Y-88630000D02*
X114665000Y-88900000D01*
X114665000Y-88900000D02*
X113665000Y-88900000D01*
X114665000Y-66040000D02*
X114935000Y-66310000D01*
X114935000Y-66310000D02*
X114935000Y-77200000D01*
X114935000Y-77200000D02*
X114665000Y-77470000D01*
X114665000Y-77470000D02*
X113665000Y-77470000D01*
X113665000Y-60325000D02*
X114665000Y-60325000D01*
X114665000Y-66040000D02*
X113665000Y-66040000D01*
X114665000Y-60325000D02*
X114935000Y-60595000D01*
X114935000Y-60595000D02*
X114935000Y-65770000D01*
X114935000Y-65770000D02*
X114665000Y-66040000D01*
X107950000Y-57150000D02*
X111190000Y-57150000D01*
X111190000Y-57150000D02*
X113665000Y-59625000D01*
X113665000Y-59625000D02*
X113665000Y-60325000D01*
X107950000Y-57150000D02*
X107950000Y-54610000D01*
X62865000Y-71755000D02*
X57150000Y-77470000D01*
X57150000Y-77470000D02*
X57150000Y-90170000D01*
X57150000Y-90170000D02*
X55880000Y-91440000D01*
X55880000Y-91440000D02*
X52705000Y-91440000D01*
X52705000Y-91440000D02*
X50800000Y-93345000D01*
X66040000Y-71755000D02*
X68580000Y-71755000D01*
X62865000Y-71755000D02*
X66040000Y-71755000D01*
X62865000Y-74295000D02*
X57785000Y-79375000D01*
X57785000Y-79375000D02*
X57785000Y-90803590D01*
X57785000Y-90803590D02*
X56513590Y-92075000D01*
X56513590Y-92075000D02*
X54610000Y-92075000D01*
X54610000Y-92075000D02*
X53340000Y-93345000D01*
X66040000Y-74295000D02*
X62865000Y-74295000D01*
X68580000Y-74295000D02*
X66040000Y-74295000D01*
X58420000Y-81280000D02*
X58420000Y-90805000D01*
X58420000Y-90805000D02*
X55880000Y-93345000D01*
X62865000Y-76835000D02*
X58420000Y-81280000D01*
X66040000Y-76835000D02*
X68580000Y-76835000D01*
X62865000Y-76835000D02*
X66040000Y-76835000D01*
X59055000Y-91440000D02*
X59055000Y-83185000D01*
X59055000Y-83185000D02*
X62865000Y-79375000D01*
X58420000Y-92075000D02*
X59055000Y-91440000D01*
X58420000Y-93345000D02*
X58420000Y-92075000D01*
X66040000Y-79375000D02*
X62865000Y-79375000D01*
X68580000Y-79375000D02*
X66040000Y-79375000D01*
X133985000Y-27940000D02*
X133685000Y-27940000D01*
X133685000Y-27940000D02*
X131445000Y-25700000D01*
X131445000Y-25700000D02*
X131445000Y-18415000D01*
X131445000Y-18415000D02*
X130810000Y-17780000D01*
X130810000Y-17780000D02*
X128905000Y-17780000D01*
X133985000Y-27940000D02*
X139065000Y-27940000D01*
X59960000Y-61595000D02*
X59420000Y-61595000D01*
X59960000Y-61595000D02*
X65135000Y-61595000D01*
X59690000Y-61325000D02*
X59960000Y-61595000D01*
X56515000Y-61595000D02*
X59420000Y-61595000D01*
X59690000Y-60325000D02*
X59690000Y-61325000D01*
X59420000Y-61595000D02*
X59690000Y-61325000D01*
X48530000Y-61595000D02*
X50165000Y-61595000D01*
X50165000Y-61595000D02*
X53340000Y-61595000D01*
X47625000Y-61595000D02*
X50165000Y-61595000D01*
X47625000Y-61595000D02*
X47990000Y-61595000D01*
X48260000Y-61325000D02*
X48260000Y-60325000D01*
X47990000Y-61595000D02*
X48260000Y-61325000D01*
X47290000Y-61595000D02*
X47625000Y-61595000D01*
X45720000Y-63500000D02*
X45720000Y-63165000D01*
X45720000Y-63165000D02*
X47290000Y-61595000D01*
X45720000Y-65405000D02*
X45720000Y-63500000D01*
X53340000Y-61595000D02*
X56515000Y-61595000D01*
X53975000Y-60325000D02*
X53975000Y-61325000D01*
X53975000Y-61325000D02*
X54245000Y-61595000D01*
X54245000Y-61595000D02*
X56515000Y-61595000D01*
X53975000Y-61325000D02*
X53705000Y-61595000D01*
X53705000Y-61595000D02*
X53340000Y-61595000D01*
X48260000Y-61325000D02*
X48530000Y-61595000D01*
X65135000Y-61595000D02*
X65405000Y-61325000D01*
X65405000Y-61325000D02*
X65405000Y-60325000D01*
X98425000Y-42545705D02*
X79375705Y-42545705D01*
X79375705Y-42545705D02*
X79375000Y-42545000D01*
X125094295Y-42545705D02*
X118745000Y-42545705D01*
X118745000Y-42545705D02*
X98425000Y-42545705D01*
X118745000Y-80010000D02*
X118745000Y-52705000D01*
X120015000Y-81280000D02*
X118745000Y-80010000D01*
X121285000Y-81280000D02*
X120015000Y-81280000D01*
X127448599Y-44900009D02*
X125094295Y-42545705D01*
X130810000Y-45720000D02*
X128268590Y-45720000D01*
X128268590Y-45720000D02*
X127448599Y-44900009D01*
X120015000Y-43817115D02*
X74932115Y-43817115D01*
X74932115Y-43817115D02*
X74930000Y-43815000D01*
X125092885Y-43817115D02*
X120015000Y-43817115D01*
X120015000Y-72390000D02*
X120015000Y-52705000D01*
X120650000Y-73025000D02*
X120015000Y-72390000D01*
X123190000Y-73025000D02*
X120650000Y-73025000D01*
X80645705Y-61595705D02*
X78105705Y-61595705D01*
X78105705Y-61595705D02*
X78105000Y-61595000D01*
X128715779Y-47440009D02*
X125092885Y-43817115D01*
X130810000Y-48260000D02*
X129535770Y-48260000D01*
X129535770Y-48260000D02*
X128715779Y-47440009D01*
X124468465Y-45085000D02*
X119380000Y-45085000D01*
X119380000Y-45085000D02*
X110490000Y-45085000D01*
X119380000Y-78105000D02*
X119380000Y-52070000D01*
X120015000Y-78740000D02*
X119380000Y-78105000D01*
X123190000Y-78740000D02*
X120015000Y-78740000D01*
X123190000Y-78740000D02*
X124460000Y-78740000D01*
X125095000Y-74295000D02*
X126365000Y-73025000D01*
X124460000Y-78740000D02*
X125095000Y-78105000D01*
X125095000Y-78105000D02*
X125095000Y-74295000D01*
X126365000Y-73025000D02*
X128270000Y-73025000D01*
X110490000Y-45085000D02*
X78740000Y-45085000D01*
X129333466Y-49950001D02*
X124468465Y-45085000D01*
X129960001Y-49950001D02*
X129333466Y-49950001D01*
X130810000Y-50800000D02*
X129960001Y-49950001D01*
X124468465Y-45085000D02*
X124460000Y-45085000D01*
X123190000Y-84455000D02*
X120015000Y-84455000D01*
X120015000Y-84455000D02*
X117475000Y-81915000D01*
X117475000Y-81915000D02*
X117475000Y-62019264D01*
X117475000Y-62019264D02*
X117475000Y-61595000D01*
X124467053Y-46356410D02*
X109855000Y-46356410D01*
X109855000Y-46356410D02*
X99060000Y-46356410D01*
X108585000Y-61595000D02*
X113665000Y-61595000D01*
X124467053Y-46356410D02*
X124458590Y-46356410D01*
X127633590Y-50163590D02*
X127633590Y-49522947D01*
X130810000Y-53340000D02*
X127633590Y-50163590D01*
X127633590Y-49522947D02*
X124467053Y-46356410D01*
X69850000Y-101600000D02*
X69850000Y-62230000D01*
X83820000Y-47625000D02*
X69850000Y-47625000D01*
X69850000Y-47625000D02*
X69215000Y-48260000D01*
X69215000Y-48260000D02*
X69215000Y-48895000D01*
X69215000Y-48895000D02*
X70485000Y-50165000D01*
X70485000Y-50165000D02*
X70485000Y-61595000D01*
X70485000Y-61595000D02*
X69850000Y-62230000D01*
X83820000Y-47625000D02*
X111122180Y-47625000D01*
X111122180Y-47625000D02*
X111125000Y-47627820D01*
X116840000Y-47625000D02*
X124460000Y-47625000D01*
X111125000Y-47627820D02*
X116837180Y-47627820D01*
X116837180Y-47627820D02*
X116840000Y-47625000D01*
X116840000Y-94615000D02*
X116840000Y-52070000D01*
X118110000Y-95885000D02*
X116840000Y-94615000D01*
X120650000Y-95885000D02*
X118110000Y-95885000D01*
X126365000Y-52637081D02*
X126365000Y-49527179D01*
X124465641Y-47627820D02*
X124457180Y-47627820D01*
X126365000Y-49527179D02*
X124465641Y-47627820D01*
X129607919Y-55880000D02*
X126365000Y-52637081D01*
X130810000Y-55880000D02*
X129607919Y-55880000D01*
X106045000Y-101600000D02*
X103505000Y-101600000D01*
X109855000Y-105410000D02*
X106045000Y-101600000D01*
X116205000Y-105410000D02*
X109855000Y-105410000D01*
X121285000Y-100330000D02*
X116205000Y-105410000D01*
X121285000Y-91075000D02*
X121285000Y-100330000D01*
X123190000Y-90170000D02*
X122190000Y-90170000D01*
X122190000Y-90170000D02*
X121285000Y-91075000D01*
X124460000Y-48895000D02*
X106680000Y-48895000D01*
X106045000Y-90170000D02*
X108585000Y-90170000D01*
X125095000Y-49530000D02*
X124460000Y-48895000D01*
X125095000Y-53340000D02*
X125095000Y-49530000D01*
X130810000Y-58420000D02*
X129960001Y-57570001D01*
X129960001Y-57570001D02*
X129325001Y-57570001D01*
X129325001Y-57570001D02*
X125095000Y-53340000D01*
X72390000Y-107739264D02*
X72390000Y-107315000D01*
X72390000Y-109855000D02*
X72390000Y-107739264D01*
X74295000Y-111760000D02*
X72390000Y-109855000D01*
X85726410Y-111760000D02*
X74295000Y-111760000D01*
X86810009Y-110676401D02*
X85726410Y-111760000D01*
X86810010Y-107769990D02*
X86810009Y-110676401D01*
X87265000Y-107315000D02*
X86810010Y-107769990D01*
X88265000Y-107315000D02*
X87265000Y-107315000D01*
X73660000Y-50165000D02*
X80010000Y-50165000D01*
X74930000Y-64135000D02*
X73660000Y-62865000D01*
X73660000Y-62865000D02*
X73660000Y-57150000D01*
X74930000Y-71755000D02*
X75565000Y-71120000D01*
X75565000Y-71120000D02*
X75565000Y-66040000D01*
X73025000Y-71755000D02*
X74930000Y-71755000D01*
X72390000Y-72390000D02*
X73025000Y-71755000D01*
X72390000Y-72644998D02*
X72390000Y-72390000D01*
X72390000Y-98425000D02*
X72390000Y-72644998D01*
X80010000Y-50165000D02*
X123190000Y-50165000D01*
X123190000Y-50165000D02*
X123825000Y-50800000D01*
X123825000Y-50800000D02*
X123825000Y-55246410D01*
X123825000Y-55246410D02*
X129538590Y-60960000D01*
X129538590Y-60960000D02*
X130810000Y-60960000D01*
X111125000Y-51435000D02*
X102870000Y-51435000D01*
X121920000Y-51435000D02*
X111125000Y-51435000D01*
X113665000Y-101600000D02*
X114665000Y-101600000D01*
X114665000Y-101600000D02*
X116205000Y-100060000D01*
X116205000Y-100060000D02*
X116205000Y-60325000D01*
X112685002Y-52705000D02*
X111760000Y-52705000D01*
X116205000Y-60325000D02*
X116020010Y-60140010D01*
X116020010Y-60140010D02*
X116020009Y-60138599D01*
X116020009Y-60138599D02*
X114935000Y-59053590D01*
X114935000Y-59053590D02*
X114935000Y-54954998D01*
X114935000Y-54954998D02*
X112685002Y-52705000D01*
X111760000Y-52705000D02*
X111125000Y-52070000D01*
X111125000Y-52070000D02*
X111125000Y-51435000D01*
X101784991Y-58868599D02*
X102870000Y-57783590D01*
X102870000Y-57783590D02*
X102870000Y-54610000D01*
X101600000Y-59055000D02*
X101784990Y-58870010D01*
X101784990Y-58870010D02*
X101784991Y-58868599D01*
X101600000Y-63500000D02*
X101600000Y-59055000D01*
X102870000Y-64770000D02*
X101600000Y-63500000D01*
X102870000Y-51435000D02*
X93345000Y-51435000D01*
X93345000Y-51435000D02*
X85090000Y-51435000D01*
X122555000Y-52070000D02*
X121920000Y-51435000D01*
X122555000Y-55880000D02*
X122555000Y-52070000D01*
X129325001Y-62650001D02*
X122555000Y-55880000D01*
X130810000Y-63500000D02*
X129960001Y-62650001D01*
X129960001Y-62650001D02*
X129325001Y-62650001D01*
X109220000Y-41910000D02*
X85090000Y-41910000D01*
X125095000Y-41910000D02*
X109220000Y-41910000D01*
X78105000Y-41910000D02*
X68580000Y-41910000D01*
X133180000Y-44450000D02*
X127635000Y-44450000D01*
X127635000Y-44450000D02*
X125095000Y-41910000D01*
X85090000Y-41910000D02*
X78105000Y-41910000D01*
X108585000Y-84455000D02*
X113665000Y-84455000D01*
X66674295Y-69215705D02*
X67944295Y-69215705D01*
X67944295Y-69215705D02*
X68580000Y-68580000D01*
X50165705Y-69215705D02*
X66674295Y-69215705D01*
X48260000Y-71121410D02*
X50165705Y-69215705D01*
X48260000Y-90170000D02*
X48260000Y-71121410D01*
X48260000Y-91441410D02*
X48260000Y-90170000D01*
X44450000Y-95251410D02*
X48260000Y-91441410D01*
X45085000Y-97790000D02*
X44450000Y-97155000D01*
X44450000Y-97155000D02*
X44450000Y-95251410D01*
X46990000Y-97790000D02*
X45085000Y-97790000D01*
X133180000Y-44450000D02*
X133520000Y-44450000D01*
X133350000Y-44620000D02*
X133180000Y-44450000D01*
X138260000Y-44450000D02*
X133520000Y-44450000D01*
X133520000Y-44450000D02*
X133350000Y-44620000D01*
X133350000Y-44620000D02*
X133350000Y-45720000D01*
X138430000Y-45720000D02*
X138430000Y-44620000D01*
X138430000Y-44620000D02*
X138260000Y-44450000D01*
X125093590Y-43181410D02*
X111760000Y-43181410D01*
X111760000Y-43181410D02*
X97155000Y-43181410D01*
X108585000Y-78740000D02*
X113665000Y-78740000D01*
X97155000Y-43181410D02*
X74930000Y-43181410D01*
X74930000Y-43181410D02*
X74295000Y-43181410D01*
X74295000Y-43181410D02*
X67945000Y-43181410D01*
X80010000Y-66675000D02*
X80010000Y-64770000D01*
X80010000Y-64770000D02*
X79375000Y-64135000D01*
X80645000Y-67310000D02*
X80010000Y-66675000D01*
X83185000Y-67310000D02*
X80645000Y-67310000D01*
X66675000Y-68580000D02*
X67310000Y-68580000D01*
X67310000Y-68580000D02*
X67945000Y-67945000D01*
X59690000Y-68580000D02*
X66675000Y-68580000D01*
X54610000Y-68580000D02*
X59690000Y-68580000D01*
X50165000Y-68580000D02*
X54610000Y-68580000D01*
X47625000Y-71120000D02*
X50165000Y-68580000D01*
X47625000Y-90170000D02*
X47625000Y-71120000D01*
X47625000Y-91440000D02*
X47625000Y-90170000D01*
X43815000Y-95250000D02*
X47625000Y-91440000D01*
X43815000Y-102870000D02*
X43815000Y-95250000D01*
X44450000Y-103505000D02*
X43815000Y-102870000D01*
X46990000Y-103505000D02*
X44450000Y-103505000D01*
X125093590Y-43181410D02*
X128902180Y-46990000D01*
X128902180Y-46990000D02*
X132080000Y-46990000D01*
X132080000Y-46990000D02*
X133350000Y-48260000D01*
X138430000Y-48260000D02*
X137160000Y-46990000D01*
X137160000Y-46990000D02*
X134620000Y-46990000D01*
X134620000Y-46990000D02*
X133350000Y-48260000D01*
X125092180Y-44452820D02*
X114935000Y-44452820D01*
X114935000Y-44452820D02*
X96520000Y-44452820D01*
X113365000Y-67310000D02*
X112395000Y-66340000D01*
X112395000Y-66340000D02*
X112395000Y-62230000D01*
X113665000Y-67310000D02*
X113365000Y-67310000D01*
X96520000Y-44452820D02*
X77470000Y-44452820D01*
X95885000Y-78740000D02*
X98425000Y-78740000D01*
X77470000Y-44452820D02*
X69215000Y-44452820D01*
X80010000Y-78740000D02*
X83185000Y-78740000D01*
X80010000Y-90170000D02*
X83185000Y-90170000D01*
X78105000Y-95885000D02*
X80010000Y-95885000D01*
X48895000Y-71122820D02*
X50167820Y-69850000D01*
X67520736Y-69850000D02*
X67945000Y-69850000D01*
X48094987Y-92242833D02*
X48895000Y-91442820D01*
X48895000Y-91442820D02*
X48895000Y-71122820D01*
X50167820Y-69850000D02*
X67520736Y-69850000D01*
X48094987Y-95250000D02*
X48094987Y-92242833D01*
X128529378Y-47890018D02*
X125092180Y-44452820D01*
X132080000Y-49530000D02*
X130169360Y-49530000D01*
X130169360Y-49530000D02*
X128529378Y-47890018D01*
X132500001Y-49950001D02*
X132080000Y-49530000D01*
X133350000Y-50800000D02*
X132500001Y-49950001D01*
X133350000Y-50800000D02*
X134620000Y-49530000D01*
X134620000Y-49530000D02*
X137160000Y-49530000D01*
X137160000Y-49530000D02*
X138430000Y-50800000D01*
X124467759Y-45720705D02*
X118110000Y-45720705D01*
X118110000Y-45720705D02*
X83820000Y-45720705D01*
X118110000Y-81280000D02*
X118110000Y-52070000D01*
X118745000Y-81915000D02*
X118110000Y-81280000D01*
X119380000Y-81915000D02*
X118745000Y-81915000D01*
X121920000Y-81915000D02*
X119380000Y-81915000D01*
X125095000Y-83185000D02*
X125095000Y-82550000D01*
X125095000Y-82550000D02*
X124460000Y-81915000D01*
X125095000Y-88265000D02*
X125095000Y-83185000D01*
X127000000Y-90170000D02*
X125095000Y-88265000D01*
X128270000Y-90170000D02*
X127000000Y-90170000D01*
X83820000Y-45720705D02*
X83185000Y-45720705D01*
X83185000Y-45720705D02*
X69850000Y-45720705D01*
X60960000Y-70485000D02*
X61595000Y-70485000D01*
X48895000Y-95885000D02*
X48895000Y-92710000D01*
X48895000Y-92710000D02*
X49530000Y-92075000D01*
X49530000Y-92075000D02*
X49530000Y-71124230D01*
X49530000Y-71124230D02*
X50169230Y-70485000D01*
X50169230Y-70485000D02*
X60960000Y-70485000D01*
X124467759Y-45720705D02*
X124459295Y-45720705D01*
X128270000Y-49999002D02*
X128270000Y-49522946D01*
X132080000Y-52070000D02*
X130340998Y-52070000D01*
X128270000Y-49522946D02*
X124467759Y-45720705D01*
X133350000Y-53340000D02*
X132080000Y-52070000D01*
X130340998Y-52070000D02*
X128270000Y-49999002D01*
X138430000Y-53340000D02*
X137160000Y-52070000D01*
X134620000Y-52070000D02*
X133350000Y-53340000D01*
X137160000Y-52070000D02*
X134620000Y-52070000D01*
X99695000Y-46990000D02*
X114297885Y-46990000D01*
X114297885Y-46990000D02*
X114300000Y-46992115D01*
X124466347Y-46992115D02*
X114300000Y-46992115D01*
X113665000Y-73025000D02*
X111760000Y-73025000D01*
X103505000Y-67310000D02*
X101600000Y-67310000D01*
X130144990Y-54579990D02*
X127000000Y-51435000D01*
X127000000Y-51435000D02*
X127000000Y-49525768D01*
X132049990Y-54579990D02*
X130144990Y-54579990D01*
X133350000Y-55880000D02*
X132049990Y-54579990D01*
X127000000Y-49525768D02*
X124466347Y-46992115D01*
X124466347Y-46992115D02*
X124457885Y-46992115D01*
X133350000Y-55880000D02*
X134620000Y-54610000D01*
X134620000Y-54610000D02*
X137160000Y-54610000D01*
X137160000Y-54610000D02*
X138430000Y-55880000D01*
X124456475Y-48263525D02*
X112395000Y-48263525D01*
X112395000Y-48263525D02*
X103505000Y-48263525D01*
X114300000Y-55245000D02*
X112395000Y-53340000D01*
X114300000Y-59055000D02*
X114300000Y-55245000D01*
X115570000Y-60325000D02*
X114300000Y-59055000D01*
X115570000Y-60960000D02*
X115570000Y-60325000D01*
X115570000Y-95885000D02*
X115570000Y-60960000D01*
X103505000Y-48263525D02*
X84455000Y-48263525D01*
X102235000Y-59055000D02*
X103505000Y-57785000D01*
X103505000Y-57785000D02*
X103505000Y-53975000D01*
X102235000Y-59688590D02*
X102235000Y-59055000D01*
X102235000Y-61325000D02*
X102235000Y-59688590D01*
X103505000Y-61595000D02*
X102505000Y-61595000D01*
X102505000Y-61595000D02*
X102235000Y-61325000D01*
X84455000Y-48263525D02*
X70485000Y-48263525D01*
X70485000Y-71755000D02*
X70485000Y-63500000D01*
X70485000Y-102235000D02*
X70485000Y-71755000D01*
X69215000Y-103505000D02*
X70485000Y-102235000D01*
X67310000Y-103505000D02*
X69215000Y-103505000D01*
X132080000Y-57150000D02*
X132500001Y-57570001D01*
X124456475Y-48263525D02*
X124464936Y-48263525D01*
X124464936Y-48263525D02*
X125545011Y-49343600D01*
X132500001Y-57570001D02*
X133350000Y-58420000D01*
X130176411Y-57150000D02*
X132080000Y-57150000D01*
X125545011Y-52518600D02*
X130176411Y-57150000D01*
X125545011Y-49343600D02*
X125545011Y-52518600D01*
X138430000Y-58420000D02*
X137160000Y-57150000D01*
X137160000Y-57150000D02*
X134620000Y-57150000D01*
X134620000Y-57150000D02*
X133350000Y-58420000D01*
X123825000Y-49530000D02*
X80010000Y-49530000D01*
X124460000Y-50165000D02*
X123825000Y-49530000D01*
X124460000Y-55245000D02*
X124460000Y-50165000D01*
X132080000Y-59690000D02*
X128905000Y-59690000D01*
X128905000Y-59690000D02*
X124460000Y-55245000D01*
X132500001Y-60110001D02*
X132080000Y-59690000D01*
X133350000Y-60960000D02*
X132500001Y-60110001D01*
X134620000Y-59690000D02*
X137160000Y-59690000D01*
X137160000Y-59690000D02*
X138430000Y-60960000D01*
X133350000Y-60960000D02*
X134620000Y-59690000D01*
X101600000Y-50800000D02*
X73025000Y-50800000D01*
X73025000Y-50800000D02*
X71755000Y-52070000D01*
X71755000Y-52070000D02*
X71755000Y-104901029D01*
X67436029Y-109220000D02*
X67310000Y-109220000D01*
X71755000Y-104901029D02*
X67436029Y-109220000D01*
X123190000Y-101600000D02*
X122190000Y-101600000D01*
X122190000Y-101600000D02*
X116475000Y-107315000D01*
X104505000Y-107315000D02*
X103505000Y-107315000D01*
X116475000Y-107315000D02*
X104505000Y-107315000D01*
X104775000Y-53340000D02*
X101600000Y-53340000D01*
X105410000Y-52705000D02*
X104775000Y-53340000D01*
X106045000Y-52705000D02*
X105410000Y-52705000D01*
X106680000Y-53340000D02*
X106045000Y-52705000D01*
X106045000Y-58420000D02*
X106680000Y-57785000D01*
X106045000Y-59690000D02*
X106045000Y-58420000D01*
X122555000Y-50800000D02*
X101600000Y-50800000D01*
X106680000Y-57785000D02*
X106680000Y-53340000D01*
X123190000Y-51435000D02*
X122555000Y-50800000D01*
X123190000Y-55247820D02*
X123190000Y-51435000D01*
X132080000Y-62230000D02*
X130172180Y-62230000D01*
X130172180Y-62230000D02*
X123190000Y-55247820D01*
X133350000Y-63500000D02*
X132080000Y-62230000D01*
X138430000Y-63500000D02*
X137160000Y-62230000D01*
X137160000Y-62230000D02*
X134620000Y-62230000D01*
X134620000Y-62230000D02*
X133350000Y-63500000D01*
X93980000Y-36830000D02*
X94615000Y-36830000D01*
X64770000Y-36830000D02*
X84457820Y-36830000D01*
X84457820Y-36830000D02*
X93980000Y-36830000D01*
X60325000Y-36830000D02*
X64770000Y-36830000D01*
X94615000Y-36830000D02*
X124460000Y-36830000D01*
X135255000Y-70485000D02*
X124460000Y-59690000D01*
X135255000Y-77470000D02*
X135255000Y-70485000D01*
X135890000Y-78105000D02*
X135255000Y-77470000D01*
X137795000Y-78105000D02*
X135890000Y-78105000D01*
X91440000Y-62654264D02*
X91440000Y-62230000D01*
X91440000Y-83550000D02*
X91440000Y-62654264D01*
X93345000Y-84455000D02*
X92345000Y-84455000D01*
X92345000Y-84455000D02*
X91440000Y-83550000D01*
X45085000Y-40005000D02*
X46990000Y-38100000D01*
X46990000Y-38100000D02*
X48895000Y-38100000D01*
X45085000Y-59120000D02*
X45085000Y-40005000D01*
X46990000Y-60325000D02*
X46290000Y-60325000D01*
X46290000Y-60325000D02*
X45085000Y-59120000D01*
X53975000Y-38100000D02*
X55245000Y-38100000D01*
X55245000Y-38100000D02*
X56515000Y-36830000D01*
X56515000Y-36830000D02*
X60325000Y-36830000D01*
X51435000Y-38100000D02*
X53975000Y-38100000D01*
X48895000Y-38100000D02*
X51435000Y-38100000D01*
X59690000Y-22225000D02*
X57785000Y-22225000D01*
X60325000Y-22860000D02*
X59690000Y-22225000D01*
X60325000Y-26035000D02*
X60325000Y-22860000D01*
X60960000Y-26670000D02*
X60325000Y-26035000D01*
X54610000Y-27305000D02*
X53975000Y-26670000D01*
X53975000Y-26670000D02*
X52705000Y-26670000D01*
X54610000Y-31115000D02*
X54610000Y-27305000D01*
X55880000Y-32385000D02*
X54610000Y-31115000D01*
X57785000Y-32385000D02*
X55880000Y-32385000D01*
X59690000Y-32385000D02*
X57785000Y-32385000D01*
X60325000Y-31750000D02*
X59690000Y-32385000D01*
X62865000Y-26670000D02*
X60960000Y-26670000D01*
X60960000Y-26670000D02*
X60325000Y-27305000D01*
X60325000Y-27305000D02*
X60325000Y-31750000D01*
X60325000Y-31750000D02*
X60960000Y-32385000D01*
X60960000Y-32385000D02*
X62865000Y-32385000D01*
X66040000Y-27940000D02*
X67945000Y-27940000D01*
X64770000Y-26670000D02*
X66040000Y-27940000D01*
X62865000Y-26670000D02*
X64770000Y-26670000D01*
X57150000Y-37465000D02*
X95885000Y-37465000D01*
X57150000Y-37465000D02*
X81280000Y-37465000D01*
X57150000Y-37465000D02*
X57785000Y-37465000D01*
X52705000Y-60325000D02*
X52705000Y-59325000D01*
X52705000Y-59325000D02*
X52435000Y-59055000D01*
X52435000Y-59055000D02*
X46355000Y-59055000D01*
X46355000Y-59055000D02*
X45720000Y-58420000D01*
X45720000Y-58420000D02*
X45720000Y-41910000D01*
X45720000Y-41910000D02*
X46990000Y-40640000D01*
X46990000Y-40640000D02*
X48895000Y-40640000D01*
X53975000Y-40640000D02*
X57150000Y-37465000D01*
X51435000Y-40640000D02*
X53975000Y-40640000D01*
X48895000Y-40640000D02*
X51435000Y-40640000D01*
X85090000Y-22225000D02*
X83185000Y-22225000D01*
X85725000Y-22860000D02*
X85090000Y-22225000D01*
X85725000Y-26035000D02*
X85725000Y-22860000D01*
X86360000Y-26670000D02*
X85725000Y-26035000D01*
X83185000Y-32385000D02*
X85090000Y-32385000D01*
X85090000Y-32385000D02*
X85725000Y-31750000D01*
X85725000Y-31750000D02*
X85725000Y-27305000D01*
X85725000Y-27305000D02*
X86360000Y-26670000D01*
X86360000Y-26670000D02*
X88265000Y-26670000D01*
X88265000Y-26670000D02*
X90170000Y-26670000D01*
X90170000Y-26670000D02*
X91440000Y-27940000D01*
X91440000Y-27940000D02*
X93345000Y-27940000D01*
X63500000Y-38100000D02*
X71120000Y-38100000D01*
X71120000Y-38100000D02*
X95250000Y-38100000D01*
X71120000Y-59802948D02*
X71120000Y-49530000D01*
X101600000Y-38100000D02*
X123190000Y-38100000D01*
X95250000Y-38100000D02*
X101600000Y-38100000D01*
X133985000Y-71755000D02*
X123190000Y-60960000D01*
X133985000Y-72142998D02*
X133985000Y-71755000D01*
X133985000Y-81915000D02*
X133985000Y-72142998D01*
X135255000Y-83185000D02*
X133985000Y-81915000D01*
X136695000Y-83185000D02*
X135255000Y-83185000D01*
X137795000Y-83185000D02*
X136695000Y-83185000D01*
X71120000Y-104140000D02*
X71120000Y-71755000D01*
X69215000Y-106045000D02*
X71120000Y-104140000D01*
X62230000Y-109220000D02*
X64135000Y-109220000D01*
X66040000Y-106045000D02*
X69215000Y-106045000D01*
X71120000Y-71755000D02*
X71120000Y-59802948D01*
X64135000Y-109220000D02*
X64770000Y-108585000D01*
X64770000Y-107315000D02*
X66040000Y-106045000D01*
X64770000Y-108585000D02*
X64770000Y-107315000D01*
X57785000Y-38100000D02*
X63500000Y-38100000D01*
X58420000Y-60325000D02*
X58420000Y-59325000D01*
X58420000Y-59325000D02*
X57515000Y-58420000D01*
X46990000Y-58420000D02*
X46355000Y-57785000D01*
X57515000Y-58420000D02*
X46990000Y-58420000D01*
X46355000Y-57785000D02*
X46355000Y-44450000D01*
X46355000Y-44450000D02*
X47625000Y-43180000D01*
X47625000Y-43180000D02*
X48895000Y-43180000D01*
X53975000Y-43180000D02*
X55880000Y-41275000D01*
X55880000Y-40005000D02*
X57785000Y-38100000D01*
X55880000Y-41275000D02*
X55880000Y-40005000D01*
X51435000Y-43180000D02*
X53975000Y-43180000D01*
X48895000Y-43180000D02*
X51435000Y-43180000D01*
X105410000Y-32385000D02*
X103505000Y-32385000D01*
X106045000Y-31750000D02*
X105410000Y-32385000D01*
X106045000Y-27305000D02*
X106045000Y-31750000D01*
X106680000Y-26670000D02*
X106045000Y-27305000D01*
X103505000Y-22225000D02*
X105410000Y-22225000D01*
X105410000Y-22225000D02*
X106045000Y-22860000D01*
X106045000Y-22860000D02*
X106045000Y-26035000D01*
X106045000Y-26035000D02*
X106680000Y-26670000D01*
X106680000Y-26670000D02*
X108585000Y-26670000D01*
X111760000Y-27940000D02*
X113665000Y-27940000D01*
X110490000Y-26670000D02*
X111760000Y-27940000D01*
X108585000Y-26670000D02*
X110490000Y-26670000D01*
X121285000Y-38735000D02*
X94615000Y-38735000D01*
X123825000Y-38735000D02*
X121285000Y-38735000D01*
X134620000Y-80010000D02*
X134620000Y-71120000D01*
X134620000Y-71120000D02*
X123825000Y-60325000D01*
X135255000Y-80645000D02*
X134620000Y-80010000D01*
X137795000Y-80645000D02*
X135255000Y-80645000D01*
X58420000Y-38735000D02*
X94615000Y-38735000D01*
X64135000Y-60325000D02*
X64135000Y-59325000D01*
X64135000Y-59325000D02*
X62595000Y-57785000D01*
X62595000Y-57785000D02*
X47625000Y-57785000D01*
X47625000Y-57785000D02*
X46990000Y-57150000D01*
X46990000Y-57150000D02*
X46990000Y-47625000D01*
X46990000Y-47625000D02*
X48895000Y-45720000D01*
X53975000Y-45720000D02*
X56515000Y-43180000D01*
X56515000Y-43180000D02*
X56515000Y-40640000D01*
X56515000Y-40640000D02*
X58420000Y-38735000D01*
X51435000Y-45720000D02*
X48895000Y-45720000D01*
X53975000Y-45720000D02*
X51435000Y-45720000D01*
X125730000Y-31750000D02*
X127635000Y-33655000D01*
X127635000Y-33655000D02*
X128905000Y-33655000D01*
X125095000Y-32385000D02*
X123825000Y-32385000D01*
X125730000Y-31750000D02*
X125095000Y-32385000D01*
X125730000Y-21590000D02*
X125730000Y-31750000D01*
X125095000Y-20955000D02*
X125730000Y-21590000D01*
X123825000Y-20955000D02*
X125095000Y-20955000D01*
X99695000Y-95250000D02*
X100330000Y-95885000D01*
X100330000Y-95885000D02*
X103505000Y-95885000D01*
X99695000Y-89535000D02*
X99695000Y-95250000D01*
X100330000Y-87630000D02*
X100330000Y-88265000D01*
X100330000Y-71120000D02*
X100330000Y-87630000D01*
X99695000Y-70485000D02*
X100330000Y-71120000D01*
X66040000Y-39370000D02*
X97790000Y-39370000D01*
X58719999Y-54909999D02*
X58420000Y-54610000D01*
X65289232Y-55245000D02*
X59055000Y-55245000D01*
X69850000Y-59805768D02*
X65289232Y-55245000D01*
X69215000Y-64500000D02*
X69215000Y-62228590D01*
X67675000Y-66040000D02*
X69215000Y-64500000D01*
X66675000Y-66040000D02*
X67675000Y-66040000D01*
X69850000Y-61593590D02*
X69850000Y-59805768D01*
X59055000Y-55245000D02*
X58719999Y-54909999D01*
X69215000Y-62228590D02*
X69850000Y-61593590D01*
X59055000Y-39370000D02*
X66040000Y-39370000D01*
X57150000Y-41275000D02*
X59055000Y-39370000D01*
X57150000Y-45085000D02*
X57150000Y-41275000D01*
X53975000Y-48260000D02*
X57150000Y-45085000D01*
X51435000Y-48260000D02*
X53975000Y-48260000D01*
X48895000Y-48260000D02*
X51435000Y-48260000D01*
X69850000Y-26670000D02*
X70485000Y-26035000D01*
X70485000Y-26035000D02*
X70485000Y-22860000D01*
X70485000Y-22860000D02*
X71120000Y-22225000D01*
X71120000Y-22225000D02*
X73025000Y-22225000D01*
X69850000Y-32385000D02*
X67945000Y-32385000D01*
X70485000Y-31750000D02*
X69850000Y-32385000D01*
X70485000Y-27305000D02*
X70485000Y-31750000D01*
X69850000Y-26670000D02*
X70485000Y-27305000D01*
X67945000Y-26670000D02*
X69850000Y-26670000D01*
X59690000Y-40005000D02*
X81915000Y-40005000D01*
X81915000Y-40005000D02*
X93980000Y-40005000D01*
X90805000Y-55245000D02*
X81915000Y-55245000D01*
X92075000Y-56515000D02*
X90805000Y-55245000D01*
X90170000Y-88265000D02*
X90170000Y-60960000D01*
X90805000Y-107315000D02*
X90170000Y-106680000D01*
X90170000Y-106680000D02*
X90170000Y-91440000D01*
X93345000Y-107315000D02*
X90805000Y-107315000D01*
X69215000Y-61592179D02*
X69215000Y-59807178D01*
X69215000Y-59807178D02*
X65287822Y-55880000D01*
X57449999Y-55544999D02*
X57150000Y-55245000D01*
X68764989Y-62042190D02*
X69215000Y-61592179D01*
X68764989Y-62047831D02*
X68764989Y-62042190D01*
X57785000Y-55880000D02*
X57449999Y-55544999D01*
X67312820Y-63500000D02*
X68764989Y-62047831D01*
X65287822Y-55880000D02*
X57785000Y-55880000D01*
X60325000Y-63500000D02*
X67312820Y-63500000D01*
X59690000Y-65135000D02*
X59690000Y-64135000D01*
X60595000Y-66040000D02*
X59690000Y-65135000D01*
X59690000Y-64135000D02*
X60325000Y-63500000D01*
X61595000Y-66040000D02*
X60595000Y-66040000D01*
X93980000Y-40005000D02*
X100330000Y-40005000D01*
X57785000Y-41910000D02*
X59690000Y-40005000D01*
X57785000Y-46990000D02*
X57785000Y-41910000D01*
X53975000Y-50800000D02*
X57785000Y-46990000D01*
X51435000Y-50800000D02*
X53975000Y-50800000D01*
X48895000Y-50800000D02*
X51435000Y-50800000D01*
X96520000Y-32385000D02*
X98425000Y-32385000D01*
X95885000Y-31750000D02*
X96520000Y-32385000D01*
X95885000Y-27305000D02*
X95885000Y-31750000D01*
X95250000Y-26670000D02*
X95885000Y-27305000D01*
X95250000Y-26670000D02*
X93345000Y-26670000D01*
X95885000Y-26035000D02*
X95250000Y-26670000D01*
X95885000Y-22860000D02*
X95885000Y-26035000D01*
X96520000Y-22225000D02*
X95885000Y-22860000D01*
X98425000Y-22225000D02*
X96520000Y-22225000D01*
X98425000Y-40640000D02*
X120650000Y-40640000D01*
X60325000Y-40640000D02*
X98425000Y-40640000D01*
X98425000Y-67310000D02*
X100674998Y-67310000D01*
X100674998Y-67310000D02*
X101309998Y-66675000D01*
X101309998Y-66675000D02*
X102235000Y-66675000D01*
X65286412Y-56515000D02*
X56515000Y-56515000D01*
X68580000Y-61590769D02*
X68580000Y-59808588D01*
X67311410Y-62865000D02*
X68314978Y-61861432D01*
X68314978Y-61855790D02*
X68580000Y-61590769D01*
X54610000Y-63500000D02*
X55245000Y-62865000D01*
X55515000Y-66040000D02*
X54610000Y-65135000D01*
X68314978Y-61861432D02*
X68314978Y-61855790D01*
X68580000Y-59808588D02*
X65286412Y-56515000D01*
X54610000Y-65135000D02*
X54610000Y-63500000D01*
X56515000Y-56515000D02*
X56179999Y-56179999D01*
X56179999Y-56179999D02*
X55880000Y-55880000D01*
X56515000Y-66040000D02*
X55515000Y-66040000D01*
X55245000Y-62865000D02*
X67311410Y-62865000D01*
X53975000Y-53340000D02*
X58420000Y-48895000D01*
X58420000Y-48895000D02*
X58420000Y-42545000D01*
X58420000Y-42545000D02*
X60325000Y-40640000D01*
X51435000Y-53340000D02*
X53975000Y-53340000D01*
X48895000Y-53340000D02*
X51435000Y-53340000D01*
X116840000Y-22225000D02*
X118871029Y-22225000D01*
X118871029Y-22225000D02*
X118745000Y-22225000D01*
X116205000Y-22860000D02*
X116840000Y-22225000D01*
X116205000Y-26035000D02*
X116205000Y-22860000D01*
X115570000Y-26670000D02*
X116205000Y-26035000D01*
X115570000Y-26670000D02*
X113665000Y-26670000D01*
X116205000Y-27305000D02*
X115570000Y-26670000D01*
X116205000Y-31750000D02*
X116205000Y-27305000D01*
X116840000Y-32385000D02*
X116205000Y-31750000D01*
X118745000Y-32385000D02*
X116840000Y-32385000D01*
X112665000Y-90170000D02*
X111760000Y-91075000D01*
X111760000Y-91075000D02*
X111760000Y-104140000D01*
X113665000Y-90170000D02*
X112665000Y-90170000D01*
X120350001Y-98724999D02*
X120650000Y-98425000D01*
X112395000Y-104775000D02*
X114300000Y-104775000D01*
X114300000Y-104775000D02*
X120350001Y-98724999D01*
X111760000Y-104140000D02*
X112395000Y-104775000D01*
X109855000Y-81915000D02*
X107950000Y-81915000D01*
X107950000Y-81915000D02*
X104775000Y-78740000D01*
X104775000Y-78740000D02*
X103505000Y-78740000D01*
X93345000Y-41275000D02*
X104140000Y-41275000D01*
X104140000Y-41275000D02*
X121920000Y-41275000D01*
X60960000Y-41275000D02*
X93345000Y-41275000D01*
X90805000Y-89535000D02*
X90805000Y-61595000D01*
X91440000Y-101600000D02*
X90805000Y-100965000D01*
X90805000Y-100965000D02*
X90805000Y-90805000D01*
X93345000Y-101600000D02*
X91440000Y-101600000D01*
X55245000Y-57150000D02*
X53975000Y-55880000D01*
X65285002Y-57150000D02*
X55245000Y-57150000D01*
X67945000Y-61595000D02*
X67945000Y-59809998D01*
X67945000Y-59809998D02*
X65285002Y-57150000D01*
X51435000Y-66040000D02*
X50165000Y-66040000D01*
X50165000Y-66040000D02*
X49530000Y-65405000D01*
X50165000Y-62230000D02*
X67310000Y-62230000D01*
X67310000Y-62230000D02*
X67945000Y-61595000D01*
X49530000Y-65405000D02*
X49530000Y-62865000D01*
X49530000Y-62865000D02*
X50165000Y-62230000D01*
X59055000Y-50800000D02*
X59055000Y-43180000D01*
X59055000Y-43180000D02*
X60960000Y-41275000D01*
X53975000Y-55880000D02*
X59055000Y-50800000D01*
X51435000Y-55880000D02*
X53975000Y-55880000D01*
X48895000Y-55880000D02*
X51435000Y-55880000D01*
X127635000Y-20955000D02*
X128905000Y-20955000D01*
X127000000Y-21590000D02*
X127635000Y-20955000D01*
X127000000Y-31750000D02*
X127000000Y-21590000D01*
X127635000Y-32385000D02*
X127000000Y-31750000D01*
X128905000Y-32385000D02*
X127635000Y-32385000D01*
X129540000Y-83455000D02*
X129540000Y-85725000D01*
X129540000Y-85725000D02*
X129540000Y-94345000D01*
X137795000Y-85725000D02*
X129540000Y-85725000D01*
X129540000Y-82915000D02*
X129540000Y-83455000D01*
X129540000Y-77200000D02*
X129540000Y-77740000D01*
X129540000Y-72025000D02*
X129540000Y-72390000D01*
X129540000Y-72390000D02*
X129540000Y-77200000D01*
X132715000Y-72390000D02*
X129540000Y-72390000D01*
X128270000Y-94615000D02*
X123190000Y-94615000D01*
X129270000Y-83185000D02*
X129540000Y-83455000D01*
X129540000Y-94345000D02*
X129270000Y-94615000D01*
X129270000Y-94615000D02*
X128270000Y-94615000D01*
X129270000Y-77470000D02*
X129540000Y-77740000D01*
X129540000Y-77740000D02*
X129540000Y-82915000D01*
X129540000Y-82915000D02*
X129270000Y-83185000D01*
X129270000Y-83185000D02*
X128270000Y-83185000D01*
X128270000Y-71755000D02*
X129270000Y-71755000D01*
X129270000Y-71755000D02*
X129540000Y-72025000D01*
X129540000Y-77200000D02*
X129270000Y-77470000D01*
X129270000Y-77470000D02*
X128270000Y-77470000D01*
X123190000Y-71755000D02*
X128270000Y-71755000D01*
X94615000Y-88630000D02*
X94615000Y-89170000D01*
X94615000Y-71120000D02*
X94615000Y-88630000D01*
X94615000Y-59690000D02*
X94615000Y-66675000D01*
X88265000Y-57150000D02*
X89535000Y-58420000D01*
X89535000Y-58420000D02*
X93345000Y-58420000D01*
X93345000Y-58420000D02*
X94615000Y-59690000D01*
X94615000Y-88630000D02*
X94345000Y-88900000D01*
X93345000Y-94615000D02*
X92345000Y-94615000D01*
X92345000Y-94615000D02*
X92075000Y-94885000D01*
X92075000Y-94885000D02*
X92075000Y-100060000D01*
X92075000Y-100060000D02*
X92345000Y-100330000D01*
X92345000Y-100330000D02*
X93345000Y-100330000D01*
X93345000Y-88900000D02*
X94345000Y-88900000D01*
X94615000Y-94345000D02*
X94345000Y-94615000D01*
X94345000Y-88900000D02*
X94615000Y-89170000D01*
X94615000Y-89170000D02*
X94615000Y-94345000D01*
X94345000Y-94615000D02*
X93345000Y-94615000D01*
X92075000Y-77200000D02*
X92075000Y-77740000D01*
X92345000Y-77470000D02*
X92075000Y-77740000D01*
X92075000Y-77740000D02*
X92075000Y-82915000D01*
X92075000Y-82915000D02*
X92345000Y-83185000D01*
X92345000Y-83185000D02*
X93345000Y-83185000D01*
X92075000Y-71485000D02*
X92075000Y-72025000D01*
X92345000Y-71755000D02*
X92075000Y-72025000D01*
X92075000Y-72025000D02*
X92075000Y-77200000D01*
X92075000Y-77200000D02*
X92345000Y-77470000D01*
X92345000Y-77470000D02*
X93345000Y-77470000D01*
X93345000Y-71755000D02*
X92345000Y-71755000D01*
X92345000Y-71755000D02*
X92075000Y-71485000D01*
X92075000Y-71485000D02*
X92075000Y-67945000D01*
X87630000Y-59055000D02*
X91075000Y-59055000D01*
X91075000Y-59055000D02*
X92345000Y-60325000D01*
X92345000Y-60325000D02*
X93345000Y-60325000D01*
X86995000Y-58420000D02*
X87630000Y-59055000D01*
X76480051Y-58420000D02*
X86995000Y-58420000D01*
X76200000Y-57150000D02*
X76200000Y-58139949D01*
X76200000Y-58139949D02*
X76480051Y-58420000D01*
X92075000Y-53975000D02*
X92075000Y-55075000D01*
X92075000Y-55075000D02*
X94150000Y-57150000D01*
X94150000Y-57150000D02*
X94895051Y-57150000D01*
X94895051Y-57150000D02*
X95885000Y-57150000D01*
X92075000Y-54610000D02*
X92075000Y-53975000D01*
X95885000Y-57150000D02*
X98425000Y-59690000D01*
X98425000Y-59690000D02*
X98425000Y-60325000D01*
X76835000Y-88095000D02*
X76835000Y-89200000D01*
X76835000Y-89200000D02*
X77805000Y-90170000D01*
X77805000Y-90170000D02*
X78105000Y-90170000D01*
X73660000Y-83820000D02*
X73660000Y-84920000D01*
X73660000Y-84920000D02*
X76835000Y-88095000D01*
X75565000Y-82085000D02*
X75565000Y-83185000D01*
X75565000Y-83185000D02*
X76835000Y-84455000D01*
X76835000Y-84455000D02*
X77105000Y-84455000D01*
X77105000Y-84455000D02*
X78105000Y-84455000D01*
X73660000Y-81280000D02*
X74760000Y-81280000D01*
X74760000Y-81280000D02*
X75565000Y-82085000D01*
X77805000Y-84455000D02*
X78105000Y-84455000D01*
X73660000Y-78740000D02*
X78105000Y-78740000D01*
X73660000Y-76200000D02*
X76835000Y-73025000D01*
X76835000Y-73025000D02*
X78105000Y-73025000D01*
X73660000Y-73660000D02*
X74930000Y-73660000D01*
X74930000Y-73660000D02*
X76835000Y-71755000D01*
X76835000Y-71755000D02*
X76835000Y-67580000D01*
X76835000Y-67580000D02*
X77105000Y-67310000D01*
X77105000Y-67310000D02*
X78105000Y-67310000D01*
X52070000Y-30480000D02*
X51435000Y-30480000D01*
X51435000Y-30480000D02*
X48895000Y-33020000D01*
X57785000Y-27940000D02*
X56785000Y-27940000D01*
X56785000Y-27940000D02*
X55245000Y-29480000D01*
X55245000Y-29480000D02*
X55245000Y-30480000D01*
X127635000Y-38100000D02*
X128905000Y-36830000D01*
X128905000Y-36830000D02*
X132080000Y-36830000D01*
X132080000Y-36830000D02*
X132715000Y-36195000D01*
X132715000Y-36195000D02*
X134620000Y-36195000D01*
X134620000Y-36195000D02*
X137160000Y-33655000D01*
X137160000Y-33655000D02*
X137430000Y-33655000D01*
X137430000Y-33655000D02*
X138430000Y-33655000D01*
X136525000Y-32385000D02*
X138430000Y-32385000D01*
X135255000Y-33655000D02*
X136525000Y-32385000D01*
X133985000Y-33655000D02*
X135255000Y-33655000D01*
X132715000Y-41910000D02*
X129540000Y-41910000D01*
X132080000Y-33655000D02*
X133985000Y-33655000D01*
X129540000Y-41910000D02*
X126365000Y-38735000D01*
X127635000Y-36195000D02*
X130175000Y-36195000D01*
X126365000Y-38735000D02*
X126365000Y-37465000D01*
X126365000Y-37465000D02*
X127635000Y-36195000D01*
X130175000Y-36195000D02*
X131445000Y-34925000D01*
X131445000Y-34925000D02*
X131445000Y-34290000D01*
X131445000Y-34290000D02*
X132080000Y-33655000D01*
X48895000Y-35560000D02*
X50800000Y-33655000D01*
X50800000Y-33655000D02*
X52705000Y-33655000D01*
X132080000Y-32385000D02*
X133985000Y-32385000D01*
X131445000Y-31750000D02*
X132080000Y-32385000D01*
X131445000Y-28575000D02*
X131445000Y-31750000D01*
X130810000Y-27940000D02*
X131445000Y-28575000D01*
X128905000Y-27940000D02*
X130810000Y-27940000D01*
X96885000Y-36195000D02*
X104776410Y-36195000D01*
X104776410Y-36195000D02*
X107316410Y-33655000D01*
X107316410Y-33655000D02*
X107585000Y-33655000D01*
X107585000Y-33655000D02*
X108585000Y-33655000D01*
X93345000Y-33655000D02*
X94345000Y-33655000D01*
X94345000Y-33655000D02*
X96885000Y-36195000D01*
X81645000Y-36195000D02*
X84456410Y-36195000D01*
X84456410Y-36195000D02*
X86996410Y-33655000D01*
X86996410Y-33655000D02*
X87265000Y-33655000D01*
X87265000Y-33655000D02*
X88265000Y-33655000D01*
X78105000Y-33655000D02*
X79105000Y-33655000D01*
X79105000Y-33655000D02*
X81645000Y-36195000D01*
X52705000Y-33655000D02*
X53220002Y-33655000D01*
X53220002Y-33655000D02*
X55760002Y-36195000D01*
X55760002Y-36195000D02*
X74296410Y-36195000D01*
X74296410Y-36195000D02*
X76836410Y-33655000D01*
X77105000Y-33655000D02*
X78105000Y-33655000D01*
X76836410Y-33655000D02*
X77105000Y-33655000D01*
X108585000Y-33655000D02*
X113665000Y-33655000D01*
X88265000Y-33655000D02*
X93345000Y-33655000D01*
X54610000Y-16510000D02*
X72390000Y-16510000D01*
X72390000Y-16510000D02*
X73025000Y-17145000D01*
X53975000Y-17145000D02*
X54610000Y-16510000D01*
X60960000Y-20320000D02*
X60325000Y-19685000D01*
X60325000Y-19685000D02*
X57911029Y-19685000D01*
X57911029Y-19685000D02*
X53975000Y-19685000D01*
X64135000Y-26035000D02*
X63710736Y-26035000D01*
X63710736Y-26035000D02*
X60960000Y-23284264D01*
X60960000Y-23284264D02*
X60960000Y-21590000D01*
X62865000Y-33655000D02*
X63165000Y-33655000D01*
X63165000Y-33655000D02*
X64135000Y-32685000D01*
X64135000Y-32685000D02*
X64135000Y-32511029D01*
X64135000Y-32511029D02*
X64135000Y-27305000D01*
X83185000Y-16510000D02*
X82550000Y-17145000D01*
X82550000Y-17145000D02*
X73025000Y-17145000D01*
X86995000Y-16510000D02*
X83185000Y-16510000D01*
X98425000Y-16510000D02*
X86995000Y-16510000D01*
X99050001Y-17135001D02*
X98425000Y-16510000D01*
X100330000Y-17145000D02*
X99060000Y-17145000D01*
X99060000Y-17145000D02*
X99050001Y-17135001D01*
X102235000Y-17145000D02*
X100330000Y-17145000D01*
X103505000Y-20955000D02*
X104505000Y-20955000D01*
X104505000Y-20955000D02*
X108585000Y-20955000D01*
X108585000Y-20955000D02*
X108585000Y-19050000D01*
X108585000Y-19050000D02*
X109220000Y-18415000D01*
X111760000Y-22225000D02*
X113665000Y-22225000D01*
X110490000Y-20955000D02*
X111760000Y-22225000D01*
X108585000Y-20955000D02*
X110490000Y-20955000D01*
X52705000Y-32385000D02*
X52705000Y-29210000D01*
X54610000Y-33020000D02*
X53975000Y-32385000D01*
X53975000Y-32385000D02*
X52705000Y-32385000D01*
X54610000Y-34290000D02*
X54610000Y-33020000D01*
X55245000Y-34925000D02*
X54610000Y-34290000D01*
X57785000Y-34925000D02*
X55245000Y-34925000D01*
X62865000Y-34925000D02*
X57785000Y-34925000D01*
X97790000Y-31115000D02*
X96520000Y-29845000D01*
X96520000Y-29845000D02*
X96520000Y-23495000D01*
X99965000Y-31115000D02*
X97790000Y-31115000D01*
X103505000Y-33655000D02*
X102505000Y-33655000D01*
X102505000Y-33655000D02*
X99965000Y-31115000D01*
X78105000Y-22860000D02*
X80010000Y-20955000D01*
X80010000Y-20955000D02*
X83185000Y-20955000D01*
X88265000Y-20955000D02*
X88265000Y-19050000D01*
X88265000Y-19050000D02*
X88900000Y-18415000D01*
X83185000Y-20955000D02*
X88265000Y-20955000D01*
X91440000Y-22225000D02*
X93345000Y-22225000D01*
X90170000Y-20955000D02*
X91440000Y-22225000D01*
X88265000Y-20955000D02*
X90170000Y-20955000D01*
X78740000Y-30480000D02*
X81915000Y-33655000D01*
X81915000Y-33655000D02*
X83185000Y-33655000D01*
X71755000Y-30480000D02*
X74930000Y-30480000D01*
X71120000Y-29845000D02*
X71755000Y-30480000D01*
X71120000Y-29210000D02*
X71120000Y-29845000D01*
X71120000Y-29090002D02*
X71120000Y-29210000D01*
X71120000Y-25400000D02*
X71120000Y-29090002D01*
X67945000Y-22225000D02*
X68945000Y-22225000D01*
X68945000Y-22225000D02*
X69850000Y-23130000D01*
X69850000Y-23130000D02*
X69850000Y-25400000D01*
X52705000Y-27940000D02*
X51435000Y-27940000D01*
X51435000Y-27940000D02*
X50800000Y-27305000D01*
X50800000Y-27305000D02*
X50800000Y-26670000D01*
X50800000Y-26670000D02*
X56515000Y-20955000D01*
X56515000Y-20955000D02*
X57785000Y-20955000D01*
X62865000Y-20955000D02*
X62865000Y-19050000D01*
X62865000Y-19050000D02*
X63500000Y-18415000D01*
X57785000Y-20955000D02*
X62865000Y-20955000D01*
X66040000Y-22225000D02*
X67945000Y-22225000D01*
X64770000Y-20955000D02*
X66040000Y-22225000D01*
X62865000Y-20955000D02*
X64770000Y-20955000D01*
X57785000Y-26670000D02*
X57785000Y-23495000D01*
X82550000Y-31115000D02*
X79375000Y-27940000D01*
X85090000Y-31115000D02*
X82550000Y-31115000D01*
X93345000Y-31115000D02*
X86360000Y-31115000D01*
X94613590Y-31115000D02*
X93345000Y-31115000D01*
X97155000Y-33655000D02*
X96335010Y-32835010D01*
X96335010Y-32835010D02*
X96333599Y-32835009D01*
X96333599Y-32835009D02*
X94613590Y-31115000D01*
X98425000Y-33655000D02*
X97155000Y-33655000D01*
X67945000Y-20955000D02*
X73025000Y-20955000D01*
X78105000Y-27940000D02*
X79375000Y-27940000D01*
X79375000Y-27940000D02*
X80010000Y-27305000D01*
X80010000Y-27305000D02*
X80010000Y-26670000D01*
X80010000Y-26670000D02*
X74295000Y-20955000D01*
X74295000Y-20955000D02*
X73025000Y-20955000D01*
X66040000Y-18415000D02*
X67945000Y-20320000D01*
X67945000Y-20320000D02*
X67945000Y-20955000D01*
X76200000Y-21590000D02*
X78105000Y-19685000D01*
X78105000Y-19685000D02*
X78740000Y-19685000D01*
X74930000Y-29210000D02*
X74930000Y-22860000D01*
X67945000Y-33655000D02*
X70358971Y-33655000D01*
X70358971Y-33655000D02*
X72898971Y-31115000D01*
X72898971Y-31115000D02*
X73660000Y-31115000D01*
X120015000Y-19685000D02*
X118745000Y-20955000D01*
X130175000Y-19685000D02*
X120015000Y-19685000D01*
X130810000Y-20320000D02*
X130175000Y-19685000D01*
X130810000Y-21590000D02*
X130810000Y-20320000D01*
X130175000Y-22225000D02*
X130810000Y-21590000D01*
X128905000Y-22225000D02*
X130175000Y-22225000D01*
X113665000Y-20955000D02*
X118745000Y-20955000D01*
X111760000Y-18415000D02*
X113665000Y-20320000D01*
X113665000Y-20320000D02*
X113665000Y-20955000D01*
X71755000Y-34290000D02*
X71755000Y-33355000D01*
X71755000Y-33355000D02*
X72725000Y-32385000D01*
X72725000Y-32385000D02*
X73025000Y-32385000D01*
X71120000Y-34925000D02*
X71755000Y-34290000D01*
X67945000Y-34925000D02*
X71120000Y-34925000D01*
X85725000Y-21590000D02*
X86360000Y-22225000D01*
X86360000Y-22225000D02*
X88265000Y-22225000D01*
X81280000Y-28575000D02*
X81280000Y-26035000D01*
X81280000Y-26035000D02*
X82550000Y-24765000D01*
X73025000Y-33655000D02*
X73325000Y-33655000D01*
X73325000Y-33655000D02*
X74930000Y-32050000D01*
X74930000Y-32050000D02*
X74930000Y-31876029D01*
X74930000Y-31876029D02*
X74930000Y-31280003D01*
X105410000Y-31115000D02*
X100965000Y-31115000D01*
X100965000Y-31115000D02*
X100330000Y-30480000D01*
X100330000Y-30480000D02*
X100330000Y-21590000D01*
X100330000Y-21590000D02*
X99695000Y-20955000D01*
X99695000Y-20955000D02*
X98425000Y-20955000D01*
X114935000Y-31116410D02*
X106681410Y-31116410D01*
X106681410Y-31116410D02*
X106680000Y-31115000D01*
X118745000Y-33655000D02*
X117473590Y-33655000D01*
X117473590Y-33655000D02*
X114935000Y-31116410D01*
X91440000Y-18415000D02*
X93345000Y-20320000D01*
X93345000Y-20320000D02*
X93345000Y-20955000D01*
X93345000Y-20955000D02*
X98425000Y-20955000D01*
X76200000Y-26670000D02*
X78105000Y-26670000D01*
X75565000Y-27305000D02*
X76200000Y-26670000D01*
X75565000Y-34290000D02*
X75565000Y-27305000D01*
X74930000Y-34925000D02*
X75565000Y-34290000D01*
X73025000Y-34925000D02*
X74930000Y-34925000D01*
X78105000Y-29210000D02*
X78105000Y-32385000D01*
X73025000Y-23495000D02*
X73025000Y-24195000D01*
X73025000Y-24195000D02*
X73025000Y-26670000D01*
X85090000Y-34925000D02*
X83185000Y-34925000D01*
X85725000Y-34290000D02*
X85090000Y-34925000D01*
X85725000Y-33020000D02*
X85725000Y-34290000D01*
X86360000Y-32385000D02*
X85725000Y-33020000D01*
X88265000Y-32385000D02*
X86360000Y-32385000D01*
X83185000Y-23495000D02*
X83185000Y-26670000D01*
X94615000Y-32385000D02*
X93345000Y-32385000D01*
X97155000Y-34925000D02*
X94615000Y-32385000D01*
X98425000Y-34925000D02*
X97155000Y-34925000D01*
X98425000Y-23495000D02*
X98425000Y-26670000D01*
X106680000Y-32385000D02*
X108585000Y-32385000D01*
X106045000Y-33020000D02*
X106680000Y-32385000D01*
X106045000Y-34290000D02*
X106045000Y-33020000D01*
X105410000Y-34925000D02*
X106045000Y-34290000D01*
X103505000Y-34925000D02*
X105410000Y-34925000D01*
X103505000Y-23495000D02*
X103505000Y-24195000D01*
X103505000Y-24195000D02*
X103505000Y-26670000D01*
X117475000Y-34925000D02*
X114935000Y-32385000D01*
X114935000Y-32385000D02*
X113665000Y-32385000D01*
X118745000Y-34925000D02*
X117475000Y-34925000D01*
X118745000Y-23495000D02*
X118745000Y-24195000D01*
X118745000Y-24195000D02*
X118745000Y-26670000D01*
X123825000Y-26670000D02*
X123825000Y-23495000D01*
X128905000Y-23495000D02*
X128905000Y-26670000D01*
X123190000Y-91440000D02*
X122190000Y-91440000D01*
X121920000Y-96885000D02*
X122190000Y-97155000D01*
X122190000Y-91440000D02*
X121920000Y-91710000D01*
X121920000Y-91710000D02*
X121920000Y-96885000D01*
X122190000Y-97155000D02*
X123190000Y-97155000D01*
X123190000Y-97155000D02*
X123190000Y-100203971D01*
X123190000Y-100203971D02*
X123190000Y-100330000D01*
X127000000Y-79740000D02*
X127000000Y-80280000D01*
X127270000Y-80010000D02*
X127000000Y-80280000D01*
X127000000Y-80280000D02*
X127000000Y-85455000D01*
X127000000Y-85455000D02*
X127270000Y-85725000D01*
X127270000Y-85725000D02*
X128270000Y-85725000D01*
X128270000Y-74295000D02*
X127270000Y-74295000D01*
X127270000Y-74295000D02*
X127000000Y-74565000D01*
X127000000Y-74565000D02*
X127000000Y-79740000D01*
X127270000Y-80010000D02*
X128270000Y-80010000D01*
X127000000Y-79740000D02*
X127270000Y-80010000D01*
X128270000Y-88900000D02*
X128270000Y-85725000D01*
X124460000Y-88900000D02*
X127000000Y-91440000D01*
X127000000Y-91440000D02*
X128270000Y-91440000D01*
X123190000Y-88900000D02*
X124460000Y-88900000D01*
X123190000Y-88900000D02*
X123190000Y-88200000D01*
X123190000Y-88200000D02*
X123190000Y-85725000D01*
X123190000Y-74295000D02*
X123190000Y-77470000D01*
X123190000Y-80010000D02*
X123190000Y-83185000D01*
X88265000Y-90170000D02*
X86360000Y-90170000D01*
X85725000Y-99695000D02*
X85090000Y-100330000D01*
X86360000Y-90170000D02*
X85725000Y-90805000D01*
X85090000Y-109220000D02*
X84455000Y-109855000D01*
X85725000Y-90805000D02*
X85725000Y-99695000D01*
X85090000Y-100330000D02*
X85090000Y-109220000D01*
X84455000Y-109855000D02*
X81915000Y-109855000D01*
X81915000Y-109855000D02*
X79375000Y-107315000D01*
X78105000Y-107315000D02*
X79375000Y-107315000D01*
X79375000Y-107315000D02*
X80010000Y-106680000D01*
X80010000Y-106680000D02*
X80010000Y-104775000D01*
X80010000Y-104775000D02*
X79375000Y-104140000D01*
X79375000Y-104140000D02*
X76835000Y-104140000D01*
X76200000Y-95250000D02*
X76835000Y-94615000D01*
X76835000Y-104140000D02*
X76200000Y-103505000D01*
X76200000Y-103505000D02*
X76200000Y-95250000D01*
X76835000Y-94615000D02*
X78105000Y-94615000D01*
X73660000Y-88265000D02*
X73660000Y-90470000D01*
X73660000Y-90470000D02*
X77805000Y-94615000D01*
X77805000Y-94615000D02*
X78105000Y-94615000D01*
X76835000Y-60595000D02*
X76835000Y-64070000D01*
X76835000Y-64070000D02*
X78105000Y-65340000D01*
X78105000Y-65340000D02*
X78105000Y-66040000D01*
X78105000Y-60325000D02*
X77105000Y-60325000D01*
X77105000Y-60325000D02*
X76835000Y-60595000D01*
X78105000Y-107315000D02*
X77805000Y-107315000D01*
X78105000Y-97155000D02*
X78105000Y-100330000D01*
X78105000Y-97155000D02*
X83185000Y-97155000D01*
X73660000Y-103505000D02*
X75114990Y-104959990D01*
X75114990Y-104959990D02*
X75114991Y-104961401D01*
X88900000Y-104140000D02*
X89535000Y-103505000D01*
X75114991Y-104961401D02*
X75565000Y-105411410D01*
X87630000Y-104140000D02*
X88900000Y-104140000D01*
X89535000Y-103505000D02*
X89535000Y-100600000D01*
X75565000Y-105411410D02*
X75565000Y-109220000D01*
X75565000Y-109220000D02*
X77470000Y-111125000D01*
X77470000Y-111125000D02*
X85725000Y-111125000D01*
X86360000Y-110490000D02*
X86360000Y-105410000D01*
X86360000Y-105410000D02*
X87630000Y-104140000D01*
X85725000Y-111125000D02*
X86360000Y-110490000D01*
X89535000Y-100600000D02*
X89265000Y-100330000D01*
X88265000Y-66040000D02*
X89265000Y-66040000D01*
X89265000Y-66040000D02*
X89535000Y-65770000D01*
X89535000Y-65770000D02*
X89535000Y-61865000D01*
X89265000Y-61595000D02*
X88265000Y-61595000D01*
X89535000Y-61865000D02*
X89265000Y-61595000D01*
X89265000Y-88900000D02*
X90170000Y-89805000D01*
X90170000Y-89805000D02*
X90535000Y-90170000D01*
X90170000Y-90170000D02*
X90170000Y-89805000D01*
X90535000Y-90170000D02*
X90805000Y-90170000D01*
X90805000Y-90170000D02*
X92345000Y-90170000D01*
X89535000Y-90805000D02*
X90170000Y-90170000D01*
X90170000Y-90170000D02*
X90805000Y-90170000D01*
X89535000Y-100060000D02*
X89535000Y-90805000D01*
X89265000Y-100330000D02*
X89535000Y-100060000D01*
X89265000Y-100330000D02*
X88265000Y-100330000D01*
X87265000Y-66040000D02*
X88265000Y-66040000D01*
X88265000Y-88900000D02*
X89265000Y-88900000D01*
X92345000Y-90170000D02*
X93345000Y-90170000D01*
X86995000Y-72025000D02*
X86995000Y-71485000D01*
X87265000Y-71755000D02*
X86995000Y-71485000D01*
X86995000Y-71485000D02*
X86995000Y-66310000D01*
X86995000Y-66310000D02*
X87265000Y-66040000D01*
X86995000Y-88630000D02*
X86995000Y-83820000D01*
X86995000Y-83820000D02*
X86995000Y-83455000D01*
X86995000Y-76835000D02*
X86995000Y-83820000D01*
X86995000Y-78105000D02*
X86995000Y-77740000D01*
X86995000Y-82915000D02*
X86995000Y-78105000D01*
X86995000Y-78105000D02*
X86995000Y-76835000D01*
X87265000Y-77470000D02*
X86995000Y-77200000D01*
X86995000Y-77200000D02*
X86995000Y-72025000D01*
X86995000Y-72025000D02*
X87265000Y-71755000D01*
X87265000Y-71755000D02*
X88265000Y-71755000D01*
X87265000Y-83185000D02*
X86995000Y-82915000D01*
X86995000Y-77740000D02*
X87265000Y-77470000D01*
X87265000Y-77470000D02*
X88265000Y-77470000D01*
X88265000Y-88900000D02*
X87265000Y-88900000D01*
X87265000Y-88900000D02*
X86995000Y-88630000D01*
X86995000Y-83455000D02*
X87265000Y-83185000D01*
X87265000Y-83185000D02*
X88265000Y-83185000D01*
X78105000Y-91440000D02*
X78105000Y-92140000D01*
X78105000Y-92140000D02*
X80580000Y-94615000D01*
X80580000Y-94615000D02*
X82185000Y-94615000D01*
X82185000Y-94615000D02*
X83185000Y-94615000D01*
X83185000Y-102870000D02*
X83185000Y-106045000D01*
X83185000Y-102870000D02*
X78105000Y-102870000D01*
X78105000Y-85725000D02*
X78105000Y-86425000D01*
X78105000Y-86425000D02*
X80580000Y-88900000D01*
X80580000Y-88900000D02*
X82185000Y-88900000D01*
X82185000Y-88900000D02*
X83185000Y-88900000D01*
X84455000Y-93410000D02*
X84455000Y-98360000D01*
X84455000Y-98360000D02*
X83185000Y-99630000D01*
X83185000Y-99630000D02*
X83185000Y-100330000D01*
X83185000Y-91440000D02*
X83185000Y-92140000D01*
X83185000Y-92140000D02*
X84455000Y-93410000D01*
X83185000Y-85725000D02*
X83185000Y-86425000D01*
X83185000Y-86425000D02*
X84455000Y-87695000D01*
X84455000Y-87695000D02*
X84455000Y-91170000D01*
X84455000Y-91170000D02*
X84185000Y-91440000D01*
X84185000Y-91440000D02*
X83185000Y-91440000D01*
X78105000Y-80010000D02*
X78105000Y-80710000D01*
X78105000Y-80710000D02*
X80580000Y-83185000D01*
X80580000Y-83185000D02*
X82185000Y-83185000D01*
X82185000Y-83185000D02*
X83185000Y-83185000D01*
X78105000Y-74295000D02*
X78105000Y-74995000D01*
X78105000Y-74995000D02*
X80580000Y-77470000D01*
X80580000Y-77470000D02*
X82185000Y-77470000D01*
X82185000Y-77470000D02*
X83185000Y-77470000D01*
X83185000Y-74295000D02*
X83185000Y-74995000D01*
X83185000Y-74995000D02*
X84455000Y-76265000D01*
X84455000Y-76265000D02*
X84455000Y-79740000D01*
X84455000Y-79740000D02*
X84185000Y-80010000D01*
X84185000Y-80010000D02*
X83185000Y-80010000D01*
X83185000Y-66040000D02*
X84185000Y-66040000D01*
X84185000Y-66040000D02*
X84455000Y-66310000D01*
X84455000Y-66310000D02*
X84455000Y-74025000D01*
X84455000Y-74025000D02*
X84185000Y-74295000D01*
X84185000Y-74295000D02*
X83185000Y-74295000D01*
X78105000Y-62865000D02*
X81280000Y-62865000D01*
X81280000Y-62865000D02*
X81915000Y-62230000D01*
X81915000Y-62230000D02*
X81915000Y-60595000D01*
X81915000Y-60595000D02*
X82185000Y-60325000D01*
X82185000Y-60325000D02*
X83185000Y-60325000D01*
X83185000Y-68580000D02*
X80010000Y-68580000D01*
X80010000Y-68580000D02*
X79375000Y-67945000D01*
X79375000Y-67945000D02*
X79375000Y-65405000D01*
X79375000Y-65405000D02*
X78105000Y-64135000D01*
X78105000Y-64135000D02*
X78105000Y-62865000D01*
X76835000Y-106045000D02*
X76200000Y-106680000D01*
X76200000Y-106680000D02*
X76200000Y-108585000D01*
X76200000Y-108585000D02*
X78105000Y-110490000D01*
X85725000Y-109855000D02*
X85725000Y-102870000D01*
X78105000Y-110490000D02*
X85090000Y-110490000D01*
X85090000Y-110490000D02*
X85725000Y-109855000D01*
X85725000Y-102870000D02*
X86995000Y-101600000D01*
X86995000Y-101600000D02*
X88265000Y-101600000D01*
X73660000Y-100965000D02*
X75565000Y-102870000D01*
X75565000Y-102870000D02*
X75565000Y-104775000D01*
X75565000Y-104775000D02*
X76835000Y-106045000D01*
X76835000Y-106045000D02*
X78105000Y-106045000D01*
X78105000Y-68580000D02*
X78105000Y-69280000D01*
X78105000Y-69280000D02*
X80580000Y-71755000D01*
X80580000Y-71755000D02*
X82185000Y-71755000D01*
X82185000Y-71755000D02*
X83185000Y-71755000D01*
X88265000Y-91440000D02*
X88265000Y-94615000D01*
X88265000Y-60325000D02*
X87630000Y-60325000D01*
X87630000Y-60325000D02*
X86360000Y-59055000D01*
X86360000Y-59055000D02*
X77470000Y-59055000D01*
X75565000Y-65405000D02*
X73660000Y-65405000D01*
X77470000Y-59055000D02*
X76200000Y-60325000D01*
X76200000Y-60325000D02*
X76200000Y-64770000D01*
X76200000Y-64770000D02*
X75565000Y-65405000D01*
X88265000Y-60325000D02*
X91440000Y-60325000D01*
X91440000Y-60325000D02*
X92075000Y-60960000D01*
X92075000Y-60960000D02*
X92075000Y-67040000D01*
X92345000Y-67310000D02*
X93345000Y-67310000D01*
X92075000Y-67040000D02*
X92345000Y-67310000D01*
X102235000Y-89535000D02*
X102235000Y-89900000D01*
X102235000Y-89900000D02*
X102505000Y-90170000D01*
X102505000Y-90170000D02*
X103505000Y-90170000D01*
X101600000Y-88900000D02*
X102235000Y-89535000D01*
X98425000Y-88900000D02*
X101600000Y-88900000D01*
X95250000Y-76835000D02*
X95250000Y-72390000D01*
X95250000Y-88900000D02*
X95250000Y-78105000D01*
X95250000Y-94615000D02*
X95250000Y-88900000D01*
X95250000Y-88900000D02*
X96520000Y-88900000D01*
X95885000Y-71755000D02*
X98425000Y-71755000D01*
X95250000Y-72390000D02*
X95885000Y-71755000D01*
X95885000Y-77470000D02*
X95250000Y-76835000D01*
X95250000Y-78105000D02*
X95885000Y-77470000D01*
X95885000Y-77470000D02*
X98425000Y-77470000D01*
X94615000Y-95250000D02*
X95250000Y-94615000D01*
X94615000Y-95615000D02*
X94615000Y-95250000D01*
X94345000Y-95885000D02*
X94615000Y-95615000D01*
X94615000Y-96155000D02*
X94615000Y-109855000D01*
X94615000Y-109855000D02*
X95885000Y-111125000D01*
X93345000Y-95885000D02*
X94345000Y-95885000D01*
X94345000Y-95885000D02*
X94615000Y-96155000D01*
X98425000Y-94615000D02*
X97425000Y-94615000D01*
X97425000Y-94615000D02*
X97155000Y-94885000D01*
X97155000Y-94885000D02*
X97155000Y-100060000D01*
X97155000Y-100060000D02*
X97425000Y-100330000D01*
X97425000Y-100330000D02*
X98425000Y-100330000D01*
X98425000Y-85725000D02*
X97425000Y-85725000D01*
X97425000Y-85725000D02*
X97155000Y-85995000D01*
X97425000Y-91440000D02*
X98425000Y-91440000D01*
X97155000Y-85995000D02*
X97155000Y-91170000D01*
X97155000Y-91170000D02*
X97425000Y-91440000D01*
X98425000Y-91440000D02*
X98425000Y-92140000D01*
X98425000Y-92140000D02*
X98425000Y-94615000D01*
X98425000Y-97155000D02*
X99425000Y-97155000D01*
X99425000Y-97155000D02*
X99695000Y-97425000D01*
X99695000Y-97425000D02*
X99695000Y-102600000D01*
X99695000Y-102600000D02*
X99425000Y-102870000D01*
X99425000Y-102870000D02*
X98425000Y-102870000D01*
X98425000Y-102870000D02*
X98425000Y-106045000D01*
X98425000Y-108585000D02*
X101600000Y-108585000D01*
X101600000Y-108585000D02*
X102235000Y-107950000D01*
X102235000Y-107950000D02*
X102235000Y-100600000D01*
X102235000Y-100600000D02*
X102505000Y-100330000D01*
X102505000Y-100330000D02*
X103505000Y-100330000D01*
X103505000Y-102870000D02*
X103505000Y-103570000D01*
X103505000Y-103570000D02*
X103505000Y-106045000D01*
X98425000Y-74295000D02*
X99425000Y-74295000D01*
X99425000Y-74295000D02*
X99695000Y-74565000D01*
X99695000Y-74565000D02*
X99695000Y-79740000D01*
X99695000Y-79740000D02*
X99425000Y-80010000D01*
X99425000Y-80010000D02*
X98425000Y-80010000D01*
X98425000Y-80010000D02*
X98425000Y-83185000D01*
X93345000Y-106045000D02*
X93345000Y-105345000D01*
X93345000Y-105345000D02*
X93345000Y-102870000D01*
X98425000Y-62865000D02*
X98425000Y-66040000D01*
X93345000Y-62865000D02*
X93345000Y-66040000D01*
X106045000Y-91440000D02*
X105410000Y-90805000D01*
X105410000Y-90805000D02*
X105410000Y-88900000D01*
X108585000Y-91440000D02*
X106045000Y-91440000D01*
X102235000Y-74565000D02*
X102235000Y-74025000D01*
X102505000Y-74295000D02*
X102235000Y-74025000D01*
X102235000Y-74025000D02*
X102235000Y-68850000D01*
X102235000Y-68850000D02*
X102505000Y-68580000D01*
X102505000Y-68580000D02*
X103505000Y-68580000D01*
X103505000Y-80010000D02*
X102505000Y-80010000D01*
X102505000Y-80010000D02*
X102235000Y-79740000D01*
X102235000Y-79740000D02*
X102235000Y-74565000D01*
X102235000Y-74565000D02*
X102505000Y-74295000D01*
X102505000Y-74295000D02*
X103505000Y-74295000D01*
X103505000Y-88900000D02*
X102505000Y-88900000D01*
X102505000Y-88900000D02*
X102235000Y-88630000D01*
X102235000Y-88630000D02*
X102235000Y-83455000D01*
X102235000Y-83455000D02*
X102505000Y-83185000D01*
X102505000Y-83185000D02*
X103505000Y-83185000D01*
X103505000Y-83185000D02*
X103505000Y-80010000D01*
X103505000Y-66040000D02*
X103505000Y-62865000D01*
X103505000Y-85725000D02*
X104505000Y-85725000D01*
X104505000Y-91440000D02*
X103505000Y-91440000D01*
X104505000Y-85725000D02*
X104775000Y-85995000D01*
X104775000Y-85995000D02*
X104775000Y-91170000D01*
X104775000Y-91170000D02*
X104505000Y-91440000D01*
X103505000Y-91440000D02*
X103505000Y-94615000D01*
X111125000Y-85725000D02*
X108585000Y-85725000D01*
X108585000Y-74295000D02*
X108585000Y-75565000D01*
X108585000Y-75565000D02*
X111125000Y-78105000D01*
X109855000Y-68310000D02*
X109855000Y-68850000D01*
X109585000Y-68580000D02*
X109855000Y-68850000D01*
X109855000Y-68850000D02*
X109855000Y-74025000D01*
X109855000Y-74025000D02*
X109585000Y-74295000D01*
X109585000Y-74295000D02*
X108585000Y-74295000D01*
X108585000Y-62865000D02*
X109585000Y-62865000D01*
X109585000Y-62865000D02*
X109855000Y-63135000D01*
X109855000Y-63135000D02*
X109855000Y-68310000D01*
X109855000Y-68310000D02*
X109585000Y-68580000D01*
X109585000Y-68580000D02*
X108585000Y-68580000D01*
X108585000Y-85725000D02*
X108585000Y-88900000D01*
X113665000Y-68580000D02*
X113665000Y-71755000D01*
X113665000Y-80010000D02*
X113665000Y-83185000D01*
X113665000Y-83058971D02*
X113665000Y-83185000D01*
X111125000Y-82550000D02*
X110490000Y-83185000D01*
X110490000Y-83185000D02*
X108585000Y-83185000D01*
X111125000Y-80645000D02*
X111125000Y-82550000D01*
X110490000Y-80010000D02*
X111125000Y-80645000D01*
X108585000Y-80010000D02*
X110490000Y-80010000D01*
X54610000Y-67310000D02*
X56515000Y-67310000D01*
X53975000Y-66675000D02*
X54610000Y-67310000D01*
X53975000Y-65405000D02*
X53975000Y-66675000D01*
X53340000Y-64770000D02*
X53975000Y-65405000D01*
X51435000Y-64770000D02*
X53340000Y-64770000D01*
X59690000Y-67310000D02*
X61595000Y-67310000D01*
X59055000Y-66675000D02*
X59690000Y-67310000D01*
X59055000Y-65405000D02*
X59055000Y-66675000D01*
X58420000Y-64770000D02*
X59055000Y-65405000D01*
X56515000Y-64770000D02*
X58420000Y-64770000D01*
X61595000Y-64770000D02*
X63500000Y-64770000D01*
X63500000Y-64770000D02*
X64135000Y-65405000D01*
X64135000Y-65405000D02*
X64135000Y-66675000D01*
X64135000Y-66675000D02*
X64770000Y-67310000D01*
X64770000Y-67310000D02*
X66801029Y-67310000D01*
X66801029Y-67310000D02*
X66675000Y-67310000D01*
X62230000Y-104775000D02*
X62230000Y-107950000D01*
X67310000Y-104775000D02*
X62230000Y-104775000D01*
X65405000Y-108585000D02*
X66040000Y-107950000D01*
X66040000Y-107950000D02*
X67310000Y-107950000D01*
X65405000Y-109855000D02*
X65405000Y-108585000D01*
X64770000Y-110490000D02*
X65405000Y-109855000D01*
X62230000Y-110490000D02*
X64770000Y-110490000D01*
X46990000Y-102235000D02*
X50445002Y-102235000D01*
X50445002Y-102235000D02*
X52985002Y-99695000D01*
X52985002Y-99695000D02*
X53340000Y-99695000D01*
X52070000Y-102235000D02*
X54390000Y-102235000D01*
X54390000Y-102235000D02*
X55880000Y-100745000D01*
X55880000Y-100745000D02*
X55880000Y-99695000D01*
X57150000Y-102235000D02*
X58150000Y-102235000D01*
X58150000Y-102235000D02*
X58420000Y-101965000D01*
X58420000Y-101965000D02*
X58420000Y-100745000D01*
X58420000Y-100745000D02*
X58420000Y-99695000D01*
X66040000Y-99695000D02*
X66040000Y-101265000D01*
X66040000Y-101265000D02*
X67010000Y-102235000D01*
X67010000Y-102235000D02*
X67310000Y-102235000D01*
X68580000Y-99695000D02*
X66040000Y-99695000D01*
X63500000Y-99695000D02*
X66040000Y-99695000D01*
X60960000Y-99695000D02*
X62010000Y-99695000D01*
X62010000Y-99695000D02*
X63500000Y-99695000D01*
X62230000Y-102235000D02*
X63230000Y-102235000D01*
X63230000Y-102235000D02*
X63500000Y-101965000D01*
X63500000Y-101965000D02*
X63500000Y-100745000D01*
X63500000Y-100745000D02*
X63500000Y-99695000D01*
X57150000Y-104775000D02*
X58150000Y-104775000D01*
X58150000Y-104775000D02*
X60690000Y-102235000D01*
X60690000Y-102235000D02*
X61230000Y-102235000D01*
X61230000Y-102235000D02*
X62230000Y-102235000D01*
X52070000Y-104775000D02*
X57150000Y-104775000D01*
X46990000Y-104775000D02*
X52070000Y-104775000D01*
M02*
