M48
;DRILL file {KiCad 4.0.7-e2-6376~61~ubuntu18.04.1} date Sun Aug 23 10:07:57 2020
;FORMAT={-:-/ absolute / inch / decimal}
FMAT,2
INCH,TZ
T1C0.016
T2C0.024
T3C0.028
T4C0.031
T5C0.039
T6C0.126
%
G90
G05
M72
T1
X2.515Y-3.775
X4.725Y-1.675
X4.735Y-1.32
X4.75Y-2.37
X4.75Y-2.46
X4.83Y-1.32
X4.855Y-1.675
T2
X1.78Y-1.88
X1.78Y-1.93
X1.78Y-1.98
X1.78Y-2.1
X1.78Y-2.15
X1.78Y-2.2
X1.78Y-2.32
X1.78Y-2.37
X1.78Y-2.42
X1.97Y-1.88
X1.97Y-1.93
X1.97Y-1.98
X1.97Y-2.1
X1.97Y-2.15
X1.97Y-2.2
X1.97Y-2.32
X1.97Y-2.37
X1.97Y-2.42
X2.16Y-1.88
X2.16Y-1.93
X2.16Y-1.98
X2.16Y-2.1
X2.16Y-2.15
X2.16Y-2.2
X2.16Y-2.32
X2.16Y-2.37
X2.16Y-2.42
X2.35Y-1.88
X2.35Y-1.93
X2.35Y-1.98
X2.35Y-2.1
X2.35Y-2.15
X2.35Y-2.2
X2.35Y-2.32
X2.35Y-2.37
X2.35Y-2.42
X2.38Y-3.6
X2.38Y-3.65
X2.38Y-3.7
X2.38Y-3.815
X2.38Y-3.865
X2.38Y-3.915
X2.54Y-1.88
X2.54Y-1.93
X2.54Y-1.98
X2.54Y-2.1
X2.54Y-2.15
X2.54Y-2.2
X2.54Y-2.32
X2.54Y-2.37
X2.54Y-2.42
X2.57Y-3.6
X2.57Y-3.65
X2.57Y-3.7
X2.66Y-3.085
X2.66Y-3.135
X2.66Y-3.185
X2.73Y-1.88
X2.73Y-1.93
X2.73Y-1.98
X2.73Y-2.1
X2.73Y-2.15
X2.73Y-2.2
X2.73Y-2.32
X2.73Y-2.37
X2.73Y-2.42
X2.76Y-3.6
X2.76Y-3.65
X2.76Y-3.7
X2.92Y-1.88
X2.92Y-1.93
X2.92Y-1.98
X2.92Y-2.1
X2.92Y-2.15
X2.92Y-2.2
X2.92Y-2.32
X2.92Y-2.37
X2.92Y-2.42
X2.95Y-3.6
X2.95Y-3.65
X2.95Y-3.7
X3.11Y-1.88
X3.11Y-1.93
X3.11Y-1.98
X3.11Y-2.1
X3.11Y-2.15
X3.11Y-2.2
X3.11Y-2.32
X3.11Y-2.37
X3.11Y-2.42
X3.3Y-1.
X3.3Y-1.05
X3.3Y-1.1
X3.3Y-1.22
X3.3Y-1.27
X3.3Y-1.32
X3.3Y-1.44
X3.3Y-1.49
X3.3Y-1.54
X3.3Y-1.655
X3.3Y-1.705
X3.3Y-1.755
X3.3Y-1.88
X3.3Y-1.93
X3.3Y-1.98
X3.3Y-2.1
X3.3Y-2.15
X3.3Y-2.2
X3.3Y-2.32
X3.3Y-2.37
X3.3Y-2.42
X3.49Y-1.
X3.49Y-1.05
X3.49Y-1.1
X3.49Y-1.22
X3.49Y-1.27
X3.49Y-1.32
X3.49Y-1.44
X3.49Y-1.49
X3.49Y-1.54
X3.49Y-1.655
X3.49Y-1.705
X3.49Y-1.755
X3.49Y-1.88
X3.49Y-1.93
X3.49Y-1.98
X3.49Y-2.1
X3.49Y-2.15
X3.49Y-2.2
X3.49Y-2.32
X3.49Y-2.37
X3.49Y-2.42
X3.68Y-1.
X3.68Y-1.05
X3.68Y-1.1
X3.68Y-1.22
X3.68Y-1.27
X3.68Y-1.32
X3.68Y-1.44
X3.68Y-1.49
X3.68Y-1.54
X3.68Y-1.655
X3.68Y-1.705
X3.68Y-1.755
X3.68Y-1.88
X3.68Y-1.93
X3.68Y-1.98
X3.68Y-2.1
X3.68Y-2.15
X3.68Y-2.2
X3.68Y-2.32
X3.68Y-2.37
X3.68Y-2.42
X3.7Y-3.42
X3.7Y-3.47
X3.7Y-3.52
X3.7Y-3.64
X3.7Y-3.69
X3.7Y-3.74
X3.7Y-3.86
X3.7Y-3.91
X3.7Y-3.96
X3.87Y-1.
X3.87Y-1.05
X3.87Y-1.1
X3.87Y-1.22
X3.87Y-1.27
X3.87Y-1.32
X3.87Y-1.44
X3.87Y-1.49
X3.87Y-1.54
X3.87Y-1.655
X3.87Y-1.705
X3.87Y-1.755
X3.87Y-1.88
X3.87Y-1.93
X3.87Y-1.98
X3.87Y-2.1
X3.87Y-2.15
X3.87Y-2.2
X3.87Y-2.32
X3.87Y-2.37
X3.87Y-2.42
X3.89Y-3.42
X3.89Y-3.47
X3.89Y-3.52
X3.89Y-3.64
X3.89Y-3.69
X3.89Y-3.74
X3.89Y-3.86
X3.89Y-3.91
X3.89Y-3.96
X4.06Y-1.
X4.06Y-1.05
X4.06Y-1.1
X4.06Y-1.22
X4.06Y-1.27
X4.06Y-1.32
X4.06Y-1.44
X4.06Y-1.49
X4.06Y-1.54
X4.06Y-1.655
X4.06Y-1.705
X4.06Y-1.755
X4.06Y-1.88
X4.06Y-1.93
X4.06Y-1.98
X4.06Y-2.1
X4.06Y-2.15
X4.06Y-2.2
X4.06Y-2.32
X4.06Y-2.37
X4.06Y-2.42
X4.08Y-3.42
X4.08Y-3.47
X4.08Y-3.52
X4.08Y-3.64
X4.08Y-3.69
X4.08Y-3.74
X4.08Y-3.86
X4.08Y-3.91
X4.08Y-3.96
X4.25Y-1.
X4.25Y-1.05
X4.25Y-1.1
X4.25Y-1.22
X4.25Y-1.27
X4.25Y-1.32
X4.25Y-1.44
X4.25Y-1.49
X4.25Y-1.54
X4.25Y-1.655
X4.25Y-1.705
X4.25Y-1.755
X4.25Y-1.88
X4.25Y-1.93
X4.25Y-1.98
X4.25Y-2.1
X4.25Y-2.15
X4.25Y-2.2
X4.25Y-2.32
X4.25Y-2.37
X4.25Y-2.42
X4.27Y-3.42
X4.27Y-3.47
X4.27Y-3.52
X4.27Y-3.64
X4.27Y-3.69
X4.27Y-3.74
X4.27Y-3.86
X4.27Y-3.91
X4.27Y-3.96
X4.44Y-1.
X4.44Y-1.05
X4.44Y-1.1
X4.44Y-1.22
X4.44Y-1.27
X4.44Y-1.32
X4.44Y-1.44
X4.44Y-1.49
X4.44Y-1.54
X4.44Y-1.655
X4.44Y-1.705
X4.44Y-1.755
X4.44Y-1.88
X4.44Y-1.93
X4.44Y-1.98
X4.44Y-2.1
X4.44Y-2.15
X4.44Y-2.2
X4.44Y-2.32
X4.44Y-2.37
X4.44Y-2.42
X4.46Y-3.42
X4.46Y-3.47
X4.46Y-3.52
X4.46Y-3.64
X4.46Y-3.69
X4.46Y-3.74
X4.46Y-3.86
X4.46Y-3.91
X4.46Y-3.96
X4.63Y-1.
X4.63Y-1.05
X4.63Y-1.1
X4.63Y-1.22
X4.63Y-1.27
X4.63Y-1.32
X4.63Y-1.44
X4.63Y-1.49
X4.63Y-1.54
X4.63Y-1.655
X4.63Y-1.705
X4.63Y-1.755
X4.63Y-1.88
X4.63Y-1.93
X4.63Y-1.98
X4.63Y-2.1
X4.63Y-2.15
X4.63Y-2.2
X4.63Y-2.32
X4.63Y-2.37
X4.63Y-2.42
X4.65Y-3.42
X4.65Y-3.47
X4.65Y-3.52
X4.65Y-3.64
X4.65Y-3.69
X4.65Y-3.74
X4.65Y-3.86
X4.65Y-3.91
X4.65Y-3.96
X4.84Y-3.42
X4.84Y-3.47
X4.84Y-3.52
X4.84Y-3.64
X4.84Y-3.69
X4.84Y-3.74
X4.84Y-3.86
X4.84Y-3.91
X4.84Y-3.96
X4.975Y-1.675
X4.975Y-2.175
X4.975Y-2.395
X5.025Y-1.675
X5.025Y-2.175
X5.025Y-2.395
X5.03Y-3.42
X5.03Y-3.47
X5.03Y-3.52
X5.03Y-3.64
X5.03Y-3.69
X5.03Y-3.74
X5.03Y-3.86
X5.03Y-3.91
X5.03Y-3.96
X5.075Y-1.675
X5.075Y-2.175
X5.075Y-2.395
T3
X2.195Y-1.07
X2.195Y-1.27
X2.29Y-1.07
X2.29Y-1.27
X2.38Y-3.3
X2.38Y-3.5
X2.385Y-1.07
X2.385Y-1.27
X2.41Y-2.765
X2.41Y-2.965
X2.475Y-3.3
X2.475Y-3.5
X2.48Y-1.07
X2.48Y-1.27
X2.51Y-2.765
X2.51Y-2.965
X2.57Y-3.3
X2.57Y-3.5
X2.575Y-1.07
X2.575Y-1.27
X2.61Y-2.765
X2.61Y-2.965
X2.67Y-1.07
X2.67Y-1.27
X2.71Y-2.765
X2.71Y-2.965
X2.76Y-3.3
X2.76Y-3.5
X2.765Y-1.07
X2.765Y-1.27
X2.81Y-2.765
X2.81Y-2.965
X2.86Y-1.07
X2.86Y-1.27
X2.91Y-2.765
X2.91Y-2.965
X2.95Y-3.3
X2.95Y-3.5
X3.01Y-2.765
X3.01Y-2.965
X3.11Y-2.765
X3.11Y-2.965
X3.24Y-0.7
X3.24Y-0.9
X3.3Y-2.765
X3.3Y-2.965
X3.335Y-0.7
X3.335Y-0.9
X3.4Y-2.765
X3.4Y-2.965
X3.43Y-0.7
X3.43Y-0.9
X3.5Y-2.765
X3.5Y-2.965
X3.525Y-0.7
X3.525Y-0.9
X3.6Y-2.765
X3.6Y-2.965
X3.62Y-0.7
X3.62Y-0.9
X3.7Y-2.765
X3.7Y-2.965
X3.7Y-3.12
X3.7Y-3.32
X3.715Y-0.7
X3.715Y-0.9
X3.8Y-2.765
X3.8Y-2.965
X3.8Y-3.12
X3.8Y-3.32
X3.81Y-0.7
X3.81Y-0.9
X3.89Y-3.12
X3.89Y-3.32
X3.9Y-2.765
X3.9Y-2.965
X3.905Y-0.7
X3.905Y-0.9
X3.99Y-3.12
X3.99Y-3.32
X4.Y-0.7
X4.Y-0.9
X4.Y-2.765
X4.Y-2.965
X4.08Y-3.12
X4.08Y-3.32
X4.095Y-0.7
X4.095Y-0.9
X4.18Y-3.12
X4.18Y-3.32
X4.19Y-0.7
X4.19Y-0.9
X4.27Y-3.12
X4.27Y-3.32
X4.285Y-0.7
X4.285Y-0.9
X4.37Y-3.12
X4.37Y-3.32
X4.38Y-0.7
X4.38Y-0.9
X4.46Y-3.12
X4.46Y-3.32
X4.475Y-0.7
X4.475Y-0.9
X4.56Y-3.12
X4.56Y-3.32
X4.57Y-0.7
X4.57Y-0.9
X4.65Y-3.12
X4.65Y-3.32
X4.665Y-0.7
X4.665Y-0.9
X4.75Y-3.12
X4.75Y-3.32
X4.84Y-3.12
X4.84Y-3.32
X4.94Y-3.12
X4.94Y-3.32
X4.975Y-2.045
X5.03Y-3.12
X5.03Y-3.32
X5.13Y-3.12
X5.13Y-3.32
X5.175Y-2.045
X5.175Y-2.175
X5.175Y-2.395
X5.255Y-2.045
X5.26Y-1.705
X5.375Y-2.175
X5.375Y-2.395
X5.455Y-2.045
X5.46Y-1.705
T4
X4.975Y-1.94
X5.12Y-1.82
X5.225Y-1.94
X5.3169Y-1.82
T5
X2.Y-3.865
X2.Y-3.965
X2.16Y-0.725
X2.16Y-0.825
X2.26Y-0.725
X2.26Y-0.825
X2.36Y-0.725
X2.36Y-0.825
X2.41Y-2.56
X2.41Y-2.66
X2.46Y-0.725
X2.46Y-0.825
X2.51Y-2.56
X2.51Y-2.66
X2.56Y-0.725
X2.56Y-0.825
X2.61Y-2.56
X2.61Y-2.66
X2.66Y-0.725
X2.66Y-0.825
X2.71Y-2.56
X2.71Y-2.66
X2.715Y-4.08
X2.715Y-4.18
X2.76Y-0.725
X2.76Y-0.825
X2.81Y-2.56
X2.81Y-2.66
X2.815Y-4.08
X2.815Y-4.18
X2.86Y-0.725
X2.86Y-0.825
X2.91Y-2.56
X2.91Y-2.66
X2.915Y-4.08
X2.915Y-4.18
X3.01Y-2.56
X3.01Y-2.66
X3.015Y-4.08
X3.015Y-4.18
X3.11Y-2.56
X3.11Y-2.66
X3.115Y-4.08
X3.115Y-4.18
X3.215Y-4.08
X3.215Y-4.18
X3.3Y-2.56
X3.3Y-2.66
X3.315Y-4.08
X3.315Y-4.18
X3.4Y-2.56
X3.4Y-2.66
X3.415Y-4.08
X3.415Y-4.18
X3.5Y-2.56
X3.5Y-2.66
X3.6Y-2.56
X3.6Y-2.66
X3.7Y-2.56
X3.7Y-2.66
X3.775Y-4.085
X3.8Y-2.56
X3.8Y-2.66
X3.875Y-4.085
X3.9Y-2.56
X3.9Y-2.66
X3.975Y-4.085
X4.Y-2.56
X4.Y-2.66
X4.075Y-4.085
X4.175Y-4.085
X4.24Y-2.945
X4.275Y-4.085
X4.34Y-2.945
X4.375Y-4.085
X4.44Y-2.945
X4.475Y-4.085
X4.54Y-2.945
X4.64Y-2.945
X4.74Y-2.945
X4.79Y-2.05
X4.79Y-2.15
X4.79Y-2.25
X4.84Y-2.945
X4.94Y-2.945
X5.38Y-1.095
X5.38Y-1.195
T6
X1.825Y-0.8
X1.825Y-4.35
X5.375Y-0.8
X5.375Y-4.35
T0
M30
