G04 #@! TF.FileFunction,Soldermask,Bot*
%FSLAX46Y46*%
G04 Gerber Fmt 4.6, Leading zero omitted, Abs format (unit mm)*
G04 Created by KiCad (PCBNEW 4.0.7-e2-6376~61~ubuntu18.04.1) date Sun Jul 14 07:48:48 2019*
%MOMM*%
%LPD*%
G01*
G04 APERTURE LIST*
%ADD10C,0.100000*%
%ADD11C,6.800000*%
%ADD12C,2.000000*%
%ADD13R,2.000000X2.000000*%
%ADD14O,2.000000X2.000000*%
%ADD15R,2.100000X2.100000*%
%ADD16O,2.100000X2.100000*%
%ADD17O,1.900000X1.300000*%
%ADD18R,1.900000X1.300000*%
%ADD19O,1.300000X1.900000*%
%ADD20R,1.300000X1.900000*%
%ADD21C,1.800000*%
%ADD22O,1.800000X1.800000*%
G04 APERTURE END LIST*
D10*
D11*
X46355000Y-110490000D03*
X136525000Y-110490000D03*
X136525000Y-20320000D03*
D12*
X106362500Y-25082500D03*
X111362500Y-25082500D03*
D13*
X113665000Y-25082500D03*
D14*
X120015000Y-25082500D03*
D15*
X57467500Y-21907500D03*
D16*
X57467500Y-19367500D03*
D15*
X74930000Y-22860000D03*
D16*
X77470000Y-22860000D03*
X80010000Y-22860000D03*
X82550000Y-22860000D03*
X85090000Y-22860000D03*
X87630000Y-22860000D03*
X90170000Y-22860000D03*
X92710000Y-22860000D03*
D15*
X74930000Y-20002500D03*
D16*
X77470000Y-20002500D03*
X80010000Y-20002500D03*
X82550000Y-20002500D03*
X85090000Y-20002500D03*
X87630000Y-20002500D03*
X90170000Y-20002500D03*
X92710000Y-20002500D03*
D15*
X100330000Y-24765000D03*
X52070000Y-24765000D03*
X52070000Y-22225000D03*
X52070000Y-19685000D03*
X78422500Y-110490000D03*
D16*
X80962500Y-110490000D03*
X83502500Y-110490000D03*
X86042500Y-110490000D03*
X88582500Y-110490000D03*
X91122500Y-110490000D03*
X93662500Y-110490000D03*
X96202500Y-110490000D03*
D15*
X78422500Y-113347500D03*
D16*
X80962500Y-113347500D03*
X83502500Y-113347500D03*
X86042500Y-113347500D03*
X88582500Y-113347500D03*
X91122500Y-113347500D03*
X93662500Y-113347500D03*
X96202500Y-113347500D03*
D17*
X105092500Y-20955000D03*
X105092500Y-19685000D03*
D18*
X105092500Y-22225000D03*
D17*
X110172500Y-20955000D03*
X110172500Y-19685000D03*
D18*
X110172500Y-22225000D03*
D17*
X119697500Y-20955000D03*
X119697500Y-22225000D03*
D18*
X119697500Y-19685000D03*
D17*
X125412500Y-20955000D03*
X125412500Y-19685000D03*
D18*
X125412500Y-22225000D03*
D19*
X53340000Y-106362500D03*
X54610000Y-106362500D03*
D20*
X52070000Y-106362500D03*
D19*
X64770000Y-106362500D03*
X66040000Y-106362500D03*
D20*
X63500000Y-106362500D03*
D19*
X76200000Y-106362500D03*
X77470000Y-106362500D03*
D20*
X74930000Y-106362500D03*
D19*
X87630000Y-106362500D03*
X88900000Y-106362500D03*
D20*
X86360000Y-106362500D03*
D19*
X99060000Y-106362500D03*
X100330000Y-106362500D03*
D20*
X97790000Y-106362500D03*
D19*
X110490000Y-106362500D03*
X111760000Y-106362500D03*
D20*
X109220000Y-106362500D03*
D19*
X121920000Y-106362500D03*
X123190000Y-106362500D03*
D20*
X120650000Y-106362500D03*
D19*
X130810000Y-100330000D03*
X132080000Y-100330000D03*
D20*
X129540000Y-100330000D03*
D19*
X59055000Y-106362500D03*
X60325000Y-106362500D03*
D20*
X57785000Y-106362500D03*
D19*
X70485000Y-106362500D03*
X71755000Y-106362500D03*
D20*
X69215000Y-106362500D03*
D19*
X81915000Y-106362500D03*
X83185000Y-106362500D03*
D20*
X80645000Y-106362500D03*
D19*
X93345000Y-106362500D03*
X94615000Y-106362500D03*
D20*
X92075000Y-106362500D03*
D19*
X104775000Y-106362500D03*
X106045000Y-106362500D03*
D20*
X103505000Y-106362500D03*
D19*
X116205000Y-106362500D03*
X117475000Y-106362500D03*
D20*
X114935000Y-106362500D03*
D19*
X127635000Y-106362500D03*
X128905000Y-106362500D03*
D20*
X126365000Y-106362500D03*
D19*
X136525000Y-100330000D03*
X137795000Y-100330000D03*
D20*
X135255000Y-100330000D03*
D17*
X51752500Y-38735000D03*
X51752500Y-37465000D03*
D18*
X51752500Y-40005000D03*
D17*
X51752500Y-55880000D03*
X51752500Y-54610000D03*
D18*
X51752500Y-57150000D03*
D17*
X46672500Y-50165000D03*
X46672500Y-48895000D03*
D18*
X46672500Y-51435000D03*
D17*
X51752500Y-50165000D03*
X51752500Y-48895000D03*
D18*
X51752500Y-51435000D03*
D17*
X46672500Y-55880000D03*
X46672500Y-54610000D03*
D18*
X46672500Y-57150000D03*
D17*
X46672500Y-38735000D03*
X46672500Y-37465000D03*
D18*
X46672500Y-40005000D03*
D17*
X51752500Y-44450000D03*
X51752500Y-43180000D03*
D18*
X51752500Y-45720000D03*
D17*
X51752500Y-73025000D03*
X51752500Y-71755000D03*
D18*
X51752500Y-74295000D03*
D17*
X46672500Y-73025000D03*
X46672500Y-71755000D03*
D18*
X46672500Y-74295000D03*
D17*
X46672500Y-44450000D03*
X46672500Y-43180000D03*
D18*
X46672500Y-45720000D03*
D17*
X51752500Y-78740000D03*
X51752500Y-77470000D03*
D18*
X51752500Y-80010000D03*
D17*
X46672500Y-78740000D03*
X46672500Y-77470000D03*
D18*
X46672500Y-80010000D03*
D17*
X51752500Y-33020000D03*
X51752500Y-31750000D03*
D18*
X51752500Y-34290000D03*
D17*
X46672500Y-90170000D03*
X46672500Y-88900000D03*
D18*
X46672500Y-91440000D03*
D17*
X46672500Y-84455000D03*
X46672500Y-83185000D03*
D18*
X46672500Y-85725000D03*
D17*
X51752500Y-84455000D03*
X51752500Y-83185000D03*
D18*
X51752500Y-85725000D03*
D17*
X51752500Y-90170000D03*
X51752500Y-88900000D03*
D18*
X51752500Y-91440000D03*
D17*
X46672500Y-95885000D03*
X46672500Y-94615000D03*
D18*
X46672500Y-97155000D03*
D17*
X51752500Y-95885000D03*
X51752500Y-94615000D03*
D18*
X51752500Y-97155000D03*
D17*
X63817500Y-38735000D03*
X63817500Y-37465000D03*
D18*
X63817500Y-40005000D03*
D17*
X63817500Y-55880000D03*
X63817500Y-54610000D03*
D18*
X63817500Y-57150000D03*
D17*
X58737500Y-50165000D03*
X58737500Y-48895000D03*
D18*
X58737500Y-51435000D03*
D17*
X63817500Y-50165000D03*
X63817500Y-48895000D03*
D18*
X63817500Y-51435000D03*
D17*
X58737500Y-55880000D03*
X58737500Y-54610000D03*
D18*
X58737500Y-57150000D03*
D17*
X58737500Y-38735000D03*
X58737500Y-37465000D03*
D18*
X58737500Y-40005000D03*
D17*
X63817500Y-44450000D03*
X63817500Y-43180000D03*
D18*
X63817500Y-45720000D03*
D17*
X63817500Y-73025000D03*
X63817500Y-71755000D03*
D18*
X63817500Y-74295000D03*
D17*
X58737500Y-73025000D03*
X58737500Y-71755000D03*
D18*
X58737500Y-74295000D03*
D17*
X58737500Y-44450000D03*
X58737500Y-43180000D03*
D18*
X58737500Y-45720000D03*
D17*
X63817500Y-78740000D03*
X63817500Y-77470000D03*
D18*
X63817500Y-80010000D03*
D17*
X58737500Y-78740000D03*
X58737500Y-77470000D03*
D18*
X58737500Y-80010000D03*
D17*
X63817500Y-33020000D03*
X63817500Y-31750000D03*
D18*
X63817500Y-34290000D03*
D17*
X58737500Y-90170000D03*
X58737500Y-88900000D03*
D18*
X58737500Y-91440000D03*
D17*
X58737500Y-84455000D03*
X58737500Y-83185000D03*
D18*
X58737500Y-85725000D03*
D17*
X63817500Y-84455000D03*
X63817500Y-83185000D03*
D18*
X63817500Y-85725000D03*
D17*
X63817500Y-90170000D03*
X63817500Y-88900000D03*
D18*
X63817500Y-91440000D03*
D17*
X58737500Y-95885000D03*
X58737500Y-94615000D03*
D18*
X58737500Y-97155000D03*
D17*
X63817500Y-95885000D03*
X63817500Y-94615000D03*
D18*
X63817500Y-97155000D03*
D17*
X75882500Y-38735000D03*
X75882500Y-37465000D03*
D18*
X75882500Y-40005000D03*
D17*
X75882500Y-55880000D03*
X75882500Y-54610000D03*
D18*
X75882500Y-57150000D03*
D17*
X70802500Y-50165000D03*
X70802500Y-48895000D03*
D18*
X70802500Y-51435000D03*
D17*
X75882500Y-50165000D03*
X75882500Y-48895000D03*
D18*
X75882500Y-51435000D03*
D17*
X70802500Y-55880000D03*
X70802500Y-54610000D03*
D18*
X70802500Y-57150000D03*
D17*
X70802500Y-38735000D03*
X70802500Y-37465000D03*
D18*
X70802500Y-40005000D03*
D17*
X75882500Y-44450000D03*
X75882500Y-43180000D03*
D18*
X75882500Y-45720000D03*
D17*
X75882500Y-73025000D03*
X75882500Y-71755000D03*
D18*
X75882500Y-74295000D03*
D17*
X70802500Y-73025000D03*
X70802500Y-71755000D03*
D18*
X70802500Y-74295000D03*
D17*
X70802500Y-44450000D03*
X70802500Y-43180000D03*
D18*
X70802500Y-45720000D03*
D17*
X75882500Y-78740000D03*
X75882500Y-77470000D03*
D18*
X75882500Y-80010000D03*
D17*
X70802500Y-78740000D03*
X70802500Y-77470000D03*
D18*
X70802500Y-80010000D03*
D17*
X75882500Y-33020000D03*
X75882500Y-31750000D03*
D18*
X75882500Y-34290000D03*
D17*
X70802500Y-90170000D03*
X70802500Y-88900000D03*
D18*
X70802500Y-91440000D03*
D17*
X70802500Y-84455000D03*
X70802500Y-83185000D03*
D18*
X70802500Y-85725000D03*
D17*
X75882500Y-84455000D03*
X75882500Y-83185000D03*
D18*
X75882500Y-85725000D03*
D17*
X75882500Y-90170000D03*
X75882500Y-88900000D03*
D18*
X75882500Y-91440000D03*
D17*
X70802500Y-95885000D03*
X70802500Y-94615000D03*
D18*
X70802500Y-97155000D03*
D17*
X75882500Y-95885000D03*
X75882500Y-94615000D03*
D18*
X75882500Y-97155000D03*
D17*
X87947500Y-38735000D03*
X87947500Y-37465000D03*
D18*
X87947500Y-40005000D03*
D17*
X87947500Y-55880000D03*
X87947500Y-54610000D03*
D18*
X87947500Y-57150000D03*
D17*
X82867500Y-50165000D03*
X82867500Y-48895000D03*
D18*
X82867500Y-51435000D03*
D17*
X87947500Y-50165000D03*
X87947500Y-48895000D03*
D18*
X87947500Y-51435000D03*
D17*
X82867500Y-55880000D03*
X82867500Y-54610000D03*
D18*
X82867500Y-57150000D03*
D17*
X82867500Y-38735000D03*
X82867500Y-37465000D03*
D18*
X82867500Y-40005000D03*
D17*
X87947500Y-44450000D03*
X87947500Y-43180000D03*
D18*
X87947500Y-45720000D03*
D17*
X87947500Y-73025000D03*
X87947500Y-71755000D03*
D18*
X87947500Y-74295000D03*
D17*
X82867500Y-73025000D03*
X82867500Y-71755000D03*
D18*
X82867500Y-74295000D03*
D17*
X82867500Y-44450000D03*
X82867500Y-43180000D03*
D18*
X82867500Y-45720000D03*
D17*
X87947500Y-78740000D03*
X87947500Y-77470000D03*
D18*
X87947500Y-80010000D03*
D17*
X82867500Y-78740000D03*
X82867500Y-77470000D03*
D18*
X82867500Y-80010000D03*
D17*
X87947500Y-33020000D03*
X87947500Y-31750000D03*
D18*
X87947500Y-34290000D03*
D17*
X82867500Y-90170000D03*
X82867500Y-88900000D03*
D18*
X82867500Y-91440000D03*
D17*
X82867500Y-84455000D03*
X82867500Y-83185000D03*
D18*
X82867500Y-85725000D03*
D17*
X87947500Y-90170000D03*
X87947500Y-88900000D03*
D18*
X87947500Y-91440000D03*
D17*
X82867500Y-95885000D03*
X82867500Y-94615000D03*
D18*
X82867500Y-97155000D03*
D17*
X87947500Y-95885000D03*
X87947500Y-94615000D03*
D18*
X87947500Y-97155000D03*
D17*
X100012500Y-38735000D03*
X100012500Y-37465000D03*
D18*
X100012500Y-40005000D03*
D17*
X100012500Y-55880000D03*
X100012500Y-54610000D03*
D18*
X100012500Y-57150000D03*
D17*
X94932500Y-50165000D03*
X94932500Y-48895000D03*
D18*
X94932500Y-51435000D03*
D17*
X100012500Y-50165000D03*
X100012500Y-48895000D03*
D18*
X100012500Y-51435000D03*
D17*
X94932500Y-55880000D03*
X94932500Y-54610000D03*
D18*
X94932500Y-57150000D03*
D17*
X94932500Y-38735000D03*
X94932500Y-37465000D03*
D18*
X94932500Y-40005000D03*
D17*
X100012500Y-44450000D03*
X100012500Y-43180000D03*
D18*
X100012500Y-45720000D03*
D17*
X100012500Y-73025000D03*
X100012500Y-71755000D03*
D18*
X100012500Y-74295000D03*
D17*
X94932500Y-73025000D03*
X94932500Y-71755000D03*
D18*
X94932500Y-74295000D03*
D17*
X94932500Y-44450000D03*
X94932500Y-43180000D03*
D18*
X94932500Y-45720000D03*
D17*
X100012500Y-78740000D03*
X100012500Y-77470000D03*
D18*
X100012500Y-80010000D03*
D17*
X94932500Y-78740000D03*
X94932500Y-77470000D03*
D18*
X94932500Y-80010000D03*
D17*
X100012500Y-33020000D03*
X100012500Y-31750000D03*
D18*
X100012500Y-34290000D03*
D17*
X94932500Y-90170000D03*
X94932500Y-88900000D03*
D18*
X94932500Y-91440000D03*
D17*
X94932500Y-84455000D03*
X94932500Y-83185000D03*
D18*
X94932500Y-85725000D03*
D17*
X100012500Y-84455000D03*
X100012500Y-83185000D03*
D18*
X100012500Y-85725000D03*
D17*
X100012500Y-90170000D03*
X100012500Y-88900000D03*
D18*
X100012500Y-91440000D03*
D17*
X94932500Y-95885000D03*
X94932500Y-94615000D03*
D18*
X94932500Y-97155000D03*
D17*
X100012500Y-95885000D03*
X100012500Y-94615000D03*
D18*
X100012500Y-97155000D03*
D17*
X112077500Y-38735000D03*
X112077500Y-37465000D03*
D18*
X112077500Y-40005000D03*
D17*
X112077500Y-55880000D03*
X112077500Y-54610000D03*
D18*
X112077500Y-57150000D03*
D17*
X106997500Y-50165000D03*
X106997500Y-48895000D03*
D18*
X106997500Y-51435000D03*
D17*
X112077500Y-50165000D03*
X112077500Y-48895000D03*
D18*
X112077500Y-51435000D03*
D17*
X106997500Y-55880000D03*
X106997500Y-54610000D03*
D18*
X106997500Y-57150000D03*
D17*
X106997500Y-38735000D03*
X106997500Y-37465000D03*
D18*
X106997500Y-40005000D03*
D17*
X112077500Y-44450000D03*
X112077500Y-43180000D03*
D18*
X112077500Y-45720000D03*
D17*
X112077500Y-73025000D03*
X112077500Y-71755000D03*
D18*
X112077500Y-74295000D03*
D17*
X106997500Y-73025000D03*
X106997500Y-71755000D03*
D18*
X106997500Y-74295000D03*
D17*
X106997500Y-44450000D03*
X106997500Y-43180000D03*
D18*
X106997500Y-45720000D03*
D17*
X112077500Y-78740000D03*
X112077500Y-77470000D03*
D18*
X112077500Y-80010000D03*
D17*
X106997500Y-78740000D03*
X106997500Y-77470000D03*
D18*
X106997500Y-80010000D03*
D17*
X112077500Y-33020000D03*
X112077500Y-31750000D03*
D18*
X112077500Y-34290000D03*
D17*
X106997500Y-90170000D03*
X106997500Y-88900000D03*
D18*
X106997500Y-91440000D03*
D17*
X106997500Y-84455000D03*
X106997500Y-83185000D03*
D18*
X106997500Y-85725000D03*
D17*
X112077500Y-84455000D03*
X112077500Y-83185000D03*
D18*
X112077500Y-85725000D03*
D17*
X112077500Y-90170000D03*
X112077500Y-88900000D03*
D18*
X112077500Y-91440000D03*
D17*
X106997500Y-95885000D03*
X106997500Y-94615000D03*
D18*
X106997500Y-97155000D03*
D17*
X112077500Y-95885000D03*
X112077500Y-94615000D03*
D18*
X112077500Y-97155000D03*
D17*
X124142500Y-38735000D03*
X124142500Y-37465000D03*
D18*
X124142500Y-40005000D03*
D17*
X124142500Y-55880000D03*
X124142500Y-54610000D03*
D18*
X124142500Y-57150000D03*
D17*
X119062500Y-50165000D03*
X119062500Y-48895000D03*
D18*
X119062500Y-51435000D03*
D17*
X124142500Y-50165000D03*
X124142500Y-48895000D03*
D18*
X124142500Y-51435000D03*
D17*
X119062500Y-55880000D03*
X119062500Y-54610000D03*
D18*
X119062500Y-57150000D03*
D17*
X119062500Y-38735000D03*
X119062500Y-37465000D03*
D18*
X119062500Y-40005000D03*
D17*
X124142500Y-44450000D03*
X124142500Y-43180000D03*
D18*
X124142500Y-45720000D03*
D17*
X124142500Y-73025000D03*
X124142500Y-71755000D03*
D18*
X124142500Y-74295000D03*
D17*
X119062500Y-73025000D03*
X119062500Y-71755000D03*
D18*
X119062500Y-74295000D03*
D17*
X119062500Y-44450000D03*
X119062500Y-43180000D03*
D18*
X119062500Y-45720000D03*
D17*
X124142500Y-78740000D03*
X124142500Y-77470000D03*
D18*
X124142500Y-80010000D03*
D17*
X119062500Y-78740000D03*
X119062500Y-77470000D03*
D18*
X119062500Y-80010000D03*
D17*
X124142500Y-33020000D03*
X124142500Y-31750000D03*
D18*
X124142500Y-34290000D03*
D17*
X119062500Y-90170000D03*
X119062500Y-88900000D03*
D18*
X119062500Y-91440000D03*
D17*
X119062500Y-84455000D03*
X119062500Y-83185000D03*
D18*
X119062500Y-85725000D03*
D17*
X124142500Y-84455000D03*
X124142500Y-83185000D03*
D18*
X124142500Y-85725000D03*
D17*
X124142500Y-90170000D03*
X124142500Y-88900000D03*
D18*
X124142500Y-91440000D03*
D17*
X119062500Y-95885000D03*
X119062500Y-94615000D03*
D18*
X119062500Y-97155000D03*
D17*
X124142500Y-95885000D03*
X124142500Y-94615000D03*
D18*
X124142500Y-97155000D03*
D17*
X136207500Y-38735000D03*
X136207500Y-37465000D03*
D18*
X136207500Y-40005000D03*
D17*
X136207500Y-55880000D03*
X136207500Y-54610000D03*
D18*
X136207500Y-57150000D03*
D17*
X131127500Y-50165000D03*
X131127500Y-48895000D03*
D18*
X131127500Y-51435000D03*
D17*
X136207500Y-50165000D03*
X136207500Y-48895000D03*
D18*
X136207500Y-51435000D03*
D17*
X131127500Y-55880000D03*
X131127500Y-54610000D03*
D18*
X131127500Y-57150000D03*
D17*
X131127500Y-38735000D03*
X131127500Y-37465000D03*
D18*
X131127500Y-40005000D03*
D17*
X136207500Y-44450000D03*
X136207500Y-43180000D03*
D18*
X136207500Y-45720000D03*
D17*
X136207500Y-65722500D03*
X136207500Y-64452500D03*
D18*
X136207500Y-66992500D03*
D17*
X131127500Y-65722500D03*
X131127500Y-64452500D03*
D18*
X131127500Y-66992500D03*
D17*
X131127500Y-44450000D03*
X131127500Y-43180000D03*
D18*
X131127500Y-45720000D03*
D17*
X136207500Y-71437500D03*
X136207500Y-70167500D03*
D18*
X136207500Y-72707500D03*
D17*
X131127500Y-71437500D03*
X131127500Y-70167500D03*
D18*
X131127500Y-72707500D03*
D17*
X136207500Y-33020000D03*
X136207500Y-31750000D03*
D18*
X136207500Y-34290000D03*
D17*
X131127500Y-82867500D03*
X131127500Y-81597500D03*
D18*
X131127500Y-84137500D03*
D17*
X131127500Y-77152500D03*
X131127500Y-75882500D03*
D18*
X131127500Y-78422500D03*
D17*
X136207500Y-77152500D03*
X136207500Y-75882500D03*
D18*
X136207500Y-78422500D03*
D17*
X136207500Y-82867500D03*
X136207500Y-81597500D03*
D18*
X136207500Y-84137500D03*
D17*
X131127500Y-88582500D03*
X131127500Y-87312500D03*
D18*
X131127500Y-89852500D03*
D17*
X136207500Y-88582500D03*
X136207500Y-87312500D03*
D18*
X136207500Y-89852500D03*
D17*
X46672500Y-61595000D03*
X46672500Y-60325000D03*
D18*
X46672500Y-62865000D03*
D17*
X51752500Y-61595000D03*
X51752500Y-60325000D03*
D18*
X51752500Y-62865000D03*
D17*
X46672500Y-67310000D03*
X46672500Y-66040000D03*
D18*
X46672500Y-68580000D03*
D17*
X58737500Y-61595000D03*
X58737500Y-60325000D03*
D18*
X58737500Y-62865000D03*
D17*
X63817500Y-61595000D03*
X63817500Y-60325000D03*
D18*
X63817500Y-62865000D03*
D17*
X58737500Y-67310000D03*
X58737500Y-66040000D03*
D18*
X58737500Y-68580000D03*
D17*
X70802500Y-61595000D03*
X70802500Y-60325000D03*
D18*
X70802500Y-62865000D03*
D17*
X75882500Y-61595000D03*
X75882500Y-60325000D03*
D18*
X75882500Y-62865000D03*
D17*
X70802500Y-67310000D03*
X70802500Y-66040000D03*
D18*
X70802500Y-68580000D03*
D17*
X82867500Y-61595000D03*
X82867500Y-60325000D03*
D18*
X82867500Y-62865000D03*
D17*
X87947500Y-61595000D03*
X87947500Y-60325000D03*
D18*
X87947500Y-62865000D03*
D17*
X82867500Y-67310000D03*
X82867500Y-66040000D03*
D18*
X82867500Y-68580000D03*
D17*
X94932500Y-61595000D03*
X94932500Y-60325000D03*
D18*
X94932500Y-62865000D03*
D17*
X100012500Y-61595000D03*
X100012500Y-60325000D03*
D18*
X100012500Y-62865000D03*
D17*
X94932500Y-67310000D03*
X94932500Y-66040000D03*
D18*
X94932500Y-68580000D03*
D17*
X106997500Y-61595000D03*
X106997500Y-60325000D03*
D18*
X106997500Y-62865000D03*
D17*
X112077500Y-61595000D03*
X112077500Y-60325000D03*
D18*
X112077500Y-62865000D03*
D17*
X106997500Y-67310000D03*
X106997500Y-66040000D03*
D18*
X106997500Y-68580000D03*
D17*
X119062500Y-61595000D03*
X119062500Y-60325000D03*
D18*
X119062500Y-62865000D03*
D17*
X124142500Y-61595000D03*
X124142500Y-60325000D03*
D18*
X124142500Y-62865000D03*
D17*
X119062500Y-67310000D03*
X119062500Y-66040000D03*
D18*
X119062500Y-68580000D03*
D21*
X100965000Y-16827500D03*
D22*
X100965000Y-21907500D03*
D21*
X106362500Y-16827500D03*
D22*
X111442500Y-16827500D03*
D21*
X123507500Y-16827500D03*
D22*
X118427500Y-16827500D03*
D21*
X128905000Y-16827500D03*
D22*
X128905000Y-21907500D03*
D21*
X116205000Y-17462500D03*
D22*
X116205000Y-22542500D03*
D21*
X113665000Y-17462500D03*
D22*
X113665000Y-22542500D03*
D21*
X47625000Y-29845000D03*
D22*
X47625000Y-34925000D03*
D21*
X45085000Y-29845000D03*
D22*
X45085000Y-34925000D03*
D21*
X54927500Y-28892500D03*
D22*
X49847500Y-28892500D03*
D21*
X51435000Y-102552500D03*
D22*
X46355000Y-102552500D03*
D21*
X46355000Y-100012500D03*
D22*
X51435000Y-100012500D03*
D21*
X59690000Y-29845000D03*
D22*
X59690000Y-34925000D03*
D21*
X57150000Y-29845000D03*
D22*
X57150000Y-34925000D03*
D21*
X66992500Y-28892500D03*
D22*
X61912500Y-28892500D03*
D21*
X63500000Y-102552500D03*
D22*
X58420000Y-102552500D03*
D21*
X58420000Y-100012500D03*
D22*
X63500000Y-100012500D03*
D21*
X71755000Y-29845000D03*
D22*
X71755000Y-34925000D03*
D21*
X69215000Y-29845000D03*
D22*
X69215000Y-34925000D03*
D21*
X79057500Y-28892500D03*
D22*
X73977500Y-28892500D03*
D21*
X75565000Y-102552500D03*
D22*
X70485000Y-102552500D03*
D21*
X70485000Y-100012500D03*
D22*
X75565000Y-100012500D03*
D21*
X83820000Y-29845000D03*
D22*
X83820000Y-34925000D03*
D21*
X81280000Y-29845000D03*
D22*
X81280000Y-34925000D03*
D21*
X91122500Y-28892500D03*
D22*
X86042500Y-28892500D03*
D21*
X87630000Y-102552500D03*
D22*
X82550000Y-102552500D03*
D21*
X82550000Y-100012500D03*
D22*
X87630000Y-100012500D03*
D21*
X95885000Y-29845000D03*
D22*
X95885000Y-34925000D03*
D21*
X93345000Y-29845000D03*
D22*
X93345000Y-34925000D03*
D21*
X103187500Y-28892500D03*
D22*
X98107500Y-28892500D03*
D21*
X99695000Y-102552500D03*
D22*
X94615000Y-102552500D03*
D21*
X94615000Y-100012500D03*
D22*
X99695000Y-100012500D03*
D21*
X107950000Y-29845000D03*
D22*
X107950000Y-34925000D03*
D21*
X105410000Y-29845000D03*
D22*
X105410000Y-34925000D03*
D21*
X115252500Y-28892500D03*
D22*
X110172500Y-28892500D03*
D21*
X111760000Y-102552500D03*
D22*
X106680000Y-102552500D03*
D21*
X106680000Y-100012500D03*
D22*
X111760000Y-100012500D03*
D21*
X120015000Y-29845000D03*
D22*
X120015000Y-34925000D03*
D21*
X117475000Y-29845000D03*
D22*
X117475000Y-34925000D03*
D21*
X127317500Y-28892500D03*
D22*
X122237500Y-28892500D03*
D21*
X123825000Y-102552500D03*
D22*
X118745000Y-102552500D03*
D21*
X118745000Y-100012500D03*
D22*
X123825000Y-100012500D03*
D21*
X132080000Y-29845000D03*
D22*
X132080000Y-34925000D03*
D21*
X129540000Y-29845000D03*
D22*
X129540000Y-34925000D03*
D21*
X139382500Y-28892500D03*
D22*
X134302500Y-28892500D03*
D21*
X135890000Y-95250000D03*
D22*
X130810000Y-95250000D03*
D21*
X130810000Y-92710000D03*
D22*
X135890000Y-92710000D03*
D21*
X54927500Y-68262500D03*
D22*
X49847500Y-68262500D03*
D21*
X54927500Y-65722500D03*
D22*
X49847500Y-65722500D03*
D21*
X66992500Y-68262500D03*
D22*
X61912500Y-68262500D03*
D21*
X66992500Y-65722500D03*
D22*
X61912500Y-65722500D03*
D21*
X79057500Y-68262500D03*
D22*
X73977500Y-68262500D03*
D21*
X79057500Y-65722500D03*
D22*
X73977500Y-65722500D03*
D21*
X91122500Y-68262500D03*
D22*
X86042500Y-68262500D03*
D21*
X91122500Y-65722500D03*
D22*
X86042500Y-65722500D03*
D21*
X103187500Y-68262500D03*
D22*
X98107500Y-68262500D03*
D21*
X103187500Y-65722500D03*
D22*
X98107500Y-65722500D03*
D21*
X115252500Y-68262500D03*
D22*
X110172500Y-68262500D03*
D21*
X115252500Y-65722500D03*
D22*
X110172500Y-65722500D03*
D21*
X127317500Y-68262500D03*
D22*
X122237500Y-68262500D03*
D21*
X127317500Y-65722500D03*
D22*
X122237500Y-65722500D03*
D11*
X46355000Y-20320000D03*
D17*
X87947500Y-84455000D03*
X87947500Y-83185000D03*
D18*
X87947500Y-85725000D03*
M02*
