G04 #@! TF.FileFunction,Copper,L1,Top,Signal*
%FSLAX46Y46*%
G04 Gerber Fmt 4.6, Leading zero omitted, Abs format (unit mm)*
G04 Created by KiCad (PCBNEW 4.0.7-e2-6376~61~ubuntu18.04.1) date Sun Jul 14 07:48:48 2019*
%MOMM*%
%LPD*%
G01*
G04 APERTURE LIST*
%ADD10C,0.100000*%
%ADD11C,6.400000*%
%ADD12C,1.600000*%
%ADD13R,1.600000X1.600000*%
%ADD14O,1.600000X1.600000*%
%ADD15R,1.700000X1.700000*%
%ADD16O,1.700000X1.700000*%
%ADD17O,1.500000X0.900000*%
%ADD18R,1.500000X0.900000*%
%ADD19O,0.900000X1.500000*%
%ADD20R,0.900000X1.500000*%
%ADD21C,1.400000*%
%ADD22O,1.400000X1.400000*%
%ADD23C,0.600000*%
%ADD24C,0.250000*%
%ADD25C,0.500000*%
G04 APERTURE END LIST*
D10*
D11*
X46355000Y-110490000D03*
X136525000Y-110490000D03*
X136525000Y-20320000D03*
D12*
X106362500Y-25082500D03*
X111362500Y-25082500D03*
D13*
X113665000Y-25082500D03*
D14*
X120015000Y-25082500D03*
D15*
X57467500Y-21907500D03*
D16*
X57467500Y-19367500D03*
D15*
X74930000Y-22860000D03*
D16*
X77470000Y-22860000D03*
X80010000Y-22860000D03*
X82550000Y-22860000D03*
X85090000Y-22860000D03*
X87630000Y-22860000D03*
X90170000Y-22860000D03*
X92710000Y-22860000D03*
D15*
X74930000Y-20002500D03*
D16*
X77470000Y-20002500D03*
X80010000Y-20002500D03*
X82550000Y-20002500D03*
X85090000Y-20002500D03*
X87630000Y-20002500D03*
X90170000Y-20002500D03*
X92710000Y-20002500D03*
D15*
X100330000Y-24765000D03*
X52070000Y-24765000D03*
X52070000Y-22225000D03*
X52070000Y-19685000D03*
X78422500Y-110490000D03*
D16*
X80962500Y-110490000D03*
X83502500Y-110490000D03*
X86042500Y-110490000D03*
X88582500Y-110490000D03*
X91122500Y-110490000D03*
X93662500Y-110490000D03*
X96202500Y-110490000D03*
D15*
X78422500Y-113347500D03*
D16*
X80962500Y-113347500D03*
X83502500Y-113347500D03*
X86042500Y-113347500D03*
X88582500Y-113347500D03*
X91122500Y-113347500D03*
X93662500Y-113347500D03*
X96202500Y-113347500D03*
D17*
X105092500Y-20955000D03*
X105092500Y-19685000D03*
D18*
X105092500Y-22225000D03*
D17*
X110172500Y-20955000D03*
X110172500Y-19685000D03*
D18*
X110172500Y-22225000D03*
D17*
X119697500Y-20955000D03*
X119697500Y-22225000D03*
D18*
X119697500Y-19685000D03*
D17*
X125412500Y-20955000D03*
X125412500Y-19685000D03*
D18*
X125412500Y-22225000D03*
D19*
X53340000Y-106362500D03*
X54610000Y-106362500D03*
D20*
X52070000Y-106362500D03*
D19*
X64770000Y-106362500D03*
X66040000Y-106362500D03*
D20*
X63500000Y-106362500D03*
D19*
X76200000Y-106362500D03*
X77470000Y-106362500D03*
D20*
X74930000Y-106362500D03*
D19*
X87630000Y-106362500D03*
X88900000Y-106362500D03*
D20*
X86360000Y-106362500D03*
D19*
X99060000Y-106362500D03*
X100330000Y-106362500D03*
D20*
X97790000Y-106362500D03*
D19*
X110490000Y-106362500D03*
X111760000Y-106362500D03*
D20*
X109220000Y-106362500D03*
D19*
X121920000Y-106362500D03*
X123190000Y-106362500D03*
D20*
X120650000Y-106362500D03*
D19*
X130810000Y-100330000D03*
X132080000Y-100330000D03*
D20*
X129540000Y-100330000D03*
D19*
X59055000Y-106362500D03*
X60325000Y-106362500D03*
D20*
X57785000Y-106362500D03*
D19*
X70485000Y-106362500D03*
X71755000Y-106362500D03*
D20*
X69215000Y-106362500D03*
D19*
X81915000Y-106362500D03*
X83185000Y-106362500D03*
D20*
X80645000Y-106362500D03*
D19*
X93345000Y-106362500D03*
X94615000Y-106362500D03*
D20*
X92075000Y-106362500D03*
D19*
X104775000Y-106362500D03*
X106045000Y-106362500D03*
D20*
X103505000Y-106362500D03*
D19*
X116205000Y-106362500D03*
X117475000Y-106362500D03*
D20*
X114935000Y-106362500D03*
D19*
X127635000Y-106362500D03*
X128905000Y-106362500D03*
D20*
X126365000Y-106362500D03*
D19*
X136525000Y-100330000D03*
X137795000Y-100330000D03*
D20*
X135255000Y-100330000D03*
D17*
X51752500Y-38735000D03*
X51752500Y-37465000D03*
D18*
X51752500Y-40005000D03*
D17*
X51752500Y-55880000D03*
X51752500Y-54610000D03*
D18*
X51752500Y-57150000D03*
D17*
X46672500Y-50165000D03*
X46672500Y-48895000D03*
D18*
X46672500Y-51435000D03*
D17*
X51752500Y-50165000D03*
X51752500Y-48895000D03*
D18*
X51752500Y-51435000D03*
D17*
X46672500Y-55880000D03*
X46672500Y-54610000D03*
D18*
X46672500Y-57150000D03*
D17*
X46672500Y-38735000D03*
X46672500Y-37465000D03*
D18*
X46672500Y-40005000D03*
D17*
X51752500Y-44450000D03*
X51752500Y-43180000D03*
D18*
X51752500Y-45720000D03*
D17*
X51752500Y-73025000D03*
X51752500Y-71755000D03*
D18*
X51752500Y-74295000D03*
D17*
X46672500Y-73025000D03*
X46672500Y-71755000D03*
D18*
X46672500Y-74295000D03*
D17*
X46672500Y-44450000D03*
X46672500Y-43180000D03*
D18*
X46672500Y-45720000D03*
D17*
X51752500Y-78740000D03*
X51752500Y-77470000D03*
D18*
X51752500Y-80010000D03*
D17*
X46672500Y-78740000D03*
X46672500Y-77470000D03*
D18*
X46672500Y-80010000D03*
D17*
X51752500Y-33020000D03*
X51752500Y-31750000D03*
D18*
X51752500Y-34290000D03*
D17*
X46672500Y-90170000D03*
X46672500Y-88900000D03*
D18*
X46672500Y-91440000D03*
D17*
X46672500Y-84455000D03*
X46672500Y-83185000D03*
D18*
X46672500Y-85725000D03*
D17*
X51752500Y-84455000D03*
X51752500Y-83185000D03*
D18*
X51752500Y-85725000D03*
D17*
X51752500Y-90170000D03*
X51752500Y-88900000D03*
D18*
X51752500Y-91440000D03*
D17*
X46672500Y-95885000D03*
X46672500Y-94615000D03*
D18*
X46672500Y-97155000D03*
D17*
X51752500Y-95885000D03*
X51752500Y-94615000D03*
D18*
X51752500Y-97155000D03*
D17*
X63817500Y-38735000D03*
X63817500Y-37465000D03*
D18*
X63817500Y-40005000D03*
D17*
X63817500Y-55880000D03*
X63817500Y-54610000D03*
D18*
X63817500Y-57150000D03*
D17*
X58737500Y-50165000D03*
X58737500Y-48895000D03*
D18*
X58737500Y-51435000D03*
D17*
X63817500Y-50165000D03*
X63817500Y-48895000D03*
D18*
X63817500Y-51435000D03*
D17*
X58737500Y-55880000D03*
X58737500Y-54610000D03*
D18*
X58737500Y-57150000D03*
D17*
X58737500Y-38735000D03*
X58737500Y-37465000D03*
D18*
X58737500Y-40005000D03*
D17*
X63817500Y-44450000D03*
X63817500Y-43180000D03*
D18*
X63817500Y-45720000D03*
D17*
X63817500Y-73025000D03*
X63817500Y-71755000D03*
D18*
X63817500Y-74295000D03*
D17*
X58737500Y-73025000D03*
X58737500Y-71755000D03*
D18*
X58737500Y-74295000D03*
D17*
X58737500Y-44450000D03*
X58737500Y-43180000D03*
D18*
X58737500Y-45720000D03*
D17*
X63817500Y-78740000D03*
X63817500Y-77470000D03*
D18*
X63817500Y-80010000D03*
D17*
X58737500Y-78740000D03*
X58737500Y-77470000D03*
D18*
X58737500Y-80010000D03*
D17*
X63817500Y-33020000D03*
X63817500Y-31750000D03*
D18*
X63817500Y-34290000D03*
D17*
X58737500Y-90170000D03*
X58737500Y-88900000D03*
D18*
X58737500Y-91440000D03*
D17*
X58737500Y-84455000D03*
X58737500Y-83185000D03*
D18*
X58737500Y-85725000D03*
D17*
X63817500Y-84455000D03*
X63817500Y-83185000D03*
D18*
X63817500Y-85725000D03*
D17*
X63817500Y-90170000D03*
X63817500Y-88900000D03*
D18*
X63817500Y-91440000D03*
D17*
X58737500Y-95885000D03*
X58737500Y-94615000D03*
D18*
X58737500Y-97155000D03*
D17*
X63817500Y-95885000D03*
X63817500Y-94615000D03*
D18*
X63817500Y-97155000D03*
D17*
X75882500Y-38735000D03*
X75882500Y-37465000D03*
D18*
X75882500Y-40005000D03*
D17*
X75882500Y-55880000D03*
X75882500Y-54610000D03*
D18*
X75882500Y-57150000D03*
D17*
X70802500Y-50165000D03*
X70802500Y-48895000D03*
D18*
X70802500Y-51435000D03*
D17*
X75882500Y-50165000D03*
X75882500Y-48895000D03*
D18*
X75882500Y-51435000D03*
D17*
X70802500Y-55880000D03*
X70802500Y-54610000D03*
D18*
X70802500Y-57150000D03*
D17*
X70802500Y-38735000D03*
X70802500Y-37465000D03*
D18*
X70802500Y-40005000D03*
D17*
X75882500Y-44450000D03*
X75882500Y-43180000D03*
D18*
X75882500Y-45720000D03*
D17*
X75882500Y-73025000D03*
X75882500Y-71755000D03*
D18*
X75882500Y-74295000D03*
D17*
X70802500Y-73025000D03*
X70802500Y-71755000D03*
D18*
X70802500Y-74295000D03*
D17*
X70802500Y-44450000D03*
X70802500Y-43180000D03*
D18*
X70802500Y-45720000D03*
D17*
X75882500Y-78740000D03*
X75882500Y-77470000D03*
D18*
X75882500Y-80010000D03*
D17*
X70802500Y-78740000D03*
X70802500Y-77470000D03*
D18*
X70802500Y-80010000D03*
D17*
X75882500Y-33020000D03*
X75882500Y-31750000D03*
D18*
X75882500Y-34290000D03*
D17*
X70802500Y-90170000D03*
X70802500Y-88900000D03*
D18*
X70802500Y-91440000D03*
D17*
X70802500Y-84455000D03*
X70802500Y-83185000D03*
D18*
X70802500Y-85725000D03*
D17*
X75882500Y-84455000D03*
X75882500Y-83185000D03*
D18*
X75882500Y-85725000D03*
D17*
X75882500Y-90170000D03*
X75882500Y-88900000D03*
D18*
X75882500Y-91440000D03*
D17*
X70802500Y-95885000D03*
X70802500Y-94615000D03*
D18*
X70802500Y-97155000D03*
D17*
X75882500Y-95885000D03*
X75882500Y-94615000D03*
D18*
X75882500Y-97155000D03*
D17*
X87947500Y-38735000D03*
X87947500Y-37465000D03*
D18*
X87947500Y-40005000D03*
D17*
X87947500Y-55880000D03*
X87947500Y-54610000D03*
D18*
X87947500Y-57150000D03*
D17*
X82867500Y-50165000D03*
X82867500Y-48895000D03*
D18*
X82867500Y-51435000D03*
D17*
X87947500Y-50165000D03*
X87947500Y-48895000D03*
D18*
X87947500Y-51435000D03*
D17*
X82867500Y-55880000D03*
X82867500Y-54610000D03*
D18*
X82867500Y-57150000D03*
D17*
X82867500Y-38735000D03*
X82867500Y-37465000D03*
D18*
X82867500Y-40005000D03*
D17*
X87947500Y-44450000D03*
X87947500Y-43180000D03*
D18*
X87947500Y-45720000D03*
D17*
X87947500Y-73025000D03*
X87947500Y-71755000D03*
D18*
X87947500Y-74295000D03*
D17*
X82867500Y-73025000D03*
X82867500Y-71755000D03*
D18*
X82867500Y-74295000D03*
D17*
X82867500Y-44450000D03*
X82867500Y-43180000D03*
D18*
X82867500Y-45720000D03*
D17*
X87947500Y-78740000D03*
X87947500Y-77470000D03*
D18*
X87947500Y-80010000D03*
D17*
X82867500Y-78740000D03*
X82867500Y-77470000D03*
D18*
X82867500Y-80010000D03*
D17*
X87947500Y-33020000D03*
X87947500Y-31750000D03*
D18*
X87947500Y-34290000D03*
D17*
X82867500Y-90170000D03*
X82867500Y-88900000D03*
D18*
X82867500Y-91440000D03*
D17*
X82867500Y-84455000D03*
X82867500Y-83185000D03*
D18*
X82867500Y-85725000D03*
D17*
X87947500Y-90170000D03*
X87947500Y-88900000D03*
D18*
X87947500Y-91440000D03*
D17*
X82867500Y-95885000D03*
X82867500Y-94615000D03*
D18*
X82867500Y-97155000D03*
D17*
X87947500Y-95885000D03*
X87947500Y-94615000D03*
D18*
X87947500Y-97155000D03*
D17*
X100012500Y-38735000D03*
X100012500Y-37465000D03*
D18*
X100012500Y-40005000D03*
D17*
X100012500Y-55880000D03*
X100012500Y-54610000D03*
D18*
X100012500Y-57150000D03*
D17*
X94932500Y-50165000D03*
X94932500Y-48895000D03*
D18*
X94932500Y-51435000D03*
D17*
X100012500Y-50165000D03*
X100012500Y-48895000D03*
D18*
X100012500Y-51435000D03*
D17*
X94932500Y-55880000D03*
X94932500Y-54610000D03*
D18*
X94932500Y-57150000D03*
D17*
X94932500Y-38735000D03*
X94932500Y-37465000D03*
D18*
X94932500Y-40005000D03*
D17*
X100012500Y-44450000D03*
X100012500Y-43180000D03*
D18*
X100012500Y-45720000D03*
D17*
X100012500Y-73025000D03*
X100012500Y-71755000D03*
D18*
X100012500Y-74295000D03*
D17*
X94932500Y-73025000D03*
X94932500Y-71755000D03*
D18*
X94932500Y-74295000D03*
D17*
X94932500Y-44450000D03*
X94932500Y-43180000D03*
D18*
X94932500Y-45720000D03*
D17*
X100012500Y-78740000D03*
X100012500Y-77470000D03*
D18*
X100012500Y-80010000D03*
D17*
X94932500Y-78740000D03*
X94932500Y-77470000D03*
D18*
X94932500Y-80010000D03*
D17*
X100012500Y-33020000D03*
X100012500Y-31750000D03*
D18*
X100012500Y-34290000D03*
D17*
X94932500Y-90170000D03*
X94932500Y-88900000D03*
D18*
X94932500Y-91440000D03*
D17*
X94932500Y-84455000D03*
X94932500Y-83185000D03*
D18*
X94932500Y-85725000D03*
D17*
X100012500Y-84455000D03*
X100012500Y-83185000D03*
D18*
X100012500Y-85725000D03*
D17*
X100012500Y-90170000D03*
X100012500Y-88900000D03*
D18*
X100012500Y-91440000D03*
D17*
X94932500Y-95885000D03*
X94932500Y-94615000D03*
D18*
X94932500Y-97155000D03*
D17*
X100012500Y-95885000D03*
X100012500Y-94615000D03*
D18*
X100012500Y-97155000D03*
D17*
X112077500Y-38735000D03*
X112077500Y-37465000D03*
D18*
X112077500Y-40005000D03*
D17*
X112077500Y-55880000D03*
X112077500Y-54610000D03*
D18*
X112077500Y-57150000D03*
D17*
X106997500Y-50165000D03*
X106997500Y-48895000D03*
D18*
X106997500Y-51435000D03*
D17*
X112077500Y-50165000D03*
X112077500Y-48895000D03*
D18*
X112077500Y-51435000D03*
D17*
X106997500Y-55880000D03*
X106997500Y-54610000D03*
D18*
X106997500Y-57150000D03*
D17*
X106997500Y-38735000D03*
X106997500Y-37465000D03*
D18*
X106997500Y-40005000D03*
D17*
X112077500Y-44450000D03*
X112077500Y-43180000D03*
D18*
X112077500Y-45720000D03*
D17*
X112077500Y-73025000D03*
X112077500Y-71755000D03*
D18*
X112077500Y-74295000D03*
D17*
X106997500Y-73025000D03*
X106997500Y-71755000D03*
D18*
X106997500Y-74295000D03*
D17*
X106997500Y-44450000D03*
X106997500Y-43180000D03*
D18*
X106997500Y-45720000D03*
D17*
X112077500Y-78740000D03*
X112077500Y-77470000D03*
D18*
X112077500Y-80010000D03*
D17*
X106997500Y-78740000D03*
X106997500Y-77470000D03*
D18*
X106997500Y-80010000D03*
D17*
X112077500Y-33020000D03*
X112077500Y-31750000D03*
D18*
X112077500Y-34290000D03*
D17*
X106997500Y-90170000D03*
X106997500Y-88900000D03*
D18*
X106997500Y-91440000D03*
D17*
X106997500Y-84455000D03*
X106997500Y-83185000D03*
D18*
X106997500Y-85725000D03*
D17*
X112077500Y-84455000D03*
X112077500Y-83185000D03*
D18*
X112077500Y-85725000D03*
D17*
X112077500Y-90170000D03*
X112077500Y-88900000D03*
D18*
X112077500Y-91440000D03*
D17*
X106997500Y-95885000D03*
X106997500Y-94615000D03*
D18*
X106997500Y-97155000D03*
D17*
X112077500Y-95885000D03*
X112077500Y-94615000D03*
D18*
X112077500Y-97155000D03*
D17*
X124142500Y-38735000D03*
X124142500Y-37465000D03*
D18*
X124142500Y-40005000D03*
D17*
X124142500Y-55880000D03*
X124142500Y-54610000D03*
D18*
X124142500Y-57150000D03*
D17*
X119062500Y-50165000D03*
X119062500Y-48895000D03*
D18*
X119062500Y-51435000D03*
D17*
X124142500Y-50165000D03*
X124142500Y-48895000D03*
D18*
X124142500Y-51435000D03*
D17*
X119062500Y-55880000D03*
X119062500Y-54610000D03*
D18*
X119062500Y-57150000D03*
D17*
X119062500Y-38735000D03*
X119062500Y-37465000D03*
D18*
X119062500Y-40005000D03*
D17*
X124142500Y-44450000D03*
X124142500Y-43180000D03*
D18*
X124142500Y-45720000D03*
D17*
X124142500Y-73025000D03*
X124142500Y-71755000D03*
D18*
X124142500Y-74295000D03*
D17*
X119062500Y-73025000D03*
X119062500Y-71755000D03*
D18*
X119062500Y-74295000D03*
D17*
X119062500Y-44450000D03*
X119062500Y-43180000D03*
D18*
X119062500Y-45720000D03*
D17*
X124142500Y-78740000D03*
X124142500Y-77470000D03*
D18*
X124142500Y-80010000D03*
D17*
X119062500Y-78740000D03*
X119062500Y-77470000D03*
D18*
X119062500Y-80010000D03*
D17*
X124142500Y-33020000D03*
X124142500Y-31750000D03*
D18*
X124142500Y-34290000D03*
D17*
X119062500Y-90170000D03*
X119062500Y-88900000D03*
D18*
X119062500Y-91440000D03*
D17*
X119062500Y-84455000D03*
X119062500Y-83185000D03*
D18*
X119062500Y-85725000D03*
D17*
X124142500Y-84455000D03*
X124142500Y-83185000D03*
D18*
X124142500Y-85725000D03*
D17*
X124142500Y-90170000D03*
X124142500Y-88900000D03*
D18*
X124142500Y-91440000D03*
D17*
X119062500Y-95885000D03*
X119062500Y-94615000D03*
D18*
X119062500Y-97155000D03*
D17*
X124142500Y-95885000D03*
X124142500Y-94615000D03*
D18*
X124142500Y-97155000D03*
D17*
X136207500Y-38735000D03*
X136207500Y-37465000D03*
D18*
X136207500Y-40005000D03*
D17*
X136207500Y-55880000D03*
X136207500Y-54610000D03*
D18*
X136207500Y-57150000D03*
D17*
X131127500Y-50165000D03*
X131127500Y-48895000D03*
D18*
X131127500Y-51435000D03*
D17*
X136207500Y-50165000D03*
X136207500Y-48895000D03*
D18*
X136207500Y-51435000D03*
D17*
X131127500Y-55880000D03*
X131127500Y-54610000D03*
D18*
X131127500Y-57150000D03*
D17*
X131127500Y-38735000D03*
X131127500Y-37465000D03*
D18*
X131127500Y-40005000D03*
D17*
X136207500Y-44450000D03*
X136207500Y-43180000D03*
D18*
X136207500Y-45720000D03*
D17*
X136207500Y-65722500D03*
X136207500Y-64452500D03*
D18*
X136207500Y-66992500D03*
D17*
X131127500Y-65722500D03*
X131127500Y-64452500D03*
D18*
X131127500Y-66992500D03*
D17*
X131127500Y-44450000D03*
X131127500Y-43180000D03*
D18*
X131127500Y-45720000D03*
D17*
X136207500Y-71437500D03*
X136207500Y-70167500D03*
D18*
X136207500Y-72707500D03*
D17*
X131127500Y-71437500D03*
X131127500Y-70167500D03*
D18*
X131127500Y-72707500D03*
D17*
X136207500Y-33020000D03*
X136207500Y-31750000D03*
D18*
X136207500Y-34290000D03*
D17*
X131127500Y-82867500D03*
X131127500Y-81597500D03*
D18*
X131127500Y-84137500D03*
D17*
X131127500Y-77152500D03*
X131127500Y-75882500D03*
D18*
X131127500Y-78422500D03*
D17*
X136207500Y-77152500D03*
X136207500Y-75882500D03*
D18*
X136207500Y-78422500D03*
D17*
X136207500Y-82867500D03*
X136207500Y-81597500D03*
D18*
X136207500Y-84137500D03*
D17*
X131127500Y-88582500D03*
X131127500Y-87312500D03*
D18*
X131127500Y-89852500D03*
D17*
X136207500Y-88582500D03*
X136207500Y-87312500D03*
D18*
X136207500Y-89852500D03*
D17*
X46672500Y-61595000D03*
X46672500Y-60325000D03*
D18*
X46672500Y-62865000D03*
D17*
X51752500Y-61595000D03*
X51752500Y-60325000D03*
D18*
X51752500Y-62865000D03*
D17*
X46672500Y-67310000D03*
X46672500Y-66040000D03*
D18*
X46672500Y-68580000D03*
D17*
X58737500Y-61595000D03*
X58737500Y-60325000D03*
D18*
X58737500Y-62865000D03*
D17*
X63817500Y-61595000D03*
X63817500Y-60325000D03*
D18*
X63817500Y-62865000D03*
D17*
X58737500Y-67310000D03*
X58737500Y-66040000D03*
D18*
X58737500Y-68580000D03*
D17*
X70802500Y-61595000D03*
X70802500Y-60325000D03*
D18*
X70802500Y-62865000D03*
D17*
X75882500Y-61595000D03*
X75882500Y-60325000D03*
D18*
X75882500Y-62865000D03*
D17*
X70802500Y-67310000D03*
X70802500Y-66040000D03*
D18*
X70802500Y-68580000D03*
D17*
X82867500Y-61595000D03*
X82867500Y-60325000D03*
D18*
X82867500Y-62865000D03*
D17*
X87947500Y-61595000D03*
X87947500Y-60325000D03*
D18*
X87947500Y-62865000D03*
D17*
X82867500Y-67310000D03*
X82867500Y-66040000D03*
D18*
X82867500Y-68580000D03*
D17*
X94932500Y-61595000D03*
X94932500Y-60325000D03*
D18*
X94932500Y-62865000D03*
D17*
X100012500Y-61595000D03*
X100012500Y-60325000D03*
D18*
X100012500Y-62865000D03*
D17*
X94932500Y-67310000D03*
X94932500Y-66040000D03*
D18*
X94932500Y-68580000D03*
D17*
X106997500Y-61595000D03*
X106997500Y-60325000D03*
D18*
X106997500Y-62865000D03*
D17*
X112077500Y-61595000D03*
X112077500Y-60325000D03*
D18*
X112077500Y-62865000D03*
D17*
X106997500Y-67310000D03*
X106997500Y-66040000D03*
D18*
X106997500Y-68580000D03*
D17*
X119062500Y-61595000D03*
X119062500Y-60325000D03*
D18*
X119062500Y-62865000D03*
D17*
X124142500Y-61595000D03*
X124142500Y-60325000D03*
D18*
X124142500Y-62865000D03*
D17*
X119062500Y-67310000D03*
X119062500Y-66040000D03*
D18*
X119062500Y-68580000D03*
D21*
X100965000Y-16827500D03*
D22*
X100965000Y-21907500D03*
D21*
X106362500Y-16827500D03*
D22*
X111442500Y-16827500D03*
D21*
X123507500Y-16827500D03*
D22*
X118427500Y-16827500D03*
D21*
X128905000Y-16827500D03*
D22*
X128905000Y-21907500D03*
D21*
X116205000Y-17462500D03*
D22*
X116205000Y-22542500D03*
D21*
X113665000Y-17462500D03*
D22*
X113665000Y-22542500D03*
D21*
X47625000Y-29845000D03*
D22*
X47625000Y-34925000D03*
D21*
X45085000Y-29845000D03*
D22*
X45085000Y-34925000D03*
D21*
X54927500Y-28892500D03*
D22*
X49847500Y-28892500D03*
D21*
X51435000Y-102552500D03*
D22*
X46355000Y-102552500D03*
D21*
X46355000Y-100012500D03*
D22*
X51435000Y-100012500D03*
D21*
X59690000Y-29845000D03*
D22*
X59690000Y-34925000D03*
D21*
X57150000Y-29845000D03*
D22*
X57150000Y-34925000D03*
D21*
X66992500Y-28892500D03*
D22*
X61912500Y-28892500D03*
D21*
X63500000Y-102552500D03*
D22*
X58420000Y-102552500D03*
D21*
X58420000Y-100012500D03*
D22*
X63500000Y-100012500D03*
D21*
X71755000Y-29845000D03*
D22*
X71755000Y-34925000D03*
D21*
X69215000Y-29845000D03*
D22*
X69215000Y-34925000D03*
D21*
X79057500Y-28892500D03*
D22*
X73977500Y-28892500D03*
D21*
X75565000Y-102552500D03*
D22*
X70485000Y-102552500D03*
D21*
X70485000Y-100012500D03*
D22*
X75565000Y-100012500D03*
D21*
X83820000Y-29845000D03*
D22*
X83820000Y-34925000D03*
D21*
X81280000Y-29845000D03*
D22*
X81280000Y-34925000D03*
D21*
X91122500Y-28892500D03*
D22*
X86042500Y-28892500D03*
D21*
X87630000Y-102552500D03*
D22*
X82550000Y-102552500D03*
D21*
X82550000Y-100012500D03*
D22*
X87630000Y-100012500D03*
D21*
X95885000Y-29845000D03*
D22*
X95885000Y-34925000D03*
D21*
X93345000Y-29845000D03*
D22*
X93345000Y-34925000D03*
D21*
X103187500Y-28892500D03*
D22*
X98107500Y-28892500D03*
D21*
X99695000Y-102552500D03*
D22*
X94615000Y-102552500D03*
D21*
X94615000Y-100012500D03*
D22*
X99695000Y-100012500D03*
D21*
X107950000Y-29845000D03*
D22*
X107950000Y-34925000D03*
D21*
X105410000Y-29845000D03*
D22*
X105410000Y-34925000D03*
D21*
X115252500Y-28892500D03*
D22*
X110172500Y-28892500D03*
D21*
X111760000Y-102552500D03*
D22*
X106680000Y-102552500D03*
D21*
X106680000Y-100012500D03*
D22*
X111760000Y-100012500D03*
D21*
X120015000Y-29845000D03*
D22*
X120015000Y-34925000D03*
D21*
X117475000Y-29845000D03*
D22*
X117475000Y-34925000D03*
D21*
X127317500Y-28892500D03*
D22*
X122237500Y-28892500D03*
D21*
X123825000Y-102552500D03*
D22*
X118745000Y-102552500D03*
D21*
X118745000Y-100012500D03*
D22*
X123825000Y-100012500D03*
D21*
X132080000Y-29845000D03*
D22*
X132080000Y-34925000D03*
D21*
X129540000Y-29845000D03*
D22*
X129540000Y-34925000D03*
D21*
X139382500Y-28892500D03*
D22*
X134302500Y-28892500D03*
D21*
X135890000Y-95250000D03*
D22*
X130810000Y-95250000D03*
D21*
X130810000Y-92710000D03*
D22*
X135890000Y-92710000D03*
D21*
X54927500Y-68262500D03*
D22*
X49847500Y-68262500D03*
D21*
X54927500Y-65722500D03*
D22*
X49847500Y-65722500D03*
D21*
X66992500Y-68262500D03*
D22*
X61912500Y-68262500D03*
D21*
X66992500Y-65722500D03*
D22*
X61912500Y-65722500D03*
D21*
X79057500Y-68262500D03*
D22*
X73977500Y-68262500D03*
D21*
X79057500Y-65722500D03*
D22*
X73977500Y-65722500D03*
D21*
X91122500Y-68262500D03*
D22*
X86042500Y-68262500D03*
D21*
X91122500Y-65722500D03*
D22*
X86042500Y-65722500D03*
D21*
X103187500Y-68262500D03*
D22*
X98107500Y-68262500D03*
D21*
X103187500Y-65722500D03*
D22*
X98107500Y-65722500D03*
D21*
X115252500Y-68262500D03*
D22*
X110172500Y-68262500D03*
D21*
X115252500Y-65722500D03*
D22*
X110172500Y-65722500D03*
D21*
X127317500Y-68262500D03*
D22*
X122237500Y-68262500D03*
D21*
X127317500Y-65722500D03*
D22*
X122237500Y-65722500D03*
D11*
X46355000Y-20320000D03*
D17*
X87947500Y-84455000D03*
X87947500Y-83185000D03*
D18*
X87947500Y-85725000D03*
D23*
X43815000Y-70167500D03*
X43065000Y-44395919D03*
X43065000Y-55880000D03*
X48895000Y-106680000D03*
X116522500Y-95885000D03*
X113347500Y-28892500D03*
X108902500Y-25717500D03*
X128905000Y-71437500D03*
X128905000Y-27305000D03*
X128905000Y-25400000D03*
X54610000Y-45720000D03*
X53657500Y-74295000D03*
X50482500Y-81597500D03*
X44132500Y-45720000D03*
X44132500Y-53022500D03*
X45720000Y-53022500D03*
X49212500Y-54927500D03*
X49212500Y-56832500D03*
X49212500Y-61912500D03*
X51117500Y-66992500D03*
X48577500Y-74295000D03*
X66040000Y-45720000D03*
X65722500Y-74295000D03*
X62547500Y-81597500D03*
X56197500Y-45720000D03*
X56197500Y-53340000D03*
X57785000Y-53340000D03*
X61277500Y-54927500D03*
X61277500Y-56832500D03*
X61277500Y-61912500D03*
X63182500Y-66992500D03*
X60642500Y-74295000D03*
X78105000Y-45720000D03*
X77787500Y-74295000D03*
X74612500Y-81597500D03*
X68262500Y-45720000D03*
X68262500Y-53340000D03*
X70167500Y-53340000D03*
X73342500Y-54927500D03*
X73342500Y-56832500D03*
X73342500Y-61912500D03*
X75247500Y-66992500D03*
X72707500Y-74295000D03*
X89852500Y-74295000D03*
X90170000Y-45720000D03*
X86677500Y-81597500D03*
X80327500Y-45720000D03*
X80327500Y-53340000D03*
X82232500Y-53340000D03*
X85407500Y-54927500D03*
X85407500Y-56832500D03*
X85407500Y-61912500D03*
X87312500Y-66992500D03*
X84772500Y-74295000D03*
X101917500Y-74295000D03*
X102235000Y-45720000D03*
X98742500Y-81597500D03*
X92392500Y-45720000D03*
X92392500Y-53340000D03*
X94297500Y-53340000D03*
X97472500Y-54927500D03*
X97472500Y-56832500D03*
X97472500Y-61912500D03*
X99377500Y-66992500D03*
X96837500Y-74295000D03*
X113982500Y-74295000D03*
X114300000Y-45720000D03*
X110807500Y-81597500D03*
X104775000Y-45720000D03*
X104775000Y-53340000D03*
X106045000Y-53340000D03*
X109537500Y-54927500D03*
X109537500Y-56832500D03*
X109537500Y-61912500D03*
X111442500Y-66992500D03*
X108902500Y-74295000D03*
X126365000Y-45720000D03*
X126047500Y-74295000D03*
X122872500Y-81597500D03*
X116840000Y-45720000D03*
X116840000Y-53340000D03*
X118110000Y-53340000D03*
X121602500Y-54927500D03*
X121602500Y-56832500D03*
X121602500Y-61912500D03*
X123507500Y-66992500D03*
X120967500Y-74295000D03*
X138747500Y-45720000D03*
X138747500Y-66992500D03*
X134937500Y-74295000D03*
X128905000Y-45720000D03*
X128905000Y-53340000D03*
X130492500Y-53340000D03*
X133350000Y-54927500D03*
X133350000Y-56832500D03*
X133350000Y-66992500D03*
D24*
X111442500Y-16827500D02*
X110172500Y-18097500D01*
X110172500Y-18097500D02*
X110172500Y-19685000D01*
X113665000Y-25082500D02*
X111362500Y-25082500D01*
X116205000Y-22542500D02*
X113665000Y-25082500D01*
X113665000Y-17462500D02*
X113665000Y-20002500D01*
X113665000Y-20002500D02*
X116205000Y-22542500D01*
D25*
X123507500Y-16827500D02*
X128905000Y-16827500D01*
X100965000Y-16827500D02*
X106362500Y-16827500D01*
X64452500Y-21907500D02*
X69532500Y-16827500D01*
X69532500Y-16827500D02*
X100965000Y-16827500D01*
X57467500Y-21907500D02*
X64452500Y-21907500D01*
X103187500Y-65722500D02*
X103187500Y-68262500D01*
X115252500Y-65722500D02*
X115252500Y-68262500D01*
X127317500Y-65722500D02*
X127317500Y-68262500D01*
X66992500Y-65722500D02*
X66992500Y-68262500D01*
X91122500Y-65722500D02*
X91122500Y-68262500D01*
X79057500Y-65722500D02*
X79057500Y-68262500D01*
X43815000Y-44767500D02*
X43815000Y-31115000D01*
X43815000Y-31115000D02*
X45085000Y-29845000D01*
X43382499Y-45200001D02*
X43815000Y-44767500D01*
X43815000Y-54292500D02*
X43382499Y-53859999D01*
X43382499Y-53859999D02*
X43382499Y-45200001D01*
X43815000Y-70167500D02*
X43815000Y-54292500D01*
X43815000Y-70167500D02*
X43815000Y-97472500D01*
X43815000Y-97472500D02*
X46355000Y-100012500D01*
X54927500Y-65722500D02*
X54927500Y-68262500D01*
D24*
X51752500Y-33020000D02*
X52752500Y-33020000D01*
X52752500Y-33020000D02*
X53340000Y-32432500D01*
X53340000Y-32432500D02*
X53340000Y-26987500D01*
X53340000Y-26987500D02*
X56197500Y-24130000D01*
X73830000Y-22860000D02*
X74930000Y-22860000D01*
X56197500Y-24130000D02*
X72560000Y-24130000D01*
X72560000Y-24130000D02*
X73830000Y-22860000D01*
X74930000Y-20002500D02*
X74930000Y-21102500D01*
X74930000Y-21102500D02*
X74930000Y-22860000D01*
X51752500Y-33020000D02*
X48012998Y-33020000D01*
X48012998Y-33020000D02*
X46599999Y-34432999D01*
X46599999Y-34432999D02*
X46599999Y-35487499D01*
X46599999Y-35487499D02*
X47307500Y-36195000D01*
X47307500Y-36195000D02*
X48912500Y-36195000D01*
X51452500Y-38735000D02*
X51752500Y-38735000D01*
X48912500Y-36195000D02*
X51452500Y-38735000D01*
X65405000Y-27940000D02*
X65405000Y-31732500D01*
X65405000Y-31732500D02*
X64117500Y-33020000D01*
X64117500Y-33020000D02*
X63817500Y-33020000D01*
X68764990Y-24580010D02*
X65405000Y-27940000D01*
X77470000Y-22860000D02*
X75749990Y-24580010D01*
X75749990Y-24580010D02*
X68764990Y-24580010D01*
X77470000Y-20002500D02*
X77470000Y-22860000D01*
X63817500Y-33020000D02*
X60077998Y-33020000D01*
X60077998Y-33020000D02*
X58664999Y-34432999D01*
X58664999Y-34432999D02*
X58664999Y-35417001D01*
X58664999Y-35417001D02*
X59442998Y-36195000D01*
X59442998Y-36195000D02*
X60977500Y-36195000D01*
X60977500Y-36195000D02*
X63517500Y-38735000D01*
X63517500Y-38735000D02*
X63817500Y-38735000D01*
X77152500Y-25717500D02*
X77152500Y-32050000D01*
X77152500Y-32050000D02*
X76182500Y-33020000D01*
X76182500Y-33020000D02*
X75882500Y-33020000D01*
X80010000Y-22860000D02*
X77152500Y-25717500D01*
X80010000Y-20002500D02*
X80010000Y-22860000D01*
X75882500Y-33020000D02*
X71653000Y-33020000D01*
X71653000Y-33020000D02*
X70729999Y-33943001D01*
X70729999Y-33943001D02*
X70729999Y-35417001D01*
X73042500Y-36195000D02*
X75582500Y-38735000D01*
X70729999Y-35417001D02*
X71507998Y-36195000D01*
X71507998Y-36195000D02*
X73042500Y-36195000D01*
X75582500Y-38735000D02*
X75882500Y-38735000D01*
X89217500Y-29527500D02*
X89217500Y-32050000D01*
X89217500Y-32050000D02*
X88247500Y-33020000D01*
X88247500Y-33020000D02*
X87947500Y-33020000D01*
X82550000Y-22860000D02*
X89217500Y-29527500D01*
X82550000Y-20002500D02*
X82550000Y-21204581D01*
X82550000Y-21204581D02*
X82550000Y-22860000D01*
X87947500Y-33020000D02*
X83820000Y-33020000D01*
X83820000Y-33020000D02*
X82794999Y-34045001D01*
X82794999Y-34045001D02*
X82794999Y-35417001D01*
X82794999Y-35417001D02*
X83572998Y-36195000D01*
X83572998Y-36195000D02*
X85107500Y-36195000D01*
X85107500Y-36195000D02*
X87647500Y-38735000D01*
X87647500Y-38735000D02*
X87947500Y-38735000D01*
X101282500Y-29210000D02*
X101282500Y-32050000D01*
X101282500Y-32050000D02*
X100312500Y-33020000D01*
X100312500Y-33020000D02*
X100012500Y-33020000D01*
X99775029Y-27702529D02*
X101282500Y-29210000D01*
X85090000Y-22860000D02*
X89932529Y-27702529D01*
X89932529Y-27702529D02*
X99775029Y-27702529D01*
X85090000Y-20002500D02*
X85090000Y-21204581D01*
X85090000Y-21204581D02*
X85090000Y-22860000D01*
X100012500Y-33020000D02*
X95885000Y-33020000D01*
X94859999Y-35417001D02*
X95637998Y-36195000D01*
X95885000Y-33020000D02*
X94859999Y-34045001D01*
X94859999Y-34045001D02*
X94859999Y-35417001D01*
X95637998Y-36195000D02*
X96837500Y-36195000D01*
X96837500Y-36195000D02*
X99377500Y-38735000D01*
X99377500Y-38735000D02*
X100012500Y-38735000D01*
X87630000Y-22860000D02*
X87630000Y-24062081D01*
X87630000Y-24062081D02*
X90820439Y-27252520D01*
X90820439Y-27252520D02*
X111390020Y-27252520D01*
X113347500Y-31115000D02*
X113347500Y-32050000D01*
X111390020Y-27252520D02*
X112077500Y-27940000D01*
X112077500Y-29845000D02*
X113347500Y-31115000D01*
X112077500Y-27940000D02*
X112077500Y-29845000D01*
X113347500Y-32050000D02*
X112377500Y-33020000D01*
X112377500Y-33020000D02*
X112077500Y-33020000D01*
X87630000Y-20002500D02*
X87630000Y-21204581D01*
X87630000Y-21204581D02*
X87630000Y-22860000D01*
X112077500Y-33020000D02*
X107950000Y-33020000D01*
X106924999Y-34045001D02*
X106924999Y-35417001D01*
X107950000Y-33020000D02*
X106924999Y-34045001D01*
X106924999Y-35417001D02*
X107702998Y-36195000D01*
X107702998Y-36195000D02*
X109237500Y-36195000D01*
X109237500Y-36195000D02*
X111777500Y-38735000D01*
X111777500Y-38735000D02*
X112077500Y-38735000D01*
X90170000Y-20002500D02*
X90170000Y-22860000D01*
X90170000Y-22860000D02*
X90170000Y-24062081D01*
X90170000Y-24062081D02*
X92910429Y-26802510D01*
X125412500Y-29210000D02*
X125412500Y-32067500D01*
X124442500Y-33020000D02*
X124142500Y-33020000D01*
X92910429Y-26802510D02*
X123005010Y-26802510D01*
X123005010Y-26802510D02*
X125412500Y-29210000D01*
X125412500Y-32067500D02*
X125395000Y-32067500D01*
X125395000Y-32067500D02*
X124442500Y-33020000D01*
X124142500Y-33020000D02*
X120015000Y-33020000D01*
X120015000Y-33020000D02*
X118989999Y-34045001D01*
X118989999Y-34045001D02*
X118989999Y-35417001D01*
X118989999Y-35417001D02*
X119767998Y-36195000D01*
X119767998Y-36195000D02*
X121302500Y-36195000D01*
X121302500Y-36195000D02*
X123842500Y-38735000D01*
X123842500Y-38735000D02*
X124142500Y-38735000D01*
X92710000Y-20002500D02*
X92710000Y-22860000D01*
X136207500Y-33020000D02*
X137207500Y-33020000D01*
X137207500Y-33020000D02*
X137477500Y-32750000D01*
X137477500Y-32750000D02*
X137477500Y-30550498D01*
X137477500Y-30550498D02*
X133279502Y-26352500D01*
X133279502Y-26352500D02*
X96202500Y-26352500D01*
X96202500Y-26352500D02*
X92710000Y-22860000D01*
X136207500Y-33020000D02*
X132080000Y-33020000D01*
X132080000Y-33020000D02*
X131054999Y-34045001D01*
X131054999Y-34045001D02*
X131054999Y-35417001D01*
X131054999Y-35417001D02*
X131832998Y-36195000D01*
X131832998Y-36195000D02*
X133367500Y-36195000D01*
X133367500Y-36195000D02*
X135907500Y-38735000D01*
X135907500Y-38735000D02*
X136207500Y-38735000D01*
X102870000Y-23325000D02*
X102870000Y-22177500D01*
X102870000Y-22177500D02*
X104092500Y-20955000D01*
X104092500Y-20955000D02*
X105092500Y-20955000D01*
X100330000Y-24765000D02*
X101430000Y-24765000D01*
X101430000Y-24765000D02*
X102870000Y-23325000D01*
X52070000Y-24765000D02*
X48647998Y-24765000D01*
X48647998Y-24765000D02*
X43065000Y-30347998D01*
X43065000Y-30347998D02*
X43065000Y-44395919D01*
X42614990Y-30161598D02*
X42439999Y-30336589D01*
X42439999Y-30336589D02*
X42439999Y-55254999D01*
X42439999Y-55254999D02*
X43065000Y-55880000D01*
X48461597Y-24314991D02*
X42614990Y-30161598D01*
X52070000Y-22225000D02*
X50551588Y-22225000D01*
X50551588Y-22225000D02*
X48461597Y-24314991D01*
X47942500Y-55880000D02*
X47942500Y-58102500D01*
X47942500Y-58102500D02*
X46990000Y-59055000D01*
X46990000Y-59055000D02*
X46355000Y-59055000D01*
X46355000Y-59055000D02*
X45402500Y-60007500D01*
X45402500Y-61325000D02*
X45672500Y-61595000D01*
X45402500Y-60007500D02*
X45402500Y-61325000D01*
X45672500Y-61595000D02*
X46672500Y-61595000D01*
X47942500Y-55880000D02*
X51752500Y-55880000D01*
X46672500Y-55880000D02*
X47942500Y-55880000D01*
X41910000Y-55650002D02*
X42862500Y-56602502D01*
X48895000Y-106680000D02*
X47942500Y-105727500D01*
X47942500Y-105727500D02*
X46355000Y-105727500D01*
X46355000Y-105727500D02*
X42862500Y-102235000D01*
X42862500Y-102235000D02*
X42862500Y-56602502D01*
X41910000Y-55650002D02*
X41910000Y-30162500D01*
X41910000Y-30162500D02*
X50482500Y-21590000D01*
X50970000Y-19685000D02*
X52070000Y-19685000D01*
X50482500Y-21590000D02*
X50482500Y-20172500D01*
X50482500Y-20172500D02*
X50970000Y-19685000D01*
X78422500Y-110490000D02*
X78422500Y-111590000D01*
X78422500Y-111590000D02*
X78422500Y-113347500D01*
X60325000Y-106362500D02*
X60325000Y-107362500D01*
X60325000Y-107362500D02*
X63452500Y-110490000D01*
X63452500Y-110490000D02*
X77322500Y-110490000D01*
X77322500Y-110490000D02*
X78422500Y-110490000D01*
X80962500Y-110490000D02*
X80962500Y-113347500D01*
X74312500Y-109220000D02*
X79692500Y-109220000D01*
X79692500Y-109220000D02*
X80962500Y-110490000D01*
X71755000Y-106662500D02*
X74312500Y-109220000D01*
X71755000Y-106362500D02*
X71755000Y-106662500D01*
X83502500Y-110490000D02*
X83502500Y-113347500D01*
X83185000Y-106362500D02*
X83185000Y-110172500D01*
X83185000Y-110172500D02*
X83502500Y-110490000D01*
X86042500Y-110490000D02*
X86042500Y-113347500D01*
X86042500Y-110490000D02*
X88662530Y-107869970D01*
X88662530Y-107869970D02*
X94107530Y-107869970D01*
X94107530Y-107869970D02*
X94615000Y-107362500D01*
X94615000Y-107362500D02*
X94615000Y-106362500D01*
X88582500Y-110490000D02*
X88582500Y-113347500D01*
X105675020Y-108319980D02*
X106045000Y-107950000D01*
X106045000Y-107950000D02*
X106045000Y-106362500D01*
X88582500Y-110490000D02*
X90752520Y-108319980D01*
X90752520Y-108319980D02*
X105675020Y-108319980D01*
X91122500Y-110490000D02*
X91122500Y-113347500D01*
X91122500Y-110490000D02*
X92842510Y-108769990D01*
X92842510Y-108769990D02*
X116067510Y-108769990D01*
X116067510Y-108769990D02*
X117475000Y-107362500D01*
X117475000Y-107362500D02*
X117475000Y-106362500D01*
X93662500Y-110490000D02*
X93662500Y-113347500D01*
X127635000Y-109220000D02*
X128905000Y-107950000D01*
X128905000Y-107950000D02*
X128905000Y-106362500D01*
X94932500Y-109220000D02*
X127635000Y-109220000D01*
X93662500Y-110490000D02*
X94932500Y-109220000D01*
X96202500Y-110490000D02*
X96202500Y-113347500D01*
X131127500Y-110490000D02*
X137795000Y-103822500D01*
X137795000Y-103822500D02*
X137795000Y-100330000D01*
X96202500Y-110490000D02*
X131127500Y-110490000D01*
X116442470Y-70247530D02*
X116442470Y-89186380D01*
X116442470Y-89186380D02*
X116522500Y-89266410D01*
X116522500Y-89266410D02*
X116522500Y-95885000D01*
X116442470Y-62784970D02*
X116442470Y-70247530D01*
X115887500Y-52387500D02*
X115887500Y-62230000D01*
X115887500Y-62230000D02*
X116442470Y-62784970D01*
X114935000Y-30480000D02*
X114935000Y-51435000D01*
X114935000Y-51435000D02*
X115887500Y-52387500D01*
X113347500Y-28892500D02*
X114935000Y-30480000D01*
X107632500Y-20955000D02*
X109172500Y-20955000D01*
X107362500Y-20955000D02*
X107632500Y-20955000D01*
X107632500Y-20955000D02*
X107632500Y-24447500D01*
X107632500Y-24447500D02*
X108902500Y-25717500D01*
X105092500Y-19685000D02*
X106092500Y-19685000D01*
X106092500Y-19685000D02*
X107362500Y-20955000D01*
X109172500Y-20955000D02*
X110172500Y-20955000D01*
X100965000Y-21907500D02*
X103187500Y-19685000D01*
X103187500Y-19685000D02*
X105092500Y-19685000D01*
X116205000Y-17462500D02*
X116205000Y-18462500D01*
X116205000Y-18462500D02*
X118697500Y-20955000D01*
X118697500Y-20955000D02*
X119697500Y-20955000D01*
X119697500Y-19685000D02*
X121602500Y-19685000D01*
X121602500Y-19685000D02*
X122872500Y-20955000D01*
X122872500Y-20955000D02*
X125412500Y-20955000D01*
X118427500Y-16827500D02*
X119697500Y-18097500D01*
X119697500Y-18097500D02*
X119697500Y-19685000D01*
X128270000Y-60642500D02*
X128905000Y-61277500D01*
X128905000Y-61277500D02*
X128905000Y-71437500D01*
X128270000Y-29527500D02*
X128270000Y-60642500D01*
X128514999Y-29282501D02*
X128270000Y-29527500D01*
X128905000Y-27305000D02*
X128514999Y-27695001D01*
X128514999Y-27695001D02*
X128514999Y-29282501D01*
X128905000Y-21907500D02*
X128905000Y-25400000D01*
X125412500Y-19685000D02*
X126682500Y-19685000D01*
X126682500Y-19685000D02*
X128905000Y-21907500D01*
X53587002Y-89335498D02*
X53340000Y-89582500D01*
X53340000Y-89582500D02*
X53340000Y-106362500D01*
X49847500Y-50165000D02*
X51752500Y-50165000D01*
X48577500Y-48895000D02*
X49847500Y-50165000D01*
X46672500Y-48895000D02*
X48577500Y-48895000D01*
X53472510Y-54610000D02*
X53472510Y-50165000D01*
X53472510Y-50165000D02*
X53472510Y-37915010D01*
X51752500Y-50165000D02*
X53472510Y-50165000D01*
X47625000Y-34925000D02*
X49912500Y-34925000D01*
X49912500Y-34925000D02*
X51752500Y-36765000D01*
X51752500Y-36765000D02*
X51752500Y-37465000D01*
X53022500Y-65406410D02*
X53022500Y-82818590D01*
X53022500Y-82818590D02*
X53587002Y-83383092D01*
X53587002Y-83383092D02*
X53587002Y-89335498D01*
X53975000Y-57736090D02*
X53975000Y-64453910D01*
X53975000Y-64453910D02*
X53022500Y-65406410D01*
X53472510Y-37915010D02*
X53022500Y-37465000D01*
X53022500Y-37465000D02*
X51752500Y-37465000D01*
X53472510Y-54610000D02*
X53472510Y-57233600D01*
X53472510Y-57233600D02*
X53975000Y-57736090D01*
X53587002Y-89335498D02*
X52752500Y-90170000D01*
X52752500Y-90170000D02*
X51752500Y-90170000D01*
X51752500Y-54610000D02*
X52752500Y-54610000D01*
X52752500Y-54610000D02*
X53472510Y-54610000D01*
X54610000Y-106362500D02*
X57785000Y-106362500D01*
X65135000Y-89852500D02*
X64817500Y-90170000D01*
X65722500Y-89265000D02*
X65135000Y-89852500D01*
X65135000Y-104997500D02*
X64770000Y-105362500D01*
X65135000Y-89852500D02*
X65135000Y-104997500D01*
X64770000Y-105362500D02*
X64770000Y-106362500D01*
X65405000Y-54610000D02*
X65405000Y-57801090D01*
X66040000Y-58436090D02*
X66040000Y-64453910D01*
X65087500Y-65406410D02*
X65087500Y-82866090D01*
X65405000Y-57801090D02*
X66040000Y-58436090D01*
X65722500Y-83501090D02*
X65722500Y-89265000D01*
X66040000Y-64453910D02*
X65087500Y-65406410D01*
X65087500Y-82866090D02*
X65722500Y-83501090D01*
X64817500Y-90170000D02*
X63817500Y-90170000D01*
X65405000Y-37782500D02*
X65405000Y-50165000D01*
X65405000Y-50165000D02*
X65405000Y-54610000D01*
X63817500Y-50165000D02*
X65405000Y-50165000D01*
X63817500Y-37465000D02*
X65087500Y-37465000D01*
X65087500Y-37465000D02*
X65405000Y-37782500D01*
X65405000Y-54610000D02*
X63817500Y-54610000D01*
X58737500Y-48895000D02*
X60912500Y-48895000D01*
X60912500Y-48895000D02*
X62182500Y-50165000D01*
X62182500Y-50165000D02*
X62817500Y-50165000D01*
X62817500Y-50165000D02*
X63817500Y-50165000D01*
X59690000Y-34925000D02*
X61977500Y-34925000D01*
X61977500Y-34925000D02*
X63817500Y-36765000D01*
X63817500Y-36765000D02*
X63817500Y-37465000D01*
X66040000Y-106362500D02*
X69215000Y-106362500D01*
X77470000Y-54610000D02*
X77470000Y-50165000D01*
X75882500Y-54610000D02*
X77470000Y-54610000D01*
X76200000Y-106362500D02*
X76200000Y-105362500D01*
X76200000Y-105362500D02*
X77787500Y-103775000D01*
X77787500Y-103775000D02*
X77787500Y-89265000D01*
X75882500Y-50165000D02*
X77470000Y-50165000D01*
X75882500Y-90170000D02*
X76882500Y-90170000D01*
X76882500Y-90170000D02*
X77787500Y-89265000D01*
X77152500Y-82866090D02*
X77152500Y-65406410D01*
X77787500Y-89265000D02*
X77787500Y-83501090D01*
X77787500Y-83501090D02*
X77152500Y-82866090D01*
X77152500Y-65406410D02*
X78105000Y-64453910D01*
X78105000Y-64453910D02*
X78105000Y-58102500D01*
X78105000Y-58102500D02*
X77470000Y-57467500D01*
X77470000Y-57467500D02*
X77470000Y-54610000D01*
X75882500Y-37465000D02*
X77152500Y-37465000D01*
X77152500Y-37465000D02*
X77470000Y-37782500D01*
X77470000Y-37782500D02*
X77470000Y-54610000D01*
X72707500Y-48895000D02*
X73977500Y-50165000D01*
X73977500Y-50165000D02*
X75882500Y-50165000D01*
X70802500Y-48895000D02*
X72707500Y-48895000D01*
X71755000Y-34925000D02*
X74042500Y-34925000D01*
X74042500Y-34925000D02*
X75882500Y-36765000D01*
X75882500Y-36765000D02*
X75882500Y-37465000D01*
X77470000Y-106362500D02*
X80645000Y-106362500D01*
X87630000Y-106362500D02*
X87630000Y-105362500D01*
X87630000Y-105362500D02*
X89667510Y-103324990D01*
X89667510Y-103324990D02*
X89667510Y-89449990D01*
X87947500Y-90170000D02*
X88947500Y-90170000D01*
X89217500Y-65406410D02*
X90117519Y-64506391D01*
X90117519Y-64506391D02*
X90117520Y-58383610D01*
X88947500Y-90170000D02*
X89667510Y-89449990D01*
X89667510Y-89449990D02*
X89667510Y-83000010D01*
X89667510Y-83000010D02*
X89217500Y-82550000D01*
X89217500Y-82550000D02*
X89217500Y-65406410D01*
X90117520Y-58383610D02*
X89535000Y-57801090D01*
X89535000Y-57801090D02*
X89535000Y-54610000D01*
X84772500Y-48895000D02*
X86042500Y-50165000D01*
X86042500Y-50165000D02*
X87947500Y-50165000D01*
X82867500Y-48895000D02*
X84772500Y-48895000D01*
X89535000Y-37782500D02*
X89535000Y-50165000D01*
X89535000Y-50165000D02*
X89535000Y-54610000D01*
X87947500Y-50165000D02*
X89535000Y-50165000D01*
X87947500Y-37465000D02*
X89217500Y-37465000D01*
X89535000Y-54610000D02*
X87947500Y-54610000D01*
X89217500Y-37465000D02*
X89535000Y-37782500D01*
X83820000Y-34925000D02*
X86107500Y-34925000D01*
X86107500Y-34925000D02*
X87947500Y-36765000D01*
X87947500Y-36765000D02*
X87947500Y-37465000D01*
X88900000Y-106362500D02*
X92075000Y-106362500D01*
X101732510Y-83268600D02*
X101732510Y-89535000D01*
X101732510Y-89535000D02*
X101732510Y-89719990D01*
X99060000Y-106362500D02*
X99060000Y-106236471D01*
X99060000Y-106236471D02*
X101732510Y-103563961D01*
X101732510Y-103563961D02*
X101732510Y-89535000D01*
X101600000Y-54610000D02*
X101600000Y-58801090D01*
X101600000Y-58801090D02*
X102182519Y-59383611D01*
X101282500Y-65090320D02*
X101282500Y-82818590D01*
X102182519Y-59383611D02*
X102182518Y-64190302D01*
X102182518Y-64190302D02*
X101282500Y-65090320D01*
X101282500Y-82818590D02*
X101732510Y-83268600D01*
X101732510Y-89719990D02*
X101282500Y-90170000D01*
X101282500Y-90170000D02*
X101012500Y-90170000D01*
X101012500Y-90170000D02*
X100012500Y-90170000D01*
X96837500Y-48895000D02*
X98107500Y-50165000D01*
X98107500Y-50165000D02*
X100012500Y-50165000D01*
X94932500Y-48895000D02*
X96837500Y-48895000D01*
X101600000Y-37782500D02*
X101600000Y-50165000D01*
X101012500Y-50165000D02*
X101600000Y-50165000D01*
X101600000Y-50165000D02*
X101600000Y-54610000D01*
X100012500Y-50165000D02*
X101012500Y-50165000D01*
X100012500Y-37465000D02*
X101282500Y-37465000D01*
X101282500Y-37465000D02*
X101600000Y-37782500D01*
X101600000Y-54610000D02*
X100012500Y-54610000D01*
X95885000Y-34925000D02*
X98172500Y-34925000D01*
X98172500Y-34925000D02*
X100012500Y-36765000D01*
X100012500Y-36765000D02*
X100012500Y-37465000D01*
X100330000Y-106362500D02*
X103505000Y-106362500D01*
X112712500Y-104457500D02*
X113347500Y-103822500D01*
X113347500Y-103822500D02*
X113347500Y-90170000D01*
X111395000Y-104457500D02*
X112712500Y-104457500D01*
X110490000Y-106362500D02*
X110490000Y-105362500D01*
X110490000Y-105362500D02*
X111395000Y-104457500D01*
X112077500Y-90170000D02*
X113347500Y-90170000D01*
X113347500Y-82550000D02*
X113347500Y-65090320D01*
X113347500Y-90170000D02*
X113797510Y-89719990D01*
X113347500Y-65090320D02*
X114247518Y-64190302D01*
X113797510Y-89719990D02*
X113797510Y-83000010D01*
X113797510Y-83000010D02*
X113347500Y-82550000D01*
X114247518Y-64190302D02*
X114247519Y-59383611D01*
X114247519Y-59383611D02*
X113665000Y-58801090D01*
X113665000Y-58801090D02*
X113665000Y-54610000D01*
X113665000Y-37782500D02*
X113665000Y-50165000D01*
X113665000Y-50165000D02*
X113665000Y-54610000D01*
X112077500Y-50165000D02*
X112377500Y-50165000D01*
X112377500Y-50165000D02*
X113665000Y-50165000D01*
X112077500Y-37465000D02*
X113347500Y-37465000D01*
X113347500Y-37465000D02*
X113665000Y-37782500D01*
X113665000Y-54610000D02*
X112077500Y-54610000D01*
X106997500Y-48895000D02*
X108902500Y-48895000D01*
X108902500Y-48895000D02*
X110172500Y-50165000D01*
X110172500Y-50165000D02*
X112077500Y-50165000D01*
X107950000Y-34925000D02*
X110237500Y-34925000D01*
X112077500Y-36765000D02*
X112077500Y-37465000D01*
X110237500Y-34925000D02*
X112077500Y-36765000D01*
X111760000Y-106362500D02*
X114935000Y-106362500D01*
X124142500Y-104457500D02*
X123525000Y-104457500D01*
X123525000Y-104457500D02*
X121920000Y-106062500D01*
X121920000Y-106062500D02*
X121920000Y-106362500D01*
X125412500Y-103187500D02*
X124142500Y-104457500D01*
X125412500Y-90170000D02*
X125412500Y-103187500D01*
X125730000Y-54610000D02*
X125730000Y-59639680D01*
X125730000Y-59639680D02*
X126312519Y-60222201D01*
X125412500Y-82818590D02*
X125862509Y-83268599D01*
X126312519Y-60222201D02*
X126312518Y-64190302D01*
X125412500Y-65090320D02*
X125412500Y-82818590D01*
X126312518Y-64190302D02*
X125412500Y-65090320D01*
X125862509Y-83268599D02*
X125862509Y-89719991D01*
X125862509Y-89719991D02*
X125412500Y-90170000D01*
X125412500Y-90170000D02*
X124142500Y-90170000D01*
X125730000Y-37782500D02*
X125730000Y-50165000D01*
X125730000Y-50165000D02*
X125730000Y-54610000D01*
X124142500Y-50165000D02*
X125730000Y-50165000D01*
X124142500Y-37465000D02*
X125412500Y-37465000D01*
X125412500Y-37465000D02*
X125730000Y-37782500D01*
X125730000Y-54610000D02*
X124142500Y-54610000D01*
X120967500Y-48895000D02*
X122237500Y-50165000D01*
X122237500Y-50165000D02*
X124142500Y-50165000D01*
X119062500Y-48895000D02*
X120967500Y-48895000D01*
X120015000Y-34925000D02*
X122302500Y-34925000D01*
X122302500Y-34925000D02*
X124142500Y-36765000D01*
X124142500Y-36765000D02*
X124142500Y-37465000D01*
X123190000Y-106362500D02*
X126365000Y-106362500D01*
X130810000Y-100330000D02*
X130810000Y-100030000D01*
X130810000Y-100030000D02*
X133685000Y-97155000D01*
X137477500Y-95885000D02*
X137477500Y-83137500D01*
X133685000Y-97155000D02*
X136207500Y-97155000D01*
X136207500Y-97155000D02*
X137477500Y-95885000D01*
X137477500Y-83137500D02*
X137207500Y-82867500D01*
X136207500Y-82867500D02*
X137207500Y-82867500D01*
X137207500Y-82867500D02*
X137927510Y-82147490D01*
X137927510Y-82147490D02*
X137927510Y-54742510D01*
X137927510Y-54742510D02*
X137795000Y-54610000D01*
X137795000Y-37782500D02*
X137795000Y-50165000D01*
X136207500Y-50165000D02*
X137795000Y-50165000D01*
X137795000Y-50165000D02*
X137795000Y-54610000D01*
X136207500Y-37465000D02*
X137477500Y-37465000D01*
X137477500Y-37465000D02*
X137795000Y-37782500D01*
X137795000Y-54610000D02*
X136207500Y-54610000D01*
X133032500Y-48895000D02*
X134302500Y-50165000D01*
X134302500Y-50165000D02*
X136207500Y-50165000D01*
X131127500Y-48895000D02*
X133032500Y-48895000D01*
X132080000Y-34925000D02*
X134367500Y-34925000D01*
X134367500Y-34925000D02*
X136207500Y-36765000D01*
X136207500Y-36765000D02*
X136207500Y-37465000D01*
X132080000Y-100330000D02*
X135255000Y-100330000D01*
X51752500Y-40005000D02*
X51752500Y-43180000D01*
X51752500Y-71755000D02*
X51752500Y-66040000D01*
X51752500Y-66040000D02*
X53472510Y-64319990D01*
X53472510Y-64319990D02*
X53472510Y-57870010D01*
X53472510Y-57870010D02*
X52752500Y-57150000D01*
X52752500Y-57150000D02*
X51752500Y-57150000D01*
X44952490Y-54610000D02*
X44450000Y-55112490D01*
X44450000Y-55112490D02*
X44450000Y-88947500D01*
X44450000Y-88947500D02*
X45672500Y-90170000D01*
X45672500Y-90170000D02*
X46672500Y-90170000D01*
X44952490Y-54610000D02*
X44952490Y-50165000D01*
X44952490Y-50165000D02*
X44952490Y-37915010D01*
X46672500Y-50165000D02*
X44952490Y-50165000D01*
X45085000Y-34925000D02*
X45085000Y-37147500D01*
X45085000Y-37147500D02*
X45402500Y-37465000D01*
X44952490Y-37915010D02*
X45402500Y-37465000D01*
X45402500Y-37465000D02*
X46672500Y-37465000D01*
X46672500Y-54610000D02*
X44952490Y-54610000D01*
X46672500Y-71755000D02*
X45720000Y-71755000D01*
X44952490Y-57917510D02*
X45720000Y-57150000D01*
X45720000Y-71755000D02*
X44952490Y-70987490D01*
X44952490Y-70987490D02*
X44952490Y-57917510D01*
X45720000Y-57150000D02*
X46672500Y-57150000D01*
X47625000Y-31750000D02*
X49212500Y-31750000D01*
X49212500Y-31750000D02*
X51752500Y-31750000D01*
X49847500Y-28892500D02*
X49147501Y-29592499D01*
X49147501Y-29592499D02*
X49147501Y-31685001D01*
X49147501Y-31685001D02*
X49212500Y-31750000D01*
X46149990Y-33225010D02*
X47625000Y-31750000D01*
X46149990Y-35673900D02*
X46149990Y-33225010D01*
X47942500Y-38465000D02*
X47942500Y-37338971D01*
X47942500Y-37338971D02*
X47248539Y-36645010D01*
X47248539Y-36645010D02*
X47121099Y-36645009D01*
X47121099Y-36645009D02*
X46149990Y-35673900D01*
X46672500Y-38735000D02*
X47672500Y-38735000D01*
X47672500Y-38735000D02*
X47942500Y-38465000D01*
X46672500Y-40005000D02*
X46672500Y-43180000D01*
X53657500Y-74295000D02*
X53657500Y-65407820D01*
X53657500Y-65407820D02*
X54610000Y-64455320D01*
X54610000Y-64455320D02*
X54610000Y-45720000D01*
X51752500Y-74295000D02*
X51752500Y-77470000D01*
X46355000Y-102552500D02*
X46990000Y-102552500D01*
X46990000Y-102552500D02*
X47942500Y-101600000D01*
X47942500Y-89170000D02*
X47672500Y-88900000D01*
X47942500Y-101600000D02*
X47942500Y-89170000D01*
X47672500Y-88900000D02*
X46672500Y-88900000D01*
X45672500Y-88900000D02*
X46672500Y-88900000D01*
X51752500Y-73025000D02*
X50752500Y-73025000D01*
X50752500Y-73025000D02*
X50482500Y-73295000D01*
X50482500Y-73295000D02*
X50482500Y-81597500D01*
X46672500Y-83185000D02*
X45672500Y-83185000D01*
X45672500Y-83185000D02*
X45402500Y-83455000D01*
X45402500Y-83455000D02*
X45402500Y-88630000D01*
X45402500Y-88630000D02*
X45672500Y-88900000D01*
X51435000Y-100012500D02*
X50482500Y-100012500D01*
X50482500Y-100012500D02*
X50165000Y-99695000D01*
X50165000Y-99695000D02*
X50165000Y-89487500D01*
X50165000Y-89487500D02*
X50752500Y-88900000D01*
X50752500Y-88900000D02*
X51752500Y-88900000D01*
X46672500Y-84455000D02*
X47942500Y-84455000D01*
X47942500Y-84455000D02*
X50182500Y-84455000D01*
X47942500Y-84185000D02*
X47942500Y-84455000D01*
X50182500Y-84455000D02*
X51452500Y-83185000D01*
X51452500Y-83185000D02*
X51752500Y-83185000D01*
X51752500Y-83185000D02*
X52752500Y-83185000D01*
X53022500Y-88630000D02*
X52752500Y-88900000D01*
X52752500Y-83185000D02*
X53022500Y-83455000D01*
X53022500Y-83455000D02*
X53022500Y-88630000D01*
X52752500Y-88900000D02*
X51752500Y-88900000D01*
X47942500Y-67580000D02*
X47942500Y-73025000D01*
X47942500Y-73025000D02*
X47942500Y-84185000D01*
X46672500Y-73025000D02*
X47942500Y-73025000D01*
X46672500Y-67310000D02*
X47672500Y-67310000D01*
X47672500Y-67310000D02*
X47942500Y-67580000D01*
X44132500Y-53022500D02*
X44132500Y-45720000D01*
X49212500Y-54927500D02*
X47307500Y-53022500D01*
X47307500Y-53022500D02*
X45720000Y-53022500D01*
X49212500Y-61912500D02*
X49212500Y-56832500D01*
X50482500Y-69850000D02*
X51117500Y-69215000D01*
X51117500Y-69215000D02*
X51117500Y-66992500D01*
X50482500Y-72390000D02*
X50482500Y-69850000D01*
X49530000Y-73342500D02*
X50482500Y-72390000D01*
X48577500Y-74295000D02*
X49530000Y-73342500D01*
X46672500Y-74295000D02*
X46672500Y-77470000D01*
X46672500Y-91440000D02*
X46672500Y-94615000D01*
X51752500Y-91440000D02*
X51752500Y-94615000D01*
X63817500Y-40005000D02*
X63817500Y-43180000D01*
X60007500Y-55880000D02*
X60007500Y-58102500D01*
X58102500Y-59055000D02*
X57467500Y-59690000D01*
X60007500Y-58102500D02*
X59055000Y-59055000D01*
X59055000Y-59055000D02*
X58102500Y-59055000D01*
X57467500Y-59690000D02*
X57467500Y-61325000D01*
X57467500Y-61325000D02*
X57737500Y-61595000D01*
X57737500Y-61595000D02*
X58737500Y-61595000D01*
X60007500Y-55880000D02*
X63817500Y-55880000D01*
X58737500Y-55880000D02*
X60007500Y-55880000D01*
X53022500Y-63380002D02*
X53022500Y-61295000D01*
X53022500Y-61295000D02*
X52052500Y-60325000D01*
X52052500Y-60325000D02*
X51752500Y-60325000D01*
X49847500Y-65722500D02*
X50547499Y-65022501D01*
X50547499Y-65022501D02*
X51380001Y-65022501D01*
X51380001Y-65022501D02*
X53022500Y-63380002D01*
X65537510Y-64319990D02*
X63817500Y-66040000D01*
X63817500Y-66040000D02*
X63817500Y-71755000D01*
X63817500Y-57150000D02*
X64117500Y-57150000D01*
X64117500Y-57150000D02*
X65537510Y-58570010D01*
X65537510Y-58570010D02*
X65537510Y-64319990D01*
X57150000Y-54610000D02*
X56515000Y-55245000D01*
X56515000Y-55245000D02*
X56515000Y-88947500D01*
X56515000Y-88947500D02*
X57737500Y-90170000D01*
X57737500Y-90170000D02*
X58737500Y-90170000D01*
X57150000Y-54610000D02*
X57150000Y-50165000D01*
X57150000Y-50165000D02*
X57150000Y-37782500D01*
X58737500Y-50165000D02*
X57737500Y-50165000D01*
X57737500Y-50165000D02*
X57150000Y-50165000D01*
X57150000Y-37782500D02*
X57467500Y-37465000D01*
X58737500Y-54610000D02*
X57150000Y-54610000D01*
X57150000Y-37147500D02*
X57467500Y-37465000D01*
X57467500Y-37465000D02*
X58737500Y-37465000D01*
X57150000Y-34925000D02*
X57150000Y-37147500D01*
X57785000Y-57150000D02*
X58737500Y-57150000D01*
X57017490Y-57917510D02*
X57785000Y-57150000D01*
X58737500Y-71755000D02*
X57737500Y-71755000D01*
X57737500Y-71755000D02*
X57017490Y-71034990D01*
X57017490Y-71034990D02*
X57017490Y-57917510D01*
X61277500Y-31750000D02*
X61912500Y-31750000D01*
X61912500Y-31750000D02*
X63817500Y-31750000D01*
X58737500Y-38735000D02*
X59037500Y-38735000D01*
X59037500Y-38735000D02*
X59812510Y-37959990D01*
X59812510Y-37959990D02*
X59812510Y-37143981D01*
X59812510Y-37143981D02*
X59313539Y-36645010D01*
X59313539Y-36645010D02*
X59256597Y-36645009D01*
X58214990Y-34246598D02*
X60711588Y-31750000D01*
X59256597Y-36645009D02*
X58214989Y-35603401D01*
X58214989Y-35603401D02*
X58214990Y-34246598D01*
X60711588Y-31750000D02*
X61912500Y-31750000D01*
X61212501Y-31685001D02*
X61277500Y-31750000D01*
X61912500Y-28892500D02*
X61212501Y-29592499D01*
X61212501Y-29592499D02*
X61212501Y-31685001D01*
X58737500Y-40005000D02*
X58737500Y-43180000D01*
X66490010Y-58235010D02*
X66040000Y-57785000D01*
X66040000Y-57785000D02*
X66040000Y-45720000D01*
X66490010Y-64640310D02*
X66490010Y-58235010D01*
X65722500Y-65407820D02*
X66490010Y-64640310D01*
X65722500Y-66675000D02*
X65722500Y-65407820D01*
X65722500Y-72072500D02*
X65722500Y-66675000D01*
X65722500Y-72390000D02*
X65722500Y-72072500D01*
X65722500Y-74295000D02*
X65722500Y-72390000D01*
X63817500Y-74295000D02*
X63817500Y-77470000D01*
X62547500Y-73295000D02*
X62547500Y-81597500D01*
X63817500Y-73025000D02*
X62817500Y-73025000D01*
X62817500Y-73025000D02*
X62547500Y-73295000D01*
X58737500Y-83185000D02*
X57737500Y-83185000D01*
X57467500Y-88630000D02*
X57737500Y-88900000D01*
X57737500Y-83185000D02*
X57467500Y-83455000D01*
X57467500Y-83455000D02*
X57467500Y-88630000D01*
X57737500Y-88900000D02*
X58737500Y-88900000D01*
X59055000Y-102552500D02*
X58420000Y-102552500D01*
X60007500Y-101600000D02*
X59055000Y-102552500D01*
X60007500Y-89170000D02*
X60007500Y-101600000D01*
X58737500Y-88900000D02*
X59737500Y-88900000D01*
X59737500Y-88900000D02*
X60007500Y-89170000D01*
X60007500Y-84455000D02*
X60007500Y-73025000D01*
X60007500Y-73025000D02*
X60007500Y-67580000D01*
X59737500Y-73025000D02*
X60007500Y-73025000D01*
X58737500Y-73025000D02*
X59737500Y-73025000D01*
X60007500Y-67580000D02*
X59737500Y-67310000D01*
X59737500Y-67310000D02*
X58737500Y-67310000D01*
X60007500Y-84455000D02*
X62247500Y-84455000D01*
X58737500Y-84455000D02*
X60007500Y-84455000D01*
X63817500Y-83185000D02*
X64770000Y-83185000D01*
X64817500Y-88900000D02*
X63817500Y-88900000D01*
X64770000Y-83185000D02*
X65087500Y-83502500D01*
X65087500Y-83502500D02*
X65087500Y-88630000D01*
X65087500Y-88630000D02*
X64817500Y-88900000D01*
X62247500Y-84455000D02*
X63517500Y-83185000D01*
X63517500Y-83185000D02*
X63817500Y-83185000D01*
X63500000Y-100012500D02*
X62547500Y-100012500D01*
X62547500Y-100012500D02*
X62230000Y-99695000D01*
X62230000Y-89487500D02*
X62817500Y-88900000D01*
X62230000Y-99695000D02*
X62230000Y-89487500D01*
X62817500Y-88900000D02*
X63817500Y-88900000D01*
X56197500Y-53340000D02*
X56197500Y-45720000D01*
X61277500Y-54927500D02*
X59690000Y-53340000D01*
X59690000Y-53340000D02*
X57785000Y-53340000D01*
X61277500Y-61912500D02*
X61277500Y-56832500D01*
X60642500Y-72072500D02*
X63182500Y-69532500D01*
X63182500Y-69532500D02*
X63182500Y-66992500D01*
X60642500Y-74295000D02*
X60642500Y-72072500D01*
X58737500Y-74295000D02*
X58737500Y-74995000D01*
X58737500Y-74995000D02*
X58737500Y-77470000D01*
X58737500Y-91440000D02*
X58737500Y-94615000D01*
X63817500Y-91440000D02*
X63817500Y-94615000D01*
X75882500Y-40005000D02*
X75882500Y-43180000D01*
X72072500Y-55880000D02*
X72072500Y-58102500D01*
X72072500Y-58102500D02*
X71120000Y-59055000D01*
X70167500Y-59055000D02*
X69532500Y-59690000D01*
X69532500Y-59690000D02*
X69532500Y-61325000D01*
X71120000Y-59055000D02*
X70167500Y-59055000D01*
X69532500Y-61325000D02*
X69802500Y-61595000D01*
X69802500Y-61595000D02*
X70802500Y-61595000D01*
X72072500Y-55880000D02*
X75882500Y-55880000D01*
X70802500Y-55880000D02*
X72072500Y-55880000D01*
X65087500Y-63817500D02*
X63182500Y-65722500D01*
X63182500Y-65722500D02*
X61912500Y-65722500D01*
X65087500Y-61277500D02*
X65087500Y-63817500D01*
X64135000Y-60325000D02*
X65087500Y-61277500D01*
X63817500Y-60325000D02*
X64135000Y-60325000D01*
X75882500Y-66040000D02*
X75882500Y-71755000D01*
X77602510Y-64319990D02*
X75882500Y-66040000D01*
X75882500Y-57150000D02*
X76182500Y-57150000D01*
X76182500Y-57150000D02*
X77602510Y-58570010D01*
X77602510Y-58570010D02*
X77602510Y-64319990D01*
X70802500Y-90170000D02*
X69802500Y-90170000D01*
X69802500Y-90170000D02*
X68632481Y-88999981D01*
X68632481Y-88999981D02*
X68632481Y-55192519D01*
X68632481Y-55192519D02*
X69215000Y-54610000D01*
X69215000Y-54610000D02*
X69215000Y-50165000D01*
X69215000Y-50165000D02*
X69215000Y-37782500D01*
X70802500Y-50165000D02*
X69215000Y-50165000D01*
X70802500Y-54610000D02*
X69215000Y-54610000D01*
X69215000Y-37782500D02*
X69532500Y-37465000D01*
X69215000Y-34925000D02*
X69215000Y-37147500D01*
X69215000Y-37147500D02*
X69532500Y-37465000D01*
X69532500Y-37465000D02*
X70802500Y-37465000D01*
X70802500Y-57150000D02*
X69850000Y-57150000D01*
X69850000Y-57150000D02*
X69082490Y-57917510D01*
X69082490Y-57917510D02*
X69082490Y-70987490D01*
X69082490Y-70987490D02*
X69850000Y-71755000D01*
X69850000Y-71755000D02*
X70802500Y-71755000D01*
X75882500Y-31750000D02*
X73342500Y-31750000D01*
X73342500Y-31750000D02*
X72286590Y-31750000D01*
X73977500Y-28892500D02*
X73277501Y-29592499D01*
X73277501Y-29592499D02*
X73277501Y-31685001D01*
X73277501Y-31685001D02*
X73342500Y-31750000D01*
X71321597Y-36645009D02*
X71378538Y-36645009D01*
X71378538Y-36645009D02*
X71877510Y-37143981D01*
X71877510Y-37143981D02*
X71877510Y-37959990D01*
X71877510Y-37959990D02*
X71102500Y-38735000D01*
X71102500Y-38735000D02*
X70802500Y-38735000D01*
X72286590Y-31750000D02*
X70279989Y-33756601D01*
X70279989Y-33756601D02*
X70279990Y-35603402D01*
X70279990Y-35603402D02*
X71321597Y-36645009D01*
X70802500Y-40005000D02*
X70802500Y-43180000D01*
X75882500Y-74295000D02*
X75882500Y-77470000D01*
X77920010Y-56965010D02*
X77920010Y-45904990D01*
X77920010Y-45904990D02*
X78105000Y-45720000D01*
X78555010Y-64640310D02*
X78555010Y-57600010D01*
X78555010Y-57600010D02*
X77920010Y-56965010D01*
X77787500Y-74295000D02*
X77787500Y-65407820D01*
X77787500Y-65407820D02*
X78555010Y-64640310D01*
X70802500Y-83185000D02*
X69850000Y-83185000D01*
X69850000Y-83185000D02*
X69532500Y-83502500D01*
X69532500Y-83502500D02*
X69532500Y-88630000D01*
X69532500Y-88630000D02*
X69802500Y-88900000D01*
X69802500Y-88900000D02*
X70802500Y-88900000D01*
X72072500Y-89170000D02*
X72072500Y-100965000D01*
X72072500Y-100965000D02*
X70485000Y-102552500D01*
X70802500Y-88900000D02*
X71802500Y-88900000D01*
X71802500Y-88900000D02*
X72072500Y-89170000D01*
X74612500Y-73342500D02*
X74612500Y-81597500D01*
X74930000Y-73025000D02*
X74612500Y-73342500D01*
X75882500Y-73025000D02*
X74930000Y-73025000D01*
X75882500Y-83185000D02*
X76835000Y-83185000D01*
X76835000Y-83185000D02*
X77152500Y-83502500D01*
X77152500Y-83502500D02*
X77152500Y-88630000D01*
X76882500Y-88900000D02*
X75882500Y-88900000D01*
X77152500Y-88630000D02*
X76882500Y-88900000D01*
X75565000Y-100012500D02*
X74612500Y-100012500D01*
X74612500Y-100012500D02*
X74295000Y-99695000D01*
X74882500Y-88900000D02*
X75882500Y-88900000D01*
X74295000Y-99695000D02*
X74295000Y-89487500D01*
X74295000Y-89487500D02*
X74882500Y-88900000D01*
X72072500Y-67627500D02*
X72072500Y-73025000D01*
X72072500Y-73025000D02*
X72072500Y-84455000D01*
X70802500Y-73025000D02*
X72072500Y-73025000D01*
X70802500Y-84455000D02*
X72072500Y-84455000D01*
X72072500Y-84455000D02*
X74312500Y-84455000D01*
X71755000Y-67310000D02*
X72072500Y-67627500D01*
X70802500Y-67310000D02*
X71755000Y-67310000D01*
X74312500Y-84455000D02*
X75582500Y-83185000D01*
X75582500Y-83185000D02*
X75882500Y-83185000D01*
X68262500Y-53340000D02*
X68262500Y-45720000D01*
X73342500Y-54927500D02*
X71755000Y-53340000D01*
X71755000Y-53340000D02*
X70167500Y-53340000D01*
X73342500Y-61912500D02*
X73342500Y-56832500D01*
X72707500Y-72072500D02*
X75247500Y-69532500D01*
X75247500Y-69532500D02*
X75247500Y-66992500D01*
X72707500Y-74295000D02*
X72707500Y-72072500D01*
X70802500Y-74295000D02*
X70802500Y-77470000D01*
X70802500Y-91440000D02*
X70802500Y-94615000D01*
X75882500Y-91440000D02*
X75882500Y-92140000D01*
X75882500Y-92140000D02*
X75882500Y-94615000D01*
X87947500Y-40005000D02*
X87947500Y-40705000D01*
X87947500Y-40705000D02*
X87947500Y-43180000D01*
X84137500Y-55880000D02*
X84137500Y-58102500D01*
X84137500Y-58102500D02*
X83185000Y-59055000D01*
X83185000Y-59055000D02*
X82232500Y-59055000D01*
X82232500Y-59055000D02*
X81597500Y-59690000D01*
X81597500Y-59690000D02*
X81597500Y-61325000D01*
X81597500Y-61325000D02*
X81867500Y-61595000D01*
X81867500Y-61595000D02*
X82867500Y-61595000D01*
X84137500Y-55880000D02*
X87947500Y-55880000D01*
X83867500Y-55880000D02*
X84137500Y-55880000D01*
X82867500Y-55880000D02*
X83867500Y-55880000D01*
X77152500Y-63817500D02*
X77152500Y-61295000D01*
X77152500Y-61295000D02*
X76182500Y-60325000D01*
X76182500Y-60325000D02*
X75882500Y-60325000D01*
X75247500Y-65722500D02*
X77152500Y-63817500D01*
X73977500Y-65722500D02*
X75247500Y-65722500D01*
X87947500Y-57150000D02*
X88247500Y-57150000D01*
X88247500Y-57150000D02*
X89667510Y-58570010D01*
X89667510Y-58570010D02*
X89667510Y-64319990D01*
X89667510Y-64319990D02*
X87947500Y-66040000D01*
X87947500Y-66040000D02*
X87947500Y-71755000D01*
X81280000Y-54610000D02*
X82867500Y-54610000D01*
X82867500Y-50165000D02*
X81280000Y-50165000D01*
X81280000Y-50165000D02*
X81280000Y-54610000D01*
X81280000Y-54610000D02*
X80645000Y-55245000D01*
X80645000Y-55245000D02*
X80645000Y-88947500D01*
X80645000Y-88947500D02*
X81867500Y-90170000D01*
X81867500Y-90170000D02*
X82867500Y-90170000D01*
X81280000Y-37782500D02*
X81280000Y-54610000D01*
X81597500Y-37465000D02*
X81280000Y-37782500D01*
X81280000Y-37147500D02*
X81597500Y-37465000D01*
X81597500Y-37465000D02*
X82867500Y-37465000D01*
X81280000Y-34925000D02*
X81280000Y-37147500D01*
X81915000Y-71755000D02*
X82867500Y-71755000D01*
X81147490Y-70987490D02*
X81915000Y-71755000D01*
X82867500Y-57150000D02*
X81867500Y-57150000D01*
X81867500Y-57150000D02*
X81147490Y-57870010D01*
X81147490Y-57870010D02*
X81147490Y-70987490D01*
X87947500Y-31750000D02*
X85407500Y-31750000D01*
X85407500Y-31750000D02*
X84453590Y-31750000D01*
X86042500Y-28892500D02*
X85342501Y-29592499D01*
X85342501Y-29592499D02*
X85342501Y-31685001D01*
X85342501Y-31685001D02*
X85407500Y-31750000D01*
X84453590Y-31750000D02*
X82344989Y-33858601D01*
X82344989Y-33858601D02*
X82344990Y-35603402D01*
X82344990Y-35603402D02*
X83431578Y-36689990D01*
X83431578Y-36689990D02*
X83997490Y-36689990D01*
X83997490Y-36689990D02*
X84455000Y-37147500D01*
X84455000Y-37147500D02*
X84455000Y-38147500D01*
X84455000Y-38147500D02*
X83867500Y-38735000D01*
X83867500Y-38735000D02*
X82867500Y-38735000D01*
X82867500Y-40005000D02*
X82867500Y-43180000D01*
X89852500Y-65475498D02*
X89852500Y-74295000D01*
X90567529Y-61277500D02*
X90567529Y-64760469D01*
X90567529Y-64760469D02*
X89852500Y-65475498D01*
X90567529Y-58197211D02*
X90567529Y-61277500D01*
X90170000Y-49847500D02*
X90170000Y-57799680D01*
X90170000Y-57799680D02*
X90567529Y-58197211D01*
X90170000Y-45720000D02*
X90170000Y-49847500D01*
X87947500Y-74295000D02*
X87947500Y-77470000D01*
X86677500Y-73295000D02*
X86677500Y-81597500D01*
X87947500Y-73025000D02*
X86947500Y-73025000D01*
X86947500Y-73025000D02*
X86677500Y-73295000D01*
X84137500Y-89170000D02*
X84137500Y-100965000D01*
X84137500Y-100965000D02*
X82550000Y-102552500D01*
X82867500Y-88900000D02*
X83867500Y-88900000D01*
X83867500Y-88900000D02*
X84137500Y-89170000D01*
X82867500Y-88900000D02*
X81867500Y-88900000D01*
X81867500Y-88900000D02*
X81597500Y-88630000D01*
X81597500Y-88630000D02*
X81597500Y-83455000D01*
X81597500Y-83455000D02*
X81867500Y-83185000D01*
X81867500Y-83185000D02*
X82867500Y-83185000D01*
X84137500Y-67580000D02*
X84137500Y-73025000D01*
X87630000Y-100012500D02*
X86677500Y-100012500D01*
X86677500Y-100012500D02*
X86360000Y-99695000D01*
X86360000Y-99695000D02*
X86360000Y-89487500D01*
X86360000Y-89487500D02*
X86947500Y-88900000D01*
X86947500Y-88900000D02*
X87947500Y-88900000D01*
X87947500Y-83185000D02*
X88947500Y-83185000D01*
X88947500Y-83185000D02*
X89217500Y-83455000D01*
X88947500Y-88900000D02*
X87947500Y-88900000D01*
X89217500Y-83455000D02*
X89217500Y-88630000D01*
X89217500Y-88630000D02*
X88947500Y-88900000D01*
X82867500Y-84455000D02*
X86377500Y-84455000D01*
X86377500Y-84455000D02*
X87647500Y-83185000D01*
X87647500Y-83185000D02*
X87947500Y-83185000D01*
X82867500Y-73025000D02*
X84137500Y-73025000D01*
X84137500Y-84455000D02*
X82867500Y-84455000D01*
X84137500Y-67580000D02*
X84137500Y-84455000D01*
X82867500Y-67310000D02*
X83867500Y-67310000D01*
X83867500Y-67310000D02*
X84137500Y-67580000D01*
X80327500Y-53340000D02*
X80327500Y-45720000D01*
X85407500Y-54927500D02*
X83820000Y-53340000D01*
X83820000Y-53340000D02*
X82232500Y-53340000D01*
X85407500Y-61912500D02*
X85407500Y-56832500D01*
X84772500Y-72072500D02*
X87312500Y-69532500D01*
X87312500Y-69532500D02*
X87312500Y-66992500D01*
X84772500Y-74295000D02*
X84772500Y-72072500D01*
X82867500Y-74295000D02*
X82867500Y-77470000D01*
X82867500Y-91440000D02*
X82867500Y-94615000D01*
X87947500Y-91440000D02*
X87947500Y-92140000D01*
X87947500Y-92140000D02*
X87947500Y-94615000D01*
X100012500Y-40005000D02*
X100012500Y-43180000D01*
X95932500Y-55880000D02*
X96202500Y-55880000D01*
X94932500Y-61595000D02*
X93980000Y-61595000D01*
X94297500Y-59055000D02*
X95250000Y-59055000D01*
X96202500Y-55880000D02*
X100012500Y-55880000D01*
X93980000Y-61595000D02*
X93662500Y-61277500D01*
X93662500Y-61277500D02*
X93662500Y-59690000D01*
X93662500Y-59690000D02*
X94297500Y-59055000D01*
X95250000Y-59055000D02*
X96202500Y-58102500D01*
X96202500Y-58102500D02*
X96202500Y-55880000D01*
X94932500Y-55880000D02*
X95932500Y-55880000D01*
X87947500Y-60325000D02*
X88247500Y-60325000D01*
X88247500Y-60325000D02*
X89217500Y-61295000D01*
X87312500Y-65722500D02*
X86042500Y-65722500D01*
X89217500Y-61295000D02*
X89217500Y-63817500D01*
X89217500Y-63817500D02*
X87312500Y-65722500D01*
X100012500Y-57150000D02*
X100012500Y-57850000D01*
X100012500Y-57850000D02*
X101732510Y-59570010D01*
X101732510Y-59570010D02*
X101732509Y-64003901D01*
X101732509Y-64003901D02*
X100012500Y-65723910D01*
X100012500Y-65723910D02*
X100012500Y-71755000D01*
X92710000Y-88947500D02*
X92710000Y-55245000D01*
X92710000Y-55245000D02*
X93345000Y-54610000D01*
X94932500Y-90170000D02*
X93932500Y-90170000D01*
X93932500Y-90170000D02*
X92710000Y-88947500D01*
X93345000Y-50165000D02*
X93345000Y-54610000D01*
X93345000Y-37782500D02*
X93345000Y-50165000D01*
X93345000Y-50165000D02*
X94932500Y-50165000D01*
X93662500Y-37465000D02*
X93345000Y-37782500D01*
X93345000Y-54610000D02*
X94932500Y-54610000D01*
X93345000Y-34925000D02*
X93345000Y-37147500D01*
X93345000Y-37147500D02*
X93662500Y-37465000D01*
X93662500Y-37465000D02*
X94932500Y-37465000D01*
X94932500Y-57150000D02*
X93980000Y-57150000D01*
X93980000Y-57150000D02*
X93212490Y-57917510D01*
X93212490Y-57917510D02*
X93212490Y-70987490D01*
X93212490Y-70987490D02*
X93980000Y-71755000D01*
X93980000Y-71755000D02*
X94932500Y-71755000D01*
X100012500Y-31750000D02*
X97472500Y-31750000D01*
X98107500Y-28892500D02*
X97407501Y-29592499D01*
X97472500Y-31750000D02*
X96518590Y-31750000D01*
X97407501Y-29592499D02*
X97407501Y-31685001D01*
X97407501Y-31685001D02*
X97472500Y-31750000D01*
X95451598Y-36645010D02*
X96017510Y-36645010D01*
X96518590Y-31750000D02*
X94409989Y-33858601D01*
X94409989Y-33858601D02*
X94409990Y-35603402D01*
X94409990Y-35603402D02*
X95451598Y-36645010D01*
X96017510Y-36645010D02*
X96202500Y-36830000D01*
X96202500Y-36830000D02*
X96202500Y-38465000D01*
X96202500Y-38465000D02*
X95932500Y-38735000D01*
X95932500Y-38735000D02*
X94932500Y-38735000D01*
X94932500Y-40005000D02*
X94932500Y-43053971D01*
X94932500Y-43053971D02*
X94932500Y-43180000D01*
X101917500Y-65091730D02*
X101917500Y-74295000D01*
X102632528Y-64372472D02*
X102632527Y-64376703D01*
X102632527Y-64376703D02*
X101917500Y-65091730D01*
X102632528Y-59197212D02*
X102632528Y-64372472D01*
X102235000Y-54927500D02*
X102235000Y-58799682D01*
X102235000Y-58799682D02*
X102632528Y-59197212D01*
X102235000Y-54610000D02*
X102235000Y-54927500D01*
X102235000Y-45720000D02*
X102235000Y-54610000D01*
X100012500Y-74295000D02*
X100012500Y-77470000D01*
X94932500Y-83185000D02*
X93932500Y-83185000D01*
X93662500Y-83455000D02*
X93662500Y-88630000D01*
X93932500Y-83185000D02*
X93662500Y-83455000D01*
X93662500Y-88630000D02*
X93932500Y-88900000D01*
X93932500Y-88900000D02*
X94932500Y-88900000D01*
X98742500Y-73295000D02*
X98742500Y-81597500D01*
X100012500Y-73025000D02*
X99012500Y-73025000D01*
X99012500Y-73025000D02*
X98742500Y-73295000D01*
X96202500Y-89170000D02*
X96202500Y-100965000D01*
X96202500Y-100965000D02*
X94615000Y-102552500D01*
X94932500Y-88900000D02*
X95932500Y-88900000D01*
X95932500Y-88900000D02*
X96202500Y-89170000D01*
X100012500Y-83185000D02*
X101012500Y-83185000D01*
X101012500Y-83185000D02*
X101282500Y-83455000D01*
X101282500Y-83455000D02*
X101282500Y-88630000D01*
X101282500Y-88630000D02*
X101012500Y-88900000D01*
X101012500Y-88900000D02*
X100012500Y-88900000D01*
X99695000Y-100012500D02*
X98742500Y-99060000D01*
X98742500Y-99060000D02*
X98742500Y-89170000D01*
X98742500Y-89170000D02*
X99012500Y-88900000D01*
X99012500Y-88900000D02*
X100012500Y-88900000D01*
X96202500Y-67580000D02*
X96202500Y-73025000D01*
X96202500Y-73025000D02*
X96202500Y-84455000D01*
X94932500Y-73025000D02*
X96202500Y-73025000D01*
X94932500Y-84455000D02*
X96202500Y-84455000D01*
X94932500Y-67310000D02*
X95932500Y-67310000D01*
X95932500Y-67310000D02*
X96202500Y-67580000D01*
X98442500Y-84455000D02*
X99712500Y-83185000D01*
X96202500Y-84455000D02*
X98442500Y-84455000D01*
X99712500Y-83185000D02*
X100012500Y-83185000D01*
X92392500Y-53340000D02*
X92392500Y-45720000D01*
X95885000Y-53340000D02*
X94297500Y-53340000D01*
X96379990Y-53834990D02*
X95885000Y-53340000D01*
X97472500Y-54927500D02*
X96379990Y-53834990D01*
X97472500Y-61912500D02*
X97472500Y-56832500D01*
X96837500Y-72072500D02*
X99377500Y-69532500D01*
X99377500Y-69532500D02*
X99377500Y-66992500D01*
X96837500Y-74295000D02*
X96837500Y-72072500D01*
X94932500Y-74295000D02*
X94932500Y-77470000D01*
X94932500Y-91440000D02*
X94932500Y-94615000D01*
X100012500Y-91440000D02*
X100012500Y-92140000D01*
X100012500Y-92140000D02*
X100012500Y-94615000D01*
X112077500Y-40005000D02*
X112077500Y-40705000D01*
X112077500Y-40705000D02*
X112077500Y-43180000D01*
X108267500Y-55880000D02*
X108267500Y-58102500D01*
X108267500Y-58102500D02*
X107315000Y-59055000D01*
X107315000Y-59055000D02*
X106362500Y-59055000D01*
X105860010Y-61457510D02*
X105997500Y-61595000D01*
X106362500Y-59055000D02*
X105860010Y-59557490D01*
X105860010Y-59557490D02*
X105860010Y-61457510D01*
X105997500Y-61595000D02*
X106997500Y-61595000D01*
X108267500Y-55880000D02*
X106997500Y-55880000D01*
X112077500Y-55880000D02*
X108267500Y-55880000D01*
X98107500Y-65722500D02*
X99377500Y-65722500D01*
X99377500Y-65722500D02*
X101282500Y-63817500D01*
X101282500Y-63817500D02*
X101282500Y-60595000D01*
X101282500Y-60595000D02*
X101012500Y-60325000D01*
X101012500Y-60325000D02*
X100012500Y-60325000D01*
X112077500Y-57150000D02*
X112077500Y-57850000D01*
X112077500Y-57850000D02*
X113797510Y-59570010D01*
X113797509Y-64003901D02*
X112077500Y-65723910D01*
X113797510Y-59570010D02*
X113797509Y-64003901D01*
X112077500Y-65723910D02*
X112077500Y-71755000D01*
X106997500Y-90170000D02*
X105997500Y-90170000D01*
X105997500Y-90170000D02*
X104959990Y-89132490D01*
X104959990Y-55060010D02*
X105410000Y-54610000D01*
X104959990Y-89132490D02*
X104959990Y-55060010D01*
X105410000Y-50165000D02*
X105410000Y-54610000D01*
X105410000Y-37782500D02*
X105410000Y-50165000D01*
X105410000Y-50165000D02*
X106997500Y-50165000D01*
X105410000Y-54610000D02*
X106997500Y-54610000D01*
X105727500Y-37465000D02*
X105410000Y-37782500D01*
X105410000Y-37147500D02*
X105727500Y-37465000D01*
X105727500Y-37465000D02*
X106997500Y-37465000D01*
X105410000Y-34925000D02*
X105410000Y-37147500D01*
X106997500Y-57150000D02*
X106045000Y-57150000D01*
X106045000Y-57150000D02*
X105410000Y-57785000D01*
X105410000Y-57785000D02*
X105410000Y-71167500D01*
X105410000Y-71167500D02*
X105997500Y-71755000D01*
X105997500Y-71755000D02*
X106997500Y-71755000D01*
X112077500Y-31750000D02*
X109537500Y-31750000D01*
X109537500Y-31750000D02*
X108583590Y-31750000D01*
X110172500Y-28892500D02*
X109472501Y-29592499D01*
X109472501Y-29592499D02*
X109472501Y-31685001D01*
X109472501Y-31685001D02*
X109537500Y-31750000D01*
X108583590Y-31750000D02*
X106435001Y-33898589D01*
X106435001Y-33898589D02*
X106435001Y-35632501D01*
X106435001Y-35632501D02*
X107447510Y-36645010D01*
X108902500Y-38417500D02*
X108585000Y-38735000D01*
X107447510Y-36645010D02*
X108400010Y-36645010D01*
X108400010Y-36645010D02*
X108902500Y-37147500D01*
X108902500Y-37147500D02*
X108902500Y-38417500D01*
X108585000Y-38735000D02*
X106997500Y-38735000D01*
X106997500Y-40005000D02*
X106997500Y-43180000D01*
X114697527Y-64376703D02*
X113982500Y-65091730D01*
X113982500Y-65091730D02*
X113982500Y-74295000D01*
X114697528Y-59197212D02*
X114697527Y-64376703D01*
X114300000Y-55562500D02*
X114300000Y-58799682D01*
X114300000Y-58799682D02*
X114697528Y-59197212D01*
X114300000Y-53340000D02*
X114300000Y-55562500D01*
X114300000Y-45720000D02*
X114300000Y-53340000D01*
X112077500Y-74295000D02*
X112077500Y-77470000D01*
X108267500Y-89170000D02*
X108267500Y-100965000D01*
X108267500Y-100965000D02*
X106680000Y-102552500D01*
X106997500Y-88900000D02*
X107997500Y-88900000D01*
X107997500Y-88900000D02*
X108267500Y-89170000D01*
X106997500Y-83185000D02*
X105997500Y-83185000D01*
X105997500Y-83185000D02*
X105727500Y-83455000D01*
X105727500Y-83455000D02*
X105727500Y-88630000D01*
X105727500Y-88630000D02*
X105997500Y-88900000D01*
X105997500Y-88900000D02*
X106997500Y-88900000D01*
X112077500Y-73025000D02*
X111077500Y-73025000D01*
X111077500Y-73025000D02*
X110807500Y-73295000D01*
X110807500Y-73295000D02*
X110807500Y-81597500D01*
X110807500Y-89170000D02*
X110807500Y-99060000D01*
X110807500Y-99060000D02*
X111760000Y-100012500D01*
X112077500Y-88900000D02*
X111077500Y-88900000D01*
X111077500Y-88900000D02*
X110807500Y-89170000D01*
X112077500Y-83185000D02*
X113077500Y-83185000D01*
X113077500Y-83185000D02*
X113347500Y-83455000D01*
X113347500Y-83455000D02*
X113347500Y-88630000D01*
X113347500Y-88630000D02*
X113077500Y-88900000D01*
X113077500Y-88900000D02*
X112077500Y-88900000D01*
X108267500Y-67580000D02*
X108267500Y-73025000D01*
X108267500Y-73025000D02*
X108267500Y-84455000D01*
X106997500Y-73025000D02*
X107997500Y-73025000D01*
X107997500Y-73025000D02*
X108267500Y-73025000D01*
X106997500Y-84455000D02*
X108267500Y-84455000D01*
X108267500Y-84455000D02*
X110507500Y-84455000D01*
X106997500Y-67310000D02*
X107997500Y-67310000D01*
X107997500Y-67310000D02*
X108267500Y-67580000D01*
X110507500Y-84455000D02*
X111777500Y-83185000D01*
X111777500Y-83185000D02*
X112077500Y-83185000D01*
X104775000Y-53340000D02*
X104775000Y-45720000D01*
X109537500Y-54927500D02*
X107950000Y-53340000D01*
X107950000Y-53340000D02*
X106045000Y-53340000D01*
X109537500Y-61912500D02*
X109537500Y-56832500D01*
X108902500Y-72072500D02*
X111442500Y-69532500D01*
X111442500Y-69532500D02*
X111442500Y-66992500D01*
X108902500Y-74295000D02*
X108902500Y-72072500D01*
X106997500Y-74295000D02*
X106997500Y-74995000D01*
X106997500Y-74995000D02*
X106997500Y-77470000D01*
X106997500Y-91440000D02*
X106997500Y-94615000D01*
X112077500Y-91440000D02*
X112077500Y-92140000D01*
X112077500Y-92140000D02*
X112077500Y-94615000D01*
X124142500Y-40005000D02*
X124142500Y-40705000D01*
X124142500Y-40705000D02*
X124142500Y-43180000D01*
X119062500Y-55880000D02*
X120332500Y-55880000D01*
X120332500Y-55880000D02*
X124142500Y-55880000D01*
X119062500Y-61595000D02*
X118062500Y-61595000D01*
X118062500Y-61595000D02*
X117792500Y-61325000D01*
X117792500Y-61325000D02*
X117792500Y-59690000D01*
X117792500Y-59690000D02*
X118427500Y-59055000D01*
X118427500Y-59055000D02*
X119380000Y-59055000D01*
X119380000Y-59055000D02*
X120332500Y-58102500D01*
X120332500Y-58102500D02*
X120332500Y-55880000D01*
X112077500Y-60325000D02*
X113077500Y-60325000D01*
X113077500Y-60325000D02*
X113347500Y-60595000D01*
X113347500Y-60595000D02*
X113347500Y-63817500D01*
X113347500Y-63817500D02*
X111442500Y-65722500D01*
X111442500Y-65722500D02*
X110172500Y-65722500D01*
X125862509Y-64003901D02*
X124142500Y-65723910D01*
X124142500Y-65723910D02*
X124142500Y-71755000D01*
X125862510Y-60408600D02*
X125862509Y-64003901D01*
X124142500Y-57150000D02*
X124142500Y-58688590D01*
X124142500Y-58688590D02*
X125862510Y-60408600D01*
X117475000Y-54610000D02*
X117475000Y-57801090D01*
X117475000Y-57801090D02*
X116892480Y-58383610D01*
X116892480Y-58383610D02*
X116892480Y-88999980D01*
X116892480Y-88999980D02*
X118062500Y-90170000D01*
X118062500Y-90170000D02*
X119062500Y-90170000D01*
X117475000Y-50165000D02*
X117475000Y-54610000D01*
X117475000Y-37782500D02*
X117475000Y-50165000D01*
X117475000Y-50165000D02*
X119062500Y-50165000D01*
X117475000Y-54610000D02*
X119062500Y-54610000D01*
X117792500Y-37465000D02*
X117475000Y-37782500D01*
X117792500Y-37465000D02*
X119062500Y-37465000D01*
X117475000Y-37147500D02*
X117792500Y-37465000D01*
X117475000Y-34925000D02*
X117475000Y-37147500D01*
X118110000Y-71755000D02*
X119062500Y-71755000D01*
X117342490Y-70987490D02*
X118110000Y-71755000D01*
X119062500Y-57150000D02*
X118762500Y-57150000D01*
X118762500Y-57150000D02*
X117342490Y-58570010D01*
X117342490Y-58570010D02*
X117342490Y-70987490D01*
X124142500Y-31750000D02*
X121602500Y-31750000D01*
X121602500Y-31750000D02*
X120648590Y-31750000D01*
X122237500Y-28892500D02*
X121537501Y-29592499D01*
X121537501Y-29592499D02*
X121537501Y-31685001D01*
X121537501Y-31685001D02*
X121602500Y-31750000D01*
X120650000Y-38147500D02*
X120062500Y-38735000D01*
X120648590Y-31750000D02*
X118539989Y-33858601D01*
X119581598Y-36645010D02*
X120147510Y-36645010D01*
X120650000Y-37147500D02*
X120650000Y-38147500D01*
X118539989Y-33858601D02*
X118539990Y-35603402D01*
X118539990Y-35603402D02*
X119581598Y-36645010D01*
X120147510Y-36645010D02*
X120650000Y-37147500D01*
X120062500Y-38735000D02*
X119062500Y-38735000D01*
X119062500Y-40005000D02*
X119062500Y-43180000D01*
X126365000Y-59638273D02*
X126365000Y-45720000D01*
X126762527Y-64376701D02*
X126762528Y-60035801D01*
X126762528Y-60035801D02*
X126365000Y-59638273D01*
X126047500Y-74295000D02*
X126047500Y-65091730D01*
X126047500Y-65091730D02*
X126762527Y-64376701D01*
X124142500Y-74295000D02*
X124142500Y-77470000D01*
X122872500Y-73295000D02*
X122872500Y-81597500D01*
X124142500Y-73025000D02*
X123142500Y-73025000D01*
X123142500Y-73025000D02*
X122872500Y-73295000D01*
X119062500Y-83185000D02*
X118062500Y-83185000D01*
X118062500Y-83185000D02*
X117792500Y-83455000D01*
X117792500Y-83455000D02*
X117792500Y-88630000D01*
X117792500Y-88630000D02*
X118062500Y-88900000D01*
X118062500Y-88900000D02*
X119062500Y-88900000D01*
X120332500Y-89170000D02*
X120332500Y-100965000D01*
X120332500Y-100965000D02*
X118745000Y-102552500D01*
X119062500Y-88900000D02*
X120062500Y-88900000D01*
X120062500Y-88900000D02*
X120332500Y-89170000D01*
X120332500Y-67580000D02*
X120332500Y-73025000D01*
X120332500Y-73025000D02*
X120332500Y-75247500D01*
X119062500Y-73025000D02*
X120062500Y-73025000D01*
X120062500Y-73025000D02*
X120332500Y-73025000D01*
X119062500Y-84455000D02*
X120332500Y-84455000D01*
X120332500Y-84455000D02*
X122572500Y-84455000D01*
X120332500Y-75247500D02*
X120332500Y-84455000D01*
X119062500Y-67310000D02*
X120062500Y-67310000D01*
X120062500Y-67310000D02*
X120332500Y-67580000D01*
X122572500Y-84455000D02*
X123842500Y-83185000D01*
X123842500Y-83185000D02*
X124142500Y-83185000D01*
X124142500Y-83185000D02*
X125142500Y-83185000D01*
X125142500Y-83185000D02*
X125412500Y-83455000D01*
X125412500Y-83455000D02*
X125412500Y-88630000D01*
X125412500Y-88630000D02*
X125142500Y-88900000D01*
X125142500Y-88900000D02*
X124142500Y-88900000D01*
X122872500Y-89170000D02*
X122872500Y-99060000D01*
X122872500Y-99060000D02*
X123825000Y-100012500D01*
X124142500Y-88900000D02*
X123142500Y-88900000D01*
X123142500Y-88900000D02*
X122872500Y-89170000D01*
X116840000Y-53340000D02*
X116840000Y-45720000D01*
X121602500Y-54927500D02*
X120015000Y-53340000D01*
X120015000Y-53340000D02*
X118110000Y-53340000D01*
X121602500Y-61912500D02*
X121602500Y-56832500D01*
X120967500Y-72072500D02*
X123507500Y-69532500D01*
X123507500Y-69532500D02*
X123507500Y-66992500D01*
X120967500Y-74295000D02*
X120967500Y-72072500D01*
X119062500Y-74295000D02*
X119062500Y-77470000D01*
X119062500Y-91440000D02*
X119062500Y-94615000D01*
X124142500Y-91440000D02*
X124142500Y-92140000D01*
X124142500Y-92140000D02*
X124142500Y-94615000D01*
X136207500Y-40005000D02*
X136207500Y-40705000D01*
X136207500Y-40705000D02*
X136207500Y-43180000D01*
X131127500Y-55880000D02*
X136207500Y-55880000D01*
X123507500Y-65722500D02*
X122237500Y-65722500D01*
X125412500Y-63817500D02*
X123507500Y-65722500D01*
X125412500Y-60595000D02*
X125412500Y-63817500D01*
X124142500Y-60325000D02*
X125142500Y-60325000D01*
X125142500Y-60325000D02*
X125412500Y-60595000D01*
X136207500Y-57150000D02*
X136207500Y-64452500D01*
X129540000Y-54610000D02*
X131127500Y-54610000D01*
X129540000Y-50165000D02*
X129540000Y-51435000D01*
X129540000Y-51435000D02*
X129540000Y-54610000D01*
X131127500Y-50165000D02*
X129540000Y-50165000D01*
X129540000Y-54610000D02*
X129540000Y-75833590D01*
X130127500Y-82867500D02*
X131127500Y-82867500D01*
X129540000Y-75833590D02*
X129407490Y-75966100D01*
X129407490Y-75966100D02*
X129407490Y-82147490D01*
X129407490Y-82147490D02*
X130127500Y-82867500D01*
X129540000Y-37782500D02*
X129540000Y-54610000D01*
X129857500Y-37465000D02*
X129540000Y-37782500D01*
X131127500Y-37465000D02*
X129857500Y-37465000D01*
X129540000Y-37147500D02*
X129857500Y-37465000D01*
X129540000Y-34925000D02*
X129540000Y-37147500D01*
X131127500Y-57150000D02*
X131127500Y-64452500D01*
X136207500Y-31750000D02*
X133667500Y-31750000D01*
X133667500Y-31750000D02*
X132713590Y-31750000D01*
X134302500Y-28892500D02*
X133602501Y-29592499D01*
X133602501Y-29592499D02*
X133602501Y-31685001D01*
X133602501Y-31685001D02*
X133667500Y-31750000D01*
X132080000Y-38735000D02*
X131127500Y-38735000D01*
X132715000Y-38100000D02*
X132080000Y-38735000D01*
X132715000Y-37147500D02*
X132715000Y-38100000D01*
X132212510Y-36645010D02*
X132715000Y-37147500D01*
X131646598Y-36645010D02*
X132212510Y-36645010D01*
X132713590Y-31750000D02*
X130604989Y-33858601D01*
X130604989Y-33858601D02*
X130604989Y-35603401D01*
X130604989Y-35603401D02*
X131646598Y-36645010D01*
X131127500Y-40005000D02*
X131127500Y-43180000D01*
X138747500Y-66992500D02*
X138747500Y-45720000D01*
X136207500Y-66992500D02*
X136207500Y-67692500D01*
X136207500Y-67692500D02*
X136207500Y-70167500D01*
X132397500Y-81867500D02*
X132397500Y-93662500D01*
X132397500Y-93662500D02*
X130810000Y-95250000D01*
X131127500Y-81597500D02*
X132127500Y-81597500D01*
X132127500Y-81597500D02*
X132397500Y-81867500D01*
X134937500Y-65992500D02*
X134937500Y-74295000D01*
X136207500Y-65722500D02*
X135207500Y-65722500D01*
X135207500Y-65722500D02*
X134937500Y-65992500D01*
X131127500Y-81597500D02*
X130175000Y-81597500D01*
X130175000Y-81597500D02*
X129857500Y-81280000D01*
X129857500Y-81280000D02*
X129857500Y-76152500D01*
X130127500Y-75882500D02*
X131127500Y-75882500D01*
X129857500Y-76152500D02*
X130127500Y-75882500D01*
X136207500Y-81597500D02*
X135255000Y-81597500D01*
X135255000Y-81597500D02*
X134864999Y-81987501D01*
X134864999Y-81987501D02*
X134864999Y-91684999D01*
X134864999Y-91684999D02*
X135190001Y-92010001D01*
X135190001Y-92010001D02*
X135890000Y-92710000D01*
X136207500Y-75882500D02*
X137207500Y-75882500D01*
X137477500Y-76152500D02*
X137477500Y-81327500D01*
X137207500Y-75882500D02*
X137477500Y-76152500D01*
X137477500Y-81327500D02*
X137207500Y-81597500D01*
X137207500Y-81597500D02*
X136207500Y-81597500D01*
X131127500Y-77152500D02*
X134637500Y-77152500D01*
X134637500Y-77152500D02*
X135907500Y-75882500D01*
X135907500Y-75882500D02*
X136207500Y-75882500D01*
X132397500Y-77152500D02*
X131127500Y-77152500D01*
X132397500Y-65992500D02*
X132397500Y-77152500D01*
X131127500Y-65722500D02*
X132127500Y-65722500D01*
X132127500Y-65722500D02*
X132397500Y-65992500D01*
X128905000Y-53340000D02*
X128905000Y-45720000D01*
X131762500Y-53340000D02*
X130492500Y-53340000D01*
X133350000Y-54927500D02*
X131762500Y-53340000D01*
X133350000Y-66992500D02*
X133350000Y-56832500D01*
X131127500Y-70167500D02*
X131127500Y-66992500D01*
X131127500Y-84137500D02*
X131127500Y-87312500D01*
X136207500Y-84137500D02*
X136207500Y-87312500D01*
X48577500Y-63770000D02*
X48577500Y-61930000D01*
X48577500Y-61930000D02*
X46972500Y-60325000D01*
X46972500Y-60325000D02*
X46672500Y-60325000D01*
X48577500Y-66992500D02*
X48577500Y-63770000D01*
X50752500Y-61595000D02*
X51752500Y-61595000D01*
X48577500Y-63770000D02*
X50752500Y-61595000D01*
X49847500Y-68262500D02*
X48577500Y-66992500D01*
X46672500Y-62865000D02*
X46672500Y-66040000D01*
X60642500Y-61930000D02*
X60642500Y-63817500D01*
X60642500Y-63817500D02*
X60642500Y-66992500D01*
X63817500Y-61595000D02*
X62817500Y-61595000D01*
X62817500Y-61595000D02*
X60642500Y-63770000D01*
X60642500Y-63770000D02*
X60642500Y-63817500D01*
X60642500Y-66992500D02*
X61912500Y-68262500D01*
X58737500Y-60325000D02*
X59037500Y-60325000D01*
X59037500Y-60325000D02*
X60642500Y-61930000D01*
X58737500Y-62865000D02*
X58737500Y-66040000D01*
X72707500Y-66992500D02*
X72707500Y-63817500D01*
X72707500Y-63817500D02*
X72707500Y-61930000D01*
X75882500Y-61595000D02*
X74882500Y-61595000D01*
X74882500Y-61595000D02*
X72707500Y-63770000D01*
X72707500Y-63770000D02*
X72707500Y-63817500D01*
X73977500Y-68262500D02*
X72707500Y-66992500D01*
X72707500Y-61930000D02*
X71102500Y-60325000D01*
X71102500Y-60325000D02*
X70802500Y-60325000D01*
X70802500Y-62865000D02*
X70802500Y-63565000D01*
X70802500Y-63565000D02*
X70802500Y-66040000D01*
X84772500Y-66992500D02*
X84772500Y-63817500D01*
X84772500Y-63817500D02*
X84772500Y-61930000D01*
X86947500Y-61595000D02*
X84772500Y-63770000D01*
X87947500Y-61595000D02*
X86947500Y-61595000D01*
X84772500Y-63770000D02*
X84772500Y-63817500D01*
X86042500Y-68262500D02*
X84772500Y-66992500D01*
X84772500Y-61930000D02*
X83167500Y-60325000D01*
X83167500Y-60325000D02*
X82867500Y-60325000D01*
X82867500Y-62865000D02*
X82867500Y-66040000D01*
X96837500Y-66992500D02*
X96837500Y-63817500D01*
X96837500Y-63817500D02*
X96837500Y-63770000D01*
X95250000Y-60325000D02*
X96837500Y-61912500D01*
X96837500Y-61912500D02*
X96837500Y-63817500D01*
X94932500Y-60325000D02*
X95250000Y-60325000D01*
X98107500Y-68262500D02*
X96837500Y-66992500D01*
X96837500Y-63770000D02*
X99012500Y-61595000D01*
X99012500Y-61595000D02*
X100012500Y-61595000D01*
X94932500Y-66040000D02*
X94932500Y-62865000D01*
X106997500Y-60325000D02*
X107297500Y-60325000D01*
X107297500Y-60325000D02*
X108902500Y-61930000D01*
X108902500Y-61930000D02*
X108902500Y-63770000D01*
X110172500Y-68262500D02*
X108902500Y-66992500D01*
X108902500Y-66992500D02*
X108902500Y-63770000D01*
X108902500Y-63770000D02*
X111077500Y-61595000D01*
X111077500Y-61595000D02*
X112077500Y-61595000D01*
X106997500Y-62865000D02*
X106997500Y-66040000D01*
X120967500Y-66992500D02*
X120967500Y-64135000D01*
X120967500Y-64135000D02*
X120967500Y-63770000D01*
X119062500Y-60325000D02*
X119362500Y-60325000D01*
X119362500Y-60325000D02*
X120967500Y-61930000D01*
X120967500Y-61930000D02*
X120967500Y-64135000D01*
X120967500Y-63770000D02*
X123142500Y-61595000D01*
X123142500Y-61595000D02*
X124142500Y-61595000D01*
X122237500Y-68262500D02*
X120967500Y-66992500D01*
X119062500Y-62865000D02*
X119062500Y-66040000D01*
M02*
