M48
;DRILL file {KiCad 4.0.7-e2-6376~61~ubuntu18.04.1} date Sun Jul 14 07:49:19 2019
;FORMAT={-:-/ absolute / inch / decimal}
FMAT,2
INCH,TZ
T1C0.016
T2C0.024
T3C0.028
T4C0.031
T5C0.039
T6C0.126
%
G90
G05
M72
T1
X1.6955Y-1.7479
X1.6955Y-2.2
X1.725Y-2.7625
X1.7375Y-1.8
X1.7375Y-2.0875
X1.8Y-2.0875
X1.9125Y-2.925
X1.925Y-4.2
X1.9375Y-2.1625
X1.9375Y-2.2375
X1.9375Y-2.4375
X1.9875Y-3.2125
X2.0125Y-2.6375
X2.1125Y-2.925
X2.15Y-1.8
X2.2125Y-1.8
X2.2125Y-2.1
X2.275Y-2.1
X2.3875Y-2.925
X2.4125Y-2.1625
X2.4125Y-2.2375
X2.4125Y-2.4375
X2.4625Y-3.2125
X2.4875Y-2.6375
X2.5875Y-2.925
X2.6Y-1.8
X2.6875Y-1.8
X2.6875Y-2.1
X2.7625Y-2.1
X2.8625Y-2.925
X2.8875Y-2.1625
X2.8875Y-2.2375
X2.8875Y-2.4375
X2.9375Y-3.2125
X2.9625Y-2.6375
X3.0625Y-2.925
X3.075Y-1.8
X3.1625Y-1.8
X3.1625Y-2.1
X3.2375Y-2.1
X3.3375Y-2.925
X3.3625Y-2.1625
X3.3625Y-2.2375
X3.3625Y-2.4375
X3.4125Y-3.2125
X3.4375Y-2.6375
X3.5375Y-2.925
X3.55Y-1.8
X3.6375Y-1.8
X3.6375Y-2.1
X3.7125Y-2.1
X3.8125Y-2.925
X3.8375Y-2.1625
X3.8375Y-2.2375
X3.8375Y-2.4375
X3.8875Y-3.2125
X3.9125Y-2.6375
X4.0125Y-2.925
X4.025Y-1.8
X4.125Y-1.8
X4.125Y-2.1
X4.175Y-2.1
X4.2875Y-1.0125
X4.2875Y-2.925
X4.3125Y-2.1625
X4.3125Y-2.2375
X4.3125Y-2.4375
X4.3625Y-3.2125
X4.3875Y-2.6375
X4.4625Y-1.1375
X4.4875Y-2.925
X4.5Y-1.8
X4.5875Y-3.775
X4.6Y-1.8
X4.6Y-2.1
X4.65Y-2.1
X4.7625Y-2.925
X4.7875Y-2.1625
X4.7875Y-2.2375
X4.7875Y-2.4375
X4.8375Y-3.2125
X4.8625Y-2.6375
X4.9625Y-2.925
X4.975Y-1.8
X5.075Y-1.
X5.075Y-1.075
X5.075Y-1.8
X5.075Y-2.1
X5.075Y-2.8125
X5.1375Y-2.1
X5.25Y-2.1625
X5.25Y-2.2375
X5.25Y-2.6375
X5.3125Y-2.925
X5.4625Y-1.8
X5.4625Y-2.6375
T2
X1.8375Y-1.475
X1.8375Y-1.525
X1.8375Y-1.575
X1.8375Y-1.7
X1.8375Y-1.75
X1.8375Y-1.8
X1.8375Y-1.925
X1.8375Y-1.975
X1.8375Y-2.025
X1.8375Y-2.15
X1.8375Y-2.2
X1.8375Y-2.25
X1.8375Y-2.375
X1.8375Y-2.425
X1.8375Y-2.475
X1.8375Y-2.6
X1.8375Y-2.65
X1.8375Y-2.7
X1.8375Y-2.825
X1.8375Y-2.875
X1.8375Y-2.925
X1.8375Y-3.05
X1.8375Y-3.1
X1.8375Y-3.15
X1.8375Y-3.275
X1.8375Y-3.325
X1.8375Y-3.375
X1.8375Y-3.5
X1.8375Y-3.55
X1.8375Y-3.6
X1.8375Y-3.725
X1.8375Y-3.775
X1.8375Y-3.825
X2.0375Y-1.25
X2.0375Y-1.3
X2.0375Y-1.35
X2.0375Y-1.475
X2.0375Y-1.525
X2.0375Y-1.575
X2.0375Y-1.7
X2.0375Y-1.75
X2.0375Y-1.8
X2.0375Y-1.925
X2.0375Y-1.975
X2.0375Y-2.025
X2.0375Y-2.15
X2.0375Y-2.2
X2.0375Y-2.25
X2.0375Y-2.375
X2.0375Y-2.425
X2.0375Y-2.475
X2.0375Y-2.825
X2.0375Y-2.875
X2.0375Y-2.925
X2.0375Y-3.05
X2.0375Y-3.1
X2.0375Y-3.15
X2.0375Y-3.275
X2.0375Y-3.325
X2.0375Y-3.375
X2.0375Y-3.5
X2.0375Y-3.55
X2.0375Y-3.6
X2.0375Y-3.725
X2.0375Y-3.775
X2.0375Y-3.825
X2.05Y-4.1875
X2.1Y-4.1875
X2.15Y-4.1875
X2.275Y-4.1875
X2.3125Y-1.475
X2.3125Y-1.525
X2.3125Y-1.575
X2.3125Y-1.7
X2.3125Y-1.75
X2.3125Y-1.8
X2.3125Y-1.925
X2.3125Y-1.975
X2.3125Y-2.025
X2.3125Y-2.15
X2.3125Y-2.2
X2.3125Y-2.25
X2.3125Y-2.375
X2.3125Y-2.425
X2.3125Y-2.475
X2.3125Y-2.6
X2.3125Y-2.65
X2.3125Y-2.7
X2.3125Y-2.825
X2.3125Y-2.875
X2.3125Y-2.925
X2.3125Y-3.05
X2.3125Y-3.1
X2.3125Y-3.15
X2.3125Y-3.275
X2.3125Y-3.325
X2.3125Y-3.375
X2.3125Y-3.5
X2.3125Y-3.55
X2.3125Y-3.6
X2.3125Y-3.725
X2.3125Y-3.775
X2.3125Y-3.825
X2.325Y-4.1875
X2.375Y-4.1875
X2.5Y-4.1875
X2.5125Y-1.25
X2.5125Y-1.3
X2.5125Y-1.35
X2.5125Y-1.475
X2.5125Y-1.525
X2.5125Y-1.575
X2.5125Y-1.7
X2.5125Y-1.75
X2.5125Y-1.8
X2.5125Y-1.925
X2.5125Y-1.975
X2.5125Y-2.025
X2.5125Y-2.15
X2.5125Y-2.2
X2.5125Y-2.25
X2.5125Y-2.375
X2.5125Y-2.425
X2.5125Y-2.475
X2.5125Y-2.825
X2.5125Y-2.875
X2.5125Y-2.925
X2.5125Y-3.05
X2.5125Y-3.1
X2.5125Y-3.15
X2.5125Y-3.275
X2.5125Y-3.325
X2.5125Y-3.375
X2.5125Y-3.5
X2.5125Y-3.55
X2.5125Y-3.6
X2.5125Y-3.725
X2.5125Y-3.775
X2.5125Y-3.825
X2.55Y-4.1875
X2.6Y-4.1875
X2.725Y-4.1875
X2.775Y-4.1875
X2.7875Y-1.475
X2.7875Y-1.525
X2.7875Y-1.575
X2.7875Y-1.7
X2.7875Y-1.75
X2.7875Y-1.8
X2.7875Y-1.925
X2.7875Y-1.975
X2.7875Y-2.025
X2.7875Y-2.15
X2.7875Y-2.2
X2.7875Y-2.25
X2.7875Y-2.375
X2.7875Y-2.425
X2.7875Y-2.475
X2.7875Y-2.6
X2.7875Y-2.65
X2.7875Y-2.7
X2.7875Y-2.825
X2.7875Y-2.875
X2.7875Y-2.925
X2.7875Y-3.05
X2.7875Y-3.1
X2.7875Y-3.15
X2.7875Y-3.275
X2.7875Y-3.325
X2.7875Y-3.375
X2.7875Y-3.5
X2.7875Y-3.55
X2.7875Y-3.6
X2.7875Y-3.725
X2.7875Y-3.775
X2.7875Y-3.825
X2.825Y-4.1875
X2.95Y-4.1875
X2.9875Y-1.25
X2.9875Y-1.3
X2.9875Y-1.35
X2.9875Y-1.475
X2.9875Y-1.525
X2.9875Y-1.575
X2.9875Y-1.7
X2.9875Y-1.75
X2.9875Y-1.8
X2.9875Y-1.925
X2.9875Y-1.975
X2.9875Y-2.025
X2.9875Y-2.15
X2.9875Y-2.2
X2.9875Y-2.25
X2.9875Y-2.375
X2.9875Y-2.425
X2.9875Y-2.475
X2.9875Y-2.825
X2.9875Y-2.875
X2.9875Y-2.925
X2.9875Y-3.05
X2.9875Y-3.1
X2.9875Y-3.15
X2.9875Y-3.275
X2.9875Y-3.325
X2.9875Y-3.375
X2.9875Y-3.5
X2.9875Y-3.55
X2.9875Y-3.6
X2.9875Y-3.725
X2.9875Y-3.775
X2.9875Y-3.825
X3.Y-4.1875
X3.05Y-4.1875
X3.175Y-4.1875
X3.225Y-4.1875
X3.2625Y-1.475
X3.2625Y-1.525
X3.2625Y-1.575
X3.2625Y-1.7
X3.2625Y-1.75
X3.2625Y-1.8
X3.2625Y-1.925
X3.2625Y-1.975
X3.2625Y-2.025
X3.2625Y-2.15
X3.2625Y-2.2
X3.2625Y-2.25
X3.2625Y-2.375
X3.2625Y-2.425
X3.2625Y-2.475
X3.2625Y-2.6
X3.2625Y-2.65
X3.2625Y-2.7
X3.2625Y-2.825
X3.2625Y-2.875
X3.2625Y-2.925
X3.2625Y-3.05
X3.2625Y-3.1
X3.2625Y-3.15
X3.2625Y-3.275
X3.2625Y-3.325
X3.2625Y-3.375
X3.2625Y-3.5
X3.2625Y-3.55
X3.2625Y-3.6
X3.2625Y-3.725
X3.2625Y-3.775
X3.2625Y-3.825
X3.275Y-4.1875
X3.4Y-4.1875
X3.45Y-4.1875
X3.4625Y-1.25
X3.4625Y-1.3
X3.4625Y-1.35
X3.4625Y-1.475
X3.4625Y-1.525
X3.4625Y-1.575
X3.4625Y-1.7
X3.4625Y-1.75
X3.4625Y-1.8
X3.4625Y-1.925
X3.4625Y-1.975
X3.4625Y-2.025
X3.4625Y-2.15
X3.4625Y-2.2
X3.4625Y-2.25
X3.4625Y-2.375
X3.4625Y-2.425
X3.4625Y-2.475
X3.4625Y-2.825
X3.4625Y-2.875
X3.4625Y-2.925
X3.4625Y-3.05
X3.4625Y-3.1
X3.4625Y-3.15
X3.4625Y-3.275
X3.4625Y-3.325
X3.4625Y-3.375
X3.4625Y-3.5
X3.4625Y-3.55
X3.4625Y-3.6
X3.4625Y-3.725
X3.4625Y-3.775
X3.4625Y-3.825
X3.5Y-4.1875
X3.625Y-4.1875
X3.675Y-4.1875
X3.725Y-4.1875
X3.7375Y-1.475
X3.7375Y-1.525
X3.7375Y-1.575
X3.7375Y-1.7
X3.7375Y-1.75
X3.7375Y-1.8
X3.7375Y-1.925
X3.7375Y-1.975
X3.7375Y-2.025
X3.7375Y-2.15
X3.7375Y-2.2
X3.7375Y-2.25
X3.7375Y-2.375
X3.7375Y-2.425
X3.7375Y-2.475
X3.7375Y-2.6
X3.7375Y-2.65
X3.7375Y-2.7
X3.7375Y-2.825
X3.7375Y-2.875
X3.7375Y-2.925
X3.7375Y-3.05
X3.7375Y-3.1
X3.7375Y-3.15
X3.7375Y-3.275
X3.7375Y-3.325
X3.7375Y-3.375
X3.7375Y-3.5
X3.7375Y-3.55
X3.7375Y-3.6
X3.7375Y-3.725
X3.7375Y-3.775
X3.7375Y-3.825
X3.85Y-4.1875
X3.9Y-4.1875
X3.9375Y-1.25
X3.9375Y-1.3
X3.9375Y-1.35
X3.9375Y-1.475
X3.9375Y-1.525
X3.9375Y-1.575
X3.9375Y-1.7
X3.9375Y-1.75
X3.9375Y-1.8
X3.9375Y-1.925
X3.9375Y-1.975
X3.9375Y-2.025
X3.9375Y-2.15
X3.9375Y-2.2
X3.9375Y-2.25
X3.9375Y-2.375
X3.9375Y-2.425
X3.9375Y-2.475
X3.9375Y-2.825
X3.9375Y-2.875
X3.9375Y-2.925
X3.9375Y-3.05
X3.9375Y-3.1
X3.9375Y-3.15
X3.9375Y-3.275
X3.9375Y-3.325
X3.9375Y-3.375
X3.9375Y-3.5
X3.9375Y-3.55
X3.9375Y-3.6
X3.9375Y-3.725
X3.9375Y-3.775
X3.9375Y-3.825
X3.95Y-4.1875
X4.075Y-4.1875
X4.125Y-4.1875
X4.1375Y-0.775
X4.1375Y-0.825
X4.1375Y-0.875
X4.175Y-4.1875
X4.2125Y-1.475
X4.2125Y-1.525
X4.2125Y-1.575
X4.2125Y-1.7
X4.2125Y-1.75
X4.2125Y-1.8
X4.2125Y-1.925
X4.2125Y-1.975
X4.2125Y-2.025
X4.2125Y-2.15
X4.2125Y-2.2
X4.2125Y-2.25
X4.2125Y-2.375
X4.2125Y-2.425
X4.2125Y-2.475
X4.2125Y-2.6
X4.2125Y-2.65
X4.2125Y-2.7
X4.2125Y-2.825
X4.2125Y-2.875
X4.2125Y-2.925
X4.2125Y-3.05
X4.2125Y-3.1
X4.2125Y-3.15
X4.2125Y-3.275
X4.2125Y-3.325
X4.2125Y-3.375
X4.2125Y-3.5
X4.2125Y-3.55
X4.2125Y-3.6
X4.2125Y-3.725
X4.2125Y-3.775
X4.2125Y-3.825
X4.3Y-4.1875
X4.3375Y-0.775
X4.3375Y-0.825
X4.3375Y-0.875
X4.35Y-4.1875
X4.4Y-4.1875
X4.4125Y-1.25
X4.4125Y-1.3
X4.4125Y-1.35
X4.4125Y-1.475
X4.4125Y-1.525
X4.4125Y-1.575
X4.4125Y-1.7
X4.4125Y-1.75
X4.4125Y-1.8
X4.4125Y-1.925
X4.4125Y-1.975
X4.4125Y-2.025
X4.4125Y-2.15
X4.4125Y-2.2
X4.4125Y-2.25
X4.4125Y-2.375
X4.4125Y-2.425
X4.4125Y-2.475
X4.4125Y-2.825
X4.4125Y-2.875
X4.4125Y-2.925
X4.4125Y-3.05
X4.4125Y-3.1
X4.4125Y-3.15
X4.4125Y-3.275
X4.4125Y-3.325
X4.4125Y-3.375
X4.4125Y-3.5
X4.4125Y-3.55
X4.4125Y-3.6
X4.4125Y-3.725
X4.4125Y-3.775
X4.4125Y-3.825
X4.525Y-4.1875
X4.575Y-4.1875
X4.625Y-4.1875
X4.6875Y-1.475
X4.6875Y-1.525
X4.6875Y-1.575
X4.6875Y-1.7
X4.6875Y-1.75
X4.6875Y-1.8
X4.6875Y-1.925
X4.6875Y-1.975
X4.6875Y-2.025
X4.6875Y-2.15
X4.6875Y-2.2
X4.6875Y-2.25
X4.6875Y-2.375
X4.6875Y-2.425
X4.6875Y-2.475
X4.6875Y-2.6
X4.6875Y-2.65
X4.6875Y-2.7
X4.6875Y-2.825
X4.6875Y-2.875
X4.6875Y-2.925
X4.6875Y-3.05
X4.6875Y-3.1
X4.6875Y-3.15
X4.6875Y-3.275
X4.6875Y-3.325
X4.6875Y-3.375
X4.6875Y-3.5
X4.6875Y-3.55
X4.6875Y-3.6
X4.6875Y-3.725
X4.6875Y-3.775
X4.6875Y-3.825
X4.7125Y-0.775
X4.7125Y-0.825
X4.7125Y-0.875
X4.75Y-4.1875
X4.8Y-4.1875
X4.85Y-4.1875
X4.8875Y-1.25
X4.8875Y-1.3
X4.8875Y-1.35
X4.8875Y-1.475
X4.8875Y-1.525
X4.8875Y-1.575
X4.8875Y-1.7
X4.8875Y-1.75
X4.8875Y-1.8
X4.8875Y-1.925
X4.8875Y-1.975
X4.8875Y-2.025
X4.8875Y-2.15
X4.8875Y-2.2
X4.8875Y-2.25
X4.8875Y-2.375
X4.8875Y-2.425
X4.8875Y-2.475
X4.8875Y-2.825
X4.8875Y-2.875
X4.8875Y-2.925
X4.8875Y-3.05
X4.8875Y-3.1
X4.8875Y-3.15
X4.8875Y-3.275
X4.8875Y-3.325
X4.8875Y-3.375
X4.8875Y-3.5
X4.8875Y-3.55
X4.8875Y-3.6
X4.8875Y-3.725
X4.8875Y-3.775
X4.8875Y-3.825
X4.9375Y-0.775
X4.9375Y-0.825
X4.9375Y-0.875
X4.975Y-4.1875
X5.025Y-4.1875
X5.075Y-4.1875
X5.1Y-3.95
X5.15Y-3.95
X5.1625Y-1.475
X5.1625Y-1.525
X5.1625Y-1.575
X5.1625Y-1.7
X5.1625Y-1.75
X5.1625Y-1.8
X5.1625Y-1.925
X5.1625Y-1.975
X5.1625Y-2.025
X5.1625Y-2.15
X5.1625Y-2.2
X5.1625Y-2.25
X5.1625Y-2.5375
X5.1625Y-2.5875
X5.1625Y-2.6375
X5.1625Y-2.7625
X5.1625Y-2.8125
X5.1625Y-2.8625
X5.1625Y-2.9875
X5.1625Y-3.0375
X5.1625Y-3.0875
X5.1625Y-3.2125
X5.1625Y-3.2625
X5.1625Y-3.3125
X5.1625Y-3.4375
X5.1625Y-3.4875
X5.1625Y-3.5375
X5.2Y-3.95
X5.325Y-3.95
X5.3625Y-1.25
X5.3625Y-1.3
X5.3625Y-1.35
X5.3625Y-1.475
X5.3625Y-1.525
X5.3625Y-1.575
X5.3625Y-1.7
X5.3625Y-1.75
X5.3625Y-1.8
X5.3625Y-1.925
X5.3625Y-1.975
X5.3625Y-2.025
X5.3625Y-2.15
X5.3625Y-2.2
X5.3625Y-2.25
X5.3625Y-2.5375
X5.3625Y-2.5875
X5.3625Y-2.6375
X5.3625Y-2.7625
X5.3625Y-2.8125
X5.3625Y-2.8625
X5.3625Y-2.9875
X5.3625Y-3.0375
X5.3625Y-3.0875
X5.3625Y-3.2125
X5.3625Y-3.2625
X5.3625Y-3.3125
X5.3625Y-3.4375
X5.3625Y-3.4875
X5.3625Y-3.5375
X5.375Y-3.95
X5.425Y-3.95
T3
X1.775Y-1.175
X1.775Y-1.375
X1.825Y-3.9375
X1.825Y-4.0375
X1.875Y-1.175
X1.875Y-1.375
X1.9625Y-1.1375
X1.9625Y-2.5875
X1.9625Y-2.6875
X2.025Y-3.9375
X2.025Y-4.0375
X2.1625Y-1.1375
X2.1625Y-2.5875
X2.1625Y-2.6875
X2.25Y-1.175
X2.25Y-1.375
X2.3Y-3.9375
X2.3Y-4.0375
X2.35Y-1.175
X2.35Y-1.375
X2.4375Y-1.1375
X2.4375Y-2.5875
X2.4375Y-2.6875
X2.5Y-3.9375
X2.5Y-4.0375
X2.6375Y-1.1375
X2.6375Y-2.5875
X2.6375Y-2.6875
X2.725Y-1.175
X2.725Y-1.375
X2.775Y-3.9375
X2.775Y-4.0375
X2.825Y-1.175
X2.825Y-1.375
X2.9125Y-1.1375
X2.9125Y-2.5875
X2.9125Y-2.6875
X2.975Y-3.9375
X2.975Y-4.0375
X3.1125Y-1.1375
X3.1125Y-2.5875
X3.1125Y-2.6875
X3.2Y-1.175
X3.2Y-1.375
X3.25Y-3.9375
X3.25Y-4.0375
X3.3Y-1.175
X3.3Y-1.375
X3.3875Y-1.1375
X3.3875Y-2.5875
X3.3875Y-2.6875
X3.45Y-3.9375
X3.45Y-4.0375
X3.5875Y-1.1375
X3.5875Y-2.5875
X3.5875Y-2.6875
X3.675Y-1.175
X3.675Y-1.375
X3.725Y-3.9375
X3.725Y-4.0375
X3.775Y-1.175
X3.775Y-1.375
X3.8625Y-1.1375
X3.8625Y-2.5875
X3.8625Y-2.6875
X3.925Y-3.9375
X3.925Y-4.0375
X3.975Y-0.6625
X3.975Y-0.8625
X4.0625Y-1.1375
X4.0625Y-2.5875
X4.0625Y-2.6875
X4.15Y-1.175
X4.15Y-1.375
X4.1875Y-0.6625
X4.2Y-3.9375
X4.2Y-4.0375
X4.25Y-1.175
X4.25Y-1.375
X4.3375Y-1.1375
X4.3375Y-2.5875
X4.3375Y-2.6875
X4.3875Y-0.6625
X4.4Y-3.9375
X4.4Y-4.0375
X4.475Y-0.6875
X4.475Y-0.8875
X4.5375Y-1.1375
X4.5375Y-2.5875
X4.5375Y-2.6875
X4.575Y-0.6875
X4.575Y-0.8875
X4.625Y-1.175
X4.625Y-1.375
X4.6625Y-0.6625
X4.675Y-3.9375
X4.675Y-4.0375
X4.725Y-1.175
X4.725Y-1.375
X4.8125Y-1.1375
X4.8125Y-2.5875
X4.8125Y-2.6875
X4.8625Y-0.6625
X4.875Y-3.9375
X4.875Y-4.0375
X5.0125Y-1.1375
X5.0125Y-2.5875
X5.0125Y-2.6875
X5.075Y-0.6625
X5.075Y-0.8625
X5.1Y-1.175
X5.1Y-1.375
X5.15Y-3.65
X5.15Y-3.75
X5.2Y-1.175
X5.2Y-1.375
X5.2875Y-1.1375
X5.35Y-3.65
X5.35Y-3.75
X5.4875Y-1.1375
T4
X4.1875Y-0.9875
X4.3844Y-0.9875
X4.475Y-0.9875
X4.725Y-0.9875
T5
X2.05Y-0.775
X2.05Y-0.875
X2.05Y-0.975
X2.2625Y-0.7625
X2.2625Y-0.8625
X2.95Y-0.7875
X2.95Y-0.9
X3.05Y-0.7875
X3.05Y-0.9
X3.0875Y-4.35
X3.0875Y-4.4625
X3.15Y-0.7875
X3.15Y-0.9
X3.1875Y-4.35
X3.1875Y-4.4625
X3.25Y-0.7875
X3.25Y-0.9
X3.2875Y-4.35
X3.2875Y-4.4625
X3.35Y-0.7875
X3.35Y-0.9
X3.3875Y-4.35
X3.3875Y-4.4625
X3.45Y-0.7875
X3.45Y-0.9
X3.4875Y-4.35
X3.4875Y-4.4625
X3.55Y-0.7875
X3.55Y-0.9
X3.5875Y-4.35
X3.5875Y-4.4625
X3.65Y-0.7875
X3.65Y-0.9
X3.6875Y-4.35
X3.6875Y-4.4625
X3.7875Y-4.35
X3.7875Y-4.4625
X3.95Y-0.975
T6
X1.825Y-0.8
X1.825Y-4.35
X5.375Y-0.8
X5.375Y-4.35
T0
M30
