%TF.GenerationSoftware,KiCad,Pcbnew,4.0.7-e2-6376~61~ubuntu18.04.1*%
%TF.CreationDate,2020-08-28T19:45:04+02:00*%
%TF.ProjectId,sel,73656C2E6B696361645F706362000000,rev?*%
%TF.FileFunction,Soldermask,Top*%
%FSLAX46Y46*%
G04 Gerber Fmt 4.6, Leading zero omitted, Abs format (unit mm)*
G04 Created by KiCad (PCBNEW 4.0.7-e2-6376~61~ubuntu18.04.1) date Fri Aug 28 19:45:04 2020*
%MOMM*%
%LPD*%
G01*
G04 APERTURE LIST*
%ADD10C,0.100000*%
%ADD11C,0.150000*%
%ADD12R,2.100000X2.100000*%
%ADD13O,2.100000X2.100000*%
%ADD14O,1.900000X1.300000*%
%ADD15R,1.900000X1.300000*%
%ADD16C,1.800000*%
%ADD17O,1.800000X1.800000*%
%ADD18C,6.800000*%
G04 APERTURE END LIST*
D10*
D11*
X41440000Y-15405000D02*
X41440000Y-115405000D01*
X41440000Y-115405000D02*
X141440000Y-115405000D01*
X141440000Y-15405000D02*
X141440000Y-115405000D01*
X41440000Y-15405000D02*
X141440000Y-15405000D01*
D12*
X83820000Y-53340000D03*
D13*
X86360000Y-53340000D03*
X88900000Y-53340000D03*
X91440000Y-53340000D03*
X93980000Y-53340000D03*
X96520000Y-53340000D03*
X99060000Y-53340000D03*
X101600000Y-53340000D03*
D12*
X45085000Y-30480000D03*
D13*
X45085000Y-27940000D03*
D12*
X83820000Y-55880000D03*
D13*
X86360000Y-55880000D03*
X88900000Y-55880000D03*
X91440000Y-55880000D03*
X93980000Y-55880000D03*
X96520000Y-55880000D03*
X99060000Y-55880000D03*
X101600000Y-55880000D03*
D12*
X45085000Y-45720000D03*
X84455000Y-19050000D03*
D13*
X86995000Y-19050000D03*
X89535000Y-19050000D03*
X92075000Y-19050000D03*
X94615000Y-19050000D03*
X97155000Y-19050000D03*
X99695000Y-19050000D03*
X102235000Y-19050000D03*
D12*
X84455000Y-24447500D03*
D13*
X86995000Y-24447500D03*
X89535000Y-24447500D03*
X92075000Y-24447500D03*
X94615000Y-24447500D03*
X97155000Y-24447500D03*
X99695000Y-24447500D03*
X102235000Y-24447500D03*
D12*
X84455000Y-21590000D03*
D13*
X86995000Y-21590000D03*
X89535000Y-21590000D03*
X92075000Y-21590000D03*
X94615000Y-21590000D03*
X97155000Y-21590000D03*
X99695000Y-21590000D03*
X102235000Y-21590000D03*
D12*
X45085000Y-40640000D03*
X45085000Y-43180000D03*
X45085000Y-38100000D03*
X46355000Y-94615000D03*
X46355000Y-97155000D03*
X83820000Y-105410000D03*
D13*
X86360000Y-105410000D03*
X88900000Y-105410000D03*
X91440000Y-105410000D03*
X93980000Y-105410000D03*
X96520000Y-105410000D03*
X99060000Y-105410000D03*
X101600000Y-105410000D03*
D12*
X83820000Y-102870000D03*
D13*
X86360000Y-102870000D03*
X88900000Y-102870000D03*
X91440000Y-102870000D03*
X93980000Y-102870000D03*
X96520000Y-102870000D03*
X99060000Y-102870000D03*
X101600000Y-102870000D03*
D14*
X57150000Y-95885000D03*
X57150000Y-97155000D03*
D15*
X57150000Y-94615000D03*
D14*
X52070000Y-95885000D03*
X52070000Y-97155000D03*
D15*
X52070000Y-94615000D03*
D14*
X57150000Y-90170000D03*
X57150000Y-91440000D03*
D15*
X57150000Y-88900000D03*
D14*
X52070000Y-90170000D03*
X52070000Y-91440000D03*
D15*
X52070000Y-88900000D03*
D14*
X52070000Y-84455000D03*
X52070000Y-85725000D03*
D15*
X52070000Y-83185000D03*
D14*
X57150000Y-84455000D03*
X57150000Y-85725000D03*
D15*
X57150000Y-83185000D03*
D14*
X80010000Y-95885000D03*
X80010000Y-97155000D03*
D15*
X80010000Y-94615000D03*
D14*
X74930000Y-95885000D03*
X74930000Y-97155000D03*
D15*
X74930000Y-94615000D03*
D14*
X80010000Y-90170000D03*
X80010000Y-91440000D03*
D15*
X80010000Y-88900000D03*
D14*
X74930000Y-90170000D03*
X74930000Y-91440000D03*
D15*
X74930000Y-88900000D03*
D14*
X74930000Y-84455000D03*
X74930000Y-85725000D03*
D15*
X74930000Y-83185000D03*
D14*
X80010000Y-84455000D03*
X80010000Y-85725000D03*
D15*
X80010000Y-83185000D03*
D14*
X91440000Y-95885000D03*
X91440000Y-97155000D03*
D15*
X91440000Y-94615000D03*
D14*
X86360000Y-95885000D03*
X86360000Y-97155000D03*
D15*
X86360000Y-94615000D03*
D14*
X91440000Y-90170000D03*
X91440000Y-91440000D03*
D15*
X91440000Y-88900000D03*
D14*
X86360000Y-90170000D03*
X86360000Y-91440000D03*
D15*
X86360000Y-88900000D03*
D14*
X86360000Y-84455000D03*
X86360000Y-85725000D03*
D15*
X86360000Y-83185000D03*
D14*
X91440000Y-84455000D03*
X91440000Y-85725000D03*
D15*
X91440000Y-83185000D03*
D14*
X102870000Y-95885000D03*
X102870000Y-97155000D03*
D15*
X102870000Y-94615000D03*
D14*
X97790000Y-95885000D03*
X97790000Y-97155000D03*
D15*
X97790000Y-94615000D03*
D14*
X102870000Y-90170000D03*
X102870000Y-91440000D03*
D15*
X102870000Y-88900000D03*
D14*
X97790000Y-90170000D03*
X97790000Y-91440000D03*
D15*
X97790000Y-88900000D03*
D14*
X97790000Y-84455000D03*
X97790000Y-85725000D03*
D15*
X97790000Y-83185000D03*
D14*
X102870000Y-84455000D03*
X102870000Y-85725000D03*
D15*
X102870000Y-83185000D03*
D14*
X114300000Y-95885000D03*
X114300000Y-97155000D03*
D15*
X114300000Y-94615000D03*
D14*
X109220000Y-95885000D03*
X109220000Y-97155000D03*
D15*
X109220000Y-94615000D03*
D14*
X114300000Y-90170000D03*
X114300000Y-91440000D03*
D15*
X114300000Y-88900000D03*
D14*
X109220000Y-90170000D03*
X109220000Y-91440000D03*
D15*
X109220000Y-88900000D03*
D14*
X109220000Y-84455000D03*
X109220000Y-85725000D03*
D15*
X109220000Y-83185000D03*
D14*
X114300000Y-84455000D03*
X114300000Y-85725000D03*
D15*
X114300000Y-83185000D03*
D14*
X125730000Y-95885000D03*
X125730000Y-97155000D03*
D15*
X125730000Y-94615000D03*
D14*
X120650000Y-95885000D03*
X120650000Y-97155000D03*
D15*
X120650000Y-94615000D03*
D14*
X125730000Y-90170000D03*
X125730000Y-91440000D03*
D15*
X125730000Y-88900000D03*
D14*
X120650000Y-90170000D03*
X120650000Y-91440000D03*
D15*
X120650000Y-88900000D03*
D14*
X120650000Y-84455000D03*
X120650000Y-85725000D03*
D15*
X120650000Y-83185000D03*
D14*
X125730000Y-84455000D03*
X125730000Y-85725000D03*
D15*
X125730000Y-83185000D03*
D14*
X137160000Y-95885000D03*
X137160000Y-97155000D03*
D15*
X137160000Y-94615000D03*
D14*
X132080000Y-95885000D03*
X132080000Y-97155000D03*
D15*
X132080000Y-94615000D03*
D14*
X137160000Y-90170000D03*
X137160000Y-91440000D03*
D15*
X137160000Y-88900000D03*
D14*
X132080000Y-90170000D03*
X132080000Y-91440000D03*
D15*
X132080000Y-88900000D03*
D14*
X132080000Y-84455000D03*
X132080000Y-85725000D03*
D15*
X132080000Y-83185000D03*
D14*
X137160000Y-84455000D03*
X137160000Y-85725000D03*
D15*
X137160000Y-83185000D03*
D14*
X68580000Y-95885000D03*
X68580000Y-97155000D03*
D15*
X68580000Y-94615000D03*
D14*
X63500000Y-95885000D03*
X63500000Y-97155000D03*
D15*
X63500000Y-94615000D03*
D14*
X68580000Y-90170000D03*
X68580000Y-91440000D03*
D15*
X68580000Y-88900000D03*
D14*
X63500000Y-90170000D03*
X63500000Y-91440000D03*
D15*
X63500000Y-88900000D03*
D14*
X63500000Y-84455000D03*
X63500000Y-85725000D03*
D15*
X63500000Y-83185000D03*
D14*
X68580000Y-84455000D03*
X68580000Y-85725000D03*
D15*
X68580000Y-83185000D03*
D14*
X52070000Y-63500000D03*
X52070000Y-64770000D03*
D15*
X52070000Y-62230000D03*
D14*
X57150000Y-63500000D03*
X57150000Y-64770000D03*
D15*
X57150000Y-62230000D03*
D14*
X63500000Y-63500000D03*
X63500000Y-64770000D03*
D15*
X63500000Y-62230000D03*
D14*
X68580000Y-63500000D03*
X68580000Y-64770000D03*
D15*
X68580000Y-62230000D03*
D14*
X74930000Y-63500000D03*
X74930000Y-64770000D03*
D15*
X74930000Y-62230000D03*
D14*
X80010000Y-63500000D03*
X80010000Y-64770000D03*
D15*
X80010000Y-62230000D03*
D14*
X86360000Y-63500000D03*
X86360000Y-64770000D03*
D15*
X86360000Y-62230000D03*
D14*
X91440000Y-63500000D03*
X91440000Y-64770000D03*
D15*
X91440000Y-62230000D03*
D14*
X97790000Y-63500000D03*
X97790000Y-64770000D03*
D15*
X97790000Y-62230000D03*
D14*
X102870000Y-63500000D03*
X102870000Y-64770000D03*
D15*
X102870000Y-62230000D03*
D14*
X109220000Y-63500000D03*
X109220000Y-64770000D03*
D15*
X109220000Y-62230000D03*
D14*
X114300000Y-63500000D03*
X114300000Y-64770000D03*
D15*
X114300000Y-62230000D03*
D14*
X120650000Y-63500000D03*
X120650000Y-64770000D03*
D15*
X120650000Y-62230000D03*
D14*
X125730000Y-63500000D03*
X125730000Y-64770000D03*
D15*
X125730000Y-62230000D03*
D14*
X132080000Y-63500000D03*
X132080000Y-64770000D03*
D15*
X132080000Y-62230000D03*
D14*
X137160000Y-63500000D03*
X137160000Y-64770000D03*
D15*
X137160000Y-62230000D03*
D14*
X52070000Y-33655000D03*
X52070000Y-34925000D03*
D15*
X52070000Y-32385000D03*
D14*
X52070000Y-39370000D03*
X52070000Y-40640000D03*
D15*
X52070000Y-38100000D03*
D14*
X52070000Y-45085000D03*
X52070000Y-46355000D03*
D15*
X52070000Y-43815000D03*
D14*
X57150000Y-39370000D03*
X57150000Y-40640000D03*
D15*
X57150000Y-38100000D03*
D14*
X57150000Y-45085000D03*
X57150000Y-46355000D03*
D15*
X57150000Y-43815000D03*
D14*
X63500000Y-33655000D03*
X63500000Y-34925000D03*
D15*
X63500000Y-32385000D03*
D14*
X63500000Y-39370000D03*
X63500000Y-40640000D03*
D15*
X63500000Y-38100000D03*
D14*
X63500000Y-45085000D03*
X63500000Y-46355000D03*
D15*
X63500000Y-43815000D03*
D14*
X68580000Y-39370000D03*
X68580000Y-40640000D03*
D15*
X68580000Y-38100000D03*
D14*
X68580000Y-45085000D03*
X68580000Y-46355000D03*
D15*
X68580000Y-43815000D03*
D14*
X74930000Y-33655000D03*
X74930000Y-34925000D03*
D15*
X74930000Y-32385000D03*
D14*
X74930000Y-39370000D03*
X74930000Y-40640000D03*
D15*
X74930000Y-38100000D03*
D14*
X74930000Y-45085000D03*
X74930000Y-46355000D03*
D15*
X74930000Y-43815000D03*
D14*
X80010000Y-39370000D03*
X80010000Y-40640000D03*
D15*
X80010000Y-38100000D03*
D14*
X80010000Y-45085000D03*
X80010000Y-46355000D03*
D15*
X80010000Y-43815000D03*
D14*
X86360000Y-33655000D03*
X86360000Y-34925000D03*
D15*
X86360000Y-32385000D03*
D14*
X86360000Y-39370000D03*
X86360000Y-40640000D03*
D15*
X86360000Y-38100000D03*
D14*
X86360000Y-45085000D03*
X86360000Y-46355000D03*
D15*
X86360000Y-43815000D03*
D14*
X91440000Y-39370000D03*
X91440000Y-40640000D03*
D15*
X91440000Y-38100000D03*
D14*
X91440000Y-45085000D03*
X91440000Y-46355000D03*
D15*
X91440000Y-43815000D03*
D14*
X97790000Y-33655000D03*
X97790000Y-34925000D03*
D15*
X97790000Y-32385000D03*
D14*
X97790000Y-39370000D03*
X97790000Y-40640000D03*
D15*
X97790000Y-38100000D03*
D14*
X97790000Y-45085000D03*
X97790000Y-46355000D03*
D15*
X97790000Y-43815000D03*
D14*
X102870000Y-39370000D03*
X102870000Y-40640000D03*
D15*
X102870000Y-38100000D03*
D14*
X102870000Y-45085000D03*
X102870000Y-46355000D03*
D15*
X102870000Y-43815000D03*
D14*
X109220000Y-33655000D03*
X109220000Y-34925000D03*
D15*
X109220000Y-32385000D03*
D14*
X109220000Y-39370000D03*
X109220000Y-40640000D03*
D15*
X109220000Y-38100000D03*
D14*
X109220000Y-45085000D03*
X109220000Y-46355000D03*
D15*
X109220000Y-43815000D03*
D14*
X114300000Y-39370000D03*
X114300000Y-40640000D03*
D15*
X114300000Y-38100000D03*
D14*
X114300000Y-45085000D03*
X114300000Y-46355000D03*
D15*
X114300000Y-43815000D03*
D14*
X120650000Y-33655000D03*
X120650000Y-34925000D03*
D15*
X120650000Y-32385000D03*
D14*
X120650000Y-39370000D03*
X120650000Y-40640000D03*
D15*
X120650000Y-38100000D03*
D14*
X120650000Y-45085000D03*
X120650000Y-46355000D03*
D15*
X120650000Y-43815000D03*
D14*
X125730000Y-39370000D03*
X125730000Y-40640000D03*
D15*
X125730000Y-38100000D03*
D14*
X125730000Y-45085000D03*
X125730000Y-46355000D03*
D15*
X125730000Y-43815000D03*
D14*
X132080000Y-33655000D03*
X132080000Y-34925000D03*
D15*
X132080000Y-32385000D03*
D14*
X132080000Y-39370000D03*
X132080000Y-40640000D03*
D15*
X132080000Y-38100000D03*
D14*
X132080000Y-45085000D03*
X132080000Y-46355000D03*
D15*
X132080000Y-43815000D03*
D14*
X137160000Y-39370000D03*
X137160000Y-40640000D03*
D15*
X137160000Y-38100000D03*
D14*
X137160000Y-45085000D03*
X137160000Y-46355000D03*
D15*
X137160000Y-43815000D03*
D16*
X50800000Y-67945000D03*
D17*
X55880000Y-67945000D03*
D16*
X62230000Y-67945000D03*
D17*
X67310000Y-67945000D03*
D16*
X73660000Y-67945000D03*
D17*
X78740000Y-67945000D03*
D16*
X85090000Y-67945000D03*
D17*
X90170000Y-67945000D03*
D16*
X96520000Y-67945000D03*
D17*
X101600000Y-67945000D03*
D16*
X107950000Y-67945000D03*
D17*
X113030000Y-67945000D03*
D16*
X119380000Y-67945000D03*
D17*
X124460000Y-67945000D03*
D16*
X130810000Y-67945000D03*
D17*
X135890000Y-67945000D03*
D16*
X56515000Y-30480000D03*
D17*
X56515000Y-35560000D03*
D16*
X67945000Y-30480000D03*
D17*
X67945000Y-35560000D03*
D16*
X79375000Y-30480000D03*
D17*
X79375000Y-35560000D03*
D16*
X90805000Y-30480000D03*
D17*
X90805000Y-35560000D03*
D16*
X102235000Y-30480000D03*
D17*
X102235000Y-35560000D03*
D16*
X113665000Y-30480000D03*
D17*
X113665000Y-35560000D03*
D16*
X125095000Y-30480000D03*
D17*
X125095000Y-35560000D03*
D16*
X136525000Y-30480000D03*
D17*
X136525000Y-35560000D03*
D18*
X46355000Y-20320000D03*
X136525000Y-20320000D03*
X136525000Y-110490000D03*
X46355000Y-110490000D03*
D12*
X83820000Y-73660000D03*
D13*
X86360000Y-73660000D03*
X88900000Y-73660000D03*
X91440000Y-73660000D03*
X93980000Y-73660000D03*
X96520000Y-73660000D03*
X99060000Y-73660000D03*
X101600000Y-73660000D03*
D12*
X83820000Y-50800000D03*
D13*
X86360000Y-50800000D03*
X88900000Y-50800000D03*
X91440000Y-50800000D03*
X93980000Y-50800000D03*
X96520000Y-50800000D03*
X99060000Y-50800000D03*
X101600000Y-50800000D03*
M02*
