M48
;DRILL file {KiCad 4.0.7-e2-6376~61~ubuntu18.04.1} date Fri Aug 28 19:45:08 2020
;FORMAT={-:-/ absolute / inch / decimal}
FMAT,2
INCH,TZ
T1C0.024
T2C0.028
T3C0.039
T4C0.126
%
G90
G05
M72
T1
X2.05Y-1.275
X2.05Y-1.325
X2.05Y-1.375
X2.05Y-1.5
X2.05Y-1.55
X2.05Y-1.6
X2.05Y-1.725
X2.05Y-1.775
X2.05Y-1.825
X2.05Y-2.45
X2.05Y-2.5
X2.05Y-2.55
X2.05Y-3.275
X2.05Y-3.325
X2.05Y-3.375
X2.05Y-3.5
X2.05Y-3.55
X2.05Y-3.6
X2.05Y-3.725
X2.05Y-3.775
X2.05Y-3.825
X2.25Y-1.5
X2.25Y-1.55
X2.25Y-1.6
X2.25Y-1.725
X2.25Y-1.775
X2.25Y-1.825
X2.25Y-2.45
X2.25Y-2.5
X2.25Y-2.55
X2.25Y-3.275
X2.25Y-3.325
X2.25Y-3.375
X2.25Y-3.5
X2.25Y-3.55
X2.25Y-3.6
X2.25Y-3.725
X2.25Y-3.775
X2.25Y-3.825
X2.5Y-1.275
X2.5Y-1.325
X2.5Y-1.375
X2.5Y-1.5
X2.5Y-1.55
X2.5Y-1.6
X2.5Y-1.725
X2.5Y-1.775
X2.5Y-1.825
X2.5Y-2.45
X2.5Y-2.5
X2.5Y-2.55
X2.5Y-3.275
X2.5Y-3.325
X2.5Y-3.375
X2.5Y-3.5
X2.5Y-3.55
X2.5Y-3.6
X2.5Y-3.725
X2.5Y-3.775
X2.5Y-3.825
X2.7Y-1.5
X2.7Y-1.55
X2.7Y-1.6
X2.7Y-1.725
X2.7Y-1.775
X2.7Y-1.825
X2.7Y-2.45
X2.7Y-2.5
X2.7Y-2.55
X2.7Y-3.275
X2.7Y-3.325
X2.7Y-3.375
X2.7Y-3.5
X2.7Y-3.55
X2.7Y-3.6
X2.7Y-3.725
X2.7Y-3.775
X2.7Y-3.825
X2.95Y-1.275
X2.95Y-1.325
X2.95Y-1.375
X2.95Y-1.5
X2.95Y-1.55
X2.95Y-1.6
X2.95Y-1.725
X2.95Y-1.775
X2.95Y-1.825
X2.95Y-2.45
X2.95Y-2.5
X2.95Y-2.55
X2.95Y-3.275
X2.95Y-3.325
X2.95Y-3.375
X2.95Y-3.5
X2.95Y-3.55
X2.95Y-3.6
X2.95Y-3.725
X2.95Y-3.775
X2.95Y-3.825
X3.15Y-1.5
X3.15Y-1.55
X3.15Y-1.6
X3.15Y-1.725
X3.15Y-1.775
X3.15Y-1.825
X3.15Y-2.45
X3.15Y-2.5
X3.15Y-2.55
X3.15Y-3.275
X3.15Y-3.325
X3.15Y-3.375
X3.15Y-3.5
X3.15Y-3.55
X3.15Y-3.6
X3.15Y-3.725
X3.15Y-3.775
X3.15Y-3.825
X3.4Y-1.275
X3.4Y-1.325
X3.4Y-1.375
X3.4Y-1.5
X3.4Y-1.55
X3.4Y-1.6
X3.4Y-1.725
X3.4Y-1.775
X3.4Y-1.825
X3.4Y-2.45
X3.4Y-2.5
X3.4Y-2.55
X3.4Y-3.275
X3.4Y-3.325
X3.4Y-3.375
X3.4Y-3.5
X3.4Y-3.55
X3.4Y-3.6
X3.4Y-3.725
X3.4Y-3.775
X3.4Y-3.825
X3.6Y-1.5
X3.6Y-1.55
X3.6Y-1.6
X3.6Y-1.725
X3.6Y-1.775
X3.6Y-1.825
X3.6Y-2.45
X3.6Y-2.5
X3.6Y-2.55
X3.6Y-3.275
X3.6Y-3.325
X3.6Y-3.375
X3.6Y-3.5
X3.6Y-3.55
X3.6Y-3.6
X3.6Y-3.725
X3.6Y-3.775
X3.6Y-3.825
X3.85Y-1.275
X3.85Y-1.325
X3.85Y-1.375
X3.85Y-1.5
X3.85Y-1.55
X3.85Y-1.6
X3.85Y-1.725
X3.85Y-1.775
X3.85Y-1.825
X3.85Y-2.45
X3.85Y-2.5
X3.85Y-2.55
X3.85Y-3.275
X3.85Y-3.325
X3.85Y-3.375
X3.85Y-3.5
X3.85Y-3.55
X3.85Y-3.6
X3.85Y-3.725
X3.85Y-3.775
X3.85Y-3.825
X4.05Y-1.5
X4.05Y-1.55
X4.05Y-1.6
X4.05Y-1.725
X4.05Y-1.775
X4.05Y-1.825
X4.05Y-2.45
X4.05Y-2.5
X4.05Y-2.55
X4.05Y-3.275
X4.05Y-3.325
X4.05Y-3.375
X4.05Y-3.5
X4.05Y-3.55
X4.05Y-3.6
X4.05Y-3.725
X4.05Y-3.775
X4.05Y-3.825
X4.3Y-1.275
X4.3Y-1.325
X4.3Y-1.375
X4.3Y-1.5
X4.3Y-1.55
X4.3Y-1.6
X4.3Y-1.725
X4.3Y-1.775
X4.3Y-1.825
X4.3Y-2.45
X4.3Y-2.5
X4.3Y-2.55
X4.3Y-3.275
X4.3Y-3.325
X4.3Y-3.375
X4.3Y-3.5
X4.3Y-3.55
X4.3Y-3.6
X4.3Y-3.725
X4.3Y-3.775
X4.3Y-3.825
X4.5Y-1.5
X4.5Y-1.55
X4.5Y-1.6
X4.5Y-1.725
X4.5Y-1.775
X4.5Y-1.825
X4.5Y-2.45
X4.5Y-2.5
X4.5Y-2.55
X4.5Y-3.275
X4.5Y-3.325
X4.5Y-3.375
X4.5Y-3.5
X4.5Y-3.55
X4.5Y-3.6
X4.5Y-3.725
X4.5Y-3.775
X4.5Y-3.825
X4.75Y-1.275
X4.75Y-1.325
X4.75Y-1.375
X4.75Y-1.5
X4.75Y-1.55
X4.75Y-1.6
X4.75Y-1.725
X4.75Y-1.775
X4.75Y-1.825
X4.75Y-2.45
X4.75Y-2.5
X4.75Y-2.55
X4.75Y-3.275
X4.75Y-3.325
X4.75Y-3.375
X4.75Y-3.5
X4.75Y-3.55
X4.75Y-3.6
X4.75Y-3.725
X4.75Y-3.775
X4.75Y-3.825
X4.95Y-1.5
X4.95Y-1.55
X4.95Y-1.6
X4.95Y-1.725
X4.95Y-1.775
X4.95Y-1.825
X4.95Y-2.45
X4.95Y-2.5
X4.95Y-2.55
X4.95Y-3.275
X4.95Y-3.325
X4.95Y-3.375
X4.95Y-3.5
X4.95Y-3.55
X4.95Y-3.6
X4.95Y-3.725
X4.95Y-3.775
X4.95Y-3.825
X5.2Y-1.275
X5.2Y-1.325
X5.2Y-1.375
X5.2Y-1.5
X5.2Y-1.55
X5.2Y-1.6
X5.2Y-1.725
X5.2Y-1.775
X5.2Y-1.825
X5.2Y-2.45
X5.2Y-2.5
X5.2Y-2.55
X5.2Y-3.275
X5.2Y-3.325
X5.2Y-3.375
X5.2Y-3.5
X5.2Y-3.55
X5.2Y-3.6
X5.2Y-3.725
X5.2Y-3.775
X5.2Y-3.825
X5.4Y-1.5
X5.4Y-1.55
X5.4Y-1.6
X5.4Y-1.725
X5.4Y-1.775
X5.4Y-1.825
X5.4Y-2.45
X5.4Y-2.5
X5.4Y-2.55
X5.4Y-3.275
X5.4Y-3.325
X5.4Y-3.375
X5.4Y-3.5
X5.4Y-3.55
X5.4Y-3.6
X5.4Y-3.725
X5.4Y-3.775
X5.4Y-3.825
T2
X2.Y-2.675
X2.2Y-2.675
X2.225Y-1.2
X2.225Y-1.4
X2.45Y-2.675
X2.65Y-2.675
X2.675Y-1.2
X2.675Y-1.4
X2.9Y-2.675
X3.1Y-2.675
X3.125Y-1.2
X3.125Y-1.4
X3.35Y-2.675
X3.55Y-2.675
X3.575Y-1.2
X3.575Y-1.4
X3.8Y-2.675
X4.Y-2.675
X4.025Y-1.2
X4.025Y-1.4
X4.25Y-2.675
X4.45Y-2.675
X4.475Y-1.2
X4.475Y-1.4
X4.7Y-2.675
X4.9Y-2.675
X4.925Y-1.2
X4.925Y-1.4
X5.15Y-2.675
X5.35Y-2.675
X5.375Y-1.2
X5.375Y-1.4
T3
X1.775Y-1.1
X1.775Y-1.2
X1.775Y-1.5
X1.775Y-1.6
X1.775Y-1.7
X1.775Y-1.8
X1.825Y-3.725
X1.825Y-3.825
X3.3Y-2.
X3.3Y-2.1
X3.3Y-2.2
X3.3Y-2.9
X3.3Y-4.05
X3.3Y-4.15
X3.325Y-0.75
X3.325Y-0.85
X3.325Y-0.9625
X3.4Y-2.
X3.4Y-2.1
X3.4Y-2.2
X3.4Y-2.9
X3.4Y-4.05
X3.4Y-4.15
X3.425Y-0.75
X3.425Y-0.85
X3.425Y-0.9625
X3.5Y-2.
X3.5Y-2.1
X3.5Y-2.2
X3.5Y-2.9
X3.5Y-4.05
X3.5Y-4.15
X3.525Y-0.75
X3.525Y-0.85
X3.525Y-0.9625
X3.6Y-2.
X3.6Y-2.1
X3.6Y-2.2
X3.6Y-2.9
X3.6Y-4.05
X3.6Y-4.15
X3.625Y-0.75
X3.625Y-0.85
X3.625Y-0.9625
X3.7Y-2.
X3.7Y-2.1
X3.7Y-2.2
X3.7Y-2.9
X3.7Y-4.05
X3.7Y-4.15
X3.725Y-0.75
X3.725Y-0.85
X3.725Y-0.9625
X3.8Y-2.
X3.8Y-2.1
X3.8Y-2.2
X3.8Y-2.9
X3.8Y-4.05
X3.8Y-4.15
X3.825Y-0.75
X3.825Y-0.85
X3.825Y-0.9625
X3.9Y-2.
X3.9Y-2.1
X3.9Y-2.2
X3.9Y-2.9
X3.9Y-4.05
X3.9Y-4.15
X3.925Y-0.75
X3.925Y-0.85
X3.925Y-0.9625
X4.Y-2.
X4.Y-2.1
X4.Y-2.2
X4.Y-2.9
X4.Y-4.05
X4.Y-4.15
X4.025Y-0.75
X4.025Y-0.85
X4.025Y-0.9625
T4
X1.825Y-0.8
X1.825Y-4.35
X5.375Y-0.8
X5.375Y-4.35
T0
M30
