%TF.GenerationSoftware,KiCad,Pcbnew,4.0.7-e2-6376~61~ubuntu18.04.1*%
%TF.CreationDate,2020-08-28T19:40:58+02:00*%
%TF.ProjectId,ram,72616D2E6B696361645F706362000000,rev?*%
%TF.FileFunction,Copper,L2,Bot,Signal*%
%FSLAX46Y46*%
G04 Gerber Fmt 4.6, Leading zero omitted, Abs format (unit mm)*
G04 Created by KiCad (PCBNEW 4.0.7-e2-6376~61~ubuntu18.04.1) date Fri Aug 28 19:40:58 2020*
%MOMM*%
%LPD*%
G01*
G04 APERTURE LIST*
%ADD10C,0.100000*%
%ADD11C,0.150000*%
%ADD12O,0.900000X1.500000*%
%ADD13R,0.900000X1.500000*%
%ADD14R,3.000000X7.000000*%
%ADD15O,1.500000X0.900000*%
%ADD16R,1.500000X0.900000*%
%ADD17C,1.400000*%
%ADD18O,1.400000X1.400000*%
%ADD19C,0.600000*%
%ADD20C,0.500000*%
%ADD21C,0.250000*%
G04 APERTURE END LIST*
D10*
D11*
X79756000Y-150622000D02*
X80264000Y-150622000D01*
X79756000Y-158673800D02*
X79756000Y-150622000D01*
X28702000Y-158673800D02*
X79756000Y-158673800D01*
X28702000Y-151130000D02*
X28702000Y-158673800D01*
X127000000Y-150622000D02*
X80264000Y-150622000D01*
X28702000Y-34036000D02*
X28702000Y-151130000D01*
X28956000Y-34036000D02*
X28702000Y-34036000D01*
X155702000Y-34036000D02*
X28956000Y-34036000D01*
X155702000Y-116586000D02*
X155702000Y-34036000D01*
X155702000Y-150622000D02*
X155702000Y-116586000D01*
X127000000Y-150622000D02*
X155702000Y-150622000D01*
D12*
X107188000Y-147574000D03*
X105918000Y-147574000D03*
D13*
X108458000Y-147574000D03*
D12*
X118364000Y-147574000D03*
X117094000Y-147574000D03*
D13*
X119634000Y-147574000D03*
D14*
X32258000Y-154686000D03*
X36258000Y-154686000D03*
X40258000Y-154686000D03*
X44258000Y-154686000D03*
X48258000Y-154686000D03*
X52258000Y-154686000D03*
X56258000Y-154686000D03*
X60258000Y-154686000D03*
X64258000Y-154686000D03*
X68258000Y-154686000D03*
X72258000Y-154686000D03*
X76258000Y-154686000D03*
D15*
X34544000Y-40386000D03*
X34544000Y-39116000D03*
D16*
X34544000Y-41656000D03*
D15*
X39370000Y-40386000D03*
X39370000Y-39116000D03*
D16*
X39370000Y-41656000D03*
D15*
X48768000Y-40386000D03*
X48768000Y-39116000D03*
D16*
X48768000Y-41656000D03*
D15*
X53594000Y-40386000D03*
X53594000Y-39116000D03*
D16*
X53594000Y-41656000D03*
D15*
X62992000Y-40386000D03*
X62992000Y-39116000D03*
D16*
X62992000Y-41656000D03*
D15*
X67818000Y-40386000D03*
X67818000Y-39116000D03*
D16*
X67818000Y-41656000D03*
D15*
X77216000Y-40386000D03*
X77216000Y-39116000D03*
D16*
X77216000Y-41656000D03*
D15*
X82042000Y-40386000D03*
X82042000Y-39116000D03*
D16*
X82042000Y-41656000D03*
D15*
X91440000Y-40386000D03*
X91440000Y-39116000D03*
D16*
X91440000Y-41656000D03*
D15*
X96266000Y-40386000D03*
X96266000Y-39116000D03*
D16*
X96266000Y-41656000D03*
D15*
X105664000Y-40386000D03*
X105664000Y-39116000D03*
D16*
X105664000Y-41656000D03*
D15*
X110490000Y-40386000D03*
X110490000Y-39116000D03*
D16*
X110490000Y-41656000D03*
D15*
X119888000Y-40386000D03*
X119888000Y-39116000D03*
D16*
X119888000Y-41656000D03*
D15*
X124714000Y-40386000D03*
X124714000Y-39116000D03*
D16*
X124714000Y-41656000D03*
D15*
X134112000Y-40386000D03*
X134112000Y-39116000D03*
D16*
X134112000Y-41656000D03*
D15*
X138938000Y-40386000D03*
X138938000Y-39116000D03*
D16*
X138938000Y-41656000D03*
D15*
X34544000Y-45974000D03*
X34544000Y-44704000D03*
D16*
X34544000Y-47244000D03*
D15*
X39370000Y-45974000D03*
X39370000Y-44704000D03*
D16*
X39370000Y-47244000D03*
D15*
X48768000Y-45974000D03*
X48768000Y-44704000D03*
D16*
X48768000Y-47244000D03*
D15*
X53594000Y-45974000D03*
X53594000Y-44704000D03*
D16*
X53594000Y-47244000D03*
D15*
X62992000Y-45974000D03*
X62992000Y-44704000D03*
D16*
X62992000Y-47244000D03*
D15*
X67818000Y-45974000D03*
X67818000Y-44704000D03*
D16*
X67818000Y-47244000D03*
D15*
X77216000Y-45974000D03*
X77216000Y-44704000D03*
D16*
X77216000Y-47244000D03*
D15*
X82042000Y-45974000D03*
X82042000Y-44704000D03*
D16*
X82042000Y-47244000D03*
D15*
X91440000Y-45974000D03*
X91440000Y-44704000D03*
D16*
X91440000Y-47244000D03*
D15*
X96266000Y-45974000D03*
X96266000Y-44704000D03*
D16*
X96266000Y-47244000D03*
D15*
X105664000Y-45974000D03*
X105664000Y-44704000D03*
D16*
X105664000Y-47244000D03*
D15*
X110490000Y-45974000D03*
X110490000Y-44704000D03*
D16*
X110490000Y-47244000D03*
D15*
X119888000Y-45974000D03*
X119888000Y-44704000D03*
D16*
X119888000Y-47244000D03*
D15*
X124714000Y-45974000D03*
X124714000Y-44704000D03*
D16*
X124714000Y-47244000D03*
D15*
X134112000Y-45974000D03*
X134112000Y-44704000D03*
D16*
X134112000Y-47244000D03*
D15*
X138938000Y-45974000D03*
X138938000Y-44704000D03*
D16*
X138938000Y-47244000D03*
D15*
X146304000Y-45212000D03*
X146304000Y-43942000D03*
D16*
X146304000Y-46482000D03*
D15*
X151130000Y-45212000D03*
X151130000Y-43942000D03*
D16*
X151130000Y-46482000D03*
D15*
X34544000Y-54102000D03*
X34544000Y-52832000D03*
D16*
X34544000Y-55372000D03*
D15*
X39370000Y-54102000D03*
X39370000Y-52832000D03*
D16*
X39370000Y-55372000D03*
D15*
X48768000Y-54102000D03*
X48768000Y-52832000D03*
D16*
X48768000Y-55372000D03*
D15*
X53594000Y-54102000D03*
X53594000Y-52832000D03*
D16*
X53594000Y-55372000D03*
D15*
X62992000Y-54102000D03*
X62992000Y-52832000D03*
D16*
X62992000Y-55372000D03*
D15*
X67818000Y-54102000D03*
X67818000Y-52832000D03*
D16*
X67818000Y-55372000D03*
D15*
X77216000Y-54102000D03*
X77216000Y-52832000D03*
D16*
X77216000Y-55372000D03*
D15*
X82042000Y-54102000D03*
X82042000Y-52832000D03*
D16*
X82042000Y-55372000D03*
D15*
X91440000Y-54102000D03*
X91440000Y-52832000D03*
D16*
X91440000Y-55372000D03*
D15*
X96266000Y-54102000D03*
X96266000Y-52832000D03*
D16*
X96266000Y-55372000D03*
D15*
X105664000Y-54102000D03*
X105664000Y-52832000D03*
D16*
X105664000Y-55372000D03*
D15*
X110490000Y-54102000D03*
X110490000Y-52832000D03*
D16*
X110490000Y-55372000D03*
D15*
X119888000Y-54102000D03*
X119888000Y-52832000D03*
D16*
X119888000Y-55372000D03*
D15*
X124714000Y-54102000D03*
X124714000Y-52832000D03*
D16*
X124714000Y-55372000D03*
D15*
X134112000Y-54102000D03*
X134112000Y-52832000D03*
D16*
X134112000Y-55372000D03*
D15*
X138938000Y-54102000D03*
X138938000Y-52832000D03*
D16*
X138938000Y-55372000D03*
D15*
X34544000Y-59690000D03*
X34544000Y-58420000D03*
D16*
X34544000Y-60960000D03*
D15*
X39370000Y-59690000D03*
X39370000Y-58420000D03*
D16*
X39370000Y-60960000D03*
D15*
X48768000Y-59690000D03*
X48768000Y-58420000D03*
D16*
X48768000Y-60960000D03*
D15*
X53594000Y-59690000D03*
X53594000Y-58420000D03*
D16*
X53594000Y-60960000D03*
D15*
X62992000Y-59690000D03*
X62992000Y-58420000D03*
D16*
X62992000Y-60960000D03*
D15*
X67818000Y-59690000D03*
X67818000Y-58420000D03*
D16*
X67818000Y-60960000D03*
D15*
X77216000Y-59690000D03*
X77216000Y-58420000D03*
D16*
X77216000Y-60960000D03*
D15*
X82042000Y-59690000D03*
X82042000Y-58420000D03*
D16*
X82042000Y-60960000D03*
D15*
X91440000Y-59690000D03*
X91440000Y-58420000D03*
D16*
X91440000Y-60960000D03*
D15*
X96266000Y-59690000D03*
X96266000Y-58420000D03*
D16*
X96266000Y-60960000D03*
D15*
X105664000Y-59690000D03*
X105664000Y-58420000D03*
D16*
X105664000Y-60960000D03*
D15*
X110490000Y-59690000D03*
X110490000Y-58420000D03*
D16*
X110490000Y-60960000D03*
D15*
X119888000Y-59690000D03*
X119888000Y-58420000D03*
D16*
X119888000Y-60960000D03*
D15*
X124714000Y-59690000D03*
X124714000Y-58420000D03*
D16*
X124714000Y-60960000D03*
D15*
X134112000Y-59690000D03*
X134112000Y-58420000D03*
D16*
X134112000Y-60960000D03*
D15*
X138938000Y-59690000D03*
X138938000Y-58420000D03*
D16*
X138938000Y-60960000D03*
D15*
X146304000Y-58928000D03*
X146304000Y-57658000D03*
D16*
X146304000Y-60198000D03*
D15*
X151130000Y-58928000D03*
X151130000Y-57658000D03*
D16*
X151130000Y-60198000D03*
D15*
X34544000Y-67818000D03*
X34544000Y-66548000D03*
D16*
X34544000Y-69088000D03*
D15*
X39370000Y-67818000D03*
X39370000Y-66548000D03*
D16*
X39370000Y-69088000D03*
D15*
X48768000Y-67818000D03*
X48768000Y-66548000D03*
D16*
X48768000Y-69088000D03*
D15*
X53594000Y-67818000D03*
X53594000Y-66548000D03*
D16*
X53594000Y-69088000D03*
D15*
X62992000Y-67818000D03*
X62992000Y-66548000D03*
D16*
X62992000Y-69088000D03*
D15*
X67818000Y-67818000D03*
X67818000Y-66548000D03*
D16*
X67818000Y-69088000D03*
D15*
X77216000Y-67818000D03*
X77216000Y-66548000D03*
D16*
X77216000Y-69088000D03*
D15*
X82042000Y-67818000D03*
X82042000Y-66548000D03*
D16*
X82042000Y-69088000D03*
D15*
X91440000Y-67818000D03*
X91440000Y-66548000D03*
D16*
X91440000Y-69088000D03*
D15*
X96266000Y-67818000D03*
X96266000Y-66548000D03*
D16*
X96266000Y-69088000D03*
D15*
X105664000Y-67818000D03*
X105664000Y-66548000D03*
D16*
X105664000Y-69088000D03*
D15*
X110490000Y-67818000D03*
X110490000Y-66548000D03*
D16*
X110490000Y-69088000D03*
D15*
X119888000Y-67818000D03*
X119888000Y-66548000D03*
D16*
X119888000Y-69088000D03*
D15*
X124714000Y-67818000D03*
X124714000Y-66548000D03*
D16*
X124714000Y-69088000D03*
D15*
X134112000Y-67818000D03*
X134112000Y-66548000D03*
D16*
X134112000Y-69088000D03*
D15*
X138938000Y-67818000D03*
X138938000Y-66548000D03*
D16*
X138938000Y-69088000D03*
D15*
X34544000Y-73406000D03*
X34544000Y-72136000D03*
D16*
X34544000Y-74676000D03*
D15*
X39370000Y-73406000D03*
X39370000Y-72136000D03*
D16*
X39370000Y-74676000D03*
D15*
X48768000Y-73406000D03*
X48768000Y-72136000D03*
D16*
X48768000Y-74676000D03*
D15*
X53594000Y-73406000D03*
X53594000Y-72136000D03*
D16*
X53594000Y-74676000D03*
D15*
X62992000Y-73406000D03*
X62992000Y-72136000D03*
D16*
X62992000Y-74676000D03*
D15*
X67818000Y-73406000D03*
X67818000Y-72136000D03*
D16*
X67818000Y-74676000D03*
D15*
X77216000Y-73406000D03*
X77216000Y-72136000D03*
D16*
X77216000Y-74676000D03*
D15*
X82042000Y-73406000D03*
X82042000Y-72136000D03*
D16*
X82042000Y-74676000D03*
D15*
X91440000Y-73406000D03*
X91440000Y-72136000D03*
D16*
X91440000Y-74676000D03*
D15*
X96266000Y-73406000D03*
X96266000Y-72136000D03*
D16*
X96266000Y-74676000D03*
D15*
X105664000Y-73406000D03*
X105664000Y-72136000D03*
D16*
X105664000Y-74676000D03*
D15*
X110490000Y-73406000D03*
X110490000Y-72136000D03*
D16*
X110490000Y-74676000D03*
D15*
X119888000Y-73406000D03*
X119888000Y-72136000D03*
D16*
X119888000Y-74676000D03*
D15*
X124714000Y-73406000D03*
X124714000Y-72136000D03*
D16*
X124714000Y-74676000D03*
D15*
X134112000Y-73406000D03*
X134112000Y-72136000D03*
D16*
X134112000Y-74676000D03*
D15*
X138938000Y-73406000D03*
X138938000Y-72136000D03*
D16*
X138938000Y-74676000D03*
D15*
X151130000Y-53340000D03*
X151130000Y-52070000D03*
D16*
X151130000Y-54610000D03*
D15*
X146304000Y-72644000D03*
X146304000Y-71374000D03*
D16*
X146304000Y-73914000D03*
D15*
X151130000Y-72644000D03*
X151130000Y-71374000D03*
D16*
X151130000Y-73914000D03*
D15*
X34544000Y-81534000D03*
X34544000Y-80264000D03*
D16*
X34544000Y-82804000D03*
D15*
X39370000Y-81534000D03*
X39370000Y-80264000D03*
D16*
X39370000Y-82804000D03*
D15*
X48768000Y-81534000D03*
X48768000Y-80264000D03*
D16*
X48768000Y-82804000D03*
D15*
X53594000Y-81534000D03*
X53594000Y-80264000D03*
D16*
X53594000Y-82804000D03*
D15*
X62992000Y-81534000D03*
X62992000Y-80264000D03*
D16*
X62992000Y-82804000D03*
D15*
X67818000Y-81534000D03*
X67818000Y-80264000D03*
D16*
X67818000Y-82804000D03*
D15*
X77216000Y-81534000D03*
X77216000Y-80264000D03*
D16*
X77216000Y-82804000D03*
D15*
X82042000Y-81534000D03*
X82042000Y-80264000D03*
D16*
X82042000Y-82804000D03*
D15*
X91440000Y-81534000D03*
X91440000Y-80264000D03*
D16*
X91440000Y-82804000D03*
D15*
X96266000Y-81534000D03*
X96266000Y-80264000D03*
D16*
X96266000Y-82804000D03*
D15*
X105664000Y-81534000D03*
X105664000Y-80264000D03*
D16*
X105664000Y-82804000D03*
D15*
X110490000Y-81534000D03*
X110490000Y-80264000D03*
D16*
X110490000Y-82804000D03*
D15*
X119888000Y-81534000D03*
X119888000Y-80264000D03*
D16*
X119888000Y-82804000D03*
D15*
X124714000Y-81534000D03*
X124714000Y-80264000D03*
D16*
X124714000Y-82804000D03*
D15*
X134112000Y-81534000D03*
X134112000Y-80264000D03*
D16*
X134112000Y-82804000D03*
D15*
X138938000Y-81534000D03*
X138938000Y-80264000D03*
D16*
X138938000Y-82804000D03*
D15*
X34544000Y-87122000D03*
X34544000Y-85852000D03*
D16*
X34544000Y-88392000D03*
D15*
X39370000Y-87122000D03*
X39370000Y-85852000D03*
D16*
X39370000Y-88392000D03*
D15*
X48768000Y-87122000D03*
X48768000Y-85852000D03*
D16*
X48768000Y-88392000D03*
D15*
X53594000Y-87122000D03*
X53594000Y-85852000D03*
D16*
X53594000Y-88392000D03*
D15*
X62992000Y-87122000D03*
X62992000Y-85852000D03*
D16*
X62992000Y-88392000D03*
D15*
X67818000Y-87122000D03*
X67818000Y-85852000D03*
D16*
X67818000Y-88392000D03*
D15*
X77216000Y-87122000D03*
X77216000Y-85852000D03*
D16*
X77216000Y-88392000D03*
D15*
X82042000Y-87122000D03*
X82042000Y-85852000D03*
D16*
X82042000Y-88392000D03*
D15*
X91440000Y-87122000D03*
X91440000Y-85852000D03*
D16*
X91440000Y-88392000D03*
D15*
X96266000Y-87122000D03*
X96266000Y-85852000D03*
D16*
X96266000Y-88392000D03*
D15*
X105664000Y-87122000D03*
X105664000Y-85852000D03*
D16*
X105664000Y-88392000D03*
D15*
X110490000Y-87122000D03*
X110490000Y-85852000D03*
D16*
X110490000Y-88392000D03*
D15*
X119888000Y-87122000D03*
X119888000Y-85852000D03*
D16*
X119888000Y-88392000D03*
D15*
X124714000Y-87122000D03*
X124714000Y-85852000D03*
D16*
X124714000Y-88392000D03*
D15*
X134112000Y-87122000D03*
X134112000Y-85852000D03*
D16*
X134112000Y-88392000D03*
D15*
X138938000Y-87122000D03*
X138938000Y-85852000D03*
D16*
X138938000Y-88392000D03*
D15*
X146304000Y-86106000D03*
X146304000Y-84836000D03*
D16*
X146304000Y-87376000D03*
D15*
X151130000Y-86106000D03*
X151130000Y-84836000D03*
D16*
X151130000Y-87376000D03*
D15*
X34544000Y-95250000D03*
X34544000Y-93980000D03*
D16*
X34544000Y-96520000D03*
D15*
X39370000Y-95250000D03*
X39370000Y-93980000D03*
D16*
X39370000Y-96520000D03*
D15*
X48768000Y-95250000D03*
X48768000Y-93980000D03*
D16*
X48768000Y-96520000D03*
D15*
X53594000Y-95250000D03*
X53594000Y-93980000D03*
D16*
X53594000Y-96520000D03*
D15*
X62992000Y-95250000D03*
X62992000Y-93980000D03*
D16*
X62992000Y-96520000D03*
D15*
X67818000Y-95250000D03*
X67818000Y-93980000D03*
D16*
X67818000Y-96520000D03*
D15*
X77216000Y-95250000D03*
X77216000Y-93980000D03*
D16*
X77216000Y-96520000D03*
D15*
X82042000Y-95250000D03*
X82042000Y-93980000D03*
D16*
X82042000Y-96520000D03*
D15*
X91440000Y-95250000D03*
X91440000Y-93980000D03*
D16*
X91440000Y-96520000D03*
D15*
X96266000Y-95250000D03*
X96266000Y-93980000D03*
D16*
X96266000Y-96520000D03*
D15*
X105664000Y-95250000D03*
X105664000Y-93980000D03*
D16*
X105664000Y-96520000D03*
D15*
X110490000Y-95250000D03*
X110490000Y-93980000D03*
D16*
X110490000Y-96520000D03*
D15*
X119888000Y-95250000D03*
X119888000Y-93980000D03*
D16*
X119888000Y-96520000D03*
D15*
X124714000Y-95250000D03*
X124714000Y-93980000D03*
D16*
X124714000Y-96520000D03*
D15*
X134112000Y-95250000D03*
X134112000Y-93980000D03*
D16*
X134112000Y-96520000D03*
D15*
X138938000Y-95250000D03*
X138938000Y-93980000D03*
D16*
X138938000Y-96520000D03*
D15*
X34544000Y-100838000D03*
X34544000Y-99568000D03*
D16*
X34544000Y-102108000D03*
D15*
X39370000Y-100838000D03*
X39370000Y-99568000D03*
D16*
X39370000Y-102108000D03*
D15*
X48768000Y-100838000D03*
X48768000Y-99568000D03*
D16*
X48768000Y-102108000D03*
D15*
X53594000Y-100838000D03*
X53594000Y-99568000D03*
D16*
X53594000Y-102108000D03*
D15*
X62992000Y-100838000D03*
X62992000Y-99568000D03*
D16*
X62992000Y-102108000D03*
D15*
X67818000Y-100838000D03*
X67818000Y-99568000D03*
D16*
X67818000Y-102108000D03*
D15*
X77216000Y-100838000D03*
X77216000Y-99568000D03*
D16*
X77216000Y-102108000D03*
D15*
X82042000Y-100838000D03*
X82042000Y-99568000D03*
D16*
X82042000Y-102108000D03*
D15*
X91440000Y-100838000D03*
X91440000Y-99568000D03*
D16*
X91440000Y-102108000D03*
D15*
X96266000Y-100838000D03*
X96266000Y-99568000D03*
D16*
X96266000Y-102108000D03*
D15*
X105664000Y-100838000D03*
X105664000Y-99568000D03*
D16*
X105664000Y-102108000D03*
D15*
X110490000Y-100838000D03*
X110490000Y-99568000D03*
D16*
X110490000Y-102108000D03*
D15*
X119888000Y-100838000D03*
X119888000Y-99568000D03*
D16*
X119888000Y-102108000D03*
D15*
X124714000Y-100838000D03*
X124714000Y-99568000D03*
D16*
X124714000Y-102108000D03*
D15*
X134112000Y-100838000D03*
X134112000Y-99568000D03*
D16*
X134112000Y-102108000D03*
D15*
X138938000Y-100838000D03*
X138938000Y-99568000D03*
D16*
X138938000Y-102108000D03*
D15*
X151130000Y-80518000D03*
X151130000Y-79248000D03*
D16*
X151130000Y-81788000D03*
D12*
X123952000Y-147574000D03*
X122682000Y-147574000D03*
D13*
X125222000Y-147574000D03*
D15*
X146304000Y-100076000D03*
X146304000Y-98806000D03*
D16*
X146304000Y-101346000D03*
D15*
X151130000Y-100076000D03*
X151130000Y-98806000D03*
D16*
X151130000Y-101346000D03*
D15*
X34544000Y-108966000D03*
X34544000Y-107696000D03*
D16*
X34544000Y-110236000D03*
D15*
X39370000Y-108966000D03*
X39370000Y-107696000D03*
D16*
X39370000Y-110236000D03*
D15*
X48768000Y-108966000D03*
X48768000Y-107696000D03*
D16*
X48768000Y-110236000D03*
D15*
X53594000Y-108966000D03*
X53594000Y-107696000D03*
D16*
X53594000Y-110236000D03*
D15*
X62992000Y-108966000D03*
X62992000Y-107696000D03*
D16*
X62992000Y-110236000D03*
D15*
X67818000Y-108966000D03*
X67818000Y-107696000D03*
D16*
X67818000Y-110236000D03*
D15*
X77216000Y-108966000D03*
X77216000Y-107696000D03*
D16*
X77216000Y-110236000D03*
D15*
X82042000Y-108966000D03*
X82042000Y-107696000D03*
D16*
X82042000Y-110236000D03*
D15*
X91440000Y-108966000D03*
X91440000Y-107696000D03*
D16*
X91440000Y-110236000D03*
D15*
X96266000Y-108966000D03*
X96266000Y-107696000D03*
D16*
X96266000Y-110236000D03*
D15*
X105664000Y-108966000D03*
X105664000Y-107696000D03*
D16*
X105664000Y-110236000D03*
D15*
X110490000Y-108966000D03*
X110490000Y-107696000D03*
D16*
X110490000Y-110236000D03*
D15*
X119888000Y-108966000D03*
X119888000Y-107696000D03*
D16*
X119888000Y-110236000D03*
D15*
X124714000Y-108966000D03*
X124714000Y-107696000D03*
D16*
X124714000Y-110236000D03*
D15*
X134112000Y-108966000D03*
X134112000Y-107696000D03*
D16*
X134112000Y-110236000D03*
D15*
X138938000Y-108966000D03*
X138938000Y-107696000D03*
D16*
X138938000Y-110236000D03*
D15*
X34544000Y-114554000D03*
X34544000Y-113284000D03*
D16*
X34544000Y-115824000D03*
D15*
X39370000Y-114554000D03*
X39370000Y-113284000D03*
D16*
X39370000Y-115824000D03*
D15*
X48768000Y-114554000D03*
X48768000Y-113284000D03*
D16*
X48768000Y-115824000D03*
D15*
X53594000Y-114554000D03*
X53594000Y-113284000D03*
D16*
X53594000Y-115824000D03*
D15*
X62992000Y-114554000D03*
X62992000Y-113284000D03*
D16*
X62992000Y-115824000D03*
D15*
X67818000Y-114554000D03*
X67818000Y-113284000D03*
D16*
X67818000Y-115824000D03*
D15*
X77216000Y-114554000D03*
X77216000Y-113284000D03*
D16*
X77216000Y-115824000D03*
D15*
X82042000Y-114554000D03*
X82042000Y-113284000D03*
D16*
X82042000Y-115824000D03*
D15*
X91440000Y-114554000D03*
X91440000Y-113284000D03*
D16*
X91440000Y-115824000D03*
D15*
X96266000Y-114554000D03*
X96266000Y-113284000D03*
D16*
X96266000Y-115824000D03*
D15*
X105664000Y-114554000D03*
X105664000Y-113284000D03*
D16*
X105664000Y-115824000D03*
D15*
X110490000Y-114554000D03*
X110490000Y-113284000D03*
D16*
X110490000Y-115824000D03*
D15*
X119888000Y-114554000D03*
X119888000Y-113284000D03*
D16*
X119888000Y-115824000D03*
D15*
X124714000Y-114554000D03*
X124714000Y-113284000D03*
D16*
X124714000Y-115824000D03*
D15*
X134112000Y-114554000D03*
X134112000Y-113284000D03*
D16*
X134112000Y-115824000D03*
D15*
X138938000Y-114554000D03*
X138938000Y-113284000D03*
D16*
X138938000Y-115824000D03*
D15*
X146304000Y-113792000D03*
X146304000Y-112522000D03*
D16*
X146304000Y-115062000D03*
D15*
X151130000Y-113792000D03*
X151130000Y-112522000D03*
D16*
X151130000Y-115062000D03*
D15*
X34544000Y-122682000D03*
X34544000Y-121412000D03*
D16*
X34544000Y-123952000D03*
D15*
X39370000Y-122682000D03*
X39370000Y-121412000D03*
D16*
X39370000Y-123952000D03*
D15*
X48768000Y-122682000D03*
X48768000Y-121412000D03*
D16*
X48768000Y-123952000D03*
D15*
X53594000Y-122682000D03*
X53594000Y-121412000D03*
D16*
X53594000Y-123952000D03*
D15*
X62992000Y-122682000D03*
X62992000Y-121412000D03*
D16*
X62992000Y-123952000D03*
D15*
X67818000Y-122682000D03*
X67818000Y-121412000D03*
D16*
X67818000Y-123952000D03*
D15*
X77216000Y-122682000D03*
X77216000Y-121412000D03*
D16*
X77216000Y-123952000D03*
D15*
X82042000Y-122682000D03*
X82042000Y-121412000D03*
D16*
X82042000Y-123952000D03*
D15*
X91440000Y-122682000D03*
X91440000Y-121412000D03*
D16*
X91440000Y-123952000D03*
D15*
X96266000Y-122682000D03*
X96266000Y-121412000D03*
D16*
X96266000Y-123952000D03*
D15*
X105664000Y-122682000D03*
X105664000Y-121412000D03*
D16*
X105664000Y-123952000D03*
D15*
X110490000Y-122682000D03*
X110490000Y-121412000D03*
D16*
X110490000Y-123952000D03*
D15*
X119888000Y-122682000D03*
X119888000Y-121412000D03*
D16*
X119888000Y-123952000D03*
D15*
X124714000Y-122682000D03*
X124714000Y-121412000D03*
D16*
X124714000Y-123952000D03*
D15*
X134112000Y-122682000D03*
X134112000Y-121412000D03*
D16*
X134112000Y-123952000D03*
D15*
X138938000Y-122682000D03*
X138938000Y-121412000D03*
D16*
X138938000Y-123952000D03*
D15*
X34544000Y-128270000D03*
X34544000Y-127000000D03*
D16*
X34544000Y-129540000D03*
D15*
X39370000Y-128270000D03*
X39370000Y-127000000D03*
D16*
X39370000Y-129540000D03*
D15*
X48768000Y-128270000D03*
X48768000Y-127000000D03*
D16*
X48768000Y-129540000D03*
D15*
X53594000Y-128270000D03*
X53594000Y-127000000D03*
D16*
X53594000Y-129540000D03*
D15*
X62992000Y-128270000D03*
X62992000Y-127000000D03*
D16*
X62992000Y-129540000D03*
D15*
X67818000Y-128270000D03*
X67818000Y-127000000D03*
D16*
X67818000Y-129540000D03*
D15*
X77216000Y-128270000D03*
X77216000Y-127000000D03*
D16*
X77216000Y-129540000D03*
D15*
X82042000Y-128270000D03*
X82042000Y-127000000D03*
D16*
X82042000Y-129540000D03*
D15*
X91440000Y-128270000D03*
X91440000Y-127000000D03*
D16*
X91440000Y-129540000D03*
D15*
X96266000Y-128270000D03*
X96266000Y-127000000D03*
D16*
X96266000Y-129540000D03*
D15*
X105664000Y-128270000D03*
X105664000Y-127000000D03*
D16*
X105664000Y-129540000D03*
D15*
X110490000Y-128270000D03*
X110490000Y-127000000D03*
D16*
X110490000Y-129540000D03*
D15*
X119888000Y-128270000D03*
X119888000Y-127000000D03*
D16*
X119888000Y-129540000D03*
D15*
X124714000Y-128270000D03*
X124714000Y-127000000D03*
D16*
X124714000Y-129540000D03*
D15*
X134112000Y-128270000D03*
X134112000Y-127000000D03*
D16*
X134112000Y-129540000D03*
D15*
X138938000Y-128270000D03*
X138938000Y-127000000D03*
D16*
X138938000Y-129540000D03*
D15*
X151130000Y-108204000D03*
X151130000Y-106934000D03*
D16*
X151130000Y-109474000D03*
D15*
X146304000Y-127508000D03*
X146304000Y-126238000D03*
D16*
X146304000Y-128778000D03*
D15*
X151130000Y-127508000D03*
X151130000Y-126238000D03*
D16*
X151130000Y-128778000D03*
D15*
X34544000Y-136398000D03*
X34544000Y-135128000D03*
D16*
X34544000Y-137668000D03*
D15*
X39370000Y-136398000D03*
X39370000Y-135128000D03*
D16*
X39370000Y-137668000D03*
D15*
X48768000Y-136398000D03*
X48768000Y-135128000D03*
D16*
X48768000Y-137668000D03*
D15*
X53594000Y-136398000D03*
X53594000Y-135128000D03*
D16*
X53594000Y-137668000D03*
D15*
X62992000Y-136398000D03*
X62992000Y-135128000D03*
D16*
X62992000Y-137668000D03*
D15*
X67818000Y-136398000D03*
X67818000Y-135128000D03*
D16*
X67818000Y-137668000D03*
D15*
X77216000Y-136398000D03*
X77216000Y-135128000D03*
D16*
X77216000Y-137668000D03*
D15*
X82042000Y-136398000D03*
X82042000Y-135128000D03*
D16*
X82042000Y-137668000D03*
D15*
X91440000Y-136398000D03*
X91440000Y-135128000D03*
D16*
X91440000Y-137668000D03*
D15*
X96266000Y-136398000D03*
X96266000Y-135128000D03*
D16*
X96266000Y-137668000D03*
D15*
X105664000Y-136398000D03*
X105664000Y-135128000D03*
D16*
X105664000Y-137668000D03*
D15*
X110490000Y-136398000D03*
X110490000Y-135128000D03*
D16*
X110490000Y-137668000D03*
D15*
X119888000Y-136398000D03*
X119888000Y-135128000D03*
D16*
X119888000Y-137668000D03*
D15*
X124714000Y-136398000D03*
X124714000Y-135128000D03*
D16*
X124714000Y-137668000D03*
D15*
X134112000Y-136398000D03*
X134112000Y-135128000D03*
D16*
X134112000Y-137668000D03*
D15*
X138938000Y-136398000D03*
X138938000Y-135128000D03*
D16*
X138938000Y-137668000D03*
D15*
X34544000Y-141986000D03*
X34544000Y-140716000D03*
D16*
X34544000Y-143256000D03*
D15*
X39370000Y-141986000D03*
X39370000Y-140716000D03*
D16*
X39370000Y-143256000D03*
D15*
X48768000Y-141986000D03*
X48768000Y-140716000D03*
D16*
X48768000Y-143256000D03*
D15*
X53594000Y-141986000D03*
X53594000Y-140716000D03*
D16*
X53594000Y-143256000D03*
D15*
X62992000Y-141986000D03*
X62992000Y-140716000D03*
D16*
X62992000Y-143256000D03*
D15*
X67818000Y-141986000D03*
X67818000Y-140716000D03*
D16*
X67818000Y-143256000D03*
D15*
X77216000Y-141986000D03*
X77216000Y-140716000D03*
D16*
X77216000Y-143256000D03*
D15*
X82042000Y-141986000D03*
X82042000Y-140716000D03*
D16*
X82042000Y-143256000D03*
D15*
X91440000Y-141986000D03*
X91440000Y-140716000D03*
D16*
X91440000Y-143256000D03*
D15*
X96266000Y-141986000D03*
X96266000Y-140716000D03*
D16*
X96266000Y-143256000D03*
D15*
X105664000Y-141986000D03*
X105664000Y-140716000D03*
D16*
X105664000Y-143256000D03*
D15*
X110490000Y-141986000D03*
X110490000Y-140716000D03*
D16*
X110490000Y-143256000D03*
D15*
X119888000Y-141986000D03*
X119888000Y-140716000D03*
D16*
X119888000Y-143256000D03*
D15*
X124714000Y-141986000D03*
X124714000Y-140716000D03*
D16*
X124714000Y-143256000D03*
D15*
X134112000Y-141986000D03*
X134112000Y-140716000D03*
D16*
X134112000Y-143256000D03*
D15*
X138938000Y-141986000D03*
X138938000Y-140716000D03*
D16*
X138938000Y-143256000D03*
D15*
X146304000Y-141224000D03*
X146304000Y-139954000D03*
D16*
X146304000Y-142494000D03*
D15*
X151130000Y-141224000D03*
X151130000Y-139954000D03*
D16*
X151130000Y-142494000D03*
D15*
X151130000Y-135636000D03*
X151130000Y-134366000D03*
D16*
X151130000Y-136906000D03*
D15*
X144018000Y-146812000D03*
X144018000Y-145542000D03*
D16*
X144018000Y-148082000D03*
D15*
X150114000Y-146812000D03*
X150114000Y-145542000D03*
D16*
X150114000Y-148082000D03*
D12*
X112776000Y-147574000D03*
X111506000Y-147574000D03*
D13*
X114046000Y-147574000D03*
D17*
X35560000Y-36322000D03*
D18*
X30480000Y-36322000D03*
D17*
X37592000Y-36322000D03*
D18*
X42672000Y-36322000D03*
D17*
X49784000Y-36322000D03*
D18*
X44704000Y-36322000D03*
D17*
X51816000Y-36322000D03*
D18*
X56896000Y-36322000D03*
D17*
X64008000Y-36322000D03*
D18*
X58928000Y-36322000D03*
D17*
X66040000Y-36322000D03*
D18*
X71120000Y-36322000D03*
D17*
X78232000Y-36322000D03*
D18*
X73152000Y-36322000D03*
D17*
X80264000Y-36322000D03*
D18*
X85344000Y-36322000D03*
D17*
X92456000Y-36322000D03*
D18*
X87376000Y-36322000D03*
D17*
X94488000Y-36322000D03*
D18*
X99568000Y-36322000D03*
D17*
X106680000Y-36322000D03*
D18*
X101600000Y-36322000D03*
D17*
X108712000Y-36322000D03*
D18*
X113792000Y-36322000D03*
D17*
X120904000Y-36322000D03*
D18*
X115824000Y-36322000D03*
D17*
X122936000Y-36322000D03*
D18*
X128016000Y-36322000D03*
D17*
X135128000Y-36322000D03*
D18*
X130048000Y-36322000D03*
D17*
X137160000Y-36322000D03*
D18*
X142240000Y-36322000D03*
D17*
X30480000Y-38608000D03*
D18*
X30480000Y-43688000D03*
D17*
X42672000Y-38608000D03*
D18*
X42672000Y-43688000D03*
D17*
X44704000Y-38608000D03*
D18*
X44704000Y-43688000D03*
D17*
X56896000Y-38608000D03*
D18*
X56896000Y-43688000D03*
D17*
X58928000Y-38608000D03*
D18*
X58928000Y-43688000D03*
D17*
X71120000Y-38608000D03*
D18*
X71120000Y-43688000D03*
D17*
X73152000Y-38608000D03*
D18*
X73152000Y-43688000D03*
D17*
X85344000Y-38608000D03*
D18*
X85344000Y-43688000D03*
D17*
X87376000Y-38608000D03*
D18*
X87376000Y-43688000D03*
D17*
X99568000Y-38608000D03*
D18*
X99568000Y-43688000D03*
D17*
X101600000Y-38608000D03*
D18*
X101600000Y-43688000D03*
D17*
X113792000Y-38608000D03*
D18*
X113792000Y-43688000D03*
D17*
X115824000Y-38608000D03*
D18*
X115824000Y-43688000D03*
D17*
X128016000Y-38608000D03*
D18*
X128016000Y-43688000D03*
D17*
X130048000Y-38608000D03*
D18*
X130048000Y-43688000D03*
D17*
X142240000Y-38608000D03*
D18*
X142240000Y-43688000D03*
D17*
X144526000Y-36322000D03*
D18*
X144526000Y-41402000D03*
D17*
X146812000Y-36322000D03*
D18*
X146812000Y-41402000D03*
D17*
X35560000Y-50038000D03*
D18*
X30480000Y-50038000D03*
D17*
X37592000Y-50038000D03*
D18*
X42672000Y-50038000D03*
D17*
X49784000Y-50038000D03*
D18*
X44704000Y-50038000D03*
D17*
X51816000Y-50038000D03*
D18*
X56896000Y-50038000D03*
D17*
X64008000Y-50038000D03*
D18*
X58928000Y-50038000D03*
D17*
X66040000Y-50038000D03*
D18*
X71120000Y-50038000D03*
D17*
X78232000Y-50038000D03*
D18*
X73152000Y-50038000D03*
D17*
X80264000Y-50038000D03*
D18*
X85344000Y-50038000D03*
D17*
X92456000Y-50038000D03*
D18*
X87376000Y-50038000D03*
D17*
X94488000Y-50038000D03*
D18*
X99568000Y-50038000D03*
D17*
X106680000Y-50038000D03*
D18*
X101600000Y-50038000D03*
D17*
X108712000Y-50038000D03*
D18*
X113792000Y-50038000D03*
D17*
X120904000Y-50038000D03*
D18*
X115824000Y-50038000D03*
D17*
X122936000Y-50038000D03*
D18*
X128016000Y-50038000D03*
D17*
X135128000Y-50038000D03*
D18*
X130048000Y-50038000D03*
D17*
X137160000Y-50038000D03*
D18*
X142240000Y-50038000D03*
D17*
X30480000Y-52324000D03*
D18*
X30480000Y-57404000D03*
D17*
X42672000Y-52324000D03*
D18*
X42672000Y-57404000D03*
D17*
X44704000Y-52324000D03*
D18*
X44704000Y-57404000D03*
D17*
X56896000Y-52324000D03*
D18*
X56896000Y-57404000D03*
D17*
X58928000Y-52324000D03*
D18*
X58928000Y-57404000D03*
D17*
X71120000Y-52324000D03*
D18*
X71120000Y-57404000D03*
D17*
X73152000Y-52324000D03*
D18*
X73152000Y-57404000D03*
D17*
X85344000Y-52324000D03*
D18*
X85344000Y-57404000D03*
D17*
X87376000Y-52324000D03*
D18*
X87376000Y-57404000D03*
D17*
X99568000Y-52324000D03*
D18*
X99568000Y-57404000D03*
D17*
X101600000Y-52324000D03*
D18*
X101600000Y-57404000D03*
D17*
X113792000Y-52324000D03*
D18*
X113792000Y-57404000D03*
D17*
X115824000Y-52324000D03*
D18*
X115824000Y-57404000D03*
D17*
X128016000Y-52324000D03*
D18*
X128016000Y-57404000D03*
D17*
X130048000Y-52324000D03*
D18*
X130048000Y-57404000D03*
D17*
X142240000Y-52324000D03*
D18*
X142240000Y-57404000D03*
D17*
X144526000Y-50038000D03*
D18*
X144526000Y-55118000D03*
D17*
X146812000Y-50038000D03*
D18*
X146812000Y-55118000D03*
D17*
X35560000Y-63754000D03*
D18*
X30480000Y-63754000D03*
D17*
X37592000Y-63754000D03*
D18*
X42672000Y-63754000D03*
D17*
X49784000Y-63754000D03*
D18*
X44704000Y-63754000D03*
D17*
X51816000Y-63754000D03*
D18*
X56896000Y-63754000D03*
D17*
X64008000Y-63754000D03*
D18*
X58928000Y-63754000D03*
D17*
X66040000Y-63754000D03*
D18*
X71120000Y-63754000D03*
D17*
X78232000Y-63754000D03*
D18*
X73152000Y-63754000D03*
D17*
X80264000Y-63754000D03*
D18*
X85344000Y-63754000D03*
D17*
X92456000Y-63754000D03*
D18*
X87376000Y-63754000D03*
D17*
X94488000Y-63754000D03*
D18*
X99568000Y-63754000D03*
D17*
X106680000Y-63754000D03*
D18*
X101600000Y-63754000D03*
D17*
X108712000Y-63754000D03*
D18*
X113792000Y-63754000D03*
D17*
X120904000Y-63754000D03*
D18*
X115824000Y-63754000D03*
D17*
X122936000Y-63754000D03*
D18*
X128016000Y-63754000D03*
D17*
X135128000Y-63754000D03*
D18*
X130048000Y-63754000D03*
D17*
X137160000Y-63754000D03*
D18*
X142240000Y-63754000D03*
D17*
X30480000Y-66040000D03*
D18*
X30480000Y-71120000D03*
D17*
X42672000Y-66040000D03*
D18*
X42672000Y-71120000D03*
D17*
X44704000Y-66040000D03*
D18*
X44704000Y-71120000D03*
D17*
X56896000Y-66040000D03*
D18*
X56896000Y-71120000D03*
D17*
X58928000Y-66040000D03*
D18*
X58928000Y-71120000D03*
D17*
X71120000Y-66040000D03*
D18*
X71120000Y-71120000D03*
D17*
X73152000Y-66040000D03*
D18*
X73152000Y-71120000D03*
D17*
X85344000Y-66040000D03*
D18*
X85344000Y-71120000D03*
D17*
X87376000Y-66040000D03*
D18*
X87376000Y-71120000D03*
D17*
X99568000Y-66040000D03*
D18*
X99568000Y-71120000D03*
D17*
X101600000Y-66040000D03*
D18*
X101600000Y-71120000D03*
D17*
X113792000Y-66040000D03*
D18*
X113792000Y-71120000D03*
D17*
X115824000Y-66040000D03*
D18*
X115824000Y-71120000D03*
D17*
X128016000Y-66040000D03*
D18*
X128016000Y-71120000D03*
D17*
X130048000Y-66040000D03*
D18*
X130048000Y-71120000D03*
D17*
X142240000Y-66040000D03*
D18*
X142240000Y-71120000D03*
D17*
X144526000Y-63754000D03*
D18*
X144526000Y-68834000D03*
D17*
X146812000Y-63754000D03*
D18*
X146812000Y-68834000D03*
D17*
X35560000Y-77470000D03*
D18*
X30480000Y-77470000D03*
D17*
X37592000Y-77470000D03*
D18*
X42672000Y-77470000D03*
D17*
X49784000Y-77470000D03*
D18*
X44704000Y-77470000D03*
D17*
X51816000Y-77470000D03*
D18*
X56896000Y-77470000D03*
D17*
X64008000Y-77470000D03*
D18*
X58928000Y-77470000D03*
D17*
X66040000Y-77470000D03*
D18*
X71120000Y-77470000D03*
D17*
X78232000Y-77470000D03*
D18*
X73152000Y-77470000D03*
D17*
X80264000Y-77470000D03*
D18*
X85344000Y-77470000D03*
D17*
X92456000Y-77470000D03*
D18*
X87376000Y-77470000D03*
D17*
X94488000Y-77470000D03*
D18*
X99568000Y-77470000D03*
D17*
X106680000Y-77470000D03*
D18*
X101600000Y-77470000D03*
D17*
X108712000Y-77470000D03*
D18*
X113792000Y-77470000D03*
D17*
X120904000Y-77470000D03*
D18*
X115824000Y-77470000D03*
D17*
X122936000Y-77470000D03*
D18*
X128016000Y-77470000D03*
D17*
X135128000Y-77470000D03*
D18*
X130048000Y-77470000D03*
D17*
X137160000Y-77470000D03*
D18*
X142240000Y-77470000D03*
D17*
X30480000Y-79756000D03*
D18*
X30480000Y-84836000D03*
D17*
X42672000Y-79756000D03*
D18*
X42672000Y-84836000D03*
D17*
X44704000Y-79756000D03*
D18*
X44704000Y-84836000D03*
D17*
X56896000Y-79756000D03*
D18*
X56896000Y-84836000D03*
D17*
X58928000Y-79756000D03*
D18*
X58928000Y-84836000D03*
D17*
X71120000Y-79756000D03*
D18*
X71120000Y-84836000D03*
D17*
X73152000Y-79756000D03*
D18*
X73152000Y-84836000D03*
D17*
X85344000Y-79756000D03*
D18*
X85344000Y-84836000D03*
D17*
X87376000Y-79756000D03*
D18*
X87376000Y-84836000D03*
D17*
X99568000Y-79756000D03*
D18*
X99568000Y-84836000D03*
D17*
X101600000Y-79756000D03*
D18*
X101600000Y-84836000D03*
D17*
X113792000Y-79756000D03*
D18*
X113792000Y-84836000D03*
D17*
X115824000Y-79756000D03*
D18*
X115824000Y-84836000D03*
D17*
X128016000Y-79756000D03*
D18*
X128016000Y-84836000D03*
D17*
X130048000Y-79756000D03*
D18*
X130048000Y-84836000D03*
D17*
X142240000Y-79756000D03*
D18*
X142240000Y-84836000D03*
D17*
X144526000Y-77216000D03*
D18*
X144526000Y-82296000D03*
D17*
X146812000Y-77216000D03*
D18*
X146812000Y-82296000D03*
D17*
X35560000Y-91186000D03*
D18*
X30480000Y-91186000D03*
D17*
X37592000Y-91186000D03*
D18*
X42672000Y-91186000D03*
D17*
X49784000Y-91186000D03*
D18*
X44704000Y-91186000D03*
D17*
X51816000Y-91186000D03*
D18*
X56896000Y-91186000D03*
D17*
X64008000Y-91186000D03*
D18*
X58928000Y-91186000D03*
D17*
X66040000Y-91186000D03*
D18*
X71120000Y-91186000D03*
D17*
X78232000Y-91186000D03*
D18*
X73152000Y-91186000D03*
D17*
X80264000Y-91186000D03*
D18*
X85344000Y-91186000D03*
D17*
X92456000Y-91186000D03*
D18*
X87376000Y-91186000D03*
D17*
X94488000Y-91186000D03*
D18*
X99568000Y-91186000D03*
D17*
X106680000Y-91186000D03*
D18*
X101600000Y-91186000D03*
D17*
X108712000Y-91186000D03*
D18*
X113792000Y-91186000D03*
D17*
X120904000Y-91186000D03*
D18*
X115824000Y-91186000D03*
D17*
X122936000Y-91186000D03*
D18*
X128016000Y-91186000D03*
D17*
X135128000Y-91186000D03*
D18*
X130048000Y-91186000D03*
D17*
X137160000Y-91186000D03*
D18*
X142240000Y-91186000D03*
D17*
X30480000Y-93472000D03*
D18*
X30480000Y-98552000D03*
D17*
X42672000Y-93472000D03*
D18*
X42672000Y-98552000D03*
D17*
X44704000Y-93472000D03*
D18*
X44704000Y-98552000D03*
D17*
X56896000Y-93472000D03*
D18*
X56896000Y-98552000D03*
D17*
X58928000Y-93472000D03*
D18*
X58928000Y-98552000D03*
D17*
X71120000Y-93472000D03*
D18*
X71120000Y-98552000D03*
D17*
X73152000Y-93472000D03*
D18*
X73152000Y-98552000D03*
D17*
X85344000Y-93472000D03*
D18*
X85344000Y-98552000D03*
D17*
X87376000Y-93472000D03*
D18*
X87376000Y-98552000D03*
D17*
X99568000Y-93472000D03*
D18*
X99568000Y-98552000D03*
D17*
X101600000Y-93472000D03*
D18*
X101600000Y-98552000D03*
D17*
X113792000Y-93472000D03*
D18*
X113792000Y-98552000D03*
D17*
X115824000Y-93472000D03*
D18*
X115824000Y-98552000D03*
D17*
X128016000Y-93472000D03*
D18*
X128016000Y-98552000D03*
D17*
X130048000Y-93472000D03*
D18*
X130048000Y-98552000D03*
D17*
X142240000Y-93472000D03*
D18*
X142240000Y-98552000D03*
D17*
X144526000Y-91186000D03*
D18*
X144526000Y-96266000D03*
D17*
X146812000Y-91186000D03*
D18*
X146812000Y-96266000D03*
D17*
X35560000Y-104902000D03*
D18*
X30480000Y-104902000D03*
D17*
X37592000Y-104902000D03*
D18*
X42672000Y-104902000D03*
D17*
X49784000Y-104902000D03*
D18*
X44704000Y-104902000D03*
D17*
X51816000Y-104902000D03*
D18*
X56896000Y-104902000D03*
D17*
X64008000Y-104902000D03*
D18*
X58928000Y-104902000D03*
D17*
X66040000Y-104902000D03*
D18*
X71120000Y-104902000D03*
D17*
X78232000Y-104902000D03*
D18*
X73152000Y-104902000D03*
D17*
X80264000Y-104902000D03*
D18*
X85344000Y-104902000D03*
D17*
X92456000Y-104902000D03*
D18*
X87376000Y-104902000D03*
D17*
X94488000Y-104902000D03*
D18*
X99568000Y-104902000D03*
D17*
X106680000Y-104902000D03*
D18*
X101600000Y-104902000D03*
D17*
X108712000Y-104902000D03*
D18*
X113792000Y-104902000D03*
D17*
X120904000Y-104902000D03*
D18*
X115824000Y-104902000D03*
D17*
X122936000Y-104902000D03*
D18*
X128016000Y-104902000D03*
D17*
X135128000Y-104902000D03*
D18*
X130048000Y-104902000D03*
D17*
X137160000Y-104902000D03*
D18*
X142240000Y-104902000D03*
D17*
X30480000Y-107188000D03*
D18*
X30480000Y-112268000D03*
D17*
X42672000Y-107188000D03*
D18*
X42672000Y-112268000D03*
D17*
X44704000Y-107188000D03*
D18*
X44704000Y-112268000D03*
D17*
X56896000Y-107188000D03*
D18*
X56896000Y-112268000D03*
D17*
X58928000Y-107188000D03*
D18*
X58928000Y-112268000D03*
D17*
X71120000Y-107188000D03*
D18*
X71120000Y-112268000D03*
D17*
X73152000Y-107188000D03*
D18*
X73152000Y-112268000D03*
D17*
X85344000Y-107188000D03*
D18*
X85344000Y-112268000D03*
D17*
X87376000Y-107188000D03*
D18*
X87376000Y-112268000D03*
D17*
X99568000Y-107188000D03*
D18*
X99568000Y-112268000D03*
D17*
X101600000Y-107188000D03*
D18*
X101600000Y-112268000D03*
D17*
X113792000Y-107188000D03*
D18*
X113792000Y-112268000D03*
D17*
X115824000Y-107188000D03*
D18*
X115824000Y-112268000D03*
D17*
X128016000Y-107188000D03*
D18*
X128016000Y-112268000D03*
D17*
X130048000Y-107188000D03*
D18*
X130048000Y-112268000D03*
D17*
X142240000Y-107188000D03*
D18*
X142240000Y-112268000D03*
D17*
X144526000Y-104902000D03*
D18*
X144526000Y-109982000D03*
D17*
X146812000Y-104902000D03*
D18*
X146812000Y-109982000D03*
D17*
X35560000Y-118618000D03*
D18*
X30480000Y-118618000D03*
D17*
X37592000Y-118618000D03*
D18*
X42672000Y-118618000D03*
D17*
X49784000Y-118618000D03*
D18*
X44704000Y-118618000D03*
D17*
X51816000Y-118618000D03*
D18*
X56896000Y-118618000D03*
D17*
X64008000Y-118618000D03*
D18*
X58928000Y-118618000D03*
D17*
X66040000Y-118618000D03*
D18*
X71120000Y-118618000D03*
D17*
X78232000Y-118618000D03*
D18*
X73152000Y-118618000D03*
D17*
X80264000Y-118618000D03*
D18*
X85344000Y-118618000D03*
D17*
X92456000Y-118618000D03*
D18*
X87376000Y-118618000D03*
D17*
X94488000Y-118618000D03*
D18*
X99568000Y-118618000D03*
D17*
X106680000Y-118618000D03*
D18*
X101600000Y-118618000D03*
D17*
X108712000Y-118618000D03*
D18*
X113792000Y-118618000D03*
D17*
X120904000Y-118618000D03*
D18*
X115824000Y-118618000D03*
D17*
X122936000Y-118618000D03*
D18*
X128016000Y-118618000D03*
D17*
X135128000Y-118618000D03*
D18*
X130048000Y-118618000D03*
D17*
X137160000Y-118618000D03*
D18*
X142240000Y-118618000D03*
D17*
X30480000Y-120904000D03*
D18*
X30480000Y-125984000D03*
D17*
X42672000Y-120904000D03*
D18*
X42672000Y-125984000D03*
D17*
X44704000Y-120904000D03*
D18*
X44704000Y-125984000D03*
D17*
X56896000Y-120904000D03*
D18*
X56896000Y-125984000D03*
D17*
X58928000Y-120904000D03*
D18*
X58928000Y-125984000D03*
D17*
X71120000Y-120904000D03*
D18*
X71120000Y-125984000D03*
D17*
X73152000Y-120904000D03*
D18*
X73152000Y-125984000D03*
D17*
X85344000Y-120904000D03*
D18*
X85344000Y-125984000D03*
D17*
X87376000Y-120904000D03*
D18*
X87376000Y-125984000D03*
D17*
X99568000Y-120904000D03*
D18*
X99568000Y-125984000D03*
D17*
X101600000Y-120904000D03*
D18*
X101600000Y-125984000D03*
D17*
X113792000Y-120904000D03*
D18*
X113792000Y-125984000D03*
D17*
X115824000Y-120904000D03*
D18*
X115824000Y-125984000D03*
D17*
X128016000Y-120904000D03*
D18*
X128016000Y-125984000D03*
D17*
X130048000Y-120904000D03*
D18*
X130048000Y-125984000D03*
D17*
X142240000Y-120904000D03*
D18*
X142240000Y-125984000D03*
D17*
X144526000Y-118618000D03*
D18*
X144526000Y-123698000D03*
D17*
X146812000Y-118618000D03*
D18*
X146812000Y-123698000D03*
D17*
X35560000Y-132334000D03*
D18*
X30480000Y-132334000D03*
D17*
X37592000Y-132334000D03*
D18*
X42672000Y-132334000D03*
D17*
X49784000Y-132334000D03*
D18*
X44704000Y-132334000D03*
D17*
X51816000Y-132334000D03*
D18*
X56896000Y-132334000D03*
D17*
X64008000Y-132334000D03*
D18*
X58928000Y-132334000D03*
D17*
X66040000Y-132334000D03*
D18*
X71120000Y-132334000D03*
D17*
X78232000Y-132334000D03*
D18*
X73152000Y-132334000D03*
D17*
X80264000Y-132334000D03*
D18*
X85344000Y-132334000D03*
D17*
X92456000Y-132334000D03*
D18*
X87376000Y-132334000D03*
D17*
X94488000Y-132334000D03*
D18*
X99568000Y-132334000D03*
D17*
X106680000Y-132334000D03*
D18*
X101600000Y-132334000D03*
D17*
X108712000Y-132334000D03*
D18*
X113792000Y-132334000D03*
D17*
X120904000Y-132334000D03*
D18*
X115824000Y-132334000D03*
D17*
X122936000Y-132334000D03*
D18*
X128016000Y-132334000D03*
D17*
X135128000Y-132334000D03*
D18*
X130048000Y-132334000D03*
D17*
X137160000Y-132334000D03*
D18*
X142240000Y-132334000D03*
D17*
X30480000Y-134620000D03*
D18*
X30480000Y-139700000D03*
D17*
X42672000Y-134620000D03*
D18*
X42672000Y-139700000D03*
D17*
X44704000Y-134620000D03*
D18*
X44704000Y-139700000D03*
D17*
X56896000Y-134620000D03*
D18*
X56896000Y-139700000D03*
D17*
X58928000Y-134620000D03*
D18*
X58928000Y-139700000D03*
D17*
X71120000Y-134620000D03*
D18*
X71120000Y-139700000D03*
D17*
X73152000Y-134620000D03*
D18*
X73152000Y-139700000D03*
D17*
X85344000Y-134620000D03*
D18*
X85344000Y-139700000D03*
D17*
X87376000Y-134620000D03*
D18*
X87376000Y-139700000D03*
D17*
X99568000Y-134620000D03*
D18*
X99568000Y-139700000D03*
D17*
X101600000Y-134620000D03*
D18*
X101600000Y-139700000D03*
D17*
X113792000Y-134620000D03*
D18*
X113792000Y-139700000D03*
D17*
X115824000Y-134620000D03*
D18*
X115824000Y-139700000D03*
D17*
X128016000Y-134620000D03*
D18*
X128016000Y-139700000D03*
D17*
X130048000Y-134620000D03*
D18*
X130048000Y-139700000D03*
D17*
X142240000Y-134620000D03*
D18*
X142240000Y-139700000D03*
D17*
X144526000Y-132334000D03*
D18*
X144526000Y-137414000D03*
D17*
X146812000Y-132334000D03*
D18*
X146812000Y-137414000D03*
D17*
X128016000Y-141986000D03*
D18*
X128016000Y-147066000D03*
D17*
X130048000Y-141986000D03*
D18*
X130048000Y-147066000D03*
D17*
X101600000Y-141986000D03*
D18*
X101600000Y-147066000D03*
D19*
X103124000Y-131064000D03*
X131826000Y-131064000D03*
X31750000Y-143764000D03*
X31750000Y-144780000D03*
X31750000Y-145796000D03*
X31750000Y-131064000D03*
X31750000Y-117348000D03*
X31750000Y-103886000D03*
X31750000Y-76708000D03*
X31750000Y-62738000D03*
X31750000Y-49022000D03*
X31750000Y-35560000D03*
X31750000Y-89916000D03*
X40640000Y-144272000D03*
X54864000Y-144272000D03*
X69088000Y-144272000D03*
X83312000Y-144272000D03*
X97536000Y-144272000D03*
X103378000Y-144272000D03*
X103632000Y-146050000D03*
X104140000Y-147574000D03*
X139446000Y-146812000D03*
X148844000Y-86106000D03*
X148844000Y-113792000D03*
X148844000Y-141224000D03*
X148844000Y-58928000D03*
X100330000Y-149860000D03*
X153416000Y-135636000D03*
X153416000Y-80518000D03*
X32512000Y-143256000D03*
X32512000Y-129540000D03*
X32512000Y-115824000D03*
X32512000Y-102108000D03*
X32512000Y-74676000D03*
X32512000Y-60960000D03*
X32512000Y-47244000D03*
X32512000Y-88392000D03*
X109982000Y-148844000D03*
X101600000Y-149098000D03*
X148082000Y-127508000D03*
X148082000Y-100076000D03*
X148082000Y-72644000D03*
X148082000Y-45212000D03*
X152654000Y-108204000D03*
X152654000Y-53340000D03*
X154178000Y-54610000D03*
X154178000Y-149606000D03*
X154178000Y-81788000D03*
X121412022Y-147066000D03*
X154940000Y-136906000D03*
X154940000Y-148336000D03*
X154940000Y-109474000D03*
D20*
X130048000Y-141986000D02*
X128016000Y-141986000D01*
X103124000Y-140462000D02*
X103124000Y-131064000D01*
X101600000Y-141986000D02*
X103124000Y-140462000D01*
X131826000Y-141197949D02*
X131826000Y-131064000D01*
X130048000Y-141986000D02*
X131037949Y-141986000D01*
X131037949Y-141986000D02*
X131826000Y-141197949D01*
X31750000Y-143510000D02*
X31750000Y-144272000D01*
X31750000Y-131064000D02*
X31750000Y-143510000D01*
X31750000Y-143510000D02*
X31750000Y-143764000D01*
X31750000Y-144272000D02*
X31750000Y-145796000D01*
X31750000Y-144272000D02*
X31750000Y-144780000D01*
X31750000Y-117348000D02*
X31750000Y-131064000D01*
X31750000Y-103886000D02*
X31750000Y-117348000D01*
X31750000Y-89916000D02*
X31750000Y-103886000D01*
X31750000Y-89916000D02*
X31750000Y-76708000D01*
X31750000Y-76708000D02*
X31750000Y-62738000D01*
X31750000Y-62738000D02*
X31750000Y-49022000D01*
X31750000Y-49022000D02*
X31750000Y-35560000D01*
D21*
X40640000Y-134858000D02*
X40640000Y-135382000D01*
X40640000Y-135382000D02*
X40640000Y-144272000D01*
X40370000Y-135128000D02*
X40624000Y-135382000D01*
X39370000Y-135128000D02*
X40370000Y-135128000D01*
X40624000Y-135382000D02*
X40640000Y-135382000D01*
X40640000Y-134858000D02*
X40640000Y-121920000D01*
X40640000Y-121920000D02*
X40640000Y-121142000D01*
X40640000Y-121682000D02*
X40640000Y-121920000D01*
X39370000Y-121412000D02*
X40370000Y-121412000D01*
X40370000Y-121412000D02*
X40640000Y-121682000D01*
X40370000Y-135128000D02*
X40640000Y-134858000D01*
X40640000Y-113157971D02*
X40640000Y-108458000D01*
X40640000Y-108458000D02*
X40640000Y-107442000D01*
X39370000Y-107696000D02*
X40370000Y-107696000D01*
X40370000Y-107696000D02*
X40640000Y-107966000D01*
X40640000Y-107966000D02*
X40640000Y-108458000D01*
X40640000Y-121142000D02*
X40640000Y-113157971D01*
X40370000Y-121412000D02*
X40640000Y-121142000D01*
X40640000Y-93710000D02*
X40640000Y-94234000D01*
X40640000Y-94234000D02*
X40640000Y-107442000D01*
X39370000Y-93980000D02*
X40370000Y-93980000D01*
X40370000Y-93980000D02*
X40624000Y-94234000D01*
X40624000Y-94234000D02*
X40640000Y-94234000D01*
X40640000Y-107442000D02*
X40386000Y-107696000D01*
X40386000Y-107696000D02*
X39370000Y-107696000D01*
X40640000Y-93710000D02*
X40640000Y-80772000D01*
X40370000Y-80264000D02*
X40640000Y-80534000D01*
X40640000Y-80772000D02*
X40640000Y-79994000D01*
X39370000Y-80264000D02*
X40370000Y-80264000D01*
X40640000Y-80534000D02*
X40640000Y-80772000D01*
X40370000Y-93980000D02*
X40640000Y-93710000D01*
X40640000Y-79994000D02*
X40640000Y-66802000D01*
X40370000Y-66548000D02*
X40624000Y-66802000D01*
X40640000Y-66802000D02*
X40640000Y-66278000D01*
X39370000Y-66548000D02*
X40370000Y-66548000D01*
X40624000Y-66802000D02*
X40640000Y-66802000D01*
X40370000Y-80264000D02*
X40640000Y-79994000D01*
X40640000Y-52578000D02*
X40640000Y-53102000D01*
X40370000Y-66548000D02*
X40640000Y-66278000D01*
X40640000Y-66278000D02*
X40640000Y-53102000D01*
X40640000Y-53102000D02*
X40370000Y-52832000D01*
X40370000Y-52832000D02*
X39370000Y-52832000D01*
X39370000Y-39116000D02*
X40370000Y-39116000D01*
X40370000Y-39116000D02*
X40640000Y-39386000D01*
X40640000Y-39386000D02*
X40640000Y-52578000D01*
X40640000Y-52578000D02*
X40386000Y-52832000D01*
X40386000Y-52832000D02*
X39370000Y-52832000D01*
X54864000Y-134858000D02*
X54864000Y-135890000D01*
X54864000Y-135890000D02*
X54864000Y-144272000D01*
X53594000Y-135128000D02*
X54594000Y-135128000D01*
X54594000Y-135128000D02*
X54864000Y-135398000D01*
X54864000Y-135398000D02*
X54864000Y-135890000D01*
X54864000Y-134858000D02*
X54864000Y-122174000D01*
X53594000Y-121412000D02*
X54594000Y-121412000D01*
X54864000Y-122174000D02*
X54864000Y-121142000D01*
X54594000Y-121412000D02*
X54864000Y-121682000D01*
X54864000Y-121682000D02*
X54864000Y-122174000D01*
X54594000Y-135128000D02*
X54864000Y-134858000D01*
X54864000Y-121142000D02*
X54864000Y-108458000D01*
X54864000Y-108458000D02*
X54864000Y-107442000D01*
X53594000Y-107696000D02*
X54594000Y-107696000D01*
X54594000Y-107696000D02*
X54864000Y-107966000D01*
X54864000Y-107966000D02*
X54864000Y-108458000D01*
X54594000Y-121412000D02*
X54864000Y-121142000D01*
X54864000Y-93710000D02*
X54864000Y-94488000D01*
X54864000Y-94488000D02*
X54864000Y-107442000D01*
X54594000Y-93980000D02*
X54864000Y-94250000D01*
X53594000Y-93980000D02*
X54594000Y-93980000D01*
X54864000Y-94250000D02*
X54864000Y-94488000D01*
X54864000Y-107442000D02*
X54610000Y-107696000D01*
X54610000Y-107696000D02*
X53594000Y-107696000D01*
X54864000Y-93710000D02*
X54864000Y-80518000D01*
X54864000Y-80518000D02*
X54864000Y-79994000D01*
X53594000Y-80264000D02*
X54610000Y-80264000D01*
X54610000Y-80264000D02*
X54864000Y-80518000D01*
X54594000Y-93980000D02*
X54864000Y-93710000D01*
X54864000Y-79994000D02*
X54864000Y-67564000D01*
X54864000Y-66818000D02*
X54864000Y-67564000D01*
X54864000Y-67564000D02*
X54864000Y-66278000D01*
X53594000Y-66548000D02*
X54594000Y-66548000D01*
X54594000Y-66548000D02*
X54864000Y-66818000D01*
X53594000Y-80264000D02*
X54594000Y-80264000D01*
X54594000Y-80264000D02*
X54864000Y-79994000D01*
X54864000Y-66278000D02*
X54864000Y-53340000D01*
X54864000Y-53340000D02*
X54864000Y-52578000D01*
X53594000Y-52832000D02*
X54594000Y-52832000D01*
X54594000Y-52832000D02*
X54864000Y-53102000D01*
X54864000Y-53102000D02*
X54864000Y-53340000D01*
X54594000Y-66548000D02*
X54864000Y-66278000D01*
X54610000Y-39116000D02*
X53594000Y-39116000D01*
X54864000Y-39370000D02*
X54610000Y-39116000D01*
X54864000Y-52578000D02*
X54864000Y-39370000D01*
X54610000Y-52832000D02*
X54864000Y-52578000D01*
X53594000Y-52832000D02*
X54610000Y-52832000D01*
X69088000Y-134858000D02*
X69088000Y-135890000D01*
X69088000Y-135890000D02*
X69088000Y-144272000D01*
X67818000Y-135128000D02*
X68818000Y-135128000D01*
X69088000Y-135398000D02*
X69088000Y-135890000D01*
X68818000Y-135128000D02*
X69088000Y-135398000D01*
X69088000Y-134858000D02*
X69088000Y-122174000D01*
X69088000Y-122174000D02*
X69088000Y-121142000D01*
X67818000Y-121412000D02*
X68818000Y-121412000D01*
X68818000Y-121412000D02*
X69088000Y-121682000D01*
X69088000Y-121682000D02*
X69088000Y-122174000D01*
X68818000Y-135128000D02*
X69088000Y-134858000D01*
X69088000Y-121142000D02*
X69088000Y-108204000D01*
X69088000Y-108204000D02*
X69088000Y-107442000D01*
X67818000Y-107696000D02*
X68818000Y-107696000D01*
X68818000Y-107696000D02*
X69088000Y-107966000D01*
X69088000Y-107966000D02*
X69088000Y-108204000D01*
X68818000Y-121412000D02*
X69088000Y-121142000D01*
X69088000Y-93710000D02*
X69088000Y-94488000D01*
X69088000Y-94488000D02*
X69088000Y-107442000D01*
X67818000Y-93980000D02*
X68818000Y-93980000D01*
X68818000Y-93980000D02*
X69088000Y-94250000D01*
X69088000Y-94250000D02*
X69088000Y-94488000D01*
X69088000Y-107442000D02*
X68834000Y-107696000D01*
X68834000Y-107696000D02*
X67818000Y-107696000D01*
X69088000Y-89154000D02*
X69088000Y-80772000D01*
X68818000Y-80264000D02*
X69088000Y-80534000D01*
X69088000Y-80772000D02*
X69088000Y-79994000D01*
X67818000Y-80264000D02*
X68818000Y-80264000D01*
X69088000Y-80534000D02*
X69088000Y-80772000D01*
X69088000Y-93710000D02*
X69088000Y-89154000D01*
X68818000Y-93980000D02*
X69088000Y-93710000D01*
X69088000Y-79994000D02*
X69088000Y-67056000D01*
X69088000Y-67056000D02*
X69088000Y-66294000D01*
X67818000Y-66548000D02*
X68818000Y-66548000D01*
X68818000Y-66548000D02*
X69088000Y-66818000D01*
X69088000Y-66818000D02*
X69088000Y-67056000D01*
X68818000Y-80264000D02*
X69088000Y-79994000D01*
X69088000Y-52578000D02*
X69088000Y-53594000D01*
X69088000Y-53594000D02*
X69088000Y-66294000D01*
X67818000Y-52832000D02*
X68818000Y-52832000D01*
X68818000Y-52832000D02*
X69088000Y-53102000D01*
X69088000Y-53102000D02*
X69088000Y-53594000D01*
X69088000Y-66294000D02*
X68834000Y-66548000D01*
X68834000Y-66548000D02*
X67818000Y-66548000D01*
X68834000Y-39116000D02*
X67818000Y-39116000D01*
X69088000Y-39370000D02*
X68834000Y-39116000D01*
X69088000Y-52578000D02*
X69088000Y-39370000D01*
X68834000Y-52832000D02*
X69088000Y-52578000D01*
X67818000Y-52832000D02*
X68834000Y-52832000D01*
X83312000Y-134858000D02*
X83312000Y-135382000D01*
X83312000Y-135382000D02*
X83312000Y-144272000D01*
X82042000Y-135128000D02*
X83042000Y-135128000D01*
X83042000Y-135128000D02*
X83296000Y-135382000D01*
X83296000Y-135382000D02*
X83312000Y-135382000D01*
X83312000Y-134858000D02*
X83312000Y-122174000D01*
X83312000Y-122174000D02*
X83312000Y-120904000D01*
X82042000Y-121412000D02*
X83042000Y-121412000D01*
X83042000Y-121412000D02*
X83312000Y-121682000D01*
X83312000Y-121682000D02*
X83312000Y-122174000D01*
X83312000Y-121142000D02*
X83312000Y-120904000D01*
X83312000Y-120904000D02*
X83312000Y-108712000D01*
X83042000Y-135128000D02*
X83312000Y-134858000D01*
X83312000Y-108712000D02*
X83312000Y-107426000D01*
X82042000Y-107696000D02*
X83042000Y-107696000D01*
X83042000Y-107696000D02*
X83312000Y-107966000D01*
X83312000Y-107966000D02*
X83312000Y-108712000D01*
X83042000Y-121412000D02*
X83312000Y-121142000D01*
X83312000Y-107426000D02*
X83312000Y-94234000D01*
X83312000Y-94234000D02*
X83312000Y-93710000D01*
X82042000Y-93980000D02*
X83058000Y-93980000D01*
X83058000Y-93980000D02*
X83312000Y-94234000D01*
X83042000Y-107696000D02*
X83312000Y-107426000D01*
X83312000Y-93710000D02*
X83312000Y-80772000D01*
X83312000Y-80772000D02*
X83312000Y-79994000D01*
X82042000Y-80264000D02*
X83042000Y-80264000D01*
X83042000Y-80264000D02*
X83312000Y-80534000D01*
X83312000Y-80534000D02*
X83312000Y-80772000D01*
X82042000Y-93980000D02*
X83042000Y-93980000D01*
X83042000Y-93980000D02*
X83312000Y-93710000D01*
X83312000Y-79994000D02*
X83312000Y-66802000D01*
X83312000Y-66802000D02*
X83312000Y-66278000D01*
X83042000Y-66548000D02*
X83296000Y-66802000D01*
X82042000Y-66548000D02*
X83042000Y-66548000D01*
X83296000Y-66802000D02*
X83312000Y-66802000D01*
X83042000Y-80264000D02*
X83312000Y-79994000D01*
X83312000Y-66278000D02*
X83312000Y-53340000D01*
X83312000Y-53340000D02*
X83312000Y-52070000D01*
X82042000Y-52832000D02*
X83042000Y-52832000D01*
X83042000Y-52832000D02*
X83312000Y-53102000D01*
X83312000Y-53102000D02*
X83312000Y-53340000D01*
X83312000Y-39370000D02*
X83312000Y-52070000D01*
X83312000Y-52070000D02*
X83312000Y-52578000D01*
X83042000Y-66548000D02*
X83312000Y-66278000D01*
X83058000Y-52832000D02*
X82042000Y-52832000D01*
X83312000Y-52578000D02*
X83058000Y-52832000D01*
X83058000Y-39116000D02*
X83312000Y-39370000D01*
X82042000Y-39116000D02*
X83058000Y-39116000D01*
X97536000Y-134858000D02*
X97536000Y-144272000D01*
X97536000Y-134858000D02*
X97536000Y-121666000D01*
X96266000Y-121412000D02*
X97282000Y-121412000D01*
X97536000Y-121666000D02*
X97536000Y-120904000D01*
X97282000Y-121412000D02*
X97536000Y-121666000D01*
X97536000Y-121142000D02*
X97536000Y-120904000D01*
X97536000Y-120904000D02*
X97536000Y-108966000D01*
X96266000Y-135128000D02*
X97266000Y-135128000D01*
X97266000Y-135128000D02*
X97536000Y-134858000D01*
X97536000Y-107966000D02*
X97536000Y-108966000D01*
X97536000Y-108966000D02*
X97536000Y-107188000D01*
X96266000Y-107696000D02*
X97266000Y-107696000D01*
X97266000Y-107696000D02*
X97536000Y-107966000D01*
X97536000Y-107426000D02*
X97536000Y-107188000D01*
X97536000Y-107188000D02*
X97536000Y-94488000D01*
X96266000Y-121412000D02*
X97266000Y-121412000D01*
X97266000Y-121412000D02*
X97536000Y-121142000D01*
X97536000Y-94488000D02*
X97536000Y-93710000D01*
X96266000Y-93980000D02*
X97266000Y-93980000D01*
X97266000Y-93980000D02*
X97536000Y-94250000D01*
X97536000Y-94250000D02*
X97536000Y-94488000D01*
X97266000Y-107696000D02*
X97536000Y-107426000D01*
X97536000Y-93710000D02*
X97536000Y-81026000D01*
X97536000Y-81026000D02*
X97536000Y-79502000D01*
X97536000Y-80534000D02*
X97536000Y-81026000D01*
X96266000Y-80264000D02*
X97266000Y-80264000D01*
X97266000Y-80264000D02*
X97536000Y-80534000D01*
X97536000Y-79994000D02*
X97536000Y-79502000D01*
X97536000Y-79502000D02*
X97536000Y-67056000D01*
X97266000Y-93980000D02*
X97536000Y-93710000D01*
X97536000Y-67056000D02*
X97536000Y-66294000D01*
X96266000Y-66548000D02*
X97266000Y-66548000D01*
X97266000Y-66548000D02*
X97536000Y-66818000D01*
X97536000Y-66818000D02*
X97536000Y-67056000D01*
X97266000Y-80264000D02*
X97536000Y-79994000D01*
X97536000Y-66040000D02*
X97536000Y-53086000D01*
X97536000Y-53086000D02*
X97536000Y-52324000D01*
X96266000Y-52832000D02*
X97266000Y-52832000D01*
X97266000Y-52832000D02*
X97520000Y-53086000D01*
X97520000Y-53086000D02*
X97536000Y-53086000D01*
X97536000Y-39370000D02*
X97536000Y-52324000D01*
X97536000Y-52324000D02*
X97536000Y-52578000D01*
X97536000Y-66278000D02*
X97536000Y-66040000D01*
X97266000Y-66548000D02*
X97536000Y-66278000D01*
X97282000Y-52832000D02*
X96266000Y-52832000D01*
X97536000Y-52578000D02*
X97282000Y-52832000D01*
X97282000Y-39116000D02*
X97536000Y-39370000D01*
X96266000Y-39116000D02*
X97282000Y-39116000D01*
X111760000Y-134858000D02*
X111760000Y-135636000D01*
X111760000Y-135636000D02*
X111760000Y-144018000D01*
X110490000Y-135128000D02*
X111490000Y-135128000D01*
X111490000Y-135128000D02*
X111760000Y-135398000D01*
X111760000Y-135398000D02*
X111760000Y-135636000D01*
X104394000Y-144272000D02*
X103378000Y-144272000D01*
X107442000Y-144272000D02*
X104394000Y-144272000D01*
X110490000Y-144272000D02*
X107442000Y-144272000D01*
X111506000Y-144272000D02*
X110490000Y-144272000D01*
X111760000Y-144018000D02*
X111506000Y-144272000D01*
X111760000Y-134858000D02*
X111760000Y-121666000D01*
X111760000Y-121666000D02*
X111760000Y-121142000D01*
X110490000Y-121412000D02*
X111506000Y-121412000D01*
X111506000Y-121412000D02*
X111760000Y-121666000D01*
X111490000Y-135128000D02*
X111760000Y-134858000D01*
X111760000Y-121142000D02*
X111760000Y-108458000D01*
X111760000Y-108458000D02*
X111760000Y-106934000D01*
X110490000Y-107696000D02*
X111490000Y-107696000D01*
X111490000Y-107696000D02*
X111760000Y-107966000D01*
X111760000Y-107966000D02*
X111760000Y-108458000D01*
X111760000Y-107426000D02*
X111760000Y-106934000D01*
X111760000Y-106934000D02*
X111760000Y-94742000D01*
X110490000Y-121412000D02*
X111490000Y-121412000D01*
X111490000Y-121412000D02*
X111760000Y-121142000D01*
X111760000Y-94742000D02*
X111760000Y-93472000D01*
X110490000Y-93980000D02*
X111490000Y-93980000D01*
X111490000Y-93980000D02*
X111760000Y-94250000D01*
X111760000Y-94250000D02*
X111760000Y-94742000D01*
X111760000Y-93710000D02*
X111760000Y-93472000D01*
X111760000Y-93472000D02*
X111760000Y-80518000D01*
X111490000Y-107696000D02*
X111760000Y-107426000D01*
X111760000Y-80518000D02*
X111760000Y-79248000D01*
X110490000Y-80264000D02*
X111506000Y-80264000D01*
X111506000Y-80264000D02*
X111760000Y-80518000D01*
X111760000Y-79994000D02*
X111760000Y-79248000D01*
X111760000Y-79248000D02*
X111760000Y-67310000D01*
X111490000Y-93980000D02*
X111760000Y-93710000D01*
X111760000Y-67310000D02*
X111760000Y-66294000D01*
X110490000Y-66548000D02*
X111490000Y-66548000D01*
X111490000Y-66548000D02*
X111760000Y-66818000D01*
X111760000Y-66818000D02*
X111760000Y-67310000D01*
X110490000Y-80264000D02*
X111490000Y-80264000D01*
X111490000Y-80264000D02*
X111760000Y-79994000D01*
X111760000Y-52578000D02*
X111760000Y-53594000D01*
X111760000Y-53594000D02*
X111760000Y-66294000D01*
X110490000Y-52832000D02*
X111490000Y-52832000D01*
X111490000Y-52832000D02*
X111760000Y-53102000D01*
X111760000Y-53102000D02*
X111760000Y-53594000D01*
X111760000Y-66294000D02*
X111506000Y-66548000D01*
X111506000Y-66548000D02*
X110490000Y-66548000D01*
X111506000Y-52832000D02*
X110490000Y-52832000D01*
X111760000Y-52578000D02*
X111506000Y-52832000D01*
X111760000Y-39370000D02*
X111760000Y-52578000D01*
X111506000Y-39116000D02*
X111760000Y-39370000D01*
X110490000Y-39116000D02*
X111506000Y-39116000D01*
X125984000Y-134858000D02*
X125984000Y-135636000D01*
X125984000Y-135636000D02*
X125984000Y-144018000D01*
X124714000Y-135128000D02*
X125714000Y-135128000D01*
X125714000Y-135128000D02*
X125984000Y-135398000D01*
X125984000Y-135398000D02*
X125984000Y-135636000D01*
X104902000Y-145288000D02*
X104394000Y-145288000D01*
X104394000Y-145288000D02*
X103632000Y-146050000D01*
X107442000Y-145288000D02*
X104902000Y-145288000D01*
X115570000Y-145288000D02*
X107442000Y-145288000D01*
X116078000Y-145288000D02*
X115570000Y-145288000D01*
X123698000Y-145288000D02*
X116078000Y-145288000D01*
X124714000Y-145288000D02*
X123698000Y-145288000D01*
X125730000Y-144272000D02*
X124714000Y-145288000D01*
X125984000Y-144018000D02*
X125730000Y-144272000D01*
X125984000Y-134858000D02*
X125984000Y-122174000D01*
X125984000Y-122174000D02*
X125984000Y-120650000D01*
X124714000Y-121412000D02*
X125714000Y-121412000D01*
X125714000Y-121412000D02*
X125984000Y-121682000D01*
X125984000Y-121682000D02*
X125984000Y-122174000D01*
X125984000Y-121142000D02*
X125984000Y-120650000D01*
X125984000Y-120650000D02*
X125984000Y-107950000D01*
X125714000Y-135128000D02*
X125984000Y-134858000D01*
X125714000Y-107696000D02*
X125968000Y-107950000D01*
X125984000Y-107950000D02*
X125984000Y-105918000D01*
X124714000Y-107696000D02*
X125714000Y-107696000D01*
X125968000Y-107950000D02*
X125984000Y-107950000D01*
X125984000Y-107426000D02*
X125984000Y-105918000D01*
X125984000Y-105918000D02*
X125984000Y-99822000D01*
X125714000Y-121412000D02*
X125984000Y-121142000D01*
X125984000Y-99822000D02*
X125984000Y-94488000D01*
X125984000Y-94488000D02*
X125984000Y-93472000D01*
X124714000Y-93980000D02*
X125714000Y-93980000D01*
X125714000Y-93980000D02*
X125984000Y-94250000D01*
X125984000Y-94250000D02*
X125984000Y-94488000D01*
X125984000Y-80772000D02*
X125984000Y-93472000D01*
X125984000Y-93472000D02*
X125984000Y-93726000D01*
X125714000Y-107696000D02*
X125984000Y-107426000D01*
X125984000Y-66278000D02*
X125984000Y-67310000D01*
X125984000Y-67310000D02*
X125984000Y-79248000D01*
X124714000Y-66548000D02*
X125714000Y-66548000D01*
X125714000Y-66548000D02*
X125984000Y-66818000D01*
X125984000Y-66818000D02*
X125984000Y-67310000D01*
X125984000Y-79248000D02*
X125984000Y-80772000D01*
X124714000Y-80264000D02*
X125714000Y-80264000D01*
X125714000Y-80264000D02*
X125984000Y-80534000D01*
X125984000Y-80534000D02*
X125984000Y-80772000D01*
X125984000Y-79994000D02*
X125984000Y-79248000D01*
X125714000Y-80264000D02*
X125984000Y-79994000D01*
X125984000Y-93726000D02*
X125730000Y-93980000D01*
X125730000Y-93980000D02*
X124714000Y-93980000D01*
X125984000Y-66278000D02*
X125984000Y-53340000D01*
X125984000Y-53340000D02*
X125984000Y-52578000D01*
X124714000Y-52832000D02*
X125714000Y-52832000D01*
X125714000Y-52832000D02*
X125984000Y-53102000D01*
X125984000Y-53102000D02*
X125984000Y-53340000D01*
X125714000Y-66548000D02*
X125984000Y-66278000D01*
X124714000Y-39116000D02*
X125730000Y-39116000D01*
X125730000Y-39116000D02*
X125984000Y-39370000D01*
X125984000Y-39370000D02*
X125984000Y-52578000D01*
X125984000Y-52578000D02*
X125730000Y-52832000D01*
X125730000Y-52832000D02*
X124714000Y-52832000D01*
X140208000Y-134858000D02*
X140208000Y-135890000D01*
X140208000Y-135890000D02*
X140208000Y-144272000D01*
X138938000Y-135128000D02*
X139938000Y-135128000D01*
X139938000Y-135128000D02*
X140208000Y-135398000D01*
X140208000Y-135398000D02*
X140208000Y-135890000D01*
X105410000Y-146304000D02*
X104140000Y-147574000D01*
X107442000Y-146304000D02*
X105410000Y-146304000D01*
X120904000Y-146304000D02*
X107442000Y-146304000D01*
X122936000Y-146304000D02*
X120904000Y-146304000D01*
X125476000Y-146304000D02*
X122936000Y-146304000D01*
X127000000Y-144780000D02*
X125476000Y-146304000D01*
X130556000Y-144780000D02*
X127000000Y-144780000D01*
X131064000Y-144780000D02*
X130556000Y-144780000D01*
X139700000Y-144780000D02*
X131064000Y-144780000D01*
X140208000Y-144272000D02*
X139700000Y-144780000D01*
X140208000Y-134858000D02*
X140208000Y-121666000D01*
X140208000Y-121666000D02*
X140208000Y-120904000D01*
X138938000Y-121412000D02*
X139954000Y-121412000D01*
X139954000Y-121412000D02*
X140208000Y-121666000D01*
X140208000Y-121142000D02*
X140208000Y-120904000D01*
X140208000Y-120904000D02*
X140208000Y-108204000D01*
X139938000Y-135128000D02*
X140208000Y-134858000D01*
X140208000Y-107966000D02*
X140208000Y-108204000D01*
X140208000Y-108204000D02*
X140208000Y-107188000D01*
X138938000Y-107696000D02*
X139938000Y-107696000D01*
X139938000Y-107696000D02*
X140208000Y-107966000D01*
X140208000Y-107426000D02*
X140208000Y-107188000D01*
X140208000Y-107188000D02*
X140208000Y-94742000D01*
X138938000Y-121412000D02*
X139938000Y-121412000D01*
X139938000Y-121412000D02*
X140208000Y-121142000D01*
X140208000Y-94742000D02*
X140208000Y-93726000D01*
X138938000Y-93980000D02*
X139938000Y-93980000D01*
X139938000Y-93980000D02*
X140208000Y-94250000D01*
X140208000Y-94250000D02*
X140208000Y-94742000D01*
X139938000Y-107696000D02*
X140208000Y-107426000D01*
X140208000Y-66278000D02*
X140208000Y-67056000D01*
X140208000Y-67056000D02*
X140208000Y-79502000D01*
X138938000Y-66548000D02*
X139938000Y-66548000D01*
X139938000Y-66548000D02*
X140208000Y-66818000D01*
X140208000Y-66818000D02*
X140208000Y-67056000D01*
X140208000Y-79994000D02*
X140208000Y-79502000D01*
X140208000Y-79502000D02*
X140208000Y-81026000D01*
X138938000Y-80264000D02*
X139938000Y-80264000D01*
X139938000Y-80264000D02*
X140208000Y-79994000D01*
X140208000Y-81026000D02*
X140208000Y-93726000D01*
X139938000Y-80264000D02*
X140208000Y-80534000D01*
X140208000Y-80534000D02*
X140208000Y-81026000D01*
X140208000Y-93726000D02*
X139954000Y-93980000D01*
X139954000Y-93980000D02*
X138938000Y-93980000D01*
X140208000Y-53802000D02*
X140208000Y-53086000D01*
X140208000Y-53086000D02*
X140208000Y-52578000D01*
X138938000Y-52832000D02*
X139938000Y-52832000D01*
X139938000Y-52832000D02*
X140192000Y-53086000D01*
X140192000Y-53086000D02*
X140208000Y-53086000D01*
X139938000Y-66548000D02*
X140208000Y-66278000D01*
X140208000Y-66278000D02*
X140208000Y-53802000D01*
X138938000Y-39116000D02*
X139954000Y-39116000D01*
X139954000Y-39116000D02*
X140208000Y-39370000D01*
X140208000Y-39370000D02*
X140208000Y-52578000D01*
X140208000Y-52578000D02*
X139954000Y-52832000D01*
X139954000Y-52832000D02*
X138938000Y-52832000D01*
X144018000Y-146812000D02*
X139446000Y-146812000D01*
X148844000Y-141224000D02*
X148844000Y-144272000D01*
X148844000Y-144272000D02*
X146304000Y-146812000D01*
X146304000Y-146812000D02*
X144018000Y-146812000D01*
X148844000Y-58928000D02*
X148844000Y-86106000D01*
X148844000Y-86106000D02*
X148844000Y-113792000D01*
X148844000Y-113792000D02*
X148844000Y-141224000D01*
X105918000Y-149860000D02*
X100330000Y-149860000D01*
X106172000Y-150114000D02*
X105918000Y-149860000D01*
X123952000Y-150114000D02*
X106172000Y-150114000D01*
X124460000Y-150114000D02*
X123952000Y-150114000D01*
X124968000Y-149606000D02*
X124460000Y-150114000D01*
X127762000Y-149606000D02*
X124968000Y-149606000D01*
X143256000Y-149606000D02*
X127762000Y-149606000D01*
X146804998Y-149606000D02*
X143256000Y-149606000D01*
X150114000Y-146812000D02*
X149598998Y-146812000D01*
X149598998Y-146812000D02*
X146804998Y-149606000D01*
X153416000Y-135636000D02*
X153416000Y-144510000D01*
X153416000Y-144510000D02*
X151114000Y-146812000D01*
X151114000Y-146812000D02*
X150114000Y-146812000D01*
X153416000Y-80518000D02*
X153416000Y-135636000D01*
D20*
X32512000Y-143256000D02*
X32512000Y-147828000D01*
X32512000Y-147828000D02*
X32512000Y-148336000D01*
X33020000Y-148336000D02*
X32512000Y-147828000D01*
X33020000Y-148336000D02*
X35560000Y-148336000D01*
X32512000Y-148336000D02*
X33020000Y-148336000D01*
X32512000Y-148336000D02*
X32512000Y-148844000D01*
X32512000Y-148844000D02*
X32512000Y-154432000D01*
X33020000Y-148336000D02*
X32512000Y-148844000D01*
X35560000Y-148336000D02*
X36258000Y-149034000D01*
X36258000Y-149034000D02*
X36258000Y-154686000D01*
X32512000Y-154432000D02*
X32258000Y-154686000D01*
X32512000Y-129540000D02*
X32512000Y-143256000D01*
X32512000Y-115824000D02*
X32512000Y-129540000D01*
X32512000Y-102108000D02*
X32512000Y-115824000D01*
X32512000Y-88816264D02*
X32512000Y-102108000D01*
X32512000Y-88392000D02*
X32512000Y-74676000D01*
X32512000Y-74676000D02*
X32512000Y-60960000D01*
X32512000Y-60960000D02*
X32512000Y-47244000D01*
X32512000Y-88392000D02*
X32512000Y-88816264D01*
D21*
X33274000Y-135636000D02*
X33274000Y-144272000D01*
X33274000Y-144272000D02*
X34290000Y-145288000D01*
X34290000Y-145288000D02*
X39370000Y-145288000D01*
X39370000Y-145288000D02*
X40258000Y-146176000D01*
X40258000Y-146176000D02*
X40258000Y-154686000D01*
X33274000Y-134874000D02*
X33274000Y-135636000D01*
X34544000Y-135128000D02*
X33544000Y-135128000D01*
X33274000Y-135398000D02*
X33274000Y-135636000D01*
X33544000Y-135128000D02*
X33274000Y-135398000D01*
X33274000Y-121158000D02*
X33274000Y-122174000D01*
X33274000Y-122174000D02*
X33274000Y-134874000D01*
X34544000Y-121412000D02*
X33544000Y-121412000D01*
X33544000Y-121412000D02*
X33274000Y-121682000D01*
X33274000Y-121682000D02*
X33274000Y-122174000D01*
X33274000Y-134874000D02*
X33528000Y-135128000D01*
X33528000Y-135128000D02*
X34544000Y-135128000D01*
X33274000Y-107442000D02*
X33274000Y-108204000D01*
X33274000Y-108204000D02*
X33274000Y-121158000D01*
X34544000Y-107696000D02*
X33544000Y-107696000D01*
X33544000Y-107696000D02*
X33274000Y-107966000D01*
X33274000Y-107966000D02*
X33274000Y-108204000D01*
X33274000Y-121158000D02*
X33528000Y-121412000D01*
X33528000Y-121412000D02*
X34544000Y-121412000D01*
X33274000Y-93726000D02*
X33274000Y-94488000D01*
X33274000Y-94488000D02*
X33274000Y-107442000D01*
X33274000Y-94250000D02*
X33274000Y-94488000D01*
X34544000Y-93980000D02*
X33544000Y-93980000D01*
X33544000Y-93980000D02*
X33274000Y-94250000D01*
X33274000Y-107442000D02*
X33528000Y-107696000D01*
X33528000Y-107696000D02*
X34544000Y-107696000D01*
X33274000Y-80010000D02*
X33274000Y-80772000D01*
X33274000Y-80772000D02*
X33274000Y-93726000D01*
X34544000Y-80264000D02*
X33544000Y-80264000D01*
X33274000Y-80534000D02*
X33274000Y-80772000D01*
X33544000Y-80264000D02*
X33274000Y-80534000D01*
X33274000Y-93726000D02*
X33528000Y-93980000D01*
X33528000Y-93980000D02*
X34544000Y-93980000D01*
X33274000Y-66294000D02*
X33274000Y-67310000D01*
X33274000Y-67310000D02*
X33274000Y-80010000D01*
X34544000Y-66548000D02*
X33544000Y-66548000D01*
X33544000Y-66548000D02*
X33274000Y-66818000D01*
X33274000Y-66818000D02*
X33274000Y-67310000D01*
X33274000Y-80010000D02*
X33528000Y-80264000D01*
X33528000Y-80264000D02*
X34544000Y-80264000D01*
X33274000Y-53102000D02*
X33274000Y-66294000D01*
X33274000Y-66294000D02*
X33528000Y-66548000D01*
X33528000Y-66548000D02*
X34544000Y-66548000D01*
X33274000Y-52578000D02*
X33274000Y-53102000D01*
X34544000Y-52832000D02*
X33544000Y-52832000D01*
X33544000Y-52832000D02*
X33274000Y-53102000D01*
X34544000Y-52832000D02*
X33528000Y-52832000D01*
X34544000Y-39116000D02*
X33528000Y-39116000D01*
X33528000Y-39116000D02*
X33274000Y-39370000D01*
X33274000Y-39370000D02*
X33274000Y-52578000D01*
X33274000Y-52578000D02*
X33528000Y-52832000D01*
X47498000Y-135382000D02*
X47498000Y-144526000D01*
X47498000Y-144526000D02*
X46228000Y-145796000D01*
X44258000Y-146750000D02*
X44258000Y-154686000D01*
X46228000Y-145796000D02*
X45212000Y-145796000D01*
X45212000Y-145796000D02*
X44258000Y-146750000D01*
X47498000Y-134874000D02*
X47498000Y-135382000D01*
X48768000Y-135128000D02*
X47768000Y-135128000D01*
X47768000Y-135128000D02*
X47514000Y-135382000D01*
X47514000Y-135382000D02*
X47498000Y-135382000D01*
X47498000Y-121158000D02*
X47498000Y-122174000D01*
X47498000Y-122174000D02*
X47498000Y-134874000D01*
X48768000Y-121412000D02*
X47768000Y-121412000D01*
X47768000Y-121412000D02*
X47498000Y-121682000D01*
X47498000Y-121682000D02*
X47498000Y-122174000D01*
X47498000Y-134874000D02*
X47752000Y-135128000D01*
X47752000Y-135128000D02*
X48768000Y-135128000D01*
X47498000Y-107442000D02*
X47498000Y-108458000D01*
X47498000Y-108458000D02*
X47498000Y-121158000D01*
X48768000Y-107696000D02*
X47768000Y-107696000D01*
X47768000Y-107696000D02*
X47498000Y-107966000D01*
X47498000Y-107966000D02*
X47498000Y-108458000D01*
X47498000Y-121158000D02*
X47752000Y-121412000D01*
X47752000Y-121412000D02*
X48768000Y-121412000D01*
X47498000Y-93726000D02*
X47498000Y-94234000D01*
X47498000Y-94234000D02*
X47498000Y-107442000D01*
X48768000Y-93980000D02*
X47752000Y-93980000D01*
X47752000Y-93980000D02*
X47498000Y-94234000D01*
X47498000Y-107442000D02*
X47752000Y-107696000D01*
X47752000Y-107696000D02*
X48768000Y-107696000D01*
X47498000Y-80010000D02*
X47498000Y-81026000D01*
X47498000Y-81026000D02*
X47498000Y-93726000D01*
X48768000Y-80264000D02*
X47768000Y-80264000D01*
X47768000Y-80264000D02*
X47498000Y-80534000D01*
X47498000Y-80534000D02*
X47498000Y-81026000D01*
X47498000Y-93726000D02*
X47752000Y-93980000D01*
X47498000Y-66294000D02*
X47498000Y-67310000D01*
X47498000Y-67310000D02*
X47498000Y-80010000D01*
X48768000Y-66548000D02*
X47768000Y-66548000D01*
X47768000Y-66548000D02*
X47498000Y-66818000D01*
X47498000Y-66818000D02*
X47498000Y-67310000D01*
X47498000Y-80010000D02*
X47752000Y-80264000D01*
X47752000Y-80264000D02*
X48768000Y-80264000D01*
X47498000Y-53102000D02*
X47498000Y-66294000D01*
X47498000Y-66294000D02*
X47752000Y-66548000D01*
X47752000Y-66548000D02*
X48768000Y-66548000D01*
X47498000Y-52578000D02*
X47498000Y-53102000D01*
X48768000Y-52832000D02*
X47768000Y-52832000D01*
X47768000Y-52832000D02*
X47498000Y-53102000D01*
X47752000Y-52832000D02*
X48768000Y-52832000D01*
X47498000Y-52578000D02*
X47752000Y-52832000D01*
X47498000Y-39370000D02*
X47498000Y-52578000D01*
X47752000Y-39116000D02*
X47498000Y-39370000D01*
X48768000Y-39116000D02*
X47752000Y-39116000D01*
X61722000Y-134874000D02*
X61722000Y-136144000D01*
X61722000Y-136144000D02*
X61722000Y-144526000D01*
X62992000Y-135128000D02*
X61992000Y-135128000D01*
X61992000Y-135128000D02*
X61722000Y-135398000D01*
X61722000Y-135398000D02*
X61722000Y-136144000D01*
X61722000Y-144526000D02*
X59944000Y-146304000D01*
X59944000Y-146304000D02*
X49276000Y-146304000D01*
X49276000Y-146304000D02*
X48258000Y-147322000D01*
X48258000Y-147322000D02*
X48258000Y-154686000D01*
X61722000Y-121158000D02*
X61722000Y-121920000D01*
X61722000Y-121920000D02*
X61722000Y-134874000D01*
X62992000Y-121412000D02*
X61992000Y-121412000D01*
X61992000Y-121412000D02*
X61722000Y-121682000D01*
X61722000Y-121682000D02*
X61722000Y-121920000D01*
X61722000Y-134874000D02*
X61976000Y-135128000D01*
X61976000Y-135128000D02*
X62992000Y-135128000D01*
X61722000Y-107442000D02*
X61722000Y-108458000D01*
X61722000Y-108458000D02*
X61722000Y-121158000D01*
X62992000Y-107696000D02*
X61992000Y-107696000D01*
X61992000Y-107696000D02*
X61722000Y-107966000D01*
X61722000Y-107966000D02*
X61722000Y-108458000D01*
X61722000Y-121158000D02*
X61976000Y-121412000D01*
X61976000Y-121412000D02*
X62992000Y-121412000D01*
X61722000Y-93726000D02*
X61722000Y-94742000D01*
X61722000Y-94742000D02*
X61722000Y-107442000D01*
X62992000Y-93980000D02*
X61992000Y-93980000D01*
X61992000Y-93980000D02*
X61722000Y-94250000D01*
X61722000Y-94250000D02*
X61722000Y-94742000D01*
X61722000Y-107442000D02*
X61976000Y-107696000D01*
X61976000Y-107696000D02*
X62992000Y-107696000D01*
X61722000Y-80010000D02*
X61722000Y-80772000D01*
X61722000Y-80772000D02*
X61722000Y-93726000D01*
X62992000Y-80264000D02*
X61992000Y-80264000D01*
X61992000Y-80264000D02*
X61722000Y-80534000D01*
X61722000Y-80534000D02*
X61722000Y-80772000D01*
X61722000Y-93726000D02*
X61976000Y-93980000D01*
X61976000Y-93980000D02*
X62992000Y-93980000D01*
X61722000Y-66294000D02*
X61722000Y-67310000D01*
X61722000Y-67310000D02*
X61722000Y-80010000D01*
X62992000Y-66548000D02*
X61992000Y-66548000D01*
X61992000Y-66548000D02*
X61722000Y-66818000D01*
X61722000Y-66818000D02*
X61722000Y-67310000D01*
X61722000Y-80010000D02*
X61976000Y-80264000D01*
X61976000Y-80264000D02*
X62992000Y-80264000D01*
X61722000Y-52578000D02*
X61722000Y-53340000D01*
X61992000Y-52832000D02*
X61722000Y-53102000D01*
X61722000Y-53340000D02*
X61722000Y-66294000D01*
X62992000Y-52832000D02*
X61992000Y-52832000D01*
X61722000Y-53102000D02*
X61722000Y-53340000D01*
X61722000Y-66294000D02*
X61976000Y-66548000D01*
X61976000Y-66548000D02*
X62992000Y-66548000D01*
X61976000Y-52832000D02*
X62992000Y-52832000D01*
X61722000Y-52578000D02*
X61976000Y-52832000D01*
X61722000Y-39370000D02*
X61722000Y-52578000D01*
X61976000Y-39116000D02*
X61722000Y-39370000D01*
X62992000Y-39116000D02*
X61976000Y-39116000D01*
X75946000Y-134874000D02*
X75946000Y-136144000D01*
X75946000Y-136144000D02*
X75946000Y-144018000D01*
X75946000Y-135398000D02*
X75946000Y-136144000D01*
X77216000Y-135128000D02*
X76216000Y-135128000D01*
X76216000Y-135128000D02*
X75946000Y-135398000D01*
X53340000Y-146812000D02*
X52258000Y-147894000D01*
X52258000Y-147894000D02*
X52258000Y-154686000D01*
X73152000Y-146812000D02*
X53340000Y-146812000D01*
X75946000Y-144018000D02*
X73152000Y-146812000D01*
X75946000Y-121158000D02*
X75946000Y-121920000D01*
X75946000Y-121920000D02*
X75946000Y-134874000D01*
X77216000Y-121412000D02*
X76216000Y-121412000D01*
X76216000Y-121412000D02*
X75946000Y-121682000D01*
X75946000Y-121682000D02*
X75946000Y-121920000D01*
X75946000Y-134874000D02*
X76200000Y-135128000D01*
X76200000Y-135128000D02*
X77216000Y-135128000D01*
X75946000Y-107442000D02*
X75946000Y-108712000D01*
X75946000Y-108712000D02*
X75946000Y-121158000D01*
X77216000Y-107696000D02*
X76216000Y-107696000D01*
X76216000Y-107696000D02*
X75946000Y-107966000D01*
X75946000Y-107966000D02*
X75946000Y-108712000D01*
X75946000Y-121158000D02*
X76200000Y-121412000D01*
X76200000Y-121412000D02*
X77216000Y-121412000D01*
X75946000Y-93726000D02*
X75946000Y-94742000D01*
X76216000Y-93980000D02*
X75946000Y-94250000D01*
X75946000Y-94742000D02*
X75946000Y-107442000D01*
X77216000Y-93980000D02*
X76216000Y-93980000D01*
X75946000Y-94250000D02*
X75946000Y-94742000D01*
X75946000Y-107442000D02*
X76200000Y-107696000D01*
X76200000Y-107696000D02*
X77216000Y-107696000D01*
X75946000Y-80010000D02*
X75946000Y-81026000D01*
X75946000Y-80534000D02*
X75946000Y-81026000D01*
X75946000Y-81026000D02*
X75946000Y-93726000D01*
X77216000Y-80264000D02*
X76216000Y-80264000D01*
X76216000Y-80264000D02*
X75946000Y-80534000D01*
X75946000Y-93726000D02*
X76200000Y-93980000D01*
X76200000Y-93980000D02*
X77216000Y-93980000D01*
X75946000Y-66278000D02*
X75946000Y-67056000D01*
X75946000Y-67056000D02*
X75946000Y-80010000D01*
X77216000Y-66548000D02*
X76216000Y-66548000D01*
X76216000Y-66548000D02*
X75946000Y-66818000D01*
X75946000Y-66818000D02*
X75946000Y-67056000D01*
X75946000Y-80010000D02*
X76200000Y-80264000D01*
X76200000Y-80264000D02*
X77216000Y-80264000D01*
X75946000Y-52578000D02*
X75946000Y-54102000D01*
X75946000Y-54102000D02*
X75946000Y-66040000D01*
X77216000Y-52832000D02*
X76216000Y-52832000D01*
X76216000Y-52832000D02*
X75946000Y-53102000D01*
X75946000Y-53102000D02*
X75946000Y-54102000D01*
X75946000Y-66278000D02*
X75946000Y-66040000D01*
X76216000Y-66548000D02*
X75946000Y-66278000D01*
X77216000Y-52832000D02*
X76200000Y-52832000D01*
X76200000Y-52832000D02*
X75946000Y-52578000D01*
X75946000Y-52578000D02*
X75946000Y-39370000D01*
X75946000Y-39370000D02*
X76200000Y-39116000D01*
X76200000Y-39116000D02*
X77216000Y-39116000D01*
X90170000Y-134874000D02*
X90170000Y-135382000D01*
X90170000Y-135382000D02*
X90170000Y-144018000D01*
X91440000Y-135128000D02*
X90424000Y-135128000D01*
X90424000Y-135128000D02*
X90170000Y-135382000D01*
X57150000Y-147320000D02*
X56258000Y-148212000D01*
X56258000Y-148212000D02*
X56258000Y-154686000D01*
X86868000Y-147320000D02*
X57150000Y-147320000D01*
X90170000Y-144018000D02*
X86868000Y-147320000D01*
X90170000Y-121158000D02*
X90170000Y-122428000D01*
X90170000Y-122428000D02*
X90170000Y-134874000D01*
X91440000Y-121412000D02*
X90440000Y-121412000D01*
X90440000Y-121412000D02*
X90170000Y-121682000D01*
X90170000Y-121682000D02*
X90170000Y-122428000D01*
X90170000Y-134874000D02*
X90424000Y-135128000D01*
X90170000Y-107442000D02*
X90170000Y-108458000D01*
X90170000Y-108458000D02*
X90170000Y-121158000D01*
X91440000Y-107696000D02*
X90440000Y-107696000D01*
X90440000Y-107696000D02*
X90170000Y-107966000D01*
X90170000Y-107966000D02*
X90170000Y-108458000D01*
X90170000Y-121158000D02*
X90424000Y-121412000D01*
X90424000Y-121412000D02*
X91440000Y-121412000D01*
X90170000Y-93726000D02*
X90170000Y-94742000D01*
X90170000Y-94742000D02*
X90170000Y-107442000D01*
X91440000Y-93980000D02*
X90440000Y-93980000D01*
X90440000Y-93980000D02*
X90170000Y-94250000D01*
X90170000Y-94250000D02*
X90170000Y-94742000D01*
X90170000Y-107442000D02*
X90424000Y-107696000D01*
X90424000Y-107696000D02*
X91440000Y-107696000D01*
X90170000Y-80010000D02*
X90170000Y-80518000D01*
X90440000Y-80264000D02*
X90186000Y-80518000D01*
X90170000Y-80518000D02*
X90170000Y-93726000D01*
X91440000Y-80264000D02*
X90440000Y-80264000D01*
X90186000Y-80518000D02*
X90170000Y-80518000D01*
X90170000Y-93726000D02*
X90424000Y-93980000D01*
X90424000Y-93980000D02*
X91440000Y-93980000D01*
X91440000Y-66548000D02*
X90440000Y-66548000D01*
X90440000Y-66548000D02*
X90170000Y-66818000D01*
X90170000Y-66294000D02*
X90170000Y-80010000D01*
X90170000Y-80010000D02*
X90424000Y-80264000D01*
X90424000Y-80264000D02*
X91440000Y-80264000D01*
X90170000Y-66294000D02*
X90424000Y-66548000D01*
X90424000Y-66548000D02*
X91440000Y-66548000D01*
X90170000Y-52578000D02*
X90170000Y-66294000D01*
X90424000Y-39116000D02*
X91440000Y-39116000D01*
X90170000Y-39370000D02*
X90424000Y-39116000D01*
X90170000Y-52578000D02*
X90170000Y-39370000D01*
X90424000Y-52832000D02*
X90170000Y-52578000D01*
X91440000Y-52832000D02*
X90424000Y-52832000D01*
X61214000Y-147828000D02*
X60258000Y-148784000D01*
X60258000Y-148784000D02*
X60258000Y-154686000D01*
X96774000Y-147828000D02*
X61214000Y-147828000D01*
X104394000Y-134874000D02*
X104394000Y-135636000D01*
X104394000Y-135636000D02*
X104394000Y-141986000D01*
X105664000Y-135128000D02*
X104664000Y-135128000D01*
X104664000Y-135128000D02*
X104394000Y-135398000D01*
X104394000Y-135398000D02*
X104394000Y-135636000D01*
X100330000Y-144272000D02*
X96774000Y-147828000D01*
X102108000Y-144272000D02*
X100330000Y-144272000D01*
X104394000Y-141986000D02*
X102108000Y-144272000D01*
X104394000Y-121158000D02*
X104394000Y-121920000D01*
X104394000Y-121920000D02*
X104394000Y-134874000D01*
X105664000Y-121412000D02*
X104664000Y-121412000D01*
X104664000Y-121412000D02*
X104394000Y-121682000D01*
X104394000Y-121682000D02*
X104394000Y-121920000D01*
X104394000Y-134874000D02*
X104648000Y-135128000D01*
X104648000Y-135128000D02*
X105664000Y-135128000D01*
X104394000Y-107442000D02*
X104394000Y-108458000D01*
X104394000Y-107966000D02*
X104394000Y-108458000D01*
X104394000Y-108458000D02*
X104394000Y-121158000D01*
X105664000Y-107696000D02*
X104664000Y-107696000D01*
X104664000Y-107696000D02*
X104394000Y-107966000D01*
X104394000Y-121158000D02*
X104648000Y-121412000D01*
X104648000Y-121412000D02*
X105664000Y-121412000D01*
X104394000Y-93726000D02*
X104394000Y-94488000D01*
X104394000Y-94488000D02*
X104394000Y-107442000D01*
X105664000Y-93980000D02*
X104664000Y-93980000D01*
X104664000Y-93980000D02*
X104394000Y-94250000D01*
X104394000Y-94250000D02*
X104394000Y-94488000D01*
X104394000Y-107442000D02*
X104648000Y-107696000D01*
X104648000Y-107696000D02*
X105664000Y-107696000D01*
X104394000Y-80010000D02*
X104394000Y-81026000D01*
X104394000Y-81026000D02*
X104394000Y-93726000D01*
X104394000Y-80534000D02*
X104394000Y-81026000D01*
X105664000Y-80264000D02*
X104664000Y-80264000D01*
X104664000Y-80264000D02*
X104394000Y-80534000D01*
X104394000Y-93726000D02*
X104648000Y-93980000D01*
X104648000Y-93980000D02*
X105664000Y-93980000D01*
X104394000Y-66294000D02*
X104394000Y-67564000D01*
X104394000Y-67564000D02*
X104394000Y-80010000D01*
X105664000Y-66548000D02*
X104664000Y-66548000D01*
X104394000Y-66818000D02*
X104394000Y-67564000D01*
X104664000Y-66548000D02*
X104394000Y-66818000D01*
X104394000Y-80010000D02*
X104648000Y-80264000D01*
X104648000Y-80264000D02*
X105664000Y-80264000D01*
X104394000Y-52578000D02*
X104394000Y-53848000D01*
X104394000Y-53102000D02*
X104394000Y-53848000D01*
X104394000Y-53848000D02*
X104394000Y-66294000D01*
X105664000Y-52832000D02*
X104664000Y-52832000D01*
X104664000Y-52832000D02*
X104394000Y-53102000D01*
X104394000Y-66294000D02*
X104648000Y-66548000D01*
X104648000Y-66548000D02*
X105664000Y-66548000D01*
X104648000Y-39116000D02*
X105664000Y-39116000D01*
X104394000Y-39370000D02*
X104648000Y-39116000D01*
X104394000Y-52578000D02*
X104394000Y-39370000D01*
X104648000Y-52832000D02*
X104394000Y-52578000D01*
X105664000Y-52832000D02*
X104648000Y-52832000D01*
X118618000Y-134874000D02*
X118618000Y-135890000D01*
X118618000Y-135890000D02*
X118618000Y-144272000D01*
X119888000Y-135128000D02*
X118888000Y-135128000D01*
X118888000Y-135128000D02*
X118618000Y-135398000D01*
X118618000Y-135398000D02*
X118618000Y-135890000D01*
X65024000Y-148336000D02*
X64258000Y-149102000D01*
X118618000Y-144272000D02*
X118110000Y-144780000D01*
X118110000Y-144780000D02*
X103795002Y-144780000D01*
X103795002Y-144780000D02*
X103287002Y-145288000D01*
X103287002Y-145288000D02*
X100330000Y-145288000D01*
X100330000Y-145288000D02*
X97282000Y-148336000D01*
X97282000Y-148336000D02*
X65024000Y-148336000D01*
X64258000Y-149102000D02*
X64258000Y-154686000D01*
X118618000Y-121158000D02*
X118618000Y-122174000D01*
X118618000Y-122174000D02*
X118618000Y-134874000D01*
X119888000Y-121412000D02*
X118888000Y-121412000D01*
X118888000Y-121412000D02*
X118618000Y-121682000D01*
X118618000Y-121682000D02*
X118618000Y-122174000D01*
X118618000Y-134874000D02*
X118872000Y-135128000D01*
X118872000Y-135128000D02*
X119888000Y-135128000D01*
X118618000Y-107442000D02*
X118618000Y-108458000D01*
X118888000Y-107696000D02*
X118618000Y-107966000D01*
X118618000Y-108458000D02*
X118618000Y-121158000D01*
X119888000Y-107696000D02*
X118888000Y-107696000D01*
X118618000Y-107966000D02*
X118618000Y-108458000D01*
X118618000Y-121158000D02*
X118872000Y-121412000D01*
X118872000Y-121412000D02*
X119888000Y-121412000D01*
X118618000Y-93726000D02*
X118618000Y-94742000D01*
X118618000Y-94742000D02*
X118618000Y-107442000D01*
X119888000Y-93980000D02*
X118888000Y-93980000D01*
X118888000Y-93980000D02*
X118618000Y-94250000D01*
X118618000Y-94250000D02*
X118618000Y-94742000D01*
X118618000Y-107442000D02*
X118872000Y-107696000D01*
X118872000Y-107696000D02*
X119888000Y-107696000D01*
X118618000Y-66294000D02*
X118618000Y-67056000D01*
X118618000Y-67056000D02*
X118618000Y-79248000D01*
X119888000Y-66548000D02*
X118888000Y-66548000D01*
X118888000Y-66548000D02*
X118618000Y-66818000D01*
X118618000Y-66818000D02*
X118618000Y-67056000D01*
X118618000Y-79248000D02*
X118618000Y-80518000D01*
X119888000Y-80264000D02*
X118888000Y-80264000D01*
X118888000Y-80264000D02*
X118618000Y-79994000D01*
X118618000Y-79994000D02*
X118618000Y-79248000D01*
X118634000Y-80518000D02*
X118618000Y-80518000D01*
X118618000Y-80518000D02*
X118618000Y-93726000D01*
X118888000Y-80264000D02*
X118634000Y-80518000D01*
X118618000Y-93726000D02*
X118872000Y-93980000D01*
X118872000Y-93980000D02*
X119888000Y-93980000D01*
X118618000Y-52578000D02*
X118618000Y-53340000D01*
X118618000Y-53340000D02*
X118618000Y-66294000D01*
X119888000Y-52832000D02*
X118888000Y-52832000D01*
X118888000Y-52832000D02*
X118618000Y-53102000D01*
X118618000Y-53102000D02*
X118618000Y-53340000D01*
X118618000Y-66294000D02*
X118872000Y-66548000D01*
X118872000Y-66548000D02*
X119888000Y-66548000D01*
X118618000Y-39370000D02*
X118872000Y-39116000D01*
X118872000Y-39116000D02*
X119888000Y-39116000D01*
X118618000Y-52578000D02*
X118618000Y-39370000D01*
X118872000Y-52832000D02*
X118618000Y-52578000D01*
X119888000Y-52832000D02*
X118872000Y-52832000D01*
X132842000Y-134874000D02*
X132842000Y-135382000D01*
X132842000Y-135382000D02*
X132842000Y-142748000D01*
X133112000Y-135128000D02*
X132858000Y-135382000D01*
X134112000Y-135128000D02*
X133112000Y-135128000D01*
X132858000Y-135382000D02*
X132842000Y-135382000D01*
X132842000Y-142748000D02*
X131318000Y-144272000D01*
X131318000Y-144272000D02*
X126492000Y-144272000D01*
X104902000Y-145796000D02*
X103886000Y-146812000D01*
X126492000Y-144272000D02*
X124968000Y-145796000D01*
X124968000Y-145796000D02*
X104902000Y-145796000D01*
X98044000Y-148844000D02*
X69088000Y-148844000D01*
X103886000Y-146812000D02*
X103124000Y-146812000D01*
X68258000Y-149674000D02*
X68258000Y-154686000D01*
X103124000Y-146812000D02*
X102108000Y-145796000D01*
X102108000Y-145796000D02*
X101092000Y-145796000D01*
X101092000Y-145796000D02*
X98044000Y-148844000D01*
X69088000Y-148844000D02*
X68258000Y-149674000D01*
X132842000Y-121158000D02*
X132842000Y-122174000D01*
X132842000Y-122174000D02*
X132842000Y-134874000D01*
X134112000Y-121412000D02*
X133112000Y-121412000D01*
X133112000Y-121412000D02*
X132842000Y-121682000D01*
X132842000Y-121682000D02*
X132842000Y-122174000D01*
X132842000Y-134874000D02*
X133096000Y-135128000D01*
X133096000Y-135128000D02*
X134112000Y-135128000D01*
X132842000Y-107442000D02*
X132842000Y-108204000D01*
X132842000Y-108204000D02*
X132842000Y-121158000D01*
X134112000Y-107696000D02*
X133112000Y-107696000D01*
X133112000Y-107696000D02*
X132842000Y-107966000D01*
X132842000Y-107966000D02*
X132842000Y-108204000D01*
X132842000Y-121158000D02*
X133096000Y-121412000D01*
X133096000Y-121412000D02*
X134112000Y-121412000D01*
X132842000Y-93726000D02*
X132842000Y-94742000D01*
X132842000Y-94742000D02*
X132842000Y-107442000D01*
X132842000Y-94250000D02*
X132842000Y-94742000D01*
X134112000Y-93980000D02*
X133112000Y-93980000D01*
X133112000Y-93980000D02*
X132842000Y-94250000D01*
X132842000Y-107442000D02*
X133096000Y-107696000D01*
X133096000Y-107696000D02*
X134112000Y-107696000D01*
X132842000Y-66294000D02*
X132842000Y-67056000D01*
X134112000Y-66548000D02*
X133112000Y-66548000D01*
X132842000Y-67056000D02*
X132842000Y-79248000D01*
X132842000Y-66818000D02*
X132842000Y-67056000D01*
X133112000Y-66548000D02*
X132842000Y-66818000D01*
X132842000Y-79248000D02*
X132842000Y-81026000D01*
X134112000Y-80264000D02*
X133112000Y-80264000D01*
X133112000Y-80264000D02*
X132842000Y-79994000D01*
X132842000Y-79994000D02*
X132842000Y-79248000D01*
X132842000Y-81026000D02*
X132842000Y-93726000D01*
X133112000Y-80264000D02*
X132842000Y-80534000D01*
X132842000Y-80534000D02*
X132842000Y-81026000D01*
X132842000Y-93726000D02*
X133096000Y-93980000D01*
X133096000Y-93980000D02*
X134112000Y-93980000D01*
X132842000Y-52578000D02*
X132842000Y-53594000D01*
X132842000Y-53594000D02*
X132842000Y-66294000D01*
X134112000Y-52832000D02*
X133112000Y-52832000D01*
X133112000Y-52832000D02*
X132842000Y-53102000D01*
X132842000Y-53102000D02*
X132842000Y-53594000D01*
X132842000Y-66294000D02*
X133096000Y-66548000D01*
X133096000Y-66548000D02*
X134112000Y-66548000D01*
X134112000Y-52832000D02*
X133096000Y-52832000D01*
X132842000Y-52578000D02*
X132842000Y-39370000D01*
X132842000Y-39370000D02*
X133096000Y-39116000D01*
X133096000Y-52832000D02*
X132842000Y-52578000D01*
X133096000Y-39116000D02*
X134112000Y-39116000D01*
X109982000Y-148844000D02*
X109474000Y-149352000D01*
X72898000Y-149352000D02*
X72258000Y-149992000D01*
X72258000Y-149992000D02*
X72258000Y-154686000D01*
X109474000Y-149352000D02*
X102870000Y-149352000D01*
X98806000Y-149352000D02*
X72898000Y-149352000D01*
X102870000Y-149352000D02*
X101854000Y-148336000D01*
X101854000Y-148336000D02*
X99822000Y-148336000D01*
X99822000Y-148336000D02*
X98806000Y-149352000D01*
X101600000Y-149098000D02*
X99822000Y-149098000D01*
X99822000Y-149098000D02*
X99060000Y-149860000D01*
X99060000Y-149860000D02*
X76708000Y-149860000D01*
X76708000Y-149860000D02*
X76258000Y-150310000D01*
X76258000Y-150310000D02*
X76258000Y-154686000D01*
X34544000Y-44704000D02*
X34544000Y-41656000D01*
X34544000Y-45974000D02*
X36322000Y-45974000D01*
X36322000Y-45974000D02*
X37592000Y-44704000D01*
X37592000Y-44704000D02*
X39370000Y-44704000D01*
X39370000Y-41656000D02*
X39370000Y-44704000D01*
X48768000Y-41656000D02*
X48768000Y-44704000D01*
X51816000Y-44704000D02*
X53594000Y-44704000D01*
X50546000Y-45974000D02*
X51816000Y-44704000D01*
X48768000Y-45974000D02*
X50546000Y-45974000D01*
X53594000Y-41656000D02*
X53594000Y-44704000D01*
X62992000Y-41656000D02*
X62992000Y-42356000D01*
X62992000Y-42356000D02*
X62992000Y-44704000D01*
X67818000Y-41656000D02*
X67818000Y-42356000D01*
X67818000Y-42356000D02*
X67818000Y-44704000D01*
X62992000Y-45974000D02*
X64770000Y-45974000D01*
X64770000Y-45974000D02*
X66040000Y-44704000D01*
X66040000Y-44704000D02*
X67818000Y-44704000D01*
X77216000Y-41656000D02*
X77216000Y-42356000D01*
X77216000Y-42356000D02*
X77216000Y-44704000D01*
X82042000Y-41656000D02*
X82042000Y-42356000D01*
X82042000Y-42356000D02*
X82042000Y-44704000D01*
X78994000Y-45974000D02*
X80264000Y-44704000D01*
X80264000Y-44704000D02*
X82042000Y-44704000D01*
X77216000Y-45974000D02*
X78994000Y-45974000D01*
X91440000Y-41656000D02*
X91440000Y-44704000D01*
X96266000Y-41656000D02*
X96266000Y-44704000D01*
X93218000Y-45974000D02*
X94488000Y-44704000D01*
X94488000Y-44704000D02*
X96266000Y-44704000D01*
X91440000Y-45974000D02*
X93218000Y-45974000D01*
X105664000Y-41656000D02*
X105664000Y-44704000D01*
X110490000Y-41656000D02*
X110490000Y-44704000D01*
X107442000Y-45974000D02*
X108712000Y-44704000D01*
X108712000Y-44704000D02*
X110490000Y-44704000D01*
X105664000Y-45974000D02*
X107442000Y-45974000D01*
X119888000Y-41656000D02*
X119888000Y-42356000D01*
X119888000Y-42356000D02*
X119888000Y-44704000D01*
X124714000Y-41656000D02*
X124714000Y-42356000D01*
X124714000Y-42356000D02*
X124714000Y-44704000D01*
X121666000Y-45974000D02*
X122936000Y-44704000D01*
X122936000Y-44704000D02*
X124714000Y-44704000D01*
X119888000Y-45974000D02*
X121666000Y-45974000D01*
X134112000Y-41656000D02*
X134112000Y-44704000D01*
X138938000Y-41656000D02*
X138938000Y-44704000D01*
X135890000Y-45974000D02*
X137160000Y-44704000D01*
X137160000Y-44704000D02*
X138938000Y-44704000D01*
X134112000Y-45974000D02*
X135890000Y-45974000D01*
X144018000Y-145542000D02*
X143018000Y-145542000D01*
X143018000Y-145542000D02*
X142764000Y-145288000D01*
X142764000Y-145288000D02*
X128524000Y-145288000D01*
X128524000Y-145288000D02*
X128016000Y-145796000D01*
X128016000Y-145796000D02*
X128016000Y-147066000D01*
X144018000Y-145542000D02*
X146812000Y-145542000D01*
X148082000Y-144272000D02*
X148082000Y-127508000D01*
X146812000Y-145542000D02*
X148082000Y-144272000D01*
X148082000Y-100076000D02*
X148082000Y-127508000D01*
X148082000Y-72644000D02*
X148082000Y-100076000D01*
X148082000Y-45974000D02*
X148082000Y-72644000D01*
X148082000Y-45974000D02*
X148082000Y-45212000D01*
X151130000Y-60198000D02*
X149860000Y-60198000D01*
X149860000Y-60198000D02*
X149606000Y-59944000D01*
X149606000Y-59944000D02*
X149606000Y-52324000D01*
X149606000Y-52324000D02*
X149860000Y-52070000D01*
X149860000Y-52070000D02*
X151130000Y-52070000D01*
X151130000Y-46482000D02*
X151130000Y-47182000D01*
X151130000Y-47182000D02*
X151130000Y-52070000D01*
X34544000Y-55372000D02*
X34544000Y-56072000D01*
X34544000Y-56072000D02*
X34544000Y-58420000D01*
X36322000Y-59690000D02*
X37592000Y-58420000D01*
X37592000Y-58420000D02*
X39370000Y-58420000D01*
X34544000Y-59690000D02*
X36322000Y-59690000D01*
X39370000Y-55372000D02*
X39370000Y-58420000D01*
X48768000Y-55372000D02*
X48768000Y-56072000D01*
X48768000Y-56072000D02*
X48768000Y-58420000D01*
X48768000Y-59690000D02*
X50546000Y-59690000D01*
X50546000Y-59690000D02*
X51816000Y-58420000D01*
X51816000Y-58420000D02*
X53594000Y-58420000D01*
X53594000Y-55372000D02*
X53594000Y-58420000D01*
X62992000Y-55372000D02*
X62992000Y-56072000D01*
X62992000Y-56072000D02*
X62992000Y-58420000D01*
X64770000Y-59690000D02*
X66040000Y-58420000D01*
X66040000Y-58420000D02*
X67818000Y-58420000D01*
X62992000Y-59690000D02*
X64770000Y-59690000D01*
X67818000Y-55372000D02*
X67818000Y-58420000D01*
X77216000Y-55372000D02*
X77216000Y-58420000D01*
X78994000Y-59690000D02*
X80264000Y-58420000D01*
X80264000Y-58420000D02*
X82042000Y-58420000D01*
X77216000Y-59690000D02*
X78994000Y-59690000D01*
X82042000Y-55372000D02*
X82042000Y-56072000D01*
X82042000Y-56072000D02*
X82042000Y-58420000D01*
X91440000Y-55372000D02*
X91440000Y-58420000D01*
X93218000Y-59690000D02*
X94488000Y-58420000D01*
X94488000Y-58420000D02*
X96266000Y-58420000D01*
X91440000Y-59690000D02*
X93218000Y-59690000D01*
X96266000Y-55372000D02*
X96266000Y-56072000D01*
X96266000Y-56072000D02*
X96266000Y-58420000D01*
X105664000Y-55372000D02*
X105664000Y-58420000D01*
X107442000Y-59690000D02*
X108712000Y-58420000D01*
X108712000Y-58420000D02*
X110490000Y-58420000D01*
X105664000Y-59690000D02*
X107442000Y-59690000D01*
X110490000Y-55372000D02*
X110490000Y-58420000D01*
X119888000Y-55372000D02*
X119888000Y-58420000D01*
X119888000Y-59690000D02*
X121666000Y-59690000D01*
X121666000Y-59690000D02*
X122936000Y-58420000D01*
X122936000Y-58420000D02*
X124714000Y-58420000D01*
X124714000Y-55372000D02*
X124714000Y-58420000D01*
X134112000Y-55372000D02*
X134112000Y-58420000D01*
X135890000Y-59690000D02*
X137160000Y-58420000D01*
X137160000Y-58420000D02*
X138938000Y-58420000D01*
X134112000Y-59690000D02*
X135890000Y-59690000D01*
X138938000Y-55372000D02*
X138938000Y-56072000D01*
X138938000Y-56072000D02*
X138938000Y-58420000D01*
X34544000Y-69088000D02*
X34544000Y-72136000D01*
X36322000Y-73406000D02*
X37592000Y-72136000D01*
X37592000Y-72136000D02*
X39370000Y-72136000D01*
X34544000Y-73406000D02*
X36322000Y-73406000D01*
X39370000Y-69088000D02*
X39370000Y-69788000D01*
X39370000Y-69788000D02*
X39370000Y-72136000D01*
X48768000Y-69088000D02*
X48768000Y-69788000D01*
X48768000Y-69788000D02*
X48768000Y-72136000D01*
X50546000Y-73406000D02*
X51816000Y-72136000D01*
X51816000Y-72136000D02*
X53594000Y-72136000D01*
X48768000Y-73406000D02*
X50546000Y-73406000D01*
X53594000Y-69088000D02*
X53594000Y-72136000D01*
X62992000Y-69088000D02*
X62992000Y-69788000D01*
X62992000Y-69788000D02*
X62992000Y-72136000D01*
X62992000Y-73406000D02*
X64770000Y-73406000D01*
X64770000Y-73406000D02*
X66040000Y-72136000D01*
X66040000Y-72136000D02*
X67818000Y-72136000D01*
X67818000Y-69088000D02*
X67818000Y-69788000D01*
X67818000Y-69788000D02*
X67818000Y-72136000D01*
X77216000Y-69088000D02*
X77216000Y-72009971D01*
X77216000Y-72009971D02*
X77216000Y-72136000D01*
X78994000Y-73406000D02*
X80264000Y-72136000D01*
X80264000Y-72136000D02*
X82042000Y-72136000D01*
X77216000Y-73406000D02*
X78994000Y-73406000D01*
X82042000Y-69088000D02*
X82042000Y-72136000D01*
X91440000Y-69088000D02*
X91440000Y-72136000D01*
X93218000Y-73406000D02*
X94488000Y-72136000D01*
X94488000Y-72136000D02*
X96266000Y-72136000D01*
X91440000Y-73406000D02*
X93218000Y-73406000D01*
X96266000Y-69088000D02*
X96266000Y-72136000D01*
X105664000Y-69088000D02*
X105664000Y-69788000D01*
X105664000Y-69788000D02*
X105664000Y-72136000D01*
X107442000Y-73406000D02*
X108712000Y-72136000D01*
X108712000Y-72136000D02*
X110490000Y-72136000D01*
X105664000Y-73406000D02*
X107442000Y-73406000D01*
X110490000Y-69088000D02*
X110490000Y-69788000D01*
X110490000Y-69788000D02*
X110490000Y-72136000D01*
X119888000Y-69088000D02*
X119888000Y-72136000D01*
X119888000Y-73406000D02*
X121666000Y-73406000D01*
X121666000Y-73406000D02*
X122936000Y-72136000D01*
X122936000Y-72136000D02*
X124714000Y-72136000D01*
X124714000Y-69088000D02*
X124714000Y-69788000D01*
X124714000Y-69788000D02*
X124714000Y-72136000D01*
X134112000Y-69088000D02*
X134112000Y-69788000D01*
X134112000Y-69788000D02*
X134112000Y-72136000D01*
X135890000Y-73406000D02*
X137160000Y-72136000D01*
X137160000Y-72136000D02*
X138938000Y-72136000D01*
X134112000Y-73406000D02*
X135890000Y-73406000D01*
X138938000Y-69088000D02*
X138938000Y-72136000D01*
X150114000Y-145542000D02*
X148336000Y-145542000D01*
X148336000Y-145542000D02*
X145542000Y-148336000D01*
X145542000Y-148336000D02*
X145542000Y-148844000D01*
X145542000Y-148844000D02*
X145288000Y-149098000D01*
X131318000Y-145796000D02*
X130048000Y-147066000D01*
X145288000Y-149098000D02*
X139954000Y-149098000D01*
X139954000Y-149098000D02*
X136652000Y-145796000D01*
X136652000Y-145796000D02*
X131318000Y-145796000D01*
X152654000Y-144272000D02*
X151384000Y-145542000D01*
X151384000Y-145542000D02*
X150114000Y-145542000D01*
X152654000Y-53340000D02*
X152654000Y-108204000D01*
X152654000Y-108204000D02*
X152654000Y-144272000D01*
X154178000Y-54610000D02*
X154178000Y-81788000D01*
X154178000Y-149606000D02*
X154178000Y-144272000D01*
X154178000Y-144272000D02*
X154178000Y-81788000D01*
X151130000Y-79248000D02*
X149860000Y-79248000D01*
X149606000Y-87122000D02*
X149860000Y-87376000D01*
X149860000Y-79248000D02*
X149606000Y-79502000D01*
X149606000Y-79502000D02*
X149606000Y-87122000D01*
X149860000Y-87376000D02*
X151130000Y-87376000D01*
X151130000Y-73914000D02*
X151130000Y-79248000D01*
X34544000Y-82804000D02*
X34544000Y-85852000D01*
X34544000Y-87122000D02*
X36322000Y-87122000D01*
X36322000Y-87122000D02*
X37592000Y-85852000D01*
X37592000Y-85852000D02*
X39370000Y-85852000D01*
X39370000Y-82804000D02*
X39370000Y-83504000D01*
X39370000Y-83504000D02*
X39370000Y-85852000D01*
X48768000Y-82804000D02*
X48768000Y-83504000D01*
X48768000Y-83504000D02*
X48768000Y-85852000D01*
X53594000Y-82804000D02*
X53594000Y-83504000D01*
X53594000Y-83504000D02*
X53594000Y-85852000D01*
X50546000Y-87122000D02*
X51816000Y-85852000D01*
X51816000Y-85852000D02*
X53594000Y-85852000D01*
X48768000Y-87122000D02*
X50546000Y-87122000D01*
X62992000Y-82804000D02*
X62992000Y-83504000D01*
X62992000Y-83504000D02*
X62992000Y-85852000D01*
X64770000Y-87122000D02*
X66040000Y-85852000D01*
X66040000Y-85852000D02*
X67818000Y-85852000D01*
X62992000Y-87122000D02*
X64770000Y-87122000D01*
X67818000Y-82804000D02*
X67818000Y-85852000D01*
X77216000Y-82804000D02*
X77216000Y-83504000D01*
X77216000Y-83504000D02*
X77216000Y-85852000D01*
X77216000Y-87122000D02*
X78994000Y-87122000D01*
X80264000Y-85852000D02*
X82042000Y-85852000D01*
X78994000Y-87122000D02*
X80264000Y-85852000D01*
X82042000Y-82804000D02*
X82042000Y-85852000D01*
X91440000Y-82804000D02*
X91440000Y-85852000D01*
X93218000Y-87122000D02*
X94488000Y-85852000D01*
X94488000Y-85852000D02*
X96266000Y-85852000D01*
X91440000Y-87122000D02*
X93218000Y-87122000D01*
X96266000Y-82804000D02*
X96266000Y-85852000D01*
X105664000Y-82804000D02*
X105664000Y-83504000D01*
X105664000Y-83504000D02*
X105664000Y-85852000D01*
X110490000Y-82804000D02*
X110490000Y-85852000D01*
X105664000Y-87122000D02*
X107442000Y-87122000D01*
X108712000Y-85852000D02*
X110490000Y-85852000D01*
X107442000Y-87122000D02*
X108712000Y-85852000D01*
X119888000Y-82804000D02*
X119888000Y-85852000D01*
X121666000Y-87122000D02*
X122936000Y-85852000D01*
X122936000Y-85852000D02*
X124714000Y-85852000D01*
X119888000Y-87122000D02*
X121666000Y-87122000D01*
X124714000Y-82804000D02*
X124714000Y-85852000D01*
X134112000Y-82804000D02*
X134112000Y-85852000D01*
X138938000Y-82804000D02*
X138938000Y-85852000D01*
X135890000Y-87122000D02*
X137160000Y-85852000D01*
X137160000Y-85852000D02*
X138938000Y-85852000D01*
X134112000Y-87122000D02*
X135890000Y-87122000D01*
X34544000Y-96520000D02*
X34544000Y-99568000D01*
X36322000Y-100838000D02*
X37592000Y-99568000D01*
X37592000Y-99568000D02*
X39370000Y-99568000D01*
X34544000Y-100838000D02*
X36322000Y-100838000D01*
X39370000Y-96520000D02*
X39370000Y-97220000D01*
X39370000Y-97220000D02*
X39370000Y-99568000D01*
X48768000Y-96520000D02*
X48768000Y-97220000D01*
X48768000Y-97220000D02*
X48768000Y-99568000D01*
X50546000Y-100838000D02*
X51816000Y-99568000D01*
X51816000Y-99568000D02*
X53594000Y-99568000D01*
X48768000Y-100838000D02*
X50546000Y-100838000D01*
X53594000Y-96520000D02*
X53594000Y-99568000D01*
X62992000Y-96520000D02*
X62992000Y-99568000D01*
X64770000Y-100838000D02*
X66040000Y-99568000D01*
X66040000Y-99568000D02*
X67818000Y-99568000D01*
X62992000Y-100838000D02*
X64770000Y-100838000D01*
X67818000Y-96520000D02*
X67818000Y-99568000D01*
X77216000Y-96520000D02*
X77216000Y-99568000D01*
X77216000Y-100838000D02*
X78994000Y-100838000D01*
X78994000Y-100838000D02*
X80264000Y-99568000D01*
X80264000Y-99568000D02*
X82042000Y-99568000D01*
X82042000Y-96520000D02*
X82042000Y-97220000D01*
X82042000Y-97220000D02*
X82042000Y-99568000D01*
X91440000Y-96520000D02*
X91440000Y-99568000D01*
X91440000Y-100838000D02*
X93218000Y-100838000D01*
X93218000Y-100838000D02*
X94488000Y-99568000D01*
X94488000Y-99568000D02*
X96266000Y-99568000D01*
X96266000Y-96520000D02*
X96266000Y-97220000D01*
X96266000Y-97220000D02*
X96266000Y-99568000D01*
X105664000Y-96520000D02*
X105664000Y-99568000D01*
X107442000Y-100838000D02*
X108712000Y-99568000D01*
X108712000Y-99568000D02*
X110490000Y-99568000D01*
X105664000Y-100838000D02*
X107442000Y-100838000D01*
X110490000Y-96520000D02*
X110490000Y-97220000D01*
X110490000Y-97220000D02*
X110490000Y-99568000D01*
X119888000Y-96520000D02*
X119888000Y-99568000D01*
X121666000Y-100838000D02*
X122936000Y-99568000D01*
X122936000Y-99568000D02*
X124714000Y-99568000D01*
X119888000Y-100838000D02*
X121666000Y-100838000D01*
X124714000Y-96520000D02*
X124714000Y-99568000D01*
X134112000Y-96520000D02*
X134112000Y-99568000D01*
X135890000Y-100838000D02*
X137160000Y-99568000D01*
X137160000Y-99568000D02*
X138938000Y-99568000D01*
X134112000Y-100838000D02*
X135890000Y-100838000D01*
X138938000Y-96520000D02*
X138938000Y-99568000D01*
X110282001Y-148218999D02*
X110907002Y-148844000D01*
X110907002Y-148844000D02*
X110998000Y-148844000D01*
X109356999Y-148453001D02*
X109591001Y-148218999D01*
X109591001Y-148218999D02*
X110282001Y-148218999D01*
X109220000Y-148844000D02*
X109356999Y-148707001D01*
X109356999Y-148707001D02*
X109356999Y-148453001D01*
X109220000Y-148844000D02*
X103378000Y-148844000D01*
X103378000Y-148844000D02*
X101600000Y-147066000D01*
X123698000Y-148844000D02*
X112522000Y-148844000D01*
X112522000Y-148844000D02*
X110998000Y-148844000D01*
X111506000Y-148574000D02*
X111776000Y-148844000D01*
X111506000Y-147574000D02*
X111506000Y-148574000D01*
X111776000Y-148844000D02*
X112522000Y-148844000D01*
X111506000Y-148574000D02*
X111236000Y-148844000D01*
X111236000Y-148844000D02*
X110998000Y-148844000D01*
X123952000Y-147574000D02*
X123952000Y-148590000D01*
X123952000Y-148590000D02*
X123698000Y-148844000D01*
X121112023Y-147365999D02*
X121412022Y-147066000D01*
X120904022Y-147574000D02*
X121112023Y-147365999D01*
X119634000Y-147574000D02*
X120904022Y-147574000D01*
X149606000Y-114808000D02*
X149860000Y-115062000D01*
X149860000Y-115062000D02*
X151130000Y-115062000D01*
X149606000Y-107188000D02*
X149606000Y-114808000D01*
X149860000Y-106934000D02*
X149606000Y-107188000D01*
X151130000Y-106934000D02*
X149860000Y-106934000D01*
X151130000Y-101346000D02*
X151130000Y-106934000D01*
X34544000Y-110236000D02*
X34544000Y-110936000D01*
X34544000Y-110936000D02*
X34544000Y-113284000D01*
X34544000Y-114554000D02*
X36322000Y-114554000D01*
X36322000Y-114554000D02*
X37592000Y-113284000D01*
X37592000Y-113284000D02*
X39370000Y-113284000D01*
X39370000Y-110236000D02*
X39370000Y-113284000D01*
X48768000Y-110236000D02*
X48768000Y-113284000D01*
X53594000Y-110236000D02*
X53594000Y-113284000D01*
X48768000Y-114554000D02*
X50546000Y-114554000D01*
X50546000Y-114554000D02*
X51816000Y-113284000D01*
X51816000Y-113284000D02*
X53594000Y-113284000D01*
X62992000Y-110236000D02*
X62992000Y-113284000D01*
X67818000Y-110236000D02*
X67818000Y-113284000D01*
X64770000Y-114554000D02*
X66040000Y-113284000D01*
X66040000Y-113284000D02*
X67818000Y-113284000D01*
X62992000Y-114554000D02*
X64770000Y-114554000D01*
X77216000Y-110236000D02*
X77216000Y-110936000D01*
X77216000Y-110936000D02*
X77216000Y-113284000D01*
X82042000Y-110236000D02*
X82042000Y-113284000D01*
X78994000Y-114554000D02*
X80264000Y-113284000D01*
X80264000Y-113284000D02*
X82042000Y-113284000D01*
X77216000Y-114554000D02*
X78994000Y-114554000D01*
X91440000Y-110236000D02*
X91440000Y-113284000D01*
X96266000Y-110236000D02*
X96266000Y-110936000D01*
X96266000Y-110936000D02*
X96266000Y-113284000D01*
X91440000Y-114554000D02*
X93218000Y-114554000D01*
X93218000Y-114554000D02*
X94488000Y-113284000D01*
X94488000Y-113284000D02*
X96266000Y-113284000D01*
X105664000Y-110236000D02*
X105664000Y-110936000D01*
X105664000Y-110936000D02*
X105664000Y-113284000D01*
X110490000Y-110236000D02*
X110490000Y-113284000D01*
X105664000Y-114554000D02*
X107442000Y-114554000D01*
X107442000Y-114554000D02*
X108712000Y-113284000D01*
X108712000Y-113284000D02*
X110490000Y-113284000D01*
X119888000Y-110236000D02*
X119888000Y-113284000D01*
X124714000Y-110236000D02*
X124714000Y-110936000D01*
X124714000Y-110936000D02*
X124714000Y-113284000D01*
X121666000Y-114554000D02*
X122936000Y-113284000D01*
X122936000Y-113284000D02*
X124714000Y-113284000D01*
X119888000Y-114554000D02*
X121666000Y-114554000D01*
X134112000Y-110236000D02*
X134112000Y-110936000D01*
X134112000Y-110936000D02*
X134112000Y-113284000D01*
X138938000Y-110236000D02*
X138938000Y-113284000D01*
X135890000Y-114554000D02*
X137160000Y-113284000D01*
X137160000Y-113284000D02*
X138938000Y-113284000D01*
X134112000Y-114554000D02*
X135890000Y-114554000D01*
X34544000Y-123952000D02*
X34544000Y-127000000D01*
X34544000Y-128270000D02*
X36322000Y-128270000D01*
X36322000Y-128270000D02*
X37592000Y-127000000D01*
X37592000Y-127000000D02*
X39370000Y-127000000D01*
X39370000Y-123952000D02*
X39370000Y-124652000D01*
X39370000Y-124652000D02*
X39370000Y-127000000D01*
X48768000Y-123952000D02*
X48768000Y-124652000D01*
X48768000Y-124652000D02*
X48768000Y-127000000D01*
X48768000Y-128270000D02*
X50546000Y-128270000D01*
X50546000Y-128270000D02*
X51816000Y-127000000D01*
X51816000Y-127000000D02*
X53594000Y-127000000D01*
X53594000Y-123952000D02*
X53594000Y-124652000D01*
X53594000Y-124652000D02*
X53594000Y-127000000D01*
X62992000Y-123952000D02*
X62992000Y-124652000D01*
X62992000Y-124652000D02*
X62992000Y-127000000D01*
X64770000Y-128270000D02*
X66040000Y-127000000D01*
X66040000Y-127000000D02*
X67818000Y-127000000D01*
X62992000Y-128270000D02*
X64770000Y-128270000D01*
X67818000Y-123952000D02*
X67818000Y-127000000D01*
X77216000Y-123952000D02*
X77216000Y-127000000D01*
X78994000Y-128270000D02*
X80264000Y-127000000D01*
X80264000Y-127000000D02*
X82042000Y-127000000D01*
X77216000Y-128270000D02*
X78994000Y-128270000D01*
X82042000Y-123952000D02*
X82042000Y-124652000D01*
X82042000Y-124652000D02*
X82042000Y-127000000D01*
X91440000Y-123952000D02*
X91440000Y-124652000D01*
X91440000Y-124652000D02*
X91440000Y-127000000D01*
X96266000Y-123952000D02*
X96266000Y-127000000D01*
X93218000Y-128270000D02*
X94488000Y-127000000D01*
X94488000Y-127000000D02*
X96266000Y-127000000D01*
X91440000Y-128270000D02*
X93218000Y-128270000D01*
X105664000Y-123952000D02*
X105664000Y-124652000D01*
X105664000Y-124652000D02*
X105664000Y-127000000D01*
X110490000Y-123952000D02*
X110490000Y-127000000D01*
X107442000Y-128270000D02*
X108712000Y-127000000D01*
X108712000Y-127000000D02*
X110490000Y-127000000D01*
X105664000Y-128270000D02*
X107442000Y-128270000D01*
X119888000Y-123952000D02*
X119888000Y-127000000D01*
X124714000Y-124652000D02*
X124714000Y-127000000D01*
X124714000Y-123952000D02*
X124714000Y-124652000D01*
X121666000Y-128270000D02*
X122936000Y-127000000D01*
X122936000Y-127000000D02*
X124714000Y-127000000D01*
X119888000Y-128270000D02*
X121666000Y-128270000D01*
X134112000Y-127000000D02*
X134112000Y-126300000D01*
X134112000Y-126300000D02*
X134112000Y-123952000D01*
X138938000Y-127000000D02*
X138938000Y-123952000D01*
X134112000Y-128270000D02*
X135890000Y-128270000D01*
X135890000Y-128270000D02*
X137160000Y-127000000D01*
X137160000Y-127000000D02*
X138938000Y-127000000D01*
X154940000Y-148336000D02*
X154940000Y-136906000D01*
X154940000Y-136906000D02*
X154940000Y-109898264D01*
X154940000Y-109898264D02*
X154940000Y-109474000D01*
X149606000Y-142240000D02*
X149860000Y-142494000D01*
X149860000Y-142494000D02*
X151130000Y-142494000D01*
X149606000Y-134620000D02*
X149606000Y-142240000D01*
X149860000Y-134366000D02*
X149606000Y-134620000D01*
X151130000Y-134366000D02*
X149860000Y-134366000D01*
X151130000Y-128778000D02*
X151130000Y-134366000D01*
X34544000Y-137668000D02*
X34544000Y-140716000D01*
X39370000Y-137668000D02*
X39370000Y-138368000D01*
X39370000Y-138368000D02*
X39370000Y-140716000D01*
X36322000Y-141986000D02*
X37592000Y-140716000D01*
X37592000Y-140716000D02*
X39370000Y-140716000D01*
X34544000Y-141986000D02*
X36322000Y-141986000D01*
X48768000Y-137668000D02*
X48768000Y-140716000D01*
X53594000Y-137668000D02*
X53594000Y-138368000D01*
X53594000Y-138368000D02*
X53594000Y-140716000D01*
X50546000Y-141986000D02*
X51816000Y-140716000D01*
X51816000Y-140716000D02*
X53594000Y-140716000D01*
X48768000Y-141986000D02*
X50546000Y-141986000D01*
X62992000Y-137668000D02*
X62992000Y-140716000D01*
X62992000Y-141986000D02*
X64770000Y-141986000D01*
X64770000Y-141986000D02*
X66040000Y-140716000D01*
X66040000Y-140716000D02*
X67818000Y-140716000D01*
X67818000Y-137668000D02*
X67818000Y-138368000D01*
X67818000Y-138368000D02*
X67818000Y-140716000D01*
X77216000Y-140716000D02*
X77216000Y-137668000D01*
X82042000Y-137668000D02*
X82042000Y-140716000D01*
X78994000Y-141986000D02*
X80264000Y-140716000D01*
X80264000Y-140716000D02*
X82042000Y-140716000D01*
X77216000Y-141986000D02*
X78994000Y-141986000D01*
X91440000Y-137668000D02*
X91440000Y-138368000D01*
X91440000Y-138368000D02*
X91440000Y-140716000D01*
X96266000Y-140716000D02*
X96266000Y-137668000D01*
X93218000Y-141986000D02*
X94488000Y-140716000D01*
X94488000Y-140716000D02*
X96266000Y-140716000D01*
X91440000Y-141986000D02*
X93218000Y-141986000D01*
X105664000Y-137668000D02*
X105664000Y-138368000D01*
X105664000Y-138368000D02*
X105664000Y-140716000D01*
X107442000Y-141986000D02*
X108712000Y-140716000D01*
X108712000Y-140716000D02*
X110490000Y-140716000D01*
X105664000Y-141986000D02*
X107442000Y-141986000D01*
X110490000Y-137668000D02*
X110490000Y-138368000D01*
X110490000Y-138368000D02*
X110490000Y-140716000D01*
X119888000Y-137668000D02*
X119888000Y-140716000D01*
X124714000Y-137668000D02*
X124714000Y-140716000D01*
X119888000Y-141986000D02*
X121666000Y-141986000D01*
X121666000Y-141986000D02*
X122936000Y-140716000D01*
X122936000Y-140716000D02*
X124714000Y-140716000D01*
X134112000Y-137668000D02*
X134112000Y-138368000D01*
X134112000Y-138368000D02*
X134112000Y-140716000D01*
X138938000Y-137668000D02*
X138938000Y-140716000D01*
X135890000Y-141986000D02*
X137160000Y-140716000D01*
X137160000Y-140716000D02*
X138938000Y-140716000D01*
X134112000Y-141986000D02*
X135890000Y-141986000D01*
M02*
