%TF.GenerationSoftware,KiCad,Pcbnew,4.0.7-e2-6376~61~ubuntu18.04.1*%
%TF.CreationDate,2020-08-28T19:40:58+02:00*%
%TF.ProjectId,ram,72616D2E6B696361645F706362000000,rev?*%
%TF.FileFunction,Soldermask,Top*%
%FSLAX46Y46*%
G04 Gerber Fmt 4.6, Leading zero omitted, Abs format (unit mm)*
G04 Created by KiCad (PCBNEW 4.0.7-e2-6376~61~ubuntu18.04.1) date Fri Aug 28 19:40:58 2020*
%MOMM*%
%LPD*%
G01*
G04 APERTURE LIST*
%ADD10C,0.100000*%
%ADD11C,0.150000*%
%ADD12O,1.300000X1.900000*%
%ADD13R,1.300000X1.900000*%
%ADD14R,3.400000X7.400000*%
%ADD15O,1.900000X1.300000*%
%ADD16R,1.900000X1.300000*%
%ADD17C,1.800000*%
%ADD18O,1.800000X1.800000*%
G04 APERTURE END LIST*
D10*
D11*
X79756000Y-150622000D02*
X80264000Y-150622000D01*
X79756000Y-158673800D02*
X79756000Y-150622000D01*
X28702000Y-158673800D02*
X79756000Y-158673800D01*
X28702000Y-151130000D02*
X28702000Y-158673800D01*
X127000000Y-150622000D02*
X80264000Y-150622000D01*
X28702000Y-34036000D02*
X28702000Y-151130000D01*
X28956000Y-34036000D02*
X28702000Y-34036000D01*
X155702000Y-34036000D02*
X28956000Y-34036000D01*
X155702000Y-116586000D02*
X155702000Y-34036000D01*
X155702000Y-150622000D02*
X155702000Y-116586000D01*
X127000000Y-150622000D02*
X155702000Y-150622000D01*
D12*
X107188000Y-147574000D03*
X105918000Y-147574000D03*
D13*
X108458000Y-147574000D03*
D12*
X118364000Y-147574000D03*
X117094000Y-147574000D03*
D13*
X119634000Y-147574000D03*
D14*
X32258000Y-154686000D03*
X36258000Y-154686000D03*
X40258000Y-154686000D03*
X44258000Y-154686000D03*
X48258000Y-154686000D03*
X52258000Y-154686000D03*
X56258000Y-154686000D03*
X60258000Y-154686000D03*
X64258000Y-154686000D03*
X68258000Y-154686000D03*
X72258000Y-154686000D03*
X76258000Y-154686000D03*
D15*
X34544000Y-40386000D03*
X34544000Y-39116000D03*
D16*
X34544000Y-41656000D03*
D15*
X39370000Y-40386000D03*
X39370000Y-39116000D03*
D16*
X39370000Y-41656000D03*
D15*
X48768000Y-40386000D03*
X48768000Y-39116000D03*
D16*
X48768000Y-41656000D03*
D15*
X53594000Y-40386000D03*
X53594000Y-39116000D03*
D16*
X53594000Y-41656000D03*
D15*
X62992000Y-40386000D03*
X62992000Y-39116000D03*
D16*
X62992000Y-41656000D03*
D15*
X67818000Y-40386000D03*
X67818000Y-39116000D03*
D16*
X67818000Y-41656000D03*
D15*
X77216000Y-40386000D03*
X77216000Y-39116000D03*
D16*
X77216000Y-41656000D03*
D15*
X82042000Y-40386000D03*
X82042000Y-39116000D03*
D16*
X82042000Y-41656000D03*
D15*
X91440000Y-40386000D03*
X91440000Y-39116000D03*
D16*
X91440000Y-41656000D03*
D15*
X96266000Y-40386000D03*
X96266000Y-39116000D03*
D16*
X96266000Y-41656000D03*
D15*
X105664000Y-40386000D03*
X105664000Y-39116000D03*
D16*
X105664000Y-41656000D03*
D15*
X110490000Y-40386000D03*
X110490000Y-39116000D03*
D16*
X110490000Y-41656000D03*
D15*
X119888000Y-40386000D03*
X119888000Y-39116000D03*
D16*
X119888000Y-41656000D03*
D15*
X124714000Y-40386000D03*
X124714000Y-39116000D03*
D16*
X124714000Y-41656000D03*
D15*
X134112000Y-40386000D03*
X134112000Y-39116000D03*
D16*
X134112000Y-41656000D03*
D15*
X138938000Y-40386000D03*
X138938000Y-39116000D03*
D16*
X138938000Y-41656000D03*
D15*
X34544000Y-45974000D03*
X34544000Y-44704000D03*
D16*
X34544000Y-47244000D03*
D15*
X39370000Y-45974000D03*
X39370000Y-44704000D03*
D16*
X39370000Y-47244000D03*
D15*
X48768000Y-45974000D03*
X48768000Y-44704000D03*
D16*
X48768000Y-47244000D03*
D15*
X53594000Y-45974000D03*
X53594000Y-44704000D03*
D16*
X53594000Y-47244000D03*
D15*
X62992000Y-45974000D03*
X62992000Y-44704000D03*
D16*
X62992000Y-47244000D03*
D15*
X67818000Y-45974000D03*
X67818000Y-44704000D03*
D16*
X67818000Y-47244000D03*
D15*
X77216000Y-45974000D03*
X77216000Y-44704000D03*
D16*
X77216000Y-47244000D03*
D15*
X82042000Y-45974000D03*
X82042000Y-44704000D03*
D16*
X82042000Y-47244000D03*
D15*
X91440000Y-45974000D03*
X91440000Y-44704000D03*
D16*
X91440000Y-47244000D03*
D15*
X96266000Y-45974000D03*
X96266000Y-44704000D03*
D16*
X96266000Y-47244000D03*
D15*
X105664000Y-45974000D03*
X105664000Y-44704000D03*
D16*
X105664000Y-47244000D03*
D15*
X110490000Y-45974000D03*
X110490000Y-44704000D03*
D16*
X110490000Y-47244000D03*
D15*
X119888000Y-45974000D03*
X119888000Y-44704000D03*
D16*
X119888000Y-47244000D03*
D15*
X124714000Y-45974000D03*
X124714000Y-44704000D03*
D16*
X124714000Y-47244000D03*
D15*
X134112000Y-45974000D03*
X134112000Y-44704000D03*
D16*
X134112000Y-47244000D03*
D15*
X138938000Y-45974000D03*
X138938000Y-44704000D03*
D16*
X138938000Y-47244000D03*
D15*
X146304000Y-45212000D03*
X146304000Y-43942000D03*
D16*
X146304000Y-46482000D03*
D15*
X151130000Y-45212000D03*
X151130000Y-43942000D03*
D16*
X151130000Y-46482000D03*
D15*
X34544000Y-54102000D03*
X34544000Y-52832000D03*
D16*
X34544000Y-55372000D03*
D15*
X39370000Y-54102000D03*
X39370000Y-52832000D03*
D16*
X39370000Y-55372000D03*
D15*
X48768000Y-54102000D03*
X48768000Y-52832000D03*
D16*
X48768000Y-55372000D03*
D15*
X53594000Y-54102000D03*
X53594000Y-52832000D03*
D16*
X53594000Y-55372000D03*
D15*
X62992000Y-54102000D03*
X62992000Y-52832000D03*
D16*
X62992000Y-55372000D03*
D15*
X67818000Y-54102000D03*
X67818000Y-52832000D03*
D16*
X67818000Y-55372000D03*
D15*
X77216000Y-54102000D03*
X77216000Y-52832000D03*
D16*
X77216000Y-55372000D03*
D15*
X82042000Y-54102000D03*
X82042000Y-52832000D03*
D16*
X82042000Y-55372000D03*
D15*
X91440000Y-54102000D03*
X91440000Y-52832000D03*
D16*
X91440000Y-55372000D03*
D15*
X96266000Y-54102000D03*
X96266000Y-52832000D03*
D16*
X96266000Y-55372000D03*
D15*
X105664000Y-54102000D03*
X105664000Y-52832000D03*
D16*
X105664000Y-55372000D03*
D15*
X110490000Y-54102000D03*
X110490000Y-52832000D03*
D16*
X110490000Y-55372000D03*
D15*
X119888000Y-54102000D03*
X119888000Y-52832000D03*
D16*
X119888000Y-55372000D03*
D15*
X124714000Y-54102000D03*
X124714000Y-52832000D03*
D16*
X124714000Y-55372000D03*
D15*
X134112000Y-54102000D03*
X134112000Y-52832000D03*
D16*
X134112000Y-55372000D03*
D15*
X138938000Y-54102000D03*
X138938000Y-52832000D03*
D16*
X138938000Y-55372000D03*
D15*
X34544000Y-59690000D03*
X34544000Y-58420000D03*
D16*
X34544000Y-60960000D03*
D15*
X39370000Y-59690000D03*
X39370000Y-58420000D03*
D16*
X39370000Y-60960000D03*
D15*
X48768000Y-59690000D03*
X48768000Y-58420000D03*
D16*
X48768000Y-60960000D03*
D15*
X53594000Y-59690000D03*
X53594000Y-58420000D03*
D16*
X53594000Y-60960000D03*
D15*
X62992000Y-59690000D03*
X62992000Y-58420000D03*
D16*
X62992000Y-60960000D03*
D15*
X67818000Y-59690000D03*
X67818000Y-58420000D03*
D16*
X67818000Y-60960000D03*
D15*
X77216000Y-59690000D03*
X77216000Y-58420000D03*
D16*
X77216000Y-60960000D03*
D15*
X82042000Y-59690000D03*
X82042000Y-58420000D03*
D16*
X82042000Y-60960000D03*
D15*
X91440000Y-59690000D03*
X91440000Y-58420000D03*
D16*
X91440000Y-60960000D03*
D15*
X96266000Y-59690000D03*
X96266000Y-58420000D03*
D16*
X96266000Y-60960000D03*
D15*
X105664000Y-59690000D03*
X105664000Y-58420000D03*
D16*
X105664000Y-60960000D03*
D15*
X110490000Y-59690000D03*
X110490000Y-58420000D03*
D16*
X110490000Y-60960000D03*
D15*
X119888000Y-59690000D03*
X119888000Y-58420000D03*
D16*
X119888000Y-60960000D03*
D15*
X124714000Y-59690000D03*
X124714000Y-58420000D03*
D16*
X124714000Y-60960000D03*
D15*
X134112000Y-59690000D03*
X134112000Y-58420000D03*
D16*
X134112000Y-60960000D03*
D15*
X138938000Y-59690000D03*
X138938000Y-58420000D03*
D16*
X138938000Y-60960000D03*
D15*
X146304000Y-58928000D03*
X146304000Y-57658000D03*
D16*
X146304000Y-60198000D03*
D15*
X151130000Y-58928000D03*
X151130000Y-57658000D03*
D16*
X151130000Y-60198000D03*
D15*
X34544000Y-67818000D03*
X34544000Y-66548000D03*
D16*
X34544000Y-69088000D03*
D15*
X39370000Y-67818000D03*
X39370000Y-66548000D03*
D16*
X39370000Y-69088000D03*
D15*
X48768000Y-67818000D03*
X48768000Y-66548000D03*
D16*
X48768000Y-69088000D03*
D15*
X53594000Y-67818000D03*
X53594000Y-66548000D03*
D16*
X53594000Y-69088000D03*
D15*
X62992000Y-67818000D03*
X62992000Y-66548000D03*
D16*
X62992000Y-69088000D03*
D15*
X67818000Y-67818000D03*
X67818000Y-66548000D03*
D16*
X67818000Y-69088000D03*
D15*
X77216000Y-67818000D03*
X77216000Y-66548000D03*
D16*
X77216000Y-69088000D03*
D15*
X82042000Y-67818000D03*
X82042000Y-66548000D03*
D16*
X82042000Y-69088000D03*
D15*
X91440000Y-67818000D03*
X91440000Y-66548000D03*
D16*
X91440000Y-69088000D03*
D15*
X96266000Y-67818000D03*
X96266000Y-66548000D03*
D16*
X96266000Y-69088000D03*
D15*
X105664000Y-67818000D03*
X105664000Y-66548000D03*
D16*
X105664000Y-69088000D03*
D15*
X110490000Y-67818000D03*
X110490000Y-66548000D03*
D16*
X110490000Y-69088000D03*
D15*
X119888000Y-67818000D03*
X119888000Y-66548000D03*
D16*
X119888000Y-69088000D03*
D15*
X124714000Y-67818000D03*
X124714000Y-66548000D03*
D16*
X124714000Y-69088000D03*
D15*
X134112000Y-67818000D03*
X134112000Y-66548000D03*
D16*
X134112000Y-69088000D03*
D15*
X138938000Y-67818000D03*
X138938000Y-66548000D03*
D16*
X138938000Y-69088000D03*
D15*
X34544000Y-73406000D03*
X34544000Y-72136000D03*
D16*
X34544000Y-74676000D03*
D15*
X39370000Y-73406000D03*
X39370000Y-72136000D03*
D16*
X39370000Y-74676000D03*
D15*
X48768000Y-73406000D03*
X48768000Y-72136000D03*
D16*
X48768000Y-74676000D03*
D15*
X53594000Y-73406000D03*
X53594000Y-72136000D03*
D16*
X53594000Y-74676000D03*
D15*
X62992000Y-73406000D03*
X62992000Y-72136000D03*
D16*
X62992000Y-74676000D03*
D15*
X67818000Y-73406000D03*
X67818000Y-72136000D03*
D16*
X67818000Y-74676000D03*
D15*
X77216000Y-73406000D03*
X77216000Y-72136000D03*
D16*
X77216000Y-74676000D03*
D15*
X82042000Y-73406000D03*
X82042000Y-72136000D03*
D16*
X82042000Y-74676000D03*
D15*
X91440000Y-73406000D03*
X91440000Y-72136000D03*
D16*
X91440000Y-74676000D03*
D15*
X96266000Y-73406000D03*
X96266000Y-72136000D03*
D16*
X96266000Y-74676000D03*
D15*
X105664000Y-73406000D03*
X105664000Y-72136000D03*
D16*
X105664000Y-74676000D03*
D15*
X110490000Y-73406000D03*
X110490000Y-72136000D03*
D16*
X110490000Y-74676000D03*
D15*
X119888000Y-73406000D03*
X119888000Y-72136000D03*
D16*
X119888000Y-74676000D03*
D15*
X124714000Y-73406000D03*
X124714000Y-72136000D03*
D16*
X124714000Y-74676000D03*
D15*
X134112000Y-73406000D03*
X134112000Y-72136000D03*
D16*
X134112000Y-74676000D03*
D15*
X138938000Y-73406000D03*
X138938000Y-72136000D03*
D16*
X138938000Y-74676000D03*
D15*
X151130000Y-53340000D03*
X151130000Y-52070000D03*
D16*
X151130000Y-54610000D03*
D15*
X146304000Y-72644000D03*
X146304000Y-71374000D03*
D16*
X146304000Y-73914000D03*
D15*
X151130000Y-72644000D03*
X151130000Y-71374000D03*
D16*
X151130000Y-73914000D03*
D15*
X34544000Y-81534000D03*
X34544000Y-80264000D03*
D16*
X34544000Y-82804000D03*
D15*
X39370000Y-81534000D03*
X39370000Y-80264000D03*
D16*
X39370000Y-82804000D03*
D15*
X48768000Y-81534000D03*
X48768000Y-80264000D03*
D16*
X48768000Y-82804000D03*
D15*
X53594000Y-81534000D03*
X53594000Y-80264000D03*
D16*
X53594000Y-82804000D03*
D15*
X62992000Y-81534000D03*
X62992000Y-80264000D03*
D16*
X62992000Y-82804000D03*
D15*
X67818000Y-81534000D03*
X67818000Y-80264000D03*
D16*
X67818000Y-82804000D03*
D15*
X77216000Y-81534000D03*
X77216000Y-80264000D03*
D16*
X77216000Y-82804000D03*
D15*
X82042000Y-81534000D03*
X82042000Y-80264000D03*
D16*
X82042000Y-82804000D03*
D15*
X91440000Y-81534000D03*
X91440000Y-80264000D03*
D16*
X91440000Y-82804000D03*
D15*
X96266000Y-81534000D03*
X96266000Y-80264000D03*
D16*
X96266000Y-82804000D03*
D15*
X105664000Y-81534000D03*
X105664000Y-80264000D03*
D16*
X105664000Y-82804000D03*
D15*
X110490000Y-81534000D03*
X110490000Y-80264000D03*
D16*
X110490000Y-82804000D03*
D15*
X119888000Y-81534000D03*
X119888000Y-80264000D03*
D16*
X119888000Y-82804000D03*
D15*
X124714000Y-81534000D03*
X124714000Y-80264000D03*
D16*
X124714000Y-82804000D03*
D15*
X134112000Y-81534000D03*
X134112000Y-80264000D03*
D16*
X134112000Y-82804000D03*
D15*
X138938000Y-81534000D03*
X138938000Y-80264000D03*
D16*
X138938000Y-82804000D03*
D15*
X34544000Y-87122000D03*
X34544000Y-85852000D03*
D16*
X34544000Y-88392000D03*
D15*
X39370000Y-87122000D03*
X39370000Y-85852000D03*
D16*
X39370000Y-88392000D03*
D15*
X48768000Y-87122000D03*
X48768000Y-85852000D03*
D16*
X48768000Y-88392000D03*
D15*
X53594000Y-87122000D03*
X53594000Y-85852000D03*
D16*
X53594000Y-88392000D03*
D15*
X62992000Y-87122000D03*
X62992000Y-85852000D03*
D16*
X62992000Y-88392000D03*
D15*
X67818000Y-87122000D03*
X67818000Y-85852000D03*
D16*
X67818000Y-88392000D03*
D15*
X77216000Y-87122000D03*
X77216000Y-85852000D03*
D16*
X77216000Y-88392000D03*
D15*
X82042000Y-87122000D03*
X82042000Y-85852000D03*
D16*
X82042000Y-88392000D03*
D15*
X91440000Y-87122000D03*
X91440000Y-85852000D03*
D16*
X91440000Y-88392000D03*
D15*
X96266000Y-87122000D03*
X96266000Y-85852000D03*
D16*
X96266000Y-88392000D03*
D15*
X105664000Y-87122000D03*
X105664000Y-85852000D03*
D16*
X105664000Y-88392000D03*
D15*
X110490000Y-87122000D03*
X110490000Y-85852000D03*
D16*
X110490000Y-88392000D03*
D15*
X119888000Y-87122000D03*
X119888000Y-85852000D03*
D16*
X119888000Y-88392000D03*
D15*
X124714000Y-87122000D03*
X124714000Y-85852000D03*
D16*
X124714000Y-88392000D03*
D15*
X134112000Y-87122000D03*
X134112000Y-85852000D03*
D16*
X134112000Y-88392000D03*
D15*
X138938000Y-87122000D03*
X138938000Y-85852000D03*
D16*
X138938000Y-88392000D03*
D15*
X146304000Y-86106000D03*
X146304000Y-84836000D03*
D16*
X146304000Y-87376000D03*
D15*
X151130000Y-86106000D03*
X151130000Y-84836000D03*
D16*
X151130000Y-87376000D03*
D15*
X34544000Y-95250000D03*
X34544000Y-93980000D03*
D16*
X34544000Y-96520000D03*
D15*
X39370000Y-95250000D03*
X39370000Y-93980000D03*
D16*
X39370000Y-96520000D03*
D15*
X48768000Y-95250000D03*
X48768000Y-93980000D03*
D16*
X48768000Y-96520000D03*
D15*
X53594000Y-95250000D03*
X53594000Y-93980000D03*
D16*
X53594000Y-96520000D03*
D15*
X62992000Y-95250000D03*
X62992000Y-93980000D03*
D16*
X62992000Y-96520000D03*
D15*
X67818000Y-95250000D03*
X67818000Y-93980000D03*
D16*
X67818000Y-96520000D03*
D15*
X77216000Y-95250000D03*
X77216000Y-93980000D03*
D16*
X77216000Y-96520000D03*
D15*
X82042000Y-95250000D03*
X82042000Y-93980000D03*
D16*
X82042000Y-96520000D03*
D15*
X91440000Y-95250000D03*
X91440000Y-93980000D03*
D16*
X91440000Y-96520000D03*
D15*
X96266000Y-95250000D03*
X96266000Y-93980000D03*
D16*
X96266000Y-96520000D03*
D15*
X105664000Y-95250000D03*
X105664000Y-93980000D03*
D16*
X105664000Y-96520000D03*
D15*
X110490000Y-95250000D03*
X110490000Y-93980000D03*
D16*
X110490000Y-96520000D03*
D15*
X119888000Y-95250000D03*
X119888000Y-93980000D03*
D16*
X119888000Y-96520000D03*
D15*
X124714000Y-95250000D03*
X124714000Y-93980000D03*
D16*
X124714000Y-96520000D03*
D15*
X134112000Y-95250000D03*
X134112000Y-93980000D03*
D16*
X134112000Y-96520000D03*
D15*
X138938000Y-95250000D03*
X138938000Y-93980000D03*
D16*
X138938000Y-96520000D03*
D15*
X34544000Y-100838000D03*
X34544000Y-99568000D03*
D16*
X34544000Y-102108000D03*
D15*
X39370000Y-100838000D03*
X39370000Y-99568000D03*
D16*
X39370000Y-102108000D03*
D15*
X48768000Y-100838000D03*
X48768000Y-99568000D03*
D16*
X48768000Y-102108000D03*
D15*
X53594000Y-100838000D03*
X53594000Y-99568000D03*
D16*
X53594000Y-102108000D03*
D15*
X62992000Y-100838000D03*
X62992000Y-99568000D03*
D16*
X62992000Y-102108000D03*
D15*
X67818000Y-100838000D03*
X67818000Y-99568000D03*
D16*
X67818000Y-102108000D03*
D15*
X77216000Y-100838000D03*
X77216000Y-99568000D03*
D16*
X77216000Y-102108000D03*
D15*
X82042000Y-100838000D03*
X82042000Y-99568000D03*
D16*
X82042000Y-102108000D03*
D15*
X91440000Y-100838000D03*
X91440000Y-99568000D03*
D16*
X91440000Y-102108000D03*
D15*
X96266000Y-100838000D03*
X96266000Y-99568000D03*
D16*
X96266000Y-102108000D03*
D15*
X105664000Y-100838000D03*
X105664000Y-99568000D03*
D16*
X105664000Y-102108000D03*
D15*
X110490000Y-100838000D03*
X110490000Y-99568000D03*
D16*
X110490000Y-102108000D03*
D15*
X119888000Y-100838000D03*
X119888000Y-99568000D03*
D16*
X119888000Y-102108000D03*
D15*
X124714000Y-100838000D03*
X124714000Y-99568000D03*
D16*
X124714000Y-102108000D03*
D15*
X134112000Y-100838000D03*
X134112000Y-99568000D03*
D16*
X134112000Y-102108000D03*
D15*
X138938000Y-100838000D03*
X138938000Y-99568000D03*
D16*
X138938000Y-102108000D03*
D15*
X151130000Y-80518000D03*
X151130000Y-79248000D03*
D16*
X151130000Y-81788000D03*
D12*
X123952000Y-147574000D03*
X122682000Y-147574000D03*
D13*
X125222000Y-147574000D03*
D15*
X146304000Y-100076000D03*
X146304000Y-98806000D03*
D16*
X146304000Y-101346000D03*
D15*
X151130000Y-100076000D03*
X151130000Y-98806000D03*
D16*
X151130000Y-101346000D03*
D15*
X34544000Y-108966000D03*
X34544000Y-107696000D03*
D16*
X34544000Y-110236000D03*
D15*
X39370000Y-108966000D03*
X39370000Y-107696000D03*
D16*
X39370000Y-110236000D03*
D15*
X48768000Y-108966000D03*
X48768000Y-107696000D03*
D16*
X48768000Y-110236000D03*
D15*
X53594000Y-108966000D03*
X53594000Y-107696000D03*
D16*
X53594000Y-110236000D03*
D15*
X62992000Y-108966000D03*
X62992000Y-107696000D03*
D16*
X62992000Y-110236000D03*
D15*
X67818000Y-108966000D03*
X67818000Y-107696000D03*
D16*
X67818000Y-110236000D03*
D15*
X77216000Y-108966000D03*
X77216000Y-107696000D03*
D16*
X77216000Y-110236000D03*
D15*
X82042000Y-108966000D03*
X82042000Y-107696000D03*
D16*
X82042000Y-110236000D03*
D15*
X91440000Y-108966000D03*
X91440000Y-107696000D03*
D16*
X91440000Y-110236000D03*
D15*
X96266000Y-108966000D03*
X96266000Y-107696000D03*
D16*
X96266000Y-110236000D03*
D15*
X105664000Y-108966000D03*
X105664000Y-107696000D03*
D16*
X105664000Y-110236000D03*
D15*
X110490000Y-108966000D03*
X110490000Y-107696000D03*
D16*
X110490000Y-110236000D03*
D15*
X119888000Y-108966000D03*
X119888000Y-107696000D03*
D16*
X119888000Y-110236000D03*
D15*
X124714000Y-108966000D03*
X124714000Y-107696000D03*
D16*
X124714000Y-110236000D03*
D15*
X134112000Y-108966000D03*
X134112000Y-107696000D03*
D16*
X134112000Y-110236000D03*
D15*
X138938000Y-108966000D03*
X138938000Y-107696000D03*
D16*
X138938000Y-110236000D03*
D15*
X34544000Y-114554000D03*
X34544000Y-113284000D03*
D16*
X34544000Y-115824000D03*
D15*
X39370000Y-114554000D03*
X39370000Y-113284000D03*
D16*
X39370000Y-115824000D03*
D15*
X48768000Y-114554000D03*
X48768000Y-113284000D03*
D16*
X48768000Y-115824000D03*
D15*
X53594000Y-114554000D03*
X53594000Y-113284000D03*
D16*
X53594000Y-115824000D03*
D15*
X62992000Y-114554000D03*
X62992000Y-113284000D03*
D16*
X62992000Y-115824000D03*
D15*
X67818000Y-114554000D03*
X67818000Y-113284000D03*
D16*
X67818000Y-115824000D03*
D15*
X77216000Y-114554000D03*
X77216000Y-113284000D03*
D16*
X77216000Y-115824000D03*
D15*
X82042000Y-114554000D03*
X82042000Y-113284000D03*
D16*
X82042000Y-115824000D03*
D15*
X91440000Y-114554000D03*
X91440000Y-113284000D03*
D16*
X91440000Y-115824000D03*
D15*
X96266000Y-114554000D03*
X96266000Y-113284000D03*
D16*
X96266000Y-115824000D03*
D15*
X105664000Y-114554000D03*
X105664000Y-113284000D03*
D16*
X105664000Y-115824000D03*
D15*
X110490000Y-114554000D03*
X110490000Y-113284000D03*
D16*
X110490000Y-115824000D03*
D15*
X119888000Y-114554000D03*
X119888000Y-113284000D03*
D16*
X119888000Y-115824000D03*
D15*
X124714000Y-114554000D03*
X124714000Y-113284000D03*
D16*
X124714000Y-115824000D03*
D15*
X134112000Y-114554000D03*
X134112000Y-113284000D03*
D16*
X134112000Y-115824000D03*
D15*
X138938000Y-114554000D03*
X138938000Y-113284000D03*
D16*
X138938000Y-115824000D03*
D15*
X146304000Y-113792000D03*
X146304000Y-112522000D03*
D16*
X146304000Y-115062000D03*
D15*
X151130000Y-113792000D03*
X151130000Y-112522000D03*
D16*
X151130000Y-115062000D03*
D15*
X34544000Y-122682000D03*
X34544000Y-121412000D03*
D16*
X34544000Y-123952000D03*
D15*
X39370000Y-122682000D03*
X39370000Y-121412000D03*
D16*
X39370000Y-123952000D03*
D15*
X48768000Y-122682000D03*
X48768000Y-121412000D03*
D16*
X48768000Y-123952000D03*
D15*
X53594000Y-122682000D03*
X53594000Y-121412000D03*
D16*
X53594000Y-123952000D03*
D15*
X62992000Y-122682000D03*
X62992000Y-121412000D03*
D16*
X62992000Y-123952000D03*
D15*
X67818000Y-122682000D03*
X67818000Y-121412000D03*
D16*
X67818000Y-123952000D03*
D15*
X77216000Y-122682000D03*
X77216000Y-121412000D03*
D16*
X77216000Y-123952000D03*
D15*
X82042000Y-122682000D03*
X82042000Y-121412000D03*
D16*
X82042000Y-123952000D03*
D15*
X91440000Y-122682000D03*
X91440000Y-121412000D03*
D16*
X91440000Y-123952000D03*
D15*
X96266000Y-122682000D03*
X96266000Y-121412000D03*
D16*
X96266000Y-123952000D03*
D15*
X105664000Y-122682000D03*
X105664000Y-121412000D03*
D16*
X105664000Y-123952000D03*
D15*
X110490000Y-122682000D03*
X110490000Y-121412000D03*
D16*
X110490000Y-123952000D03*
D15*
X119888000Y-122682000D03*
X119888000Y-121412000D03*
D16*
X119888000Y-123952000D03*
D15*
X124714000Y-122682000D03*
X124714000Y-121412000D03*
D16*
X124714000Y-123952000D03*
D15*
X134112000Y-122682000D03*
X134112000Y-121412000D03*
D16*
X134112000Y-123952000D03*
D15*
X138938000Y-122682000D03*
X138938000Y-121412000D03*
D16*
X138938000Y-123952000D03*
D15*
X34544000Y-128270000D03*
X34544000Y-127000000D03*
D16*
X34544000Y-129540000D03*
D15*
X39370000Y-128270000D03*
X39370000Y-127000000D03*
D16*
X39370000Y-129540000D03*
D15*
X48768000Y-128270000D03*
X48768000Y-127000000D03*
D16*
X48768000Y-129540000D03*
D15*
X53594000Y-128270000D03*
X53594000Y-127000000D03*
D16*
X53594000Y-129540000D03*
D15*
X62992000Y-128270000D03*
X62992000Y-127000000D03*
D16*
X62992000Y-129540000D03*
D15*
X67818000Y-128270000D03*
X67818000Y-127000000D03*
D16*
X67818000Y-129540000D03*
D15*
X77216000Y-128270000D03*
X77216000Y-127000000D03*
D16*
X77216000Y-129540000D03*
D15*
X82042000Y-128270000D03*
X82042000Y-127000000D03*
D16*
X82042000Y-129540000D03*
D15*
X91440000Y-128270000D03*
X91440000Y-127000000D03*
D16*
X91440000Y-129540000D03*
D15*
X96266000Y-128270000D03*
X96266000Y-127000000D03*
D16*
X96266000Y-129540000D03*
D15*
X105664000Y-128270000D03*
X105664000Y-127000000D03*
D16*
X105664000Y-129540000D03*
D15*
X110490000Y-128270000D03*
X110490000Y-127000000D03*
D16*
X110490000Y-129540000D03*
D15*
X119888000Y-128270000D03*
X119888000Y-127000000D03*
D16*
X119888000Y-129540000D03*
D15*
X124714000Y-128270000D03*
X124714000Y-127000000D03*
D16*
X124714000Y-129540000D03*
D15*
X134112000Y-128270000D03*
X134112000Y-127000000D03*
D16*
X134112000Y-129540000D03*
D15*
X138938000Y-128270000D03*
X138938000Y-127000000D03*
D16*
X138938000Y-129540000D03*
D15*
X151130000Y-108204000D03*
X151130000Y-106934000D03*
D16*
X151130000Y-109474000D03*
D15*
X146304000Y-127508000D03*
X146304000Y-126238000D03*
D16*
X146304000Y-128778000D03*
D15*
X151130000Y-127508000D03*
X151130000Y-126238000D03*
D16*
X151130000Y-128778000D03*
D15*
X34544000Y-136398000D03*
X34544000Y-135128000D03*
D16*
X34544000Y-137668000D03*
D15*
X39370000Y-136398000D03*
X39370000Y-135128000D03*
D16*
X39370000Y-137668000D03*
D15*
X48768000Y-136398000D03*
X48768000Y-135128000D03*
D16*
X48768000Y-137668000D03*
D15*
X53594000Y-136398000D03*
X53594000Y-135128000D03*
D16*
X53594000Y-137668000D03*
D15*
X62992000Y-136398000D03*
X62992000Y-135128000D03*
D16*
X62992000Y-137668000D03*
D15*
X67818000Y-136398000D03*
X67818000Y-135128000D03*
D16*
X67818000Y-137668000D03*
D15*
X77216000Y-136398000D03*
X77216000Y-135128000D03*
D16*
X77216000Y-137668000D03*
D15*
X82042000Y-136398000D03*
X82042000Y-135128000D03*
D16*
X82042000Y-137668000D03*
D15*
X91440000Y-136398000D03*
X91440000Y-135128000D03*
D16*
X91440000Y-137668000D03*
D15*
X96266000Y-136398000D03*
X96266000Y-135128000D03*
D16*
X96266000Y-137668000D03*
D15*
X105664000Y-136398000D03*
X105664000Y-135128000D03*
D16*
X105664000Y-137668000D03*
D15*
X110490000Y-136398000D03*
X110490000Y-135128000D03*
D16*
X110490000Y-137668000D03*
D15*
X119888000Y-136398000D03*
X119888000Y-135128000D03*
D16*
X119888000Y-137668000D03*
D15*
X124714000Y-136398000D03*
X124714000Y-135128000D03*
D16*
X124714000Y-137668000D03*
D15*
X134112000Y-136398000D03*
X134112000Y-135128000D03*
D16*
X134112000Y-137668000D03*
D15*
X138938000Y-136398000D03*
X138938000Y-135128000D03*
D16*
X138938000Y-137668000D03*
D15*
X34544000Y-141986000D03*
X34544000Y-140716000D03*
D16*
X34544000Y-143256000D03*
D15*
X39370000Y-141986000D03*
X39370000Y-140716000D03*
D16*
X39370000Y-143256000D03*
D15*
X48768000Y-141986000D03*
X48768000Y-140716000D03*
D16*
X48768000Y-143256000D03*
D15*
X53594000Y-141986000D03*
X53594000Y-140716000D03*
D16*
X53594000Y-143256000D03*
D15*
X62992000Y-141986000D03*
X62992000Y-140716000D03*
D16*
X62992000Y-143256000D03*
D15*
X67818000Y-141986000D03*
X67818000Y-140716000D03*
D16*
X67818000Y-143256000D03*
D15*
X77216000Y-141986000D03*
X77216000Y-140716000D03*
D16*
X77216000Y-143256000D03*
D15*
X82042000Y-141986000D03*
X82042000Y-140716000D03*
D16*
X82042000Y-143256000D03*
D15*
X91440000Y-141986000D03*
X91440000Y-140716000D03*
D16*
X91440000Y-143256000D03*
D15*
X96266000Y-141986000D03*
X96266000Y-140716000D03*
D16*
X96266000Y-143256000D03*
D15*
X105664000Y-141986000D03*
X105664000Y-140716000D03*
D16*
X105664000Y-143256000D03*
D15*
X110490000Y-141986000D03*
X110490000Y-140716000D03*
D16*
X110490000Y-143256000D03*
D15*
X119888000Y-141986000D03*
X119888000Y-140716000D03*
D16*
X119888000Y-143256000D03*
D15*
X124714000Y-141986000D03*
X124714000Y-140716000D03*
D16*
X124714000Y-143256000D03*
D15*
X134112000Y-141986000D03*
X134112000Y-140716000D03*
D16*
X134112000Y-143256000D03*
D15*
X138938000Y-141986000D03*
X138938000Y-140716000D03*
D16*
X138938000Y-143256000D03*
D15*
X146304000Y-141224000D03*
X146304000Y-139954000D03*
D16*
X146304000Y-142494000D03*
D15*
X151130000Y-141224000D03*
X151130000Y-139954000D03*
D16*
X151130000Y-142494000D03*
D15*
X151130000Y-135636000D03*
X151130000Y-134366000D03*
D16*
X151130000Y-136906000D03*
D15*
X144018000Y-146812000D03*
X144018000Y-145542000D03*
D16*
X144018000Y-148082000D03*
D15*
X150114000Y-146812000D03*
X150114000Y-145542000D03*
D16*
X150114000Y-148082000D03*
D12*
X112776000Y-147574000D03*
X111506000Y-147574000D03*
D13*
X114046000Y-147574000D03*
D17*
X35560000Y-36322000D03*
D18*
X30480000Y-36322000D03*
D17*
X37592000Y-36322000D03*
D18*
X42672000Y-36322000D03*
D17*
X49784000Y-36322000D03*
D18*
X44704000Y-36322000D03*
D17*
X51816000Y-36322000D03*
D18*
X56896000Y-36322000D03*
D17*
X64008000Y-36322000D03*
D18*
X58928000Y-36322000D03*
D17*
X66040000Y-36322000D03*
D18*
X71120000Y-36322000D03*
D17*
X78232000Y-36322000D03*
D18*
X73152000Y-36322000D03*
D17*
X80264000Y-36322000D03*
D18*
X85344000Y-36322000D03*
D17*
X92456000Y-36322000D03*
D18*
X87376000Y-36322000D03*
D17*
X94488000Y-36322000D03*
D18*
X99568000Y-36322000D03*
D17*
X106680000Y-36322000D03*
D18*
X101600000Y-36322000D03*
D17*
X108712000Y-36322000D03*
D18*
X113792000Y-36322000D03*
D17*
X120904000Y-36322000D03*
D18*
X115824000Y-36322000D03*
D17*
X122936000Y-36322000D03*
D18*
X128016000Y-36322000D03*
D17*
X135128000Y-36322000D03*
D18*
X130048000Y-36322000D03*
D17*
X137160000Y-36322000D03*
D18*
X142240000Y-36322000D03*
D17*
X30480000Y-38608000D03*
D18*
X30480000Y-43688000D03*
D17*
X42672000Y-38608000D03*
D18*
X42672000Y-43688000D03*
D17*
X44704000Y-38608000D03*
D18*
X44704000Y-43688000D03*
D17*
X56896000Y-38608000D03*
D18*
X56896000Y-43688000D03*
D17*
X58928000Y-38608000D03*
D18*
X58928000Y-43688000D03*
D17*
X71120000Y-38608000D03*
D18*
X71120000Y-43688000D03*
D17*
X73152000Y-38608000D03*
D18*
X73152000Y-43688000D03*
D17*
X85344000Y-38608000D03*
D18*
X85344000Y-43688000D03*
D17*
X87376000Y-38608000D03*
D18*
X87376000Y-43688000D03*
D17*
X99568000Y-38608000D03*
D18*
X99568000Y-43688000D03*
D17*
X101600000Y-38608000D03*
D18*
X101600000Y-43688000D03*
D17*
X113792000Y-38608000D03*
D18*
X113792000Y-43688000D03*
D17*
X115824000Y-38608000D03*
D18*
X115824000Y-43688000D03*
D17*
X128016000Y-38608000D03*
D18*
X128016000Y-43688000D03*
D17*
X130048000Y-38608000D03*
D18*
X130048000Y-43688000D03*
D17*
X142240000Y-38608000D03*
D18*
X142240000Y-43688000D03*
D17*
X144526000Y-36322000D03*
D18*
X144526000Y-41402000D03*
D17*
X146812000Y-36322000D03*
D18*
X146812000Y-41402000D03*
D17*
X35560000Y-50038000D03*
D18*
X30480000Y-50038000D03*
D17*
X37592000Y-50038000D03*
D18*
X42672000Y-50038000D03*
D17*
X49784000Y-50038000D03*
D18*
X44704000Y-50038000D03*
D17*
X51816000Y-50038000D03*
D18*
X56896000Y-50038000D03*
D17*
X64008000Y-50038000D03*
D18*
X58928000Y-50038000D03*
D17*
X66040000Y-50038000D03*
D18*
X71120000Y-50038000D03*
D17*
X78232000Y-50038000D03*
D18*
X73152000Y-50038000D03*
D17*
X80264000Y-50038000D03*
D18*
X85344000Y-50038000D03*
D17*
X92456000Y-50038000D03*
D18*
X87376000Y-50038000D03*
D17*
X94488000Y-50038000D03*
D18*
X99568000Y-50038000D03*
D17*
X106680000Y-50038000D03*
D18*
X101600000Y-50038000D03*
D17*
X108712000Y-50038000D03*
D18*
X113792000Y-50038000D03*
D17*
X120904000Y-50038000D03*
D18*
X115824000Y-50038000D03*
D17*
X122936000Y-50038000D03*
D18*
X128016000Y-50038000D03*
D17*
X135128000Y-50038000D03*
D18*
X130048000Y-50038000D03*
D17*
X137160000Y-50038000D03*
D18*
X142240000Y-50038000D03*
D17*
X30480000Y-52324000D03*
D18*
X30480000Y-57404000D03*
D17*
X42672000Y-52324000D03*
D18*
X42672000Y-57404000D03*
D17*
X44704000Y-52324000D03*
D18*
X44704000Y-57404000D03*
D17*
X56896000Y-52324000D03*
D18*
X56896000Y-57404000D03*
D17*
X58928000Y-52324000D03*
D18*
X58928000Y-57404000D03*
D17*
X71120000Y-52324000D03*
D18*
X71120000Y-57404000D03*
D17*
X73152000Y-52324000D03*
D18*
X73152000Y-57404000D03*
D17*
X85344000Y-52324000D03*
D18*
X85344000Y-57404000D03*
D17*
X87376000Y-52324000D03*
D18*
X87376000Y-57404000D03*
D17*
X99568000Y-52324000D03*
D18*
X99568000Y-57404000D03*
D17*
X101600000Y-52324000D03*
D18*
X101600000Y-57404000D03*
D17*
X113792000Y-52324000D03*
D18*
X113792000Y-57404000D03*
D17*
X115824000Y-52324000D03*
D18*
X115824000Y-57404000D03*
D17*
X128016000Y-52324000D03*
D18*
X128016000Y-57404000D03*
D17*
X130048000Y-52324000D03*
D18*
X130048000Y-57404000D03*
D17*
X142240000Y-52324000D03*
D18*
X142240000Y-57404000D03*
D17*
X144526000Y-50038000D03*
D18*
X144526000Y-55118000D03*
D17*
X146812000Y-50038000D03*
D18*
X146812000Y-55118000D03*
D17*
X35560000Y-63754000D03*
D18*
X30480000Y-63754000D03*
D17*
X37592000Y-63754000D03*
D18*
X42672000Y-63754000D03*
D17*
X49784000Y-63754000D03*
D18*
X44704000Y-63754000D03*
D17*
X51816000Y-63754000D03*
D18*
X56896000Y-63754000D03*
D17*
X64008000Y-63754000D03*
D18*
X58928000Y-63754000D03*
D17*
X66040000Y-63754000D03*
D18*
X71120000Y-63754000D03*
D17*
X78232000Y-63754000D03*
D18*
X73152000Y-63754000D03*
D17*
X80264000Y-63754000D03*
D18*
X85344000Y-63754000D03*
D17*
X92456000Y-63754000D03*
D18*
X87376000Y-63754000D03*
D17*
X94488000Y-63754000D03*
D18*
X99568000Y-63754000D03*
D17*
X106680000Y-63754000D03*
D18*
X101600000Y-63754000D03*
D17*
X108712000Y-63754000D03*
D18*
X113792000Y-63754000D03*
D17*
X120904000Y-63754000D03*
D18*
X115824000Y-63754000D03*
D17*
X122936000Y-63754000D03*
D18*
X128016000Y-63754000D03*
D17*
X135128000Y-63754000D03*
D18*
X130048000Y-63754000D03*
D17*
X137160000Y-63754000D03*
D18*
X142240000Y-63754000D03*
D17*
X30480000Y-66040000D03*
D18*
X30480000Y-71120000D03*
D17*
X42672000Y-66040000D03*
D18*
X42672000Y-71120000D03*
D17*
X44704000Y-66040000D03*
D18*
X44704000Y-71120000D03*
D17*
X56896000Y-66040000D03*
D18*
X56896000Y-71120000D03*
D17*
X58928000Y-66040000D03*
D18*
X58928000Y-71120000D03*
D17*
X71120000Y-66040000D03*
D18*
X71120000Y-71120000D03*
D17*
X73152000Y-66040000D03*
D18*
X73152000Y-71120000D03*
D17*
X85344000Y-66040000D03*
D18*
X85344000Y-71120000D03*
D17*
X87376000Y-66040000D03*
D18*
X87376000Y-71120000D03*
D17*
X99568000Y-66040000D03*
D18*
X99568000Y-71120000D03*
D17*
X101600000Y-66040000D03*
D18*
X101600000Y-71120000D03*
D17*
X113792000Y-66040000D03*
D18*
X113792000Y-71120000D03*
D17*
X115824000Y-66040000D03*
D18*
X115824000Y-71120000D03*
D17*
X128016000Y-66040000D03*
D18*
X128016000Y-71120000D03*
D17*
X130048000Y-66040000D03*
D18*
X130048000Y-71120000D03*
D17*
X142240000Y-66040000D03*
D18*
X142240000Y-71120000D03*
D17*
X144526000Y-63754000D03*
D18*
X144526000Y-68834000D03*
D17*
X146812000Y-63754000D03*
D18*
X146812000Y-68834000D03*
D17*
X35560000Y-77470000D03*
D18*
X30480000Y-77470000D03*
D17*
X37592000Y-77470000D03*
D18*
X42672000Y-77470000D03*
D17*
X49784000Y-77470000D03*
D18*
X44704000Y-77470000D03*
D17*
X51816000Y-77470000D03*
D18*
X56896000Y-77470000D03*
D17*
X64008000Y-77470000D03*
D18*
X58928000Y-77470000D03*
D17*
X66040000Y-77470000D03*
D18*
X71120000Y-77470000D03*
D17*
X78232000Y-77470000D03*
D18*
X73152000Y-77470000D03*
D17*
X80264000Y-77470000D03*
D18*
X85344000Y-77470000D03*
D17*
X92456000Y-77470000D03*
D18*
X87376000Y-77470000D03*
D17*
X94488000Y-77470000D03*
D18*
X99568000Y-77470000D03*
D17*
X106680000Y-77470000D03*
D18*
X101600000Y-77470000D03*
D17*
X108712000Y-77470000D03*
D18*
X113792000Y-77470000D03*
D17*
X120904000Y-77470000D03*
D18*
X115824000Y-77470000D03*
D17*
X122936000Y-77470000D03*
D18*
X128016000Y-77470000D03*
D17*
X135128000Y-77470000D03*
D18*
X130048000Y-77470000D03*
D17*
X137160000Y-77470000D03*
D18*
X142240000Y-77470000D03*
D17*
X30480000Y-79756000D03*
D18*
X30480000Y-84836000D03*
D17*
X42672000Y-79756000D03*
D18*
X42672000Y-84836000D03*
D17*
X44704000Y-79756000D03*
D18*
X44704000Y-84836000D03*
D17*
X56896000Y-79756000D03*
D18*
X56896000Y-84836000D03*
D17*
X58928000Y-79756000D03*
D18*
X58928000Y-84836000D03*
D17*
X71120000Y-79756000D03*
D18*
X71120000Y-84836000D03*
D17*
X73152000Y-79756000D03*
D18*
X73152000Y-84836000D03*
D17*
X85344000Y-79756000D03*
D18*
X85344000Y-84836000D03*
D17*
X87376000Y-79756000D03*
D18*
X87376000Y-84836000D03*
D17*
X99568000Y-79756000D03*
D18*
X99568000Y-84836000D03*
D17*
X101600000Y-79756000D03*
D18*
X101600000Y-84836000D03*
D17*
X113792000Y-79756000D03*
D18*
X113792000Y-84836000D03*
D17*
X115824000Y-79756000D03*
D18*
X115824000Y-84836000D03*
D17*
X128016000Y-79756000D03*
D18*
X128016000Y-84836000D03*
D17*
X130048000Y-79756000D03*
D18*
X130048000Y-84836000D03*
D17*
X142240000Y-79756000D03*
D18*
X142240000Y-84836000D03*
D17*
X144526000Y-77216000D03*
D18*
X144526000Y-82296000D03*
D17*
X146812000Y-77216000D03*
D18*
X146812000Y-82296000D03*
D17*
X35560000Y-91186000D03*
D18*
X30480000Y-91186000D03*
D17*
X37592000Y-91186000D03*
D18*
X42672000Y-91186000D03*
D17*
X49784000Y-91186000D03*
D18*
X44704000Y-91186000D03*
D17*
X51816000Y-91186000D03*
D18*
X56896000Y-91186000D03*
D17*
X64008000Y-91186000D03*
D18*
X58928000Y-91186000D03*
D17*
X66040000Y-91186000D03*
D18*
X71120000Y-91186000D03*
D17*
X78232000Y-91186000D03*
D18*
X73152000Y-91186000D03*
D17*
X80264000Y-91186000D03*
D18*
X85344000Y-91186000D03*
D17*
X92456000Y-91186000D03*
D18*
X87376000Y-91186000D03*
D17*
X94488000Y-91186000D03*
D18*
X99568000Y-91186000D03*
D17*
X106680000Y-91186000D03*
D18*
X101600000Y-91186000D03*
D17*
X108712000Y-91186000D03*
D18*
X113792000Y-91186000D03*
D17*
X120904000Y-91186000D03*
D18*
X115824000Y-91186000D03*
D17*
X122936000Y-91186000D03*
D18*
X128016000Y-91186000D03*
D17*
X135128000Y-91186000D03*
D18*
X130048000Y-91186000D03*
D17*
X137160000Y-91186000D03*
D18*
X142240000Y-91186000D03*
D17*
X30480000Y-93472000D03*
D18*
X30480000Y-98552000D03*
D17*
X42672000Y-93472000D03*
D18*
X42672000Y-98552000D03*
D17*
X44704000Y-93472000D03*
D18*
X44704000Y-98552000D03*
D17*
X56896000Y-93472000D03*
D18*
X56896000Y-98552000D03*
D17*
X58928000Y-93472000D03*
D18*
X58928000Y-98552000D03*
D17*
X71120000Y-93472000D03*
D18*
X71120000Y-98552000D03*
D17*
X73152000Y-93472000D03*
D18*
X73152000Y-98552000D03*
D17*
X85344000Y-93472000D03*
D18*
X85344000Y-98552000D03*
D17*
X87376000Y-93472000D03*
D18*
X87376000Y-98552000D03*
D17*
X99568000Y-93472000D03*
D18*
X99568000Y-98552000D03*
D17*
X101600000Y-93472000D03*
D18*
X101600000Y-98552000D03*
D17*
X113792000Y-93472000D03*
D18*
X113792000Y-98552000D03*
D17*
X115824000Y-93472000D03*
D18*
X115824000Y-98552000D03*
D17*
X128016000Y-93472000D03*
D18*
X128016000Y-98552000D03*
D17*
X130048000Y-93472000D03*
D18*
X130048000Y-98552000D03*
D17*
X142240000Y-93472000D03*
D18*
X142240000Y-98552000D03*
D17*
X144526000Y-91186000D03*
D18*
X144526000Y-96266000D03*
D17*
X146812000Y-91186000D03*
D18*
X146812000Y-96266000D03*
D17*
X35560000Y-104902000D03*
D18*
X30480000Y-104902000D03*
D17*
X37592000Y-104902000D03*
D18*
X42672000Y-104902000D03*
D17*
X49784000Y-104902000D03*
D18*
X44704000Y-104902000D03*
D17*
X51816000Y-104902000D03*
D18*
X56896000Y-104902000D03*
D17*
X64008000Y-104902000D03*
D18*
X58928000Y-104902000D03*
D17*
X66040000Y-104902000D03*
D18*
X71120000Y-104902000D03*
D17*
X78232000Y-104902000D03*
D18*
X73152000Y-104902000D03*
D17*
X80264000Y-104902000D03*
D18*
X85344000Y-104902000D03*
D17*
X92456000Y-104902000D03*
D18*
X87376000Y-104902000D03*
D17*
X94488000Y-104902000D03*
D18*
X99568000Y-104902000D03*
D17*
X106680000Y-104902000D03*
D18*
X101600000Y-104902000D03*
D17*
X108712000Y-104902000D03*
D18*
X113792000Y-104902000D03*
D17*
X120904000Y-104902000D03*
D18*
X115824000Y-104902000D03*
D17*
X122936000Y-104902000D03*
D18*
X128016000Y-104902000D03*
D17*
X135128000Y-104902000D03*
D18*
X130048000Y-104902000D03*
D17*
X137160000Y-104902000D03*
D18*
X142240000Y-104902000D03*
D17*
X30480000Y-107188000D03*
D18*
X30480000Y-112268000D03*
D17*
X42672000Y-107188000D03*
D18*
X42672000Y-112268000D03*
D17*
X44704000Y-107188000D03*
D18*
X44704000Y-112268000D03*
D17*
X56896000Y-107188000D03*
D18*
X56896000Y-112268000D03*
D17*
X58928000Y-107188000D03*
D18*
X58928000Y-112268000D03*
D17*
X71120000Y-107188000D03*
D18*
X71120000Y-112268000D03*
D17*
X73152000Y-107188000D03*
D18*
X73152000Y-112268000D03*
D17*
X85344000Y-107188000D03*
D18*
X85344000Y-112268000D03*
D17*
X87376000Y-107188000D03*
D18*
X87376000Y-112268000D03*
D17*
X99568000Y-107188000D03*
D18*
X99568000Y-112268000D03*
D17*
X101600000Y-107188000D03*
D18*
X101600000Y-112268000D03*
D17*
X113792000Y-107188000D03*
D18*
X113792000Y-112268000D03*
D17*
X115824000Y-107188000D03*
D18*
X115824000Y-112268000D03*
D17*
X128016000Y-107188000D03*
D18*
X128016000Y-112268000D03*
D17*
X130048000Y-107188000D03*
D18*
X130048000Y-112268000D03*
D17*
X142240000Y-107188000D03*
D18*
X142240000Y-112268000D03*
D17*
X144526000Y-104902000D03*
D18*
X144526000Y-109982000D03*
D17*
X146812000Y-104902000D03*
D18*
X146812000Y-109982000D03*
D17*
X35560000Y-118618000D03*
D18*
X30480000Y-118618000D03*
D17*
X37592000Y-118618000D03*
D18*
X42672000Y-118618000D03*
D17*
X49784000Y-118618000D03*
D18*
X44704000Y-118618000D03*
D17*
X51816000Y-118618000D03*
D18*
X56896000Y-118618000D03*
D17*
X64008000Y-118618000D03*
D18*
X58928000Y-118618000D03*
D17*
X66040000Y-118618000D03*
D18*
X71120000Y-118618000D03*
D17*
X78232000Y-118618000D03*
D18*
X73152000Y-118618000D03*
D17*
X80264000Y-118618000D03*
D18*
X85344000Y-118618000D03*
D17*
X92456000Y-118618000D03*
D18*
X87376000Y-118618000D03*
D17*
X94488000Y-118618000D03*
D18*
X99568000Y-118618000D03*
D17*
X106680000Y-118618000D03*
D18*
X101600000Y-118618000D03*
D17*
X108712000Y-118618000D03*
D18*
X113792000Y-118618000D03*
D17*
X120904000Y-118618000D03*
D18*
X115824000Y-118618000D03*
D17*
X122936000Y-118618000D03*
D18*
X128016000Y-118618000D03*
D17*
X135128000Y-118618000D03*
D18*
X130048000Y-118618000D03*
D17*
X137160000Y-118618000D03*
D18*
X142240000Y-118618000D03*
D17*
X30480000Y-120904000D03*
D18*
X30480000Y-125984000D03*
D17*
X42672000Y-120904000D03*
D18*
X42672000Y-125984000D03*
D17*
X44704000Y-120904000D03*
D18*
X44704000Y-125984000D03*
D17*
X56896000Y-120904000D03*
D18*
X56896000Y-125984000D03*
D17*
X58928000Y-120904000D03*
D18*
X58928000Y-125984000D03*
D17*
X71120000Y-120904000D03*
D18*
X71120000Y-125984000D03*
D17*
X73152000Y-120904000D03*
D18*
X73152000Y-125984000D03*
D17*
X85344000Y-120904000D03*
D18*
X85344000Y-125984000D03*
D17*
X87376000Y-120904000D03*
D18*
X87376000Y-125984000D03*
D17*
X99568000Y-120904000D03*
D18*
X99568000Y-125984000D03*
D17*
X101600000Y-120904000D03*
D18*
X101600000Y-125984000D03*
D17*
X113792000Y-120904000D03*
D18*
X113792000Y-125984000D03*
D17*
X115824000Y-120904000D03*
D18*
X115824000Y-125984000D03*
D17*
X128016000Y-120904000D03*
D18*
X128016000Y-125984000D03*
D17*
X130048000Y-120904000D03*
D18*
X130048000Y-125984000D03*
D17*
X142240000Y-120904000D03*
D18*
X142240000Y-125984000D03*
D17*
X144526000Y-118618000D03*
D18*
X144526000Y-123698000D03*
D17*
X146812000Y-118618000D03*
D18*
X146812000Y-123698000D03*
D17*
X35560000Y-132334000D03*
D18*
X30480000Y-132334000D03*
D17*
X37592000Y-132334000D03*
D18*
X42672000Y-132334000D03*
D17*
X49784000Y-132334000D03*
D18*
X44704000Y-132334000D03*
D17*
X51816000Y-132334000D03*
D18*
X56896000Y-132334000D03*
D17*
X64008000Y-132334000D03*
D18*
X58928000Y-132334000D03*
D17*
X66040000Y-132334000D03*
D18*
X71120000Y-132334000D03*
D17*
X78232000Y-132334000D03*
D18*
X73152000Y-132334000D03*
D17*
X80264000Y-132334000D03*
D18*
X85344000Y-132334000D03*
D17*
X92456000Y-132334000D03*
D18*
X87376000Y-132334000D03*
D17*
X94488000Y-132334000D03*
D18*
X99568000Y-132334000D03*
D17*
X106680000Y-132334000D03*
D18*
X101600000Y-132334000D03*
D17*
X108712000Y-132334000D03*
D18*
X113792000Y-132334000D03*
D17*
X120904000Y-132334000D03*
D18*
X115824000Y-132334000D03*
D17*
X122936000Y-132334000D03*
D18*
X128016000Y-132334000D03*
D17*
X135128000Y-132334000D03*
D18*
X130048000Y-132334000D03*
D17*
X137160000Y-132334000D03*
D18*
X142240000Y-132334000D03*
D17*
X30480000Y-134620000D03*
D18*
X30480000Y-139700000D03*
D17*
X42672000Y-134620000D03*
D18*
X42672000Y-139700000D03*
D17*
X44704000Y-134620000D03*
D18*
X44704000Y-139700000D03*
D17*
X56896000Y-134620000D03*
D18*
X56896000Y-139700000D03*
D17*
X58928000Y-134620000D03*
D18*
X58928000Y-139700000D03*
D17*
X71120000Y-134620000D03*
D18*
X71120000Y-139700000D03*
D17*
X73152000Y-134620000D03*
D18*
X73152000Y-139700000D03*
D17*
X85344000Y-134620000D03*
D18*
X85344000Y-139700000D03*
D17*
X87376000Y-134620000D03*
D18*
X87376000Y-139700000D03*
D17*
X99568000Y-134620000D03*
D18*
X99568000Y-139700000D03*
D17*
X101600000Y-134620000D03*
D18*
X101600000Y-139700000D03*
D17*
X113792000Y-134620000D03*
D18*
X113792000Y-139700000D03*
D17*
X115824000Y-134620000D03*
D18*
X115824000Y-139700000D03*
D17*
X128016000Y-134620000D03*
D18*
X128016000Y-139700000D03*
D17*
X130048000Y-134620000D03*
D18*
X130048000Y-139700000D03*
D17*
X142240000Y-134620000D03*
D18*
X142240000Y-139700000D03*
D17*
X144526000Y-132334000D03*
D18*
X144526000Y-137414000D03*
D17*
X146812000Y-132334000D03*
D18*
X146812000Y-137414000D03*
D17*
X128016000Y-141986000D03*
D18*
X128016000Y-147066000D03*
D17*
X130048000Y-141986000D03*
D18*
X130048000Y-147066000D03*
D17*
X101600000Y-141986000D03*
D18*
X101600000Y-147066000D03*
M02*
