M48
;DRILL file {KiCad 4.0.7-e2-6376~61~ubuntu18.04.1} date Fri Aug 28 19:41:06 2020
;FORMAT={-:-/ absolute / inch / decimal}
FMAT,2
INCH,TZ
T1C0.016
T2C0.024
T3C0.028
%
G90
G05
M72
T1
X1.25Y-1.4
X1.25Y-1.93
X1.25Y-2.47
X1.25Y-3.02
X1.25Y-3.54
X1.25Y-4.09
X1.25Y-4.62
X1.25Y-5.16
X1.25Y-5.66
X1.25Y-5.7
X1.25Y-5.74
X1.28Y-1.86
X1.28Y-2.4
X1.28Y-2.94
X1.28Y-3.48
X1.28Y-4.02
X1.28Y-4.56
X1.28Y-5.1
X1.28Y-5.64
X1.6Y-5.68
X2.16Y-5.68
X2.72Y-5.68
X3.28Y-5.68
X3.84Y-5.68
X3.95Y-5.9
X4.Y-5.87
X4.06Y-5.16
X4.07Y-5.68
X4.08Y-5.75
X4.1Y-5.81
X4.33Y-5.86
X4.78Y-5.79
X5.19Y-5.16
X5.49Y-5.78
X5.83Y-1.78
X5.83Y-2.86
X5.83Y-3.94
X5.83Y-5.02
X5.86Y-2.32
X5.86Y-3.39
X5.86Y-4.48
X5.86Y-5.56
X6.01Y-2.1
X6.01Y-4.26
X6.04Y-3.17
X6.04Y-5.34
X6.07Y-2.15
X6.07Y-3.22
X6.07Y-5.89
X6.1Y-4.31
X6.1Y-5.39
X6.1Y-5.84
T2
X1.36Y-1.54
X1.36Y-1.59
X1.36Y-1.64
X1.36Y-1.76
X1.36Y-1.81
X1.36Y-1.86
X1.36Y-2.08
X1.36Y-2.13
X1.36Y-2.18
X1.36Y-2.3
X1.36Y-2.35
X1.36Y-2.4
X1.36Y-2.62
X1.36Y-2.67
X1.36Y-2.72
X1.36Y-2.84
X1.36Y-2.89
X1.36Y-2.94
X1.36Y-3.16
X1.36Y-3.21
X1.36Y-3.26
X1.36Y-3.38
X1.36Y-3.43
X1.36Y-3.48
X1.36Y-3.7
X1.36Y-3.75
X1.36Y-3.8
X1.36Y-3.92
X1.36Y-3.97
X1.36Y-4.02
X1.36Y-4.24
X1.36Y-4.29
X1.36Y-4.34
X1.36Y-4.46
X1.36Y-4.51
X1.36Y-4.56
X1.36Y-4.78
X1.36Y-4.83
X1.36Y-4.88
X1.36Y-5.
X1.36Y-5.05
X1.36Y-5.1
X1.36Y-5.32
X1.36Y-5.37
X1.36Y-5.42
X1.36Y-5.54
X1.36Y-5.59
X1.36Y-5.64
X1.55Y-1.54
X1.55Y-1.59
X1.55Y-1.64
X1.55Y-1.76
X1.55Y-1.81
X1.55Y-1.86
X1.55Y-2.08
X1.55Y-2.13
X1.55Y-2.18
X1.55Y-2.3
X1.55Y-2.35
X1.55Y-2.4
X1.55Y-2.62
X1.55Y-2.67
X1.55Y-2.72
X1.55Y-2.84
X1.55Y-2.89
X1.55Y-2.94
X1.55Y-3.16
X1.55Y-3.21
X1.55Y-3.26
X1.55Y-3.38
X1.55Y-3.43
X1.55Y-3.48
X1.55Y-3.7
X1.55Y-3.75
X1.55Y-3.8
X1.55Y-3.92
X1.55Y-3.97
X1.55Y-4.02
X1.55Y-4.24
X1.55Y-4.29
X1.55Y-4.34
X1.55Y-4.46
X1.55Y-4.51
X1.55Y-4.56
X1.55Y-4.78
X1.55Y-4.83
X1.55Y-4.88
X1.55Y-5.
X1.55Y-5.05
X1.55Y-5.1
X1.55Y-5.32
X1.55Y-5.37
X1.55Y-5.42
X1.55Y-5.54
X1.55Y-5.59
X1.55Y-5.64
X1.92Y-1.54
X1.92Y-1.59
X1.92Y-1.64
X1.92Y-1.76
X1.92Y-1.81
X1.92Y-1.86
X1.92Y-2.08
X1.92Y-2.13
X1.92Y-2.18
X1.92Y-2.3
X1.92Y-2.35
X1.92Y-2.4
X1.92Y-2.62
X1.92Y-2.67
X1.92Y-2.72
X1.92Y-2.84
X1.92Y-2.89
X1.92Y-2.94
X1.92Y-3.16
X1.92Y-3.21
X1.92Y-3.26
X1.92Y-3.38
X1.92Y-3.43
X1.92Y-3.48
X1.92Y-3.7
X1.92Y-3.75
X1.92Y-3.8
X1.92Y-3.92
X1.92Y-3.97
X1.92Y-4.02
X1.92Y-4.24
X1.92Y-4.29
X1.92Y-4.34
X1.92Y-4.46
X1.92Y-4.51
X1.92Y-4.56
X1.92Y-4.78
X1.92Y-4.83
X1.92Y-4.88
X1.92Y-5.
X1.92Y-5.05
X1.92Y-5.1
X1.92Y-5.32
X1.92Y-5.37
X1.92Y-5.42
X1.92Y-5.54
X1.92Y-5.59
X1.92Y-5.64
X2.11Y-1.54
X2.11Y-1.59
X2.11Y-1.64
X2.11Y-1.76
X2.11Y-1.81
X2.11Y-1.86
X2.11Y-2.08
X2.11Y-2.13
X2.11Y-2.18
X2.11Y-2.3
X2.11Y-2.35
X2.11Y-2.4
X2.11Y-2.62
X2.11Y-2.67
X2.11Y-2.72
X2.11Y-2.84
X2.11Y-2.89
X2.11Y-2.94
X2.11Y-3.16
X2.11Y-3.21
X2.11Y-3.26
X2.11Y-3.38
X2.11Y-3.43
X2.11Y-3.48
X2.11Y-3.7
X2.11Y-3.75
X2.11Y-3.8
X2.11Y-3.92
X2.11Y-3.97
X2.11Y-4.02
X2.11Y-4.24
X2.11Y-4.29
X2.11Y-4.34
X2.11Y-4.46
X2.11Y-4.51
X2.11Y-4.56
X2.11Y-4.78
X2.11Y-4.83
X2.11Y-4.88
X2.11Y-5.
X2.11Y-5.05
X2.11Y-5.1
X2.11Y-5.32
X2.11Y-5.37
X2.11Y-5.42
X2.11Y-5.54
X2.11Y-5.59
X2.11Y-5.64
X2.48Y-1.54
X2.48Y-1.59
X2.48Y-1.64
X2.48Y-1.76
X2.48Y-1.81
X2.48Y-1.86
X2.48Y-2.08
X2.48Y-2.13
X2.48Y-2.18
X2.48Y-2.3
X2.48Y-2.35
X2.48Y-2.4
X2.48Y-2.62
X2.48Y-2.67
X2.48Y-2.72
X2.48Y-2.84
X2.48Y-2.89
X2.48Y-2.94
X2.48Y-3.16
X2.48Y-3.21
X2.48Y-3.26
X2.48Y-3.38
X2.48Y-3.43
X2.48Y-3.48
X2.48Y-3.7
X2.48Y-3.75
X2.48Y-3.8
X2.48Y-3.92
X2.48Y-3.97
X2.48Y-4.02
X2.48Y-4.24
X2.48Y-4.29
X2.48Y-4.34
X2.48Y-4.46
X2.48Y-4.51
X2.48Y-4.56
X2.48Y-4.78
X2.48Y-4.83
X2.48Y-4.88
X2.48Y-5.
X2.48Y-5.05
X2.48Y-5.1
X2.48Y-5.32
X2.48Y-5.37
X2.48Y-5.42
X2.48Y-5.54
X2.48Y-5.59
X2.48Y-5.64
X2.67Y-1.54
X2.67Y-1.59
X2.67Y-1.64
X2.67Y-1.76
X2.67Y-1.81
X2.67Y-1.86
X2.67Y-2.08
X2.67Y-2.13
X2.67Y-2.18
X2.67Y-2.3
X2.67Y-2.35
X2.67Y-2.4
X2.67Y-2.62
X2.67Y-2.67
X2.67Y-2.72
X2.67Y-2.84
X2.67Y-2.89
X2.67Y-2.94
X2.67Y-3.16
X2.67Y-3.21
X2.67Y-3.26
X2.67Y-3.38
X2.67Y-3.43
X2.67Y-3.48
X2.67Y-3.7
X2.67Y-3.75
X2.67Y-3.8
X2.67Y-3.92
X2.67Y-3.97
X2.67Y-4.02
X2.67Y-4.24
X2.67Y-4.29
X2.67Y-4.34
X2.67Y-4.46
X2.67Y-4.51
X2.67Y-4.56
X2.67Y-4.78
X2.67Y-4.83
X2.67Y-4.88
X2.67Y-5.
X2.67Y-5.05
X2.67Y-5.1
X2.67Y-5.32
X2.67Y-5.37
X2.67Y-5.42
X2.67Y-5.54
X2.67Y-5.59
X2.67Y-5.64
X3.04Y-1.54
X3.04Y-1.59
X3.04Y-1.64
X3.04Y-1.76
X3.04Y-1.81
X3.04Y-1.86
X3.04Y-2.08
X3.04Y-2.13
X3.04Y-2.18
X3.04Y-2.3
X3.04Y-2.35
X3.04Y-2.4
X3.04Y-2.62
X3.04Y-2.67
X3.04Y-2.72
X3.04Y-2.84
X3.04Y-2.89
X3.04Y-2.94
X3.04Y-3.16
X3.04Y-3.21
X3.04Y-3.26
X3.04Y-3.38
X3.04Y-3.43
X3.04Y-3.48
X3.04Y-3.7
X3.04Y-3.75
X3.04Y-3.8
X3.04Y-3.92
X3.04Y-3.97
X3.04Y-4.02
X3.04Y-4.24
X3.04Y-4.29
X3.04Y-4.34
X3.04Y-4.46
X3.04Y-4.51
X3.04Y-4.56
X3.04Y-4.78
X3.04Y-4.83
X3.04Y-4.88
X3.04Y-5.
X3.04Y-5.05
X3.04Y-5.1
X3.04Y-5.32
X3.04Y-5.37
X3.04Y-5.42
X3.04Y-5.54
X3.04Y-5.59
X3.04Y-5.64
X3.23Y-1.54
X3.23Y-1.59
X3.23Y-1.64
X3.23Y-1.76
X3.23Y-1.81
X3.23Y-1.86
X3.23Y-2.08
X3.23Y-2.13
X3.23Y-2.18
X3.23Y-2.3
X3.23Y-2.35
X3.23Y-2.4
X3.23Y-2.62
X3.23Y-2.67
X3.23Y-2.72
X3.23Y-2.84
X3.23Y-2.89
X3.23Y-2.94
X3.23Y-3.16
X3.23Y-3.21
X3.23Y-3.26
X3.23Y-3.38
X3.23Y-3.43
X3.23Y-3.48
X3.23Y-3.7
X3.23Y-3.75
X3.23Y-3.8
X3.23Y-3.92
X3.23Y-3.97
X3.23Y-4.02
X3.23Y-4.24
X3.23Y-4.29
X3.23Y-4.34
X3.23Y-4.46
X3.23Y-4.51
X3.23Y-4.56
X3.23Y-4.78
X3.23Y-4.83
X3.23Y-4.88
X3.23Y-5.
X3.23Y-5.05
X3.23Y-5.1
X3.23Y-5.32
X3.23Y-5.37
X3.23Y-5.42
X3.23Y-5.54
X3.23Y-5.59
X3.23Y-5.64
X3.6Y-1.54
X3.6Y-1.59
X3.6Y-1.64
X3.6Y-1.76
X3.6Y-1.81
X3.6Y-1.86
X3.6Y-2.08
X3.6Y-2.13
X3.6Y-2.18
X3.6Y-2.3
X3.6Y-2.35
X3.6Y-2.4
X3.6Y-2.62
X3.6Y-2.67
X3.6Y-2.72
X3.6Y-2.84
X3.6Y-2.89
X3.6Y-2.94
X3.6Y-3.16
X3.6Y-3.21
X3.6Y-3.26
X3.6Y-3.38
X3.6Y-3.43
X3.6Y-3.48
X3.6Y-3.7
X3.6Y-3.75
X3.6Y-3.8
X3.6Y-3.92
X3.6Y-3.97
X3.6Y-4.02
X3.6Y-4.24
X3.6Y-4.29
X3.6Y-4.34
X3.6Y-4.46
X3.6Y-4.51
X3.6Y-4.56
X3.6Y-4.78
X3.6Y-4.83
X3.6Y-4.88
X3.6Y-5.
X3.6Y-5.05
X3.6Y-5.1
X3.6Y-5.32
X3.6Y-5.37
X3.6Y-5.42
X3.6Y-5.54
X3.6Y-5.59
X3.6Y-5.64
X3.79Y-1.54
X3.79Y-1.59
X3.79Y-1.64
X3.79Y-1.76
X3.79Y-1.81
X3.79Y-1.86
X3.79Y-2.08
X3.79Y-2.13
X3.79Y-2.18
X3.79Y-2.3
X3.79Y-2.35
X3.79Y-2.4
X3.79Y-2.62
X3.79Y-2.67
X3.79Y-2.72
X3.79Y-2.84
X3.79Y-2.89
X3.79Y-2.94
X3.79Y-3.16
X3.79Y-3.21
X3.79Y-3.26
X3.79Y-3.38
X3.79Y-3.43
X3.79Y-3.48
X3.79Y-3.7
X3.79Y-3.75
X3.79Y-3.8
X3.79Y-3.92
X3.79Y-3.97
X3.79Y-4.02
X3.79Y-4.24
X3.79Y-4.29
X3.79Y-4.34
X3.79Y-4.46
X3.79Y-4.51
X3.79Y-4.56
X3.79Y-4.78
X3.79Y-4.83
X3.79Y-4.88
X3.79Y-5.
X3.79Y-5.05
X3.79Y-5.1
X3.79Y-5.32
X3.79Y-5.37
X3.79Y-5.42
X3.79Y-5.54
X3.79Y-5.59
X3.79Y-5.64
X4.16Y-1.54
X4.16Y-1.59
X4.16Y-1.64
X4.16Y-1.76
X4.16Y-1.81
X4.16Y-1.86
X4.16Y-2.08
X4.16Y-2.13
X4.16Y-2.18
X4.16Y-2.3
X4.16Y-2.35
X4.16Y-2.4
X4.16Y-2.62
X4.16Y-2.67
X4.16Y-2.72
X4.16Y-2.84
X4.16Y-2.89
X4.16Y-2.94
X4.16Y-3.16
X4.16Y-3.21
X4.16Y-3.26
X4.16Y-3.38
X4.16Y-3.43
X4.16Y-3.48
X4.16Y-3.7
X4.16Y-3.75
X4.16Y-3.8
X4.16Y-3.92
X4.16Y-3.97
X4.16Y-4.02
X4.16Y-4.24
X4.16Y-4.29
X4.16Y-4.34
X4.16Y-4.46
X4.16Y-4.51
X4.16Y-4.56
X4.16Y-4.78
X4.16Y-4.83
X4.16Y-4.88
X4.16Y-5.
X4.16Y-5.05
X4.16Y-5.1
X4.16Y-5.32
X4.16Y-5.37
X4.16Y-5.42
X4.16Y-5.54
X4.16Y-5.59
X4.16Y-5.64
X4.17Y-5.81
X4.22Y-5.81
X4.27Y-5.81
X4.35Y-1.54
X4.35Y-1.59
X4.35Y-1.64
X4.35Y-1.76
X4.35Y-1.81
X4.35Y-1.86
X4.35Y-2.08
X4.35Y-2.13
X4.35Y-2.18
X4.35Y-2.3
X4.35Y-2.35
X4.35Y-2.4
X4.35Y-2.62
X4.35Y-2.67
X4.35Y-2.72
X4.35Y-2.84
X4.35Y-2.89
X4.35Y-2.94
X4.35Y-3.16
X4.35Y-3.21
X4.35Y-3.26
X4.35Y-3.38
X4.35Y-3.43
X4.35Y-3.48
X4.35Y-3.7
X4.35Y-3.75
X4.35Y-3.8
X4.35Y-3.92
X4.35Y-3.97
X4.35Y-4.02
X4.35Y-4.24
X4.35Y-4.29
X4.35Y-4.34
X4.35Y-4.46
X4.35Y-4.51
X4.35Y-4.56
X4.35Y-4.78
X4.35Y-4.83
X4.35Y-4.88
X4.35Y-5.
X4.35Y-5.05
X4.35Y-5.1
X4.35Y-5.32
X4.35Y-5.37
X4.35Y-5.42
X4.35Y-5.54
X4.35Y-5.59
X4.35Y-5.64
X4.39Y-5.81
X4.44Y-5.81
X4.49Y-5.81
X4.61Y-5.81
X4.66Y-5.81
X4.71Y-5.81
X4.72Y-1.54
X4.72Y-1.59
X4.72Y-1.64
X4.72Y-1.76
X4.72Y-1.81
X4.72Y-1.86
X4.72Y-2.08
X4.72Y-2.13
X4.72Y-2.18
X4.72Y-2.3
X4.72Y-2.35
X4.72Y-2.4
X4.72Y-2.62
X4.72Y-2.67
X4.72Y-2.72
X4.72Y-2.84
X4.72Y-2.89
X4.72Y-2.94
X4.72Y-3.16
X4.72Y-3.21
X4.72Y-3.26
X4.72Y-3.38
X4.72Y-3.43
X4.72Y-3.48
X4.72Y-3.7
X4.72Y-3.75
X4.72Y-3.8
X4.72Y-3.92
X4.72Y-3.97
X4.72Y-4.02
X4.72Y-4.24
X4.72Y-4.29
X4.72Y-4.34
X4.72Y-4.46
X4.72Y-4.51
X4.72Y-4.56
X4.72Y-4.78
X4.72Y-4.83
X4.72Y-4.88
X4.72Y-5.
X4.72Y-5.05
X4.72Y-5.1
X4.72Y-5.32
X4.72Y-5.37
X4.72Y-5.42
X4.72Y-5.54
X4.72Y-5.59
X4.72Y-5.64
X4.83Y-5.81
X4.88Y-5.81
X4.91Y-1.54
X4.91Y-1.59
X4.91Y-1.64
X4.91Y-1.76
X4.91Y-1.81
X4.91Y-1.86
X4.91Y-2.08
X4.91Y-2.13
X4.91Y-2.18
X4.91Y-2.3
X4.91Y-2.35
X4.91Y-2.4
X4.91Y-2.62
X4.91Y-2.67
X4.91Y-2.72
X4.91Y-2.84
X4.91Y-2.89
X4.91Y-2.94
X4.91Y-3.16
X4.91Y-3.21
X4.91Y-3.26
X4.91Y-3.38
X4.91Y-3.43
X4.91Y-3.48
X4.91Y-3.7
X4.91Y-3.75
X4.91Y-3.8
X4.91Y-3.92
X4.91Y-3.97
X4.91Y-4.02
X4.91Y-4.24
X4.91Y-4.29
X4.91Y-4.34
X4.91Y-4.46
X4.91Y-4.51
X4.91Y-4.56
X4.91Y-4.78
X4.91Y-4.83
X4.91Y-4.88
X4.91Y-5.
X4.91Y-5.05
X4.91Y-5.1
X4.91Y-5.32
X4.91Y-5.37
X4.91Y-5.42
X4.91Y-5.54
X4.91Y-5.59
X4.91Y-5.64
X4.93Y-5.81
X5.28Y-1.54
X5.28Y-1.59
X5.28Y-1.64
X5.28Y-1.76
X5.28Y-1.81
X5.28Y-1.86
X5.28Y-2.08
X5.28Y-2.13
X5.28Y-2.18
X5.28Y-2.3
X5.28Y-2.35
X5.28Y-2.4
X5.28Y-2.62
X5.28Y-2.67
X5.28Y-2.72
X5.28Y-2.84
X5.28Y-2.89
X5.28Y-2.94
X5.28Y-3.16
X5.28Y-3.21
X5.28Y-3.26
X5.28Y-3.38
X5.28Y-3.43
X5.28Y-3.48
X5.28Y-3.7
X5.28Y-3.75
X5.28Y-3.8
X5.28Y-3.92
X5.28Y-3.97
X5.28Y-4.02
X5.28Y-4.24
X5.28Y-4.29
X5.28Y-4.34
X5.28Y-4.46
X5.28Y-4.51
X5.28Y-4.56
X5.28Y-4.78
X5.28Y-4.83
X5.28Y-4.88
X5.28Y-5.
X5.28Y-5.05
X5.28Y-5.1
X5.28Y-5.32
X5.28Y-5.37
X5.28Y-5.42
X5.28Y-5.54
X5.28Y-5.59
X5.28Y-5.64
X5.47Y-1.54
X5.47Y-1.59
X5.47Y-1.64
X5.47Y-1.76
X5.47Y-1.81
X5.47Y-1.86
X5.47Y-2.08
X5.47Y-2.13
X5.47Y-2.18
X5.47Y-2.3
X5.47Y-2.35
X5.47Y-2.4
X5.47Y-2.62
X5.47Y-2.67
X5.47Y-2.72
X5.47Y-2.84
X5.47Y-2.89
X5.47Y-2.94
X5.47Y-3.16
X5.47Y-3.21
X5.47Y-3.26
X5.47Y-3.38
X5.47Y-3.43
X5.47Y-3.48
X5.47Y-3.7
X5.47Y-3.75
X5.47Y-3.8
X5.47Y-3.92
X5.47Y-3.97
X5.47Y-4.02
X5.47Y-4.24
X5.47Y-4.29
X5.47Y-4.34
X5.47Y-4.46
X5.47Y-4.51
X5.47Y-4.56
X5.47Y-4.78
X5.47Y-4.83
X5.47Y-4.88
X5.47Y-5.
X5.47Y-5.05
X5.47Y-5.1
X5.47Y-5.32
X5.47Y-5.37
X5.47Y-5.42
X5.47Y-5.54
X5.47Y-5.59
X5.47Y-5.64
X5.67Y-5.73
X5.67Y-5.78
X5.67Y-5.83
X5.76Y-1.73
X5.76Y-1.78
X5.76Y-1.83
X5.76Y-2.27
X5.76Y-2.32
X5.76Y-2.37
X5.76Y-2.81
X5.76Y-2.86
X5.76Y-2.91
X5.76Y-3.34
X5.76Y-3.39
X5.76Y-3.44
X5.76Y-3.89
X5.76Y-3.94
X5.76Y-3.99
X5.76Y-4.43
X5.76Y-4.48
X5.76Y-4.53
X5.76Y-4.97
X5.76Y-5.02
X5.76Y-5.07
X5.76Y-5.51
X5.76Y-5.56
X5.76Y-5.61
X5.91Y-5.73
X5.91Y-5.78
X5.91Y-5.83
X5.95Y-1.73
X5.95Y-1.78
X5.95Y-1.83
X5.95Y-2.05
X5.95Y-2.1
X5.95Y-2.15
X5.95Y-2.27
X5.95Y-2.32
X5.95Y-2.37
X5.95Y-2.81
X5.95Y-2.86
X5.95Y-2.91
X5.95Y-3.12
X5.95Y-3.17
X5.95Y-3.22
X5.95Y-3.34
X5.95Y-3.39
X5.95Y-3.44
X5.95Y-3.89
X5.95Y-3.94
X5.95Y-3.99
X5.95Y-4.21
X5.95Y-4.26
X5.95Y-4.31
X5.95Y-4.43
X5.95Y-4.48
X5.95Y-4.53
X5.95Y-4.97
X5.95Y-5.02
X5.95Y-5.07
X5.95Y-5.29
X5.95Y-5.34
X5.95Y-5.39
X5.95Y-5.51
X5.95Y-5.56
X5.95Y-5.61
T3
X1.2Y-1.43
X1.2Y-1.52
X1.2Y-1.72
X1.2Y-1.97
X1.2Y-2.06
X1.2Y-2.26
X1.2Y-2.51
X1.2Y-2.6
X1.2Y-2.8
X1.2Y-3.05
X1.2Y-3.14
X1.2Y-3.34
X1.2Y-3.59
X1.2Y-3.68
X1.2Y-3.88
X1.2Y-4.13
X1.2Y-4.22
X1.2Y-4.42
X1.2Y-4.67
X1.2Y-4.76
X1.2Y-4.96
X1.2Y-5.21
X1.2Y-5.3
X1.2Y-5.5
X1.4Y-1.43
X1.4Y-1.97
X1.4Y-2.51
X1.4Y-3.05
X1.4Y-3.59
X1.4Y-4.13
X1.4Y-4.67
X1.4Y-5.21
X1.48Y-1.43
X1.48Y-1.97
X1.48Y-2.51
X1.48Y-3.05
X1.48Y-3.59
X1.48Y-4.13
X1.48Y-4.67
X1.48Y-5.21
X1.68Y-1.43
X1.68Y-1.52
X1.68Y-1.72
X1.68Y-1.97
X1.68Y-2.06
X1.68Y-2.26
X1.68Y-2.51
X1.68Y-2.6
X1.68Y-2.8
X1.68Y-3.05
X1.68Y-3.14
X1.68Y-3.34
X1.68Y-3.59
X1.68Y-3.68
X1.68Y-3.88
X1.68Y-4.13
X1.68Y-4.22
X1.68Y-4.42
X1.68Y-4.67
X1.68Y-4.76
X1.68Y-4.96
X1.68Y-5.21
X1.68Y-5.3
X1.68Y-5.5
X1.76Y-1.43
X1.76Y-1.52
X1.76Y-1.72
X1.76Y-1.97
X1.76Y-2.06
X1.76Y-2.26
X1.76Y-2.51
X1.76Y-2.6
X1.76Y-2.8
X1.76Y-3.05
X1.76Y-3.14
X1.76Y-3.34
X1.76Y-3.59
X1.76Y-3.68
X1.76Y-3.88
X1.76Y-4.13
X1.76Y-4.22
X1.76Y-4.42
X1.76Y-4.67
X1.76Y-4.76
X1.76Y-4.96
X1.76Y-5.21
X1.76Y-5.3
X1.76Y-5.5
X1.96Y-1.43
X1.96Y-1.97
X1.96Y-2.51
X1.96Y-3.05
X1.96Y-3.59
X1.96Y-4.13
X1.96Y-4.67
X1.96Y-5.21
X2.04Y-1.43
X2.04Y-1.97
X2.04Y-2.51
X2.04Y-3.05
X2.04Y-3.59
X2.04Y-4.13
X2.04Y-4.67
X2.04Y-5.21
X2.24Y-1.43
X2.24Y-1.52
X2.24Y-1.72
X2.24Y-1.97
X2.24Y-2.06
X2.24Y-2.26
X2.24Y-2.51
X2.24Y-2.6
X2.24Y-2.8
X2.24Y-3.05
X2.24Y-3.14
X2.24Y-3.34
X2.24Y-3.59
X2.24Y-3.68
X2.24Y-3.88
X2.24Y-4.13
X2.24Y-4.22
X2.24Y-4.42
X2.24Y-4.67
X2.24Y-4.76
X2.24Y-4.96
X2.24Y-5.21
X2.24Y-5.3
X2.24Y-5.5
X2.32Y-1.43
X2.32Y-1.52
X2.32Y-1.72
X2.32Y-1.97
X2.32Y-2.06
X2.32Y-2.26
X2.32Y-2.51
X2.32Y-2.6
X2.32Y-2.8
X2.32Y-3.05
X2.32Y-3.14
X2.32Y-3.34
X2.32Y-3.59
X2.32Y-3.68
X2.32Y-3.88
X2.32Y-4.13
X2.32Y-4.22
X2.32Y-4.42
X2.32Y-4.67
X2.32Y-4.76
X2.32Y-4.96
X2.32Y-5.21
X2.32Y-5.3
X2.32Y-5.5
X2.52Y-1.43
X2.52Y-1.97
X2.52Y-2.51
X2.52Y-3.05
X2.52Y-3.59
X2.52Y-4.13
X2.52Y-4.67
X2.52Y-5.21
X2.6Y-1.43
X2.6Y-1.97
X2.6Y-2.51
X2.6Y-3.05
X2.6Y-3.59
X2.6Y-4.13
X2.6Y-4.67
X2.6Y-5.21
X2.8Y-1.43
X2.8Y-1.52
X2.8Y-1.72
X2.8Y-1.97
X2.8Y-2.06
X2.8Y-2.26
X2.8Y-2.51
X2.8Y-2.6
X2.8Y-2.8
X2.8Y-3.05
X2.8Y-3.14
X2.8Y-3.34
X2.8Y-3.59
X2.8Y-3.68
X2.8Y-3.88
X2.8Y-4.13
X2.8Y-4.22
X2.8Y-4.42
X2.8Y-4.67
X2.8Y-4.76
X2.8Y-4.96
X2.8Y-5.21
X2.8Y-5.3
X2.8Y-5.5
X2.88Y-1.43
X2.88Y-1.52
X2.88Y-1.72
X2.88Y-1.97
X2.88Y-2.06
X2.88Y-2.26
X2.88Y-2.51
X2.88Y-2.6
X2.88Y-2.8
X2.88Y-3.05
X2.88Y-3.14
X2.88Y-3.34
X2.88Y-3.59
X2.88Y-3.68
X2.88Y-3.88
X2.88Y-4.13
X2.88Y-4.22
X2.88Y-4.42
X2.88Y-4.67
X2.88Y-4.76
X2.88Y-4.96
X2.88Y-5.21
X2.88Y-5.3
X2.88Y-5.5
X3.08Y-1.43
X3.08Y-1.97
X3.08Y-2.51
X3.08Y-3.05
X3.08Y-3.59
X3.08Y-4.13
X3.08Y-4.67
X3.08Y-5.21
X3.16Y-1.43
X3.16Y-1.97
X3.16Y-2.51
X3.16Y-3.05
X3.16Y-3.59
X3.16Y-4.13
X3.16Y-4.67
X3.16Y-5.21
X3.36Y-1.43
X3.36Y-1.52
X3.36Y-1.72
X3.36Y-1.97
X3.36Y-2.06
X3.36Y-2.26
X3.36Y-2.51
X3.36Y-2.6
X3.36Y-2.8
X3.36Y-3.05
X3.36Y-3.14
X3.36Y-3.34
X3.36Y-3.59
X3.36Y-3.68
X3.36Y-3.88
X3.36Y-4.13
X3.36Y-4.22
X3.36Y-4.42
X3.36Y-4.67
X3.36Y-4.76
X3.36Y-4.96
X3.36Y-5.21
X3.36Y-5.3
X3.36Y-5.5
X3.44Y-1.43
X3.44Y-1.52
X3.44Y-1.72
X3.44Y-1.97
X3.44Y-2.06
X3.44Y-2.26
X3.44Y-2.51
X3.44Y-2.6
X3.44Y-2.8
X3.44Y-3.05
X3.44Y-3.14
X3.44Y-3.34
X3.44Y-3.59
X3.44Y-3.68
X3.44Y-3.88
X3.44Y-4.13
X3.44Y-4.22
X3.44Y-4.42
X3.44Y-4.67
X3.44Y-4.76
X3.44Y-4.96
X3.44Y-5.21
X3.44Y-5.3
X3.44Y-5.5
X3.64Y-1.43
X3.64Y-1.97
X3.64Y-2.51
X3.64Y-3.05
X3.64Y-3.59
X3.64Y-4.13
X3.64Y-4.67
X3.64Y-5.21
X3.72Y-1.43
X3.72Y-1.97
X3.72Y-2.51
X3.72Y-3.05
X3.72Y-3.59
X3.72Y-4.13
X3.72Y-4.67
X3.72Y-5.21
X3.92Y-1.43
X3.92Y-1.52
X3.92Y-1.72
X3.92Y-1.97
X3.92Y-2.06
X3.92Y-2.26
X3.92Y-2.51
X3.92Y-2.6
X3.92Y-2.8
X3.92Y-3.05
X3.92Y-3.14
X3.92Y-3.34
X3.92Y-3.59
X3.92Y-3.68
X3.92Y-3.88
X3.92Y-4.13
X3.92Y-4.22
X3.92Y-4.42
X3.92Y-4.67
X3.92Y-4.76
X3.92Y-4.96
X3.92Y-5.21
X3.92Y-5.3
X3.92Y-5.5
X4.Y-1.43
X4.Y-1.52
X4.Y-1.72
X4.Y-1.97
X4.Y-2.06
X4.Y-2.26
X4.Y-2.51
X4.Y-2.6
X4.Y-2.8
X4.Y-3.05
X4.Y-3.14
X4.Y-3.34
X4.Y-3.59
X4.Y-3.68
X4.Y-3.88
X4.Y-4.13
X4.Y-4.22
X4.Y-4.42
X4.Y-4.67
X4.Y-4.76
X4.Y-4.96
X4.Y-5.21
X4.Y-5.3
X4.Y-5.5
X4.Y-5.59
X4.Y-5.79
X4.2Y-1.43
X4.2Y-1.97
X4.2Y-2.51
X4.2Y-3.05
X4.2Y-3.59
X4.2Y-4.13
X4.2Y-4.67
X4.2Y-5.21
X4.28Y-1.43
X4.28Y-1.97
X4.28Y-2.51
X4.28Y-3.05
X4.28Y-3.59
X4.28Y-4.13
X4.28Y-4.67
X4.28Y-5.21
X4.48Y-1.43
X4.48Y-1.52
X4.48Y-1.72
X4.48Y-1.97
X4.48Y-2.06
X4.48Y-2.26
X4.48Y-2.51
X4.48Y-2.6
X4.48Y-2.8
X4.48Y-3.05
X4.48Y-3.14
X4.48Y-3.34
X4.48Y-3.59
X4.48Y-3.68
X4.48Y-3.88
X4.48Y-4.13
X4.48Y-4.22
X4.48Y-4.42
X4.48Y-4.67
X4.48Y-4.76
X4.48Y-4.96
X4.48Y-5.21
X4.48Y-5.3
X4.48Y-5.5
X4.56Y-1.43
X4.56Y-1.52
X4.56Y-1.72
X4.56Y-1.97
X4.56Y-2.06
X4.56Y-2.26
X4.56Y-2.51
X4.56Y-2.6
X4.56Y-2.8
X4.56Y-3.05
X4.56Y-3.14
X4.56Y-3.34
X4.56Y-3.59
X4.56Y-3.68
X4.56Y-3.88
X4.56Y-4.13
X4.56Y-4.22
X4.56Y-4.42
X4.56Y-4.67
X4.56Y-4.76
X4.56Y-4.96
X4.56Y-5.21
X4.56Y-5.3
X4.56Y-5.5
X4.76Y-1.43
X4.76Y-1.97
X4.76Y-2.51
X4.76Y-3.05
X4.76Y-3.59
X4.76Y-4.13
X4.76Y-4.67
X4.76Y-5.21
X4.84Y-1.43
X4.84Y-1.97
X4.84Y-2.51
X4.84Y-3.05
X4.84Y-3.59
X4.84Y-4.13
X4.84Y-4.67
X4.84Y-5.21
X5.04Y-1.43
X5.04Y-1.52
X5.04Y-1.72
X5.04Y-1.97
X5.04Y-2.06
X5.04Y-2.26
X5.04Y-2.51
X5.04Y-2.6
X5.04Y-2.8
X5.04Y-3.05
X5.04Y-3.14
X5.04Y-3.34
X5.04Y-3.59
X5.04Y-3.68
X5.04Y-3.88
X5.04Y-4.13
X5.04Y-4.22
X5.04Y-4.42
X5.04Y-4.67
X5.04Y-4.76
X5.04Y-4.96
X5.04Y-5.21
X5.04Y-5.3
X5.04Y-5.5
X5.04Y-5.59
X5.04Y-5.79
X5.12Y-1.43
X5.12Y-1.52
X5.12Y-1.72
X5.12Y-1.97
X5.12Y-2.06
X5.12Y-2.26
X5.12Y-2.51
X5.12Y-2.6
X5.12Y-2.8
X5.12Y-3.05
X5.12Y-3.14
X5.12Y-3.34
X5.12Y-3.59
X5.12Y-3.68
X5.12Y-3.88
X5.12Y-4.13
X5.12Y-4.22
X5.12Y-4.42
X5.12Y-4.67
X5.12Y-4.76
X5.12Y-4.96
X5.12Y-5.21
X5.12Y-5.3
X5.12Y-5.5
X5.12Y-5.59
X5.12Y-5.79
X5.32Y-1.43
X5.32Y-1.97
X5.32Y-2.51
X5.32Y-3.05
X5.32Y-3.59
X5.32Y-4.13
X5.32Y-4.67
X5.32Y-5.21
X5.4Y-1.43
X5.4Y-1.97
X5.4Y-2.51
X5.4Y-3.05
X5.4Y-3.59
X5.4Y-4.13
X5.4Y-4.67
X5.4Y-5.21
X5.6Y-1.43
X5.6Y-1.52
X5.6Y-1.72
X5.6Y-1.97
X5.6Y-2.06
X5.6Y-2.26
X5.6Y-2.51
X5.6Y-2.6
X5.6Y-2.8
X5.6Y-3.05
X5.6Y-3.14
X5.6Y-3.34
X5.6Y-3.59
X5.6Y-3.68
X5.6Y-3.88
X5.6Y-4.13
X5.6Y-4.22
X5.6Y-4.42
X5.6Y-4.67
X5.6Y-4.76
X5.6Y-4.96
X5.6Y-5.21
X5.6Y-5.3
X5.6Y-5.5
X5.69Y-1.43
X5.69Y-1.63
X5.69Y-1.97
X5.69Y-2.17
X5.69Y-2.51
X5.69Y-2.71
X5.69Y-3.04
X5.69Y-3.24
X5.69Y-3.59
X5.69Y-3.79
X5.69Y-4.13
X5.69Y-4.33
X5.69Y-4.67
X5.69Y-4.87
X5.69Y-5.21
X5.69Y-5.41
X5.78Y-1.43
X5.78Y-1.63
X5.78Y-1.97
X5.78Y-2.17
X5.78Y-2.51
X5.78Y-2.71
X5.78Y-3.04
X5.78Y-3.24
X5.78Y-3.59
X5.78Y-3.79
X5.78Y-4.13
X5.78Y-4.33
X5.78Y-4.67
X5.78Y-4.87
X5.78Y-5.21
X5.78Y-5.41
T0
M30
