M48
;DRILL file {KiCad 4.0.7-e2-6376~61~ubuntu18.04.1} date Sun Jul 14 08:04:15 2019
;FORMAT={-:-/ absolute / inch / decimal}
FMAT,2
INCH,TZ
T1C0.016
T2C0.024
T3C0.028
T4C0.039
T5C0.126
%
G90
G05
M72
T1
X1.8Y-2.025
X2.0125Y-3.4
X2.0125Y-3.45
X2.125Y-4.075
X2.275Y-3.525
X2.275Y-3.775
X2.325Y-3.525
X2.325Y-3.775
X2.725Y-3.525
X2.725Y-3.775
X2.775Y-3.525
X2.775Y-3.775
X3.175Y-3.525
X3.175Y-3.775
X3.225Y-3.525
X3.225Y-3.775
X3.625Y-3.525
X3.625Y-3.775
X3.675Y-3.525
X3.675Y-3.775
X4.075Y-3.525
X4.075Y-3.775
X4.125Y-3.525
X4.125Y-3.775
X4.525Y-3.525
X4.525Y-3.775
X4.575Y-3.525
X4.575Y-3.775
X4.975Y-3.525
X4.975Y-3.775
X5.025Y-3.525
X5.025Y-3.775
X5.4Y-4.075
T2
X1.85Y-3.425
X1.85Y-3.675
X1.85Y-3.925
X1.9Y-3.425
X1.9Y-3.675
X1.9Y-3.925
X1.925Y-1.15
X1.925Y-1.2
X1.925Y-1.25
X1.925Y-1.375
X1.925Y-1.425
X1.925Y-1.475
X1.925Y-1.6
X1.925Y-1.65
X1.925Y-1.7
X1.925Y-1.825
X1.925Y-1.875
X1.925Y-1.925
X1.925Y-2.125
X1.925Y-2.175
X1.925Y-2.225
X1.925Y-2.35
X1.925Y-2.4
X1.925Y-2.45
X1.925Y-2.575
X1.925Y-2.625
X1.925Y-2.675
X1.925Y-2.8
X1.925Y-2.85
X1.925Y-2.9
X1.95Y-3.425
X1.95Y-3.675
X1.95Y-3.925
X2.075Y-3.425
X2.075Y-3.675
X2.075Y-3.925
X2.125Y-1.15
X2.125Y-1.2
X2.125Y-1.25
X2.125Y-1.375
X2.125Y-1.425
X2.125Y-1.475
X2.125Y-1.6
X2.125Y-1.65
X2.125Y-1.7
X2.125Y-2.125
X2.125Y-2.175
X2.125Y-2.225
X2.125Y-2.35
X2.125Y-2.4
X2.125Y-2.45
X2.125Y-2.575
X2.125Y-2.625
X2.125Y-2.675
X2.125Y-2.8
X2.125Y-2.85
X2.125Y-2.9
X2.125Y-3.425
X2.125Y-3.675
X2.125Y-3.925
X2.175Y-3.425
X2.175Y-3.675
X2.175Y-3.925
X2.3Y-3.425
X2.3Y-3.675
X2.3Y-3.925
X2.35Y-3.425
X2.35Y-3.675
X2.35Y-3.925
X2.375Y-1.15
X2.375Y-1.2
X2.375Y-1.25
X2.375Y-1.375
X2.375Y-1.425
X2.375Y-1.475
X2.375Y-1.6
X2.375Y-1.65
X2.375Y-1.7
X2.375Y-1.825
X2.375Y-1.875
X2.375Y-1.925
X2.375Y-2.125
X2.375Y-2.175
X2.375Y-2.225
X2.375Y-2.35
X2.375Y-2.4
X2.375Y-2.45
X2.375Y-2.575
X2.375Y-2.625
X2.375Y-2.675
X2.375Y-2.8
X2.375Y-2.85
X2.375Y-2.9
X2.4Y-3.425
X2.4Y-3.675
X2.4Y-3.925
X2.525Y-3.425
X2.525Y-3.675
X2.525Y-3.925
X2.575Y-1.15
X2.575Y-1.2
X2.575Y-1.25
X2.575Y-1.375
X2.575Y-1.425
X2.575Y-1.475
X2.575Y-1.6
X2.575Y-1.65
X2.575Y-1.7
X2.575Y-2.125
X2.575Y-2.175
X2.575Y-2.225
X2.575Y-2.35
X2.575Y-2.4
X2.575Y-2.45
X2.575Y-2.575
X2.575Y-2.625
X2.575Y-2.675
X2.575Y-2.8
X2.575Y-2.85
X2.575Y-2.9
X2.575Y-3.425
X2.575Y-3.675
X2.575Y-3.925
X2.625Y-3.425
X2.625Y-3.675
X2.625Y-3.925
X2.75Y-3.425
X2.75Y-3.675
X2.75Y-3.925
X2.8Y-3.425
X2.8Y-3.675
X2.8Y-3.925
X2.825Y-1.15
X2.825Y-1.2
X2.825Y-1.25
X2.825Y-1.375
X2.825Y-1.425
X2.825Y-1.475
X2.825Y-1.6
X2.825Y-1.65
X2.825Y-1.7
X2.825Y-1.825
X2.825Y-1.875
X2.825Y-1.925
X2.825Y-2.125
X2.825Y-2.175
X2.825Y-2.225
X2.825Y-2.35
X2.825Y-2.4
X2.825Y-2.45
X2.825Y-2.575
X2.825Y-2.625
X2.825Y-2.675
X2.825Y-2.8
X2.825Y-2.85
X2.825Y-2.9
X2.85Y-3.425
X2.85Y-3.675
X2.85Y-3.925
X2.975Y-3.425
X2.975Y-3.675
X2.975Y-3.925
X3.025Y-1.15
X3.025Y-1.2
X3.025Y-1.25
X3.025Y-1.375
X3.025Y-1.425
X3.025Y-1.475
X3.025Y-1.6
X3.025Y-1.65
X3.025Y-1.7
X3.025Y-2.125
X3.025Y-2.175
X3.025Y-2.225
X3.025Y-2.35
X3.025Y-2.4
X3.025Y-2.45
X3.025Y-2.575
X3.025Y-2.625
X3.025Y-2.675
X3.025Y-2.8
X3.025Y-2.85
X3.025Y-2.9
X3.025Y-3.425
X3.025Y-3.675
X3.025Y-3.925
X3.075Y-3.425
X3.075Y-3.675
X3.075Y-3.925
X3.2Y-3.425
X3.2Y-3.675
X3.2Y-3.925
X3.25Y-3.425
X3.25Y-3.675
X3.25Y-3.925
X3.275Y-1.15
X3.275Y-1.2
X3.275Y-1.25
X3.275Y-1.375
X3.275Y-1.425
X3.275Y-1.475
X3.275Y-1.6
X3.275Y-1.65
X3.275Y-1.7
X3.275Y-1.825
X3.275Y-1.875
X3.275Y-1.925
X3.275Y-2.125
X3.275Y-2.175
X3.275Y-2.225
X3.275Y-2.35
X3.275Y-2.4
X3.275Y-2.45
X3.275Y-2.575
X3.275Y-2.625
X3.275Y-2.675
X3.275Y-2.8
X3.275Y-2.85
X3.275Y-2.9
X3.3Y-3.425
X3.3Y-3.675
X3.3Y-3.925
X3.425Y-3.425
X3.425Y-3.675
X3.425Y-3.925
X3.475Y-1.15
X3.475Y-1.2
X3.475Y-1.25
X3.475Y-1.375
X3.475Y-1.425
X3.475Y-1.475
X3.475Y-1.6
X3.475Y-1.65
X3.475Y-1.7
X3.475Y-2.125
X3.475Y-2.175
X3.475Y-2.225
X3.475Y-2.35
X3.475Y-2.4
X3.475Y-2.45
X3.475Y-2.575
X3.475Y-2.625
X3.475Y-2.675
X3.475Y-2.8
X3.475Y-2.85
X3.475Y-2.9
X3.475Y-3.425
X3.475Y-3.675
X3.475Y-3.925
X3.525Y-3.425
X3.525Y-3.675
X3.525Y-3.925
X3.65Y-3.425
X3.65Y-3.675
X3.65Y-3.925
X3.7Y-3.425
X3.7Y-3.675
X3.7Y-3.925
X3.725Y-1.15
X3.725Y-1.2
X3.725Y-1.25
X3.725Y-1.375
X3.725Y-1.425
X3.725Y-1.475
X3.725Y-1.6
X3.725Y-1.65
X3.725Y-1.7
X3.725Y-1.825
X3.725Y-1.875
X3.725Y-1.925
X3.725Y-2.125
X3.725Y-2.175
X3.725Y-2.225
X3.725Y-2.35
X3.725Y-2.4
X3.725Y-2.45
X3.725Y-2.575
X3.725Y-2.625
X3.725Y-2.675
X3.725Y-2.8
X3.725Y-2.85
X3.725Y-2.9
X3.75Y-3.425
X3.75Y-3.675
X3.75Y-3.925
X3.875Y-3.425
X3.875Y-3.675
X3.875Y-3.925
X3.925Y-1.15
X3.925Y-1.2
X3.925Y-1.25
X3.925Y-1.375
X3.925Y-1.425
X3.925Y-1.475
X3.925Y-1.6
X3.925Y-1.65
X3.925Y-1.7
X3.925Y-2.125
X3.925Y-2.175
X3.925Y-2.225
X3.925Y-2.35
X3.925Y-2.4
X3.925Y-2.45
X3.925Y-2.575
X3.925Y-2.625
X3.925Y-2.675
X3.925Y-2.8
X3.925Y-2.85
X3.925Y-2.9
X3.925Y-3.425
X3.925Y-3.675
X3.925Y-3.925
X3.975Y-3.425
X3.975Y-3.675
X3.975Y-3.925
X4.1Y-3.425
X4.1Y-3.675
X4.1Y-3.925
X4.15Y-3.425
X4.15Y-3.675
X4.15Y-3.925
X4.175Y-1.15
X4.175Y-1.2
X4.175Y-1.25
X4.175Y-1.375
X4.175Y-1.425
X4.175Y-1.475
X4.175Y-1.6
X4.175Y-1.65
X4.175Y-1.7
X4.175Y-1.825
X4.175Y-1.875
X4.175Y-1.925
X4.175Y-2.125
X4.175Y-2.175
X4.175Y-2.225
X4.175Y-2.35
X4.175Y-2.4
X4.175Y-2.45
X4.175Y-2.575
X4.175Y-2.625
X4.175Y-2.675
X4.175Y-2.8
X4.175Y-2.85
X4.175Y-2.9
X4.2Y-3.425
X4.2Y-3.675
X4.2Y-3.925
X4.325Y-3.425
X4.325Y-3.675
X4.325Y-3.925
X4.375Y-1.15
X4.375Y-1.2
X4.375Y-1.25
X4.375Y-1.375
X4.375Y-1.425
X4.375Y-1.475
X4.375Y-1.6
X4.375Y-1.65
X4.375Y-1.7
X4.375Y-2.125
X4.375Y-2.175
X4.375Y-2.225
X4.375Y-2.35
X4.375Y-2.4
X4.375Y-2.45
X4.375Y-2.575
X4.375Y-2.625
X4.375Y-2.675
X4.375Y-2.8
X4.375Y-2.85
X4.375Y-2.9
X4.375Y-3.425
X4.375Y-3.675
X4.375Y-3.925
X4.425Y-3.425
X4.425Y-3.675
X4.425Y-3.925
X4.55Y-3.425
X4.55Y-3.675
X4.55Y-3.925
X4.6Y-3.425
X4.6Y-3.675
X4.6Y-3.925
X4.625Y-1.15
X4.625Y-1.2
X4.625Y-1.25
X4.625Y-1.375
X4.625Y-1.425
X4.625Y-1.475
X4.625Y-1.6
X4.625Y-1.65
X4.625Y-1.7
X4.625Y-1.825
X4.625Y-1.875
X4.625Y-1.925
X4.625Y-2.125
X4.625Y-2.175
X4.625Y-2.225
X4.625Y-2.35
X4.625Y-2.4
X4.625Y-2.45
X4.625Y-2.575
X4.625Y-2.625
X4.625Y-2.675
X4.625Y-2.8
X4.625Y-2.85
X4.625Y-2.9
X4.65Y-3.425
X4.65Y-3.675
X4.65Y-3.925
X4.775Y-3.425
X4.775Y-3.675
X4.775Y-3.925
X4.825Y-1.15
X4.825Y-1.2
X4.825Y-1.25
X4.825Y-1.375
X4.825Y-1.425
X4.825Y-1.475
X4.825Y-1.6
X4.825Y-1.65
X4.825Y-1.7
X4.825Y-2.125
X4.825Y-2.175
X4.825Y-2.225
X4.825Y-2.35
X4.825Y-2.4
X4.825Y-2.45
X4.825Y-2.575
X4.825Y-2.625
X4.825Y-2.675
X4.825Y-2.8
X4.825Y-2.85
X4.825Y-2.9
X4.825Y-3.425
X4.825Y-3.675
X4.825Y-3.925
X4.875Y-3.425
X4.875Y-3.675
X4.875Y-3.925
X5.Y-3.425
X5.Y-3.675
X5.Y-3.925
X5.05Y-3.425
X5.05Y-3.675
X5.05Y-3.925
X5.075Y-1.15
X5.075Y-1.2
X5.075Y-1.25
X5.075Y-1.375
X5.075Y-1.425
X5.075Y-1.475
X5.075Y-1.6
X5.075Y-1.65
X5.075Y-1.7
X5.075Y-1.825
X5.075Y-1.875
X5.075Y-1.925
X5.075Y-2.125
X5.075Y-2.175
X5.075Y-2.225
X5.075Y-2.35
X5.075Y-2.4
X5.075Y-2.45
X5.075Y-2.575
X5.075Y-2.625
X5.075Y-2.675
X5.075Y-2.8
X5.075Y-2.85
X5.075Y-2.9
X5.1Y-3.425
X5.1Y-3.675
X5.1Y-3.925
X5.225Y-3.425
X5.225Y-3.675
X5.225Y-3.925
X5.275Y-1.15
X5.275Y-1.2
X5.275Y-1.25
X5.275Y-1.375
X5.275Y-1.425
X5.275Y-1.475
X5.275Y-1.6
X5.275Y-1.65
X5.275Y-1.7
X5.275Y-2.125
X5.275Y-2.175
X5.275Y-2.225
X5.275Y-2.35
X5.275Y-2.4
X5.275Y-2.45
X5.275Y-2.575
X5.275Y-2.625
X5.275Y-2.675
X5.275Y-2.8
X5.275Y-2.85
X5.275Y-2.9
X5.275Y-3.425
X5.275Y-3.675
X5.275Y-3.925
X5.325Y-3.425
X5.325Y-3.675
X5.325Y-3.925
T3
X1.9Y-3.
X1.9Y-3.2
X2.05Y-3.
X2.05Y-3.2
X2.1Y-1.825
X2.1Y-2.025
X2.2Y-1.825
X2.2Y-2.025
X2.35Y-3.
X2.35Y-3.2
X2.5Y-3.
X2.5Y-3.2
X2.55Y-1.825
X2.55Y-2.025
X2.65Y-1.825
X2.65Y-2.025
X2.8Y-3.
X2.8Y-3.2
X2.95Y-3.
X2.95Y-3.2
X3.Y-1.825
X3.Y-2.025
X3.1Y-1.825
X3.1Y-2.025
X3.25Y-3.
X3.25Y-3.2
X3.4Y-3.
X3.4Y-3.2
X3.45Y-1.825
X3.45Y-2.025
X3.55Y-1.825
X3.55Y-2.025
X3.7Y-3.
X3.7Y-3.2
X3.85Y-3.
X3.85Y-3.2
X3.9Y-1.825
X3.9Y-2.025
X4.Y-1.825
X4.Y-2.025
X4.15Y-3.
X4.15Y-3.2
X4.3Y-3.
X4.3Y-3.2
X4.35Y-1.825
X4.35Y-2.025
X4.45Y-1.825
X4.45Y-2.025
X4.6Y-3.
X4.6Y-3.2
X4.75Y-3.
X4.75Y-3.2
X4.8Y-1.825
X4.8Y-2.025
X4.9Y-1.825
X4.9Y-2.025
X5.05Y-3.
X5.05Y-3.2
X5.2Y-3.
X5.2Y-3.2
X5.25Y-1.825
X5.25Y-2.025
X5.35Y-1.825
X5.35Y-2.025
T4
X1.725Y-3.65
X1.725Y-3.75
X1.725Y-3.85
X1.725Y-3.95
X1.75Y-1.75
X1.75Y-1.85
X1.775Y-3.1
X1.775Y-3.2
X1.775Y-3.3
X3.225Y-0.75
X3.225Y-0.925
X3.325Y-0.75
X3.325Y-0.925
X3.35Y-4.275
X3.35Y-4.45
X3.425Y-0.75
X3.425Y-0.925
X3.45Y-4.275
X3.45Y-4.45
X3.525Y-0.75
X3.525Y-0.925
X3.55Y-4.275
X3.55Y-4.45
X3.625Y-0.75
X3.625Y-0.925
X3.65Y-4.275
X3.65Y-4.45
X3.725Y-0.75
X3.725Y-0.925
X3.75Y-4.275
X3.75Y-4.45
X3.825Y-0.75
X3.825Y-0.925
X3.85Y-4.275
X3.85Y-4.45
X3.925Y-0.75
X3.925Y-0.925
X3.95Y-4.275
X3.95Y-4.45
X4.05Y-4.275
X4.05Y-4.45
X5.45Y-3.
X5.45Y-3.1
T5
X1.825Y-0.8
X1.825Y-4.35
X5.375Y-0.8
X5.375Y-4.35
T0
M30
