G04 #@! TF.FileFunction,Copper,L1,Top,Signal*
%FSLAX46Y46*%
G04 Gerber Fmt 4.6, Leading zero omitted, Abs format (unit mm)*
G04 Created by KiCad (PCBNEW 4.0.7-e2-6376~61~ubuntu18.04.1) date Sun Jul 14 08:04:14 2019*
%MOMM*%
%LPD*%
G01*
G04 APERTURE LIST*
%ADD10C,0.100000*%
%ADD11R,1.700000X1.700000*%
%ADD12O,1.700000X1.700000*%
%ADD13O,1.500000X0.900000*%
%ADD14R,1.500000X0.900000*%
%ADD15C,1.400000*%
%ADD16O,1.400000X1.400000*%
%ADD17O,0.900000X1.500000*%
%ADD18R,0.900000X1.500000*%
%ADD19C,6.400000*%
%ADD20C,0.600000*%
%ADD21C,0.500000*%
%ADD22C,0.250000*%
G04 APERTURE END LIST*
D10*
D11*
X45085000Y-81280000D03*
D12*
X45085000Y-78740000D03*
D11*
X81915000Y-19050000D03*
D12*
X84455000Y-19050000D03*
X86995000Y-19050000D03*
X89535000Y-19050000D03*
X92075000Y-19050000D03*
X94615000Y-19050000D03*
X97155000Y-19050000D03*
X99695000Y-19050000D03*
D11*
X81915000Y-23495000D03*
D12*
X84455000Y-23495000D03*
X86995000Y-23495000D03*
X89535000Y-23495000D03*
X92075000Y-23495000D03*
X94615000Y-23495000D03*
X97155000Y-23495000D03*
X99695000Y-23495000D03*
D11*
X44450000Y-46990000D03*
X138430000Y-76200000D03*
X44450000Y-44450000D03*
D13*
X48895000Y-47625000D03*
X48895000Y-48895000D03*
D14*
X48895000Y-46355000D03*
D13*
X53975000Y-36195000D03*
X53975000Y-37465000D03*
D14*
X53975000Y-34925000D03*
D13*
X53975000Y-41910000D03*
X53975000Y-43180000D03*
D14*
X53975000Y-40640000D03*
D13*
X48895000Y-66675000D03*
X48895000Y-67945000D03*
D14*
X48895000Y-65405000D03*
D13*
X53975000Y-72390000D03*
X53975000Y-73660000D03*
D14*
X53975000Y-71120000D03*
D13*
X48895000Y-72390000D03*
X48895000Y-73660000D03*
D14*
X48895000Y-71120000D03*
D13*
X48895000Y-41910000D03*
X48895000Y-43180000D03*
D14*
X48895000Y-40640000D03*
D13*
X53975000Y-30480000D03*
X53975000Y-31750000D03*
D14*
X53975000Y-29210000D03*
D13*
X48895000Y-36195000D03*
X48895000Y-37465000D03*
D14*
X48895000Y-34925000D03*
D13*
X48895000Y-30480000D03*
X48895000Y-31750000D03*
D14*
X48895000Y-29210000D03*
D13*
X48895000Y-60960000D03*
X48895000Y-62230000D03*
D14*
X48895000Y-59690000D03*
D13*
X53975000Y-66675000D03*
X53975000Y-67945000D03*
D14*
X53975000Y-65405000D03*
D13*
X53975000Y-60960000D03*
X53975000Y-62230000D03*
D14*
X53975000Y-59690000D03*
D13*
X53975000Y-55245000D03*
X53975000Y-56515000D03*
D14*
X53975000Y-53975000D03*
D13*
X48895000Y-55245000D03*
X48895000Y-56515000D03*
D14*
X48895000Y-53975000D03*
D13*
X60325000Y-47625000D03*
X60325000Y-48895000D03*
D14*
X60325000Y-46355000D03*
D13*
X65405000Y-36195000D03*
X65405000Y-37465000D03*
D14*
X65405000Y-34925000D03*
D13*
X65405000Y-41910000D03*
X65405000Y-43180000D03*
D14*
X65405000Y-40640000D03*
D13*
X60325000Y-66675000D03*
X60325000Y-67945000D03*
D14*
X60325000Y-65405000D03*
D13*
X65405000Y-72390000D03*
X65405000Y-73660000D03*
D14*
X65405000Y-71120000D03*
D13*
X60325000Y-72390000D03*
X60325000Y-73660000D03*
D14*
X60325000Y-71120000D03*
D13*
X60325000Y-41910000D03*
X60325000Y-43180000D03*
D14*
X60325000Y-40640000D03*
D13*
X65405000Y-30480000D03*
X65405000Y-31750000D03*
D14*
X65405000Y-29210000D03*
D13*
X60325000Y-36195000D03*
X60325000Y-37465000D03*
D14*
X60325000Y-34925000D03*
D13*
X60325000Y-30480000D03*
X60325000Y-31750000D03*
D14*
X60325000Y-29210000D03*
D13*
X60325000Y-60960000D03*
X60325000Y-62230000D03*
D14*
X60325000Y-59690000D03*
D13*
X65405000Y-66675000D03*
X65405000Y-67945000D03*
D14*
X65405000Y-65405000D03*
D13*
X65405000Y-60960000D03*
X65405000Y-62230000D03*
D14*
X65405000Y-59690000D03*
D13*
X65405000Y-55245000D03*
X65405000Y-56515000D03*
D14*
X65405000Y-53975000D03*
D13*
X60325000Y-55245000D03*
X60325000Y-56515000D03*
D14*
X60325000Y-53975000D03*
D13*
X71755000Y-47625000D03*
X71755000Y-48895000D03*
D14*
X71755000Y-46355000D03*
D13*
X76835000Y-36195000D03*
X76835000Y-37465000D03*
D14*
X76835000Y-34925000D03*
D13*
X76835000Y-41910000D03*
X76835000Y-43180000D03*
D14*
X76835000Y-40640000D03*
D13*
X71755000Y-66675000D03*
X71755000Y-67945000D03*
D14*
X71755000Y-65405000D03*
D13*
X76835000Y-72390000D03*
X76835000Y-73660000D03*
D14*
X76835000Y-71120000D03*
D13*
X71755000Y-72390000D03*
X71755000Y-73660000D03*
D14*
X71755000Y-71120000D03*
D13*
X71755000Y-41910000D03*
X71755000Y-43180000D03*
D14*
X71755000Y-40640000D03*
D13*
X76835000Y-30480000D03*
X76835000Y-31750000D03*
D14*
X76835000Y-29210000D03*
D13*
X71755000Y-36195000D03*
X71755000Y-37465000D03*
D14*
X71755000Y-34925000D03*
D13*
X71755000Y-30480000D03*
X71755000Y-31750000D03*
D14*
X71755000Y-29210000D03*
D13*
X71755000Y-60960000D03*
X71755000Y-62230000D03*
D14*
X71755000Y-59690000D03*
D13*
X76835000Y-66675000D03*
X76835000Y-67945000D03*
D14*
X76835000Y-65405000D03*
D13*
X76835000Y-60960000D03*
X76835000Y-62230000D03*
D14*
X76835000Y-59690000D03*
D13*
X76835000Y-55245000D03*
X76835000Y-56515000D03*
D14*
X76835000Y-53975000D03*
D13*
X71755000Y-55245000D03*
X71755000Y-56515000D03*
D14*
X71755000Y-53975000D03*
D13*
X83185000Y-47625000D03*
X83185000Y-48895000D03*
D14*
X83185000Y-46355000D03*
D13*
X88265000Y-36195000D03*
X88265000Y-37465000D03*
D14*
X88265000Y-34925000D03*
D13*
X88265000Y-41910000D03*
X88265000Y-43180000D03*
D14*
X88265000Y-40640000D03*
D13*
X83185000Y-66675000D03*
X83185000Y-67945000D03*
D14*
X83185000Y-65405000D03*
D13*
X88265000Y-72390000D03*
X88265000Y-73660000D03*
D14*
X88265000Y-71120000D03*
D13*
X83185000Y-72390000D03*
X83185000Y-73660000D03*
D14*
X83185000Y-71120000D03*
D13*
X83185000Y-41910000D03*
X83185000Y-43180000D03*
D14*
X83185000Y-40640000D03*
D13*
X88265000Y-30480000D03*
X88265000Y-31750000D03*
D14*
X88265000Y-29210000D03*
D13*
X83185000Y-36195000D03*
X83185000Y-37465000D03*
D14*
X83185000Y-34925000D03*
D13*
X83185000Y-30480000D03*
X83185000Y-31750000D03*
D14*
X83185000Y-29210000D03*
D13*
X83185000Y-60960000D03*
X83185000Y-62230000D03*
D14*
X83185000Y-59690000D03*
D13*
X88265000Y-66675000D03*
X88265000Y-67945000D03*
D14*
X88265000Y-65405000D03*
D13*
X88265000Y-60960000D03*
X88265000Y-62230000D03*
D14*
X88265000Y-59690000D03*
D13*
X88265000Y-55245000D03*
X88265000Y-56515000D03*
D14*
X88265000Y-53975000D03*
D13*
X83185000Y-55245000D03*
X83185000Y-56515000D03*
D14*
X83185000Y-53975000D03*
D13*
X94615000Y-47625000D03*
X94615000Y-48895000D03*
D14*
X94615000Y-46355000D03*
D13*
X99695000Y-36195000D03*
X99695000Y-37465000D03*
D14*
X99695000Y-34925000D03*
D13*
X99695000Y-41910000D03*
X99695000Y-43180000D03*
D14*
X99695000Y-40640000D03*
D13*
X94615000Y-66675000D03*
X94615000Y-67945000D03*
D14*
X94615000Y-65405000D03*
D13*
X99695000Y-72390000D03*
X99695000Y-73660000D03*
D14*
X99695000Y-71120000D03*
D13*
X94615000Y-72390000D03*
X94615000Y-73660000D03*
D14*
X94615000Y-71120000D03*
D13*
X94615000Y-41910000D03*
X94615000Y-43180000D03*
D14*
X94615000Y-40640000D03*
D13*
X99695000Y-30480000D03*
X99695000Y-31750000D03*
D14*
X99695000Y-29210000D03*
D13*
X94615000Y-36195000D03*
X94615000Y-37465000D03*
D14*
X94615000Y-34925000D03*
D13*
X94615000Y-30480000D03*
X94615000Y-31750000D03*
D14*
X94615000Y-29210000D03*
D13*
X94615000Y-60960000D03*
X94615000Y-62230000D03*
D14*
X94615000Y-59690000D03*
D13*
X99695000Y-66675000D03*
X99695000Y-67945000D03*
D14*
X99695000Y-65405000D03*
D13*
X99695000Y-60960000D03*
X99695000Y-62230000D03*
D14*
X99695000Y-59690000D03*
D13*
X99695000Y-55245000D03*
X99695000Y-56515000D03*
D14*
X99695000Y-53975000D03*
D13*
X94615000Y-55245000D03*
X94615000Y-56515000D03*
D14*
X94615000Y-53975000D03*
D13*
X106045000Y-47625000D03*
X106045000Y-48895000D03*
D14*
X106045000Y-46355000D03*
D13*
X111125000Y-36195000D03*
X111125000Y-37465000D03*
D14*
X111125000Y-34925000D03*
D13*
X111125000Y-41910000D03*
X111125000Y-43180000D03*
D14*
X111125000Y-40640000D03*
D13*
X106045000Y-66675000D03*
X106045000Y-67945000D03*
D14*
X106045000Y-65405000D03*
D13*
X111125000Y-72390000D03*
X111125000Y-73660000D03*
D14*
X111125000Y-71120000D03*
D13*
X106045000Y-72390000D03*
X106045000Y-73660000D03*
D14*
X106045000Y-71120000D03*
D13*
X106045000Y-41910000D03*
X106045000Y-43180000D03*
D14*
X106045000Y-40640000D03*
D13*
X111125000Y-30480000D03*
X111125000Y-31750000D03*
D14*
X111125000Y-29210000D03*
D13*
X106045000Y-36195000D03*
X106045000Y-37465000D03*
D14*
X106045000Y-34925000D03*
D13*
X106045000Y-30480000D03*
X106045000Y-31750000D03*
D14*
X106045000Y-29210000D03*
D13*
X106045000Y-60960000D03*
X106045000Y-62230000D03*
D14*
X106045000Y-59690000D03*
D13*
X111125000Y-66675000D03*
X111125000Y-67945000D03*
D14*
X111125000Y-65405000D03*
D13*
X111125000Y-60960000D03*
X111125000Y-62230000D03*
D14*
X111125000Y-59690000D03*
D13*
X111125000Y-55245000D03*
X111125000Y-56515000D03*
D14*
X111125000Y-53975000D03*
D13*
X106045000Y-55245000D03*
X106045000Y-56515000D03*
D14*
X106045000Y-53975000D03*
D13*
X117475000Y-47625000D03*
X117475000Y-48895000D03*
D14*
X117475000Y-46355000D03*
D13*
X122555000Y-36195000D03*
X122555000Y-37465000D03*
D14*
X122555000Y-34925000D03*
D13*
X122555000Y-41910000D03*
X122555000Y-43180000D03*
D14*
X122555000Y-40640000D03*
D13*
X117475000Y-66675000D03*
X117475000Y-67945000D03*
D14*
X117475000Y-65405000D03*
D13*
X122555000Y-72390000D03*
X122555000Y-73660000D03*
D14*
X122555000Y-71120000D03*
D13*
X117475000Y-72390000D03*
X117475000Y-73660000D03*
D14*
X117475000Y-71120000D03*
D13*
X117475000Y-41910000D03*
X117475000Y-43180000D03*
D14*
X117475000Y-40640000D03*
D13*
X122555000Y-30480000D03*
X122555000Y-31750000D03*
D14*
X122555000Y-29210000D03*
D13*
X117475000Y-36195000D03*
X117475000Y-37465000D03*
D14*
X117475000Y-34925000D03*
D13*
X117475000Y-30480000D03*
X117475000Y-31750000D03*
D14*
X117475000Y-29210000D03*
D13*
X117475000Y-60960000D03*
X117475000Y-62230000D03*
D14*
X117475000Y-59690000D03*
D13*
X122555000Y-66675000D03*
X122555000Y-67945000D03*
D14*
X122555000Y-65405000D03*
D13*
X122555000Y-60960000D03*
X122555000Y-62230000D03*
D14*
X122555000Y-59690000D03*
D13*
X122555000Y-55245000D03*
X122555000Y-56515000D03*
D14*
X122555000Y-53975000D03*
D13*
X117475000Y-55245000D03*
X117475000Y-56515000D03*
D14*
X117475000Y-53975000D03*
D13*
X128905000Y-47625000D03*
X128905000Y-48895000D03*
D14*
X128905000Y-46355000D03*
D13*
X133985000Y-36195000D03*
X133985000Y-37465000D03*
D14*
X133985000Y-34925000D03*
D13*
X133985000Y-41910000D03*
X133985000Y-43180000D03*
D14*
X133985000Y-40640000D03*
D13*
X128905000Y-66675000D03*
X128905000Y-67945000D03*
D14*
X128905000Y-65405000D03*
D13*
X133985000Y-72390000D03*
X133985000Y-73660000D03*
D14*
X133985000Y-71120000D03*
D13*
X128905000Y-72390000D03*
X128905000Y-73660000D03*
D14*
X128905000Y-71120000D03*
D13*
X128905000Y-41910000D03*
X128905000Y-43180000D03*
D14*
X128905000Y-40640000D03*
D13*
X133985000Y-30480000D03*
X133985000Y-31750000D03*
D14*
X133985000Y-29210000D03*
D13*
X128905000Y-36195000D03*
X128905000Y-37465000D03*
D14*
X128905000Y-34925000D03*
D13*
X128905000Y-30480000D03*
X128905000Y-31750000D03*
D14*
X128905000Y-29210000D03*
D13*
X128905000Y-60960000D03*
X128905000Y-62230000D03*
D14*
X128905000Y-59690000D03*
D13*
X133985000Y-66675000D03*
X133985000Y-67945000D03*
D14*
X133985000Y-65405000D03*
D13*
X133985000Y-60960000D03*
X133985000Y-62230000D03*
D14*
X133985000Y-59690000D03*
D13*
X133985000Y-55245000D03*
X133985000Y-56515000D03*
D14*
X133985000Y-53975000D03*
D13*
X128905000Y-55245000D03*
X128905000Y-56515000D03*
D14*
X128905000Y-53975000D03*
D15*
X53340000Y-51435000D03*
D16*
X53340000Y-46355000D03*
D15*
X55880000Y-51435000D03*
D16*
X55880000Y-46355000D03*
D15*
X52070000Y-81280000D03*
D16*
X52070000Y-76200000D03*
D15*
X48260000Y-81280000D03*
D16*
X48260000Y-76200000D03*
D15*
X64770000Y-51435000D03*
D16*
X64770000Y-46355000D03*
D15*
X67310000Y-51435000D03*
D16*
X67310000Y-46355000D03*
D15*
X63500000Y-81280000D03*
D16*
X63500000Y-76200000D03*
D15*
X59690000Y-81280000D03*
D16*
X59690000Y-76200000D03*
D15*
X76200000Y-51435000D03*
D16*
X76200000Y-46355000D03*
D15*
X78740000Y-51435000D03*
D16*
X78740000Y-46355000D03*
D15*
X74930000Y-81280000D03*
D16*
X74930000Y-76200000D03*
D15*
X71120000Y-81280000D03*
D16*
X71120000Y-76200000D03*
D15*
X87630000Y-51435000D03*
D16*
X87630000Y-46355000D03*
D15*
X90170000Y-51435000D03*
D16*
X90170000Y-46355000D03*
D15*
X86360000Y-81280000D03*
D16*
X86360000Y-76200000D03*
D15*
X82550000Y-81280000D03*
D16*
X82550000Y-76200000D03*
D15*
X99060000Y-51435000D03*
D16*
X99060000Y-46355000D03*
D15*
X101600000Y-51435000D03*
D16*
X101600000Y-46355000D03*
D15*
X97790000Y-81280000D03*
D16*
X97790000Y-76200000D03*
D15*
X93980000Y-81280000D03*
D16*
X93980000Y-76200000D03*
D15*
X110490000Y-51435000D03*
D16*
X110490000Y-46355000D03*
D15*
X113030000Y-51435000D03*
D16*
X113030000Y-46355000D03*
D15*
X109220000Y-81280000D03*
D16*
X109220000Y-76200000D03*
D15*
X105410000Y-81280000D03*
D16*
X105410000Y-76200000D03*
D15*
X121920000Y-51435000D03*
D16*
X121920000Y-46355000D03*
D15*
X124460000Y-51435000D03*
D16*
X124460000Y-46355000D03*
D15*
X120650000Y-81280000D03*
D16*
X120650000Y-76200000D03*
D15*
X116840000Y-81280000D03*
D16*
X116840000Y-76200000D03*
D15*
X133350000Y-51435000D03*
D16*
X133350000Y-46355000D03*
D15*
X135890000Y-51435000D03*
D16*
X135890000Y-46355000D03*
D15*
X132080000Y-81280000D03*
D16*
X132080000Y-76200000D03*
D15*
X128270000Y-81280000D03*
D16*
X128270000Y-76200000D03*
D11*
X45085000Y-83820000D03*
X138430000Y-78740000D03*
X43815000Y-100330000D03*
X43815000Y-97790000D03*
X43815000Y-92710000D03*
X43815000Y-95250000D03*
X85090000Y-108585000D03*
D12*
X87630000Y-108585000D03*
X90170000Y-108585000D03*
X92710000Y-108585000D03*
X95250000Y-108585000D03*
X97790000Y-108585000D03*
X100330000Y-108585000D03*
X102870000Y-108585000D03*
D17*
X48260000Y-99695000D03*
X46990000Y-99695000D03*
D18*
X49530000Y-99695000D03*
D17*
X48260000Y-93345000D03*
X46990000Y-93345000D03*
D18*
X49530000Y-93345000D03*
D17*
X48260000Y-86995000D03*
X46990000Y-86995000D03*
D18*
X49530000Y-86995000D03*
D17*
X53975000Y-99695000D03*
X52705000Y-99695000D03*
D18*
X55245000Y-99695000D03*
D17*
X53975000Y-93345000D03*
X52705000Y-93345000D03*
D18*
X55245000Y-93345000D03*
D17*
X53975000Y-86995000D03*
X52705000Y-86995000D03*
D18*
X55245000Y-86995000D03*
D17*
X59690000Y-99695000D03*
X58420000Y-99695000D03*
D18*
X60960000Y-99695000D03*
D17*
X59690000Y-93345000D03*
X58420000Y-93345000D03*
D18*
X60960000Y-93345000D03*
D17*
X59690000Y-86995000D03*
X58420000Y-86995000D03*
D18*
X60960000Y-86995000D03*
D17*
X65405000Y-99695000D03*
X64135000Y-99695000D03*
D18*
X66675000Y-99695000D03*
D17*
X65405000Y-93345000D03*
X64135000Y-93345000D03*
D18*
X66675000Y-93345000D03*
D17*
X65405000Y-86995000D03*
X64135000Y-86995000D03*
D18*
X66675000Y-86995000D03*
D17*
X71120000Y-99695000D03*
X69850000Y-99695000D03*
D18*
X72390000Y-99695000D03*
D17*
X71120000Y-93345000D03*
X69850000Y-93345000D03*
D18*
X72390000Y-93345000D03*
D17*
X71120000Y-86995000D03*
X69850000Y-86995000D03*
D18*
X72390000Y-86995000D03*
D17*
X76835000Y-99695000D03*
X75565000Y-99695000D03*
D18*
X78105000Y-99695000D03*
D17*
X76835000Y-93345000D03*
X75565000Y-93345000D03*
D18*
X78105000Y-93345000D03*
D17*
X76835000Y-86995000D03*
X75565000Y-86995000D03*
D18*
X78105000Y-86995000D03*
D17*
X82550000Y-99695000D03*
X81280000Y-99695000D03*
D18*
X83820000Y-99695000D03*
D17*
X82550000Y-93345000D03*
X81280000Y-93345000D03*
D18*
X83820000Y-93345000D03*
D17*
X82550000Y-86995000D03*
X81280000Y-86995000D03*
D18*
X83820000Y-86995000D03*
D17*
X88265000Y-99695000D03*
X86995000Y-99695000D03*
D18*
X89535000Y-99695000D03*
D17*
X88265000Y-93345000D03*
X86995000Y-93345000D03*
D18*
X89535000Y-93345000D03*
D17*
X88265000Y-86995000D03*
X86995000Y-86995000D03*
D18*
X89535000Y-86995000D03*
D17*
X93980000Y-99695000D03*
X92710000Y-99695000D03*
D18*
X95250000Y-99695000D03*
D17*
X93980000Y-93345000D03*
X92710000Y-93345000D03*
D18*
X95250000Y-93345000D03*
D17*
X93980000Y-86995000D03*
X92710000Y-86995000D03*
D18*
X95250000Y-86995000D03*
D17*
X99695000Y-99695000D03*
X98425000Y-99695000D03*
D18*
X100965000Y-99695000D03*
D17*
X99695000Y-93345000D03*
X98425000Y-93345000D03*
D18*
X100965000Y-93345000D03*
D17*
X99695000Y-86995000D03*
X98425000Y-86995000D03*
D18*
X100965000Y-86995000D03*
D17*
X105410000Y-99695000D03*
X104140000Y-99695000D03*
D18*
X106680000Y-99695000D03*
D17*
X105410000Y-93345000D03*
X104140000Y-93345000D03*
D18*
X106680000Y-93345000D03*
D17*
X105410000Y-86995000D03*
X104140000Y-86995000D03*
D18*
X106680000Y-86995000D03*
D17*
X111125000Y-99695000D03*
X109855000Y-99695000D03*
D18*
X112395000Y-99695000D03*
D17*
X111125000Y-93345000D03*
X109855000Y-93345000D03*
D18*
X112395000Y-93345000D03*
D17*
X111125000Y-86995000D03*
X109855000Y-86995000D03*
D18*
X112395000Y-86995000D03*
D17*
X116840000Y-99695000D03*
X115570000Y-99695000D03*
D18*
X118110000Y-99695000D03*
D17*
X116840000Y-93345000D03*
X115570000Y-93345000D03*
D18*
X118110000Y-93345000D03*
D17*
X116840000Y-86995000D03*
X115570000Y-86995000D03*
D18*
X118110000Y-86995000D03*
D17*
X122555000Y-99695000D03*
X121285000Y-99695000D03*
D18*
X123825000Y-99695000D03*
D17*
X122555000Y-93345000D03*
X121285000Y-93345000D03*
D18*
X123825000Y-93345000D03*
D17*
X122555000Y-86995000D03*
X121285000Y-86995000D03*
D18*
X123825000Y-86995000D03*
D17*
X128270000Y-99695000D03*
X127000000Y-99695000D03*
D18*
X129540000Y-99695000D03*
D17*
X128270000Y-93345000D03*
X127000000Y-93345000D03*
D18*
X129540000Y-93345000D03*
D17*
X128270000Y-86995000D03*
X127000000Y-86995000D03*
D18*
X129540000Y-86995000D03*
D17*
X133985000Y-99695000D03*
X132715000Y-99695000D03*
D18*
X135255000Y-99695000D03*
D17*
X133985000Y-93345000D03*
X132715000Y-93345000D03*
D18*
X135255000Y-93345000D03*
D17*
X133985000Y-86995000D03*
X132715000Y-86995000D03*
D18*
X135255000Y-86995000D03*
D19*
X46355000Y-20320000D03*
X136525000Y-20320000D03*
X46355000Y-110490000D03*
X136525000Y-110490000D03*
D11*
X85090000Y-113030000D03*
D12*
X87630000Y-113030000D03*
X90170000Y-113030000D03*
X92710000Y-113030000D03*
X95250000Y-113030000D03*
X97790000Y-113030000D03*
X100330000Y-113030000D03*
X102870000Y-113030000D03*
D20*
X45720000Y-51435000D03*
X51117500Y-87630000D03*
X51117500Y-86360000D03*
X57785000Y-95885000D03*
X59055000Y-95885000D03*
X127635000Y-89535000D03*
X126365000Y-89535000D03*
X53975000Y-103505000D03*
X137160000Y-103505000D03*
X70485000Y-95885000D03*
X69215000Y-95885000D03*
X59055000Y-89535000D03*
X57785000Y-89535000D03*
X81915000Y-95885000D03*
X80645000Y-95885000D03*
X70485000Y-89535000D03*
X69215000Y-89535000D03*
X93345000Y-95885000D03*
X92075000Y-95885000D03*
X81915000Y-89535000D03*
X80645000Y-89535000D03*
X104775000Y-95885000D03*
X103505000Y-95885000D03*
X93345000Y-89535000D03*
X92075000Y-89535000D03*
X116205000Y-95885000D03*
X114935000Y-95885000D03*
X104775000Y-89535000D03*
X103505000Y-89535000D03*
X127635000Y-95885000D03*
X126365000Y-95885000D03*
X116205000Y-89535000D03*
X114935000Y-89535000D03*
D21*
X48260000Y-78740000D02*
X45720000Y-76200000D01*
X45720000Y-76200000D02*
X45720000Y-66040000D01*
X48260000Y-81280000D02*
X48260000Y-78740000D01*
X45720000Y-81280000D02*
X48260000Y-81280000D01*
X45720000Y-51435000D02*
X45720000Y-66040000D01*
D22*
X81915000Y-19050000D02*
X81915000Y-20320000D01*
X55880000Y-34925000D02*
X54610000Y-36195000D01*
X55880000Y-28575000D02*
X55880000Y-34925000D01*
X59055000Y-25400000D02*
X55880000Y-28575000D01*
X82550000Y-25400000D02*
X59055000Y-25400000D01*
X83185000Y-24765000D02*
X82550000Y-25400000D01*
X83185000Y-21590000D02*
X83185000Y-24765000D01*
X81915000Y-20320000D02*
X83185000Y-21590000D01*
X54610000Y-36195000D02*
X53975000Y-36195000D01*
X54610000Y-36195000D02*
X53975000Y-36195000D01*
X48895000Y-36195000D02*
X48260000Y-36195000D01*
X48260000Y-36195000D02*
X47625000Y-36830000D01*
X47625000Y-60325000D02*
X48260000Y-60960000D01*
X47625000Y-36830000D02*
X47625000Y-60325000D01*
X48260000Y-60960000D02*
X48895000Y-60960000D01*
X48895000Y-60960000D02*
X53975000Y-60960000D01*
X84455000Y-19050000D02*
X84455000Y-20320000D01*
X67310000Y-34925000D02*
X66040000Y-36195000D01*
X67310000Y-28575000D02*
X67310000Y-34925000D01*
X69215000Y-26670000D02*
X67310000Y-28575000D01*
X83820000Y-26670000D02*
X69215000Y-26670000D01*
X85725000Y-24765000D02*
X83820000Y-26670000D01*
X85725000Y-21590000D02*
X85725000Y-24765000D01*
X84455000Y-20320000D02*
X85725000Y-21590000D01*
X66040000Y-36195000D02*
X65405000Y-36195000D01*
X66040000Y-36195000D02*
X65405000Y-36195000D01*
X60325000Y-60960000D02*
X65405000Y-60960000D01*
X60325000Y-36195000D02*
X59690000Y-36195000D01*
X59690000Y-36195000D02*
X59055000Y-36830000D01*
X59055000Y-60325000D02*
X59690000Y-60960000D01*
X59055000Y-36830000D02*
X59055000Y-60325000D01*
X59690000Y-60960000D02*
X60325000Y-60960000D01*
X86995000Y-19050000D02*
X86995000Y-20320000D01*
X78740000Y-34925000D02*
X77470000Y-36195000D01*
X78740000Y-28575000D02*
X78740000Y-34925000D01*
X79375000Y-27940000D02*
X78740000Y-28575000D01*
X85090000Y-27940000D02*
X79375000Y-27940000D01*
X88265000Y-24765000D02*
X85090000Y-27940000D01*
X88265000Y-21590000D02*
X88265000Y-24765000D01*
X86995000Y-20320000D02*
X88265000Y-21590000D01*
X77470000Y-36195000D02*
X76835000Y-36195000D01*
X77470000Y-36195000D02*
X76835000Y-36195000D01*
X71755000Y-60960000D02*
X76835000Y-60960000D01*
X71755000Y-36195000D02*
X71120000Y-36195000D01*
X71120000Y-36195000D02*
X70485000Y-36830000D01*
X70485000Y-60325000D02*
X71120000Y-60960000D01*
X70485000Y-36830000D02*
X70485000Y-60325000D01*
X71120000Y-60960000D02*
X71755000Y-60960000D01*
X89535000Y-19050000D02*
X89535000Y-20320000D01*
X89535000Y-36195000D02*
X88265000Y-36195000D01*
X90805000Y-34925000D02*
X89535000Y-36195000D01*
X90805000Y-21590000D02*
X90805000Y-34925000D01*
X89535000Y-20320000D02*
X90805000Y-21590000D01*
X83185000Y-36195000D02*
X82550000Y-36195000D01*
X82550000Y-36195000D02*
X81915000Y-36830000D01*
X81915000Y-60325000D02*
X82550000Y-60960000D01*
X81915000Y-36830000D02*
X81915000Y-60325000D01*
X82550000Y-60960000D02*
X83185000Y-60960000D01*
X83185000Y-60960000D02*
X88265000Y-60960000D01*
X92075000Y-19050000D02*
X92075000Y-20320000D01*
X101600000Y-34925000D02*
X100330000Y-36195000D01*
X101600000Y-28575000D02*
X101600000Y-34925000D01*
X100514998Y-27489998D02*
X101600000Y-28575000D01*
X94164998Y-27489998D02*
X100514998Y-27489998D01*
X93345000Y-26670000D02*
X94164998Y-27489998D01*
X93345000Y-21590000D02*
X93345000Y-26670000D01*
X92075000Y-20320000D02*
X93345000Y-21590000D01*
X100330000Y-36195000D02*
X99695000Y-36195000D01*
X94615000Y-36195000D02*
X93980000Y-36195000D01*
X93980000Y-36195000D02*
X93345000Y-36830000D01*
X93345000Y-60325000D02*
X93980000Y-60960000D01*
X93345000Y-36830000D02*
X93345000Y-60325000D01*
X93980000Y-60960000D02*
X94615000Y-60960000D01*
X94615000Y-60960000D02*
X99695000Y-60960000D01*
X94615000Y-19050000D02*
X94615000Y-20320000D01*
X113030000Y-34925000D02*
X111760000Y-36195000D01*
X113030000Y-27940000D02*
X113030000Y-34925000D01*
X111125000Y-26035000D02*
X113030000Y-27940000D01*
X97155000Y-26035000D02*
X111125000Y-26035000D01*
X95885000Y-24765000D02*
X97155000Y-26035000D01*
X95885000Y-21590000D02*
X95885000Y-24765000D01*
X94615000Y-20320000D02*
X95885000Y-21590000D01*
X111760000Y-36195000D02*
X111125000Y-36195000D01*
X106045000Y-60960000D02*
X111125000Y-60960000D01*
X106045000Y-36195000D02*
X105410000Y-36195000D01*
X105410000Y-36195000D02*
X104775000Y-36830000D01*
X104775000Y-60325000D02*
X105410000Y-60960000D01*
X104775000Y-36830000D02*
X104775000Y-60325000D01*
X105410000Y-60960000D02*
X106045000Y-60960000D01*
X97155000Y-19050000D02*
X97155000Y-20320000D01*
X124460000Y-34925000D02*
X123190000Y-36195000D01*
X124460000Y-27940000D02*
X124460000Y-34925000D01*
X121285000Y-24765000D02*
X124460000Y-27940000D01*
X99060000Y-24765000D02*
X121285000Y-24765000D01*
X98425000Y-24130000D02*
X99060000Y-24765000D01*
X98425000Y-21590000D02*
X98425000Y-24130000D01*
X97155000Y-20320000D02*
X98425000Y-21590000D01*
X123190000Y-36195000D02*
X122555000Y-36195000D01*
X117475000Y-36195000D02*
X116840000Y-36195000D01*
X116840000Y-36195000D02*
X116205000Y-36830000D01*
X116205000Y-36830000D02*
X116205000Y-60325000D01*
X116205000Y-60325000D02*
X116840000Y-60960000D01*
X116840000Y-60960000D02*
X117475000Y-60960000D01*
X117475000Y-60960000D02*
X122555000Y-60960000D01*
X99695000Y-19050000D02*
X103505000Y-22860000D01*
X135890000Y-34925000D02*
X134620000Y-36195000D01*
X135890000Y-27305000D02*
X135890000Y-34925000D01*
X131445000Y-22860000D02*
X135890000Y-27305000D01*
X129540000Y-22860000D02*
X131445000Y-22860000D01*
X103505000Y-22860000D02*
X129540000Y-22860000D01*
X134620000Y-36195000D02*
X133985000Y-36195000D01*
X128905000Y-36195000D02*
X128270000Y-36195000D01*
X128270000Y-36195000D02*
X127635000Y-36830000D01*
X127635000Y-60325000D02*
X128270000Y-60960000D01*
X127635000Y-36830000D02*
X127635000Y-60325000D01*
X128270000Y-60960000D02*
X128905000Y-60960000D01*
X128905000Y-60960000D02*
X133985000Y-60960000D01*
X81915000Y-23495000D02*
X57150000Y-23495000D01*
X57150000Y-23495000D02*
X50165000Y-30480000D01*
X48895000Y-30480000D02*
X48260000Y-30480000D01*
X48260000Y-30480000D02*
X46990000Y-31750000D01*
X46990000Y-65405000D02*
X48260000Y-66675000D01*
X46990000Y-31750000D02*
X46990000Y-65405000D01*
X48260000Y-66675000D02*
X48895000Y-66675000D01*
X48895000Y-66675000D02*
X53975000Y-66675000D01*
X48895000Y-30480000D02*
X50165000Y-30480000D01*
X50165000Y-30480000D02*
X53975000Y-30480000D01*
X84455000Y-23495000D02*
X84455000Y-24765000D01*
X66040000Y-26035000D02*
X61595000Y-30480000D01*
X83185000Y-26035000D02*
X66040000Y-26035000D01*
X84455000Y-24765000D02*
X83185000Y-26035000D01*
X60325000Y-66675000D02*
X65405000Y-66675000D01*
X60325000Y-66675000D02*
X59690000Y-66675000D01*
X59690000Y-66675000D02*
X58420000Y-65405000D01*
X58420000Y-65405000D02*
X58420000Y-31750000D01*
X58420000Y-31750000D02*
X59690000Y-30480000D01*
X59690000Y-30480000D02*
X60325000Y-30480000D01*
X60325000Y-30480000D02*
X61595000Y-30480000D01*
X61595000Y-30480000D02*
X65405000Y-30480000D01*
X86995000Y-23495000D02*
X86995000Y-24765000D01*
X76200000Y-27305000D02*
X73025000Y-30480000D01*
X84455000Y-27305000D02*
X76200000Y-27305000D01*
X86995000Y-24765000D02*
X84455000Y-27305000D01*
X71755000Y-30480000D02*
X71120000Y-30480000D01*
X71120000Y-30480000D02*
X69850000Y-31750000D01*
X69850000Y-65405000D02*
X71120000Y-66675000D01*
X69850000Y-31750000D02*
X69850000Y-65405000D01*
X71120000Y-66675000D02*
X71755000Y-66675000D01*
X71755000Y-66675000D02*
X76835000Y-66675000D01*
X71755000Y-30480000D02*
X73025000Y-30480000D01*
X73025000Y-30480000D02*
X76835000Y-30480000D01*
X89535000Y-23495000D02*
X89535000Y-24765000D01*
X84455000Y-29845000D02*
X84455000Y-30480000D01*
X89535000Y-24765000D02*
X84455000Y-29845000D01*
X83185000Y-66675000D02*
X82550000Y-66675000D01*
X82550000Y-66675000D02*
X81280000Y-65405000D01*
X81280000Y-31750000D02*
X82550000Y-30480000D01*
X81280000Y-65405000D02*
X81280000Y-31750000D01*
X82550000Y-30480000D02*
X83185000Y-30480000D01*
X83185000Y-66675000D02*
X88265000Y-66675000D01*
X83185000Y-30480000D02*
X84455000Y-30480000D01*
X84455000Y-30480000D02*
X88265000Y-30480000D01*
X92075000Y-23495000D02*
X92075000Y-26670000D01*
X95885000Y-27940000D02*
X98425000Y-30480000D01*
X93345000Y-27940000D02*
X95885000Y-27940000D01*
X92075000Y-26670000D02*
X93345000Y-27940000D01*
X94615000Y-66675000D02*
X93980000Y-66675000D01*
X93980000Y-66675000D02*
X92710000Y-65405000D01*
X92710000Y-31750000D02*
X93980000Y-30480000D01*
X92710000Y-65405000D02*
X92710000Y-31750000D01*
X93980000Y-30480000D02*
X94615000Y-30480000D01*
X94615000Y-66675000D02*
X99695000Y-66675000D01*
X94615000Y-30480000D02*
X98425000Y-30480000D01*
X98425000Y-30480000D02*
X99695000Y-30480000D01*
X104140000Y-65405000D02*
X104140000Y-31750000D01*
X105410000Y-66675000D02*
X104140000Y-65405000D01*
X104140000Y-31750000D02*
X105410000Y-30480000D01*
X105410000Y-66675000D02*
X111125000Y-66675000D01*
X94615000Y-23495000D02*
X94615000Y-26035000D01*
X107950000Y-28575000D02*
X107950000Y-30480000D01*
X106045000Y-26670000D02*
X107950000Y-28575000D01*
X104775000Y-26670000D02*
X106045000Y-26670000D01*
X97790000Y-26670000D02*
X104775000Y-26670000D01*
X95250000Y-26670000D02*
X97790000Y-26670000D01*
X94615000Y-26035000D02*
X95250000Y-26670000D01*
X106045000Y-30480000D02*
X105410000Y-30480000D01*
X106045000Y-30480000D02*
X107950000Y-30480000D01*
X107950000Y-30480000D02*
X111125000Y-30480000D01*
X97155000Y-23495000D02*
X97155000Y-24765000D01*
X119380000Y-27940000D02*
X119380000Y-30480000D01*
X116840000Y-25400000D02*
X119380000Y-27940000D01*
X101600000Y-25400000D02*
X116840000Y-25400000D01*
X97790000Y-25400000D02*
X101600000Y-25400000D01*
X97155000Y-24765000D02*
X97790000Y-25400000D01*
X117475000Y-30480000D02*
X119380000Y-30480000D01*
X119380000Y-30480000D02*
X122555000Y-30480000D01*
X117475000Y-66675000D02*
X116840000Y-66675000D01*
X116840000Y-66675000D02*
X115570000Y-65405000D01*
X115570000Y-31750000D02*
X116840000Y-30480000D01*
X115570000Y-65405000D02*
X115570000Y-31750000D01*
X116840000Y-30480000D02*
X117475000Y-30480000D01*
X117475000Y-66675000D02*
X122555000Y-66675000D01*
X99695000Y-23495000D02*
X127000000Y-23495000D01*
X130810000Y-27305000D02*
X130810000Y-30480000D01*
X127000000Y-23495000D02*
X130810000Y-27305000D01*
X128905000Y-66675000D02*
X128270000Y-66675000D01*
X128270000Y-66675000D02*
X127000000Y-65405000D01*
X127000000Y-31750000D02*
X128270000Y-30480000D01*
X127000000Y-65405000D02*
X127000000Y-31750000D01*
X128270000Y-30480000D02*
X128905000Y-30480000D01*
X128905000Y-66675000D02*
X133985000Y-66675000D01*
X128905000Y-30480000D02*
X130810000Y-30480000D01*
X130810000Y-30480000D02*
X133985000Y-30480000D01*
X133985000Y-72390000D02*
X135720000Y-72390000D01*
X135720000Y-72390000D02*
X138430000Y-75100000D01*
X138430000Y-75100000D02*
X138430000Y-76200000D01*
X135890000Y-46355000D02*
X136589999Y-45655001D01*
X135890000Y-46355000D02*
X139065000Y-46355000D01*
X133985000Y-72390000D02*
X134620000Y-72390000D01*
X134620000Y-72390000D02*
X135890000Y-71120000D01*
X135890000Y-71120000D02*
X135890000Y-53975000D01*
X135890000Y-53975000D02*
X137160000Y-52705000D01*
X137160000Y-52705000D02*
X137160000Y-49530000D01*
X137160000Y-49530000D02*
X135890000Y-48260000D01*
X135890000Y-48260000D02*
X135890000Y-46355000D01*
X133985000Y-43180000D02*
X134620000Y-43180000D01*
X134620000Y-43180000D02*
X135890000Y-44450000D01*
X135890000Y-44450000D02*
X135890000Y-46355000D01*
X133985000Y-37465000D02*
X134620000Y-37465000D01*
X134620000Y-37465000D02*
X135255000Y-38100000D01*
X135255000Y-42545000D02*
X134620000Y-43180000D01*
X135255000Y-38100000D02*
X135255000Y-42545000D01*
X53975000Y-41910000D02*
X53340000Y-41910000D01*
X53340000Y-41910000D02*
X52705000Y-42545000D01*
X52705000Y-42545000D02*
X52705000Y-45720000D01*
X52705000Y-45720000D02*
X53340000Y-46355000D01*
X50800000Y-48895000D02*
X50800000Y-55245000D01*
X53340000Y-46355000D02*
X50800000Y-48895000D01*
X50800000Y-48895000D02*
X48895000Y-48895000D01*
X53975000Y-55245000D02*
X50800000Y-55245000D01*
X50800000Y-55245000D02*
X48895000Y-55245000D01*
X48895000Y-43180000D02*
X48895000Y-46355000D01*
X55880000Y-46355000D02*
X55880000Y-48895000D01*
X55880000Y-71120000D02*
X54610000Y-72390000D01*
X55880000Y-53975000D02*
X55880000Y-71120000D01*
X57150000Y-52705000D02*
X55880000Y-53975000D01*
X57150000Y-50165000D02*
X57150000Y-52705000D01*
X55880000Y-48895000D02*
X57150000Y-50165000D01*
X54610000Y-72390000D02*
X53975000Y-72390000D01*
X55880000Y-46355000D02*
X55880000Y-44450000D01*
X55880000Y-44450000D02*
X54610000Y-43180000D01*
X54610000Y-43180000D02*
X53975000Y-43180000D01*
X54610000Y-43180000D02*
X53975000Y-43180000D01*
X53975000Y-37465000D02*
X54610000Y-37465000D01*
X54610000Y-37465000D02*
X55245000Y-38100000D01*
X55245000Y-42545000D02*
X54610000Y-43180000D01*
X55245000Y-38100000D02*
X55245000Y-42545000D01*
X53975000Y-34925000D02*
X53975000Y-31750000D01*
X48895000Y-37465000D02*
X49530000Y-37465000D01*
X49530000Y-37465000D02*
X50165000Y-36830000D01*
X50165000Y-33020000D02*
X48895000Y-31750000D01*
X50165000Y-36830000D02*
X50165000Y-33020000D01*
X48895000Y-37465000D02*
X52070000Y-40640000D01*
X52070000Y-40640000D02*
X53975000Y-40640000D01*
X48895000Y-72390000D02*
X49530000Y-72390000D01*
X49530000Y-72390000D02*
X50165000Y-71755000D01*
X50165000Y-69215000D02*
X48895000Y-67945000D01*
X50165000Y-71755000D02*
X50165000Y-69215000D01*
X52070000Y-76200000D02*
X52070000Y-74930000D01*
X52070000Y-74930000D02*
X49530000Y-72390000D01*
X52070000Y-76200000D02*
X52070000Y-75565000D01*
X52070000Y-75565000D02*
X53975000Y-73660000D01*
X48895000Y-62230000D02*
X48895000Y-65405000D01*
X53975000Y-62230000D02*
X54610000Y-62230000D01*
X54610000Y-62230000D02*
X55245000Y-62865000D01*
X55245000Y-67310000D02*
X54610000Y-67945000D01*
X55245000Y-62865000D02*
X55245000Y-67310000D01*
X54610000Y-67945000D02*
X53975000Y-67945000D01*
X53975000Y-56515000D02*
X54610000Y-56515000D01*
X54610000Y-56515000D02*
X55245000Y-57150000D01*
X55245000Y-61595000D02*
X54610000Y-62230000D01*
X55245000Y-57150000D02*
X55245000Y-61595000D01*
X53975000Y-71120000D02*
X53975000Y-67945000D01*
X48895000Y-56515000D02*
X48895000Y-59690000D01*
X62230000Y-48895000D02*
X62230000Y-55245000D01*
X60325000Y-48895000D02*
X62230000Y-48895000D01*
X62230000Y-48895000D02*
X64770000Y-46355000D01*
X60325000Y-55245000D02*
X62230000Y-55245000D01*
X62230000Y-55245000D02*
X65405000Y-55245000D01*
X65405000Y-41910000D02*
X64770000Y-41910000D01*
X64770000Y-41910000D02*
X64135000Y-42545000D01*
X64135000Y-42545000D02*
X64135000Y-45720000D01*
X64135000Y-45720000D02*
X64770000Y-46355000D01*
X60325000Y-43180000D02*
X60325000Y-46355000D01*
X67310000Y-46355000D02*
X67310000Y-48260000D01*
X67310000Y-71120000D02*
X66040000Y-72390000D01*
X67310000Y-53975000D02*
X67310000Y-71120000D01*
X68580000Y-52705000D02*
X67310000Y-53975000D01*
X68580000Y-49530000D02*
X68580000Y-52705000D01*
X67310000Y-48260000D02*
X68580000Y-49530000D01*
X66040000Y-72390000D02*
X65405000Y-72390000D01*
X65405000Y-43180000D02*
X66040000Y-43180000D01*
X66040000Y-43180000D02*
X66675000Y-42545000D01*
X66675000Y-38100000D02*
X66040000Y-37465000D01*
X66675000Y-42545000D02*
X66675000Y-38100000D01*
X66040000Y-37465000D02*
X65405000Y-37465000D01*
X67310000Y-46355000D02*
X67310000Y-44450000D01*
X67310000Y-44450000D02*
X66040000Y-43180000D01*
X65405000Y-31750000D02*
X65405000Y-34925000D01*
X60325000Y-31750000D02*
X61595000Y-33020000D01*
X61595000Y-36830000D02*
X60960000Y-37465000D01*
X61595000Y-33020000D02*
X61595000Y-36830000D01*
X60960000Y-37465000D02*
X60325000Y-37465000D01*
X60325000Y-37465000D02*
X63500000Y-40640000D01*
X63500000Y-40640000D02*
X65405000Y-40640000D01*
X63500000Y-76200000D02*
X63500000Y-75565000D01*
X63500000Y-75565000D02*
X65405000Y-73660000D01*
X63500000Y-76200000D02*
X63500000Y-74930000D01*
X63500000Y-74930000D02*
X60960000Y-72390000D01*
X60960000Y-72390000D02*
X60325000Y-72390000D01*
X60325000Y-67945000D02*
X60960000Y-67945000D01*
X60325000Y-67945000D02*
X61595000Y-69215000D01*
X61595000Y-69215000D02*
X61595000Y-71755000D01*
X61595000Y-71755000D02*
X60960000Y-72390000D01*
X60960000Y-72390000D02*
X60325000Y-72390000D01*
X60325000Y-62230000D02*
X60325000Y-65405000D01*
X65405000Y-62230000D02*
X66040000Y-62230000D01*
X66040000Y-62230000D02*
X66675000Y-61595000D01*
X66675000Y-57150000D02*
X66040000Y-56515000D01*
X66675000Y-61595000D02*
X66675000Y-57150000D01*
X66040000Y-56515000D02*
X65405000Y-56515000D01*
X65405000Y-71120000D02*
X65405000Y-67945000D01*
X65405000Y-67945000D02*
X66040000Y-67945000D01*
X66040000Y-67945000D02*
X66675000Y-67310000D01*
X66675000Y-62865000D02*
X66040000Y-62230000D01*
X66675000Y-67310000D02*
X66675000Y-62865000D01*
X60325000Y-56515000D02*
X60325000Y-59690000D01*
X76200000Y-46355000D02*
X75565000Y-45720000D01*
X75565000Y-42545000D02*
X76200000Y-41910000D01*
X75565000Y-45720000D02*
X75565000Y-42545000D01*
X76200000Y-41910000D02*
X76835000Y-41910000D01*
X73660000Y-48895000D02*
X73660000Y-55245000D01*
X71755000Y-55245000D02*
X73660000Y-55245000D01*
X73660000Y-55245000D02*
X76835000Y-55245000D01*
X76200000Y-46355000D02*
X73660000Y-48895000D01*
X73660000Y-48895000D02*
X71755000Y-48895000D01*
X71755000Y-43180000D02*
X71755000Y-46355000D01*
X78740000Y-46355000D02*
X78740000Y-48260000D01*
X78740000Y-71120000D02*
X77470000Y-72390000D01*
X78740000Y-53975000D02*
X78740000Y-71120000D01*
X80010000Y-52705000D02*
X78740000Y-53975000D01*
X80010000Y-49530000D02*
X80010000Y-52705000D01*
X78740000Y-48260000D02*
X80010000Y-49530000D01*
X77470000Y-72390000D02*
X76835000Y-72390000D01*
X76835000Y-43180000D02*
X77470000Y-43180000D01*
X77470000Y-43180000D02*
X78740000Y-44450000D01*
X78740000Y-44450000D02*
X78740000Y-46355000D01*
X76835000Y-37465000D02*
X77470000Y-37465000D01*
X77470000Y-37465000D02*
X78105000Y-38100000D01*
X78105000Y-42545000D02*
X77470000Y-43180000D01*
X78105000Y-38100000D02*
X78105000Y-42545000D01*
X76835000Y-31750000D02*
X76835000Y-34925000D01*
X71755000Y-37465000D02*
X74930000Y-40640000D01*
X74930000Y-40640000D02*
X76835000Y-40640000D01*
X71755000Y-31750000D02*
X73025000Y-33020000D01*
X73025000Y-36830000D02*
X72390000Y-37465000D01*
X73025000Y-36195000D02*
X73025000Y-36830000D01*
X73025000Y-33020000D02*
X73025000Y-36195000D01*
X72390000Y-37465000D02*
X71755000Y-37465000D01*
X74930000Y-76200000D02*
X74930000Y-75565000D01*
X74930000Y-75565000D02*
X76835000Y-73660000D01*
X71755000Y-72390000D02*
X72390000Y-72390000D01*
X72390000Y-72390000D02*
X74930000Y-74930000D01*
X74930000Y-74930000D02*
X74930000Y-76200000D01*
X71755000Y-67945000D02*
X73025000Y-69215000D01*
X73025000Y-69215000D02*
X73025000Y-71755000D01*
X73025000Y-71755000D02*
X72390000Y-72390000D01*
X71755000Y-62230000D02*
X71755000Y-65405000D01*
X76835000Y-62230000D02*
X77470000Y-62230000D01*
X77470000Y-62230000D02*
X78105000Y-61595000D01*
X78105000Y-57150000D02*
X77470000Y-56515000D01*
X78105000Y-61595000D02*
X78105000Y-57150000D01*
X77470000Y-56515000D02*
X76835000Y-56515000D01*
X76835000Y-67945000D02*
X77470000Y-67945000D01*
X77470000Y-67945000D02*
X78105000Y-67310000D01*
X78105000Y-67310000D02*
X78105000Y-63500000D01*
X78105000Y-63500000D02*
X78105000Y-62865000D01*
X78105000Y-62865000D02*
X77470000Y-62230000D01*
X76835000Y-67945000D02*
X76835000Y-71120000D01*
X71755000Y-56515000D02*
X71755000Y-59690000D01*
X85090000Y-48895000D02*
X85090000Y-55245000D01*
X83185000Y-48895000D02*
X84455000Y-48895000D01*
X85090000Y-48895000D02*
X87630000Y-46355000D01*
X84455000Y-48895000D02*
X85090000Y-48895000D01*
X83185000Y-55245000D02*
X85090000Y-55245000D01*
X85090000Y-55245000D02*
X88265000Y-55245000D01*
X87630000Y-46355000D02*
X86995000Y-45720000D01*
X86995000Y-42545000D02*
X87630000Y-41910000D01*
X86995000Y-45720000D02*
X86995000Y-42545000D01*
X87630000Y-41910000D02*
X88265000Y-41910000D01*
X83185000Y-43180000D02*
X83185000Y-46355000D01*
X88265000Y-72390000D02*
X88900000Y-72390000D01*
X88900000Y-72390000D02*
X90170000Y-71120000D01*
X90170000Y-71120000D02*
X90170000Y-53975000D01*
X90170000Y-53975000D02*
X91440000Y-52705000D01*
X91440000Y-52705000D02*
X91440000Y-49530000D01*
X91440000Y-49530000D02*
X90170000Y-48260000D01*
X90170000Y-48260000D02*
X90170000Y-46355000D01*
X88265000Y-43180000D02*
X88900000Y-43180000D01*
X88900000Y-43180000D02*
X89535000Y-42545000D01*
X89535000Y-38100000D02*
X88900000Y-37465000D01*
X89535000Y-38735000D02*
X89535000Y-38100000D01*
X89535000Y-42545000D02*
X89535000Y-38735000D01*
X88900000Y-37465000D02*
X88265000Y-37465000D01*
X88900000Y-43180000D02*
X90170000Y-44450000D01*
X90170000Y-44450000D02*
X90170000Y-46355000D01*
X88265000Y-31750000D02*
X88265000Y-34925000D01*
X83185000Y-37465000D02*
X83820000Y-37465000D01*
X83820000Y-37465000D02*
X84455000Y-36830000D01*
X84455000Y-33020000D02*
X83185000Y-31750000D01*
X84455000Y-36830000D02*
X84455000Y-33020000D01*
X83185000Y-37465000D02*
X86360000Y-40640000D01*
X86360000Y-40640000D02*
X88265000Y-40640000D01*
X86360000Y-76200000D02*
X86360000Y-75565000D01*
X86360000Y-75565000D02*
X88265000Y-73660000D01*
X86360000Y-76200000D02*
X86360000Y-74930000D01*
X86360000Y-74930000D02*
X83820000Y-72390000D01*
X83820000Y-72390000D02*
X83185000Y-72390000D01*
X83185000Y-67945000D02*
X84455000Y-69215000D01*
X84455000Y-71755000D02*
X83820000Y-72390000D01*
X84455000Y-69215000D02*
X84455000Y-71755000D01*
X83820000Y-72390000D02*
X83185000Y-72390000D01*
X83185000Y-62230000D02*
X83185000Y-65405000D01*
X88265000Y-62230000D02*
X88900000Y-62230000D01*
X88900000Y-62230000D02*
X89535000Y-61595000D01*
X89535000Y-57150000D02*
X88900000Y-56515000D01*
X89535000Y-61595000D02*
X89535000Y-57150000D01*
X88900000Y-56515000D02*
X88265000Y-56515000D01*
X88265000Y-67945000D02*
X88900000Y-67945000D01*
X88900000Y-67945000D02*
X89535000Y-67310000D01*
X89535000Y-67310000D02*
X89535000Y-62865000D01*
X89535000Y-62865000D02*
X88900000Y-62230000D01*
X88265000Y-67945000D02*
X88265000Y-71120000D01*
X83185000Y-56515000D02*
X83185000Y-59690000D01*
X99060000Y-46355000D02*
X98425000Y-45720000D01*
X98425000Y-42545000D02*
X99060000Y-41910000D01*
X98425000Y-45720000D02*
X98425000Y-42545000D01*
X99060000Y-41910000D02*
X99695000Y-41910000D01*
X96520000Y-48895000D02*
X96520000Y-55245000D01*
X94615000Y-55245000D02*
X96520000Y-55245000D01*
X96520000Y-55245000D02*
X99695000Y-55245000D01*
X99060000Y-46355000D02*
X96520000Y-48895000D01*
X96520000Y-48895000D02*
X94615000Y-48895000D01*
X94615000Y-43180000D02*
X94615000Y-46355000D01*
X101600000Y-46355000D02*
X101600000Y-48260000D01*
X101600000Y-71120000D02*
X100330000Y-72390000D01*
X101600000Y-53975000D02*
X101600000Y-71120000D01*
X102870000Y-52705000D02*
X101600000Y-53975000D01*
X102870000Y-49530000D02*
X102870000Y-52705000D01*
X101600000Y-48260000D02*
X102870000Y-49530000D01*
X100330000Y-72390000D02*
X99695000Y-72390000D01*
X99695000Y-43180000D02*
X100330000Y-43180000D01*
X100330000Y-43180000D02*
X100965000Y-42545000D01*
X100965000Y-38100000D02*
X100330000Y-37465000D01*
X100965000Y-42545000D02*
X100965000Y-38100000D01*
X100330000Y-37465000D02*
X99695000Y-37465000D01*
X101600000Y-46355000D02*
X101600000Y-44450000D01*
X101600000Y-44450000D02*
X100330000Y-43180000D01*
X99695000Y-31750000D02*
X99695000Y-34925000D01*
X99695000Y-40640000D02*
X97790000Y-40640000D01*
X97790000Y-40640000D02*
X94615000Y-37465000D01*
X94615000Y-31750000D02*
X95885000Y-33020000D01*
X95885000Y-36830000D02*
X95250000Y-37465000D01*
X95885000Y-33020000D02*
X95885000Y-36830000D01*
X95250000Y-37465000D02*
X94615000Y-37465000D01*
X94615000Y-72390000D02*
X95250000Y-72390000D01*
X95250000Y-72390000D02*
X95885000Y-71755000D01*
X95885000Y-69215000D02*
X94615000Y-67945000D01*
X95885000Y-71755000D02*
X95885000Y-69215000D01*
X97790000Y-76200000D02*
X97790000Y-74930000D01*
X97790000Y-74930000D02*
X95250000Y-72390000D01*
X97790000Y-76200000D02*
X97790000Y-75565000D01*
X97790000Y-75565000D02*
X99695000Y-73660000D01*
X94615000Y-62230000D02*
X94615000Y-65405000D01*
X99695000Y-67945000D02*
X100330000Y-67945000D01*
X100330000Y-67945000D02*
X100965000Y-67310000D01*
X100965000Y-62865000D02*
X100330000Y-62230000D01*
X100965000Y-67310000D02*
X100965000Y-62865000D01*
X100330000Y-62230000D02*
X99695000Y-62230000D01*
X99695000Y-62230000D02*
X100330000Y-62230000D01*
X100330000Y-62230000D02*
X100965000Y-61595000D01*
X100965000Y-61595000D02*
X100965000Y-57150000D01*
X100965000Y-57150000D02*
X100330000Y-56515000D01*
X100330000Y-56515000D02*
X99695000Y-56515000D01*
X99695000Y-67945000D02*
X99695000Y-71120000D01*
X94615000Y-56515000D02*
X94615000Y-59690000D01*
X107950000Y-48895000D02*
X107950000Y-55245000D01*
X106045000Y-55245000D02*
X107950000Y-55245000D01*
X107950000Y-55245000D02*
X111125000Y-55245000D01*
X106045000Y-48895000D02*
X107950000Y-48895000D01*
X107950000Y-48895000D02*
X110490000Y-46355000D01*
X110490000Y-46355000D02*
X109855000Y-45720000D01*
X109855000Y-42545000D02*
X110490000Y-41910000D01*
X109855000Y-45720000D02*
X109855000Y-42545000D01*
X110490000Y-41910000D02*
X111125000Y-41910000D01*
X106045000Y-43180000D02*
X106045000Y-46355000D01*
X111125000Y-72390000D02*
X111760000Y-72390000D01*
X111760000Y-72390000D02*
X113030000Y-71120000D01*
X113030000Y-71120000D02*
X113030000Y-53975000D01*
X113030000Y-53975000D02*
X114300000Y-52705000D01*
X114300000Y-52705000D02*
X114300000Y-49530000D01*
X114300000Y-49530000D02*
X113030000Y-48260000D01*
X113030000Y-48260000D02*
X113030000Y-46355000D01*
X111125000Y-43180000D02*
X111760000Y-43180000D01*
X111760000Y-43180000D02*
X113030000Y-44450000D01*
X113030000Y-44450000D02*
X113030000Y-46355000D01*
X111125000Y-37465000D02*
X111760000Y-37465000D01*
X111760000Y-37465000D02*
X112395000Y-38100000D01*
X112395000Y-42545000D02*
X111760000Y-43180000D01*
X112395000Y-38100000D02*
X112395000Y-42545000D01*
X111125000Y-31750000D02*
X111125000Y-34925000D01*
X106045000Y-37465000D02*
X109220000Y-40640000D01*
X109220000Y-40640000D02*
X111125000Y-40640000D01*
X106045000Y-31750000D02*
X107315000Y-33020000D01*
X107315000Y-36830000D02*
X106680000Y-37465000D01*
X107315000Y-33020000D02*
X107315000Y-36830000D01*
X106680000Y-37465000D02*
X106045000Y-37465000D01*
X106045000Y-72390000D02*
X106680000Y-72390000D01*
X106680000Y-72390000D02*
X107315000Y-71755000D01*
X107315000Y-69215000D02*
X106045000Y-67945000D01*
X107315000Y-71755000D02*
X107315000Y-69215000D01*
X109220000Y-76200000D02*
X109220000Y-74930000D01*
X109220000Y-74930000D02*
X106680000Y-72390000D01*
X109220000Y-76200000D02*
X109220000Y-75565000D01*
X109220000Y-75565000D02*
X111125000Y-73660000D01*
X106045000Y-62230000D02*
X106045000Y-65405000D01*
X111125000Y-62230000D02*
X111760000Y-62230000D01*
X111760000Y-62230000D02*
X112395000Y-61595000D01*
X112395000Y-57150000D02*
X111760000Y-56515000D01*
X112395000Y-61595000D02*
X112395000Y-57150000D01*
X111760000Y-56515000D02*
X111125000Y-56515000D01*
X111125000Y-67945000D02*
X111760000Y-67945000D01*
X111760000Y-67945000D02*
X112395000Y-67310000D01*
X112395000Y-67310000D02*
X112395000Y-62865000D01*
X112395000Y-62865000D02*
X111760000Y-62230000D01*
X111125000Y-67945000D02*
X111125000Y-71120000D01*
X106045000Y-56515000D02*
X106045000Y-59690000D01*
X119380000Y-48895000D02*
X119380000Y-55245000D01*
X121920000Y-46355000D02*
X119380000Y-48895000D01*
X119380000Y-48895000D02*
X117475000Y-48895000D01*
X121920000Y-46355000D02*
X121285000Y-45720000D01*
X121285000Y-42545000D02*
X121920000Y-41910000D01*
X121285000Y-45720000D02*
X121285000Y-42545000D01*
X121920000Y-41910000D02*
X122555000Y-41910000D01*
X117475000Y-55245000D02*
X119380000Y-55245000D01*
X119380000Y-55245000D02*
X122555000Y-55245000D01*
X117475000Y-43180000D02*
X117475000Y-46355000D01*
X122555000Y-43180000D02*
X123190000Y-43180000D01*
X123190000Y-43180000D02*
X124460000Y-44450000D01*
X124460000Y-44450000D02*
X124460000Y-46355000D01*
X123190000Y-43180000D02*
X123825000Y-42545000D01*
X123825000Y-42545000D02*
X123825000Y-38100000D01*
X123825000Y-38100000D02*
X123190000Y-37465000D01*
X123190000Y-37465000D02*
X122555000Y-37465000D01*
X122555000Y-72390000D02*
X123190000Y-72390000D01*
X123190000Y-72390000D02*
X124460000Y-71120000D01*
X124460000Y-71120000D02*
X124460000Y-53975000D01*
X124460000Y-53975000D02*
X125730000Y-52705000D01*
X125730000Y-52705000D02*
X125730000Y-49530000D01*
X125730000Y-49530000D02*
X124460000Y-48260000D01*
X124460000Y-48260000D02*
X124460000Y-46355000D01*
X122555000Y-31750000D02*
X122555000Y-34925000D01*
X122555000Y-40640000D02*
X120650000Y-40640000D01*
X120650000Y-40640000D02*
X117475000Y-37465000D01*
X117475000Y-31750000D02*
X118745000Y-33020000D01*
X118745000Y-36830000D02*
X118110000Y-37465000D01*
X118745000Y-33020000D02*
X118745000Y-36830000D01*
X118110000Y-37465000D02*
X117475000Y-37465000D01*
X117475000Y-72390000D02*
X118110000Y-72390000D01*
X118110000Y-72390000D02*
X118745000Y-71755000D01*
X118745000Y-69215000D02*
X117475000Y-67945000D01*
X118745000Y-71755000D02*
X118745000Y-69215000D01*
X120650000Y-76200000D02*
X120650000Y-74930000D01*
X120650000Y-74930000D02*
X118110000Y-72390000D01*
X120650000Y-76200000D02*
X120650000Y-75565000D01*
X120650000Y-75565000D02*
X122555000Y-73660000D01*
X117475000Y-62230000D02*
X117475000Y-65405000D01*
X122555000Y-62230000D02*
X123190000Y-62230000D01*
X123190000Y-62230000D02*
X123825000Y-61595000D01*
X123825000Y-57150000D02*
X123190000Y-56515000D01*
X123825000Y-61595000D02*
X123825000Y-57150000D01*
X123190000Y-56515000D02*
X122555000Y-56515000D01*
X122555000Y-67945000D02*
X123190000Y-67945000D01*
X123190000Y-67945000D02*
X123825000Y-67310000D01*
X123825000Y-67310000D02*
X123825000Y-62865000D01*
X123825000Y-62865000D02*
X123190000Y-62230000D01*
X122555000Y-67945000D02*
X122555000Y-71120000D01*
X117475000Y-56515000D02*
X117475000Y-59690000D01*
X130810000Y-48895000D02*
X130810000Y-55245000D01*
X128905000Y-55245000D02*
X130810000Y-55245000D01*
X130810000Y-55245000D02*
X133985000Y-55245000D01*
X128905000Y-48895000D02*
X130810000Y-48895000D01*
X130810000Y-48895000D02*
X133350000Y-46355000D01*
X133350000Y-46355000D02*
X132715000Y-45720000D01*
X132715000Y-42545000D02*
X133350000Y-41910000D01*
X132715000Y-45720000D02*
X132715000Y-42545000D01*
X133350000Y-41910000D02*
X133985000Y-41910000D01*
X128905000Y-46355000D02*
X128905000Y-43180000D01*
X133985000Y-31750000D02*
X133985000Y-34925000D01*
X128905000Y-37465000D02*
X132080000Y-40640000D01*
X132080000Y-40640000D02*
X133985000Y-40640000D01*
X128905000Y-31750000D02*
X130175000Y-33020000D01*
X130175000Y-36830000D02*
X129540000Y-37465000D01*
X130175000Y-33020000D02*
X130175000Y-36830000D01*
X129540000Y-37465000D02*
X128905000Y-37465000D01*
X132080000Y-76200000D02*
X132080000Y-75565000D01*
X132080000Y-75565000D02*
X133985000Y-73660000D01*
X128905000Y-72390000D02*
X129540000Y-72390000D01*
X129540000Y-72390000D02*
X132080000Y-74930000D01*
X132080000Y-74930000D02*
X132080000Y-76200000D01*
X128905000Y-67945000D02*
X130175000Y-69215000D01*
X130175000Y-69215000D02*
X130175000Y-71755000D01*
X130175000Y-71755000D02*
X129540000Y-72390000D01*
X128905000Y-62230000D02*
X128905000Y-65405000D01*
X133985000Y-62230000D02*
X134620000Y-62230000D01*
X134620000Y-62230000D02*
X135255000Y-61595000D01*
X135255000Y-57150000D02*
X134620000Y-56515000D01*
X135255000Y-61595000D02*
X135255000Y-57150000D01*
X134620000Y-56515000D02*
X133985000Y-56515000D01*
X133985000Y-67945000D02*
X134620000Y-67945000D01*
X134620000Y-67945000D02*
X135255000Y-67310000D01*
X135255000Y-67310000D02*
X135255000Y-62865000D01*
X135255000Y-62865000D02*
X134620000Y-62230000D01*
X133985000Y-67945000D02*
X133985000Y-71120000D01*
X128905000Y-56515000D02*
X128905000Y-59690000D01*
X49212500Y-83820000D02*
X45085000Y-83820000D01*
X50165000Y-82867500D02*
X49212500Y-83820000D01*
X50165000Y-78105000D02*
X50165000Y-82867500D01*
X53975000Y-92392500D02*
X53975000Y-93345000D01*
X51117500Y-89535000D02*
X53975000Y-92392500D01*
X51117500Y-88900000D02*
X51117500Y-89535000D01*
X51117500Y-87630000D02*
X51117500Y-88900000D01*
X51117500Y-83820000D02*
X51117500Y-86360000D01*
X50165000Y-82867500D02*
X51117500Y-83820000D01*
X53975000Y-93345000D02*
X53975000Y-95250000D01*
X53975000Y-95250000D02*
X54610000Y-95885000D01*
X54610000Y-95885000D02*
X57785000Y-95885000D01*
X59055000Y-95885000D02*
X62230000Y-95885000D01*
X62230000Y-95885000D02*
X65405000Y-99060000D01*
X65405000Y-99060000D02*
X65405000Y-99695000D01*
X50165000Y-78105000D02*
X48260000Y-76200000D01*
X65405000Y-99060000D02*
X65405000Y-99695000D01*
X48260000Y-76200000D02*
X48260000Y-74295000D01*
X48260000Y-74295000D02*
X48895000Y-73660000D01*
X136525000Y-78740000D02*
X138430000Y-78740000D01*
X128270000Y-76200000D02*
X130810000Y-78740000D01*
X130810000Y-78740000D02*
X136525000Y-78740000D01*
X122555000Y-86995000D02*
X122555000Y-84455000D01*
X128270000Y-78740000D02*
X128270000Y-76200000D01*
X122555000Y-84455000D02*
X128270000Y-78740000D01*
X122555000Y-86995000D02*
X122555000Y-88900000D01*
X130810000Y-89535000D02*
X133985000Y-92710000D01*
X127635000Y-89535000D02*
X130810000Y-89535000D01*
X123190000Y-89535000D02*
X126365000Y-89535000D01*
X122555000Y-88900000D02*
X123190000Y-89535000D01*
X133985000Y-92710000D02*
X133985000Y-93345000D01*
X128270000Y-76200000D02*
X128270000Y-74295000D01*
X128270000Y-74295000D02*
X128905000Y-73660000D01*
X53975000Y-99695000D02*
X53975000Y-103505000D01*
X137160000Y-90805000D02*
X133985000Y-87630000D01*
X137160000Y-103505000D02*
X137160000Y-90805000D01*
X133985000Y-87630000D02*
X133985000Y-86995000D01*
X85090000Y-108585000D02*
X85090000Y-113030000D01*
X46990000Y-99695000D02*
X46990000Y-104775000D01*
X50800000Y-108585000D02*
X85090000Y-108585000D01*
X46990000Y-104775000D02*
X50800000Y-108585000D01*
X46990000Y-86995000D02*
X46990000Y-93345000D01*
X46990000Y-93345000D02*
X46990000Y-99695000D01*
X87630000Y-113030000D02*
X87630000Y-108585000D01*
X87630000Y-108585000D02*
X85725000Y-106680000D01*
X85725000Y-106680000D02*
X60960000Y-106680000D01*
X60960000Y-106680000D02*
X58420000Y-104140000D01*
X58420000Y-104140000D02*
X58420000Y-99695000D01*
X58420000Y-86995000D02*
X58420000Y-93345000D01*
X58420000Y-93345000D02*
X58420000Y-99695000D01*
X90170000Y-108585000D02*
X90170000Y-113030000D01*
X69850000Y-99695000D02*
X69850000Y-102870000D01*
X86995000Y-105410000D02*
X90170000Y-108585000D01*
X72390000Y-105410000D02*
X86995000Y-105410000D01*
X69850000Y-102870000D02*
X72390000Y-105410000D01*
X69850000Y-86995000D02*
X69850000Y-93345000D01*
X69850000Y-93345000D02*
X69850000Y-99695000D01*
X92710000Y-108585000D02*
X92710000Y-113030000D01*
X92710000Y-108585000D02*
X88265000Y-104140000D01*
X81280000Y-102870000D02*
X81280000Y-99695000D01*
X82550000Y-104140000D02*
X81280000Y-102870000D01*
X88265000Y-104140000D02*
X82550000Y-104140000D01*
X81280000Y-86995000D02*
X81280000Y-93345000D01*
X81280000Y-93345000D02*
X81280000Y-99695000D01*
X95250000Y-108585000D02*
X95250000Y-113030000D01*
X92710000Y-99695000D02*
X92710000Y-106045000D01*
X92710000Y-106045000D02*
X95250000Y-108585000D01*
X92710000Y-86995000D02*
X92710000Y-93345000D01*
X92710000Y-93345000D02*
X92710000Y-99695000D01*
X104140000Y-99695000D02*
X104140000Y-102235000D01*
X104140000Y-102235000D02*
X97790000Y-108585000D01*
X97790000Y-108585000D02*
X97790000Y-113030000D01*
X104140000Y-86995000D02*
X104140000Y-93345000D01*
X104140000Y-93345000D02*
X104140000Y-99695000D01*
X115570000Y-99695000D02*
X115570000Y-103505000D01*
X102235000Y-106680000D02*
X100330000Y-108585000D01*
X112395000Y-106680000D02*
X102235000Y-106680000D01*
X115570000Y-103505000D02*
X112395000Y-106680000D01*
X100330000Y-108585000D02*
X100330000Y-113030000D01*
X115570000Y-86995000D02*
X115570000Y-93345000D01*
X115570000Y-93345000D02*
X115570000Y-99695000D01*
X127000000Y-99695000D02*
X127000000Y-103505000D01*
X121920000Y-108585000D02*
X102870000Y-108585000D01*
X127000000Y-103505000D02*
X121920000Y-108585000D01*
X102870000Y-108585000D02*
X102870000Y-113030000D01*
X127000000Y-86995000D02*
X127000000Y-93345000D01*
X127000000Y-93345000D02*
X127000000Y-99695000D01*
X53975000Y-86995000D02*
X53975000Y-84455000D01*
X59690000Y-78740000D02*
X59690000Y-76200000D01*
X53975000Y-84455000D02*
X59690000Y-78740000D01*
X65405000Y-93345000D02*
X65405000Y-95250000D01*
X73660000Y-95885000D02*
X76835000Y-99060000D01*
X73025000Y-95885000D02*
X73660000Y-95885000D01*
X72390000Y-95885000D02*
X73025000Y-95885000D01*
X70485000Y-95885000D02*
X72390000Y-95885000D01*
X66040000Y-95885000D02*
X69215000Y-95885000D01*
X65405000Y-95250000D02*
X66040000Y-95885000D01*
X76835000Y-99060000D02*
X76835000Y-99695000D01*
X53975000Y-86995000D02*
X53975000Y-88900000D01*
X62230000Y-89535000D02*
X65405000Y-92710000D01*
X59055000Y-89535000D02*
X62230000Y-89535000D01*
X54610000Y-89535000D02*
X57785000Y-89535000D01*
X53975000Y-88900000D02*
X54610000Y-89535000D01*
X65405000Y-92710000D02*
X65405000Y-93345000D01*
X65405000Y-92710000D02*
X65405000Y-93345000D01*
X59690000Y-76200000D02*
X59690000Y-74295000D01*
X59690000Y-74295000D02*
X60325000Y-73660000D01*
X65405000Y-86995000D02*
X65405000Y-84455000D01*
X71120000Y-78740000D02*
X71120000Y-76200000D01*
X65405000Y-84455000D02*
X71120000Y-78740000D01*
X76835000Y-93345000D02*
X76835000Y-95250000D01*
X85090000Y-95885000D02*
X88265000Y-99060000D01*
X81915000Y-95885000D02*
X85090000Y-95885000D01*
X77470000Y-95885000D02*
X80645000Y-95885000D01*
X76835000Y-95250000D02*
X77470000Y-95885000D01*
X88265000Y-99060000D02*
X88265000Y-99695000D01*
X65405000Y-86995000D02*
X65405000Y-88900000D01*
X73660000Y-89535000D02*
X76835000Y-92710000D01*
X71755000Y-89535000D02*
X73660000Y-89535000D01*
X70485000Y-89535000D02*
X71755000Y-89535000D01*
X66040000Y-89535000D02*
X69215000Y-89535000D01*
X65405000Y-88900000D02*
X66040000Y-89535000D01*
X76835000Y-92710000D02*
X76835000Y-93345000D01*
X71120000Y-76200000D02*
X71120000Y-74295000D01*
X71120000Y-74295000D02*
X71755000Y-73660000D01*
X76835000Y-86995000D02*
X76835000Y-84455000D01*
X82550000Y-78740000D02*
X82550000Y-76200000D01*
X76835000Y-84455000D02*
X82550000Y-78740000D01*
X88265000Y-93345000D02*
X88265000Y-95250000D01*
X96520000Y-95885000D02*
X99695000Y-99060000D01*
X93345000Y-95885000D02*
X96520000Y-95885000D01*
X88900000Y-95885000D02*
X92075000Y-95885000D01*
X88265000Y-95250000D02*
X88900000Y-95885000D01*
X99695000Y-99060000D02*
X99695000Y-99695000D01*
X76835000Y-86995000D02*
X76835000Y-88900000D01*
X85090000Y-89535000D02*
X88265000Y-92710000D01*
X81915000Y-89535000D02*
X85090000Y-89535000D01*
X77470000Y-89535000D02*
X80645000Y-89535000D01*
X76835000Y-88900000D02*
X77470000Y-89535000D01*
X88265000Y-92710000D02*
X88265000Y-93345000D01*
X82550000Y-76200000D02*
X82550000Y-74295000D01*
X82550000Y-74295000D02*
X83185000Y-73660000D01*
X88265000Y-86995000D02*
X88265000Y-84455000D01*
X93980000Y-78740000D02*
X93980000Y-76200000D01*
X88265000Y-84455000D02*
X93980000Y-78740000D01*
X99695000Y-93345000D02*
X99695000Y-95250000D01*
X107950000Y-95885000D02*
X111125000Y-99060000D01*
X104775000Y-95885000D02*
X107950000Y-95885000D01*
X100330000Y-95885000D02*
X103505000Y-95885000D01*
X99695000Y-95250000D02*
X100330000Y-95885000D01*
X111125000Y-99060000D02*
X111125000Y-99695000D01*
X88265000Y-86995000D02*
X88265000Y-88900000D01*
X96520000Y-89535000D02*
X99695000Y-92710000D01*
X93345000Y-89535000D02*
X96520000Y-89535000D01*
X88900000Y-89535000D02*
X92075000Y-89535000D01*
X88265000Y-88900000D02*
X88900000Y-89535000D01*
X99695000Y-92710000D02*
X99695000Y-93345000D01*
X94615000Y-73660000D02*
X93980000Y-74295000D01*
X93980000Y-74295000D02*
X93980000Y-76200000D01*
X99695000Y-86995000D02*
X99695000Y-84455000D01*
X105410000Y-78740000D02*
X105410000Y-76200000D01*
X99695000Y-84455000D02*
X105410000Y-78740000D01*
X111125000Y-93345000D02*
X111125000Y-95250000D01*
X119380000Y-95885000D02*
X122555000Y-99060000D01*
X116205000Y-95885000D02*
X119380000Y-95885000D01*
X111760000Y-95885000D02*
X114935000Y-95885000D01*
X111125000Y-95250000D02*
X111760000Y-95885000D01*
X122555000Y-99060000D02*
X122555000Y-99695000D01*
X99695000Y-86995000D02*
X99695000Y-88900000D01*
X107950000Y-89535000D02*
X111125000Y-92710000D01*
X104775000Y-89535000D02*
X107950000Y-89535000D01*
X100330000Y-89535000D02*
X103505000Y-89535000D01*
X99695000Y-88900000D02*
X100330000Y-89535000D01*
X111125000Y-92710000D02*
X111125000Y-93345000D01*
X105410000Y-76200000D02*
X105410000Y-74295000D01*
X105410000Y-74295000D02*
X106045000Y-73660000D01*
X111125000Y-86995000D02*
X111125000Y-84455000D01*
X116840000Y-78740000D02*
X116840000Y-76200000D01*
X111125000Y-84455000D02*
X116840000Y-78740000D01*
X122555000Y-93345000D02*
X122555000Y-95250000D01*
X130810000Y-95885000D02*
X133985000Y-99060000D01*
X127635000Y-95885000D02*
X130810000Y-95885000D01*
X123190000Y-95885000D02*
X126365000Y-95885000D01*
X122555000Y-95250000D02*
X123190000Y-95885000D01*
X133985000Y-99060000D02*
X133985000Y-99695000D01*
X111125000Y-86995000D02*
X111125000Y-88900000D01*
X119380000Y-89535000D02*
X122555000Y-92710000D01*
X116205000Y-89535000D02*
X119380000Y-89535000D01*
X111760000Y-89535000D02*
X114935000Y-89535000D01*
X111125000Y-88900000D02*
X111760000Y-89535000D01*
X122555000Y-92710000D02*
X122555000Y-93345000D01*
X116840000Y-76200000D02*
X116840000Y-74295000D01*
X116840000Y-74295000D02*
X117475000Y-73660000D01*
X49530000Y-99695000D02*
X52705000Y-99695000D01*
X49530000Y-93345000D02*
X52705000Y-93345000D01*
X49530000Y-86995000D02*
X52705000Y-86995000D01*
X60960000Y-99695000D02*
X64135000Y-99695000D01*
X60960000Y-93345000D02*
X64135000Y-93345000D01*
X60960000Y-86995000D02*
X64135000Y-86995000D01*
X72390000Y-99695000D02*
X75565000Y-99695000D01*
X72390000Y-93345000D02*
X75565000Y-93345000D01*
X72390000Y-86995000D02*
X75565000Y-86995000D01*
X83820000Y-99695000D02*
X86995000Y-99695000D01*
X83820000Y-93345000D02*
X86995000Y-93345000D01*
X83820000Y-86995000D02*
X86995000Y-86995000D01*
X95250000Y-99695000D02*
X98425000Y-99695000D01*
X95250000Y-93345000D02*
X98425000Y-93345000D01*
X95250000Y-86995000D02*
X98425000Y-86995000D01*
X106680000Y-99695000D02*
X109855000Y-99695000D01*
X106680000Y-93345000D02*
X109855000Y-93345000D01*
X106680000Y-86995000D02*
X109855000Y-86995000D01*
X118110000Y-99695000D02*
X121285000Y-99695000D01*
X118110000Y-93345000D02*
X121285000Y-93345000D01*
X118110000Y-86995000D02*
X121285000Y-86995000D01*
X129540000Y-99695000D02*
X132715000Y-99695000D01*
X132715000Y-93345000D02*
X129540000Y-93345000D01*
X129540000Y-86995000D02*
X132715000Y-86995000D01*
M02*
