G04 #@! TF.FileFunction,Soldermask,Top*
%FSLAX46Y46*%
G04 Gerber Fmt 4.6, Leading zero omitted, Abs format (unit mm)*
G04 Created by KiCad (PCBNEW 4.0.7-e2-6376~61~ubuntu18.04.1) date Sun Jul 14 08:04:14 2019*
%MOMM*%
%LPD*%
G01*
G04 APERTURE LIST*
%ADD10C,0.100000*%
%ADD11R,2.100000X2.100000*%
%ADD12O,2.100000X2.100000*%
%ADD13O,1.900000X1.300000*%
%ADD14R,1.900000X1.300000*%
%ADD15C,1.800000*%
%ADD16O,1.800000X1.800000*%
%ADD17O,1.300000X1.900000*%
%ADD18R,1.300000X1.900000*%
%ADD19C,6.800000*%
G04 APERTURE END LIST*
D10*
D11*
X45085000Y-81280000D03*
D12*
X45085000Y-78740000D03*
D11*
X81915000Y-19050000D03*
D12*
X84455000Y-19050000D03*
X86995000Y-19050000D03*
X89535000Y-19050000D03*
X92075000Y-19050000D03*
X94615000Y-19050000D03*
X97155000Y-19050000D03*
X99695000Y-19050000D03*
D11*
X81915000Y-23495000D03*
D12*
X84455000Y-23495000D03*
X86995000Y-23495000D03*
X89535000Y-23495000D03*
X92075000Y-23495000D03*
X94615000Y-23495000D03*
X97155000Y-23495000D03*
X99695000Y-23495000D03*
D11*
X44450000Y-46990000D03*
X138430000Y-76200000D03*
X44450000Y-44450000D03*
D13*
X48895000Y-47625000D03*
X48895000Y-48895000D03*
D14*
X48895000Y-46355000D03*
D13*
X53975000Y-36195000D03*
X53975000Y-37465000D03*
D14*
X53975000Y-34925000D03*
D13*
X53975000Y-41910000D03*
X53975000Y-43180000D03*
D14*
X53975000Y-40640000D03*
D13*
X48895000Y-66675000D03*
X48895000Y-67945000D03*
D14*
X48895000Y-65405000D03*
D13*
X53975000Y-72390000D03*
X53975000Y-73660000D03*
D14*
X53975000Y-71120000D03*
D13*
X48895000Y-72390000D03*
X48895000Y-73660000D03*
D14*
X48895000Y-71120000D03*
D13*
X48895000Y-41910000D03*
X48895000Y-43180000D03*
D14*
X48895000Y-40640000D03*
D13*
X53975000Y-30480000D03*
X53975000Y-31750000D03*
D14*
X53975000Y-29210000D03*
D13*
X48895000Y-36195000D03*
X48895000Y-37465000D03*
D14*
X48895000Y-34925000D03*
D13*
X48895000Y-30480000D03*
X48895000Y-31750000D03*
D14*
X48895000Y-29210000D03*
D13*
X48895000Y-60960000D03*
X48895000Y-62230000D03*
D14*
X48895000Y-59690000D03*
D13*
X53975000Y-66675000D03*
X53975000Y-67945000D03*
D14*
X53975000Y-65405000D03*
D13*
X53975000Y-60960000D03*
X53975000Y-62230000D03*
D14*
X53975000Y-59690000D03*
D13*
X53975000Y-55245000D03*
X53975000Y-56515000D03*
D14*
X53975000Y-53975000D03*
D13*
X48895000Y-55245000D03*
X48895000Y-56515000D03*
D14*
X48895000Y-53975000D03*
D13*
X60325000Y-47625000D03*
X60325000Y-48895000D03*
D14*
X60325000Y-46355000D03*
D13*
X65405000Y-36195000D03*
X65405000Y-37465000D03*
D14*
X65405000Y-34925000D03*
D13*
X65405000Y-41910000D03*
X65405000Y-43180000D03*
D14*
X65405000Y-40640000D03*
D13*
X60325000Y-66675000D03*
X60325000Y-67945000D03*
D14*
X60325000Y-65405000D03*
D13*
X65405000Y-72390000D03*
X65405000Y-73660000D03*
D14*
X65405000Y-71120000D03*
D13*
X60325000Y-72390000D03*
X60325000Y-73660000D03*
D14*
X60325000Y-71120000D03*
D13*
X60325000Y-41910000D03*
X60325000Y-43180000D03*
D14*
X60325000Y-40640000D03*
D13*
X65405000Y-30480000D03*
X65405000Y-31750000D03*
D14*
X65405000Y-29210000D03*
D13*
X60325000Y-36195000D03*
X60325000Y-37465000D03*
D14*
X60325000Y-34925000D03*
D13*
X60325000Y-30480000D03*
X60325000Y-31750000D03*
D14*
X60325000Y-29210000D03*
D13*
X60325000Y-60960000D03*
X60325000Y-62230000D03*
D14*
X60325000Y-59690000D03*
D13*
X65405000Y-66675000D03*
X65405000Y-67945000D03*
D14*
X65405000Y-65405000D03*
D13*
X65405000Y-60960000D03*
X65405000Y-62230000D03*
D14*
X65405000Y-59690000D03*
D13*
X65405000Y-55245000D03*
X65405000Y-56515000D03*
D14*
X65405000Y-53975000D03*
D13*
X60325000Y-55245000D03*
X60325000Y-56515000D03*
D14*
X60325000Y-53975000D03*
D13*
X71755000Y-47625000D03*
X71755000Y-48895000D03*
D14*
X71755000Y-46355000D03*
D13*
X76835000Y-36195000D03*
X76835000Y-37465000D03*
D14*
X76835000Y-34925000D03*
D13*
X76835000Y-41910000D03*
X76835000Y-43180000D03*
D14*
X76835000Y-40640000D03*
D13*
X71755000Y-66675000D03*
X71755000Y-67945000D03*
D14*
X71755000Y-65405000D03*
D13*
X76835000Y-72390000D03*
X76835000Y-73660000D03*
D14*
X76835000Y-71120000D03*
D13*
X71755000Y-72390000D03*
X71755000Y-73660000D03*
D14*
X71755000Y-71120000D03*
D13*
X71755000Y-41910000D03*
X71755000Y-43180000D03*
D14*
X71755000Y-40640000D03*
D13*
X76835000Y-30480000D03*
X76835000Y-31750000D03*
D14*
X76835000Y-29210000D03*
D13*
X71755000Y-36195000D03*
X71755000Y-37465000D03*
D14*
X71755000Y-34925000D03*
D13*
X71755000Y-30480000D03*
X71755000Y-31750000D03*
D14*
X71755000Y-29210000D03*
D13*
X71755000Y-60960000D03*
X71755000Y-62230000D03*
D14*
X71755000Y-59690000D03*
D13*
X76835000Y-66675000D03*
X76835000Y-67945000D03*
D14*
X76835000Y-65405000D03*
D13*
X76835000Y-60960000D03*
X76835000Y-62230000D03*
D14*
X76835000Y-59690000D03*
D13*
X76835000Y-55245000D03*
X76835000Y-56515000D03*
D14*
X76835000Y-53975000D03*
D13*
X71755000Y-55245000D03*
X71755000Y-56515000D03*
D14*
X71755000Y-53975000D03*
D13*
X83185000Y-47625000D03*
X83185000Y-48895000D03*
D14*
X83185000Y-46355000D03*
D13*
X88265000Y-36195000D03*
X88265000Y-37465000D03*
D14*
X88265000Y-34925000D03*
D13*
X88265000Y-41910000D03*
X88265000Y-43180000D03*
D14*
X88265000Y-40640000D03*
D13*
X83185000Y-66675000D03*
X83185000Y-67945000D03*
D14*
X83185000Y-65405000D03*
D13*
X88265000Y-72390000D03*
X88265000Y-73660000D03*
D14*
X88265000Y-71120000D03*
D13*
X83185000Y-72390000D03*
X83185000Y-73660000D03*
D14*
X83185000Y-71120000D03*
D13*
X83185000Y-41910000D03*
X83185000Y-43180000D03*
D14*
X83185000Y-40640000D03*
D13*
X88265000Y-30480000D03*
X88265000Y-31750000D03*
D14*
X88265000Y-29210000D03*
D13*
X83185000Y-36195000D03*
X83185000Y-37465000D03*
D14*
X83185000Y-34925000D03*
D13*
X83185000Y-30480000D03*
X83185000Y-31750000D03*
D14*
X83185000Y-29210000D03*
D13*
X83185000Y-60960000D03*
X83185000Y-62230000D03*
D14*
X83185000Y-59690000D03*
D13*
X88265000Y-66675000D03*
X88265000Y-67945000D03*
D14*
X88265000Y-65405000D03*
D13*
X88265000Y-60960000D03*
X88265000Y-62230000D03*
D14*
X88265000Y-59690000D03*
D13*
X88265000Y-55245000D03*
X88265000Y-56515000D03*
D14*
X88265000Y-53975000D03*
D13*
X83185000Y-55245000D03*
X83185000Y-56515000D03*
D14*
X83185000Y-53975000D03*
D13*
X94615000Y-47625000D03*
X94615000Y-48895000D03*
D14*
X94615000Y-46355000D03*
D13*
X99695000Y-36195000D03*
X99695000Y-37465000D03*
D14*
X99695000Y-34925000D03*
D13*
X99695000Y-41910000D03*
X99695000Y-43180000D03*
D14*
X99695000Y-40640000D03*
D13*
X94615000Y-66675000D03*
X94615000Y-67945000D03*
D14*
X94615000Y-65405000D03*
D13*
X99695000Y-72390000D03*
X99695000Y-73660000D03*
D14*
X99695000Y-71120000D03*
D13*
X94615000Y-72390000D03*
X94615000Y-73660000D03*
D14*
X94615000Y-71120000D03*
D13*
X94615000Y-41910000D03*
X94615000Y-43180000D03*
D14*
X94615000Y-40640000D03*
D13*
X99695000Y-30480000D03*
X99695000Y-31750000D03*
D14*
X99695000Y-29210000D03*
D13*
X94615000Y-36195000D03*
X94615000Y-37465000D03*
D14*
X94615000Y-34925000D03*
D13*
X94615000Y-30480000D03*
X94615000Y-31750000D03*
D14*
X94615000Y-29210000D03*
D13*
X94615000Y-60960000D03*
X94615000Y-62230000D03*
D14*
X94615000Y-59690000D03*
D13*
X99695000Y-66675000D03*
X99695000Y-67945000D03*
D14*
X99695000Y-65405000D03*
D13*
X99695000Y-60960000D03*
X99695000Y-62230000D03*
D14*
X99695000Y-59690000D03*
D13*
X99695000Y-55245000D03*
X99695000Y-56515000D03*
D14*
X99695000Y-53975000D03*
D13*
X94615000Y-55245000D03*
X94615000Y-56515000D03*
D14*
X94615000Y-53975000D03*
D13*
X106045000Y-47625000D03*
X106045000Y-48895000D03*
D14*
X106045000Y-46355000D03*
D13*
X111125000Y-36195000D03*
X111125000Y-37465000D03*
D14*
X111125000Y-34925000D03*
D13*
X111125000Y-41910000D03*
X111125000Y-43180000D03*
D14*
X111125000Y-40640000D03*
D13*
X106045000Y-66675000D03*
X106045000Y-67945000D03*
D14*
X106045000Y-65405000D03*
D13*
X111125000Y-72390000D03*
X111125000Y-73660000D03*
D14*
X111125000Y-71120000D03*
D13*
X106045000Y-72390000D03*
X106045000Y-73660000D03*
D14*
X106045000Y-71120000D03*
D13*
X106045000Y-41910000D03*
X106045000Y-43180000D03*
D14*
X106045000Y-40640000D03*
D13*
X111125000Y-30480000D03*
X111125000Y-31750000D03*
D14*
X111125000Y-29210000D03*
D13*
X106045000Y-36195000D03*
X106045000Y-37465000D03*
D14*
X106045000Y-34925000D03*
D13*
X106045000Y-30480000D03*
X106045000Y-31750000D03*
D14*
X106045000Y-29210000D03*
D13*
X106045000Y-60960000D03*
X106045000Y-62230000D03*
D14*
X106045000Y-59690000D03*
D13*
X111125000Y-66675000D03*
X111125000Y-67945000D03*
D14*
X111125000Y-65405000D03*
D13*
X111125000Y-60960000D03*
X111125000Y-62230000D03*
D14*
X111125000Y-59690000D03*
D13*
X111125000Y-55245000D03*
X111125000Y-56515000D03*
D14*
X111125000Y-53975000D03*
D13*
X106045000Y-55245000D03*
X106045000Y-56515000D03*
D14*
X106045000Y-53975000D03*
D13*
X117475000Y-47625000D03*
X117475000Y-48895000D03*
D14*
X117475000Y-46355000D03*
D13*
X122555000Y-36195000D03*
X122555000Y-37465000D03*
D14*
X122555000Y-34925000D03*
D13*
X122555000Y-41910000D03*
X122555000Y-43180000D03*
D14*
X122555000Y-40640000D03*
D13*
X117475000Y-66675000D03*
X117475000Y-67945000D03*
D14*
X117475000Y-65405000D03*
D13*
X122555000Y-72390000D03*
X122555000Y-73660000D03*
D14*
X122555000Y-71120000D03*
D13*
X117475000Y-72390000D03*
X117475000Y-73660000D03*
D14*
X117475000Y-71120000D03*
D13*
X117475000Y-41910000D03*
X117475000Y-43180000D03*
D14*
X117475000Y-40640000D03*
D13*
X122555000Y-30480000D03*
X122555000Y-31750000D03*
D14*
X122555000Y-29210000D03*
D13*
X117475000Y-36195000D03*
X117475000Y-37465000D03*
D14*
X117475000Y-34925000D03*
D13*
X117475000Y-30480000D03*
X117475000Y-31750000D03*
D14*
X117475000Y-29210000D03*
D13*
X117475000Y-60960000D03*
X117475000Y-62230000D03*
D14*
X117475000Y-59690000D03*
D13*
X122555000Y-66675000D03*
X122555000Y-67945000D03*
D14*
X122555000Y-65405000D03*
D13*
X122555000Y-60960000D03*
X122555000Y-62230000D03*
D14*
X122555000Y-59690000D03*
D13*
X122555000Y-55245000D03*
X122555000Y-56515000D03*
D14*
X122555000Y-53975000D03*
D13*
X117475000Y-55245000D03*
X117475000Y-56515000D03*
D14*
X117475000Y-53975000D03*
D13*
X128905000Y-47625000D03*
X128905000Y-48895000D03*
D14*
X128905000Y-46355000D03*
D13*
X133985000Y-36195000D03*
X133985000Y-37465000D03*
D14*
X133985000Y-34925000D03*
D13*
X133985000Y-41910000D03*
X133985000Y-43180000D03*
D14*
X133985000Y-40640000D03*
D13*
X128905000Y-66675000D03*
X128905000Y-67945000D03*
D14*
X128905000Y-65405000D03*
D13*
X133985000Y-72390000D03*
X133985000Y-73660000D03*
D14*
X133985000Y-71120000D03*
D13*
X128905000Y-72390000D03*
X128905000Y-73660000D03*
D14*
X128905000Y-71120000D03*
D13*
X128905000Y-41910000D03*
X128905000Y-43180000D03*
D14*
X128905000Y-40640000D03*
D13*
X133985000Y-30480000D03*
X133985000Y-31750000D03*
D14*
X133985000Y-29210000D03*
D13*
X128905000Y-36195000D03*
X128905000Y-37465000D03*
D14*
X128905000Y-34925000D03*
D13*
X128905000Y-30480000D03*
X128905000Y-31750000D03*
D14*
X128905000Y-29210000D03*
D13*
X128905000Y-60960000D03*
X128905000Y-62230000D03*
D14*
X128905000Y-59690000D03*
D13*
X133985000Y-66675000D03*
X133985000Y-67945000D03*
D14*
X133985000Y-65405000D03*
D13*
X133985000Y-60960000D03*
X133985000Y-62230000D03*
D14*
X133985000Y-59690000D03*
D13*
X133985000Y-55245000D03*
X133985000Y-56515000D03*
D14*
X133985000Y-53975000D03*
D13*
X128905000Y-55245000D03*
X128905000Y-56515000D03*
D14*
X128905000Y-53975000D03*
D15*
X53340000Y-51435000D03*
D16*
X53340000Y-46355000D03*
D15*
X55880000Y-51435000D03*
D16*
X55880000Y-46355000D03*
D15*
X52070000Y-81280000D03*
D16*
X52070000Y-76200000D03*
D15*
X48260000Y-81280000D03*
D16*
X48260000Y-76200000D03*
D15*
X64770000Y-51435000D03*
D16*
X64770000Y-46355000D03*
D15*
X67310000Y-51435000D03*
D16*
X67310000Y-46355000D03*
D15*
X63500000Y-81280000D03*
D16*
X63500000Y-76200000D03*
D15*
X59690000Y-81280000D03*
D16*
X59690000Y-76200000D03*
D15*
X76200000Y-51435000D03*
D16*
X76200000Y-46355000D03*
D15*
X78740000Y-51435000D03*
D16*
X78740000Y-46355000D03*
D15*
X74930000Y-81280000D03*
D16*
X74930000Y-76200000D03*
D15*
X71120000Y-81280000D03*
D16*
X71120000Y-76200000D03*
D15*
X87630000Y-51435000D03*
D16*
X87630000Y-46355000D03*
D15*
X90170000Y-51435000D03*
D16*
X90170000Y-46355000D03*
D15*
X86360000Y-81280000D03*
D16*
X86360000Y-76200000D03*
D15*
X82550000Y-81280000D03*
D16*
X82550000Y-76200000D03*
D15*
X99060000Y-51435000D03*
D16*
X99060000Y-46355000D03*
D15*
X101600000Y-51435000D03*
D16*
X101600000Y-46355000D03*
D15*
X97790000Y-81280000D03*
D16*
X97790000Y-76200000D03*
D15*
X93980000Y-81280000D03*
D16*
X93980000Y-76200000D03*
D15*
X110490000Y-51435000D03*
D16*
X110490000Y-46355000D03*
D15*
X113030000Y-51435000D03*
D16*
X113030000Y-46355000D03*
D15*
X109220000Y-81280000D03*
D16*
X109220000Y-76200000D03*
D15*
X105410000Y-81280000D03*
D16*
X105410000Y-76200000D03*
D15*
X121920000Y-51435000D03*
D16*
X121920000Y-46355000D03*
D15*
X124460000Y-51435000D03*
D16*
X124460000Y-46355000D03*
D15*
X120650000Y-81280000D03*
D16*
X120650000Y-76200000D03*
D15*
X116840000Y-81280000D03*
D16*
X116840000Y-76200000D03*
D15*
X133350000Y-51435000D03*
D16*
X133350000Y-46355000D03*
D15*
X135890000Y-51435000D03*
D16*
X135890000Y-46355000D03*
D15*
X132080000Y-81280000D03*
D16*
X132080000Y-76200000D03*
D15*
X128270000Y-81280000D03*
D16*
X128270000Y-76200000D03*
D11*
X45085000Y-83820000D03*
X138430000Y-78740000D03*
X43815000Y-100330000D03*
X43815000Y-97790000D03*
X43815000Y-92710000D03*
X43815000Y-95250000D03*
X85090000Y-108585000D03*
D12*
X87630000Y-108585000D03*
X90170000Y-108585000D03*
X92710000Y-108585000D03*
X95250000Y-108585000D03*
X97790000Y-108585000D03*
X100330000Y-108585000D03*
X102870000Y-108585000D03*
D17*
X48260000Y-99695000D03*
X46990000Y-99695000D03*
D18*
X49530000Y-99695000D03*
D17*
X48260000Y-93345000D03*
X46990000Y-93345000D03*
D18*
X49530000Y-93345000D03*
D17*
X48260000Y-86995000D03*
X46990000Y-86995000D03*
D18*
X49530000Y-86995000D03*
D17*
X53975000Y-99695000D03*
X52705000Y-99695000D03*
D18*
X55245000Y-99695000D03*
D17*
X53975000Y-93345000D03*
X52705000Y-93345000D03*
D18*
X55245000Y-93345000D03*
D17*
X53975000Y-86995000D03*
X52705000Y-86995000D03*
D18*
X55245000Y-86995000D03*
D17*
X59690000Y-99695000D03*
X58420000Y-99695000D03*
D18*
X60960000Y-99695000D03*
D17*
X59690000Y-93345000D03*
X58420000Y-93345000D03*
D18*
X60960000Y-93345000D03*
D17*
X59690000Y-86995000D03*
X58420000Y-86995000D03*
D18*
X60960000Y-86995000D03*
D17*
X65405000Y-99695000D03*
X64135000Y-99695000D03*
D18*
X66675000Y-99695000D03*
D17*
X65405000Y-93345000D03*
X64135000Y-93345000D03*
D18*
X66675000Y-93345000D03*
D17*
X65405000Y-86995000D03*
X64135000Y-86995000D03*
D18*
X66675000Y-86995000D03*
D17*
X71120000Y-99695000D03*
X69850000Y-99695000D03*
D18*
X72390000Y-99695000D03*
D17*
X71120000Y-93345000D03*
X69850000Y-93345000D03*
D18*
X72390000Y-93345000D03*
D17*
X71120000Y-86995000D03*
X69850000Y-86995000D03*
D18*
X72390000Y-86995000D03*
D17*
X76835000Y-99695000D03*
X75565000Y-99695000D03*
D18*
X78105000Y-99695000D03*
D17*
X76835000Y-93345000D03*
X75565000Y-93345000D03*
D18*
X78105000Y-93345000D03*
D17*
X76835000Y-86995000D03*
X75565000Y-86995000D03*
D18*
X78105000Y-86995000D03*
D17*
X82550000Y-99695000D03*
X81280000Y-99695000D03*
D18*
X83820000Y-99695000D03*
D17*
X82550000Y-93345000D03*
X81280000Y-93345000D03*
D18*
X83820000Y-93345000D03*
D17*
X82550000Y-86995000D03*
X81280000Y-86995000D03*
D18*
X83820000Y-86995000D03*
D17*
X88265000Y-99695000D03*
X86995000Y-99695000D03*
D18*
X89535000Y-99695000D03*
D17*
X88265000Y-93345000D03*
X86995000Y-93345000D03*
D18*
X89535000Y-93345000D03*
D17*
X88265000Y-86995000D03*
X86995000Y-86995000D03*
D18*
X89535000Y-86995000D03*
D17*
X93980000Y-99695000D03*
X92710000Y-99695000D03*
D18*
X95250000Y-99695000D03*
D17*
X93980000Y-93345000D03*
X92710000Y-93345000D03*
D18*
X95250000Y-93345000D03*
D17*
X93980000Y-86995000D03*
X92710000Y-86995000D03*
D18*
X95250000Y-86995000D03*
D17*
X99695000Y-99695000D03*
X98425000Y-99695000D03*
D18*
X100965000Y-99695000D03*
D17*
X99695000Y-93345000D03*
X98425000Y-93345000D03*
D18*
X100965000Y-93345000D03*
D17*
X99695000Y-86995000D03*
X98425000Y-86995000D03*
D18*
X100965000Y-86995000D03*
D17*
X105410000Y-99695000D03*
X104140000Y-99695000D03*
D18*
X106680000Y-99695000D03*
D17*
X105410000Y-93345000D03*
X104140000Y-93345000D03*
D18*
X106680000Y-93345000D03*
D17*
X105410000Y-86995000D03*
X104140000Y-86995000D03*
D18*
X106680000Y-86995000D03*
D17*
X111125000Y-99695000D03*
X109855000Y-99695000D03*
D18*
X112395000Y-99695000D03*
D17*
X111125000Y-93345000D03*
X109855000Y-93345000D03*
D18*
X112395000Y-93345000D03*
D17*
X111125000Y-86995000D03*
X109855000Y-86995000D03*
D18*
X112395000Y-86995000D03*
D17*
X116840000Y-99695000D03*
X115570000Y-99695000D03*
D18*
X118110000Y-99695000D03*
D17*
X116840000Y-93345000D03*
X115570000Y-93345000D03*
D18*
X118110000Y-93345000D03*
D17*
X116840000Y-86995000D03*
X115570000Y-86995000D03*
D18*
X118110000Y-86995000D03*
D17*
X122555000Y-99695000D03*
X121285000Y-99695000D03*
D18*
X123825000Y-99695000D03*
D17*
X122555000Y-93345000D03*
X121285000Y-93345000D03*
D18*
X123825000Y-93345000D03*
D17*
X122555000Y-86995000D03*
X121285000Y-86995000D03*
D18*
X123825000Y-86995000D03*
D17*
X128270000Y-99695000D03*
X127000000Y-99695000D03*
D18*
X129540000Y-99695000D03*
D17*
X128270000Y-93345000D03*
X127000000Y-93345000D03*
D18*
X129540000Y-93345000D03*
D17*
X128270000Y-86995000D03*
X127000000Y-86995000D03*
D18*
X129540000Y-86995000D03*
D17*
X133985000Y-99695000D03*
X132715000Y-99695000D03*
D18*
X135255000Y-99695000D03*
D17*
X133985000Y-93345000D03*
X132715000Y-93345000D03*
D18*
X135255000Y-93345000D03*
D17*
X133985000Y-86995000D03*
X132715000Y-86995000D03*
D18*
X135255000Y-86995000D03*
D19*
X46355000Y-20320000D03*
X136525000Y-20320000D03*
X46355000Y-110490000D03*
X136525000Y-110490000D03*
D11*
X85090000Y-113030000D03*
D12*
X87630000Y-113030000D03*
X90170000Y-113030000D03*
X92710000Y-113030000D03*
X95250000Y-113030000D03*
X97790000Y-113030000D03*
X100330000Y-113030000D03*
X102870000Y-113030000D03*
M02*
