G04 #@! TF.FileFunction,Copper,L1,Top,Signal*
%FSLAX46Y46*%
G04 Gerber Fmt 4.6, Leading zero omitted, Abs format (unit mm)*
G04 Created by KiCad (PCBNEW 4.0.7-e2-6376~58~ubuntu16.04.1) date Tue Jan 16 13:30:28 2018*
%MOMM*%
%LPD*%
G01*
G04 APERTURE LIST*
%ADD10C,0.100000*%
%ADD11C,1.600000*%
%ADD12R,1.700000X1.700000*%
%ADD13O,1.700000X1.700000*%
%ADD14O,1.500000X0.900000*%
%ADD15R,1.500000X0.900000*%
%ADD16C,1.400000*%
%ADD17O,1.400000X1.400000*%
%ADD18C,6.400000*%
%ADD19C,0.600000*%
%ADD20C,0.250000*%
%ADD21C,0.500000*%
G04 APERTURE END LIST*
D10*
D11*
X117475000Y-29210000D03*
X122475000Y-29210000D03*
D12*
X55245000Y-33020000D03*
D13*
X57785000Y-33020000D03*
X60325000Y-33020000D03*
X62865000Y-33020000D03*
X65405000Y-33020000D03*
X67945000Y-33020000D03*
X70485000Y-33020000D03*
X73025000Y-33020000D03*
D12*
X48260000Y-35560000D03*
D13*
X48260000Y-33020000D03*
D12*
X55245000Y-38100000D03*
D13*
X57785000Y-38100000D03*
X60325000Y-38100000D03*
X62865000Y-38100000D03*
X65405000Y-38100000D03*
X67945000Y-38100000D03*
X70485000Y-38100000D03*
X73025000Y-38100000D03*
D12*
X109855000Y-33655000D03*
X109855000Y-39370000D03*
X104775000Y-104140000D03*
D13*
X107315000Y-104140000D03*
X109855000Y-104140000D03*
X112395000Y-104140000D03*
X114935000Y-104140000D03*
X117475000Y-104140000D03*
X120015000Y-104140000D03*
X122555000Y-104140000D03*
D12*
X48895000Y-88900000D03*
D13*
X51435000Y-88900000D03*
X53975000Y-88900000D03*
X56515000Y-88900000D03*
X59055000Y-88900000D03*
X61595000Y-88900000D03*
X64135000Y-88900000D03*
X66675000Y-88900000D03*
D12*
X48895000Y-93980000D03*
D13*
X51435000Y-93980000D03*
X53975000Y-93980000D03*
X56515000Y-93980000D03*
X59055000Y-93980000D03*
X61595000Y-93980000D03*
X64135000Y-93980000D03*
X66675000Y-93980000D03*
D12*
X136525000Y-95250000D03*
D14*
X114935000Y-33655000D03*
X114935000Y-32385000D03*
D15*
X114935000Y-34925000D03*
D14*
X120015000Y-33655000D03*
X120015000Y-32385000D03*
D15*
X120015000Y-34925000D03*
D14*
X128270000Y-33655000D03*
X128270000Y-34925000D03*
D15*
X128270000Y-32385000D03*
D14*
X133985000Y-33655000D03*
X133985000Y-32385000D03*
D15*
X133985000Y-34925000D03*
D14*
X114935000Y-39370000D03*
X114935000Y-38100000D03*
D15*
X114935000Y-40640000D03*
D14*
X97155000Y-89535000D03*
X97155000Y-88265000D03*
D15*
X97155000Y-90805000D03*
D14*
X102235000Y-89535000D03*
X102235000Y-88265000D03*
D15*
X102235000Y-90805000D03*
D14*
X107315000Y-89535000D03*
X107315000Y-88265000D03*
D15*
X107315000Y-90805000D03*
D14*
X112395000Y-89535000D03*
X112395000Y-88265000D03*
D15*
X112395000Y-90805000D03*
D14*
X117475000Y-89535000D03*
X117475000Y-88265000D03*
D15*
X117475000Y-90805000D03*
D14*
X122555000Y-89535000D03*
X122555000Y-88265000D03*
D15*
X122555000Y-90805000D03*
D14*
X127635000Y-89535000D03*
X127635000Y-88265000D03*
D15*
X127635000Y-90805000D03*
D14*
X132715000Y-89535000D03*
X132715000Y-88265000D03*
D15*
X132715000Y-90805000D03*
D14*
X97155000Y-95250000D03*
X97155000Y-93980000D03*
D15*
X97155000Y-96520000D03*
D14*
X102235000Y-95250000D03*
X102235000Y-93980000D03*
D15*
X102235000Y-96520000D03*
D14*
X107315000Y-95250000D03*
X107315000Y-93980000D03*
D15*
X107315000Y-96520000D03*
D14*
X112395000Y-95250000D03*
X112395000Y-93980000D03*
D15*
X112395000Y-96520000D03*
D14*
X117475000Y-95250000D03*
X117475000Y-93980000D03*
D15*
X117475000Y-96520000D03*
D14*
X122555000Y-95250000D03*
X122555000Y-93980000D03*
D15*
X122555000Y-96520000D03*
D14*
X127635000Y-95250000D03*
X127635000Y-93980000D03*
D15*
X127635000Y-96520000D03*
D14*
X132715000Y-95250000D03*
X132715000Y-93980000D03*
D15*
X132715000Y-96520000D03*
D14*
X49530000Y-66040000D03*
X49530000Y-64770000D03*
D15*
X49530000Y-67310000D03*
D14*
X49530000Y-60325000D03*
X49530000Y-59055000D03*
D15*
X49530000Y-61595000D03*
D14*
X54610000Y-60325000D03*
X54610000Y-59055000D03*
D15*
X54610000Y-61595000D03*
D14*
X54610000Y-66040000D03*
X54610000Y-64770000D03*
D15*
X54610000Y-67310000D03*
D14*
X49530000Y-71755000D03*
X49530000Y-70485000D03*
D15*
X49530000Y-73025000D03*
D14*
X54610000Y-71755000D03*
X54610000Y-70485000D03*
D15*
X54610000Y-73025000D03*
D14*
X54610000Y-54610000D03*
X54610000Y-53340000D03*
D15*
X54610000Y-55880000D03*
D14*
X60960000Y-66040000D03*
X60960000Y-64770000D03*
D15*
X60960000Y-67310000D03*
D14*
X60960000Y-60325000D03*
X60960000Y-59055000D03*
D15*
X60960000Y-61595000D03*
D14*
X66040000Y-60325000D03*
X66040000Y-59055000D03*
D15*
X66040000Y-61595000D03*
D14*
X66040000Y-66040000D03*
X66040000Y-64770000D03*
D15*
X66040000Y-67310000D03*
D14*
X60960000Y-71755000D03*
X60960000Y-70485000D03*
D15*
X60960000Y-73025000D03*
D14*
X66040000Y-71755000D03*
X66040000Y-70485000D03*
D15*
X66040000Y-73025000D03*
D14*
X66040000Y-54610000D03*
X66040000Y-53340000D03*
D15*
X66040000Y-55880000D03*
D14*
X72390000Y-66040000D03*
X72390000Y-64770000D03*
D15*
X72390000Y-67310000D03*
D14*
X72390000Y-60325000D03*
X72390000Y-59055000D03*
D15*
X72390000Y-61595000D03*
D14*
X77470000Y-60325000D03*
X77470000Y-59055000D03*
D15*
X77470000Y-61595000D03*
D14*
X77470000Y-66040000D03*
X77470000Y-64770000D03*
D15*
X77470000Y-67310000D03*
D14*
X72390000Y-71755000D03*
X72390000Y-70485000D03*
D15*
X72390000Y-73025000D03*
D14*
X77470000Y-71755000D03*
X77470000Y-70485000D03*
D15*
X77470000Y-73025000D03*
D14*
X77470000Y-54610000D03*
X77470000Y-53340000D03*
D15*
X77470000Y-55880000D03*
D14*
X83820000Y-66040000D03*
X83820000Y-64770000D03*
D15*
X83820000Y-67310000D03*
D14*
X83820000Y-60325000D03*
X83820000Y-59055000D03*
D15*
X83820000Y-61595000D03*
D14*
X88900000Y-60325000D03*
X88900000Y-59055000D03*
D15*
X88900000Y-61595000D03*
D14*
X88900000Y-66040000D03*
X88900000Y-64770000D03*
D15*
X88900000Y-67310000D03*
D14*
X83820000Y-71755000D03*
X83820000Y-70485000D03*
D15*
X83820000Y-73025000D03*
D14*
X88900000Y-71755000D03*
X88900000Y-70485000D03*
D15*
X88900000Y-73025000D03*
D14*
X88900000Y-54610000D03*
X88900000Y-53340000D03*
D15*
X88900000Y-55880000D03*
D14*
X95250000Y-66040000D03*
X95250000Y-64770000D03*
D15*
X95250000Y-67310000D03*
D14*
X95250000Y-60325000D03*
X95250000Y-59055000D03*
D15*
X95250000Y-61595000D03*
D14*
X100330000Y-60325000D03*
X100330000Y-59055000D03*
D15*
X100330000Y-61595000D03*
D14*
X100330000Y-66040000D03*
X100330000Y-64770000D03*
D15*
X100330000Y-67310000D03*
D14*
X95250000Y-71755000D03*
X95250000Y-70485000D03*
D15*
X95250000Y-73025000D03*
D14*
X100330000Y-71755000D03*
X100330000Y-70485000D03*
D15*
X100330000Y-73025000D03*
D14*
X100330000Y-54610000D03*
X100330000Y-53340000D03*
D15*
X100330000Y-55880000D03*
D14*
X106680000Y-66040000D03*
X106680000Y-64770000D03*
D15*
X106680000Y-67310000D03*
D14*
X106680000Y-60325000D03*
X106680000Y-59055000D03*
D15*
X106680000Y-61595000D03*
D14*
X111760000Y-60325000D03*
X111760000Y-59055000D03*
D15*
X111760000Y-61595000D03*
D14*
X111760000Y-66040000D03*
X111760000Y-64770000D03*
D15*
X111760000Y-67310000D03*
D14*
X106680000Y-71755000D03*
X106680000Y-70485000D03*
D15*
X106680000Y-73025000D03*
D14*
X111760000Y-71755000D03*
X111760000Y-70485000D03*
D15*
X111760000Y-73025000D03*
D14*
X111760000Y-54610000D03*
X111760000Y-53340000D03*
D15*
X111760000Y-55880000D03*
D14*
X118110000Y-66040000D03*
X118110000Y-64770000D03*
D15*
X118110000Y-67310000D03*
D14*
X118110000Y-60325000D03*
X118110000Y-59055000D03*
D15*
X118110000Y-61595000D03*
D14*
X123190000Y-60325000D03*
X123190000Y-59055000D03*
D15*
X123190000Y-61595000D03*
D14*
X123190000Y-66040000D03*
X123190000Y-64770000D03*
D15*
X123190000Y-67310000D03*
D14*
X118110000Y-71755000D03*
X118110000Y-70485000D03*
D15*
X118110000Y-73025000D03*
D14*
X123190000Y-71755000D03*
X123190000Y-70485000D03*
D15*
X123190000Y-73025000D03*
D14*
X123190000Y-54610000D03*
X123190000Y-53340000D03*
D15*
X123190000Y-55880000D03*
D14*
X129540000Y-66040000D03*
X129540000Y-64770000D03*
D15*
X129540000Y-67310000D03*
D14*
X129540000Y-60325000D03*
X129540000Y-59055000D03*
D15*
X129540000Y-61595000D03*
D14*
X134620000Y-60325000D03*
X134620000Y-59055000D03*
D15*
X134620000Y-61595000D03*
D14*
X134620000Y-66040000D03*
X134620000Y-64770000D03*
D15*
X134620000Y-67310000D03*
D14*
X129540000Y-71755000D03*
X129540000Y-70485000D03*
D15*
X129540000Y-73025000D03*
D14*
X134620000Y-71755000D03*
X134620000Y-70485000D03*
D15*
X134620000Y-73025000D03*
D14*
X134620000Y-54610000D03*
X134620000Y-53340000D03*
D15*
X134620000Y-55880000D03*
D16*
X110490000Y-29845000D03*
D17*
X115570000Y-29845000D03*
D16*
X110490000Y-27305000D03*
D17*
X115570000Y-27305000D03*
D16*
X127635000Y-29845000D03*
D17*
X132715000Y-29845000D03*
D16*
X127635000Y-27305000D03*
D17*
X132715000Y-27305000D03*
D16*
X125095000Y-33655000D03*
D17*
X125095000Y-28575000D03*
D16*
X125095000Y-26035000D03*
D17*
X120015000Y-26035000D03*
D16*
X48260000Y-51435000D03*
D17*
X48260000Y-56515000D03*
D16*
X50800000Y-51435000D03*
D17*
X50800000Y-56515000D03*
D16*
X50800000Y-49530000D03*
D17*
X55880000Y-49530000D03*
D16*
X59690000Y-51435000D03*
D17*
X59690000Y-56515000D03*
D16*
X62230000Y-51435000D03*
D17*
X62230000Y-56515000D03*
D16*
X62230000Y-49530000D03*
D17*
X67310000Y-49530000D03*
D16*
X71120000Y-51435000D03*
D17*
X71120000Y-56515000D03*
D16*
X73660000Y-51435000D03*
D17*
X73660000Y-56515000D03*
D16*
X73660000Y-49530000D03*
D17*
X78740000Y-49530000D03*
D16*
X82550000Y-51435000D03*
D17*
X82550000Y-56515000D03*
D16*
X85090000Y-51435000D03*
D17*
X85090000Y-56515000D03*
D16*
X85090000Y-49530000D03*
D17*
X90170000Y-49530000D03*
D16*
X93980000Y-51435000D03*
D17*
X93980000Y-56515000D03*
D16*
X96520000Y-51435000D03*
D17*
X96520000Y-56515000D03*
D16*
X96520000Y-49530000D03*
D17*
X101600000Y-49530000D03*
D16*
X105410000Y-51435000D03*
D17*
X105410000Y-56515000D03*
D16*
X107950000Y-51435000D03*
D17*
X107950000Y-56515000D03*
D16*
X107950000Y-49530000D03*
D17*
X113030000Y-49530000D03*
D16*
X116840000Y-51435000D03*
D17*
X116840000Y-56515000D03*
D16*
X119380000Y-51435000D03*
D17*
X119380000Y-56515000D03*
D16*
X119380000Y-49530000D03*
D17*
X124460000Y-49530000D03*
D16*
X128270000Y-51435000D03*
D17*
X128270000Y-56515000D03*
D16*
X130810000Y-51435000D03*
D17*
X130810000Y-56515000D03*
D16*
X130810000Y-49530000D03*
D17*
X135890000Y-49530000D03*
D18*
X46355000Y-20320000D03*
X136525000Y-20320000D03*
X136525000Y-110490000D03*
X46355000Y-110490000D03*
D19*
X117475000Y-26670000D03*
X137795000Y-57785000D03*
X68580000Y-85090000D03*
X57150000Y-73660000D03*
X68580000Y-81280000D03*
X68580000Y-73660000D03*
X80010000Y-81280000D03*
X80010000Y-73660000D03*
X91440000Y-81280000D03*
X91440000Y-73660000D03*
X102870000Y-81280000D03*
X102870000Y-73660000D03*
X114300000Y-81280000D03*
X114300000Y-73660000D03*
X125730000Y-81280000D03*
X125730000Y-73660000D03*
D20*
X115570000Y-27305000D02*
X117475000Y-29210000D01*
X117475000Y-29210000D02*
X120015000Y-31750000D01*
X120015000Y-31750000D02*
X120015000Y-32385000D01*
X125095000Y-28575000D02*
X125095000Y-26035000D01*
X122475000Y-29210000D02*
X124460000Y-29210000D01*
X124460000Y-29210000D02*
X125095000Y-28575000D01*
X57150000Y-48260000D02*
X55245000Y-46355000D01*
X57150000Y-52705000D02*
X57150000Y-48260000D01*
X55245000Y-54610000D02*
X57150000Y-52705000D01*
X55245000Y-46355000D02*
X55245000Y-38100000D01*
X55245000Y-33020000D02*
X55245000Y-38100000D01*
X54610000Y-54610000D02*
X48260000Y-54610000D01*
X46990000Y-64135000D02*
X48895000Y-66040000D01*
X46990000Y-55880000D02*
X46990000Y-64135000D01*
X48260000Y-54610000D02*
X46990000Y-55880000D01*
X48895000Y-66040000D02*
X49530000Y-66040000D01*
X54610000Y-54610000D02*
X55245000Y-54610000D01*
X68580000Y-48260000D02*
X67310000Y-46990000D01*
X68580000Y-52705000D02*
X68580000Y-48260000D01*
X66675000Y-54610000D02*
X68580000Y-52705000D01*
X57785000Y-45720000D02*
X57785000Y-38100000D01*
X59055000Y-46990000D02*
X57785000Y-45720000D01*
X67310000Y-46990000D02*
X59055000Y-46990000D01*
X66040000Y-54610000D02*
X66675000Y-54610000D01*
X66040000Y-54610000D02*
X59690000Y-54610000D01*
X58420000Y-64135000D02*
X60325000Y-66040000D01*
X58420000Y-55880000D02*
X58420000Y-64135000D01*
X59690000Y-54610000D02*
X58420000Y-55880000D01*
X60325000Y-66040000D02*
X60960000Y-66040000D01*
X57785000Y-38100000D02*
X57785000Y-33020000D01*
X77470000Y-54610000D02*
X78105000Y-54610000D01*
X78105000Y-54610000D02*
X80010000Y-52705000D01*
X60325000Y-45085000D02*
X60325000Y-38100000D01*
X61595000Y-46355000D02*
X60325000Y-45085000D01*
X78105000Y-46355000D02*
X61595000Y-46355000D01*
X80010000Y-48260000D02*
X78105000Y-46355000D01*
X80010000Y-52705000D02*
X80010000Y-48260000D01*
X72390000Y-66040000D02*
X71755000Y-66040000D01*
X71755000Y-66040000D02*
X69850000Y-64135000D01*
X69850000Y-64135000D02*
X69850000Y-55880000D01*
X69850000Y-55880000D02*
X71120000Y-54610000D01*
X71120000Y-54610000D02*
X77470000Y-54610000D01*
X60325000Y-33020000D02*
X60325000Y-38100000D01*
X88900000Y-54610000D02*
X89535000Y-54610000D01*
X89535000Y-54610000D02*
X91440000Y-52705000D01*
X62865000Y-44450000D02*
X62865000Y-38100000D01*
X64135000Y-45720000D02*
X62865000Y-44450000D01*
X88900000Y-45720000D02*
X64135000Y-45720000D01*
X91440000Y-48260000D02*
X88900000Y-45720000D01*
X91440000Y-52705000D02*
X91440000Y-48260000D01*
X83820000Y-66040000D02*
X83185000Y-66040000D01*
X83185000Y-66040000D02*
X81280000Y-64135000D01*
X81280000Y-64135000D02*
X81280000Y-55880000D01*
X81280000Y-55880000D02*
X82550000Y-54610000D01*
X82550000Y-54610000D02*
X88900000Y-54610000D01*
X62865000Y-38100000D02*
X62865000Y-33020000D01*
X100330000Y-54610000D02*
X100965000Y-54610000D01*
X100965000Y-54610000D02*
X102870000Y-52705000D01*
X65405000Y-43815000D02*
X65405000Y-38100000D01*
X66675000Y-45085000D02*
X65405000Y-43815000D01*
X99695000Y-45085000D02*
X66675000Y-45085000D01*
X102870000Y-48260000D02*
X99695000Y-45085000D01*
X102870000Y-52705000D02*
X102870000Y-48260000D01*
X100330000Y-54610000D02*
X93980000Y-54610000D01*
X92710000Y-64135000D02*
X94615000Y-66040000D01*
X92710000Y-55880000D02*
X92710000Y-64135000D01*
X93980000Y-54610000D02*
X92710000Y-55880000D01*
X94615000Y-66040000D02*
X95250000Y-66040000D01*
X65405000Y-33020000D02*
X65405000Y-38100000D01*
X111760000Y-54610000D02*
X112395000Y-54610000D01*
X112395000Y-54610000D02*
X114300000Y-52705000D01*
X67945000Y-43180000D02*
X67945000Y-38100000D01*
X69215000Y-44450000D02*
X67945000Y-43180000D01*
X110490000Y-44450000D02*
X69215000Y-44450000D01*
X114300000Y-48260000D02*
X110490000Y-44450000D01*
X114300000Y-52705000D02*
X114300000Y-48260000D01*
X111760000Y-54610000D02*
X105410000Y-54610000D01*
X104140000Y-64135000D02*
X106045000Y-66040000D01*
X104140000Y-55880000D02*
X104140000Y-64135000D01*
X105410000Y-54610000D02*
X104140000Y-55880000D01*
X106045000Y-66040000D02*
X106680000Y-66040000D01*
X67945000Y-38100000D02*
X67945000Y-33020000D01*
X123190000Y-54610000D02*
X123825000Y-54610000D01*
X123825000Y-54610000D02*
X125730000Y-52705000D01*
X70485000Y-42545000D02*
X70485000Y-38100000D01*
X71755000Y-43815000D02*
X70485000Y-42545000D01*
X121285000Y-43815000D02*
X71755000Y-43815000D01*
X125730000Y-48260000D02*
X121285000Y-43815000D01*
X125730000Y-52705000D02*
X125730000Y-48260000D01*
X118110000Y-66040000D02*
X117475000Y-66040000D01*
X117475000Y-66040000D02*
X115754998Y-64319998D01*
X115754998Y-64319998D02*
X115754998Y-55695002D01*
X115754998Y-55695002D02*
X116840000Y-54610000D01*
X116840000Y-54610000D02*
X123190000Y-54610000D01*
X70485000Y-33020000D02*
X70485000Y-38100000D01*
X134620000Y-54610000D02*
X128270000Y-54610000D01*
X127000000Y-64135000D02*
X128905000Y-66040000D01*
X127000000Y-55880000D02*
X127000000Y-64135000D01*
X128270000Y-54610000D02*
X127000000Y-55880000D01*
X128905000Y-66040000D02*
X129540000Y-66040000D01*
X134620000Y-54610000D02*
X135255000Y-54610000D01*
X135255000Y-54610000D02*
X137160000Y-52705000D01*
X137160000Y-52705000D02*
X137160000Y-48260000D01*
X137160000Y-48260000D02*
X132080000Y-43180000D01*
X132080000Y-43180000D02*
X74295000Y-43180000D01*
X74295000Y-43180000D02*
X73025000Y-41910000D01*
X73025000Y-41910000D02*
X73025000Y-38100000D01*
X73025000Y-38100000D02*
X73025000Y-33020000D01*
D21*
X110490000Y-27305000D02*
X56515000Y-27305000D01*
X56515000Y-27305000D02*
X48260000Y-35560000D01*
X112395000Y-25400000D02*
X110490000Y-27305000D01*
X116205000Y-25400000D02*
X112395000Y-25400000D01*
X117475000Y-26670000D02*
X116205000Y-25400000D01*
X127635000Y-27305000D02*
X127635000Y-29845000D01*
X110490000Y-29845000D02*
X110490000Y-27305000D01*
X48260000Y-35560000D02*
X48260000Y-51435000D01*
D20*
X109855000Y-33655000D02*
X114935000Y-33655000D01*
X109855000Y-39370000D02*
X114935000Y-39370000D01*
X97155000Y-88265000D02*
X97790000Y-88265000D01*
X97790000Y-88265000D02*
X99060000Y-89535000D01*
X99060000Y-89535000D02*
X99060000Y-97790000D01*
X99060000Y-97790000D02*
X104775000Y-103505000D01*
X104775000Y-103505000D02*
X104775000Y-104140000D01*
X102235000Y-88265000D02*
X102870000Y-88265000D01*
X102870000Y-88265000D02*
X104140000Y-89535000D01*
X104140000Y-89535000D02*
X104140000Y-100965000D01*
X104140000Y-100965000D02*
X107315000Y-104140000D01*
X107315000Y-88265000D02*
X107950000Y-88265000D01*
X107950000Y-88265000D02*
X109220000Y-89535000D01*
X109220000Y-89535000D02*
X109220000Y-103505000D01*
X109220000Y-103505000D02*
X109855000Y-104140000D01*
X112395000Y-88265000D02*
X113030000Y-88265000D01*
X113030000Y-88265000D02*
X114300000Y-89535000D01*
X114300000Y-89535000D02*
X114300000Y-102235000D01*
X114300000Y-102235000D02*
X112395000Y-104140000D01*
X117475000Y-88265000D02*
X118110000Y-88265000D01*
X118110000Y-88265000D02*
X119380000Y-89535000D01*
X119380000Y-89535000D02*
X119380000Y-99695000D01*
X119380000Y-99695000D02*
X114935000Y-104140000D01*
X122555000Y-88265000D02*
X123190000Y-88265000D01*
X123190000Y-88265000D02*
X124460000Y-89535000D01*
X124460000Y-89535000D02*
X124460000Y-97155000D01*
X124460000Y-97155000D02*
X117475000Y-104140000D01*
X127635000Y-88265000D02*
X128270000Y-88265000D01*
X128270000Y-88265000D02*
X129540000Y-89535000D01*
X129540000Y-89535000D02*
X129540000Y-98425000D01*
X129540000Y-98425000D02*
X127635000Y-100330000D01*
X127635000Y-100330000D02*
X123825000Y-100330000D01*
X123825000Y-100330000D02*
X120015000Y-104140000D01*
X132715000Y-88265000D02*
X133350000Y-88265000D01*
X133350000Y-88265000D02*
X134620000Y-89535000D01*
X125730000Y-100965000D02*
X122555000Y-104140000D01*
X132080000Y-100965000D02*
X125730000Y-100965000D01*
X134620000Y-98425000D02*
X132080000Y-100965000D01*
X134620000Y-89535000D02*
X134620000Y-98425000D01*
X48895000Y-88900000D02*
X48895000Y-93980000D01*
X48895000Y-88900000D02*
X48895000Y-76200000D01*
X52070000Y-73025000D02*
X52070000Y-63500000D01*
X52070000Y-73025000D02*
X48895000Y-76200000D01*
X54610000Y-59055000D02*
X53340000Y-59055000D01*
X53340000Y-59055000D02*
X50800000Y-56515000D01*
X52070000Y-63500000D02*
X53340000Y-64770000D01*
X53340000Y-64770000D02*
X54610000Y-64770000D01*
X50800000Y-60325000D02*
X51435000Y-60325000D01*
X51435000Y-60325000D02*
X52070000Y-60960000D01*
X52070000Y-60960000D02*
X52070000Y-63500000D01*
X49530000Y-60325000D02*
X50800000Y-60325000D01*
X52705000Y-59055000D02*
X54610000Y-59055000D01*
X51435000Y-60325000D02*
X52705000Y-59055000D01*
X51435000Y-93980000D02*
X51435000Y-88900000D01*
X53975000Y-75565000D02*
X52705000Y-75565000D01*
X63500000Y-63500000D02*
X63500000Y-74295000D01*
X63500000Y-74295000D02*
X62230000Y-75565000D01*
X62230000Y-75565000D02*
X53975000Y-75565000D01*
X51435000Y-76835000D02*
X51435000Y-88900000D01*
X52705000Y-75565000D02*
X51435000Y-76835000D01*
X66040000Y-64770000D02*
X64770000Y-64770000D01*
X64770000Y-64770000D02*
X63500000Y-63500000D01*
X62865000Y-60325000D02*
X63500000Y-60960000D01*
X63500000Y-60960000D02*
X63500000Y-63500000D01*
X66040000Y-59055000D02*
X64135000Y-59055000D01*
X62865000Y-60325000D02*
X60960000Y-60325000D01*
X64135000Y-59055000D02*
X62865000Y-60325000D01*
X66040000Y-59055000D02*
X64770000Y-59055000D01*
X64770000Y-59055000D02*
X62230000Y-56515000D01*
X74930000Y-74295000D02*
X73025000Y-76200000D01*
X74930000Y-63500000D02*
X74930000Y-74295000D01*
X53975000Y-77470000D02*
X53975000Y-88900000D01*
X55245000Y-76200000D02*
X53975000Y-77470000D01*
X73025000Y-76200000D02*
X55245000Y-76200000D01*
X74295000Y-60325000D02*
X74930000Y-60960000D01*
X76200000Y-64770000D02*
X77470000Y-64770000D01*
X74930000Y-63500000D02*
X76200000Y-64770000D01*
X74930000Y-60960000D02*
X74930000Y-63500000D01*
X77470000Y-59055000D02*
X75565000Y-59055000D01*
X74295000Y-60325000D02*
X72390000Y-60325000D01*
X75565000Y-59055000D02*
X74295000Y-60325000D01*
X73660000Y-56515000D02*
X76200000Y-59055000D01*
X76200000Y-59055000D02*
X77470000Y-59055000D01*
X53975000Y-93980000D02*
X53975000Y-88900000D01*
X56515000Y-88900000D02*
X56515000Y-93980000D01*
X86360000Y-63500000D02*
X86360000Y-74295000D01*
X56515000Y-78105000D02*
X56515000Y-88900000D01*
X57785000Y-76835000D02*
X56515000Y-78105000D01*
X70485000Y-76835000D02*
X57785000Y-76835000D01*
X83820000Y-76835000D02*
X70485000Y-76835000D01*
X86360000Y-74295000D02*
X83820000Y-76835000D01*
X85725000Y-60325000D02*
X86360000Y-60960000D01*
X87630000Y-64770000D02*
X88900000Y-64770000D01*
X86360000Y-63500000D02*
X87630000Y-64770000D01*
X86360000Y-60960000D02*
X86360000Y-63500000D01*
X88900000Y-59055000D02*
X86995000Y-59055000D01*
X85725000Y-60325000D02*
X83820000Y-60325000D01*
X86995000Y-59055000D02*
X85725000Y-60325000D01*
X85090000Y-56515000D02*
X87630000Y-59055000D01*
X87630000Y-59055000D02*
X88900000Y-59055000D01*
X59055000Y-88900000D02*
X59055000Y-93980000D01*
X97790000Y-62865000D02*
X97790000Y-74295000D01*
X59055000Y-78740000D02*
X59055000Y-88900000D01*
X60325000Y-77470000D02*
X59055000Y-78740000D01*
X94615000Y-77470000D02*
X60325000Y-77470000D01*
X97790000Y-74295000D02*
X94615000Y-77470000D01*
X97155000Y-60325000D02*
X97790000Y-60960000D01*
X97790000Y-62865000D02*
X99695000Y-64770000D01*
X97790000Y-62230000D02*
X97790000Y-62865000D01*
X97790000Y-60960000D02*
X97790000Y-62230000D01*
X99695000Y-64770000D02*
X100330000Y-64770000D01*
X100330000Y-59055000D02*
X98425000Y-59055000D01*
X97155000Y-60325000D02*
X95250000Y-60325000D01*
X98425000Y-59055000D02*
X97155000Y-60325000D01*
X96520000Y-56515000D02*
X99060000Y-59055000D01*
X99060000Y-59055000D02*
X100330000Y-59055000D01*
X61595000Y-88900000D02*
X61595000Y-93980000D01*
X109220000Y-62865000D02*
X109220000Y-74295000D01*
X61595000Y-79375000D02*
X61595000Y-88900000D01*
X62865000Y-78105000D02*
X61595000Y-79375000D01*
X105410000Y-78105000D02*
X62865000Y-78105000D01*
X109220000Y-74295000D02*
X105410000Y-78105000D01*
X108585000Y-60325000D02*
X109220000Y-60960000D01*
X109220000Y-62865000D02*
X111125000Y-64770000D01*
X109220000Y-60960000D02*
X109220000Y-62865000D01*
X111125000Y-64770000D02*
X111760000Y-64770000D01*
X106680000Y-60325000D02*
X108585000Y-60325000D01*
X109855000Y-59055000D02*
X111760000Y-59055000D01*
X108585000Y-60325000D02*
X109855000Y-59055000D01*
X107950000Y-56515000D02*
X110490000Y-59055000D01*
X110490000Y-59055000D02*
X111760000Y-59055000D01*
X64135000Y-93980000D02*
X64135000Y-88900000D01*
X120650000Y-62865000D02*
X120650000Y-74295000D01*
X64135000Y-80010000D02*
X64135000Y-93980000D01*
X65405000Y-78740000D02*
X64135000Y-80010000D01*
X116205000Y-78740000D02*
X65405000Y-78740000D01*
X120650000Y-74295000D02*
X116205000Y-78740000D01*
X120015000Y-60325000D02*
X120650000Y-60960000D01*
X120650000Y-62865000D02*
X122555000Y-64770000D01*
X120650000Y-60960000D02*
X120650000Y-62865000D01*
X122555000Y-64770000D02*
X123190000Y-64770000D01*
X123190000Y-59055000D02*
X121285000Y-59055000D01*
X120015000Y-60325000D02*
X118110000Y-60325000D01*
X121285000Y-59055000D02*
X120015000Y-60325000D01*
X119380000Y-56515000D02*
X121920000Y-59055000D01*
X121920000Y-59055000D02*
X123190000Y-59055000D01*
X66675000Y-93980000D02*
X66675000Y-88900000D01*
X132080000Y-62865000D02*
X132080000Y-74295000D01*
X66675000Y-80645000D02*
X66675000Y-93980000D01*
X67945000Y-79375000D02*
X66675000Y-80645000D01*
X127000000Y-79375000D02*
X67945000Y-79375000D01*
X132080000Y-74295000D02*
X127000000Y-79375000D01*
X134620000Y-59055000D02*
X133350000Y-59055000D01*
X133350000Y-59055000D02*
X130810000Y-56515000D01*
X131445000Y-60325000D02*
X132715000Y-59055000D01*
X132715000Y-59055000D02*
X134620000Y-59055000D01*
X134620000Y-64770000D02*
X133985000Y-64770000D01*
X133985000Y-64770000D02*
X132080000Y-62865000D01*
X132080000Y-62865000D02*
X132080000Y-60960000D01*
X132080000Y-60960000D02*
X131445000Y-60325000D01*
X131445000Y-60325000D02*
X129540000Y-60325000D01*
X114935000Y-32385000D02*
X116840000Y-32385000D01*
X118110000Y-33655000D02*
X120015000Y-33655000D01*
X116840000Y-32385000D02*
X118110000Y-33655000D01*
X115570000Y-29845000D02*
X115570000Y-31750000D01*
X115570000Y-31750000D02*
X114935000Y-32385000D01*
X114935000Y-34925000D02*
X114935000Y-38100000D01*
X125095000Y-33655000D02*
X128270000Y-33655000D01*
X128270000Y-32385000D02*
X130175000Y-32385000D01*
X130175000Y-32385000D02*
X132715000Y-29845000D01*
X132715000Y-29845000D02*
X132715000Y-32385000D01*
X132715000Y-33020000D02*
X133350000Y-33655000D01*
X132715000Y-32385000D02*
X132715000Y-33020000D01*
X133350000Y-33655000D02*
X133985000Y-33655000D01*
X137795000Y-35560000D02*
X134620000Y-32385000D01*
X137795000Y-47625000D02*
X137795000Y-35560000D01*
X137795000Y-57785000D02*
X137795000Y-47625000D01*
X134620000Y-32385000D02*
X133985000Y-32385000D01*
X133985000Y-32385000D02*
X133985000Y-28575000D01*
X133985000Y-28575000D02*
X132715000Y-27305000D01*
X54610000Y-60325000D02*
X55880000Y-60325000D01*
X92075000Y-85090000D02*
X96520000Y-89535000D01*
X68580000Y-85090000D02*
X92075000Y-85090000D01*
X57150000Y-61595000D02*
X57150000Y-73660000D01*
X55880000Y-60325000D02*
X57150000Y-61595000D01*
X96520000Y-89535000D02*
X97155000Y-89535000D01*
X48260000Y-56515000D02*
X48260000Y-58420000D01*
X48260000Y-58420000D02*
X48895000Y-59055000D01*
X48895000Y-59055000D02*
X49530000Y-59055000D01*
X49530000Y-59055000D02*
X48895000Y-59055000D01*
X48895000Y-59055000D02*
X47625000Y-60325000D01*
X47625000Y-62865000D02*
X49530000Y-64770000D01*
X47625000Y-60325000D02*
X47625000Y-62865000D01*
X97155000Y-90805000D02*
X97155000Y-93980000D01*
X66040000Y-60325000D02*
X67310000Y-60325000D01*
X100965000Y-89535000D02*
X102235000Y-89535000D01*
X95885000Y-84455000D02*
X100965000Y-89535000D01*
X69850000Y-84455000D02*
X95885000Y-84455000D01*
X68580000Y-83185000D02*
X69850000Y-84455000D01*
X68580000Y-81280000D02*
X68580000Y-83185000D01*
X68580000Y-61595000D02*
X68580000Y-73660000D01*
X67310000Y-60325000D02*
X68580000Y-61595000D01*
X60960000Y-59055000D02*
X60325000Y-59055000D01*
X60325000Y-59055000D02*
X59055000Y-60325000D01*
X59055000Y-62865000D02*
X60960000Y-64770000D01*
X59055000Y-60325000D02*
X59055000Y-62865000D01*
X59690000Y-56515000D02*
X59690000Y-58420000D01*
X59690000Y-58420000D02*
X60325000Y-59055000D01*
X102235000Y-90805000D02*
X102235000Y-93980000D01*
X77470000Y-60325000D02*
X78740000Y-60325000D01*
X101149998Y-84004998D02*
X106680000Y-89535000D01*
X82734998Y-84004998D02*
X101149998Y-84004998D01*
X80010000Y-81280000D02*
X82734998Y-84004998D01*
X80010000Y-61595000D02*
X80010000Y-73660000D01*
X78740000Y-60325000D02*
X80010000Y-61595000D01*
X106680000Y-89535000D02*
X107315000Y-89535000D01*
X72390000Y-59055000D02*
X71755000Y-59055000D01*
X71755000Y-59055000D02*
X70485000Y-60325000D01*
X70485000Y-62865000D02*
X72390000Y-64770000D01*
X70485000Y-60325000D02*
X70485000Y-62865000D01*
X71120000Y-56515000D02*
X71120000Y-58420000D01*
X71120000Y-58420000D02*
X71755000Y-59055000D01*
X107315000Y-90805000D02*
X107315000Y-93980000D01*
X88900000Y-60325000D02*
X90170000Y-60325000D01*
X105779996Y-83554996D02*
X111760000Y-89535000D01*
X93714996Y-83554996D02*
X105779996Y-83554996D01*
X91440000Y-81280000D02*
X93714996Y-83554996D01*
X91440000Y-61595000D02*
X91440000Y-73660000D01*
X90170000Y-60325000D02*
X91440000Y-61595000D01*
X111760000Y-89535000D02*
X112395000Y-89535000D01*
X83820000Y-59055000D02*
X83185000Y-59055000D01*
X83185000Y-59055000D02*
X81915000Y-60325000D01*
X81915000Y-62865000D02*
X83820000Y-64770000D01*
X81915000Y-60325000D02*
X81915000Y-62865000D01*
X82550000Y-56515000D02*
X82550000Y-58420000D01*
X82550000Y-58420000D02*
X83185000Y-59055000D01*
X112395000Y-90805000D02*
X112395000Y-93980000D01*
X117475000Y-89535000D02*
X116840000Y-89535000D01*
X116840000Y-89535000D02*
X110409994Y-83104994D01*
X110409994Y-83104994D02*
X104694994Y-83104994D01*
X104694994Y-83104994D02*
X102870000Y-81280000D01*
X102870000Y-73660000D02*
X102870000Y-63500000D01*
X102870000Y-63500000D02*
X102870000Y-61595000D01*
X102870000Y-61595000D02*
X101600000Y-60325000D01*
X101600000Y-60325000D02*
X100330000Y-60325000D01*
X95250000Y-59055000D02*
X94615000Y-59055000D01*
X94615000Y-59055000D02*
X93345000Y-60325000D01*
X93345000Y-62865000D02*
X95250000Y-64770000D01*
X93345000Y-60325000D02*
X93345000Y-62865000D01*
X93980000Y-56515000D02*
X93980000Y-58420000D01*
X93980000Y-58420000D02*
X94615000Y-59055000D01*
X117475000Y-90805000D02*
X117475000Y-93980000D01*
X111760000Y-60325000D02*
X113030000Y-60325000D01*
X120650000Y-88265000D02*
X121920000Y-89535000D01*
X120650000Y-87630000D02*
X120650000Y-88265000D01*
X114300000Y-81280000D02*
X120650000Y-87630000D01*
X114300000Y-61595000D02*
X114300000Y-73660000D01*
X113030000Y-60325000D02*
X114300000Y-61595000D01*
X121920000Y-89535000D02*
X122555000Y-89535000D01*
X106680000Y-59055000D02*
X106045000Y-59055000D01*
X106045000Y-59055000D02*
X105410000Y-58420000D01*
X105410000Y-58420000D02*
X105410000Y-56515000D01*
X106045000Y-59055000D02*
X104775000Y-60325000D01*
X104775000Y-60325000D02*
X104775000Y-62865000D01*
X104775000Y-62865000D02*
X106680000Y-64770000D01*
X122555000Y-90805000D02*
X122555000Y-93980000D01*
X123190000Y-60325000D02*
X124460000Y-60325000D01*
X125730000Y-88265000D02*
X127000000Y-89535000D01*
X125730000Y-87630000D02*
X125730000Y-88265000D01*
X125730000Y-81280000D02*
X125730000Y-87630000D01*
X125730000Y-61595000D02*
X125730000Y-73660000D01*
X124460000Y-60325000D02*
X125730000Y-61595000D01*
X127000000Y-89535000D02*
X127635000Y-89535000D01*
X118110000Y-59055000D02*
X117475000Y-59055000D01*
X117475000Y-59055000D02*
X116840000Y-58420000D01*
X116840000Y-58420000D02*
X116840000Y-56515000D01*
X118110000Y-64770000D02*
X116205000Y-62865000D01*
X116205000Y-62865000D02*
X116205000Y-60325000D01*
X116205000Y-60325000D02*
X117475000Y-59055000D01*
X127635000Y-90805000D02*
X127635000Y-93980000D01*
X132715000Y-89535000D02*
X132080000Y-89535000D01*
X132080000Y-89535000D02*
X130810000Y-88265000D01*
X130810000Y-88265000D02*
X130810000Y-81280000D01*
X130810000Y-81280000D02*
X137160000Y-74930000D01*
X137160000Y-74930000D02*
X137160000Y-62230000D01*
X137160000Y-62230000D02*
X135255000Y-60325000D01*
X135255000Y-60325000D02*
X134620000Y-60325000D01*
X128270000Y-56515000D02*
X128270000Y-58420000D01*
X128270000Y-58420000D02*
X128905000Y-59055000D01*
X128905000Y-59055000D02*
X129540000Y-59055000D01*
X129540000Y-59055000D02*
X128905000Y-59055000D01*
X128905000Y-59055000D02*
X127635000Y-60325000D01*
X127635000Y-60325000D02*
X127635000Y-62865000D01*
X127635000Y-62865000D02*
X129540000Y-64770000D01*
X132715000Y-90805000D02*
X132715000Y-93980000D01*
X49530000Y-67310000D02*
X49530000Y-70485000D01*
X54610000Y-53340000D02*
X54610000Y-50800000D01*
X54610000Y-50800000D02*
X55880000Y-49530000D01*
X54610000Y-67310000D02*
X54610000Y-70485000D01*
X60960000Y-67310000D02*
X60960000Y-70485000D01*
X66040000Y-53340000D02*
X66040000Y-50800000D01*
X66040000Y-50800000D02*
X67310000Y-49530000D01*
X66040000Y-67310000D02*
X66040000Y-70485000D01*
X72390000Y-67310000D02*
X72390000Y-70485000D01*
X77470000Y-53340000D02*
X77470000Y-50800000D01*
X77470000Y-50800000D02*
X78740000Y-49530000D01*
X77470000Y-67310000D02*
X77470000Y-70485000D01*
X83820000Y-67310000D02*
X83820000Y-70485000D01*
X88900000Y-53340000D02*
X88900000Y-50800000D01*
X88900000Y-50800000D02*
X90170000Y-49530000D01*
X88900000Y-67310000D02*
X88900000Y-70485000D01*
X95250000Y-67310000D02*
X95250000Y-70485000D01*
X100330000Y-53340000D02*
X100330000Y-50800000D01*
X100330000Y-50800000D02*
X101600000Y-49530000D01*
X100330000Y-67310000D02*
X100330000Y-70485000D01*
X106680000Y-67310000D02*
X106680000Y-70485000D01*
X111760000Y-53340000D02*
X111760000Y-50800000D01*
X111760000Y-50800000D02*
X113030000Y-49530000D01*
X111760000Y-67310000D02*
X111760000Y-70485000D01*
X118110000Y-70485000D02*
X118110000Y-67310000D01*
X123190000Y-53340000D02*
X123190000Y-50800000D01*
X123190000Y-50800000D02*
X124460000Y-49530000D01*
X123190000Y-67310000D02*
X123190000Y-70485000D01*
X129540000Y-67310000D02*
X129540000Y-70485000D01*
X134620000Y-53340000D02*
X134620000Y-50800000D01*
X134620000Y-50800000D02*
X135890000Y-49530000D01*
X134620000Y-70485000D02*
X134620000Y-67310000D01*
M02*
