G04 #@! TF.FileFunction,Legend,Bot*
%FSLAX46Y46*%
G04 Gerber Fmt 4.6, Leading zero omitted, Abs format (unit mm)*
G04 Created by KiCad (PCBNEW 4.0.7-e2-6376~58~ubuntu16.04.1) date Tue Jan 16 13:30:28 2018*
%MOMM*%
%LPD*%
G01*
G04 APERTURE LIST*
%ADD10C,0.100000*%
%ADD11C,2.000000*%
%ADD12R,2.100000X2.100000*%
%ADD13O,2.100000X2.100000*%
%ADD14O,1.900000X1.300000*%
%ADD15R,1.900000X1.300000*%
%ADD16C,1.800000*%
%ADD17O,1.800000X1.800000*%
%ADD18C,6.800000*%
G04 APERTURE END LIST*
D10*
%LPC*%
D11*
X117475000Y-29210000D03*
X122475000Y-29210000D03*
D12*
X55245000Y-33020000D03*
D13*
X57785000Y-33020000D03*
X60325000Y-33020000D03*
X62865000Y-33020000D03*
X65405000Y-33020000D03*
X67945000Y-33020000D03*
X70485000Y-33020000D03*
X73025000Y-33020000D03*
D12*
X48260000Y-35560000D03*
D13*
X48260000Y-33020000D03*
D12*
X55245000Y-38100000D03*
D13*
X57785000Y-38100000D03*
X60325000Y-38100000D03*
X62865000Y-38100000D03*
X65405000Y-38100000D03*
X67945000Y-38100000D03*
X70485000Y-38100000D03*
X73025000Y-38100000D03*
D12*
X109855000Y-33655000D03*
X109855000Y-39370000D03*
X104775000Y-104140000D03*
D13*
X107315000Y-104140000D03*
X109855000Y-104140000D03*
X112395000Y-104140000D03*
X114935000Y-104140000D03*
X117475000Y-104140000D03*
X120015000Y-104140000D03*
X122555000Y-104140000D03*
D12*
X48895000Y-88900000D03*
D13*
X51435000Y-88900000D03*
X53975000Y-88900000D03*
X56515000Y-88900000D03*
X59055000Y-88900000D03*
X61595000Y-88900000D03*
X64135000Y-88900000D03*
X66675000Y-88900000D03*
D12*
X48895000Y-93980000D03*
D13*
X51435000Y-93980000D03*
X53975000Y-93980000D03*
X56515000Y-93980000D03*
X59055000Y-93980000D03*
X61595000Y-93980000D03*
X64135000Y-93980000D03*
X66675000Y-93980000D03*
D12*
X136525000Y-95250000D03*
D14*
X114935000Y-33655000D03*
X114935000Y-32385000D03*
D15*
X114935000Y-34925000D03*
D14*
X120015000Y-33655000D03*
X120015000Y-32385000D03*
D15*
X120015000Y-34925000D03*
D14*
X128270000Y-33655000D03*
X128270000Y-34925000D03*
D15*
X128270000Y-32385000D03*
D14*
X133985000Y-33655000D03*
X133985000Y-32385000D03*
D15*
X133985000Y-34925000D03*
D14*
X114935000Y-39370000D03*
X114935000Y-38100000D03*
D15*
X114935000Y-40640000D03*
D14*
X97155000Y-89535000D03*
X97155000Y-88265000D03*
D15*
X97155000Y-90805000D03*
D14*
X102235000Y-89535000D03*
X102235000Y-88265000D03*
D15*
X102235000Y-90805000D03*
D14*
X107315000Y-89535000D03*
X107315000Y-88265000D03*
D15*
X107315000Y-90805000D03*
D14*
X112395000Y-89535000D03*
X112395000Y-88265000D03*
D15*
X112395000Y-90805000D03*
D14*
X117475000Y-89535000D03*
X117475000Y-88265000D03*
D15*
X117475000Y-90805000D03*
D14*
X122555000Y-89535000D03*
X122555000Y-88265000D03*
D15*
X122555000Y-90805000D03*
D14*
X127635000Y-89535000D03*
X127635000Y-88265000D03*
D15*
X127635000Y-90805000D03*
D14*
X132715000Y-89535000D03*
X132715000Y-88265000D03*
D15*
X132715000Y-90805000D03*
D14*
X97155000Y-95250000D03*
X97155000Y-93980000D03*
D15*
X97155000Y-96520000D03*
D14*
X102235000Y-95250000D03*
X102235000Y-93980000D03*
D15*
X102235000Y-96520000D03*
D14*
X107315000Y-95250000D03*
X107315000Y-93980000D03*
D15*
X107315000Y-96520000D03*
D14*
X112395000Y-95250000D03*
X112395000Y-93980000D03*
D15*
X112395000Y-96520000D03*
D14*
X117475000Y-95250000D03*
X117475000Y-93980000D03*
D15*
X117475000Y-96520000D03*
D14*
X122555000Y-95250000D03*
X122555000Y-93980000D03*
D15*
X122555000Y-96520000D03*
D14*
X127635000Y-95250000D03*
X127635000Y-93980000D03*
D15*
X127635000Y-96520000D03*
D14*
X132715000Y-95250000D03*
X132715000Y-93980000D03*
D15*
X132715000Y-96520000D03*
D14*
X49530000Y-66040000D03*
X49530000Y-64770000D03*
D15*
X49530000Y-67310000D03*
D14*
X49530000Y-60325000D03*
X49530000Y-59055000D03*
D15*
X49530000Y-61595000D03*
D14*
X54610000Y-60325000D03*
X54610000Y-59055000D03*
D15*
X54610000Y-61595000D03*
D14*
X54610000Y-66040000D03*
X54610000Y-64770000D03*
D15*
X54610000Y-67310000D03*
D14*
X49530000Y-71755000D03*
X49530000Y-70485000D03*
D15*
X49530000Y-73025000D03*
D14*
X54610000Y-71755000D03*
X54610000Y-70485000D03*
D15*
X54610000Y-73025000D03*
D14*
X54610000Y-54610000D03*
X54610000Y-53340000D03*
D15*
X54610000Y-55880000D03*
D14*
X60960000Y-66040000D03*
X60960000Y-64770000D03*
D15*
X60960000Y-67310000D03*
D14*
X60960000Y-60325000D03*
X60960000Y-59055000D03*
D15*
X60960000Y-61595000D03*
D14*
X66040000Y-60325000D03*
X66040000Y-59055000D03*
D15*
X66040000Y-61595000D03*
D14*
X66040000Y-66040000D03*
X66040000Y-64770000D03*
D15*
X66040000Y-67310000D03*
D14*
X60960000Y-71755000D03*
X60960000Y-70485000D03*
D15*
X60960000Y-73025000D03*
D14*
X66040000Y-71755000D03*
X66040000Y-70485000D03*
D15*
X66040000Y-73025000D03*
D14*
X66040000Y-54610000D03*
X66040000Y-53340000D03*
D15*
X66040000Y-55880000D03*
D14*
X72390000Y-66040000D03*
X72390000Y-64770000D03*
D15*
X72390000Y-67310000D03*
D14*
X72390000Y-60325000D03*
X72390000Y-59055000D03*
D15*
X72390000Y-61595000D03*
D14*
X77470000Y-60325000D03*
X77470000Y-59055000D03*
D15*
X77470000Y-61595000D03*
D14*
X77470000Y-66040000D03*
X77470000Y-64770000D03*
D15*
X77470000Y-67310000D03*
D14*
X72390000Y-71755000D03*
X72390000Y-70485000D03*
D15*
X72390000Y-73025000D03*
D14*
X77470000Y-71755000D03*
X77470000Y-70485000D03*
D15*
X77470000Y-73025000D03*
D14*
X77470000Y-54610000D03*
X77470000Y-53340000D03*
D15*
X77470000Y-55880000D03*
D14*
X83820000Y-66040000D03*
X83820000Y-64770000D03*
D15*
X83820000Y-67310000D03*
D14*
X83820000Y-60325000D03*
X83820000Y-59055000D03*
D15*
X83820000Y-61595000D03*
D14*
X88900000Y-60325000D03*
X88900000Y-59055000D03*
D15*
X88900000Y-61595000D03*
D14*
X88900000Y-66040000D03*
X88900000Y-64770000D03*
D15*
X88900000Y-67310000D03*
D14*
X83820000Y-71755000D03*
X83820000Y-70485000D03*
D15*
X83820000Y-73025000D03*
D14*
X88900000Y-71755000D03*
X88900000Y-70485000D03*
D15*
X88900000Y-73025000D03*
D14*
X88900000Y-54610000D03*
X88900000Y-53340000D03*
D15*
X88900000Y-55880000D03*
D14*
X95250000Y-66040000D03*
X95250000Y-64770000D03*
D15*
X95250000Y-67310000D03*
D14*
X95250000Y-60325000D03*
X95250000Y-59055000D03*
D15*
X95250000Y-61595000D03*
D14*
X100330000Y-60325000D03*
X100330000Y-59055000D03*
D15*
X100330000Y-61595000D03*
D14*
X100330000Y-66040000D03*
X100330000Y-64770000D03*
D15*
X100330000Y-67310000D03*
D14*
X95250000Y-71755000D03*
X95250000Y-70485000D03*
D15*
X95250000Y-73025000D03*
D14*
X100330000Y-71755000D03*
X100330000Y-70485000D03*
D15*
X100330000Y-73025000D03*
D14*
X100330000Y-54610000D03*
X100330000Y-53340000D03*
D15*
X100330000Y-55880000D03*
D14*
X106680000Y-66040000D03*
X106680000Y-64770000D03*
D15*
X106680000Y-67310000D03*
D14*
X106680000Y-60325000D03*
X106680000Y-59055000D03*
D15*
X106680000Y-61595000D03*
D14*
X111760000Y-60325000D03*
X111760000Y-59055000D03*
D15*
X111760000Y-61595000D03*
D14*
X111760000Y-66040000D03*
X111760000Y-64770000D03*
D15*
X111760000Y-67310000D03*
D14*
X106680000Y-71755000D03*
X106680000Y-70485000D03*
D15*
X106680000Y-73025000D03*
D14*
X111760000Y-71755000D03*
X111760000Y-70485000D03*
D15*
X111760000Y-73025000D03*
D14*
X111760000Y-54610000D03*
X111760000Y-53340000D03*
D15*
X111760000Y-55880000D03*
D14*
X118110000Y-66040000D03*
X118110000Y-64770000D03*
D15*
X118110000Y-67310000D03*
D14*
X118110000Y-60325000D03*
X118110000Y-59055000D03*
D15*
X118110000Y-61595000D03*
D14*
X123190000Y-60325000D03*
X123190000Y-59055000D03*
D15*
X123190000Y-61595000D03*
D14*
X123190000Y-66040000D03*
X123190000Y-64770000D03*
D15*
X123190000Y-67310000D03*
D14*
X118110000Y-71755000D03*
X118110000Y-70485000D03*
D15*
X118110000Y-73025000D03*
D14*
X123190000Y-71755000D03*
X123190000Y-70485000D03*
D15*
X123190000Y-73025000D03*
D14*
X123190000Y-54610000D03*
X123190000Y-53340000D03*
D15*
X123190000Y-55880000D03*
D14*
X129540000Y-66040000D03*
X129540000Y-64770000D03*
D15*
X129540000Y-67310000D03*
D14*
X129540000Y-60325000D03*
X129540000Y-59055000D03*
D15*
X129540000Y-61595000D03*
D14*
X134620000Y-60325000D03*
X134620000Y-59055000D03*
D15*
X134620000Y-61595000D03*
D14*
X134620000Y-66040000D03*
X134620000Y-64770000D03*
D15*
X134620000Y-67310000D03*
D14*
X129540000Y-71755000D03*
X129540000Y-70485000D03*
D15*
X129540000Y-73025000D03*
D14*
X134620000Y-71755000D03*
X134620000Y-70485000D03*
D15*
X134620000Y-73025000D03*
D14*
X134620000Y-54610000D03*
X134620000Y-53340000D03*
D15*
X134620000Y-55880000D03*
D16*
X110490000Y-29845000D03*
D17*
X115570000Y-29845000D03*
D16*
X110490000Y-27305000D03*
D17*
X115570000Y-27305000D03*
D16*
X127635000Y-29845000D03*
D17*
X132715000Y-29845000D03*
D16*
X127635000Y-27305000D03*
D17*
X132715000Y-27305000D03*
D16*
X125095000Y-33655000D03*
D17*
X125095000Y-28575000D03*
D16*
X125095000Y-26035000D03*
D17*
X120015000Y-26035000D03*
D16*
X48260000Y-51435000D03*
D17*
X48260000Y-56515000D03*
D16*
X50800000Y-51435000D03*
D17*
X50800000Y-56515000D03*
D16*
X50800000Y-49530000D03*
D17*
X55880000Y-49530000D03*
D16*
X59690000Y-51435000D03*
D17*
X59690000Y-56515000D03*
D16*
X62230000Y-51435000D03*
D17*
X62230000Y-56515000D03*
D16*
X62230000Y-49530000D03*
D17*
X67310000Y-49530000D03*
D16*
X71120000Y-51435000D03*
D17*
X71120000Y-56515000D03*
D16*
X73660000Y-51435000D03*
D17*
X73660000Y-56515000D03*
D16*
X73660000Y-49530000D03*
D17*
X78740000Y-49530000D03*
D16*
X82550000Y-51435000D03*
D17*
X82550000Y-56515000D03*
D16*
X85090000Y-51435000D03*
D17*
X85090000Y-56515000D03*
D16*
X85090000Y-49530000D03*
D17*
X90170000Y-49530000D03*
D16*
X93980000Y-51435000D03*
D17*
X93980000Y-56515000D03*
D16*
X96520000Y-51435000D03*
D17*
X96520000Y-56515000D03*
D16*
X96520000Y-49530000D03*
D17*
X101600000Y-49530000D03*
D16*
X105410000Y-51435000D03*
D17*
X105410000Y-56515000D03*
D16*
X107950000Y-51435000D03*
D17*
X107950000Y-56515000D03*
D16*
X107950000Y-49530000D03*
D17*
X113030000Y-49530000D03*
D16*
X116840000Y-51435000D03*
D17*
X116840000Y-56515000D03*
D16*
X119380000Y-51435000D03*
D17*
X119380000Y-56515000D03*
D16*
X119380000Y-49530000D03*
D17*
X124460000Y-49530000D03*
D16*
X128270000Y-51435000D03*
D17*
X128270000Y-56515000D03*
D16*
X130810000Y-51435000D03*
D17*
X130810000Y-56515000D03*
D16*
X130810000Y-49530000D03*
D17*
X135890000Y-49530000D03*
D18*
X46355000Y-20320000D03*
X136525000Y-20320000D03*
X136525000Y-110490000D03*
X46355000Y-110490000D03*
M02*
