M48
;DRILL file {KiCad 4.0.7-e2-6376~58~ubuntu16.04.1} date Tue Jan 16 13:30:35 2018
;FORMAT={-:-/ absolute / inch / decimal}
FMAT,2
INCH,TZ
T1C0.016
T2C0.024
T3C0.028
T4C0.031
T5C0.039
T6C0.126
%
G90
G05
M72
T1
X2.25Y-2.9
X2.7Y-2.9
X2.7Y-3.2
X2.7Y-3.35
X3.15Y-2.9
X3.15Y-3.2
X3.6Y-2.9
X3.6Y-3.2
X4.05Y-2.9
X4.05Y-3.2
X4.5Y-2.9
X4.5Y-3.2
X4.625Y-1.05
X4.95Y-2.9
X4.95Y-3.2
X5.425Y-2.275
T2
X1.95Y-2.325
X1.95Y-2.375
X1.95Y-2.425
X1.95Y-2.55
X1.95Y-2.6
X1.95Y-2.65
X1.95Y-2.775
X1.95Y-2.825
X1.95Y-2.875
X2.15Y-2.1
X2.15Y-2.15
X2.15Y-2.2
X2.15Y-2.325
X2.15Y-2.375
X2.15Y-2.425
X2.15Y-2.55
X2.15Y-2.6
X2.15Y-2.65
X2.15Y-2.775
X2.15Y-2.825
X2.15Y-2.875
X2.4Y-2.325
X2.4Y-2.375
X2.4Y-2.425
X2.4Y-2.55
X2.4Y-2.6
X2.4Y-2.65
X2.4Y-2.775
X2.4Y-2.825
X2.4Y-2.875
X2.6Y-2.1
X2.6Y-2.15
X2.6Y-2.2
X2.6Y-2.325
X2.6Y-2.375
X2.6Y-2.425
X2.6Y-2.55
X2.6Y-2.6
X2.6Y-2.65
X2.6Y-2.775
X2.6Y-2.825
X2.6Y-2.875
X2.85Y-2.325
X2.85Y-2.375
X2.85Y-2.425
X2.85Y-2.55
X2.85Y-2.6
X2.85Y-2.65
X2.85Y-2.775
X2.85Y-2.825
X2.85Y-2.875
X3.05Y-2.1
X3.05Y-2.15
X3.05Y-2.2
X3.05Y-2.325
X3.05Y-2.375
X3.05Y-2.425
X3.05Y-2.55
X3.05Y-2.6
X3.05Y-2.65
X3.05Y-2.775
X3.05Y-2.825
X3.05Y-2.875
X3.3Y-2.325
X3.3Y-2.375
X3.3Y-2.425
X3.3Y-2.55
X3.3Y-2.6
X3.3Y-2.65
X3.3Y-2.775
X3.3Y-2.825
X3.3Y-2.875
X3.5Y-2.1
X3.5Y-2.15
X3.5Y-2.2
X3.5Y-2.325
X3.5Y-2.375
X3.5Y-2.425
X3.5Y-2.55
X3.5Y-2.6
X3.5Y-2.65
X3.5Y-2.775
X3.5Y-2.825
X3.5Y-2.875
X3.75Y-2.325
X3.75Y-2.375
X3.75Y-2.425
X3.75Y-2.55
X3.75Y-2.6
X3.75Y-2.65
X3.75Y-2.775
X3.75Y-2.825
X3.75Y-2.875
X3.825Y-3.475
X3.825Y-3.525
X3.825Y-3.575
X3.825Y-3.7
X3.825Y-3.75
X3.825Y-3.8
X3.95Y-2.1
X3.95Y-2.15
X3.95Y-2.2
X3.95Y-2.325
X3.95Y-2.375
X3.95Y-2.425
X3.95Y-2.55
X3.95Y-2.6
X3.95Y-2.65
X3.95Y-2.775
X3.95Y-2.825
X3.95Y-2.875
X4.025Y-3.475
X4.025Y-3.525
X4.025Y-3.575
X4.025Y-3.7
X4.025Y-3.75
X4.025Y-3.8
X4.2Y-2.325
X4.2Y-2.375
X4.2Y-2.425
X4.2Y-2.55
X4.2Y-2.6
X4.2Y-2.65
X4.2Y-2.775
X4.2Y-2.825
X4.2Y-2.875
X4.225Y-3.475
X4.225Y-3.525
X4.225Y-3.575
X4.225Y-3.7
X4.225Y-3.75
X4.225Y-3.8
X4.4Y-2.1
X4.4Y-2.15
X4.4Y-2.2
X4.4Y-2.325
X4.4Y-2.375
X4.4Y-2.425
X4.4Y-2.55
X4.4Y-2.6
X4.4Y-2.65
X4.4Y-2.775
X4.4Y-2.825
X4.4Y-2.875
X4.425Y-3.475
X4.425Y-3.525
X4.425Y-3.575
X4.425Y-3.7
X4.425Y-3.75
X4.425Y-3.8
X4.525Y-1.275
X4.525Y-1.325
X4.525Y-1.375
X4.525Y-1.5
X4.525Y-1.55
X4.525Y-1.6
X4.625Y-3.475
X4.625Y-3.525
X4.625Y-3.575
X4.625Y-3.7
X4.625Y-3.75
X4.625Y-3.8
X4.65Y-2.325
X4.65Y-2.375
X4.65Y-2.425
X4.65Y-2.55
X4.65Y-2.6
X4.65Y-2.65
X4.65Y-2.775
X4.65Y-2.825
X4.65Y-2.875
X4.725Y-1.275
X4.725Y-1.325
X4.725Y-1.375
X4.825Y-3.475
X4.825Y-3.525
X4.825Y-3.575
X4.825Y-3.7
X4.825Y-3.75
X4.825Y-3.8
X4.85Y-2.1
X4.85Y-2.15
X4.85Y-2.2
X4.85Y-2.325
X4.85Y-2.375
X4.85Y-2.425
X4.85Y-2.55
X4.85Y-2.6
X4.85Y-2.65
X4.85Y-2.775
X4.85Y-2.825
X4.85Y-2.875
X5.025Y-3.475
X5.025Y-3.525
X5.025Y-3.575
X5.025Y-3.7
X5.025Y-3.75
X5.025Y-3.8
X5.05Y-1.275
X5.05Y-1.325
X5.05Y-1.375
X5.1Y-2.325
X5.1Y-2.375
X5.1Y-2.425
X5.1Y-2.55
X5.1Y-2.6
X5.1Y-2.65
X5.1Y-2.775
X5.1Y-2.825
X5.1Y-2.875
X5.225Y-3.475
X5.225Y-3.525
X5.225Y-3.575
X5.225Y-3.7
X5.225Y-3.75
X5.225Y-3.8
X5.275Y-1.275
X5.275Y-1.325
X5.275Y-1.375
X5.3Y-2.1
X5.3Y-2.15
X5.3Y-2.2
X5.3Y-2.325
X5.3Y-2.375
X5.3Y-2.425
X5.3Y-2.55
X5.3Y-2.6
X5.3Y-2.65
X5.3Y-2.775
X5.3Y-2.825
X5.3Y-2.875
T3
X1.9Y-2.025
X1.9Y-2.225
X2.Y-1.95
X2.Y-2.025
X2.Y-2.225
X2.2Y-1.95
X2.35Y-2.025
X2.35Y-2.225
X2.45Y-1.95
X2.45Y-2.025
X2.45Y-2.225
X2.65Y-1.95
X2.8Y-2.025
X2.8Y-2.225
X2.9Y-1.95
X2.9Y-2.025
X2.9Y-2.225
X3.1Y-1.95
X3.25Y-2.025
X3.25Y-2.225
X3.35Y-1.95
X3.35Y-2.025
X3.35Y-2.225
X3.55Y-1.95
X3.7Y-2.025
X3.7Y-2.225
X3.8Y-1.95
X3.8Y-2.025
X3.8Y-2.225
X4.Y-1.95
X4.15Y-2.025
X4.15Y-2.225
X4.25Y-1.95
X4.25Y-2.025
X4.25Y-2.225
X4.35Y-1.075
X4.35Y-1.175
X4.45Y-1.95
X4.55Y-1.075
X4.55Y-1.175
X4.6Y-2.025
X4.6Y-2.225
X4.7Y-1.95
X4.7Y-2.025
X4.7Y-2.225
X4.725Y-1.025
X4.9Y-1.95
X4.925Y-1.025
X4.925Y-1.125
X4.925Y-1.325
X5.025Y-1.075
X5.025Y-1.175
X5.05Y-2.025
X5.05Y-2.225
X5.15Y-1.95
X5.15Y-2.025
X5.15Y-2.225
X5.225Y-1.075
X5.225Y-1.175
X5.35Y-1.95
T4
X4.625Y-1.15
X4.8219Y-1.15
T5
X1.9Y-1.3
X1.9Y-1.4
X1.925Y-3.5
X1.925Y-3.7
X2.025Y-3.5
X2.025Y-3.7
X2.125Y-3.5
X2.125Y-3.7
X2.175Y-1.3
X2.175Y-1.5
X2.225Y-3.5
X2.225Y-3.7
X2.275Y-1.3
X2.275Y-1.5
X2.325Y-3.5
X2.325Y-3.7
X2.375Y-1.3
X2.375Y-1.5
X2.425Y-3.5
X2.425Y-3.7
X2.475Y-1.3
X2.475Y-1.5
X2.525Y-3.5
X2.525Y-3.7
X2.575Y-1.3
X2.575Y-1.5
X2.625Y-3.5
X2.625Y-3.7
X2.675Y-1.3
X2.675Y-1.5
X2.775Y-1.3
X2.775Y-1.5
X2.875Y-1.3
X2.875Y-1.5
X4.125Y-4.1
X4.225Y-4.1
X4.325Y-1.325
X4.325Y-1.55
X4.325Y-4.1
X4.425Y-4.1
X4.525Y-4.1
X4.625Y-4.1
X4.725Y-4.1
X4.825Y-4.1
X5.375Y-3.75
T6
X1.825Y-0.8
X1.825Y-4.35
X5.375Y-0.8
X5.375Y-4.35
T0
M30
