M48
;DRILL file {KiCad 4.0.7-e2-6376~61~ubuntu18.04.1} date Sun Jul 26 21:25:17 2020
;FORMAT={-:-/ absolute / inch / decimal}
FMAT,2
INCH,TZ
T1C0.016
T2C0.024
T3C0.028
T4C0.039
T5C0.043
T6C0.126
T7C0.138
%
G90
G05
M72
T1
X3.0315Y-6.4961
X3.0906Y-6.4961
X3.3169Y-3.5531
X3.3169Y-3.6319
X3.3169Y-6.7028
X3.3169Y-6.7815
X3.3465Y-3.75
X3.3465Y-5.3248
X3.3465Y-6.8996
X3.4055Y-3.75
X3.4055Y-5.3248
X3.4055Y-6.8996
X3.5236Y-4.9016
X3.5236Y-5.0295
X3.5335Y-6.4764
X3.5335Y-6.6043
X3.5433Y-8.0512
X3.5433Y-8.1791
X3.6319Y-2.8445
X3.6811Y-3.1004
X3.6909Y-3.2677
X3.7008Y-2.8051
X4.4587Y-9.2913
X4.9409Y-9.5079
X5.315Y-3.5236
X5.315Y-4.4587
X5.315Y-5.2559
X5.315Y-6.063
X5.315Y-6.8406
X5.315Y-7.6181
X5.315Y-8.4055
X7.0472Y-3.2776
X7.0472Y-4.0551
X7.0472Y-4.8819
X7.0472Y-5.6791
X7.0472Y-6.4272
X7.0472Y-7.2146
X7.0472Y-8.002
X8.6516Y-2.8051
X8.7303Y-2.9528
X8.7697Y-2.8937
X8.7795Y-2.9528
X8.7992Y-8.2185
X8.7992Y-8.3957
X8.8386Y-4.3012
X8.8386Y-4.439
X8.8386Y-5.8661
X8.8386Y-6.0236
X8.8386Y-7.4508
X8.8386Y-7.6575
X8.9567Y-2.9331
X8.9961Y-6.1516
X9.0059Y-3.0118
X9.0059Y-4.5866
X9.0453Y-5.6988
X9.0551Y-7.2736
X9.0551Y-7.3524
X9.065Y-2.9331
X9.065Y-3.0118
X9.065Y-4.5866
X9.065Y-6.1516
X9.0846Y-5.8169
X9.1535Y-2.8937
X9.2421Y-2.8937
X9.2913Y-5.6988
X9.3406Y-5.6988
T2
X3.061Y-3.4055
X3.061Y-6.5551
X3.111Y-3.4055
X3.111Y-6.5551
X3.1579Y-3.5925
X3.1579Y-5.1673
X3.1579Y-6.7421
X3.1579Y-8.3169
X3.1579Y-9.0748
X3.161Y-3.4055
X3.161Y-6.5551
X3.2079Y-3.5925
X3.2079Y-5.1673
X3.2079Y-6.7421
X3.2079Y-8.3169
X3.2079Y-9.0748
X3.2579Y-3.5925
X3.2579Y-5.1673
X3.2579Y-6.7421
X3.2579Y-8.3169
X3.2579Y-9.0748
X3.376Y-3.5925
X3.376Y-4.3799
X3.376Y-5.1673
X3.376Y-5.9547
X3.376Y-6.7421
X3.376Y-7.5295
X3.376Y-8.3169
X3.376Y-9.1043
X3.426Y-3.5925
X3.426Y-4.3799
X3.426Y-5.1673
X3.426Y-5.9547
X3.426Y-6.7421
X3.426Y-7.5295
X3.426Y-8.3169
X3.426Y-9.1043
X3.476Y-3.5925
X3.476Y-4.3799
X3.476Y-5.1673
X3.476Y-5.9547
X3.476Y-6.7421
X3.476Y-7.5295
X3.476Y-8.3169
X3.476Y-9.1043
X3.622Y-3.3646
X3.622Y-3.4146
X3.622Y-3.4646
X3.622Y-4.152
X3.622Y-4.202
X3.622Y-4.252
X3.622Y-4.9394
X3.622Y-4.9894
X3.622Y-5.0394
X3.622Y-5.7283
X3.622Y-5.7783
X3.622Y-5.8283
X3.622Y-6.5157
X3.622Y-6.5657
X3.622Y-6.6157
X3.622Y-7.3016
X3.622Y-7.3516
X3.622Y-7.4016
X3.622Y-8.089
X3.622Y-8.139
X3.622Y-8.189
X3.622Y-8.878
X3.622Y-8.928
X3.622Y-8.978
X5.4724Y-9.3898
X5.4724Y-9.4398
X5.4724Y-9.4898
X7.1752Y-9.3898
X7.1752Y-9.4398
X7.1752Y-9.4898
X7.3622Y-9.3898
X7.3622Y-9.4398
X7.3622Y-9.4898
X7.5492Y-9.3898
X7.5492Y-9.4398
X7.5492Y-9.4898
X7.7362Y-9.3898
X7.7362Y-9.4398
X7.7362Y-9.4898
X8.7402Y-2.7165
X8.7402Y-2.7665
X8.7402Y-2.8165
X8.7402Y-3.5039
X8.7402Y-3.5539
X8.7402Y-3.6039
X8.7402Y-4.2913
X8.7402Y-4.3413
X8.7402Y-4.3913
X8.7402Y-5.0787
X8.7402Y-5.1287
X8.7402Y-5.1787
X8.7402Y-5.8661
X8.7402Y-5.9161
X8.7402Y-5.9661
X8.7402Y-6.6535
X8.7402Y-6.7035
X8.7402Y-6.7535
X8.7402Y-7.4409
X8.7402Y-7.4909
X8.7402Y-7.5409
X8.7402Y-8.2283
X8.7402Y-8.2783
X8.7402Y-8.3283
X8.8862Y-2.5886
X8.8862Y-3.376
X8.8862Y-4.1634
X8.8862Y-4.9508
X8.8862Y-5.7382
X8.8862Y-7.313
X8.8878Y-6.5256
X8.8878Y-8.1004
X8.9059Y-8.9075
X8.9362Y-2.5886
X8.9362Y-3.376
X8.9362Y-4.1634
X8.9362Y-4.9508
X8.9362Y-5.7382
X8.9362Y-7.313
X8.9378Y-6.5256
X8.9378Y-8.1004
X8.9559Y-8.9075
X8.9862Y-2.5886
X8.9862Y-3.376
X8.9862Y-4.1634
X8.9862Y-4.9508
X8.9862Y-5.7382
X8.9862Y-7.313
X8.9878Y-6.5256
X8.9878Y-8.1004
X9.0059Y-8.9075
X9.1028Y-2.5886
X9.1028Y-4.1634
X9.1028Y-5.7382
X9.1043Y-7.313
X9.1528Y-2.5886
X9.1528Y-4.1634
X9.1528Y-5.7382
X9.1543Y-7.313
X9.2012Y-2.7756
X9.2028Y-2.5886
X9.2028Y-4.1634
X9.2028Y-5.7382
X9.2043Y-7.313
X9.211Y-5.5512
X9.2512Y-2.7756
X9.261Y-5.5512
X9.3012Y-2.7756
X9.311Y-5.5512
T3
X3.2677Y-3.3465
X3.2677Y-3.435
X3.2677Y-4.1339
X3.2677Y-4.2224
X3.2677Y-4.9213
X3.2677Y-5.0098
X3.2677Y-5.7087
X3.2677Y-5.7972
X3.2677Y-6.4961
X3.2677Y-6.5846
X3.2677Y-7.2835
X3.2677Y-7.372
X3.2677Y-8.0709
X3.2677Y-8.1594
X3.2677Y-8.8583
X3.2677Y-8.9469
X3.4677Y-3.3465
X3.4677Y-3.435
X3.4677Y-4.1339
X3.4677Y-4.2224
X3.4677Y-4.9213
X3.4677Y-5.0098
X3.4677Y-5.7087
X3.4677Y-5.7972
X3.4677Y-6.4961
X3.4677Y-6.5846
X3.4677Y-7.2835
X3.4677Y-7.372
X3.4677Y-8.0709
X3.4677Y-8.1594
X3.4677Y-8.8583
X3.4677Y-8.9469
X6.7028Y-9.1339
X6.7028Y-9.2323
X6.7028Y-9.3307
X6.7028Y-9.4291
X6.9028Y-9.1339
X6.9028Y-9.2323
X6.9028Y-9.3307
X6.9028Y-9.4291
X8.8945Y-2.7362
X8.8945Y-2.8248
X8.8945Y-3.5236
X8.8945Y-3.6122
X8.8945Y-4.311
X8.8945Y-4.3996
X8.8945Y-5.0984
X8.8945Y-5.187
X8.8945Y-5.8858
X8.8945Y-5.9744
X8.8945Y-6.6732
X8.8945Y-6.7618
X8.8945Y-7.4606
X8.8945Y-7.5492
X8.8945Y-8.248
X8.8945Y-8.3366
X9.0945Y-2.7362
X9.0945Y-2.8248
X9.0945Y-3.5236
X9.0945Y-3.6122
X9.0945Y-4.311
X9.0945Y-4.3996
X9.0945Y-5.0984
X9.0945Y-5.187
X9.0945Y-5.8858
X9.0945Y-5.9744
X9.0945Y-6.6732
X9.0945Y-6.7618
X9.0945Y-7.4606
X9.0945Y-7.5492
X9.0945Y-8.248
X9.0945Y-8.3366
T4
X4.4575Y-9.1732
X4.4587Y-9.439
X4.5575Y-9.1732
X4.5587Y-9.439
X4.6575Y-9.1732
X4.6587Y-9.439
X4.7575Y-9.1732
X4.7587Y-9.439
X4.8575Y-9.1732
X4.8587Y-9.439
X4.9575Y-9.1732
X4.9587Y-9.439
X5.0575Y-9.1732
X5.0587Y-9.439
X5.1575Y-9.1732
X5.1587Y-9.439
X5.8268Y-9.1732
X5.8272Y-9.439
X5.9268Y-9.1732
X5.9272Y-9.439
X6.0268Y-9.1732
X6.0272Y-9.439
X6.1268Y-9.1732
X6.1272Y-9.439
X6.2268Y-9.1732
X6.2272Y-9.439
X6.3268Y-9.1732
X6.3272Y-9.439
X6.4268Y-9.1732
X6.4272Y-9.439
X6.5268Y-9.1732
X6.5272Y-9.439
X7.2047Y-9.1732
X7.3047Y-9.1732
X7.4047Y-9.1732
X7.5047Y-9.1732
X7.6047Y-9.1732
X7.7047Y-9.1732
X7.8047Y-9.1732
X7.9047Y-9.1732
T5
X3.7402Y-3.0118
X3.7402Y-3.1693
X3.7402Y-3.7992
X3.7402Y-3.9567
X3.7402Y-4.5866
X3.7402Y-4.7441
X3.7402Y-5.374
X3.7402Y-5.5315
X3.7402Y-6.1614
X3.7402Y-6.3189
X3.7402Y-6.9488
X3.7402Y-7.1063
X3.7402Y-7.7362
X3.7402Y-7.8937
X3.7402Y-8.5236
X3.7402Y-8.6811
X3.8976Y-3.0118
X3.8976Y-3.1693
X3.8976Y-3.7992
X3.8976Y-3.9567
X3.8976Y-4.5866
X3.8976Y-4.7441
X3.8976Y-5.374
X3.8976Y-5.5315
X3.8976Y-6.1614
X3.8976Y-6.3189
X3.8976Y-6.9488
X3.8976Y-7.1063
X3.8976Y-7.7362
X3.8976Y-7.8937
X3.8976Y-8.5236
X3.8976Y-8.6811
X4.0551Y-3.0118
X4.0551Y-3.1693
X4.0551Y-3.7992
X4.0551Y-3.9567
X4.0551Y-4.5866
X4.0551Y-4.7441
X4.0551Y-5.374
X4.0551Y-5.5315
X4.0551Y-6.1614
X4.0551Y-6.3189
X4.0551Y-6.9488
X4.0551Y-7.1063
X4.0551Y-7.7362
X4.0551Y-7.8937
X4.0551Y-8.5236
X4.0551Y-8.6811
X4.2126Y-3.0118
X4.2126Y-3.1693
X4.2126Y-3.7992
X4.2126Y-3.9567
X4.2126Y-4.5866
X4.2126Y-4.7441
X4.2126Y-5.374
X4.2126Y-5.5315
X4.2126Y-6.1614
X4.2126Y-6.3189
X4.2126Y-6.9488
X4.2126Y-7.1063
X4.2126Y-7.7362
X4.2126Y-7.8937
X4.2126Y-8.5236
X4.2126Y-8.6811
X4.3701Y-3.0118
X4.3701Y-3.1693
X4.3701Y-3.7992
X4.3701Y-3.9567
X4.3701Y-4.5866
X4.3701Y-4.7441
X4.3701Y-5.374
X4.3701Y-5.5315
X4.3701Y-6.1614
X4.3701Y-6.3189
X4.3701Y-6.9488
X4.3701Y-7.1063
X4.3701Y-7.7362
X4.3701Y-7.8937
X4.3701Y-8.5236
X4.3701Y-8.6811
X4.5276Y-3.0118
X4.5276Y-3.1693
X4.5276Y-3.7992
X4.5276Y-3.9567
X4.5276Y-4.5866
X4.5276Y-4.7441
X4.5276Y-5.374
X4.5276Y-5.5315
X4.5276Y-6.1614
X4.5276Y-6.3189
X4.5276Y-6.9488
X4.5276Y-7.1063
X4.5276Y-7.7362
X4.5276Y-7.8937
X4.5276Y-8.5236
X4.5276Y-8.6811
X4.685Y-3.0118
X4.685Y-3.1693
X4.685Y-3.7992
X4.685Y-3.9567
X4.685Y-4.5866
X4.685Y-4.7441
X4.685Y-5.374
X4.685Y-5.5315
X4.685Y-6.1614
X4.685Y-6.3189
X4.685Y-6.9488
X4.685Y-7.1063
X4.685Y-7.7362
X4.685Y-7.8937
X4.685Y-8.5236
X4.685Y-8.6811
X4.8425Y-3.0118
X4.8425Y-3.1693
X4.8425Y-3.7992
X4.8425Y-3.9567
X4.8425Y-4.5866
X4.8425Y-4.7441
X4.8425Y-5.374
X4.8425Y-5.5315
X4.8425Y-6.1614
X4.8425Y-6.3189
X4.8425Y-6.9488
X4.8425Y-7.1063
X4.8425Y-7.7362
X4.8425Y-7.8937
X4.8425Y-8.5236
X4.8425Y-8.6811
X5.Y-3.0118
X5.Y-3.1693
X5.Y-3.7992
X5.Y-3.9567
X5.Y-4.5866
X5.Y-4.7441
X5.Y-5.374
X5.Y-5.5315
X5.Y-6.1614
X5.Y-6.3189
X5.Y-6.9488
X5.Y-7.1063
X5.Y-7.7362
X5.Y-7.8937
X5.Y-8.5236
X5.Y-8.6811
X5.1575Y-3.0118
X5.1575Y-3.1693
X5.1575Y-3.7992
X5.1575Y-3.9567
X5.1575Y-4.5866
X5.1575Y-4.7441
X5.1575Y-5.374
X5.1575Y-5.5315
X5.1575Y-6.1614
X5.1575Y-6.3189
X5.1575Y-6.9488
X5.1575Y-7.1063
X5.1575Y-7.7362
X5.1575Y-7.8937
X5.1575Y-8.5236
X5.1575Y-8.6811
X5.315Y-3.0118
X5.315Y-3.1693
X5.315Y-3.7992
X5.315Y-3.9567
X5.315Y-4.5866
X5.315Y-4.7441
X5.315Y-5.374
X5.315Y-5.5315
X5.315Y-6.1614
X5.315Y-6.3189
X5.315Y-6.9488
X5.315Y-7.1063
X5.315Y-7.7362
X5.315Y-7.8937
X5.315Y-8.5236
X5.315Y-8.6811
X5.4724Y-3.0118
X5.4724Y-3.1693
X5.4724Y-3.7992
X5.4724Y-3.9567
X5.4724Y-4.5866
X5.4724Y-4.7441
X5.4724Y-5.374
X5.4724Y-5.5315
X5.4724Y-6.1614
X5.4724Y-6.3189
X5.4724Y-6.9488
X5.4724Y-7.1063
X5.4724Y-7.7362
X5.4724Y-7.8937
X5.4724Y-8.5236
X5.4724Y-8.6811
X6.8898Y-3.0118
X6.8898Y-3.1693
X6.8898Y-3.7992
X6.8898Y-3.9567
X6.8898Y-4.5866
X6.8898Y-4.7441
X6.8898Y-5.374
X6.8898Y-5.5315
X6.8898Y-6.1614
X6.8898Y-6.3189
X6.8898Y-6.9488
X6.8898Y-7.1063
X6.8898Y-7.7362
X6.8898Y-7.8937
X6.8898Y-8.5236
X6.8898Y-8.6811
X7.0472Y-3.0118
X7.0472Y-3.1693
X7.0472Y-3.7992
X7.0472Y-3.9567
X7.0472Y-4.5866
X7.0472Y-4.7441
X7.0472Y-5.374
X7.0472Y-5.5315
X7.0472Y-6.1614
X7.0472Y-6.3189
X7.0472Y-6.9488
X7.0472Y-7.1063
X7.0472Y-7.7362
X7.0472Y-7.8937
X7.0472Y-8.5236
X7.0472Y-8.6811
X7.2047Y-3.0118
X7.2047Y-3.1693
X7.2047Y-3.7992
X7.2047Y-3.9567
X7.2047Y-4.5866
X7.2047Y-4.7441
X7.2047Y-5.374
X7.2047Y-5.5315
X7.2047Y-6.1614
X7.2047Y-6.3189
X7.2047Y-6.9488
X7.2047Y-7.1063
X7.2047Y-7.7362
X7.2047Y-7.8937
X7.2047Y-8.5236
X7.2047Y-8.6811
X7.3622Y-3.0118
X7.3622Y-3.1693
X7.3622Y-3.7992
X7.3622Y-3.9567
X7.3622Y-4.5866
X7.3622Y-4.7441
X7.3622Y-5.374
X7.3622Y-5.5315
X7.3622Y-6.1614
X7.3622Y-6.3189
X7.3622Y-6.9488
X7.3622Y-7.1063
X7.3622Y-7.7362
X7.3622Y-7.8937
X7.3622Y-8.5236
X7.3622Y-8.6811
X7.5197Y-3.0118
X7.5197Y-3.1693
X7.5197Y-3.7992
X7.5197Y-3.9567
X7.5197Y-4.5866
X7.5197Y-4.7441
X7.5197Y-5.374
X7.5197Y-5.5315
X7.5197Y-6.1614
X7.5197Y-6.3189
X7.5197Y-6.9488
X7.5197Y-7.1063
X7.5197Y-7.7362
X7.5197Y-7.8937
X7.5197Y-8.5236
X7.5197Y-8.6811
X7.6772Y-3.0118
X7.6772Y-3.1693
X7.6772Y-3.7992
X7.6772Y-3.9567
X7.6772Y-4.5866
X7.6772Y-4.7441
X7.6772Y-5.374
X7.6772Y-5.5315
X7.6772Y-6.1614
X7.6772Y-6.3189
X7.6772Y-6.9488
X7.6772Y-7.1063
X7.6772Y-7.7362
X7.6772Y-7.8937
X7.6772Y-8.5236
X7.6772Y-8.6811
X7.8346Y-3.0118
X7.8346Y-3.1693
X7.8346Y-3.7992
X7.8346Y-3.9567
X7.8346Y-4.5866
X7.8346Y-4.7441
X7.8346Y-5.374
X7.8346Y-5.5315
X7.8346Y-6.1614
X7.8346Y-6.3189
X7.8346Y-6.9488
X7.8346Y-7.1063
X7.8346Y-7.7362
X7.8346Y-7.8937
X7.8346Y-8.5236
X7.8346Y-8.6811
X7.9921Y-3.0118
X7.9921Y-3.1693
X7.9921Y-3.7992
X7.9921Y-3.9567
X7.9921Y-4.5866
X7.9921Y-4.7441
X7.9921Y-5.374
X7.9921Y-5.5315
X7.9921Y-6.1614
X7.9921Y-6.3189
X7.9921Y-6.9488
X7.9921Y-7.1063
X7.9921Y-7.7362
X7.9921Y-7.8937
X7.9921Y-8.5236
X7.9921Y-8.6811
X8.1496Y-3.0118
X8.1496Y-3.1693
X8.1496Y-3.7992
X8.1496Y-3.9567
X8.1496Y-4.5866
X8.1496Y-4.7441
X8.1496Y-5.374
X8.1496Y-5.5315
X8.1496Y-6.1614
X8.1496Y-6.3189
X8.1496Y-6.9488
X8.1496Y-7.1063
X8.1496Y-7.7362
X8.1496Y-7.8937
X8.1496Y-8.5236
X8.1496Y-8.6811
X8.3071Y-3.0118
X8.3071Y-3.1693
X8.3071Y-3.7992
X8.3071Y-3.9567
X8.3071Y-4.5866
X8.3071Y-4.7441
X8.3071Y-5.374
X8.3071Y-5.5315
X8.3071Y-6.1614
X8.3071Y-6.3189
X8.3071Y-6.9488
X8.3071Y-7.1063
X8.3071Y-7.7362
X8.3071Y-7.8937
X8.3071Y-8.5236
X8.3071Y-8.6811
X8.4646Y-3.0118
X8.4646Y-3.1693
X8.4646Y-3.7992
X8.4646Y-3.9567
X8.4646Y-4.5866
X8.4646Y-4.7441
X8.4646Y-5.374
X8.4646Y-5.5315
X8.4646Y-6.1614
X8.4646Y-6.3189
X8.4646Y-6.9488
X8.4646Y-7.1063
X8.4646Y-7.7362
X8.4646Y-7.8937
X8.4646Y-8.5236
X8.4646Y-8.6811
X8.622Y-3.0118
X8.622Y-3.1693
X8.622Y-3.7992
X8.622Y-3.9567
X8.622Y-4.5866
X8.622Y-4.7441
X8.622Y-5.374
X8.622Y-5.5315
X8.622Y-6.1614
X8.622Y-6.3189
X8.622Y-6.9488
X8.622Y-7.1063
X8.622Y-7.7362
X8.622Y-7.8937
X8.622Y-8.5236
X8.622Y-8.6811
T6
X2.9528Y-2.5591
X2.9528Y-9.5472
X9.4488Y-2.5591
X9.4488Y-9.5472
T7
X3.4252Y-3.0906
X3.4252Y-3.878
X3.4252Y-4.6654
X3.4252Y-5.4528
X3.4252Y-6.2402
X3.4252Y-7.0276
X3.4252Y-7.815
X3.4252Y-8.6024
X5.7874Y-3.0906
X5.7874Y-3.878
X5.7874Y-4.6654
X5.7874Y-5.4528
X5.7874Y-6.2402
X5.7874Y-7.0276
X5.7874Y-7.815
X5.7874Y-8.6024
X6.5748Y-3.0906
X6.5748Y-3.878
X6.5748Y-4.6654
X6.5748Y-5.4528
X6.5748Y-6.2402
X6.5748Y-7.0276
X6.5748Y-7.815
X6.5748Y-8.6024
X8.937Y-3.0906
X8.937Y-3.878
X8.937Y-4.6654
X8.937Y-5.4528
X8.937Y-6.2402
X8.937Y-7.0276
X8.937Y-7.815
X8.937Y-8.6024
T0
M30
