G04 #@! TF.FileFunction,Legend,Top*
%FSLAX46Y46*%
G04 Gerber Fmt 4.6, Leading zero omitted, Abs format (unit mm)*
G04 Created by KiCad (PCBNEW 4.0.7-e2-6376~61~ubuntu18.04.1) date Sun Jul 26 21:24:59 2020*
%MOMM*%
%LPD*%
G01*
G04 APERTURE LIST*
%ADD10C,0.150000*%
%ADD11C,0.120000*%
G04 APERTURE END LIST*
D10*
X70000000Y-247500000D02*
X70000000Y-60000000D01*
X245000000Y-247500000D02*
X70000000Y-247500000D01*
X245000000Y-60000000D02*
X245000000Y-247500000D01*
X244750000Y-60000000D02*
X245000000Y-60000000D01*
X70000000Y-60000000D02*
X244750000Y-60000000D01*
X131000000Y-234778000D02*
X129603000Y-236175000D01*
X129603000Y-236175000D02*
X132397000Y-236175000D01*
X131000000Y-234778000D02*
X132397000Y-236175000D01*
D11*
X111890000Y-231670000D02*
X111890000Y-234330000D01*
X129730000Y-231670000D02*
X111890000Y-231670000D01*
X129730000Y-234330000D02*
X111890000Y-234330000D01*
X129730000Y-231670000D02*
X129730000Y-234330000D01*
X131000000Y-231670000D02*
X132330000Y-231670000D01*
X132330000Y-231670000D02*
X132330000Y-233000000D01*
D10*
X183000000Y-231222000D02*
X184397000Y-229825000D01*
X184397000Y-229825000D02*
X181603000Y-229825000D01*
X183000000Y-231222000D02*
X181603000Y-229825000D01*
D11*
X202110000Y-234330000D02*
X202110000Y-231670000D01*
X184270000Y-234330000D02*
X202110000Y-234330000D01*
X184270000Y-231670000D02*
X202110000Y-231670000D01*
X184270000Y-234330000D02*
X184270000Y-231670000D01*
X183000000Y-234330000D02*
X181670000Y-234330000D01*
X181670000Y-234330000D02*
X181670000Y-233000000D01*
D10*
X113250000Y-237972000D02*
X114647000Y-236575000D01*
X114647000Y-236575000D02*
X111853000Y-236575000D01*
X113250000Y-237972000D02*
X111853000Y-236575000D01*
D11*
X132360000Y-241080000D02*
X132360000Y-238420000D01*
X114520000Y-241080000D02*
X132360000Y-241080000D01*
X114520000Y-238420000D02*
X132360000Y-238420000D01*
X114520000Y-241080000D02*
X114520000Y-238420000D01*
X113250000Y-241080000D02*
X111920000Y-241080000D01*
X111920000Y-241080000D02*
X111920000Y-239750000D01*
D10*
X148000000Y-231222000D02*
X149397000Y-229825000D01*
X149397000Y-229825000D02*
X146603000Y-229825000D01*
X148000000Y-231222000D02*
X146603000Y-229825000D01*
D11*
X167110000Y-234330000D02*
X167110000Y-231670000D01*
X149270000Y-234330000D02*
X167110000Y-234330000D01*
X149270000Y-231670000D02*
X167110000Y-231670000D01*
X149270000Y-234330000D02*
X149270000Y-231670000D01*
X148000000Y-234330000D02*
X146670000Y-234330000D01*
X146670000Y-234330000D02*
X146670000Y-233000000D01*
D10*
X232000000Y-218500000D02*
X234000000Y-216500000D01*
X234000000Y-216500000D02*
X234000000Y-220500000D01*
X234000000Y-220500000D02*
X232000000Y-218500000D01*
X232000000Y-223500000D02*
X232000000Y-213500000D01*
X232000000Y-213500000D02*
X162000000Y-213500000D01*
X162000000Y-213500000D02*
X162000000Y-223500000D01*
X162000000Y-223500000D02*
X232000000Y-223500000D01*
X232000000Y-198500000D02*
X234000000Y-196500000D01*
X234000000Y-196500000D02*
X234000000Y-200500000D01*
X234000000Y-200500000D02*
X232000000Y-198500000D01*
X232000000Y-203500000D02*
X232000000Y-193500000D01*
X232000000Y-193500000D02*
X162000000Y-193500000D01*
X162000000Y-193500000D02*
X162000000Y-203500000D01*
X162000000Y-203500000D02*
X232000000Y-203500000D01*
X232000000Y-178500000D02*
X234000000Y-176500000D01*
X234000000Y-176500000D02*
X234000000Y-180500000D01*
X234000000Y-180500000D02*
X232000000Y-178500000D01*
X232000000Y-183500000D02*
X232000000Y-173500000D01*
X232000000Y-173500000D02*
X162000000Y-173500000D01*
X162000000Y-173500000D02*
X162000000Y-183500000D01*
X162000000Y-183500000D02*
X232000000Y-183500000D01*
X232000000Y-158500000D02*
X234000000Y-156500000D01*
X234000000Y-156500000D02*
X234000000Y-160500000D01*
X234000000Y-160500000D02*
X232000000Y-158500000D01*
X232000000Y-163500000D02*
X232000000Y-153500000D01*
X232000000Y-153500000D02*
X162000000Y-153500000D01*
X162000000Y-153500000D02*
X162000000Y-163500000D01*
X162000000Y-163500000D02*
X232000000Y-163500000D01*
X232000000Y-138500000D02*
X234000000Y-136500000D01*
X234000000Y-136500000D02*
X234000000Y-140500000D01*
X234000000Y-140500000D02*
X232000000Y-138500000D01*
X232000000Y-143500000D02*
X232000000Y-133500000D01*
X232000000Y-133500000D02*
X162000000Y-133500000D01*
X162000000Y-133500000D02*
X162000000Y-143500000D01*
X162000000Y-143500000D02*
X232000000Y-143500000D01*
X232000000Y-118500000D02*
X234000000Y-116500000D01*
X234000000Y-116500000D02*
X234000000Y-120500000D01*
X234000000Y-120500000D02*
X232000000Y-118500000D01*
X232000000Y-123500000D02*
X232000000Y-113500000D01*
X232000000Y-113500000D02*
X162000000Y-113500000D01*
X162000000Y-113500000D02*
X162000000Y-123500000D01*
X162000000Y-123500000D02*
X232000000Y-123500000D01*
X232000000Y-98500000D02*
X234000000Y-96500000D01*
X234000000Y-96500000D02*
X234000000Y-100500000D01*
X234000000Y-100500000D02*
X232000000Y-98500000D01*
X232000000Y-103500000D02*
X232000000Y-93500000D01*
X232000000Y-93500000D02*
X162000000Y-93500000D01*
X162000000Y-93500000D02*
X162000000Y-103500000D01*
X162000000Y-103500000D02*
X232000000Y-103500000D01*
X232000000Y-78500000D02*
X234000000Y-76500000D01*
X234000000Y-76500000D02*
X234000000Y-80500000D01*
X234000000Y-80500000D02*
X232000000Y-78500000D01*
X232000000Y-83500000D02*
X232000000Y-73500000D01*
X232000000Y-73500000D02*
X162000000Y-73500000D01*
X162000000Y-73500000D02*
X162000000Y-83500000D01*
X162000000Y-83500000D02*
X232000000Y-83500000D01*
X82000000Y-78500000D02*
X80000000Y-80500000D01*
X80000000Y-80500000D02*
X80000000Y-76500000D01*
X80000000Y-76500000D02*
X82000000Y-78500000D01*
X82000000Y-73500000D02*
X82000000Y-83500000D01*
X82000000Y-83500000D02*
X152000000Y-83500000D01*
X152000000Y-83500000D02*
X152000000Y-73500000D01*
X152000000Y-73500000D02*
X82000000Y-73500000D01*
X82000000Y-98500000D02*
X80000000Y-100500000D01*
X80000000Y-100500000D02*
X80000000Y-96500000D01*
X80000000Y-96500000D02*
X82000000Y-98500000D01*
X82000000Y-93500000D02*
X82000000Y-103500000D01*
X82000000Y-103500000D02*
X152000000Y-103500000D01*
X152000000Y-103500000D02*
X152000000Y-93500000D01*
X152000000Y-93500000D02*
X82000000Y-93500000D01*
X82000000Y-118500000D02*
X80000000Y-120500000D01*
X80000000Y-120500000D02*
X80000000Y-116500000D01*
X80000000Y-116500000D02*
X82000000Y-118500000D01*
X82000000Y-113500000D02*
X82000000Y-123500000D01*
X82000000Y-123500000D02*
X152000000Y-123500000D01*
X152000000Y-123500000D02*
X152000000Y-113500000D01*
X152000000Y-113500000D02*
X82000000Y-113500000D01*
X82000000Y-138500000D02*
X80000000Y-140500000D01*
X80000000Y-140500000D02*
X80000000Y-136500000D01*
X80000000Y-136500000D02*
X82000000Y-138500000D01*
X82000000Y-133500000D02*
X82000000Y-143500000D01*
X82000000Y-143500000D02*
X152000000Y-143500000D01*
X152000000Y-143500000D02*
X152000000Y-133500000D01*
X152000000Y-133500000D02*
X82000000Y-133500000D01*
X82000000Y-158500000D02*
X80000000Y-160500000D01*
X80000000Y-160500000D02*
X80000000Y-156500000D01*
X80000000Y-156500000D02*
X82000000Y-158500000D01*
X82000000Y-153500000D02*
X82000000Y-163500000D01*
X82000000Y-163500000D02*
X152000000Y-163500000D01*
X152000000Y-163500000D02*
X152000000Y-153500000D01*
X152000000Y-153500000D02*
X82000000Y-153500000D01*
X82000000Y-178500000D02*
X80000000Y-180500000D01*
X80000000Y-180500000D02*
X80000000Y-176500000D01*
X80000000Y-176500000D02*
X82000000Y-178500000D01*
X82000000Y-173500000D02*
X82000000Y-183500000D01*
X82000000Y-183500000D02*
X152000000Y-183500000D01*
X152000000Y-183500000D02*
X152000000Y-173500000D01*
X152000000Y-173500000D02*
X82000000Y-173500000D01*
X82000000Y-198500000D02*
X80000000Y-200500000D01*
X80000000Y-200500000D02*
X80000000Y-196500000D01*
X80000000Y-196500000D02*
X82000000Y-198500000D01*
X82000000Y-193500000D02*
X82000000Y-203500000D01*
X82000000Y-203500000D02*
X152000000Y-203500000D01*
X152000000Y-203500000D02*
X152000000Y-193500000D01*
X152000000Y-193500000D02*
X82000000Y-193500000D01*
X82000000Y-218500000D02*
X80000000Y-220500000D01*
X80000000Y-220500000D02*
X80000000Y-216500000D01*
X80000000Y-216500000D02*
X82000000Y-218500000D01*
X82000000Y-213500000D02*
X82000000Y-223500000D01*
X82000000Y-223500000D02*
X152000000Y-223500000D01*
X152000000Y-223500000D02*
X152000000Y-213500000D01*
X152000000Y-213500000D02*
X82000000Y-213500000D01*
X180954600Y-237534800D02*
X180954600Y-242005200D01*
D11*
X180400000Y-237970000D02*
X180400000Y-241570000D01*
X180411522Y-237931522D02*
G75*
G02X184850000Y-239770000I1838478J-1838478D01*
G01*
X180411522Y-241608478D02*
G75*
G03X184850000Y-239770000I1838478J1838478D01*
G01*
D10*
X185704600Y-237534800D02*
X185704600Y-242005200D01*
D11*
X185150000Y-237970000D02*
X185150000Y-241570000D01*
X185161522Y-237931522D02*
G75*
G02X189600000Y-239770000I1838478J-1838478D01*
G01*
X185161522Y-241608478D02*
G75*
G03X189600000Y-239770000I1838478J1838478D01*
G01*
D10*
X190454600Y-237534800D02*
X190454600Y-242005200D01*
D11*
X189900000Y-237970000D02*
X189900000Y-241570000D01*
X189911522Y-237931522D02*
G75*
G02X194350000Y-239770000I1838478J-1838478D01*
G01*
X189911522Y-241608478D02*
G75*
G03X194350000Y-239770000I1838478J1838478D01*
G01*
D10*
X195204600Y-237534800D02*
X195204600Y-242005200D01*
D11*
X194650000Y-237970000D02*
X194650000Y-241570000D01*
X194661522Y-237931522D02*
G75*
G02X199100000Y-239770000I1838478J-1838478D01*
G01*
X194661522Y-241608478D02*
G75*
G03X199100000Y-239770000I1838478J1838478D01*
G01*
D10*
X237465200Y-139704600D02*
X232994800Y-139704600D01*
D11*
X237030000Y-139150000D02*
X233430000Y-139150000D01*
X237068478Y-139161522D02*
G75*
G02X235230000Y-143600000I-1838478J-1838478D01*
G01*
X233391522Y-139161522D02*
G75*
G03X235230000Y-143600000I1838478J-1838478D01*
G01*
D10*
X229715200Y-224954600D02*
X225244800Y-224954600D01*
D11*
X229280000Y-224400000D02*
X225680000Y-224400000D01*
X229318478Y-224411522D02*
G75*
G02X227480000Y-228850000I-1838478J-1838478D01*
G01*
X225641522Y-224411522D02*
G75*
G03X227480000Y-228850000I1838478J-1838478D01*
G01*
D10*
X137704600Y-237534800D02*
X137704600Y-242005200D01*
D11*
X137150000Y-237970000D02*
X137150000Y-241570000D01*
X137161522Y-237931522D02*
G75*
G02X141600000Y-239770000I1838478J-1838478D01*
G01*
X137161522Y-241608478D02*
G75*
G03X141600000Y-239770000I1838478J1838478D01*
G01*
D10*
X237215200Y-69204600D02*
X232744800Y-69204600D01*
D11*
X236780000Y-68650000D02*
X233180000Y-68650000D01*
X236818478Y-68661522D02*
G75*
G02X234980000Y-73100000I-1838478J-1838478D01*
G01*
X233141522Y-68661522D02*
G75*
G03X234980000Y-73100000I1838478J-1838478D01*
G01*
D10*
X76784800Y-87795400D02*
X81255200Y-87795400D01*
D11*
X77220000Y-88350000D02*
X80820000Y-88350000D01*
X77181522Y-88338478D02*
G75*
G02X79020000Y-83900000I1838478J1838478D01*
G01*
X80858478Y-88338478D02*
G75*
G03X79020000Y-83900000I-1838478J1838478D01*
G01*
D10*
X83715200Y-229204600D02*
X79244800Y-229204600D01*
D11*
X83280000Y-228650000D02*
X79680000Y-228650000D01*
X83318478Y-228661522D02*
G75*
G02X81480000Y-233100000I-1838478J-1838478D01*
G01*
X79641522Y-228661522D02*
G75*
G03X81480000Y-233100000I1838478J-1838478D01*
G01*
D10*
X76784800Y-167795400D02*
X81255200Y-167795400D01*
D11*
X77220000Y-168350000D02*
X80820000Y-168350000D01*
X77181522Y-168338478D02*
G75*
G02X79020000Y-163900000I1838478J1838478D01*
G01*
X80858478Y-168338478D02*
G75*
G03X79020000Y-163900000I-1838478J1838478D01*
G01*
D10*
X229255200Y-204454600D02*
X224784800Y-204454600D01*
D11*
X228820000Y-203900000D02*
X225220000Y-203900000D01*
X228858478Y-203911522D02*
G75*
G02X227020000Y-208350000I-1838478J-1838478D01*
G01*
X225181522Y-203911522D02*
G75*
G03X227020000Y-208350000I1838478J-1838478D01*
G01*
D10*
X220704600Y-208034800D02*
X220704600Y-212505200D01*
D11*
X220150000Y-208470000D02*
X220150000Y-212070000D01*
X220161522Y-208431522D02*
G75*
G02X224600000Y-210270000I1838478J-1838478D01*
G01*
X220161522Y-212108478D02*
G75*
G03X224600000Y-210270000I1838478J1838478D01*
G01*
D10*
X234755200Y-184454600D02*
X230284800Y-184454600D01*
D11*
X234320000Y-183900000D02*
X230720000Y-183900000D01*
X234358478Y-183911522D02*
G75*
G02X232520000Y-188350000I-1838478J-1838478D01*
G01*
X230681522Y-183911522D02*
G75*
G03X232520000Y-188350000I1838478J-1838478D01*
G01*
D10*
X229215200Y-184454600D02*
X224744800Y-184454600D01*
D11*
X228780000Y-183900000D02*
X225180000Y-183900000D01*
X228818478Y-183911522D02*
G75*
G02X226980000Y-188350000I-1838478J-1838478D01*
G01*
X225141522Y-183911522D02*
G75*
G03X226980000Y-188350000I1838478J-1838478D01*
G01*
D10*
X220704600Y-188034800D02*
X220704600Y-192505200D01*
D11*
X220150000Y-188470000D02*
X220150000Y-192070000D01*
X220161522Y-188431522D02*
G75*
G02X224600000Y-190270000I1838478J-1838478D01*
G01*
X220161522Y-192108478D02*
G75*
G03X224600000Y-190270000I1838478J1838478D01*
G01*
D10*
X229255200Y-164454600D02*
X224784800Y-164454600D01*
D11*
X228820000Y-163900000D02*
X225220000Y-163900000D01*
X228858478Y-163911522D02*
G75*
G02X227020000Y-168350000I-1838478J-1838478D01*
G01*
X225181522Y-163911522D02*
G75*
G03X227020000Y-168350000I1838478J-1838478D01*
G01*
D10*
X229215200Y-124454600D02*
X224744800Y-124454600D01*
D11*
X228780000Y-123900000D02*
X225180000Y-123900000D01*
X228818478Y-123911522D02*
G75*
G02X226980000Y-128350000I-1838478J-1838478D01*
G01*
X225141522Y-123911522D02*
G75*
G03X226980000Y-128350000I1838478J-1838478D01*
G01*
D10*
X220704600Y-128034800D02*
X220704600Y-132505200D01*
D11*
X220150000Y-128470000D02*
X220150000Y-132070000D01*
X220161522Y-128431522D02*
G75*
G02X224600000Y-130270000I1838478J-1838478D01*
G01*
X220161522Y-132108478D02*
G75*
G03X224600000Y-130270000I1838478J1838478D01*
G01*
D10*
X234715200Y-104454600D02*
X230244800Y-104454600D01*
D11*
X234280000Y-103900000D02*
X230680000Y-103900000D01*
X234318478Y-103911522D02*
G75*
G02X232480000Y-108350000I-1838478J-1838478D01*
G01*
X230641522Y-103911522D02*
G75*
G03X232480000Y-108350000I1838478J-1838478D01*
G01*
D10*
X229215200Y-104454600D02*
X224744800Y-104454600D01*
D11*
X228780000Y-103900000D02*
X225180000Y-103900000D01*
X228818478Y-103911522D02*
G75*
G02X226980000Y-108350000I-1838478J-1838478D01*
G01*
X225141522Y-103911522D02*
G75*
G03X226980000Y-108350000I1838478J-1838478D01*
G01*
D10*
X220704600Y-108034800D02*
X220704600Y-112505200D01*
D11*
X220150000Y-108470000D02*
X220150000Y-112070000D01*
X220161522Y-108431522D02*
G75*
G02X224600000Y-110270000I1838478J-1838478D01*
G01*
X220161522Y-112108478D02*
G75*
G03X224600000Y-110270000I1838478J1838478D01*
G01*
D10*
X229215200Y-84454600D02*
X224744800Y-84454600D01*
D11*
X228780000Y-83900000D02*
X225180000Y-83900000D01*
X228818478Y-83911522D02*
G75*
G02X226980000Y-88350000I-1838478J-1838478D01*
G01*
X225141522Y-83911522D02*
G75*
G03X226980000Y-88350000I1838478J-1838478D01*
G01*
D10*
X84784800Y-92545400D02*
X89255200Y-92545400D01*
D11*
X85220000Y-93100000D02*
X88820000Y-93100000D01*
X85181522Y-93088478D02*
G75*
G02X87020000Y-88650000I1838478J1838478D01*
G01*
X88858478Y-93088478D02*
G75*
G03X87020000Y-88650000I-1838478J1838478D01*
G01*
D10*
X93295400Y-88965200D02*
X93295400Y-84494800D01*
D11*
X93850000Y-88530000D02*
X93850000Y-84930000D01*
X93838478Y-88568478D02*
G75*
G02X89400000Y-86730000I-1838478J1838478D01*
G01*
X93838478Y-84891522D02*
G75*
G03X89400000Y-86730000I-1838478J-1838478D01*
G01*
D10*
X79244800Y-92545400D02*
X83715200Y-92545400D01*
D11*
X79680000Y-93100000D02*
X83280000Y-93100000D01*
X79641522Y-93088478D02*
G75*
G02X81480000Y-88650000I1838478J1838478D01*
G01*
X83318478Y-93088478D02*
G75*
G03X81480000Y-88650000I-1838478J1838478D01*
G01*
D10*
X84784800Y-112545400D02*
X89255200Y-112545400D01*
D11*
X85220000Y-113100000D02*
X88820000Y-113100000D01*
X85181522Y-113088478D02*
G75*
G02X87020000Y-108650000I1838478J1838478D01*
G01*
X88858478Y-113088478D02*
G75*
G03X87020000Y-108650000I-1838478J1838478D01*
G01*
D10*
X93295400Y-108965200D02*
X93295400Y-104494800D01*
D11*
X93850000Y-108530000D02*
X93850000Y-104930000D01*
X93838478Y-108568478D02*
G75*
G02X89400000Y-106730000I-1838478J1838478D01*
G01*
X93838478Y-104891522D02*
G75*
G03X89400000Y-106730000I-1838478J-1838478D01*
G01*
D10*
X84784800Y-132545400D02*
X89255200Y-132545400D01*
D11*
X85220000Y-133100000D02*
X88820000Y-133100000D01*
X85181522Y-133088478D02*
G75*
G02X87020000Y-128650000I1838478J1838478D01*
G01*
X88858478Y-133088478D02*
G75*
G03X87020000Y-128650000I-1838478J1838478D01*
G01*
D10*
X84784800Y-172545400D02*
X89255200Y-172545400D01*
D11*
X85220000Y-173100000D02*
X88820000Y-173100000D01*
X85181522Y-173088478D02*
G75*
G02X87020000Y-168650000I1838478J1838478D01*
G01*
X88858478Y-173088478D02*
G75*
G03X87020000Y-168650000I-1838478J1838478D01*
G01*
D10*
X93295400Y-169005200D02*
X93295400Y-164534800D01*
D11*
X93850000Y-168570000D02*
X93850000Y-164970000D01*
X93838478Y-168608478D02*
G75*
G02X89400000Y-166770000I-1838478J1838478D01*
G01*
X93838478Y-164931522D02*
G75*
G03X89400000Y-166770000I-1838478J-1838478D01*
G01*
D10*
X79244800Y-172545400D02*
X83715200Y-172545400D01*
D11*
X79680000Y-173100000D02*
X83280000Y-173100000D01*
X79641522Y-173088478D02*
G75*
G02X81480000Y-168650000I1838478J1838478D01*
G01*
X83318478Y-173088478D02*
G75*
G03X81480000Y-168650000I-1838478J1838478D01*
G01*
D10*
X84784800Y-192545400D02*
X89255200Y-192545400D01*
D11*
X85220000Y-193100000D02*
X88820000Y-193100000D01*
X85181522Y-193088478D02*
G75*
G02X87020000Y-188650000I1838478J1838478D01*
G01*
X88858478Y-193088478D02*
G75*
G03X87020000Y-188650000I-1838478J1838478D01*
G01*
D10*
X93295400Y-188965200D02*
X93295400Y-184494800D01*
D11*
X93850000Y-188530000D02*
X93850000Y-184930000D01*
X93838478Y-188568478D02*
G75*
G02X89400000Y-186730000I-1838478J1838478D01*
G01*
X93838478Y-184891522D02*
G75*
G03X89400000Y-186730000I-1838478J-1838478D01*
G01*
D10*
X84784800Y-212545400D02*
X89255200Y-212545400D01*
D11*
X85220000Y-213100000D02*
X88820000Y-213100000D01*
X85181522Y-213088478D02*
G75*
G02X87020000Y-208650000I1838478J1838478D01*
G01*
X88858478Y-213088478D02*
G75*
G03X87020000Y-208650000I-1838478J1838478D01*
G01*
X170930000Y-231140000D02*
X174650000Y-231140000D01*
X170930000Y-232860000D02*
X174650000Y-232860000D01*
X170930000Y-233640000D02*
X174650000Y-233640000D01*
X170930000Y-235360000D02*
X174650000Y-235360000D01*
X170930000Y-236140000D02*
X174650000Y-236140000D01*
X170930000Y-237860000D02*
X174650000Y-237860000D01*
X170930000Y-238640000D02*
X174650000Y-238640000D01*
X170930000Y-240360000D02*
X174650000Y-240360000D01*
X230320000Y-210360000D02*
X226600000Y-210360000D01*
X230320000Y-208640000D02*
X226600000Y-208640000D01*
X230320000Y-212610000D02*
X226600000Y-212610000D01*
X230320000Y-210890000D02*
X226600000Y-210890000D01*
X230320000Y-190360000D02*
X226600000Y-190360000D01*
X230320000Y-188640000D02*
X226600000Y-188640000D01*
X230320000Y-192610000D02*
X226600000Y-192610000D01*
X230320000Y-190890000D02*
X226600000Y-190890000D01*
X230320000Y-130360000D02*
X226600000Y-130360000D01*
X230320000Y-128640000D02*
X226600000Y-128640000D01*
X230320000Y-132610000D02*
X226600000Y-132610000D01*
X230320000Y-130890000D02*
X226600000Y-130890000D01*
X230320000Y-110360000D02*
X226600000Y-110360000D01*
X230320000Y-108640000D02*
X226600000Y-108640000D01*
X230320000Y-112610000D02*
X226600000Y-112610000D01*
X230320000Y-110890000D02*
X226600000Y-110890000D01*
X83680000Y-86390000D02*
X87400000Y-86390000D01*
X83680000Y-88110000D02*
X87400000Y-88110000D01*
X83680000Y-84140000D02*
X87400000Y-84140000D01*
X83680000Y-85860000D02*
X87400000Y-85860000D01*
X83680000Y-106390000D02*
X87400000Y-106390000D01*
X83680000Y-108110000D02*
X87400000Y-108110000D01*
X83680000Y-104140000D02*
X87400000Y-104140000D01*
X83680000Y-105860000D02*
X87400000Y-105860000D01*
X83680000Y-166390000D02*
X87400000Y-166390000D01*
X83680000Y-168110000D02*
X87400000Y-168110000D01*
X83680000Y-164140000D02*
X87400000Y-164140000D01*
X83680000Y-165860000D02*
X87400000Y-165860000D01*
X83680000Y-186390000D02*
X87400000Y-186390000D01*
X83680000Y-188110000D02*
X87400000Y-188110000D01*
X83680000Y-184140000D02*
X87400000Y-184140000D01*
X83680000Y-185860000D02*
X87400000Y-185860000D01*
D10*
X220704600Y-168034800D02*
X220704600Y-172505200D01*
D11*
X220150000Y-168470000D02*
X220150000Y-172070000D01*
X220161522Y-168431522D02*
G75*
G02X224600000Y-170270000I1838478J-1838478D01*
G01*
X220161522Y-172108478D02*
G75*
G03X224600000Y-170270000I1838478J1838478D01*
G01*
D10*
X234715200Y-144454600D02*
X230244800Y-144454600D01*
D11*
X234280000Y-143900000D02*
X230680000Y-143900000D01*
X234318478Y-143911522D02*
G75*
G02X232480000Y-148350000I-1838478J-1838478D01*
G01*
X230641522Y-143911522D02*
G75*
G03X232480000Y-148350000I1838478J-1838478D01*
G01*
D10*
X229215200Y-144454600D02*
X224744800Y-144454600D01*
D11*
X228780000Y-143900000D02*
X225180000Y-143900000D01*
X228818478Y-143911522D02*
G75*
G02X226980000Y-148350000I-1838478J-1838478D01*
G01*
X225141522Y-143911522D02*
G75*
G03X226980000Y-148350000I1838478J-1838478D01*
G01*
D10*
X220704600Y-148034800D02*
X220704600Y-152505200D01*
D11*
X220150000Y-148470000D02*
X220150000Y-152070000D01*
X220161522Y-148431522D02*
G75*
G02X224600000Y-150270000I1838478J-1838478D01*
G01*
X220161522Y-152108478D02*
G75*
G03X224600000Y-150270000I1838478J1838478D01*
G01*
D10*
X220704600Y-88034800D02*
X220704600Y-92505200D01*
D11*
X220150000Y-88470000D02*
X220150000Y-92070000D01*
X220161522Y-88431522D02*
G75*
G02X224600000Y-90270000I1838478J-1838478D01*
G01*
X220161522Y-92108478D02*
G75*
G03X224600000Y-90270000I1838478J1838478D01*
G01*
D10*
X234715200Y-64454600D02*
X230244800Y-64454600D01*
D11*
X234280000Y-63900000D02*
X230680000Y-63900000D01*
X234318478Y-63911522D02*
G75*
G02X232480000Y-68350000I-1838478J-1838478D01*
G01*
X230641522Y-63911522D02*
G75*
G03X232480000Y-68350000I1838478J-1838478D01*
G01*
D10*
X229215200Y-64454600D02*
X224744800Y-64454600D01*
D11*
X228780000Y-63900000D02*
X225180000Y-63900000D01*
X228818478Y-63911522D02*
G75*
G02X226980000Y-68350000I-1838478J-1838478D01*
G01*
X225141522Y-63911522D02*
G75*
G03X226980000Y-68350000I1838478J-1838478D01*
G01*
D10*
X220704600Y-68034800D02*
X220704600Y-72505200D01*
D11*
X220150000Y-68470000D02*
X220150000Y-72070000D01*
X220161522Y-68431522D02*
G75*
G02X224600000Y-70270000I1838478J-1838478D01*
G01*
X220161522Y-72108478D02*
G75*
G03X224600000Y-70270000I1838478J1838478D01*
G01*
D10*
X93295400Y-128965200D02*
X93295400Y-124494800D01*
D11*
X93850000Y-128530000D02*
X93850000Y-124930000D01*
X93838478Y-128568478D02*
G75*
G02X89400000Y-126730000I-1838478J1838478D01*
G01*
X93838478Y-124891522D02*
G75*
G03X89400000Y-126730000I-1838478J-1838478D01*
G01*
D10*
X79244800Y-132545400D02*
X83715200Y-132545400D01*
D11*
X79680000Y-133100000D02*
X83280000Y-133100000D01*
X79641522Y-133088478D02*
G75*
G02X81480000Y-128650000I1838478J1838478D01*
G01*
X83318478Y-133088478D02*
G75*
G03X81480000Y-128650000I-1838478J1838478D01*
G01*
D10*
X84784800Y-152545400D02*
X89255200Y-152545400D01*
D11*
X85220000Y-153100000D02*
X88820000Y-153100000D01*
X85181522Y-153088478D02*
G75*
G02X87020000Y-148650000I1838478J1838478D01*
G01*
X88858478Y-153088478D02*
G75*
G03X87020000Y-148650000I-1838478J1838478D01*
G01*
D10*
X93295400Y-149005200D02*
X93295400Y-144534800D01*
D11*
X93850000Y-148570000D02*
X93850000Y-144970000D01*
X93838478Y-148608478D02*
G75*
G02X89400000Y-146770000I-1838478J1838478D01*
G01*
X93838478Y-144931522D02*
G75*
G03X89400000Y-146770000I-1838478J-1838478D01*
G01*
D10*
X93295400Y-208965200D02*
X93295400Y-204494800D01*
D11*
X93850000Y-208530000D02*
X93850000Y-204930000D01*
X93838478Y-208568478D02*
G75*
G02X89400000Y-206730000I-1838478J1838478D01*
G01*
X93838478Y-204891522D02*
G75*
G03X89400000Y-206730000I-1838478J-1838478D01*
G01*
D10*
X79244800Y-212545400D02*
X83715200Y-212545400D01*
D11*
X79680000Y-213100000D02*
X83280000Y-213100000D01*
X79641522Y-213088478D02*
G75*
G02X81480000Y-208650000I1838478J1838478D01*
G01*
X83318478Y-213088478D02*
G75*
G03X81480000Y-208650000I-1838478J1838478D01*
G01*
D10*
X84784800Y-232545400D02*
X89255200Y-232545400D01*
D11*
X85220000Y-233100000D02*
X88820000Y-233100000D01*
X85181522Y-233088478D02*
G75*
G02X87020000Y-228650000I1838478J1838478D01*
G01*
X88858478Y-233088478D02*
G75*
G03X87020000Y-228650000I-1838478J1838478D01*
G01*
D10*
X93295400Y-229005200D02*
X93295400Y-224534800D01*
D11*
X93850000Y-228570000D02*
X93850000Y-224970000D01*
X93838478Y-228608478D02*
G75*
G02X89400000Y-226770000I-1838478J1838478D01*
G01*
X93838478Y-224931522D02*
G75*
G03X89400000Y-226770000I-1838478J-1838478D01*
G01*
X230320000Y-170360000D02*
X226600000Y-170360000D01*
X230320000Y-168640000D02*
X226600000Y-168640000D01*
X230320000Y-172610000D02*
X226600000Y-172610000D01*
X230320000Y-170890000D02*
X226600000Y-170890000D01*
X230320000Y-150360000D02*
X226600000Y-150360000D01*
X230320000Y-148640000D02*
X226600000Y-148640000D01*
X230320000Y-152610000D02*
X226600000Y-152610000D01*
X230320000Y-150890000D02*
X226600000Y-150890000D01*
X230320000Y-90360000D02*
X226600000Y-90360000D01*
X230320000Y-88640000D02*
X226600000Y-88640000D01*
X230320000Y-92610000D02*
X226600000Y-92610000D01*
X230320000Y-90890000D02*
X226600000Y-90890000D01*
X230320000Y-70360000D02*
X226600000Y-70360000D01*
X230320000Y-68640000D02*
X226600000Y-68640000D01*
X230320000Y-72610000D02*
X226600000Y-72610000D01*
X230320000Y-70890000D02*
X226600000Y-70890000D01*
X83680000Y-126390000D02*
X87400000Y-126390000D01*
X83680000Y-128110000D02*
X87400000Y-128110000D01*
X83680000Y-124140000D02*
X87400000Y-124140000D01*
X83680000Y-125860000D02*
X87400000Y-125860000D01*
X83680000Y-146390000D02*
X87400000Y-146390000D01*
X83680000Y-148110000D02*
X87400000Y-148110000D01*
X83680000Y-144140000D02*
X87400000Y-144140000D01*
X83680000Y-145860000D02*
X87400000Y-145860000D01*
X83680000Y-206390000D02*
X87400000Y-206390000D01*
X83680000Y-208110000D02*
X87400000Y-208110000D01*
X83680000Y-204140000D02*
X87400000Y-204140000D01*
X83680000Y-205860000D02*
X87400000Y-205860000D01*
X83680000Y-226390000D02*
X87400000Y-226390000D01*
X83680000Y-228110000D02*
X87400000Y-228110000D01*
X83680000Y-224140000D02*
X87400000Y-224140000D01*
X83680000Y-225860000D02*
X87400000Y-225860000D01*
D10*
X148010000Y-237972000D02*
X149407000Y-236575000D01*
X149407000Y-236575000D02*
X146613000Y-236575000D01*
X148010000Y-237972000D02*
X146613000Y-236575000D01*
D11*
X167120000Y-241080000D02*
X167120000Y-238420000D01*
X149280000Y-241080000D02*
X167120000Y-241080000D01*
X149280000Y-238420000D02*
X167120000Y-238420000D01*
X149280000Y-241080000D02*
X149280000Y-238420000D01*
X148010000Y-241080000D02*
X146680000Y-241080000D01*
X146680000Y-241080000D02*
X146680000Y-239750000D01*
D10*
X132782381Y-234285714D02*
X133496667Y-234285714D01*
X133639524Y-234333334D01*
X133734762Y-234428572D01*
X133782381Y-234571429D01*
X133782381Y-234666667D01*
X133782381Y-233285714D02*
X133782381Y-233857143D01*
X133782381Y-233571429D02*
X132782381Y-233571429D01*
X132925238Y-233666667D01*
X133020476Y-233761905D01*
X133068095Y-233857143D01*
X132782381Y-232666667D02*
X132782381Y-232571428D01*
X132830000Y-232476190D01*
X132877619Y-232428571D01*
X132972857Y-232380952D01*
X133163333Y-232333333D01*
X133401429Y-232333333D01*
X133591905Y-232380952D01*
X133687143Y-232428571D01*
X133734762Y-232476190D01*
X133782381Y-232571428D01*
X133782381Y-232666667D01*
X133734762Y-232761905D01*
X133687143Y-232809524D01*
X133591905Y-232857143D01*
X133401429Y-232904762D01*
X133163333Y-232904762D01*
X132972857Y-232857143D01*
X132877619Y-232809524D01*
X132830000Y-232761905D01*
X132782381Y-232666667D01*
X133782381Y-231380952D02*
X133782381Y-231952381D01*
X133782381Y-231666667D02*
X132782381Y-231666667D01*
X132925238Y-231761905D01*
X133020476Y-231857143D01*
X133068095Y-231952381D01*
X180122381Y-234285714D02*
X180836667Y-234285714D01*
X180979524Y-234333334D01*
X181074762Y-234428572D01*
X181122381Y-234571429D01*
X181122381Y-234666667D01*
X181122381Y-233285714D02*
X181122381Y-233857143D01*
X181122381Y-233571429D02*
X180122381Y-233571429D01*
X180265238Y-233666667D01*
X180360476Y-233761905D01*
X180408095Y-233857143D01*
X180122381Y-232666667D02*
X180122381Y-232571428D01*
X180170000Y-232476190D01*
X180217619Y-232428571D01*
X180312857Y-232380952D01*
X180503333Y-232333333D01*
X180741429Y-232333333D01*
X180931905Y-232380952D01*
X181027143Y-232428571D01*
X181074762Y-232476190D01*
X181122381Y-232571428D01*
X181122381Y-232666667D01*
X181074762Y-232761905D01*
X181027143Y-232809524D01*
X180931905Y-232857143D01*
X180741429Y-232904762D01*
X180503333Y-232904762D01*
X180312857Y-232857143D01*
X180217619Y-232809524D01*
X180170000Y-232761905D01*
X180122381Y-232666667D01*
X180217619Y-231952381D02*
X180170000Y-231904762D01*
X180122381Y-231809524D01*
X180122381Y-231571428D01*
X180170000Y-231476190D01*
X180217619Y-231428571D01*
X180312857Y-231380952D01*
X180408095Y-231380952D01*
X180550952Y-231428571D01*
X181122381Y-232000000D01*
X181122381Y-231380952D01*
X110372381Y-241035714D02*
X111086667Y-241035714D01*
X111229524Y-241083334D01*
X111324762Y-241178572D01*
X111372381Y-241321429D01*
X111372381Y-241416667D01*
X111372381Y-240035714D02*
X111372381Y-240607143D01*
X111372381Y-240321429D02*
X110372381Y-240321429D01*
X110515238Y-240416667D01*
X110610476Y-240511905D01*
X110658095Y-240607143D01*
X110372381Y-239416667D02*
X110372381Y-239321428D01*
X110420000Y-239226190D01*
X110467619Y-239178571D01*
X110562857Y-239130952D01*
X110753333Y-239083333D01*
X110991429Y-239083333D01*
X111181905Y-239130952D01*
X111277143Y-239178571D01*
X111324762Y-239226190D01*
X111372381Y-239321428D01*
X111372381Y-239416667D01*
X111324762Y-239511905D01*
X111277143Y-239559524D01*
X111181905Y-239607143D01*
X110991429Y-239654762D01*
X110753333Y-239654762D01*
X110562857Y-239607143D01*
X110467619Y-239559524D01*
X110420000Y-239511905D01*
X110372381Y-239416667D01*
X110372381Y-238750000D02*
X110372381Y-238130952D01*
X110753333Y-238464286D01*
X110753333Y-238321428D01*
X110800952Y-238226190D01*
X110848571Y-238178571D01*
X110943810Y-238130952D01*
X111181905Y-238130952D01*
X111277143Y-238178571D01*
X111324762Y-238226190D01*
X111372381Y-238321428D01*
X111372381Y-238607143D01*
X111324762Y-238702381D01*
X111277143Y-238750000D01*
X145122381Y-234285714D02*
X145836667Y-234285714D01*
X145979524Y-234333334D01*
X146074762Y-234428572D01*
X146122381Y-234571429D01*
X146122381Y-234666667D01*
X146122381Y-233285714D02*
X146122381Y-233857143D01*
X146122381Y-233571429D02*
X145122381Y-233571429D01*
X145265238Y-233666667D01*
X145360476Y-233761905D01*
X145408095Y-233857143D01*
X145122381Y-232666667D02*
X145122381Y-232571428D01*
X145170000Y-232476190D01*
X145217619Y-232428571D01*
X145312857Y-232380952D01*
X145503333Y-232333333D01*
X145741429Y-232333333D01*
X145931905Y-232380952D01*
X146027143Y-232428571D01*
X146074762Y-232476190D01*
X146122381Y-232571428D01*
X146122381Y-232666667D01*
X146074762Y-232761905D01*
X146027143Y-232809524D01*
X145931905Y-232857143D01*
X145741429Y-232904762D01*
X145503333Y-232904762D01*
X145312857Y-232857143D01*
X145217619Y-232809524D01*
X145170000Y-232761905D01*
X145122381Y-232666667D01*
X145455714Y-231476190D02*
X146122381Y-231476190D01*
X145074762Y-231714286D02*
X145789048Y-231952381D01*
X145789048Y-231333333D01*
X195714286Y-223452381D02*
X195714286Y-224166667D01*
X195666666Y-224309524D01*
X195571428Y-224404762D01*
X195428571Y-224452381D01*
X195333333Y-224452381D01*
X196142857Y-223547619D02*
X196190476Y-223500000D01*
X196285714Y-223452381D01*
X196523810Y-223452381D01*
X196619048Y-223500000D01*
X196666667Y-223547619D01*
X196714286Y-223642857D01*
X196714286Y-223738095D01*
X196666667Y-223880952D01*
X196095238Y-224452381D01*
X196714286Y-224452381D01*
X197333333Y-223452381D02*
X197428572Y-223452381D01*
X197523810Y-223500000D01*
X197571429Y-223547619D01*
X197619048Y-223642857D01*
X197666667Y-223833333D01*
X197666667Y-224071429D01*
X197619048Y-224261905D01*
X197571429Y-224357143D01*
X197523810Y-224404762D01*
X197428572Y-224452381D01*
X197333333Y-224452381D01*
X197238095Y-224404762D01*
X197190476Y-224357143D01*
X197142857Y-224261905D01*
X197095238Y-224071429D01*
X197095238Y-223833333D01*
X197142857Y-223642857D01*
X197190476Y-223547619D01*
X197238095Y-223500000D01*
X197333333Y-223452381D01*
X198619048Y-224452381D02*
X198047619Y-224452381D01*
X198333333Y-224452381D02*
X198333333Y-223452381D01*
X198238095Y-223595238D01*
X198142857Y-223690476D01*
X198047619Y-223738095D01*
X195714286Y-203452381D02*
X195714286Y-204166667D01*
X195666666Y-204309524D01*
X195571428Y-204404762D01*
X195428571Y-204452381D01*
X195333333Y-204452381D01*
X196142857Y-203547619D02*
X196190476Y-203500000D01*
X196285714Y-203452381D01*
X196523810Y-203452381D01*
X196619048Y-203500000D01*
X196666667Y-203547619D01*
X196714286Y-203642857D01*
X196714286Y-203738095D01*
X196666667Y-203880952D01*
X196095238Y-204452381D01*
X196714286Y-204452381D01*
X197333333Y-203452381D02*
X197428572Y-203452381D01*
X197523810Y-203500000D01*
X197571429Y-203547619D01*
X197619048Y-203642857D01*
X197666667Y-203833333D01*
X197666667Y-204071429D01*
X197619048Y-204261905D01*
X197571429Y-204357143D01*
X197523810Y-204404762D01*
X197428572Y-204452381D01*
X197333333Y-204452381D01*
X197238095Y-204404762D01*
X197190476Y-204357143D01*
X197142857Y-204261905D01*
X197095238Y-204071429D01*
X197095238Y-203833333D01*
X197142857Y-203642857D01*
X197190476Y-203547619D01*
X197238095Y-203500000D01*
X197333333Y-203452381D01*
X198047619Y-203547619D02*
X198095238Y-203500000D01*
X198190476Y-203452381D01*
X198428572Y-203452381D01*
X198523810Y-203500000D01*
X198571429Y-203547619D01*
X198619048Y-203642857D01*
X198619048Y-203738095D01*
X198571429Y-203880952D01*
X198000000Y-204452381D01*
X198619048Y-204452381D01*
X195714286Y-183452381D02*
X195714286Y-184166667D01*
X195666666Y-184309524D01*
X195571428Y-184404762D01*
X195428571Y-184452381D01*
X195333333Y-184452381D01*
X196142857Y-183547619D02*
X196190476Y-183500000D01*
X196285714Y-183452381D01*
X196523810Y-183452381D01*
X196619048Y-183500000D01*
X196666667Y-183547619D01*
X196714286Y-183642857D01*
X196714286Y-183738095D01*
X196666667Y-183880952D01*
X196095238Y-184452381D01*
X196714286Y-184452381D01*
X197333333Y-183452381D02*
X197428572Y-183452381D01*
X197523810Y-183500000D01*
X197571429Y-183547619D01*
X197619048Y-183642857D01*
X197666667Y-183833333D01*
X197666667Y-184071429D01*
X197619048Y-184261905D01*
X197571429Y-184357143D01*
X197523810Y-184404762D01*
X197428572Y-184452381D01*
X197333333Y-184452381D01*
X197238095Y-184404762D01*
X197190476Y-184357143D01*
X197142857Y-184261905D01*
X197095238Y-184071429D01*
X197095238Y-183833333D01*
X197142857Y-183642857D01*
X197190476Y-183547619D01*
X197238095Y-183500000D01*
X197333333Y-183452381D01*
X198000000Y-183452381D02*
X198619048Y-183452381D01*
X198285714Y-183833333D01*
X198428572Y-183833333D01*
X198523810Y-183880952D01*
X198571429Y-183928571D01*
X198619048Y-184023810D01*
X198619048Y-184261905D01*
X198571429Y-184357143D01*
X198523810Y-184404762D01*
X198428572Y-184452381D01*
X198142857Y-184452381D01*
X198047619Y-184404762D01*
X198000000Y-184357143D01*
X195714286Y-163452381D02*
X195714286Y-164166667D01*
X195666666Y-164309524D01*
X195571428Y-164404762D01*
X195428571Y-164452381D01*
X195333333Y-164452381D01*
X196142857Y-163547619D02*
X196190476Y-163500000D01*
X196285714Y-163452381D01*
X196523810Y-163452381D01*
X196619048Y-163500000D01*
X196666667Y-163547619D01*
X196714286Y-163642857D01*
X196714286Y-163738095D01*
X196666667Y-163880952D01*
X196095238Y-164452381D01*
X196714286Y-164452381D01*
X197333333Y-163452381D02*
X197428572Y-163452381D01*
X197523810Y-163500000D01*
X197571429Y-163547619D01*
X197619048Y-163642857D01*
X197666667Y-163833333D01*
X197666667Y-164071429D01*
X197619048Y-164261905D01*
X197571429Y-164357143D01*
X197523810Y-164404762D01*
X197428572Y-164452381D01*
X197333333Y-164452381D01*
X197238095Y-164404762D01*
X197190476Y-164357143D01*
X197142857Y-164261905D01*
X197095238Y-164071429D01*
X197095238Y-163833333D01*
X197142857Y-163642857D01*
X197190476Y-163547619D01*
X197238095Y-163500000D01*
X197333333Y-163452381D01*
X198523810Y-163785714D02*
X198523810Y-164452381D01*
X198285714Y-163404762D02*
X198047619Y-164119048D01*
X198666667Y-164119048D01*
X195714286Y-143452381D02*
X195714286Y-144166667D01*
X195666666Y-144309524D01*
X195571428Y-144404762D01*
X195428571Y-144452381D01*
X195333333Y-144452381D01*
X196095238Y-143452381D02*
X196714286Y-143452381D01*
X196380952Y-143833333D01*
X196523810Y-143833333D01*
X196619048Y-143880952D01*
X196666667Y-143928571D01*
X196714286Y-144023810D01*
X196714286Y-144261905D01*
X196666667Y-144357143D01*
X196619048Y-144404762D01*
X196523810Y-144452381D01*
X196238095Y-144452381D01*
X196142857Y-144404762D01*
X196095238Y-144357143D01*
X197333333Y-143452381D02*
X197428572Y-143452381D01*
X197523810Y-143500000D01*
X197571429Y-143547619D01*
X197619048Y-143642857D01*
X197666667Y-143833333D01*
X197666667Y-144071429D01*
X197619048Y-144261905D01*
X197571429Y-144357143D01*
X197523810Y-144404762D01*
X197428572Y-144452381D01*
X197333333Y-144452381D01*
X197238095Y-144404762D01*
X197190476Y-144357143D01*
X197142857Y-144261905D01*
X197095238Y-144071429D01*
X197095238Y-143833333D01*
X197142857Y-143642857D01*
X197190476Y-143547619D01*
X197238095Y-143500000D01*
X197333333Y-143452381D01*
X198619048Y-144452381D02*
X198047619Y-144452381D01*
X198333333Y-144452381D02*
X198333333Y-143452381D01*
X198238095Y-143595238D01*
X198142857Y-143690476D01*
X198047619Y-143738095D01*
X195714286Y-123452381D02*
X195714286Y-124166667D01*
X195666666Y-124309524D01*
X195571428Y-124404762D01*
X195428571Y-124452381D01*
X195333333Y-124452381D01*
X196095238Y-123452381D02*
X196714286Y-123452381D01*
X196380952Y-123833333D01*
X196523810Y-123833333D01*
X196619048Y-123880952D01*
X196666667Y-123928571D01*
X196714286Y-124023810D01*
X196714286Y-124261905D01*
X196666667Y-124357143D01*
X196619048Y-124404762D01*
X196523810Y-124452381D01*
X196238095Y-124452381D01*
X196142857Y-124404762D01*
X196095238Y-124357143D01*
X197333333Y-123452381D02*
X197428572Y-123452381D01*
X197523810Y-123500000D01*
X197571429Y-123547619D01*
X197619048Y-123642857D01*
X197666667Y-123833333D01*
X197666667Y-124071429D01*
X197619048Y-124261905D01*
X197571429Y-124357143D01*
X197523810Y-124404762D01*
X197428572Y-124452381D01*
X197333333Y-124452381D01*
X197238095Y-124404762D01*
X197190476Y-124357143D01*
X197142857Y-124261905D01*
X197095238Y-124071429D01*
X197095238Y-123833333D01*
X197142857Y-123642857D01*
X197190476Y-123547619D01*
X197238095Y-123500000D01*
X197333333Y-123452381D01*
X198047619Y-123547619D02*
X198095238Y-123500000D01*
X198190476Y-123452381D01*
X198428572Y-123452381D01*
X198523810Y-123500000D01*
X198571429Y-123547619D01*
X198619048Y-123642857D01*
X198619048Y-123738095D01*
X198571429Y-123880952D01*
X198000000Y-124452381D01*
X198619048Y-124452381D01*
X195714286Y-103452381D02*
X195714286Y-104166667D01*
X195666666Y-104309524D01*
X195571428Y-104404762D01*
X195428571Y-104452381D01*
X195333333Y-104452381D01*
X196095238Y-103452381D02*
X196714286Y-103452381D01*
X196380952Y-103833333D01*
X196523810Y-103833333D01*
X196619048Y-103880952D01*
X196666667Y-103928571D01*
X196714286Y-104023810D01*
X196714286Y-104261905D01*
X196666667Y-104357143D01*
X196619048Y-104404762D01*
X196523810Y-104452381D01*
X196238095Y-104452381D01*
X196142857Y-104404762D01*
X196095238Y-104357143D01*
X197333333Y-103452381D02*
X197428572Y-103452381D01*
X197523810Y-103500000D01*
X197571429Y-103547619D01*
X197619048Y-103642857D01*
X197666667Y-103833333D01*
X197666667Y-104071429D01*
X197619048Y-104261905D01*
X197571429Y-104357143D01*
X197523810Y-104404762D01*
X197428572Y-104452381D01*
X197333333Y-104452381D01*
X197238095Y-104404762D01*
X197190476Y-104357143D01*
X197142857Y-104261905D01*
X197095238Y-104071429D01*
X197095238Y-103833333D01*
X197142857Y-103642857D01*
X197190476Y-103547619D01*
X197238095Y-103500000D01*
X197333333Y-103452381D01*
X198000000Y-103452381D02*
X198619048Y-103452381D01*
X198285714Y-103833333D01*
X198428572Y-103833333D01*
X198523810Y-103880952D01*
X198571429Y-103928571D01*
X198619048Y-104023810D01*
X198619048Y-104261905D01*
X198571429Y-104357143D01*
X198523810Y-104404762D01*
X198428572Y-104452381D01*
X198142857Y-104452381D01*
X198047619Y-104404762D01*
X198000000Y-104357143D01*
X195714286Y-83452381D02*
X195714286Y-84166667D01*
X195666666Y-84309524D01*
X195571428Y-84404762D01*
X195428571Y-84452381D01*
X195333333Y-84452381D01*
X196095238Y-83452381D02*
X196714286Y-83452381D01*
X196380952Y-83833333D01*
X196523810Y-83833333D01*
X196619048Y-83880952D01*
X196666667Y-83928571D01*
X196714286Y-84023810D01*
X196714286Y-84261905D01*
X196666667Y-84357143D01*
X196619048Y-84404762D01*
X196523810Y-84452381D01*
X196238095Y-84452381D01*
X196142857Y-84404762D01*
X196095238Y-84357143D01*
X197333333Y-83452381D02*
X197428572Y-83452381D01*
X197523810Y-83500000D01*
X197571429Y-83547619D01*
X197619048Y-83642857D01*
X197666667Y-83833333D01*
X197666667Y-84071429D01*
X197619048Y-84261905D01*
X197571429Y-84357143D01*
X197523810Y-84404762D01*
X197428572Y-84452381D01*
X197333333Y-84452381D01*
X197238095Y-84404762D01*
X197190476Y-84357143D01*
X197142857Y-84261905D01*
X197095238Y-84071429D01*
X197095238Y-83833333D01*
X197142857Y-83642857D01*
X197190476Y-83547619D01*
X197238095Y-83500000D01*
X197333333Y-83452381D01*
X198523810Y-83785714D02*
X198523810Y-84452381D01*
X198285714Y-83404762D02*
X198047619Y-84119048D01*
X198666667Y-84119048D01*
X115714286Y-72452381D02*
X115714286Y-73166667D01*
X115666666Y-73309524D01*
X115571428Y-73404762D01*
X115428571Y-73452381D01*
X115333333Y-73452381D01*
X116619048Y-72785714D02*
X116619048Y-73452381D01*
X116380952Y-72404762D02*
X116142857Y-73119048D01*
X116761905Y-73119048D01*
X117333333Y-72452381D02*
X117428572Y-72452381D01*
X117523810Y-72500000D01*
X117571429Y-72547619D01*
X117619048Y-72642857D01*
X117666667Y-72833333D01*
X117666667Y-73071429D01*
X117619048Y-73261905D01*
X117571429Y-73357143D01*
X117523810Y-73404762D01*
X117428572Y-73452381D01*
X117333333Y-73452381D01*
X117238095Y-73404762D01*
X117190476Y-73357143D01*
X117142857Y-73261905D01*
X117095238Y-73071429D01*
X117095238Y-72833333D01*
X117142857Y-72642857D01*
X117190476Y-72547619D01*
X117238095Y-72500000D01*
X117333333Y-72452381D01*
X118619048Y-73452381D02*
X118047619Y-73452381D01*
X118333333Y-73452381D02*
X118333333Y-72452381D01*
X118238095Y-72595238D01*
X118142857Y-72690476D01*
X118047619Y-72738095D01*
X115714286Y-92452381D02*
X115714286Y-93166667D01*
X115666666Y-93309524D01*
X115571428Y-93404762D01*
X115428571Y-93452381D01*
X115333333Y-93452381D01*
X116619048Y-92785714D02*
X116619048Y-93452381D01*
X116380952Y-92404762D02*
X116142857Y-93119048D01*
X116761905Y-93119048D01*
X117333333Y-92452381D02*
X117428572Y-92452381D01*
X117523810Y-92500000D01*
X117571429Y-92547619D01*
X117619048Y-92642857D01*
X117666667Y-92833333D01*
X117666667Y-93071429D01*
X117619048Y-93261905D01*
X117571429Y-93357143D01*
X117523810Y-93404762D01*
X117428572Y-93452381D01*
X117333333Y-93452381D01*
X117238095Y-93404762D01*
X117190476Y-93357143D01*
X117142857Y-93261905D01*
X117095238Y-93071429D01*
X117095238Y-92833333D01*
X117142857Y-92642857D01*
X117190476Y-92547619D01*
X117238095Y-92500000D01*
X117333333Y-92452381D01*
X118047619Y-92547619D02*
X118095238Y-92500000D01*
X118190476Y-92452381D01*
X118428572Y-92452381D01*
X118523810Y-92500000D01*
X118571429Y-92547619D01*
X118619048Y-92642857D01*
X118619048Y-92738095D01*
X118571429Y-92880952D01*
X118000000Y-93452381D01*
X118619048Y-93452381D01*
X115714286Y-112452381D02*
X115714286Y-113166667D01*
X115666666Y-113309524D01*
X115571428Y-113404762D01*
X115428571Y-113452381D01*
X115333333Y-113452381D01*
X116619048Y-112785714D02*
X116619048Y-113452381D01*
X116380952Y-112404762D02*
X116142857Y-113119048D01*
X116761905Y-113119048D01*
X117333333Y-112452381D02*
X117428572Y-112452381D01*
X117523810Y-112500000D01*
X117571429Y-112547619D01*
X117619048Y-112642857D01*
X117666667Y-112833333D01*
X117666667Y-113071429D01*
X117619048Y-113261905D01*
X117571429Y-113357143D01*
X117523810Y-113404762D01*
X117428572Y-113452381D01*
X117333333Y-113452381D01*
X117238095Y-113404762D01*
X117190476Y-113357143D01*
X117142857Y-113261905D01*
X117095238Y-113071429D01*
X117095238Y-112833333D01*
X117142857Y-112642857D01*
X117190476Y-112547619D01*
X117238095Y-112500000D01*
X117333333Y-112452381D01*
X118000000Y-112452381D02*
X118619048Y-112452381D01*
X118285714Y-112833333D01*
X118428572Y-112833333D01*
X118523810Y-112880952D01*
X118571429Y-112928571D01*
X118619048Y-113023810D01*
X118619048Y-113261905D01*
X118571429Y-113357143D01*
X118523810Y-113404762D01*
X118428572Y-113452381D01*
X118142857Y-113452381D01*
X118047619Y-113404762D01*
X118000000Y-113357143D01*
X115714286Y-132452381D02*
X115714286Y-133166667D01*
X115666666Y-133309524D01*
X115571428Y-133404762D01*
X115428571Y-133452381D01*
X115333333Y-133452381D01*
X116619048Y-132785714D02*
X116619048Y-133452381D01*
X116380952Y-132404762D02*
X116142857Y-133119048D01*
X116761905Y-133119048D01*
X117333333Y-132452381D02*
X117428572Y-132452381D01*
X117523810Y-132500000D01*
X117571429Y-132547619D01*
X117619048Y-132642857D01*
X117666667Y-132833333D01*
X117666667Y-133071429D01*
X117619048Y-133261905D01*
X117571429Y-133357143D01*
X117523810Y-133404762D01*
X117428572Y-133452381D01*
X117333333Y-133452381D01*
X117238095Y-133404762D01*
X117190476Y-133357143D01*
X117142857Y-133261905D01*
X117095238Y-133071429D01*
X117095238Y-132833333D01*
X117142857Y-132642857D01*
X117190476Y-132547619D01*
X117238095Y-132500000D01*
X117333333Y-132452381D01*
X118523810Y-132785714D02*
X118523810Y-133452381D01*
X118285714Y-132404762D02*
X118047619Y-133119048D01*
X118666667Y-133119048D01*
X115714286Y-152452381D02*
X115714286Y-153166667D01*
X115666666Y-153309524D01*
X115571428Y-153404762D01*
X115428571Y-153452381D01*
X115333333Y-153452381D01*
X116666667Y-152452381D02*
X116190476Y-152452381D01*
X116142857Y-152928571D01*
X116190476Y-152880952D01*
X116285714Y-152833333D01*
X116523810Y-152833333D01*
X116619048Y-152880952D01*
X116666667Y-152928571D01*
X116714286Y-153023810D01*
X116714286Y-153261905D01*
X116666667Y-153357143D01*
X116619048Y-153404762D01*
X116523810Y-153452381D01*
X116285714Y-153452381D01*
X116190476Y-153404762D01*
X116142857Y-153357143D01*
X117333333Y-152452381D02*
X117428572Y-152452381D01*
X117523810Y-152500000D01*
X117571429Y-152547619D01*
X117619048Y-152642857D01*
X117666667Y-152833333D01*
X117666667Y-153071429D01*
X117619048Y-153261905D01*
X117571429Y-153357143D01*
X117523810Y-153404762D01*
X117428572Y-153452381D01*
X117333333Y-153452381D01*
X117238095Y-153404762D01*
X117190476Y-153357143D01*
X117142857Y-153261905D01*
X117095238Y-153071429D01*
X117095238Y-152833333D01*
X117142857Y-152642857D01*
X117190476Y-152547619D01*
X117238095Y-152500000D01*
X117333333Y-152452381D01*
X118619048Y-153452381D02*
X118047619Y-153452381D01*
X118333333Y-153452381D02*
X118333333Y-152452381D01*
X118238095Y-152595238D01*
X118142857Y-152690476D01*
X118047619Y-152738095D01*
X115714286Y-172452381D02*
X115714286Y-173166667D01*
X115666666Y-173309524D01*
X115571428Y-173404762D01*
X115428571Y-173452381D01*
X115333333Y-173452381D01*
X116666667Y-172452381D02*
X116190476Y-172452381D01*
X116142857Y-172928571D01*
X116190476Y-172880952D01*
X116285714Y-172833333D01*
X116523810Y-172833333D01*
X116619048Y-172880952D01*
X116666667Y-172928571D01*
X116714286Y-173023810D01*
X116714286Y-173261905D01*
X116666667Y-173357143D01*
X116619048Y-173404762D01*
X116523810Y-173452381D01*
X116285714Y-173452381D01*
X116190476Y-173404762D01*
X116142857Y-173357143D01*
X117333333Y-172452381D02*
X117428572Y-172452381D01*
X117523810Y-172500000D01*
X117571429Y-172547619D01*
X117619048Y-172642857D01*
X117666667Y-172833333D01*
X117666667Y-173071429D01*
X117619048Y-173261905D01*
X117571429Y-173357143D01*
X117523810Y-173404762D01*
X117428572Y-173452381D01*
X117333333Y-173452381D01*
X117238095Y-173404762D01*
X117190476Y-173357143D01*
X117142857Y-173261905D01*
X117095238Y-173071429D01*
X117095238Y-172833333D01*
X117142857Y-172642857D01*
X117190476Y-172547619D01*
X117238095Y-172500000D01*
X117333333Y-172452381D01*
X118047619Y-172547619D02*
X118095238Y-172500000D01*
X118190476Y-172452381D01*
X118428572Y-172452381D01*
X118523810Y-172500000D01*
X118571429Y-172547619D01*
X118619048Y-172642857D01*
X118619048Y-172738095D01*
X118571429Y-172880952D01*
X118000000Y-173452381D01*
X118619048Y-173452381D01*
X115714286Y-192452381D02*
X115714286Y-193166667D01*
X115666666Y-193309524D01*
X115571428Y-193404762D01*
X115428571Y-193452381D01*
X115333333Y-193452381D01*
X116666667Y-192452381D02*
X116190476Y-192452381D01*
X116142857Y-192928571D01*
X116190476Y-192880952D01*
X116285714Y-192833333D01*
X116523810Y-192833333D01*
X116619048Y-192880952D01*
X116666667Y-192928571D01*
X116714286Y-193023810D01*
X116714286Y-193261905D01*
X116666667Y-193357143D01*
X116619048Y-193404762D01*
X116523810Y-193452381D01*
X116285714Y-193452381D01*
X116190476Y-193404762D01*
X116142857Y-193357143D01*
X117333333Y-192452381D02*
X117428572Y-192452381D01*
X117523810Y-192500000D01*
X117571429Y-192547619D01*
X117619048Y-192642857D01*
X117666667Y-192833333D01*
X117666667Y-193071429D01*
X117619048Y-193261905D01*
X117571429Y-193357143D01*
X117523810Y-193404762D01*
X117428572Y-193452381D01*
X117333333Y-193452381D01*
X117238095Y-193404762D01*
X117190476Y-193357143D01*
X117142857Y-193261905D01*
X117095238Y-193071429D01*
X117095238Y-192833333D01*
X117142857Y-192642857D01*
X117190476Y-192547619D01*
X117238095Y-192500000D01*
X117333333Y-192452381D01*
X118000000Y-192452381D02*
X118619048Y-192452381D01*
X118285714Y-192833333D01*
X118428572Y-192833333D01*
X118523810Y-192880952D01*
X118571429Y-192928571D01*
X118619048Y-193023810D01*
X118619048Y-193261905D01*
X118571429Y-193357143D01*
X118523810Y-193404762D01*
X118428572Y-193452381D01*
X118142857Y-193452381D01*
X118047619Y-193404762D01*
X118000000Y-193357143D01*
X115714286Y-212452381D02*
X115714286Y-213166667D01*
X115666666Y-213309524D01*
X115571428Y-213404762D01*
X115428571Y-213452381D01*
X115333333Y-213452381D01*
X116666667Y-212452381D02*
X116190476Y-212452381D01*
X116142857Y-212928571D01*
X116190476Y-212880952D01*
X116285714Y-212833333D01*
X116523810Y-212833333D01*
X116619048Y-212880952D01*
X116666667Y-212928571D01*
X116714286Y-213023810D01*
X116714286Y-213261905D01*
X116666667Y-213357143D01*
X116619048Y-213404762D01*
X116523810Y-213452381D01*
X116285714Y-213452381D01*
X116190476Y-213404762D01*
X116142857Y-213357143D01*
X117333333Y-212452381D02*
X117428572Y-212452381D01*
X117523810Y-212500000D01*
X117571429Y-212547619D01*
X117619048Y-212642857D01*
X117666667Y-212833333D01*
X117666667Y-213071429D01*
X117619048Y-213261905D01*
X117571429Y-213357143D01*
X117523810Y-213404762D01*
X117428572Y-213452381D01*
X117333333Y-213452381D01*
X117238095Y-213404762D01*
X117190476Y-213357143D01*
X117142857Y-213261905D01*
X117095238Y-213071429D01*
X117095238Y-212833333D01*
X117142857Y-212642857D01*
X117190476Y-212547619D01*
X117238095Y-212500000D01*
X117333333Y-212452381D01*
X118523810Y-212785714D02*
X118523810Y-213452381D01*
X118285714Y-212404762D02*
X118047619Y-213119048D01*
X118666667Y-213119048D01*
X184131119Y-240817619D02*
X184083500Y-240912857D01*
X183988262Y-241008095D01*
X183845405Y-241150952D01*
X183797786Y-241246191D01*
X183797786Y-241341429D01*
X184035881Y-241293810D02*
X183988262Y-241389048D01*
X183893024Y-241484286D01*
X183702548Y-241531905D01*
X183369214Y-241531905D01*
X183178738Y-241484286D01*
X183083500Y-241389048D01*
X183035881Y-241293810D01*
X183035881Y-241103333D01*
X183083500Y-241008095D01*
X183178738Y-240912857D01*
X183369214Y-240865238D01*
X183702548Y-240865238D01*
X183893024Y-240912857D01*
X183988262Y-241008095D01*
X184035881Y-241103333D01*
X184035881Y-241293810D01*
X184035881Y-239912857D02*
X184035881Y-240484286D01*
X184035881Y-240198572D02*
X183035881Y-240198572D01*
X183178738Y-240293810D01*
X183273976Y-240389048D01*
X183321595Y-240484286D01*
X183035881Y-239293810D02*
X183035881Y-239198571D01*
X183083500Y-239103333D01*
X183131119Y-239055714D01*
X183226357Y-239008095D01*
X183416833Y-238960476D01*
X183654929Y-238960476D01*
X183845405Y-239008095D01*
X183940643Y-239055714D01*
X183988262Y-239103333D01*
X184035881Y-239198571D01*
X184035881Y-239293810D01*
X183988262Y-239389048D01*
X183940643Y-239436667D01*
X183845405Y-239484286D01*
X183654929Y-239531905D01*
X183416833Y-239531905D01*
X183226357Y-239484286D01*
X183131119Y-239436667D01*
X183083500Y-239389048D01*
X183035881Y-239293810D01*
X184035881Y-238008095D02*
X184035881Y-238579524D01*
X184035881Y-238293810D02*
X183035881Y-238293810D01*
X183178738Y-238389048D01*
X183273976Y-238484286D01*
X183321595Y-238579524D01*
X188881119Y-240817619D02*
X188833500Y-240912857D01*
X188738262Y-241008095D01*
X188595405Y-241150952D01*
X188547786Y-241246191D01*
X188547786Y-241341429D01*
X188785881Y-241293810D02*
X188738262Y-241389048D01*
X188643024Y-241484286D01*
X188452548Y-241531905D01*
X188119214Y-241531905D01*
X187928738Y-241484286D01*
X187833500Y-241389048D01*
X187785881Y-241293810D01*
X187785881Y-241103333D01*
X187833500Y-241008095D01*
X187928738Y-240912857D01*
X188119214Y-240865238D01*
X188452548Y-240865238D01*
X188643024Y-240912857D01*
X188738262Y-241008095D01*
X188785881Y-241103333D01*
X188785881Y-241293810D01*
X188785881Y-239912857D02*
X188785881Y-240484286D01*
X188785881Y-240198572D02*
X187785881Y-240198572D01*
X187928738Y-240293810D01*
X188023976Y-240389048D01*
X188071595Y-240484286D01*
X187785881Y-239293810D02*
X187785881Y-239198571D01*
X187833500Y-239103333D01*
X187881119Y-239055714D01*
X187976357Y-239008095D01*
X188166833Y-238960476D01*
X188404929Y-238960476D01*
X188595405Y-239008095D01*
X188690643Y-239055714D01*
X188738262Y-239103333D01*
X188785881Y-239198571D01*
X188785881Y-239293810D01*
X188738262Y-239389048D01*
X188690643Y-239436667D01*
X188595405Y-239484286D01*
X188404929Y-239531905D01*
X188166833Y-239531905D01*
X187976357Y-239484286D01*
X187881119Y-239436667D01*
X187833500Y-239389048D01*
X187785881Y-239293810D01*
X187881119Y-238579524D02*
X187833500Y-238531905D01*
X187785881Y-238436667D01*
X187785881Y-238198571D01*
X187833500Y-238103333D01*
X187881119Y-238055714D01*
X187976357Y-238008095D01*
X188071595Y-238008095D01*
X188214452Y-238055714D01*
X188785881Y-238627143D01*
X188785881Y-238008095D01*
X193631119Y-240817619D02*
X193583500Y-240912857D01*
X193488262Y-241008095D01*
X193345405Y-241150952D01*
X193297786Y-241246191D01*
X193297786Y-241341429D01*
X193535881Y-241293810D02*
X193488262Y-241389048D01*
X193393024Y-241484286D01*
X193202548Y-241531905D01*
X192869214Y-241531905D01*
X192678738Y-241484286D01*
X192583500Y-241389048D01*
X192535881Y-241293810D01*
X192535881Y-241103333D01*
X192583500Y-241008095D01*
X192678738Y-240912857D01*
X192869214Y-240865238D01*
X193202548Y-240865238D01*
X193393024Y-240912857D01*
X193488262Y-241008095D01*
X193535881Y-241103333D01*
X193535881Y-241293810D01*
X193535881Y-239912857D02*
X193535881Y-240484286D01*
X193535881Y-240198572D02*
X192535881Y-240198572D01*
X192678738Y-240293810D01*
X192773976Y-240389048D01*
X192821595Y-240484286D01*
X192535881Y-239293810D02*
X192535881Y-239198571D01*
X192583500Y-239103333D01*
X192631119Y-239055714D01*
X192726357Y-239008095D01*
X192916833Y-238960476D01*
X193154929Y-238960476D01*
X193345405Y-239008095D01*
X193440643Y-239055714D01*
X193488262Y-239103333D01*
X193535881Y-239198571D01*
X193535881Y-239293810D01*
X193488262Y-239389048D01*
X193440643Y-239436667D01*
X193345405Y-239484286D01*
X193154929Y-239531905D01*
X192916833Y-239531905D01*
X192726357Y-239484286D01*
X192631119Y-239436667D01*
X192583500Y-239389048D01*
X192535881Y-239293810D01*
X192535881Y-238627143D02*
X192535881Y-238008095D01*
X192916833Y-238341429D01*
X192916833Y-238198571D01*
X192964452Y-238103333D01*
X193012071Y-238055714D01*
X193107310Y-238008095D01*
X193345405Y-238008095D01*
X193440643Y-238055714D01*
X193488262Y-238103333D01*
X193535881Y-238198571D01*
X193535881Y-238484286D01*
X193488262Y-238579524D01*
X193440643Y-238627143D01*
X198381119Y-240817619D02*
X198333500Y-240912857D01*
X198238262Y-241008095D01*
X198095405Y-241150952D01*
X198047786Y-241246191D01*
X198047786Y-241341429D01*
X198285881Y-241293810D02*
X198238262Y-241389048D01*
X198143024Y-241484286D01*
X197952548Y-241531905D01*
X197619214Y-241531905D01*
X197428738Y-241484286D01*
X197333500Y-241389048D01*
X197285881Y-241293810D01*
X197285881Y-241103333D01*
X197333500Y-241008095D01*
X197428738Y-240912857D01*
X197619214Y-240865238D01*
X197952548Y-240865238D01*
X198143024Y-240912857D01*
X198238262Y-241008095D01*
X198285881Y-241103333D01*
X198285881Y-241293810D01*
X198285881Y-239912857D02*
X198285881Y-240484286D01*
X198285881Y-240198572D02*
X197285881Y-240198572D01*
X197428738Y-240293810D01*
X197523976Y-240389048D01*
X197571595Y-240484286D01*
X197285881Y-239293810D02*
X197285881Y-239198571D01*
X197333500Y-239103333D01*
X197381119Y-239055714D01*
X197476357Y-239008095D01*
X197666833Y-238960476D01*
X197904929Y-238960476D01*
X198095405Y-239008095D01*
X198190643Y-239055714D01*
X198238262Y-239103333D01*
X198285881Y-239198571D01*
X198285881Y-239293810D01*
X198238262Y-239389048D01*
X198190643Y-239436667D01*
X198095405Y-239484286D01*
X197904929Y-239531905D01*
X197666833Y-239531905D01*
X197476357Y-239484286D01*
X197381119Y-239436667D01*
X197333500Y-239389048D01*
X197285881Y-239293810D01*
X197619214Y-238103333D02*
X198285881Y-238103333D01*
X197238262Y-238341429D02*
X197952548Y-238579524D01*
X197952548Y-237960476D01*
X234182381Y-142881119D02*
X234087143Y-142833500D01*
X233991905Y-142738262D01*
X233849048Y-142595405D01*
X233753809Y-142547786D01*
X233658571Y-142547786D01*
X233706190Y-142785881D02*
X233610952Y-142738262D01*
X233515714Y-142643024D01*
X233468095Y-142452548D01*
X233468095Y-142119214D01*
X233515714Y-141928738D01*
X233610952Y-141833500D01*
X233706190Y-141785881D01*
X233896667Y-141785881D01*
X233991905Y-141833500D01*
X234087143Y-141928738D01*
X234134762Y-142119214D01*
X234134762Y-142452548D01*
X234087143Y-142643024D01*
X233991905Y-142738262D01*
X233896667Y-142785881D01*
X233706190Y-142785881D01*
X235087143Y-142785881D02*
X234515714Y-142785881D01*
X234801428Y-142785881D02*
X234801428Y-141785881D01*
X234706190Y-141928738D01*
X234610952Y-142023976D01*
X234515714Y-142071595D01*
X235706190Y-141785881D02*
X235801429Y-141785881D01*
X235896667Y-141833500D01*
X235944286Y-141881119D01*
X235991905Y-141976357D01*
X236039524Y-142166833D01*
X236039524Y-142404929D01*
X235991905Y-142595405D01*
X235944286Y-142690643D01*
X235896667Y-142738262D01*
X235801429Y-142785881D01*
X235706190Y-142785881D01*
X235610952Y-142738262D01*
X235563333Y-142690643D01*
X235515714Y-142595405D01*
X235468095Y-142404929D01*
X235468095Y-142166833D01*
X235515714Y-141976357D01*
X235563333Y-141881119D01*
X235610952Y-141833500D01*
X235706190Y-141785881D01*
X236944286Y-141785881D02*
X236468095Y-141785881D01*
X236420476Y-142262071D01*
X236468095Y-142214452D01*
X236563333Y-142166833D01*
X236801429Y-142166833D01*
X236896667Y-142214452D01*
X236944286Y-142262071D01*
X236991905Y-142357310D01*
X236991905Y-142595405D01*
X236944286Y-142690643D01*
X236896667Y-142738262D01*
X236801429Y-142785881D01*
X236563333Y-142785881D01*
X236468095Y-142738262D01*
X236420476Y-142690643D01*
X226432381Y-228131119D02*
X226337143Y-228083500D01*
X226241905Y-227988262D01*
X226099048Y-227845405D01*
X226003809Y-227797786D01*
X225908571Y-227797786D01*
X225956190Y-228035881D02*
X225860952Y-227988262D01*
X225765714Y-227893024D01*
X225718095Y-227702548D01*
X225718095Y-227369214D01*
X225765714Y-227178738D01*
X225860952Y-227083500D01*
X225956190Y-227035881D01*
X226146667Y-227035881D01*
X226241905Y-227083500D01*
X226337143Y-227178738D01*
X226384762Y-227369214D01*
X226384762Y-227702548D01*
X226337143Y-227893024D01*
X226241905Y-227988262D01*
X226146667Y-228035881D01*
X225956190Y-228035881D01*
X227337143Y-228035881D02*
X226765714Y-228035881D01*
X227051428Y-228035881D02*
X227051428Y-227035881D01*
X226956190Y-227178738D01*
X226860952Y-227273976D01*
X226765714Y-227321595D01*
X227956190Y-227035881D02*
X228051429Y-227035881D01*
X228146667Y-227083500D01*
X228194286Y-227131119D01*
X228241905Y-227226357D01*
X228289524Y-227416833D01*
X228289524Y-227654929D01*
X228241905Y-227845405D01*
X228194286Y-227940643D01*
X228146667Y-227988262D01*
X228051429Y-228035881D01*
X227956190Y-228035881D01*
X227860952Y-227988262D01*
X227813333Y-227940643D01*
X227765714Y-227845405D01*
X227718095Y-227654929D01*
X227718095Y-227416833D01*
X227765714Y-227226357D01*
X227813333Y-227131119D01*
X227860952Y-227083500D01*
X227956190Y-227035881D01*
X229146667Y-227035881D02*
X228956190Y-227035881D01*
X228860952Y-227083500D01*
X228813333Y-227131119D01*
X228718095Y-227273976D01*
X228670476Y-227464452D01*
X228670476Y-227845405D01*
X228718095Y-227940643D01*
X228765714Y-227988262D01*
X228860952Y-228035881D01*
X229051429Y-228035881D01*
X229146667Y-227988262D01*
X229194286Y-227940643D01*
X229241905Y-227845405D01*
X229241905Y-227607310D01*
X229194286Y-227512071D01*
X229146667Y-227464452D01*
X229051429Y-227416833D01*
X228860952Y-227416833D01*
X228765714Y-227464452D01*
X228718095Y-227512071D01*
X228670476Y-227607310D01*
X140881119Y-240817619D02*
X140833500Y-240912857D01*
X140738262Y-241008095D01*
X140595405Y-241150952D01*
X140547786Y-241246191D01*
X140547786Y-241341429D01*
X140785881Y-241293810D02*
X140738262Y-241389048D01*
X140643024Y-241484286D01*
X140452548Y-241531905D01*
X140119214Y-241531905D01*
X139928738Y-241484286D01*
X139833500Y-241389048D01*
X139785881Y-241293810D01*
X139785881Y-241103333D01*
X139833500Y-241008095D01*
X139928738Y-240912857D01*
X140119214Y-240865238D01*
X140452548Y-240865238D01*
X140643024Y-240912857D01*
X140738262Y-241008095D01*
X140785881Y-241103333D01*
X140785881Y-241293810D01*
X140785881Y-239912857D02*
X140785881Y-240484286D01*
X140785881Y-240198572D02*
X139785881Y-240198572D01*
X139928738Y-240293810D01*
X140023976Y-240389048D01*
X140071595Y-240484286D01*
X139785881Y-239293810D02*
X139785881Y-239198571D01*
X139833500Y-239103333D01*
X139881119Y-239055714D01*
X139976357Y-239008095D01*
X140166833Y-238960476D01*
X140404929Y-238960476D01*
X140595405Y-239008095D01*
X140690643Y-239055714D01*
X140738262Y-239103333D01*
X140785881Y-239198571D01*
X140785881Y-239293810D01*
X140738262Y-239389048D01*
X140690643Y-239436667D01*
X140595405Y-239484286D01*
X140404929Y-239531905D01*
X140166833Y-239531905D01*
X139976357Y-239484286D01*
X139881119Y-239436667D01*
X139833500Y-239389048D01*
X139785881Y-239293810D01*
X139785881Y-238627143D02*
X139785881Y-237960476D01*
X140785881Y-238389048D01*
X233932381Y-72381119D02*
X233837143Y-72333500D01*
X233741905Y-72238262D01*
X233599048Y-72095405D01*
X233503809Y-72047786D01*
X233408571Y-72047786D01*
X233456190Y-72285881D02*
X233360952Y-72238262D01*
X233265714Y-72143024D01*
X233218095Y-71952548D01*
X233218095Y-71619214D01*
X233265714Y-71428738D01*
X233360952Y-71333500D01*
X233456190Y-71285881D01*
X233646667Y-71285881D01*
X233741905Y-71333500D01*
X233837143Y-71428738D01*
X233884762Y-71619214D01*
X233884762Y-71952548D01*
X233837143Y-72143024D01*
X233741905Y-72238262D01*
X233646667Y-72285881D01*
X233456190Y-72285881D01*
X234837143Y-72285881D02*
X234265714Y-72285881D01*
X234551428Y-72285881D02*
X234551428Y-71285881D01*
X234456190Y-71428738D01*
X234360952Y-71523976D01*
X234265714Y-71571595D01*
X235456190Y-71285881D02*
X235551429Y-71285881D01*
X235646667Y-71333500D01*
X235694286Y-71381119D01*
X235741905Y-71476357D01*
X235789524Y-71666833D01*
X235789524Y-71904929D01*
X235741905Y-72095405D01*
X235694286Y-72190643D01*
X235646667Y-72238262D01*
X235551429Y-72285881D01*
X235456190Y-72285881D01*
X235360952Y-72238262D01*
X235313333Y-72190643D01*
X235265714Y-72095405D01*
X235218095Y-71904929D01*
X235218095Y-71666833D01*
X235265714Y-71476357D01*
X235313333Y-71381119D01*
X235360952Y-71333500D01*
X235456190Y-71285881D01*
X236360952Y-71714452D02*
X236265714Y-71666833D01*
X236218095Y-71619214D01*
X236170476Y-71523976D01*
X236170476Y-71476357D01*
X236218095Y-71381119D01*
X236265714Y-71333500D01*
X236360952Y-71285881D01*
X236551429Y-71285881D01*
X236646667Y-71333500D01*
X236694286Y-71381119D01*
X236741905Y-71476357D01*
X236741905Y-71523976D01*
X236694286Y-71619214D01*
X236646667Y-71666833D01*
X236551429Y-71714452D01*
X236360952Y-71714452D01*
X236265714Y-71762071D01*
X236218095Y-71809690D01*
X236170476Y-71904929D01*
X236170476Y-72095405D01*
X236218095Y-72190643D01*
X236265714Y-72238262D01*
X236360952Y-72285881D01*
X236551429Y-72285881D01*
X236646667Y-72238262D01*
X236694286Y-72190643D01*
X236741905Y-72095405D01*
X236741905Y-71904929D01*
X236694286Y-71809690D01*
X236646667Y-71762071D01*
X236551429Y-71714452D01*
X77972381Y-85714119D02*
X77877143Y-85666500D01*
X77781905Y-85571262D01*
X77639048Y-85428405D01*
X77543809Y-85380786D01*
X77448571Y-85380786D01*
X77496190Y-85618881D02*
X77400952Y-85571262D01*
X77305714Y-85476024D01*
X77258095Y-85285548D01*
X77258095Y-84952214D01*
X77305714Y-84761738D01*
X77400952Y-84666500D01*
X77496190Y-84618881D01*
X77686667Y-84618881D01*
X77781905Y-84666500D01*
X77877143Y-84761738D01*
X77924762Y-84952214D01*
X77924762Y-85285548D01*
X77877143Y-85476024D01*
X77781905Y-85571262D01*
X77686667Y-85618881D01*
X77496190Y-85618881D01*
X78877143Y-85618881D02*
X78305714Y-85618881D01*
X78591428Y-85618881D02*
X78591428Y-84618881D01*
X78496190Y-84761738D01*
X78400952Y-84856976D01*
X78305714Y-84904595D01*
X79496190Y-84618881D02*
X79591429Y-84618881D01*
X79686667Y-84666500D01*
X79734286Y-84714119D01*
X79781905Y-84809357D01*
X79829524Y-84999833D01*
X79829524Y-85237929D01*
X79781905Y-85428405D01*
X79734286Y-85523643D01*
X79686667Y-85571262D01*
X79591429Y-85618881D01*
X79496190Y-85618881D01*
X79400952Y-85571262D01*
X79353333Y-85523643D01*
X79305714Y-85428405D01*
X79258095Y-85237929D01*
X79258095Y-84999833D01*
X79305714Y-84809357D01*
X79353333Y-84714119D01*
X79400952Y-84666500D01*
X79496190Y-84618881D01*
X80305714Y-85618881D02*
X80496190Y-85618881D01*
X80591429Y-85571262D01*
X80639048Y-85523643D01*
X80734286Y-85380786D01*
X80781905Y-85190310D01*
X80781905Y-84809357D01*
X80734286Y-84714119D01*
X80686667Y-84666500D01*
X80591429Y-84618881D01*
X80400952Y-84618881D01*
X80305714Y-84666500D01*
X80258095Y-84714119D01*
X80210476Y-84809357D01*
X80210476Y-85047452D01*
X80258095Y-85142690D01*
X80305714Y-85190310D01*
X80400952Y-85237929D01*
X80591429Y-85237929D01*
X80686667Y-85190310D01*
X80734286Y-85142690D01*
X80781905Y-85047452D01*
X80432381Y-232381119D02*
X80337143Y-232333500D01*
X80241905Y-232238262D01*
X80099048Y-232095405D01*
X80003809Y-232047786D01*
X79908571Y-232047786D01*
X79956190Y-232285881D02*
X79860952Y-232238262D01*
X79765714Y-232143024D01*
X79718095Y-231952548D01*
X79718095Y-231619214D01*
X79765714Y-231428738D01*
X79860952Y-231333500D01*
X79956190Y-231285881D01*
X80146667Y-231285881D01*
X80241905Y-231333500D01*
X80337143Y-231428738D01*
X80384762Y-231619214D01*
X80384762Y-231952548D01*
X80337143Y-232143024D01*
X80241905Y-232238262D01*
X80146667Y-232285881D01*
X79956190Y-232285881D01*
X81337143Y-232285881D02*
X80765714Y-232285881D01*
X81051428Y-232285881D02*
X81051428Y-231285881D01*
X80956190Y-231428738D01*
X80860952Y-231523976D01*
X80765714Y-231571595D01*
X82289524Y-232285881D02*
X81718095Y-232285881D01*
X82003809Y-232285881D02*
X82003809Y-231285881D01*
X81908571Y-231428738D01*
X81813333Y-231523976D01*
X81718095Y-231571595D01*
X82908571Y-231285881D02*
X83003810Y-231285881D01*
X83099048Y-231333500D01*
X83146667Y-231381119D01*
X83194286Y-231476357D01*
X83241905Y-231666833D01*
X83241905Y-231904929D01*
X83194286Y-232095405D01*
X83146667Y-232190643D01*
X83099048Y-232238262D01*
X83003810Y-232285881D01*
X82908571Y-232285881D01*
X82813333Y-232238262D01*
X82765714Y-232190643D01*
X82718095Y-232095405D01*
X82670476Y-231904929D01*
X82670476Y-231666833D01*
X82718095Y-231476357D01*
X82765714Y-231381119D01*
X82813333Y-231333500D01*
X82908571Y-231285881D01*
X77972381Y-165714119D02*
X77877143Y-165666500D01*
X77781905Y-165571262D01*
X77639048Y-165428405D01*
X77543809Y-165380786D01*
X77448571Y-165380786D01*
X77496190Y-165618881D02*
X77400952Y-165571262D01*
X77305714Y-165476024D01*
X77258095Y-165285548D01*
X77258095Y-164952214D01*
X77305714Y-164761738D01*
X77400952Y-164666500D01*
X77496190Y-164618881D01*
X77686667Y-164618881D01*
X77781905Y-164666500D01*
X77877143Y-164761738D01*
X77924762Y-164952214D01*
X77924762Y-165285548D01*
X77877143Y-165476024D01*
X77781905Y-165571262D01*
X77686667Y-165618881D01*
X77496190Y-165618881D01*
X78877143Y-165618881D02*
X78305714Y-165618881D01*
X78591428Y-165618881D02*
X78591428Y-164618881D01*
X78496190Y-164761738D01*
X78400952Y-164856976D01*
X78305714Y-164904595D01*
X79829524Y-165618881D02*
X79258095Y-165618881D01*
X79543809Y-165618881D02*
X79543809Y-164618881D01*
X79448571Y-164761738D01*
X79353333Y-164856976D01*
X79258095Y-164904595D01*
X80781905Y-165618881D02*
X80210476Y-165618881D01*
X80496190Y-165618881D02*
X80496190Y-164618881D01*
X80400952Y-164761738D01*
X80305714Y-164856976D01*
X80210476Y-164904595D01*
X225972381Y-207631119D02*
X225877143Y-207583500D01*
X225781905Y-207488262D01*
X225639048Y-207345405D01*
X225543809Y-207297786D01*
X225448571Y-207297786D01*
X225496190Y-207535881D02*
X225400952Y-207488262D01*
X225305714Y-207393024D01*
X225258095Y-207202548D01*
X225258095Y-206869214D01*
X225305714Y-206678738D01*
X225400952Y-206583500D01*
X225496190Y-206535881D01*
X225686667Y-206535881D01*
X225781905Y-206583500D01*
X225877143Y-206678738D01*
X225924762Y-206869214D01*
X225924762Y-207202548D01*
X225877143Y-207393024D01*
X225781905Y-207488262D01*
X225686667Y-207535881D01*
X225496190Y-207535881D01*
X226305714Y-206631119D02*
X226353333Y-206583500D01*
X226448571Y-206535881D01*
X226686667Y-206535881D01*
X226781905Y-206583500D01*
X226829524Y-206631119D01*
X226877143Y-206726357D01*
X226877143Y-206821595D01*
X226829524Y-206964452D01*
X226258095Y-207535881D01*
X226877143Y-207535881D01*
X227496190Y-206535881D02*
X227591429Y-206535881D01*
X227686667Y-206583500D01*
X227734286Y-206631119D01*
X227781905Y-206726357D01*
X227829524Y-206916833D01*
X227829524Y-207154929D01*
X227781905Y-207345405D01*
X227734286Y-207440643D01*
X227686667Y-207488262D01*
X227591429Y-207535881D01*
X227496190Y-207535881D01*
X227400952Y-207488262D01*
X227353333Y-207440643D01*
X227305714Y-207345405D01*
X227258095Y-207154929D01*
X227258095Y-206916833D01*
X227305714Y-206726357D01*
X227353333Y-206631119D01*
X227400952Y-206583500D01*
X227496190Y-206535881D01*
X228781905Y-207535881D02*
X228210476Y-207535881D01*
X228496190Y-207535881D02*
X228496190Y-206535881D01*
X228400952Y-206678738D01*
X228305714Y-206773976D01*
X228210476Y-206821595D01*
X223881119Y-211317619D02*
X223833500Y-211412857D01*
X223738262Y-211508095D01*
X223595405Y-211650952D01*
X223547786Y-211746191D01*
X223547786Y-211841429D01*
X223785881Y-211793810D02*
X223738262Y-211889048D01*
X223643024Y-211984286D01*
X223452548Y-212031905D01*
X223119214Y-212031905D01*
X222928738Y-211984286D01*
X222833500Y-211889048D01*
X222785881Y-211793810D01*
X222785881Y-211603333D01*
X222833500Y-211508095D01*
X222928738Y-211412857D01*
X223119214Y-211365238D01*
X223452548Y-211365238D01*
X223643024Y-211412857D01*
X223738262Y-211508095D01*
X223785881Y-211603333D01*
X223785881Y-211793810D01*
X222881119Y-210984286D02*
X222833500Y-210936667D01*
X222785881Y-210841429D01*
X222785881Y-210603333D01*
X222833500Y-210508095D01*
X222881119Y-210460476D01*
X222976357Y-210412857D01*
X223071595Y-210412857D01*
X223214452Y-210460476D01*
X223785881Y-211031905D01*
X223785881Y-210412857D01*
X222785881Y-209793810D02*
X222785881Y-209698571D01*
X222833500Y-209603333D01*
X222881119Y-209555714D01*
X222976357Y-209508095D01*
X223166833Y-209460476D01*
X223404929Y-209460476D01*
X223595405Y-209508095D01*
X223690643Y-209555714D01*
X223738262Y-209603333D01*
X223785881Y-209698571D01*
X223785881Y-209793810D01*
X223738262Y-209889048D01*
X223690643Y-209936667D01*
X223595405Y-209984286D01*
X223404929Y-210031905D01*
X223166833Y-210031905D01*
X222976357Y-209984286D01*
X222881119Y-209936667D01*
X222833500Y-209889048D01*
X222785881Y-209793810D01*
X222881119Y-209079524D02*
X222833500Y-209031905D01*
X222785881Y-208936667D01*
X222785881Y-208698571D01*
X222833500Y-208603333D01*
X222881119Y-208555714D01*
X222976357Y-208508095D01*
X223071595Y-208508095D01*
X223214452Y-208555714D01*
X223785881Y-209127143D01*
X223785881Y-208508095D01*
X231472381Y-187631119D02*
X231377143Y-187583500D01*
X231281905Y-187488262D01*
X231139048Y-187345405D01*
X231043809Y-187297786D01*
X230948571Y-187297786D01*
X230996190Y-187535881D02*
X230900952Y-187488262D01*
X230805714Y-187393024D01*
X230758095Y-187202548D01*
X230758095Y-186869214D01*
X230805714Y-186678738D01*
X230900952Y-186583500D01*
X230996190Y-186535881D01*
X231186667Y-186535881D01*
X231281905Y-186583500D01*
X231377143Y-186678738D01*
X231424762Y-186869214D01*
X231424762Y-187202548D01*
X231377143Y-187393024D01*
X231281905Y-187488262D01*
X231186667Y-187535881D01*
X230996190Y-187535881D01*
X231805714Y-186631119D02*
X231853333Y-186583500D01*
X231948571Y-186535881D01*
X232186667Y-186535881D01*
X232281905Y-186583500D01*
X232329524Y-186631119D01*
X232377143Y-186726357D01*
X232377143Y-186821595D01*
X232329524Y-186964452D01*
X231758095Y-187535881D01*
X232377143Y-187535881D01*
X232996190Y-186535881D02*
X233091429Y-186535881D01*
X233186667Y-186583500D01*
X233234286Y-186631119D01*
X233281905Y-186726357D01*
X233329524Y-186916833D01*
X233329524Y-187154929D01*
X233281905Y-187345405D01*
X233234286Y-187440643D01*
X233186667Y-187488262D01*
X233091429Y-187535881D01*
X232996190Y-187535881D01*
X232900952Y-187488262D01*
X232853333Y-187440643D01*
X232805714Y-187345405D01*
X232758095Y-187154929D01*
X232758095Y-186916833D01*
X232805714Y-186726357D01*
X232853333Y-186631119D01*
X232900952Y-186583500D01*
X232996190Y-186535881D01*
X233662857Y-186535881D02*
X234281905Y-186535881D01*
X233948571Y-186916833D01*
X234091429Y-186916833D01*
X234186667Y-186964452D01*
X234234286Y-187012071D01*
X234281905Y-187107310D01*
X234281905Y-187345405D01*
X234234286Y-187440643D01*
X234186667Y-187488262D01*
X234091429Y-187535881D01*
X233805714Y-187535881D01*
X233710476Y-187488262D01*
X233662857Y-187440643D01*
X225932381Y-187631119D02*
X225837143Y-187583500D01*
X225741905Y-187488262D01*
X225599048Y-187345405D01*
X225503809Y-187297786D01*
X225408571Y-187297786D01*
X225456190Y-187535881D02*
X225360952Y-187488262D01*
X225265714Y-187393024D01*
X225218095Y-187202548D01*
X225218095Y-186869214D01*
X225265714Y-186678738D01*
X225360952Y-186583500D01*
X225456190Y-186535881D01*
X225646667Y-186535881D01*
X225741905Y-186583500D01*
X225837143Y-186678738D01*
X225884762Y-186869214D01*
X225884762Y-187202548D01*
X225837143Y-187393024D01*
X225741905Y-187488262D01*
X225646667Y-187535881D01*
X225456190Y-187535881D01*
X226265714Y-186631119D02*
X226313333Y-186583500D01*
X226408571Y-186535881D01*
X226646667Y-186535881D01*
X226741905Y-186583500D01*
X226789524Y-186631119D01*
X226837143Y-186726357D01*
X226837143Y-186821595D01*
X226789524Y-186964452D01*
X226218095Y-187535881D01*
X226837143Y-187535881D01*
X227456190Y-186535881D02*
X227551429Y-186535881D01*
X227646667Y-186583500D01*
X227694286Y-186631119D01*
X227741905Y-186726357D01*
X227789524Y-186916833D01*
X227789524Y-187154929D01*
X227741905Y-187345405D01*
X227694286Y-187440643D01*
X227646667Y-187488262D01*
X227551429Y-187535881D01*
X227456190Y-187535881D01*
X227360952Y-187488262D01*
X227313333Y-187440643D01*
X227265714Y-187345405D01*
X227218095Y-187154929D01*
X227218095Y-186916833D01*
X227265714Y-186726357D01*
X227313333Y-186631119D01*
X227360952Y-186583500D01*
X227456190Y-186535881D01*
X228646667Y-186869214D02*
X228646667Y-187535881D01*
X228408571Y-186488262D02*
X228170476Y-187202548D01*
X228789524Y-187202548D01*
X223881119Y-191317619D02*
X223833500Y-191412857D01*
X223738262Y-191508095D01*
X223595405Y-191650952D01*
X223547786Y-191746191D01*
X223547786Y-191841429D01*
X223785881Y-191793810D02*
X223738262Y-191889048D01*
X223643024Y-191984286D01*
X223452548Y-192031905D01*
X223119214Y-192031905D01*
X222928738Y-191984286D01*
X222833500Y-191889048D01*
X222785881Y-191793810D01*
X222785881Y-191603333D01*
X222833500Y-191508095D01*
X222928738Y-191412857D01*
X223119214Y-191365238D01*
X223452548Y-191365238D01*
X223643024Y-191412857D01*
X223738262Y-191508095D01*
X223785881Y-191603333D01*
X223785881Y-191793810D01*
X222881119Y-190984286D02*
X222833500Y-190936667D01*
X222785881Y-190841429D01*
X222785881Y-190603333D01*
X222833500Y-190508095D01*
X222881119Y-190460476D01*
X222976357Y-190412857D01*
X223071595Y-190412857D01*
X223214452Y-190460476D01*
X223785881Y-191031905D01*
X223785881Y-190412857D01*
X222785881Y-189793810D02*
X222785881Y-189698571D01*
X222833500Y-189603333D01*
X222881119Y-189555714D01*
X222976357Y-189508095D01*
X223166833Y-189460476D01*
X223404929Y-189460476D01*
X223595405Y-189508095D01*
X223690643Y-189555714D01*
X223738262Y-189603333D01*
X223785881Y-189698571D01*
X223785881Y-189793810D01*
X223738262Y-189889048D01*
X223690643Y-189936667D01*
X223595405Y-189984286D01*
X223404929Y-190031905D01*
X223166833Y-190031905D01*
X222976357Y-189984286D01*
X222881119Y-189936667D01*
X222833500Y-189889048D01*
X222785881Y-189793810D01*
X222785881Y-188555714D02*
X222785881Y-189031905D01*
X223262071Y-189079524D01*
X223214452Y-189031905D01*
X223166833Y-188936667D01*
X223166833Y-188698571D01*
X223214452Y-188603333D01*
X223262071Y-188555714D01*
X223357310Y-188508095D01*
X223595405Y-188508095D01*
X223690643Y-188555714D01*
X223738262Y-188603333D01*
X223785881Y-188698571D01*
X223785881Y-188936667D01*
X223738262Y-189031905D01*
X223690643Y-189079524D01*
X225972381Y-167631119D02*
X225877143Y-167583500D01*
X225781905Y-167488262D01*
X225639048Y-167345405D01*
X225543809Y-167297786D01*
X225448571Y-167297786D01*
X225496190Y-167535881D02*
X225400952Y-167488262D01*
X225305714Y-167393024D01*
X225258095Y-167202548D01*
X225258095Y-166869214D01*
X225305714Y-166678738D01*
X225400952Y-166583500D01*
X225496190Y-166535881D01*
X225686667Y-166535881D01*
X225781905Y-166583500D01*
X225877143Y-166678738D01*
X225924762Y-166869214D01*
X225924762Y-167202548D01*
X225877143Y-167393024D01*
X225781905Y-167488262D01*
X225686667Y-167535881D01*
X225496190Y-167535881D01*
X226305714Y-166631119D02*
X226353333Y-166583500D01*
X226448571Y-166535881D01*
X226686667Y-166535881D01*
X226781905Y-166583500D01*
X226829524Y-166631119D01*
X226877143Y-166726357D01*
X226877143Y-166821595D01*
X226829524Y-166964452D01*
X226258095Y-167535881D01*
X226877143Y-167535881D01*
X227496190Y-166535881D02*
X227591429Y-166535881D01*
X227686667Y-166583500D01*
X227734286Y-166631119D01*
X227781905Y-166726357D01*
X227829524Y-166916833D01*
X227829524Y-167154929D01*
X227781905Y-167345405D01*
X227734286Y-167440643D01*
X227686667Y-167488262D01*
X227591429Y-167535881D01*
X227496190Y-167535881D01*
X227400952Y-167488262D01*
X227353333Y-167440643D01*
X227305714Y-167345405D01*
X227258095Y-167154929D01*
X227258095Y-166916833D01*
X227305714Y-166726357D01*
X227353333Y-166631119D01*
X227400952Y-166583500D01*
X227496190Y-166535881D01*
X228686667Y-166535881D02*
X228496190Y-166535881D01*
X228400952Y-166583500D01*
X228353333Y-166631119D01*
X228258095Y-166773976D01*
X228210476Y-166964452D01*
X228210476Y-167345405D01*
X228258095Y-167440643D01*
X228305714Y-167488262D01*
X228400952Y-167535881D01*
X228591429Y-167535881D01*
X228686667Y-167488262D01*
X228734286Y-167440643D01*
X228781905Y-167345405D01*
X228781905Y-167107310D01*
X228734286Y-167012071D01*
X228686667Y-166964452D01*
X228591429Y-166916833D01*
X228400952Y-166916833D01*
X228305714Y-166964452D01*
X228258095Y-167012071D01*
X228210476Y-167107310D01*
X225932381Y-127631119D02*
X225837143Y-127583500D01*
X225741905Y-127488262D01*
X225599048Y-127345405D01*
X225503809Y-127297786D01*
X225408571Y-127297786D01*
X225456190Y-127535881D02*
X225360952Y-127488262D01*
X225265714Y-127393024D01*
X225218095Y-127202548D01*
X225218095Y-126869214D01*
X225265714Y-126678738D01*
X225360952Y-126583500D01*
X225456190Y-126535881D01*
X225646667Y-126535881D01*
X225741905Y-126583500D01*
X225837143Y-126678738D01*
X225884762Y-126869214D01*
X225884762Y-127202548D01*
X225837143Y-127393024D01*
X225741905Y-127488262D01*
X225646667Y-127535881D01*
X225456190Y-127535881D01*
X226218095Y-126535881D02*
X226837143Y-126535881D01*
X226503809Y-126916833D01*
X226646667Y-126916833D01*
X226741905Y-126964452D01*
X226789524Y-127012071D01*
X226837143Y-127107310D01*
X226837143Y-127345405D01*
X226789524Y-127440643D01*
X226741905Y-127488262D01*
X226646667Y-127535881D01*
X226360952Y-127535881D01*
X226265714Y-127488262D01*
X226218095Y-127440643D01*
X227456190Y-126535881D02*
X227551429Y-126535881D01*
X227646667Y-126583500D01*
X227694286Y-126631119D01*
X227741905Y-126726357D01*
X227789524Y-126916833D01*
X227789524Y-127154929D01*
X227741905Y-127345405D01*
X227694286Y-127440643D01*
X227646667Y-127488262D01*
X227551429Y-127535881D01*
X227456190Y-127535881D01*
X227360952Y-127488262D01*
X227313333Y-127440643D01*
X227265714Y-127345405D01*
X227218095Y-127154929D01*
X227218095Y-126916833D01*
X227265714Y-126726357D01*
X227313333Y-126631119D01*
X227360952Y-126583500D01*
X227456190Y-126535881D01*
X228741905Y-127535881D02*
X228170476Y-127535881D01*
X228456190Y-127535881D02*
X228456190Y-126535881D01*
X228360952Y-126678738D01*
X228265714Y-126773976D01*
X228170476Y-126821595D01*
X223881119Y-131317619D02*
X223833500Y-131412857D01*
X223738262Y-131508095D01*
X223595405Y-131650952D01*
X223547786Y-131746191D01*
X223547786Y-131841429D01*
X223785881Y-131793810D02*
X223738262Y-131889048D01*
X223643024Y-131984286D01*
X223452548Y-132031905D01*
X223119214Y-132031905D01*
X222928738Y-131984286D01*
X222833500Y-131889048D01*
X222785881Y-131793810D01*
X222785881Y-131603333D01*
X222833500Y-131508095D01*
X222928738Y-131412857D01*
X223119214Y-131365238D01*
X223452548Y-131365238D01*
X223643024Y-131412857D01*
X223738262Y-131508095D01*
X223785881Y-131603333D01*
X223785881Y-131793810D01*
X222785881Y-131031905D02*
X222785881Y-130412857D01*
X223166833Y-130746191D01*
X223166833Y-130603333D01*
X223214452Y-130508095D01*
X223262071Y-130460476D01*
X223357310Y-130412857D01*
X223595405Y-130412857D01*
X223690643Y-130460476D01*
X223738262Y-130508095D01*
X223785881Y-130603333D01*
X223785881Y-130889048D01*
X223738262Y-130984286D01*
X223690643Y-131031905D01*
X222785881Y-129793810D02*
X222785881Y-129698571D01*
X222833500Y-129603333D01*
X222881119Y-129555714D01*
X222976357Y-129508095D01*
X223166833Y-129460476D01*
X223404929Y-129460476D01*
X223595405Y-129508095D01*
X223690643Y-129555714D01*
X223738262Y-129603333D01*
X223785881Y-129698571D01*
X223785881Y-129793810D01*
X223738262Y-129889048D01*
X223690643Y-129936667D01*
X223595405Y-129984286D01*
X223404929Y-130031905D01*
X223166833Y-130031905D01*
X222976357Y-129984286D01*
X222881119Y-129936667D01*
X222833500Y-129889048D01*
X222785881Y-129793810D01*
X222881119Y-129079524D02*
X222833500Y-129031905D01*
X222785881Y-128936667D01*
X222785881Y-128698571D01*
X222833500Y-128603333D01*
X222881119Y-128555714D01*
X222976357Y-128508095D01*
X223071595Y-128508095D01*
X223214452Y-128555714D01*
X223785881Y-129127143D01*
X223785881Y-128508095D01*
X231432381Y-107631119D02*
X231337143Y-107583500D01*
X231241905Y-107488262D01*
X231099048Y-107345405D01*
X231003809Y-107297786D01*
X230908571Y-107297786D01*
X230956190Y-107535881D02*
X230860952Y-107488262D01*
X230765714Y-107393024D01*
X230718095Y-107202548D01*
X230718095Y-106869214D01*
X230765714Y-106678738D01*
X230860952Y-106583500D01*
X230956190Y-106535881D01*
X231146667Y-106535881D01*
X231241905Y-106583500D01*
X231337143Y-106678738D01*
X231384762Y-106869214D01*
X231384762Y-107202548D01*
X231337143Y-107393024D01*
X231241905Y-107488262D01*
X231146667Y-107535881D01*
X230956190Y-107535881D01*
X231718095Y-106535881D02*
X232337143Y-106535881D01*
X232003809Y-106916833D01*
X232146667Y-106916833D01*
X232241905Y-106964452D01*
X232289524Y-107012071D01*
X232337143Y-107107310D01*
X232337143Y-107345405D01*
X232289524Y-107440643D01*
X232241905Y-107488262D01*
X232146667Y-107535881D01*
X231860952Y-107535881D01*
X231765714Y-107488262D01*
X231718095Y-107440643D01*
X232956190Y-106535881D02*
X233051429Y-106535881D01*
X233146667Y-106583500D01*
X233194286Y-106631119D01*
X233241905Y-106726357D01*
X233289524Y-106916833D01*
X233289524Y-107154929D01*
X233241905Y-107345405D01*
X233194286Y-107440643D01*
X233146667Y-107488262D01*
X233051429Y-107535881D01*
X232956190Y-107535881D01*
X232860952Y-107488262D01*
X232813333Y-107440643D01*
X232765714Y-107345405D01*
X232718095Y-107154929D01*
X232718095Y-106916833D01*
X232765714Y-106726357D01*
X232813333Y-106631119D01*
X232860952Y-106583500D01*
X232956190Y-106535881D01*
X233622857Y-106535881D02*
X234241905Y-106535881D01*
X233908571Y-106916833D01*
X234051429Y-106916833D01*
X234146667Y-106964452D01*
X234194286Y-107012071D01*
X234241905Y-107107310D01*
X234241905Y-107345405D01*
X234194286Y-107440643D01*
X234146667Y-107488262D01*
X234051429Y-107535881D01*
X233765714Y-107535881D01*
X233670476Y-107488262D01*
X233622857Y-107440643D01*
X225932381Y-107631119D02*
X225837143Y-107583500D01*
X225741905Y-107488262D01*
X225599048Y-107345405D01*
X225503809Y-107297786D01*
X225408571Y-107297786D01*
X225456190Y-107535881D02*
X225360952Y-107488262D01*
X225265714Y-107393024D01*
X225218095Y-107202548D01*
X225218095Y-106869214D01*
X225265714Y-106678738D01*
X225360952Y-106583500D01*
X225456190Y-106535881D01*
X225646667Y-106535881D01*
X225741905Y-106583500D01*
X225837143Y-106678738D01*
X225884762Y-106869214D01*
X225884762Y-107202548D01*
X225837143Y-107393024D01*
X225741905Y-107488262D01*
X225646667Y-107535881D01*
X225456190Y-107535881D01*
X226218095Y-106535881D02*
X226837143Y-106535881D01*
X226503809Y-106916833D01*
X226646667Y-106916833D01*
X226741905Y-106964452D01*
X226789524Y-107012071D01*
X226837143Y-107107310D01*
X226837143Y-107345405D01*
X226789524Y-107440643D01*
X226741905Y-107488262D01*
X226646667Y-107535881D01*
X226360952Y-107535881D01*
X226265714Y-107488262D01*
X226218095Y-107440643D01*
X227456190Y-106535881D02*
X227551429Y-106535881D01*
X227646667Y-106583500D01*
X227694286Y-106631119D01*
X227741905Y-106726357D01*
X227789524Y-106916833D01*
X227789524Y-107154929D01*
X227741905Y-107345405D01*
X227694286Y-107440643D01*
X227646667Y-107488262D01*
X227551429Y-107535881D01*
X227456190Y-107535881D01*
X227360952Y-107488262D01*
X227313333Y-107440643D01*
X227265714Y-107345405D01*
X227218095Y-107154929D01*
X227218095Y-106916833D01*
X227265714Y-106726357D01*
X227313333Y-106631119D01*
X227360952Y-106583500D01*
X227456190Y-106535881D01*
X228646667Y-106869214D02*
X228646667Y-107535881D01*
X228408571Y-106488262D02*
X228170476Y-107202548D01*
X228789524Y-107202548D01*
X223881119Y-111317619D02*
X223833500Y-111412857D01*
X223738262Y-111508095D01*
X223595405Y-111650952D01*
X223547786Y-111746191D01*
X223547786Y-111841429D01*
X223785881Y-111793810D02*
X223738262Y-111889048D01*
X223643024Y-111984286D01*
X223452548Y-112031905D01*
X223119214Y-112031905D01*
X222928738Y-111984286D01*
X222833500Y-111889048D01*
X222785881Y-111793810D01*
X222785881Y-111603333D01*
X222833500Y-111508095D01*
X222928738Y-111412857D01*
X223119214Y-111365238D01*
X223452548Y-111365238D01*
X223643024Y-111412857D01*
X223738262Y-111508095D01*
X223785881Y-111603333D01*
X223785881Y-111793810D01*
X222785881Y-111031905D02*
X222785881Y-110412857D01*
X223166833Y-110746191D01*
X223166833Y-110603333D01*
X223214452Y-110508095D01*
X223262071Y-110460476D01*
X223357310Y-110412857D01*
X223595405Y-110412857D01*
X223690643Y-110460476D01*
X223738262Y-110508095D01*
X223785881Y-110603333D01*
X223785881Y-110889048D01*
X223738262Y-110984286D01*
X223690643Y-111031905D01*
X222785881Y-109793810D02*
X222785881Y-109698571D01*
X222833500Y-109603333D01*
X222881119Y-109555714D01*
X222976357Y-109508095D01*
X223166833Y-109460476D01*
X223404929Y-109460476D01*
X223595405Y-109508095D01*
X223690643Y-109555714D01*
X223738262Y-109603333D01*
X223785881Y-109698571D01*
X223785881Y-109793810D01*
X223738262Y-109889048D01*
X223690643Y-109936667D01*
X223595405Y-109984286D01*
X223404929Y-110031905D01*
X223166833Y-110031905D01*
X222976357Y-109984286D01*
X222881119Y-109936667D01*
X222833500Y-109889048D01*
X222785881Y-109793810D01*
X222785881Y-108555714D02*
X222785881Y-109031905D01*
X223262071Y-109079524D01*
X223214452Y-109031905D01*
X223166833Y-108936667D01*
X223166833Y-108698571D01*
X223214452Y-108603333D01*
X223262071Y-108555714D01*
X223357310Y-108508095D01*
X223595405Y-108508095D01*
X223690643Y-108555714D01*
X223738262Y-108603333D01*
X223785881Y-108698571D01*
X223785881Y-108936667D01*
X223738262Y-109031905D01*
X223690643Y-109079524D01*
X225932381Y-87631119D02*
X225837143Y-87583500D01*
X225741905Y-87488262D01*
X225599048Y-87345405D01*
X225503809Y-87297786D01*
X225408571Y-87297786D01*
X225456190Y-87535881D02*
X225360952Y-87488262D01*
X225265714Y-87393024D01*
X225218095Y-87202548D01*
X225218095Y-86869214D01*
X225265714Y-86678738D01*
X225360952Y-86583500D01*
X225456190Y-86535881D01*
X225646667Y-86535881D01*
X225741905Y-86583500D01*
X225837143Y-86678738D01*
X225884762Y-86869214D01*
X225884762Y-87202548D01*
X225837143Y-87393024D01*
X225741905Y-87488262D01*
X225646667Y-87535881D01*
X225456190Y-87535881D01*
X226218095Y-86535881D02*
X226837143Y-86535881D01*
X226503809Y-86916833D01*
X226646667Y-86916833D01*
X226741905Y-86964452D01*
X226789524Y-87012071D01*
X226837143Y-87107310D01*
X226837143Y-87345405D01*
X226789524Y-87440643D01*
X226741905Y-87488262D01*
X226646667Y-87535881D01*
X226360952Y-87535881D01*
X226265714Y-87488262D01*
X226218095Y-87440643D01*
X227456190Y-86535881D02*
X227551429Y-86535881D01*
X227646667Y-86583500D01*
X227694286Y-86631119D01*
X227741905Y-86726357D01*
X227789524Y-86916833D01*
X227789524Y-87154929D01*
X227741905Y-87345405D01*
X227694286Y-87440643D01*
X227646667Y-87488262D01*
X227551429Y-87535881D01*
X227456190Y-87535881D01*
X227360952Y-87488262D01*
X227313333Y-87440643D01*
X227265714Y-87345405D01*
X227218095Y-87154929D01*
X227218095Y-86916833D01*
X227265714Y-86726357D01*
X227313333Y-86631119D01*
X227360952Y-86583500D01*
X227456190Y-86535881D01*
X228646667Y-86535881D02*
X228456190Y-86535881D01*
X228360952Y-86583500D01*
X228313333Y-86631119D01*
X228218095Y-86773976D01*
X228170476Y-86964452D01*
X228170476Y-87345405D01*
X228218095Y-87440643D01*
X228265714Y-87488262D01*
X228360952Y-87535881D01*
X228551429Y-87535881D01*
X228646667Y-87488262D01*
X228694286Y-87440643D01*
X228741905Y-87345405D01*
X228741905Y-87107310D01*
X228694286Y-87012071D01*
X228646667Y-86964452D01*
X228551429Y-86916833D01*
X228360952Y-86916833D01*
X228265714Y-86964452D01*
X228218095Y-87012071D01*
X228170476Y-87107310D01*
X85972381Y-90464119D02*
X85877143Y-90416500D01*
X85781905Y-90321262D01*
X85639048Y-90178405D01*
X85543809Y-90130786D01*
X85448571Y-90130786D01*
X85496190Y-90368881D02*
X85400952Y-90321262D01*
X85305714Y-90226024D01*
X85258095Y-90035548D01*
X85258095Y-89702214D01*
X85305714Y-89511738D01*
X85400952Y-89416500D01*
X85496190Y-89368881D01*
X85686667Y-89368881D01*
X85781905Y-89416500D01*
X85877143Y-89511738D01*
X85924762Y-89702214D01*
X85924762Y-90035548D01*
X85877143Y-90226024D01*
X85781905Y-90321262D01*
X85686667Y-90368881D01*
X85496190Y-90368881D01*
X86781905Y-89702214D02*
X86781905Y-90368881D01*
X86543809Y-89321262D02*
X86305714Y-90035548D01*
X86924762Y-90035548D01*
X87496190Y-89368881D02*
X87591429Y-89368881D01*
X87686667Y-89416500D01*
X87734286Y-89464119D01*
X87781905Y-89559357D01*
X87829524Y-89749833D01*
X87829524Y-89987929D01*
X87781905Y-90178405D01*
X87734286Y-90273643D01*
X87686667Y-90321262D01*
X87591429Y-90368881D01*
X87496190Y-90368881D01*
X87400952Y-90321262D01*
X87353333Y-90273643D01*
X87305714Y-90178405D01*
X87258095Y-89987929D01*
X87258095Y-89749833D01*
X87305714Y-89559357D01*
X87353333Y-89464119D01*
X87400952Y-89416500D01*
X87496190Y-89368881D01*
X88781905Y-90368881D02*
X88210476Y-90368881D01*
X88496190Y-90368881D02*
X88496190Y-89368881D01*
X88400952Y-89511738D01*
X88305714Y-89606976D01*
X88210476Y-89654595D01*
X91214119Y-87777619D02*
X91166500Y-87872857D01*
X91071262Y-87968095D01*
X90928405Y-88110952D01*
X90880786Y-88206191D01*
X90880786Y-88301429D01*
X91118881Y-88253810D02*
X91071262Y-88349048D01*
X90976024Y-88444286D01*
X90785548Y-88491905D01*
X90452214Y-88491905D01*
X90261738Y-88444286D01*
X90166500Y-88349048D01*
X90118881Y-88253810D01*
X90118881Y-88063333D01*
X90166500Y-87968095D01*
X90261738Y-87872857D01*
X90452214Y-87825238D01*
X90785548Y-87825238D01*
X90976024Y-87872857D01*
X91071262Y-87968095D01*
X91118881Y-88063333D01*
X91118881Y-88253810D01*
X90452214Y-86968095D02*
X91118881Y-86968095D01*
X90071262Y-87206191D02*
X90785548Y-87444286D01*
X90785548Y-86825238D01*
X90118881Y-86253810D02*
X90118881Y-86158571D01*
X90166500Y-86063333D01*
X90214119Y-86015714D01*
X90309357Y-85968095D01*
X90499833Y-85920476D01*
X90737929Y-85920476D01*
X90928405Y-85968095D01*
X91023643Y-86015714D01*
X91071262Y-86063333D01*
X91118881Y-86158571D01*
X91118881Y-86253810D01*
X91071262Y-86349048D01*
X91023643Y-86396667D01*
X90928405Y-86444286D01*
X90737929Y-86491905D01*
X90499833Y-86491905D01*
X90309357Y-86444286D01*
X90214119Y-86396667D01*
X90166500Y-86349048D01*
X90118881Y-86253810D01*
X90214119Y-85539524D02*
X90166500Y-85491905D01*
X90118881Y-85396667D01*
X90118881Y-85158571D01*
X90166500Y-85063333D01*
X90214119Y-85015714D01*
X90309357Y-84968095D01*
X90404595Y-84968095D01*
X90547452Y-85015714D01*
X91118881Y-85587143D01*
X91118881Y-84968095D01*
X80432381Y-90464119D02*
X80337143Y-90416500D01*
X80241905Y-90321262D01*
X80099048Y-90178405D01*
X80003809Y-90130786D01*
X79908571Y-90130786D01*
X79956190Y-90368881D02*
X79860952Y-90321262D01*
X79765714Y-90226024D01*
X79718095Y-90035548D01*
X79718095Y-89702214D01*
X79765714Y-89511738D01*
X79860952Y-89416500D01*
X79956190Y-89368881D01*
X80146667Y-89368881D01*
X80241905Y-89416500D01*
X80337143Y-89511738D01*
X80384762Y-89702214D01*
X80384762Y-90035548D01*
X80337143Y-90226024D01*
X80241905Y-90321262D01*
X80146667Y-90368881D01*
X79956190Y-90368881D01*
X81241905Y-89702214D02*
X81241905Y-90368881D01*
X81003809Y-89321262D02*
X80765714Y-90035548D01*
X81384762Y-90035548D01*
X81956190Y-89368881D02*
X82051429Y-89368881D01*
X82146667Y-89416500D01*
X82194286Y-89464119D01*
X82241905Y-89559357D01*
X82289524Y-89749833D01*
X82289524Y-89987929D01*
X82241905Y-90178405D01*
X82194286Y-90273643D01*
X82146667Y-90321262D01*
X82051429Y-90368881D01*
X81956190Y-90368881D01*
X81860952Y-90321262D01*
X81813333Y-90273643D01*
X81765714Y-90178405D01*
X81718095Y-89987929D01*
X81718095Y-89749833D01*
X81765714Y-89559357D01*
X81813333Y-89464119D01*
X81860952Y-89416500D01*
X81956190Y-89368881D01*
X82622857Y-89368881D02*
X83241905Y-89368881D01*
X82908571Y-89749833D01*
X83051429Y-89749833D01*
X83146667Y-89797452D01*
X83194286Y-89845071D01*
X83241905Y-89940310D01*
X83241905Y-90178405D01*
X83194286Y-90273643D01*
X83146667Y-90321262D01*
X83051429Y-90368881D01*
X82765714Y-90368881D01*
X82670476Y-90321262D01*
X82622857Y-90273643D01*
X85972381Y-110464119D02*
X85877143Y-110416500D01*
X85781905Y-110321262D01*
X85639048Y-110178405D01*
X85543809Y-110130786D01*
X85448571Y-110130786D01*
X85496190Y-110368881D02*
X85400952Y-110321262D01*
X85305714Y-110226024D01*
X85258095Y-110035548D01*
X85258095Y-109702214D01*
X85305714Y-109511738D01*
X85400952Y-109416500D01*
X85496190Y-109368881D01*
X85686667Y-109368881D01*
X85781905Y-109416500D01*
X85877143Y-109511738D01*
X85924762Y-109702214D01*
X85924762Y-110035548D01*
X85877143Y-110226024D01*
X85781905Y-110321262D01*
X85686667Y-110368881D01*
X85496190Y-110368881D01*
X86781905Y-109702214D02*
X86781905Y-110368881D01*
X86543809Y-109321262D02*
X86305714Y-110035548D01*
X86924762Y-110035548D01*
X87496190Y-109368881D02*
X87591429Y-109368881D01*
X87686667Y-109416500D01*
X87734286Y-109464119D01*
X87781905Y-109559357D01*
X87829524Y-109749833D01*
X87829524Y-109987929D01*
X87781905Y-110178405D01*
X87734286Y-110273643D01*
X87686667Y-110321262D01*
X87591429Y-110368881D01*
X87496190Y-110368881D01*
X87400952Y-110321262D01*
X87353333Y-110273643D01*
X87305714Y-110178405D01*
X87258095Y-109987929D01*
X87258095Y-109749833D01*
X87305714Y-109559357D01*
X87353333Y-109464119D01*
X87400952Y-109416500D01*
X87496190Y-109368881D01*
X88686667Y-109702214D02*
X88686667Y-110368881D01*
X88448571Y-109321262D02*
X88210476Y-110035548D01*
X88829524Y-110035548D01*
X91214119Y-107777619D02*
X91166500Y-107872857D01*
X91071262Y-107968095D01*
X90928405Y-108110952D01*
X90880786Y-108206191D01*
X90880786Y-108301429D01*
X91118881Y-108253810D02*
X91071262Y-108349048D01*
X90976024Y-108444286D01*
X90785548Y-108491905D01*
X90452214Y-108491905D01*
X90261738Y-108444286D01*
X90166500Y-108349048D01*
X90118881Y-108253810D01*
X90118881Y-108063333D01*
X90166500Y-107968095D01*
X90261738Y-107872857D01*
X90452214Y-107825238D01*
X90785548Y-107825238D01*
X90976024Y-107872857D01*
X91071262Y-107968095D01*
X91118881Y-108063333D01*
X91118881Y-108253810D01*
X90452214Y-106968095D02*
X91118881Y-106968095D01*
X90071262Y-107206191D02*
X90785548Y-107444286D01*
X90785548Y-106825238D01*
X90118881Y-106253810D02*
X90118881Y-106158571D01*
X90166500Y-106063333D01*
X90214119Y-106015714D01*
X90309357Y-105968095D01*
X90499833Y-105920476D01*
X90737929Y-105920476D01*
X90928405Y-105968095D01*
X91023643Y-106015714D01*
X91071262Y-106063333D01*
X91118881Y-106158571D01*
X91118881Y-106253810D01*
X91071262Y-106349048D01*
X91023643Y-106396667D01*
X90928405Y-106444286D01*
X90737929Y-106491905D01*
X90499833Y-106491905D01*
X90309357Y-106444286D01*
X90214119Y-106396667D01*
X90166500Y-106349048D01*
X90118881Y-106253810D01*
X90118881Y-105015714D02*
X90118881Y-105491905D01*
X90595071Y-105539524D01*
X90547452Y-105491905D01*
X90499833Y-105396667D01*
X90499833Y-105158571D01*
X90547452Y-105063333D01*
X90595071Y-105015714D01*
X90690310Y-104968095D01*
X90928405Y-104968095D01*
X91023643Y-105015714D01*
X91071262Y-105063333D01*
X91118881Y-105158571D01*
X91118881Y-105396667D01*
X91071262Y-105491905D01*
X91023643Y-105539524D01*
X85972381Y-130464119D02*
X85877143Y-130416500D01*
X85781905Y-130321262D01*
X85639048Y-130178405D01*
X85543809Y-130130786D01*
X85448571Y-130130786D01*
X85496190Y-130368881D02*
X85400952Y-130321262D01*
X85305714Y-130226024D01*
X85258095Y-130035548D01*
X85258095Y-129702214D01*
X85305714Y-129511738D01*
X85400952Y-129416500D01*
X85496190Y-129368881D01*
X85686667Y-129368881D01*
X85781905Y-129416500D01*
X85877143Y-129511738D01*
X85924762Y-129702214D01*
X85924762Y-130035548D01*
X85877143Y-130226024D01*
X85781905Y-130321262D01*
X85686667Y-130368881D01*
X85496190Y-130368881D01*
X86781905Y-129702214D02*
X86781905Y-130368881D01*
X86543809Y-129321262D02*
X86305714Y-130035548D01*
X86924762Y-130035548D01*
X87496190Y-129368881D02*
X87591429Y-129368881D01*
X87686667Y-129416500D01*
X87734286Y-129464119D01*
X87781905Y-129559357D01*
X87829524Y-129749833D01*
X87829524Y-129987929D01*
X87781905Y-130178405D01*
X87734286Y-130273643D01*
X87686667Y-130321262D01*
X87591429Y-130368881D01*
X87496190Y-130368881D01*
X87400952Y-130321262D01*
X87353333Y-130273643D01*
X87305714Y-130178405D01*
X87258095Y-129987929D01*
X87258095Y-129749833D01*
X87305714Y-129559357D01*
X87353333Y-129464119D01*
X87400952Y-129416500D01*
X87496190Y-129368881D01*
X88686667Y-129368881D02*
X88496190Y-129368881D01*
X88400952Y-129416500D01*
X88353333Y-129464119D01*
X88258095Y-129606976D01*
X88210476Y-129797452D01*
X88210476Y-130178405D01*
X88258095Y-130273643D01*
X88305714Y-130321262D01*
X88400952Y-130368881D01*
X88591429Y-130368881D01*
X88686667Y-130321262D01*
X88734286Y-130273643D01*
X88781905Y-130178405D01*
X88781905Y-129940310D01*
X88734286Y-129845071D01*
X88686667Y-129797452D01*
X88591429Y-129749833D01*
X88400952Y-129749833D01*
X88305714Y-129797452D01*
X88258095Y-129845071D01*
X88210476Y-129940310D01*
X85972381Y-170464119D02*
X85877143Y-170416500D01*
X85781905Y-170321262D01*
X85639048Y-170178405D01*
X85543809Y-170130786D01*
X85448571Y-170130786D01*
X85496190Y-170368881D02*
X85400952Y-170321262D01*
X85305714Y-170226024D01*
X85258095Y-170035548D01*
X85258095Y-169702214D01*
X85305714Y-169511738D01*
X85400952Y-169416500D01*
X85496190Y-169368881D01*
X85686667Y-169368881D01*
X85781905Y-169416500D01*
X85877143Y-169511738D01*
X85924762Y-169702214D01*
X85924762Y-170035548D01*
X85877143Y-170226024D01*
X85781905Y-170321262D01*
X85686667Y-170368881D01*
X85496190Y-170368881D01*
X86829524Y-169368881D02*
X86353333Y-169368881D01*
X86305714Y-169845071D01*
X86353333Y-169797452D01*
X86448571Y-169749833D01*
X86686667Y-169749833D01*
X86781905Y-169797452D01*
X86829524Y-169845071D01*
X86877143Y-169940310D01*
X86877143Y-170178405D01*
X86829524Y-170273643D01*
X86781905Y-170321262D01*
X86686667Y-170368881D01*
X86448571Y-170368881D01*
X86353333Y-170321262D01*
X86305714Y-170273643D01*
X87496190Y-169368881D02*
X87591429Y-169368881D01*
X87686667Y-169416500D01*
X87734286Y-169464119D01*
X87781905Y-169559357D01*
X87829524Y-169749833D01*
X87829524Y-169987929D01*
X87781905Y-170178405D01*
X87734286Y-170273643D01*
X87686667Y-170321262D01*
X87591429Y-170368881D01*
X87496190Y-170368881D01*
X87400952Y-170321262D01*
X87353333Y-170273643D01*
X87305714Y-170178405D01*
X87258095Y-169987929D01*
X87258095Y-169749833D01*
X87305714Y-169559357D01*
X87353333Y-169464119D01*
X87400952Y-169416500D01*
X87496190Y-169368881D01*
X88781905Y-170368881D02*
X88210476Y-170368881D01*
X88496190Y-170368881D02*
X88496190Y-169368881D01*
X88400952Y-169511738D01*
X88305714Y-169606976D01*
X88210476Y-169654595D01*
X91214119Y-167817619D02*
X91166500Y-167912857D01*
X91071262Y-168008095D01*
X90928405Y-168150952D01*
X90880786Y-168246191D01*
X90880786Y-168341429D01*
X91118881Y-168293810D02*
X91071262Y-168389048D01*
X90976024Y-168484286D01*
X90785548Y-168531905D01*
X90452214Y-168531905D01*
X90261738Y-168484286D01*
X90166500Y-168389048D01*
X90118881Y-168293810D01*
X90118881Y-168103333D01*
X90166500Y-168008095D01*
X90261738Y-167912857D01*
X90452214Y-167865238D01*
X90785548Y-167865238D01*
X90976024Y-167912857D01*
X91071262Y-168008095D01*
X91118881Y-168103333D01*
X91118881Y-168293810D01*
X90118881Y-166960476D02*
X90118881Y-167436667D01*
X90595071Y-167484286D01*
X90547452Y-167436667D01*
X90499833Y-167341429D01*
X90499833Y-167103333D01*
X90547452Y-167008095D01*
X90595071Y-166960476D01*
X90690310Y-166912857D01*
X90928405Y-166912857D01*
X91023643Y-166960476D01*
X91071262Y-167008095D01*
X91118881Y-167103333D01*
X91118881Y-167341429D01*
X91071262Y-167436667D01*
X91023643Y-167484286D01*
X90118881Y-166293810D02*
X90118881Y-166198571D01*
X90166500Y-166103333D01*
X90214119Y-166055714D01*
X90309357Y-166008095D01*
X90499833Y-165960476D01*
X90737929Y-165960476D01*
X90928405Y-166008095D01*
X91023643Y-166055714D01*
X91071262Y-166103333D01*
X91118881Y-166198571D01*
X91118881Y-166293810D01*
X91071262Y-166389048D01*
X91023643Y-166436667D01*
X90928405Y-166484286D01*
X90737929Y-166531905D01*
X90499833Y-166531905D01*
X90309357Y-166484286D01*
X90214119Y-166436667D01*
X90166500Y-166389048D01*
X90118881Y-166293810D01*
X90214119Y-165579524D02*
X90166500Y-165531905D01*
X90118881Y-165436667D01*
X90118881Y-165198571D01*
X90166500Y-165103333D01*
X90214119Y-165055714D01*
X90309357Y-165008095D01*
X90404595Y-165008095D01*
X90547452Y-165055714D01*
X91118881Y-165627143D01*
X91118881Y-165008095D01*
X80432381Y-170464119D02*
X80337143Y-170416500D01*
X80241905Y-170321262D01*
X80099048Y-170178405D01*
X80003809Y-170130786D01*
X79908571Y-170130786D01*
X79956190Y-170368881D02*
X79860952Y-170321262D01*
X79765714Y-170226024D01*
X79718095Y-170035548D01*
X79718095Y-169702214D01*
X79765714Y-169511738D01*
X79860952Y-169416500D01*
X79956190Y-169368881D01*
X80146667Y-169368881D01*
X80241905Y-169416500D01*
X80337143Y-169511738D01*
X80384762Y-169702214D01*
X80384762Y-170035548D01*
X80337143Y-170226024D01*
X80241905Y-170321262D01*
X80146667Y-170368881D01*
X79956190Y-170368881D01*
X81289524Y-169368881D02*
X80813333Y-169368881D01*
X80765714Y-169845071D01*
X80813333Y-169797452D01*
X80908571Y-169749833D01*
X81146667Y-169749833D01*
X81241905Y-169797452D01*
X81289524Y-169845071D01*
X81337143Y-169940310D01*
X81337143Y-170178405D01*
X81289524Y-170273643D01*
X81241905Y-170321262D01*
X81146667Y-170368881D01*
X80908571Y-170368881D01*
X80813333Y-170321262D01*
X80765714Y-170273643D01*
X81956190Y-169368881D02*
X82051429Y-169368881D01*
X82146667Y-169416500D01*
X82194286Y-169464119D01*
X82241905Y-169559357D01*
X82289524Y-169749833D01*
X82289524Y-169987929D01*
X82241905Y-170178405D01*
X82194286Y-170273643D01*
X82146667Y-170321262D01*
X82051429Y-170368881D01*
X81956190Y-170368881D01*
X81860952Y-170321262D01*
X81813333Y-170273643D01*
X81765714Y-170178405D01*
X81718095Y-169987929D01*
X81718095Y-169749833D01*
X81765714Y-169559357D01*
X81813333Y-169464119D01*
X81860952Y-169416500D01*
X81956190Y-169368881D01*
X82622857Y-169368881D02*
X83241905Y-169368881D01*
X82908571Y-169749833D01*
X83051429Y-169749833D01*
X83146667Y-169797452D01*
X83194286Y-169845071D01*
X83241905Y-169940310D01*
X83241905Y-170178405D01*
X83194286Y-170273643D01*
X83146667Y-170321262D01*
X83051429Y-170368881D01*
X82765714Y-170368881D01*
X82670476Y-170321262D01*
X82622857Y-170273643D01*
X85972381Y-190464119D02*
X85877143Y-190416500D01*
X85781905Y-190321262D01*
X85639048Y-190178405D01*
X85543809Y-190130786D01*
X85448571Y-190130786D01*
X85496190Y-190368881D02*
X85400952Y-190321262D01*
X85305714Y-190226024D01*
X85258095Y-190035548D01*
X85258095Y-189702214D01*
X85305714Y-189511738D01*
X85400952Y-189416500D01*
X85496190Y-189368881D01*
X85686667Y-189368881D01*
X85781905Y-189416500D01*
X85877143Y-189511738D01*
X85924762Y-189702214D01*
X85924762Y-190035548D01*
X85877143Y-190226024D01*
X85781905Y-190321262D01*
X85686667Y-190368881D01*
X85496190Y-190368881D01*
X86829524Y-189368881D02*
X86353333Y-189368881D01*
X86305714Y-189845071D01*
X86353333Y-189797452D01*
X86448571Y-189749833D01*
X86686667Y-189749833D01*
X86781905Y-189797452D01*
X86829524Y-189845071D01*
X86877143Y-189940310D01*
X86877143Y-190178405D01*
X86829524Y-190273643D01*
X86781905Y-190321262D01*
X86686667Y-190368881D01*
X86448571Y-190368881D01*
X86353333Y-190321262D01*
X86305714Y-190273643D01*
X87496190Y-189368881D02*
X87591429Y-189368881D01*
X87686667Y-189416500D01*
X87734286Y-189464119D01*
X87781905Y-189559357D01*
X87829524Y-189749833D01*
X87829524Y-189987929D01*
X87781905Y-190178405D01*
X87734286Y-190273643D01*
X87686667Y-190321262D01*
X87591429Y-190368881D01*
X87496190Y-190368881D01*
X87400952Y-190321262D01*
X87353333Y-190273643D01*
X87305714Y-190178405D01*
X87258095Y-189987929D01*
X87258095Y-189749833D01*
X87305714Y-189559357D01*
X87353333Y-189464119D01*
X87400952Y-189416500D01*
X87496190Y-189368881D01*
X88686667Y-189702214D02*
X88686667Y-190368881D01*
X88448571Y-189321262D02*
X88210476Y-190035548D01*
X88829524Y-190035548D01*
X91214119Y-187777619D02*
X91166500Y-187872857D01*
X91071262Y-187968095D01*
X90928405Y-188110952D01*
X90880786Y-188206191D01*
X90880786Y-188301429D01*
X91118881Y-188253810D02*
X91071262Y-188349048D01*
X90976024Y-188444286D01*
X90785548Y-188491905D01*
X90452214Y-188491905D01*
X90261738Y-188444286D01*
X90166500Y-188349048D01*
X90118881Y-188253810D01*
X90118881Y-188063333D01*
X90166500Y-187968095D01*
X90261738Y-187872857D01*
X90452214Y-187825238D01*
X90785548Y-187825238D01*
X90976024Y-187872857D01*
X91071262Y-187968095D01*
X91118881Y-188063333D01*
X91118881Y-188253810D01*
X90118881Y-186920476D02*
X90118881Y-187396667D01*
X90595071Y-187444286D01*
X90547452Y-187396667D01*
X90499833Y-187301429D01*
X90499833Y-187063333D01*
X90547452Y-186968095D01*
X90595071Y-186920476D01*
X90690310Y-186872857D01*
X90928405Y-186872857D01*
X91023643Y-186920476D01*
X91071262Y-186968095D01*
X91118881Y-187063333D01*
X91118881Y-187301429D01*
X91071262Y-187396667D01*
X91023643Y-187444286D01*
X90118881Y-186253810D02*
X90118881Y-186158571D01*
X90166500Y-186063333D01*
X90214119Y-186015714D01*
X90309357Y-185968095D01*
X90499833Y-185920476D01*
X90737929Y-185920476D01*
X90928405Y-185968095D01*
X91023643Y-186015714D01*
X91071262Y-186063333D01*
X91118881Y-186158571D01*
X91118881Y-186253810D01*
X91071262Y-186349048D01*
X91023643Y-186396667D01*
X90928405Y-186444286D01*
X90737929Y-186491905D01*
X90499833Y-186491905D01*
X90309357Y-186444286D01*
X90214119Y-186396667D01*
X90166500Y-186349048D01*
X90118881Y-186253810D01*
X90118881Y-185015714D02*
X90118881Y-185491905D01*
X90595071Y-185539524D01*
X90547452Y-185491905D01*
X90499833Y-185396667D01*
X90499833Y-185158571D01*
X90547452Y-185063333D01*
X90595071Y-185015714D01*
X90690310Y-184968095D01*
X90928405Y-184968095D01*
X91023643Y-185015714D01*
X91071262Y-185063333D01*
X91118881Y-185158571D01*
X91118881Y-185396667D01*
X91071262Y-185491905D01*
X91023643Y-185539524D01*
X85972381Y-210464119D02*
X85877143Y-210416500D01*
X85781905Y-210321262D01*
X85639048Y-210178405D01*
X85543809Y-210130786D01*
X85448571Y-210130786D01*
X85496190Y-210368881D02*
X85400952Y-210321262D01*
X85305714Y-210226024D01*
X85258095Y-210035548D01*
X85258095Y-209702214D01*
X85305714Y-209511738D01*
X85400952Y-209416500D01*
X85496190Y-209368881D01*
X85686667Y-209368881D01*
X85781905Y-209416500D01*
X85877143Y-209511738D01*
X85924762Y-209702214D01*
X85924762Y-210035548D01*
X85877143Y-210226024D01*
X85781905Y-210321262D01*
X85686667Y-210368881D01*
X85496190Y-210368881D01*
X86829524Y-209368881D02*
X86353333Y-209368881D01*
X86305714Y-209845071D01*
X86353333Y-209797452D01*
X86448571Y-209749833D01*
X86686667Y-209749833D01*
X86781905Y-209797452D01*
X86829524Y-209845071D01*
X86877143Y-209940310D01*
X86877143Y-210178405D01*
X86829524Y-210273643D01*
X86781905Y-210321262D01*
X86686667Y-210368881D01*
X86448571Y-210368881D01*
X86353333Y-210321262D01*
X86305714Y-210273643D01*
X87496190Y-209368881D02*
X87591429Y-209368881D01*
X87686667Y-209416500D01*
X87734286Y-209464119D01*
X87781905Y-209559357D01*
X87829524Y-209749833D01*
X87829524Y-209987929D01*
X87781905Y-210178405D01*
X87734286Y-210273643D01*
X87686667Y-210321262D01*
X87591429Y-210368881D01*
X87496190Y-210368881D01*
X87400952Y-210321262D01*
X87353333Y-210273643D01*
X87305714Y-210178405D01*
X87258095Y-209987929D01*
X87258095Y-209749833D01*
X87305714Y-209559357D01*
X87353333Y-209464119D01*
X87400952Y-209416500D01*
X87496190Y-209368881D01*
X88686667Y-209368881D02*
X88496190Y-209368881D01*
X88400952Y-209416500D01*
X88353333Y-209464119D01*
X88258095Y-209606976D01*
X88210476Y-209797452D01*
X88210476Y-210178405D01*
X88258095Y-210273643D01*
X88305714Y-210321262D01*
X88400952Y-210368881D01*
X88591429Y-210368881D01*
X88686667Y-210321262D01*
X88734286Y-210273643D01*
X88781905Y-210178405D01*
X88781905Y-209940310D01*
X88734286Y-209845071D01*
X88686667Y-209797452D01*
X88591429Y-209749833D01*
X88400952Y-209749833D01*
X88305714Y-209797452D01*
X88258095Y-209845071D01*
X88210476Y-209940310D01*
X171670953Y-232452381D02*
X171337619Y-231976190D01*
X171099524Y-232452381D02*
X171099524Y-231452381D01*
X171480477Y-231452381D01*
X171575715Y-231500000D01*
X171623334Y-231547619D01*
X171670953Y-231642857D01*
X171670953Y-231785714D01*
X171623334Y-231880952D01*
X171575715Y-231928571D01*
X171480477Y-231976190D01*
X171099524Y-231976190D01*
X172623334Y-232452381D02*
X172051905Y-232452381D01*
X172337619Y-232452381D02*
X172337619Y-231452381D01*
X172242381Y-231595238D01*
X172147143Y-231690476D01*
X172051905Y-231738095D01*
X173242381Y-231452381D02*
X173337620Y-231452381D01*
X173432858Y-231500000D01*
X173480477Y-231547619D01*
X173528096Y-231642857D01*
X173575715Y-231833333D01*
X173575715Y-232071429D01*
X173528096Y-232261905D01*
X173480477Y-232357143D01*
X173432858Y-232404762D01*
X173337620Y-232452381D01*
X173242381Y-232452381D01*
X173147143Y-232404762D01*
X173099524Y-232357143D01*
X173051905Y-232261905D01*
X173004286Y-232071429D01*
X173004286Y-231833333D01*
X173051905Y-231642857D01*
X173099524Y-231547619D01*
X173147143Y-231500000D01*
X173242381Y-231452381D01*
X174528096Y-232452381D02*
X173956667Y-232452381D01*
X174242381Y-232452381D02*
X174242381Y-231452381D01*
X174147143Y-231595238D01*
X174051905Y-231690476D01*
X173956667Y-231738095D01*
X171670953Y-234952381D02*
X171337619Y-234476190D01*
X171099524Y-234952381D02*
X171099524Y-233952381D01*
X171480477Y-233952381D01*
X171575715Y-234000000D01*
X171623334Y-234047619D01*
X171670953Y-234142857D01*
X171670953Y-234285714D01*
X171623334Y-234380952D01*
X171575715Y-234428571D01*
X171480477Y-234476190D01*
X171099524Y-234476190D01*
X172623334Y-234952381D02*
X172051905Y-234952381D01*
X172337619Y-234952381D02*
X172337619Y-233952381D01*
X172242381Y-234095238D01*
X172147143Y-234190476D01*
X172051905Y-234238095D01*
X173242381Y-233952381D02*
X173337620Y-233952381D01*
X173432858Y-234000000D01*
X173480477Y-234047619D01*
X173528096Y-234142857D01*
X173575715Y-234333333D01*
X173575715Y-234571429D01*
X173528096Y-234761905D01*
X173480477Y-234857143D01*
X173432858Y-234904762D01*
X173337620Y-234952381D01*
X173242381Y-234952381D01*
X173147143Y-234904762D01*
X173099524Y-234857143D01*
X173051905Y-234761905D01*
X173004286Y-234571429D01*
X173004286Y-234333333D01*
X173051905Y-234142857D01*
X173099524Y-234047619D01*
X173147143Y-234000000D01*
X173242381Y-233952381D01*
X173956667Y-234047619D02*
X174004286Y-234000000D01*
X174099524Y-233952381D01*
X174337620Y-233952381D01*
X174432858Y-234000000D01*
X174480477Y-234047619D01*
X174528096Y-234142857D01*
X174528096Y-234238095D01*
X174480477Y-234380952D01*
X173909048Y-234952381D01*
X174528096Y-234952381D01*
X171670953Y-237452381D02*
X171337619Y-236976190D01*
X171099524Y-237452381D02*
X171099524Y-236452381D01*
X171480477Y-236452381D01*
X171575715Y-236500000D01*
X171623334Y-236547619D01*
X171670953Y-236642857D01*
X171670953Y-236785714D01*
X171623334Y-236880952D01*
X171575715Y-236928571D01*
X171480477Y-236976190D01*
X171099524Y-236976190D01*
X172623334Y-237452381D02*
X172051905Y-237452381D01*
X172337619Y-237452381D02*
X172337619Y-236452381D01*
X172242381Y-236595238D01*
X172147143Y-236690476D01*
X172051905Y-236738095D01*
X173242381Y-236452381D02*
X173337620Y-236452381D01*
X173432858Y-236500000D01*
X173480477Y-236547619D01*
X173528096Y-236642857D01*
X173575715Y-236833333D01*
X173575715Y-237071429D01*
X173528096Y-237261905D01*
X173480477Y-237357143D01*
X173432858Y-237404762D01*
X173337620Y-237452381D01*
X173242381Y-237452381D01*
X173147143Y-237404762D01*
X173099524Y-237357143D01*
X173051905Y-237261905D01*
X173004286Y-237071429D01*
X173004286Y-236833333D01*
X173051905Y-236642857D01*
X173099524Y-236547619D01*
X173147143Y-236500000D01*
X173242381Y-236452381D01*
X173909048Y-236452381D02*
X174528096Y-236452381D01*
X174194762Y-236833333D01*
X174337620Y-236833333D01*
X174432858Y-236880952D01*
X174480477Y-236928571D01*
X174528096Y-237023810D01*
X174528096Y-237261905D01*
X174480477Y-237357143D01*
X174432858Y-237404762D01*
X174337620Y-237452381D01*
X174051905Y-237452381D01*
X173956667Y-237404762D01*
X173909048Y-237357143D01*
X171670953Y-239952381D02*
X171337619Y-239476190D01*
X171099524Y-239952381D02*
X171099524Y-238952381D01*
X171480477Y-238952381D01*
X171575715Y-239000000D01*
X171623334Y-239047619D01*
X171670953Y-239142857D01*
X171670953Y-239285714D01*
X171623334Y-239380952D01*
X171575715Y-239428571D01*
X171480477Y-239476190D01*
X171099524Y-239476190D01*
X172623334Y-239952381D02*
X172051905Y-239952381D01*
X172337619Y-239952381D02*
X172337619Y-238952381D01*
X172242381Y-239095238D01*
X172147143Y-239190476D01*
X172051905Y-239238095D01*
X173242381Y-238952381D02*
X173337620Y-238952381D01*
X173432858Y-239000000D01*
X173480477Y-239047619D01*
X173528096Y-239142857D01*
X173575715Y-239333333D01*
X173575715Y-239571429D01*
X173528096Y-239761905D01*
X173480477Y-239857143D01*
X173432858Y-239904762D01*
X173337620Y-239952381D01*
X173242381Y-239952381D01*
X173147143Y-239904762D01*
X173099524Y-239857143D01*
X173051905Y-239761905D01*
X173004286Y-239571429D01*
X173004286Y-239333333D01*
X173051905Y-239142857D01*
X173099524Y-239047619D01*
X173147143Y-239000000D01*
X173242381Y-238952381D01*
X174432858Y-239285714D02*
X174432858Y-239952381D01*
X174194762Y-238904762D02*
X173956667Y-239619048D01*
X174575715Y-239619048D01*
X227340953Y-209952381D02*
X227007619Y-209476190D01*
X226769524Y-209952381D02*
X226769524Y-208952381D01*
X227150477Y-208952381D01*
X227245715Y-209000000D01*
X227293334Y-209047619D01*
X227340953Y-209142857D01*
X227340953Y-209285714D01*
X227293334Y-209380952D01*
X227245715Y-209428571D01*
X227150477Y-209476190D01*
X226769524Y-209476190D01*
X227721905Y-209047619D02*
X227769524Y-209000000D01*
X227864762Y-208952381D01*
X228102858Y-208952381D01*
X228198096Y-209000000D01*
X228245715Y-209047619D01*
X228293334Y-209142857D01*
X228293334Y-209238095D01*
X228245715Y-209380952D01*
X227674286Y-209952381D01*
X228293334Y-209952381D01*
X228912381Y-208952381D02*
X229007620Y-208952381D01*
X229102858Y-209000000D01*
X229150477Y-209047619D01*
X229198096Y-209142857D01*
X229245715Y-209333333D01*
X229245715Y-209571429D01*
X229198096Y-209761905D01*
X229150477Y-209857143D01*
X229102858Y-209904762D01*
X229007620Y-209952381D01*
X228912381Y-209952381D01*
X228817143Y-209904762D01*
X228769524Y-209857143D01*
X228721905Y-209761905D01*
X228674286Y-209571429D01*
X228674286Y-209333333D01*
X228721905Y-209142857D01*
X228769524Y-209047619D01*
X228817143Y-209000000D01*
X228912381Y-208952381D01*
X230198096Y-209952381D02*
X229626667Y-209952381D01*
X229912381Y-209952381D02*
X229912381Y-208952381D01*
X229817143Y-209095238D01*
X229721905Y-209190476D01*
X229626667Y-209238095D01*
X227340953Y-212202381D02*
X227007619Y-211726190D01*
X226769524Y-212202381D02*
X226769524Y-211202381D01*
X227150477Y-211202381D01*
X227245715Y-211250000D01*
X227293334Y-211297619D01*
X227340953Y-211392857D01*
X227340953Y-211535714D01*
X227293334Y-211630952D01*
X227245715Y-211678571D01*
X227150477Y-211726190D01*
X226769524Y-211726190D01*
X227721905Y-211297619D02*
X227769524Y-211250000D01*
X227864762Y-211202381D01*
X228102858Y-211202381D01*
X228198096Y-211250000D01*
X228245715Y-211297619D01*
X228293334Y-211392857D01*
X228293334Y-211488095D01*
X228245715Y-211630952D01*
X227674286Y-212202381D01*
X228293334Y-212202381D01*
X228912381Y-211202381D02*
X229007620Y-211202381D01*
X229102858Y-211250000D01*
X229150477Y-211297619D01*
X229198096Y-211392857D01*
X229245715Y-211583333D01*
X229245715Y-211821429D01*
X229198096Y-212011905D01*
X229150477Y-212107143D01*
X229102858Y-212154762D01*
X229007620Y-212202381D01*
X228912381Y-212202381D01*
X228817143Y-212154762D01*
X228769524Y-212107143D01*
X228721905Y-212011905D01*
X228674286Y-211821429D01*
X228674286Y-211583333D01*
X228721905Y-211392857D01*
X228769524Y-211297619D01*
X228817143Y-211250000D01*
X228912381Y-211202381D01*
X229626667Y-211297619D02*
X229674286Y-211250000D01*
X229769524Y-211202381D01*
X230007620Y-211202381D01*
X230102858Y-211250000D01*
X230150477Y-211297619D01*
X230198096Y-211392857D01*
X230198096Y-211488095D01*
X230150477Y-211630952D01*
X229579048Y-212202381D01*
X230198096Y-212202381D01*
X227340953Y-189952381D02*
X227007619Y-189476190D01*
X226769524Y-189952381D02*
X226769524Y-188952381D01*
X227150477Y-188952381D01*
X227245715Y-189000000D01*
X227293334Y-189047619D01*
X227340953Y-189142857D01*
X227340953Y-189285714D01*
X227293334Y-189380952D01*
X227245715Y-189428571D01*
X227150477Y-189476190D01*
X226769524Y-189476190D01*
X227721905Y-189047619D02*
X227769524Y-189000000D01*
X227864762Y-188952381D01*
X228102858Y-188952381D01*
X228198096Y-189000000D01*
X228245715Y-189047619D01*
X228293334Y-189142857D01*
X228293334Y-189238095D01*
X228245715Y-189380952D01*
X227674286Y-189952381D01*
X228293334Y-189952381D01*
X228912381Y-188952381D02*
X229007620Y-188952381D01*
X229102858Y-189000000D01*
X229150477Y-189047619D01*
X229198096Y-189142857D01*
X229245715Y-189333333D01*
X229245715Y-189571429D01*
X229198096Y-189761905D01*
X229150477Y-189857143D01*
X229102858Y-189904762D01*
X229007620Y-189952381D01*
X228912381Y-189952381D01*
X228817143Y-189904762D01*
X228769524Y-189857143D01*
X228721905Y-189761905D01*
X228674286Y-189571429D01*
X228674286Y-189333333D01*
X228721905Y-189142857D01*
X228769524Y-189047619D01*
X228817143Y-189000000D01*
X228912381Y-188952381D01*
X229579048Y-188952381D02*
X230198096Y-188952381D01*
X229864762Y-189333333D01*
X230007620Y-189333333D01*
X230102858Y-189380952D01*
X230150477Y-189428571D01*
X230198096Y-189523810D01*
X230198096Y-189761905D01*
X230150477Y-189857143D01*
X230102858Y-189904762D01*
X230007620Y-189952381D01*
X229721905Y-189952381D01*
X229626667Y-189904762D01*
X229579048Y-189857143D01*
X227340953Y-192202381D02*
X227007619Y-191726190D01*
X226769524Y-192202381D02*
X226769524Y-191202381D01*
X227150477Y-191202381D01*
X227245715Y-191250000D01*
X227293334Y-191297619D01*
X227340953Y-191392857D01*
X227340953Y-191535714D01*
X227293334Y-191630952D01*
X227245715Y-191678571D01*
X227150477Y-191726190D01*
X226769524Y-191726190D01*
X227721905Y-191297619D02*
X227769524Y-191250000D01*
X227864762Y-191202381D01*
X228102858Y-191202381D01*
X228198096Y-191250000D01*
X228245715Y-191297619D01*
X228293334Y-191392857D01*
X228293334Y-191488095D01*
X228245715Y-191630952D01*
X227674286Y-192202381D01*
X228293334Y-192202381D01*
X228912381Y-191202381D02*
X229007620Y-191202381D01*
X229102858Y-191250000D01*
X229150477Y-191297619D01*
X229198096Y-191392857D01*
X229245715Y-191583333D01*
X229245715Y-191821429D01*
X229198096Y-192011905D01*
X229150477Y-192107143D01*
X229102858Y-192154762D01*
X229007620Y-192202381D01*
X228912381Y-192202381D01*
X228817143Y-192154762D01*
X228769524Y-192107143D01*
X228721905Y-192011905D01*
X228674286Y-191821429D01*
X228674286Y-191583333D01*
X228721905Y-191392857D01*
X228769524Y-191297619D01*
X228817143Y-191250000D01*
X228912381Y-191202381D01*
X230102858Y-191535714D02*
X230102858Y-192202381D01*
X229864762Y-191154762D02*
X229626667Y-191869048D01*
X230245715Y-191869048D01*
X227340953Y-129952381D02*
X227007619Y-129476190D01*
X226769524Y-129952381D02*
X226769524Y-128952381D01*
X227150477Y-128952381D01*
X227245715Y-129000000D01*
X227293334Y-129047619D01*
X227340953Y-129142857D01*
X227340953Y-129285714D01*
X227293334Y-129380952D01*
X227245715Y-129428571D01*
X227150477Y-129476190D01*
X226769524Y-129476190D01*
X227674286Y-128952381D02*
X228293334Y-128952381D01*
X227960000Y-129333333D01*
X228102858Y-129333333D01*
X228198096Y-129380952D01*
X228245715Y-129428571D01*
X228293334Y-129523810D01*
X228293334Y-129761905D01*
X228245715Y-129857143D01*
X228198096Y-129904762D01*
X228102858Y-129952381D01*
X227817143Y-129952381D01*
X227721905Y-129904762D01*
X227674286Y-129857143D01*
X228912381Y-128952381D02*
X229007620Y-128952381D01*
X229102858Y-129000000D01*
X229150477Y-129047619D01*
X229198096Y-129142857D01*
X229245715Y-129333333D01*
X229245715Y-129571429D01*
X229198096Y-129761905D01*
X229150477Y-129857143D01*
X229102858Y-129904762D01*
X229007620Y-129952381D01*
X228912381Y-129952381D01*
X228817143Y-129904762D01*
X228769524Y-129857143D01*
X228721905Y-129761905D01*
X228674286Y-129571429D01*
X228674286Y-129333333D01*
X228721905Y-129142857D01*
X228769524Y-129047619D01*
X228817143Y-129000000D01*
X228912381Y-128952381D01*
X230198096Y-129952381D02*
X229626667Y-129952381D01*
X229912381Y-129952381D02*
X229912381Y-128952381D01*
X229817143Y-129095238D01*
X229721905Y-129190476D01*
X229626667Y-129238095D01*
X227340953Y-132202381D02*
X227007619Y-131726190D01*
X226769524Y-132202381D02*
X226769524Y-131202381D01*
X227150477Y-131202381D01*
X227245715Y-131250000D01*
X227293334Y-131297619D01*
X227340953Y-131392857D01*
X227340953Y-131535714D01*
X227293334Y-131630952D01*
X227245715Y-131678571D01*
X227150477Y-131726190D01*
X226769524Y-131726190D01*
X227674286Y-131202381D02*
X228293334Y-131202381D01*
X227960000Y-131583333D01*
X228102858Y-131583333D01*
X228198096Y-131630952D01*
X228245715Y-131678571D01*
X228293334Y-131773810D01*
X228293334Y-132011905D01*
X228245715Y-132107143D01*
X228198096Y-132154762D01*
X228102858Y-132202381D01*
X227817143Y-132202381D01*
X227721905Y-132154762D01*
X227674286Y-132107143D01*
X228912381Y-131202381D02*
X229007620Y-131202381D01*
X229102858Y-131250000D01*
X229150477Y-131297619D01*
X229198096Y-131392857D01*
X229245715Y-131583333D01*
X229245715Y-131821429D01*
X229198096Y-132011905D01*
X229150477Y-132107143D01*
X229102858Y-132154762D01*
X229007620Y-132202381D01*
X228912381Y-132202381D01*
X228817143Y-132154762D01*
X228769524Y-132107143D01*
X228721905Y-132011905D01*
X228674286Y-131821429D01*
X228674286Y-131583333D01*
X228721905Y-131392857D01*
X228769524Y-131297619D01*
X228817143Y-131250000D01*
X228912381Y-131202381D01*
X229626667Y-131297619D02*
X229674286Y-131250000D01*
X229769524Y-131202381D01*
X230007620Y-131202381D01*
X230102858Y-131250000D01*
X230150477Y-131297619D01*
X230198096Y-131392857D01*
X230198096Y-131488095D01*
X230150477Y-131630952D01*
X229579048Y-132202381D01*
X230198096Y-132202381D01*
X227340953Y-109952381D02*
X227007619Y-109476190D01*
X226769524Y-109952381D02*
X226769524Y-108952381D01*
X227150477Y-108952381D01*
X227245715Y-109000000D01*
X227293334Y-109047619D01*
X227340953Y-109142857D01*
X227340953Y-109285714D01*
X227293334Y-109380952D01*
X227245715Y-109428571D01*
X227150477Y-109476190D01*
X226769524Y-109476190D01*
X227674286Y-108952381D02*
X228293334Y-108952381D01*
X227960000Y-109333333D01*
X228102858Y-109333333D01*
X228198096Y-109380952D01*
X228245715Y-109428571D01*
X228293334Y-109523810D01*
X228293334Y-109761905D01*
X228245715Y-109857143D01*
X228198096Y-109904762D01*
X228102858Y-109952381D01*
X227817143Y-109952381D01*
X227721905Y-109904762D01*
X227674286Y-109857143D01*
X228912381Y-108952381D02*
X229007620Y-108952381D01*
X229102858Y-109000000D01*
X229150477Y-109047619D01*
X229198096Y-109142857D01*
X229245715Y-109333333D01*
X229245715Y-109571429D01*
X229198096Y-109761905D01*
X229150477Y-109857143D01*
X229102858Y-109904762D01*
X229007620Y-109952381D01*
X228912381Y-109952381D01*
X228817143Y-109904762D01*
X228769524Y-109857143D01*
X228721905Y-109761905D01*
X228674286Y-109571429D01*
X228674286Y-109333333D01*
X228721905Y-109142857D01*
X228769524Y-109047619D01*
X228817143Y-109000000D01*
X228912381Y-108952381D01*
X229579048Y-108952381D02*
X230198096Y-108952381D01*
X229864762Y-109333333D01*
X230007620Y-109333333D01*
X230102858Y-109380952D01*
X230150477Y-109428571D01*
X230198096Y-109523810D01*
X230198096Y-109761905D01*
X230150477Y-109857143D01*
X230102858Y-109904762D01*
X230007620Y-109952381D01*
X229721905Y-109952381D01*
X229626667Y-109904762D01*
X229579048Y-109857143D01*
X227340953Y-112202381D02*
X227007619Y-111726190D01*
X226769524Y-112202381D02*
X226769524Y-111202381D01*
X227150477Y-111202381D01*
X227245715Y-111250000D01*
X227293334Y-111297619D01*
X227340953Y-111392857D01*
X227340953Y-111535714D01*
X227293334Y-111630952D01*
X227245715Y-111678571D01*
X227150477Y-111726190D01*
X226769524Y-111726190D01*
X227674286Y-111202381D02*
X228293334Y-111202381D01*
X227960000Y-111583333D01*
X228102858Y-111583333D01*
X228198096Y-111630952D01*
X228245715Y-111678571D01*
X228293334Y-111773810D01*
X228293334Y-112011905D01*
X228245715Y-112107143D01*
X228198096Y-112154762D01*
X228102858Y-112202381D01*
X227817143Y-112202381D01*
X227721905Y-112154762D01*
X227674286Y-112107143D01*
X228912381Y-111202381D02*
X229007620Y-111202381D01*
X229102858Y-111250000D01*
X229150477Y-111297619D01*
X229198096Y-111392857D01*
X229245715Y-111583333D01*
X229245715Y-111821429D01*
X229198096Y-112011905D01*
X229150477Y-112107143D01*
X229102858Y-112154762D01*
X229007620Y-112202381D01*
X228912381Y-112202381D01*
X228817143Y-112154762D01*
X228769524Y-112107143D01*
X228721905Y-112011905D01*
X228674286Y-111821429D01*
X228674286Y-111583333D01*
X228721905Y-111392857D01*
X228769524Y-111297619D01*
X228817143Y-111250000D01*
X228912381Y-111202381D01*
X230102858Y-111535714D02*
X230102858Y-112202381D01*
X229864762Y-111154762D02*
X229626667Y-111869048D01*
X230245715Y-111869048D01*
X84420953Y-87702381D02*
X84087619Y-87226190D01*
X83849524Y-87702381D02*
X83849524Y-86702381D01*
X84230477Y-86702381D01*
X84325715Y-86750000D01*
X84373334Y-86797619D01*
X84420953Y-86892857D01*
X84420953Y-87035714D01*
X84373334Y-87130952D01*
X84325715Y-87178571D01*
X84230477Y-87226190D01*
X83849524Y-87226190D01*
X85278096Y-87035714D02*
X85278096Y-87702381D01*
X85040000Y-86654762D02*
X84801905Y-87369048D01*
X85420953Y-87369048D01*
X85992381Y-86702381D02*
X86087620Y-86702381D01*
X86182858Y-86750000D01*
X86230477Y-86797619D01*
X86278096Y-86892857D01*
X86325715Y-87083333D01*
X86325715Y-87321429D01*
X86278096Y-87511905D01*
X86230477Y-87607143D01*
X86182858Y-87654762D01*
X86087620Y-87702381D01*
X85992381Y-87702381D01*
X85897143Y-87654762D01*
X85849524Y-87607143D01*
X85801905Y-87511905D01*
X85754286Y-87321429D01*
X85754286Y-87083333D01*
X85801905Y-86892857D01*
X85849524Y-86797619D01*
X85897143Y-86750000D01*
X85992381Y-86702381D01*
X87278096Y-87702381D02*
X86706667Y-87702381D01*
X86992381Y-87702381D02*
X86992381Y-86702381D01*
X86897143Y-86845238D01*
X86801905Y-86940476D01*
X86706667Y-86988095D01*
X84420953Y-85452381D02*
X84087619Y-84976190D01*
X83849524Y-85452381D02*
X83849524Y-84452381D01*
X84230477Y-84452381D01*
X84325715Y-84500000D01*
X84373334Y-84547619D01*
X84420953Y-84642857D01*
X84420953Y-84785714D01*
X84373334Y-84880952D01*
X84325715Y-84928571D01*
X84230477Y-84976190D01*
X83849524Y-84976190D01*
X85278096Y-84785714D02*
X85278096Y-85452381D01*
X85040000Y-84404762D02*
X84801905Y-85119048D01*
X85420953Y-85119048D01*
X85992381Y-84452381D02*
X86087620Y-84452381D01*
X86182858Y-84500000D01*
X86230477Y-84547619D01*
X86278096Y-84642857D01*
X86325715Y-84833333D01*
X86325715Y-85071429D01*
X86278096Y-85261905D01*
X86230477Y-85357143D01*
X86182858Y-85404762D01*
X86087620Y-85452381D01*
X85992381Y-85452381D01*
X85897143Y-85404762D01*
X85849524Y-85357143D01*
X85801905Y-85261905D01*
X85754286Y-85071429D01*
X85754286Y-84833333D01*
X85801905Y-84642857D01*
X85849524Y-84547619D01*
X85897143Y-84500000D01*
X85992381Y-84452381D01*
X86706667Y-84547619D02*
X86754286Y-84500000D01*
X86849524Y-84452381D01*
X87087620Y-84452381D01*
X87182858Y-84500000D01*
X87230477Y-84547619D01*
X87278096Y-84642857D01*
X87278096Y-84738095D01*
X87230477Y-84880952D01*
X86659048Y-85452381D01*
X87278096Y-85452381D01*
X84420953Y-107702381D02*
X84087619Y-107226190D01*
X83849524Y-107702381D02*
X83849524Y-106702381D01*
X84230477Y-106702381D01*
X84325715Y-106750000D01*
X84373334Y-106797619D01*
X84420953Y-106892857D01*
X84420953Y-107035714D01*
X84373334Y-107130952D01*
X84325715Y-107178571D01*
X84230477Y-107226190D01*
X83849524Y-107226190D01*
X85278096Y-107035714D02*
X85278096Y-107702381D01*
X85040000Y-106654762D02*
X84801905Y-107369048D01*
X85420953Y-107369048D01*
X85992381Y-106702381D02*
X86087620Y-106702381D01*
X86182858Y-106750000D01*
X86230477Y-106797619D01*
X86278096Y-106892857D01*
X86325715Y-107083333D01*
X86325715Y-107321429D01*
X86278096Y-107511905D01*
X86230477Y-107607143D01*
X86182858Y-107654762D01*
X86087620Y-107702381D01*
X85992381Y-107702381D01*
X85897143Y-107654762D01*
X85849524Y-107607143D01*
X85801905Y-107511905D01*
X85754286Y-107321429D01*
X85754286Y-107083333D01*
X85801905Y-106892857D01*
X85849524Y-106797619D01*
X85897143Y-106750000D01*
X85992381Y-106702381D01*
X86659048Y-106702381D02*
X87278096Y-106702381D01*
X86944762Y-107083333D01*
X87087620Y-107083333D01*
X87182858Y-107130952D01*
X87230477Y-107178571D01*
X87278096Y-107273810D01*
X87278096Y-107511905D01*
X87230477Y-107607143D01*
X87182858Y-107654762D01*
X87087620Y-107702381D01*
X86801905Y-107702381D01*
X86706667Y-107654762D01*
X86659048Y-107607143D01*
X84420953Y-105452381D02*
X84087619Y-104976190D01*
X83849524Y-105452381D02*
X83849524Y-104452381D01*
X84230477Y-104452381D01*
X84325715Y-104500000D01*
X84373334Y-104547619D01*
X84420953Y-104642857D01*
X84420953Y-104785714D01*
X84373334Y-104880952D01*
X84325715Y-104928571D01*
X84230477Y-104976190D01*
X83849524Y-104976190D01*
X85278096Y-104785714D02*
X85278096Y-105452381D01*
X85040000Y-104404762D02*
X84801905Y-105119048D01*
X85420953Y-105119048D01*
X85992381Y-104452381D02*
X86087620Y-104452381D01*
X86182858Y-104500000D01*
X86230477Y-104547619D01*
X86278096Y-104642857D01*
X86325715Y-104833333D01*
X86325715Y-105071429D01*
X86278096Y-105261905D01*
X86230477Y-105357143D01*
X86182858Y-105404762D01*
X86087620Y-105452381D01*
X85992381Y-105452381D01*
X85897143Y-105404762D01*
X85849524Y-105357143D01*
X85801905Y-105261905D01*
X85754286Y-105071429D01*
X85754286Y-104833333D01*
X85801905Y-104642857D01*
X85849524Y-104547619D01*
X85897143Y-104500000D01*
X85992381Y-104452381D01*
X87182858Y-104785714D02*
X87182858Y-105452381D01*
X86944762Y-104404762D02*
X86706667Y-105119048D01*
X87325715Y-105119048D01*
X84420953Y-167702381D02*
X84087619Y-167226190D01*
X83849524Y-167702381D02*
X83849524Y-166702381D01*
X84230477Y-166702381D01*
X84325715Y-166750000D01*
X84373334Y-166797619D01*
X84420953Y-166892857D01*
X84420953Y-167035714D01*
X84373334Y-167130952D01*
X84325715Y-167178571D01*
X84230477Y-167226190D01*
X83849524Y-167226190D01*
X85325715Y-166702381D02*
X84849524Y-166702381D01*
X84801905Y-167178571D01*
X84849524Y-167130952D01*
X84944762Y-167083333D01*
X85182858Y-167083333D01*
X85278096Y-167130952D01*
X85325715Y-167178571D01*
X85373334Y-167273810D01*
X85373334Y-167511905D01*
X85325715Y-167607143D01*
X85278096Y-167654762D01*
X85182858Y-167702381D01*
X84944762Y-167702381D01*
X84849524Y-167654762D01*
X84801905Y-167607143D01*
X85992381Y-166702381D02*
X86087620Y-166702381D01*
X86182858Y-166750000D01*
X86230477Y-166797619D01*
X86278096Y-166892857D01*
X86325715Y-167083333D01*
X86325715Y-167321429D01*
X86278096Y-167511905D01*
X86230477Y-167607143D01*
X86182858Y-167654762D01*
X86087620Y-167702381D01*
X85992381Y-167702381D01*
X85897143Y-167654762D01*
X85849524Y-167607143D01*
X85801905Y-167511905D01*
X85754286Y-167321429D01*
X85754286Y-167083333D01*
X85801905Y-166892857D01*
X85849524Y-166797619D01*
X85897143Y-166750000D01*
X85992381Y-166702381D01*
X87278096Y-167702381D02*
X86706667Y-167702381D01*
X86992381Y-167702381D02*
X86992381Y-166702381D01*
X86897143Y-166845238D01*
X86801905Y-166940476D01*
X86706667Y-166988095D01*
X84420953Y-165452381D02*
X84087619Y-164976190D01*
X83849524Y-165452381D02*
X83849524Y-164452381D01*
X84230477Y-164452381D01*
X84325715Y-164500000D01*
X84373334Y-164547619D01*
X84420953Y-164642857D01*
X84420953Y-164785714D01*
X84373334Y-164880952D01*
X84325715Y-164928571D01*
X84230477Y-164976190D01*
X83849524Y-164976190D01*
X85325715Y-164452381D02*
X84849524Y-164452381D01*
X84801905Y-164928571D01*
X84849524Y-164880952D01*
X84944762Y-164833333D01*
X85182858Y-164833333D01*
X85278096Y-164880952D01*
X85325715Y-164928571D01*
X85373334Y-165023810D01*
X85373334Y-165261905D01*
X85325715Y-165357143D01*
X85278096Y-165404762D01*
X85182858Y-165452381D01*
X84944762Y-165452381D01*
X84849524Y-165404762D01*
X84801905Y-165357143D01*
X85992381Y-164452381D02*
X86087620Y-164452381D01*
X86182858Y-164500000D01*
X86230477Y-164547619D01*
X86278096Y-164642857D01*
X86325715Y-164833333D01*
X86325715Y-165071429D01*
X86278096Y-165261905D01*
X86230477Y-165357143D01*
X86182858Y-165404762D01*
X86087620Y-165452381D01*
X85992381Y-165452381D01*
X85897143Y-165404762D01*
X85849524Y-165357143D01*
X85801905Y-165261905D01*
X85754286Y-165071429D01*
X85754286Y-164833333D01*
X85801905Y-164642857D01*
X85849524Y-164547619D01*
X85897143Y-164500000D01*
X85992381Y-164452381D01*
X86706667Y-164547619D02*
X86754286Y-164500000D01*
X86849524Y-164452381D01*
X87087620Y-164452381D01*
X87182858Y-164500000D01*
X87230477Y-164547619D01*
X87278096Y-164642857D01*
X87278096Y-164738095D01*
X87230477Y-164880952D01*
X86659048Y-165452381D01*
X87278096Y-165452381D01*
X84420953Y-187702381D02*
X84087619Y-187226190D01*
X83849524Y-187702381D02*
X83849524Y-186702381D01*
X84230477Y-186702381D01*
X84325715Y-186750000D01*
X84373334Y-186797619D01*
X84420953Y-186892857D01*
X84420953Y-187035714D01*
X84373334Y-187130952D01*
X84325715Y-187178571D01*
X84230477Y-187226190D01*
X83849524Y-187226190D01*
X85325715Y-186702381D02*
X84849524Y-186702381D01*
X84801905Y-187178571D01*
X84849524Y-187130952D01*
X84944762Y-187083333D01*
X85182858Y-187083333D01*
X85278096Y-187130952D01*
X85325715Y-187178571D01*
X85373334Y-187273810D01*
X85373334Y-187511905D01*
X85325715Y-187607143D01*
X85278096Y-187654762D01*
X85182858Y-187702381D01*
X84944762Y-187702381D01*
X84849524Y-187654762D01*
X84801905Y-187607143D01*
X85992381Y-186702381D02*
X86087620Y-186702381D01*
X86182858Y-186750000D01*
X86230477Y-186797619D01*
X86278096Y-186892857D01*
X86325715Y-187083333D01*
X86325715Y-187321429D01*
X86278096Y-187511905D01*
X86230477Y-187607143D01*
X86182858Y-187654762D01*
X86087620Y-187702381D01*
X85992381Y-187702381D01*
X85897143Y-187654762D01*
X85849524Y-187607143D01*
X85801905Y-187511905D01*
X85754286Y-187321429D01*
X85754286Y-187083333D01*
X85801905Y-186892857D01*
X85849524Y-186797619D01*
X85897143Y-186750000D01*
X85992381Y-186702381D01*
X86659048Y-186702381D02*
X87278096Y-186702381D01*
X86944762Y-187083333D01*
X87087620Y-187083333D01*
X87182858Y-187130952D01*
X87230477Y-187178571D01*
X87278096Y-187273810D01*
X87278096Y-187511905D01*
X87230477Y-187607143D01*
X87182858Y-187654762D01*
X87087620Y-187702381D01*
X86801905Y-187702381D01*
X86706667Y-187654762D01*
X86659048Y-187607143D01*
X84420953Y-185452381D02*
X84087619Y-184976190D01*
X83849524Y-185452381D02*
X83849524Y-184452381D01*
X84230477Y-184452381D01*
X84325715Y-184500000D01*
X84373334Y-184547619D01*
X84420953Y-184642857D01*
X84420953Y-184785714D01*
X84373334Y-184880952D01*
X84325715Y-184928571D01*
X84230477Y-184976190D01*
X83849524Y-184976190D01*
X85325715Y-184452381D02*
X84849524Y-184452381D01*
X84801905Y-184928571D01*
X84849524Y-184880952D01*
X84944762Y-184833333D01*
X85182858Y-184833333D01*
X85278096Y-184880952D01*
X85325715Y-184928571D01*
X85373334Y-185023810D01*
X85373334Y-185261905D01*
X85325715Y-185357143D01*
X85278096Y-185404762D01*
X85182858Y-185452381D01*
X84944762Y-185452381D01*
X84849524Y-185404762D01*
X84801905Y-185357143D01*
X85992381Y-184452381D02*
X86087620Y-184452381D01*
X86182858Y-184500000D01*
X86230477Y-184547619D01*
X86278096Y-184642857D01*
X86325715Y-184833333D01*
X86325715Y-185071429D01*
X86278096Y-185261905D01*
X86230477Y-185357143D01*
X86182858Y-185404762D01*
X86087620Y-185452381D01*
X85992381Y-185452381D01*
X85897143Y-185404762D01*
X85849524Y-185357143D01*
X85801905Y-185261905D01*
X85754286Y-185071429D01*
X85754286Y-184833333D01*
X85801905Y-184642857D01*
X85849524Y-184547619D01*
X85897143Y-184500000D01*
X85992381Y-184452381D01*
X87182858Y-184785714D02*
X87182858Y-185452381D01*
X86944762Y-184404762D02*
X86706667Y-185119048D01*
X87325715Y-185119048D01*
X223881119Y-171317619D02*
X223833500Y-171412857D01*
X223738262Y-171508095D01*
X223595405Y-171650952D01*
X223547786Y-171746191D01*
X223547786Y-171841429D01*
X223785881Y-171793810D02*
X223738262Y-171889048D01*
X223643024Y-171984286D01*
X223452548Y-172031905D01*
X223119214Y-172031905D01*
X222928738Y-171984286D01*
X222833500Y-171889048D01*
X222785881Y-171793810D01*
X222785881Y-171603333D01*
X222833500Y-171508095D01*
X222928738Y-171412857D01*
X223119214Y-171365238D01*
X223452548Y-171365238D01*
X223643024Y-171412857D01*
X223738262Y-171508095D01*
X223785881Y-171603333D01*
X223785881Y-171793810D01*
X222881119Y-170984286D02*
X222833500Y-170936667D01*
X222785881Y-170841429D01*
X222785881Y-170603333D01*
X222833500Y-170508095D01*
X222881119Y-170460476D01*
X222976357Y-170412857D01*
X223071595Y-170412857D01*
X223214452Y-170460476D01*
X223785881Y-171031905D01*
X223785881Y-170412857D01*
X222785881Y-169793810D02*
X222785881Y-169698571D01*
X222833500Y-169603333D01*
X222881119Y-169555714D01*
X222976357Y-169508095D01*
X223166833Y-169460476D01*
X223404929Y-169460476D01*
X223595405Y-169508095D01*
X223690643Y-169555714D01*
X223738262Y-169603333D01*
X223785881Y-169698571D01*
X223785881Y-169793810D01*
X223738262Y-169889048D01*
X223690643Y-169936667D01*
X223595405Y-169984286D01*
X223404929Y-170031905D01*
X223166833Y-170031905D01*
X222976357Y-169984286D01*
X222881119Y-169936667D01*
X222833500Y-169889048D01*
X222785881Y-169793810D01*
X222785881Y-169127143D02*
X222785881Y-168460476D01*
X223785881Y-168889048D01*
X231432381Y-147631119D02*
X231337143Y-147583500D01*
X231241905Y-147488262D01*
X231099048Y-147345405D01*
X231003809Y-147297786D01*
X230908571Y-147297786D01*
X230956190Y-147535881D02*
X230860952Y-147488262D01*
X230765714Y-147393024D01*
X230718095Y-147202548D01*
X230718095Y-146869214D01*
X230765714Y-146678738D01*
X230860952Y-146583500D01*
X230956190Y-146535881D01*
X231146667Y-146535881D01*
X231241905Y-146583500D01*
X231337143Y-146678738D01*
X231384762Y-146869214D01*
X231384762Y-147202548D01*
X231337143Y-147393024D01*
X231241905Y-147488262D01*
X231146667Y-147535881D01*
X230956190Y-147535881D01*
X231765714Y-146631119D02*
X231813333Y-146583500D01*
X231908571Y-146535881D01*
X232146667Y-146535881D01*
X232241905Y-146583500D01*
X232289524Y-146631119D01*
X232337143Y-146726357D01*
X232337143Y-146821595D01*
X232289524Y-146964452D01*
X231718095Y-147535881D01*
X232337143Y-147535881D01*
X232956190Y-146535881D02*
X233051429Y-146535881D01*
X233146667Y-146583500D01*
X233194286Y-146631119D01*
X233241905Y-146726357D01*
X233289524Y-146916833D01*
X233289524Y-147154929D01*
X233241905Y-147345405D01*
X233194286Y-147440643D01*
X233146667Y-147488262D01*
X233051429Y-147535881D01*
X232956190Y-147535881D01*
X232860952Y-147488262D01*
X232813333Y-147440643D01*
X232765714Y-147345405D01*
X232718095Y-147154929D01*
X232718095Y-146916833D01*
X232765714Y-146726357D01*
X232813333Y-146631119D01*
X232860952Y-146583500D01*
X232956190Y-146535881D01*
X233860952Y-146964452D02*
X233765714Y-146916833D01*
X233718095Y-146869214D01*
X233670476Y-146773976D01*
X233670476Y-146726357D01*
X233718095Y-146631119D01*
X233765714Y-146583500D01*
X233860952Y-146535881D01*
X234051429Y-146535881D01*
X234146667Y-146583500D01*
X234194286Y-146631119D01*
X234241905Y-146726357D01*
X234241905Y-146773976D01*
X234194286Y-146869214D01*
X234146667Y-146916833D01*
X234051429Y-146964452D01*
X233860952Y-146964452D01*
X233765714Y-147012071D01*
X233718095Y-147059690D01*
X233670476Y-147154929D01*
X233670476Y-147345405D01*
X233718095Y-147440643D01*
X233765714Y-147488262D01*
X233860952Y-147535881D01*
X234051429Y-147535881D01*
X234146667Y-147488262D01*
X234194286Y-147440643D01*
X234241905Y-147345405D01*
X234241905Y-147154929D01*
X234194286Y-147059690D01*
X234146667Y-147012071D01*
X234051429Y-146964452D01*
X225932381Y-147631119D02*
X225837143Y-147583500D01*
X225741905Y-147488262D01*
X225599048Y-147345405D01*
X225503809Y-147297786D01*
X225408571Y-147297786D01*
X225456190Y-147535881D02*
X225360952Y-147488262D01*
X225265714Y-147393024D01*
X225218095Y-147202548D01*
X225218095Y-146869214D01*
X225265714Y-146678738D01*
X225360952Y-146583500D01*
X225456190Y-146535881D01*
X225646667Y-146535881D01*
X225741905Y-146583500D01*
X225837143Y-146678738D01*
X225884762Y-146869214D01*
X225884762Y-147202548D01*
X225837143Y-147393024D01*
X225741905Y-147488262D01*
X225646667Y-147535881D01*
X225456190Y-147535881D01*
X226265714Y-146631119D02*
X226313333Y-146583500D01*
X226408571Y-146535881D01*
X226646667Y-146535881D01*
X226741905Y-146583500D01*
X226789524Y-146631119D01*
X226837143Y-146726357D01*
X226837143Y-146821595D01*
X226789524Y-146964452D01*
X226218095Y-147535881D01*
X226837143Y-147535881D01*
X227456190Y-146535881D02*
X227551429Y-146535881D01*
X227646667Y-146583500D01*
X227694286Y-146631119D01*
X227741905Y-146726357D01*
X227789524Y-146916833D01*
X227789524Y-147154929D01*
X227741905Y-147345405D01*
X227694286Y-147440643D01*
X227646667Y-147488262D01*
X227551429Y-147535881D01*
X227456190Y-147535881D01*
X227360952Y-147488262D01*
X227313333Y-147440643D01*
X227265714Y-147345405D01*
X227218095Y-147154929D01*
X227218095Y-146916833D01*
X227265714Y-146726357D01*
X227313333Y-146631119D01*
X227360952Y-146583500D01*
X227456190Y-146535881D01*
X228265714Y-147535881D02*
X228456190Y-147535881D01*
X228551429Y-147488262D01*
X228599048Y-147440643D01*
X228694286Y-147297786D01*
X228741905Y-147107310D01*
X228741905Y-146726357D01*
X228694286Y-146631119D01*
X228646667Y-146583500D01*
X228551429Y-146535881D01*
X228360952Y-146535881D01*
X228265714Y-146583500D01*
X228218095Y-146631119D01*
X228170476Y-146726357D01*
X228170476Y-146964452D01*
X228218095Y-147059690D01*
X228265714Y-147107310D01*
X228360952Y-147154929D01*
X228551429Y-147154929D01*
X228646667Y-147107310D01*
X228694286Y-147059690D01*
X228741905Y-146964452D01*
X223881119Y-151317619D02*
X223833500Y-151412857D01*
X223738262Y-151508095D01*
X223595405Y-151650952D01*
X223547786Y-151746191D01*
X223547786Y-151841429D01*
X223785881Y-151793810D02*
X223738262Y-151889048D01*
X223643024Y-151984286D01*
X223452548Y-152031905D01*
X223119214Y-152031905D01*
X222928738Y-151984286D01*
X222833500Y-151889048D01*
X222785881Y-151793810D01*
X222785881Y-151603333D01*
X222833500Y-151508095D01*
X222928738Y-151412857D01*
X223119214Y-151365238D01*
X223452548Y-151365238D01*
X223643024Y-151412857D01*
X223738262Y-151508095D01*
X223785881Y-151603333D01*
X223785881Y-151793810D01*
X222881119Y-150984286D02*
X222833500Y-150936667D01*
X222785881Y-150841429D01*
X222785881Y-150603333D01*
X222833500Y-150508095D01*
X222881119Y-150460476D01*
X222976357Y-150412857D01*
X223071595Y-150412857D01*
X223214452Y-150460476D01*
X223785881Y-151031905D01*
X223785881Y-150412857D01*
X223785881Y-149460476D02*
X223785881Y-150031905D01*
X223785881Y-149746191D02*
X222785881Y-149746191D01*
X222928738Y-149841429D01*
X223023976Y-149936667D01*
X223071595Y-150031905D01*
X222785881Y-148841429D02*
X222785881Y-148746190D01*
X222833500Y-148650952D01*
X222881119Y-148603333D01*
X222976357Y-148555714D01*
X223166833Y-148508095D01*
X223404929Y-148508095D01*
X223595405Y-148555714D01*
X223690643Y-148603333D01*
X223738262Y-148650952D01*
X223785881Y-148746190D01*
X223785881Y-148841429D01*
X223738262Y-148936667D01*
X223690643Y-148984286D01*
X223595405Y-149031905D01*
X223404929Y-149079524D01*
X223166833Y-149079524D01*
X222976357Y-149031905D01*
X222881119Y-148984286D01*
X222833500Y-148936667D01*
X222785881Y-148841429D01*
X223881119Y-91317619D02*
X223833500Y-91412857D01*
X223738262Y-91508095D01*
X223595405Y-91650952D01*
X223547786Y-91746191D01*
X223547786Y-91841429D01*
X223785881Y-91793810D02*
X223738262Y-91889048D01*
X223643024Y-91984286D01*
X223452548Y-92031905D01*
X223119214Y-92031905D01*
X222928738Y-91984286D01*
X222833500Y-91889048D01*
X222785881Y-91793810D01*
X222785881Y-91603333D01*
X222833500Y-91508095D01*
X222928738Y-91412857D01*
X223119214Y-91365238D01*
X223452548Y-91365238D01*
X223643024Y-91412857D01*
X223738262Y-91508095D01*
X223785881Y-91603333D01*
X223785881Y-91793810D01*
X222785881Y-91031905D02*
X222785881Y-90412857D01*
X223166833Y-90746191D01*
X223166833Y-90603333D01*
X223214452Y-90508095D01*
X223262071Y-90460476D01*
X223357310Y-90412857D01*
X223595405Y-90412857D01*
X223690643Y-90460476D01*
X223738262Y-90508095D01*
X223785881Y-90603333D01*
X223785881Y-90889048D01*
X223738262Y-90984286D01*
X223690643Y-91031905D01*
X222785881Y-89793810D02*
X222785881Y-89698571D01*
X222833500Y-89603333D01*
X222881119Y-89555714D01*
X222976357Y-89508095D01*
X223166833Y-89460476D01*
X223404929Y-89460476D01*
X223595405Y-89508095D01*
X223690643Y-89555714D01*
X223738262Y-89603333D01*
X223785881Y-89698571D01*
X223785881Y-89793810D01*
X223738262Y-89889048D01*
X223690643Y-89936667D01*
X223595405Y-89984286D01*
X223404929Y-90031905D01*
X223166833Y-90031905D01*
X222976357Y-89984286D01*
X222881119Y-89936667D01*
X222833500Y-89889048D01*
X222785881Y-89793810D01*
X222785881Y-89127143D02*
X222785881Y-88460476D01*
X223785881Y-88889048D01*
X231432381Y-67631119D02*
X231337143Y-67583500D01*
X231241905Y-67488262D01*
X231099048Y-67345405D01*
X231003809Y-67297786D01*
X230908571Y-67297786D01*
X230956190Y-67535881D02*
X230860952Y-67488262D01*
X230765714Y-67393024D01*
X230718095Y-67202548D01*
X230718095Y-66869214D01*
X230765714Y-66678738D01*
X230860952Y-66583500D01*
X230956190Y-66535881D01*
X231146667Y-66535881D01*
X231241905Y-66583500D01*
X231337143Y-66678738D01*
X231384762Y-66869214D01*
X231384762Y-67202548D01*
X231337143Y-67393024D01*
X231241905Y-67488262D01*
X231146667Y-67535881D01*
X230956190Y-67535881D01*
X231718095Y-66535881D02*
X232337143Y-66535881D01*
X232003809Y-66916833D01*
X232146667Y-66916833D01*
X232241905Y-66964452D01*
X232289524Y-67012071D01*
X232337143Y-67107310D01*
X232337143Y-67345405D01*
X232289524Y-67440643D01*
X232241905Y-67488262D01*
X232146667Y-67535881D01*
X231860952Y-67535881D01*
X231765714Y-67488262D01*
X231718095Y-67440643D01*
X232956190Y-66535881D02*
X233051429Y-66535881D01*
X233146667Y-66583500D01*
X233194286Y-66631119D01*
X233241905Y-66726357D01*
X233289524Y-66916833D01*
X233289524Y-67154929D01*
X233241905Y-67345405D01*
X233194286Y-67440643D01*
X233146667Y-67488262D01*
X233051429Y-67535881D01*
X232956190Y-67535881D01*
X232860952Y-67488262D01*
X232813333Y-67440643D01*
X232765714Y-67345405D01*
X232718095Y-67154929D01*
X232718095Y-66916833D01*
X232765714Y-66726357D01*
X232813333Y-66631119D01*
X232860952Y-66583500D01*
X232956190Y-66535881D01*
X233860952Y-66964452D02*
X233765714Y-66916833D01*
X233718095Y-66869214D01*
X233670476Y-66773976D01*
X233670476Y-66726357D01*
X233718095Y-66631119D01*
X233765714Y-66583500D01*
X233860952Y-66535881D01*
X234051429Y-66535881D01*
X234146667Y-66583500D01*
X234194286Y-66631119D01*
X234241905Y-66726357D01*
X234241905Y-66773976D01*
X234194286Y-66869214D01*
X234146667Y-66916833D01*
X234051429Y-66964452D01*
X233860952Y-66964452D01*
X233765714Y-67012071D01*
X233718095Y-67059690D01*
X233670476Y-67154929D01*
X233670476Y-67345405D01*
X233718095Y-67440643D01*
X233765714Y-67488262D01*
X233860952Y-67535881D01*
X234051429Y-67535881D01*
X234146667Y-67488262D01*
X234194286Y-67440643D01*
X234241905Y-67345405D01*
X234241905Y-67154929D01*
X234194286Y-67059690D01*
X234146667Y-67012071D01*
X234051429Y-66964452D01*
X225932381Y-67631119D02*
X225837143Y-67583500D01*
X225741905Y-67488262D01*
X225599048Y-67345405D01*
X225503809Y-67297786D01*
X225408571Y-67297786D01*
X225456190Y-67535881D02*
X225360952Y-67488262D01*
X225265714Y-67393024D01*
X225218095Y-67202548D01*
X225218095Y-66869214D01*
X225265714Y-66678738D01*
X225360952Y-66583500D01*
X225456190Y-66535881D01*
X225646667Y-66535881D01*
X225741905Y-66583500D01*
X225837143Y-66678738D01*
X225884762Y-66869214D01*
X225884762Y-67202548D01*
X225837143Y-67393024D01*
X225741905Y-67488262D01*
X225646667Y-67535881D01*
X225456190Y-67535881D01*
X226218095Y-66535881D02*
X226837143Y-66535881D01*
X226503809Y-66916833D01*
X226646667Y-66916833D01*
X226741905Y-66964452D01*
X226789524Y-67012071D01*
X226837143Y-67107310D01*
X226837143Y-67345405D01*
X226789524Y-67440643D01*
X226741905Y-67488262D01*
X226646667Y-67535881D01*
X226360952Y-67535881D01*
X226265714Y-67488262D01*
X226218095Y-67440643D01*
X227456190Y-66535881D02*
X227551429Y-66535881D01*
X227646667Y-66583500D01*
X227694286Y-66631119D01*
X227741905Y-66726357D01*
X227789524Y-66916833D01*
X227789524Y-67154929D01*
X227741905Y-67345405D01*
X227694286Y-67440643D01*
X227646667Y-67488262D01*
X227551429Y-67535881D01*
X227456190Y-67535881D01*
X227360952Y-67488262D01*
X227313333Y-67440643D01*
X227265714Y-67345405D01*
X227218095Y-67154929D01*
X227218095Y-66916833D01*
X227265714Y-66726357D01*
X227313333Y-66631119D01*
X227360952Y-66583500D01*
X227456190Y-66535881D01*
X228265714Y-67535881D02*
X228456190Y-67535881D01*
X228551429Y-67488262D01*
X228599048Y-67440643D01*
X228694286Y-67297786D01*
X228741905Y-67107310D01*
X228741905Y-66726357D01*
X228694286Y-66631119D01*
X228646667Y-66583500D01*
X228551429Y-66535881D01*
X228360952Y-66535881D01*
X228265714Y-66583500D01*
X228218095Y-66631119D01*
X228170476Y-66726357D01*
X228170476Y-66964452D01*
X228218095Y-67059690D01*
X228265714Y-67107310D01*
X228360952Y-67154929D01*
X228551429Y-67154929D01*
X228646667Y-67107310D01*
X228694286Y-67059690D01*
X228741905Y-66964452D01*
X223881119Y-71317619D02*
X223833500Y-71412857D01*
X223738262Y-71508095D01*
X223595405Y-71650952D01*
X223547786Y-71746191D01*
X223547786Y-71841429D01*
X223785881Y-71793810D02*
X223738262Y-71889048D01*
X223643024Y-71984286D01*
X223452548Y-72031905D01*
X223119214Y-72031905D01*
X222928738Y-71984286D01*
X222833500Y-71889048D01*
X222785881Y-71793810D01*
X222785881Y-71603333D01*
X222833500Y-71508095D01*
X222928738Y-71412857D01*
X223119214Y-71365238D01*
X223452548Y-71365238D01*
X223643024Y-71412857D01*
X223738262Y-71508095D01*
X223785881Y-71603333D01*
X223785881Y-71793810D01*
X222785881Y-71031905D02*
X222785881Y-70412857D01*
X223166833Y-70746191D01*
X223166833Y-70603333D01*
X223214452Y-70508095D01*
X223262071Y-70460476D01*
X223357310Y-70412857D01*
X223595405Y-70412857D01*
X223690643Y-70460476D01*
X223738262Y-70508095D01*
X223785881Y-70603333D01*
X223785881Y-70889048D01*
X223738262Y-70984286D01*
X223690643Y-71031905D01*
X223785881Y-69460476D02*
X223785881Y-70031905D01*
X223785881Y-69746191D02*
X222785881Y-69746191D01*
X222928738Y-69841429D01*
X223023976Y-69936667D01*
X223071595Y-70031905D01*
X222785881Y-68841429D02*
X222785881Y-68746190D01*
X222833500Y-68650952D01*
X222881119Y-68603333D01*
X222976357Y-68555714D01*
X223166833Y-68508095D01*
X223404929Y-68508095D01*
X223595405Y-68555714D01*
X223690643Y-68603333D01*
X223738262Y-68650952D01*
X223785881Y-68746190D01*
X223785881Y-68841429D01*
X223738262Y-68936667D01*
X223690643Y-68984286D01*
X223595405Y-69031905D01*
X223404929Y-69079524D01*
X223166833Y-69079524D01*
X222976357Y-69031905D01*
X222881119Y-68984286D01*
X222833500Y-68936667D01*
X222785881Y-68841429D01*
X91214119Y-127777619D02*
X91166500Y-127872857D01*
X91071262Y-127968095D01*
X90928405Y-128110952D01*
X90880786Y-128206191D01*
X90880786Y-128301429D01*
X91118881Y-128253810D02*
X91071262Y-128349048D01*
X90976024Y-128444286D01*
X90785548Y-128491905D01*
X90452214Y-128491905D01*
X90261738Y-128444286D01*
X90166500Y-128349048D01*
X90118881Y-128253810D01*
X90118881Y-128063333D01*
X90166500Y-127968095D01*
X90261738Y-127872857D01*
X90452214Y-127825238D01*
X90785548Y-127825238D01*
X90976024Y-127872857D01*
X91071262Y-127968095D01*
X91118881Y-128063333D01*
X91118881Y-128253810D01*
X90452214Y-126968095D02*
X91118881Y-126968095D01*
X90071262Y-127206191D02*
X90785548Y-127444286D01*
X90785548Y-126825238D01*
X90118881Y-126253810D02*
X90118881Y-126158571D01*
X90166500Y-126063333D01*
X90214119Y-126015714D01*
X90309357Y-125968095D01*
X90499833Y-125920476D01*
X90737929Y-125920476D01*
X90928405Y-125968095D01*
X91023643Y-126015714D01*
X91071262Y-126063333D01*
X91118881Y-126158571D01*
X91118881Y-126253810D01*
X91071262Y-126349048D01*
X91023643Y-126396667D01*
X90928405Y-126444286D01*
X90737929Y-126491905D01*
X90499833Y-126491905D01*
X90309357Y-126444286D01*
X90214119Y-126396667D01*
X90166500Y-126349048D01*
X90118881Y-126253810D01*
X90118881Y-125587143D02*
X90118881Y-124920476D01*
X91118881Y-125349048D01*
X80432381Y-130464119D02*
X80337143Y-130416500D01*
X80241905Y-130321262D01*
X80099048Y-130178405D01*
X80003809Y-130130786D01*
X79908571Y-130130786D01*
X79956190Y-130368881D02*
X79860952Y-130321262D01*
X79765714Y-130226024D01*
X79718095Y-130035548D01*
X79718095Y-129702214D01*
X79765714Y-129511738D01*
X79860952Y-129416500D01*
X79956190Y-129368881D01*
X80146667Y-129368881D01*
X80241905Y-129416500D01*
X80337143Y-129511738D01*
X80384762Y-129702214D01*
X80384762Y-130035548D01*
X80337143Y-130226024D01*
X80241905Y-130321262D01*
X80146667Y-130368881D01*
X79956190Y-130368881D01*
X81241905Y-129702214D02*
X81241905Y-130368881D01*
X81003809Y-129321262D02*
X80765714Y-130035548D01*
X81384762Y-130035548D01*
X81956190Y-129368881D02*
X82051429Y-129368881D01*
X82146667Y-129416500D01*
X82194286Y-129464119D01*
X82241905Y-129559357D01*
X82289524Y-129749833D01*
X82289524Y-129987929D01*
X82241905Y-130178405D01*
X82194286Y-130273643D01*
X82146667Y-130321262D01*
X82051429Y-130368881D01*
X81956190Y-130368881D01*
X81860952Y-130321262D01*
X81813333Y-130273643D01*
X81765714Y-130178405D01*
X81718095Y-129987929D01*
X81718095Y-129749833D01*
X81765714Y-129559357D01*
X81813333Y-129464119D01*
X81860952Y-129416500D01*
X81956190Y-129368881D01*
X82860952Y-129797452D02*
X82765714Y-129749833D01*
X82718095Y-129702214D01*
X82670476Y-129606976D01*
X82670476Y-129559357D01*
X82718095Y-129464119D01*
X82765714Y-129416500D01*
X82860952Y-129368881D01*
X83051429Y-129368881D01*
X83146667Y-129416500D01*
X83194286Y-129464119D01*
X83241905Y-129559357D01*
X83241905Y-129606976D01*
X83194286Y-129702214D01*
X83146667Y-129749833D01*
X83051429Y-129797452D01*
X82860952Y-129797452D01*
X82765714Y-129845071D01*
X82718095Y-129892690D01*
X82670476Y-129987929D01*
X82670476Y-130178405D01*
X82718095Y-130273643D01*
X82765714Y-130321262D01*
X82860952Y-130368881D01*
X83051429Y-130368881D01*
X83146667Y-130321262D01*
X83194286Y-130273643D01*
X83241905Y-130178405D01*
X83241905Y-129987929D01*
X83194286Y-129892690D01*
X83146667Y-129845071D01*
X83051429Y-129797452D01*
X85972381Y-150464119D02*
X85877143Y-150416500D01*
X85781905Y-150321262D01*
X85639048Y-150178405D01*
X85543809Y-150130786D01*
X85448571Y-150130786D01*
X85496190Y-150368881D02*
X85400952Y-150321262D01*
X85305714Y-150226024D01*
X85258095Y-150035548D01*
X85258095Y-149702214D01*
X85305714Y-149511738D01*
X85400952Y-149416500D01*
X85496190Y-149368881D01*
X85686667Y-149368881D01*
X85781905Y-149416500D01*
X85877143Y-149511738D01*
X85924762Y-149702214D01*
X85924762Y-150035548D01*
X85877143Y-150226024D01*
X85781905Y-150321262D01*
X85686667Y-150368881D01*
X85496190Y-150368881D01*
X86781905Y-149702214D02*
X86781905Y-150368881D01*
X86543809Y-149321262D02*
X86305714Y-150035548D01*
X86924762Y-150035548D01*
X87496190Y-149368881D02*
X87591429Y-149368881D01*
X87686667Y-149416500D01*
X87734286Y-149464119D01*
X87781905Y-149559357D01*
X87829524Y-149749833D01*
X87829524Y-149987929D01*
X87781905Y-150178405D01*
X87734286Y-150273643D01*
X87686667Y-150321262D01*
X87591429Y-150368881D01*
X87496190Y-150368881D01*
X87400952Y-150321262D01*
X87353333Y-150273643D01*
X87305714Y-150178405D01*
X87258095Y-149987929D01*
X87258095Y-149749833D01*
X87305714Y-149559357D01*
X87353333Y-149464119D01*
X87400952Y-149416500D01*
X87496190Y-149368881D01*
X88305714Y-150368881D02*
X88496190Y-150368881D01*
X88591429Y-150321262D01*
X88639048Y-150273643D01*
X88734286Y-150130786D01*
X88781905Y-149940310D01*
X88781905Y-149559357D01*
X88734286Y-149464119D01*
X88686667Y-149416500D01*
X88591429Y-149368881D01*
X88400952Y-149368881D01*
X88305714Y-149416500D01*
X88258095Y-149464119D01*
X88210476Y-149559357D01*
X88210476Y-149797452D01*
X88258095Y-149892690D01*
X88305714Y-149940310D01*
X88400952Y-149987929D01*
X88591429Y-149987929D01*
X88686667Y-149940310D01*
X88734286Y-149892690D01*
X88781905Y-149797452D01*
X91214119Y-147817619D02*
X91166500Y-147912857D01*
X91071262Y-148008095D01*
X90928405Y-148150952D01*
X90880786Y-148246191D01*
X90880786Y-148341429D01*
X91118881Y-148293810D02*
X91071262Y-148389048D01*
X90976024Y-148484286D01*
X90785548Y-148531905D01*
X90452214Y-148531905D01*
X90261738Y-148484286D01*
X90166500Y-148389048D01*
X90118881Y-148293810D01*
X90118881Y-148103333D01*
X90166500Y-148008095D01*
X90261738Y-147912857D01*
X90452214Y-147865238D01*
X90785548Y-147865238D01*
X90976024Y-147912857D01*
X91071262Y-148008095D01*
X91118881Y-148103333D01*
X91118881Y-148293810D01*
X90452214Y-147008095D02*
X91118881Y-147008095D01*
X90071262Y-147246191D02*
X90785548Y-147484286D01*
X90785548Y-146865238D01*
X91118881Y-145960476D02*
X91118881Y-146531905D01*
X91118881Y-146246191D02*
X90118881Y-146246191D01*
X90261738Y-146341429D01*
X90356976Y-146436667D01*
X90404595Y-146531905D01*
X90118881Y-145341429D02*
X90118881Y-145246190D01*
X90166500Y-145150952D01*
X90214119Y-145103333D01*
X90309357Y-145055714D01*
X90499833Y-145008095D01*
X90737929Y-145008095D01*
X90928405Y-145055714D01*
X91023643Y-145103333D01*
X91071262Y-145150952D01*
X91118881Y-145246190D01*
X91118881Y-145341429D01*
X91071262Y-145436667D01*
X91023643Y-145484286D01*
X90928405Y-145531905D01*
X90737929Y-145579524D01*
X90499833Y-145579524D01*
X90309357Y-145531905D01*
X90214119Y-145484286D01*
X90166500Y-145436667D01*
X90118881Y-145341429D01*
X91214119Y-207777619D02*
X91166500Y-207872857D01*
X91071262Y-207968095D01*
X90928405Y-208110952D01*
X90880786Y-208206191D01*
X90880786Y-208301429D01*
X91118881Y-208253810D02*
X91071262Y-208349048D01*
X90976024Y-208444286D01*
X90785548Y-208491905D01*
X90452214Y-208491905D01*
X90261738Y-208444286D01*
X90166500Y-208349048D01*
X90118881Y-208253810D01*
X90118881Y-208063333D01*
X90166500Y-207968095D01*
X90261738Y-207872857D01*
X90452214Y-207825238D01*
X90785548Y-207825238D01*
X90976024Y-207872857D01*
X91071262Y-207968095D01*
X91118881Y-208063333D01*
X91118881Y-208253810D01*
X90118881Y-206920476D02*
X90118881Y-207396667D01*
X90595071Y-207444286D01*
X90547452Y-207396667D01*
X90499833Y-207301429D01*
X90499833Y-207063333D01*
X90547452Y-206968095D01*
X90595071Y-206920476D01*
X90690310Y-206872857D01*
X90928405Y-206872857D01*
X91023643Y-206920476D01*
X91071262Y-206968095D01*
X91118881Y-207063333D01*
X91118881Y-207301429D01*
X91071262Y-207396667D01*
X91023643Y-207444286D01*
X90118881Y-206253810D02*
X90118881Y-206158571D01*
X90166500Y-206063333D01*
X90214119Y-206015714D01*
X90309357Y-205968095D01*
X90499833Y-205920476D01*
X90737929Y-205920476D01*
X90928405Y-205968095D01*
X91023643Y-206015714D01*
X91071262Y-206063333D01*
X91118881Y-206158571D01*
X91118881Y-206253810D01*
X91071262Y-206349048D01*
X91023643Y-206396667D01*
X90928405Y-206444286D01*
X90737929Y-206491905D01*
X90499833Y-206491905D01*
X90309357Y-206444286D01*
X90214119Y-206396667D01*
X90166500Y-206349048D01*
X90118881Y-206253810D01*
X90118881Y-205587143D02*
X90118881Y-204920476D01*
X91118881Y-205349048D01*
X80432381Y-210464119D02*
X80337143Y-210416500D01*
X80241905Y-210321262D01*
X80099048Y-210178405D01*
X80003809Y-210130786D01*
X79908571Y-210130786D01*
X79956190Y-210368881D02*
X79860952Y-210321262D01*
X79765714Y-210226024D01*
X79718095Y-210035548D01*
X79718095Y-209702214D01*
X79765714Y-209511738D01*
X79860952Y-209416500D01*
X79956190Y-209368881D01*
X80146667Y-209368881D01*
X80241905Y-209416500D01*
X80337143Y-209511738D01*
X80384762Y-209702214D01*
X80384762Y-210035548D01*
X80337143Y-210226024D01*
X80241905Y-210321262D01*
X80146667Y-210368881D01*
X79956190Y-210368881D01*
X81289524Y-209368881D02*
X80813333Y-209368881D01*
X80765714Y-209845071D01*
X80813333Y-209797452D01*
X80908571Y-209749833D01*
X81146667Y-209749833D01*
X81241905Y-209797452D01*
X81289524Y-209845071D01*
X81337143Y-209940310D01*
X81337143Y-210178405D01*
X81289524Y-210273643D01*
X81241905Y-210321262D01*
X81146667Y-210368881D01*
X80908571Y-210368881D01*
X80813333Y-210321262D01*
X80765714Y-210273643D01*
X81956190Y-209368881D02*
X82051429Y-209368881D01*
X82146667Y-209416500D01*
X82194286Y-209464119D01*
X82241905Y-209559357D01*
X82289524Y-209749833D01*
X82289524Y-209987929D01*
X82241905Y-210178405D01*
X82194286Y-210273643D01*
X82146667Y-210321262D01*
X82051429Y-210368881D01*
X81956190Y-210368881D01*
X81860952Y-210321262D01*
X81813333Y-210273643D01*
X81765714Y-210178405D01*
X81718095Y-209987929D01*
X81718095Y-209749833D01*
X81765714Y-209559357D01*
X81813333Y-209464119D01*
X81860952Y-209416500D01*
X81956190Y-209368881D01*
X82860952Y-209797452D02*
X82765714Y-209749833D01*
X82718095Y-209702214D01*
X82670476Y-209606976D01*
X82670476Y-209559357D01*
X82718095Y-209464119D01*
X82765714Y-209416500D01*
X82860952Y-209368881D01*
X83051429Y-209368881D01*
X83146667Y-209416500D01*
X83194286Y-209464119D01*
X83241905Y-209559357D01*
X83241905Y-209606976D01*
X83194286Y-209702214D01*
X83146667Y-209749833D01*
X83051429Y-209797452D01*
X82860952Y-209797452D01*
X82765714Y-209845071D01*
X82718095Y-209892690D01*
X82670476Y-209987929D01*
X82670476Y-210178405D01*
X82718095Y-210273643D01*
X82765714Y-210321262D01*
X82860952Y-210368881D01*
X83051429Y-210368881D01*
X83146667Y-210321262D01*
X83194286Y-210273643D01*
X83241905Y-210178405D01*
X83241905Y-209987929D01*
X83194286Y-209892690D01*
X83146667Y-209845071D01*
X83051429Y-209797452D01*
X85972381Y-230464119D02*
X85877143Y-230416500D01*
X85781905Y-230321262D01*
X85639048Y-230178405D01*
X85543809Y-230130786D01*
X85448571Y-230130786D01*
X85496190Y-230368881D02*
X85400952Y-230321262D01*
X85305714Y-230226024D01*
X85258095Y-230035548D01*
X85258095Y-229702214D01*
X85305714Y-229511738D01*
X85400952Y-229416500D01*
X85496190Y-229368881D01*
X85686667Y-229368881D01*
X85781905Y-229416500D01*
X85877143Y-229511738D01*
X85924762Y-229702214D01*
X85924762Y-230035548D01*
X85877143Y-230226024D01*
X85781905Y-230321262D01*
X85686667Y-230368881D01*
X85496190Y-230368881D01*
X86829524Y-229368881D02*
X86353333Y-229368881D01*
X86305714Y-229845071D01*
X86353333Y-229797452D01*
X86448571Y-229749833D01*
X86686667Y-229749833D01*
X86781905Y-229797452D01*
X86829524Y-229845071D01*
X86877143Y-229940310D01*
X86877143Y-230178405D01*
X86829524Y-230273643D01*
X86781905Y-230321262D01*
X86686667Y-230368881D01*
X86448571Y-230368881D01*
X86353333Y-230321262D01*
X86305714Y-230273643D01*
X87496190Y-229368881D02*
X87591429Y-229368881D01*
X87686667Y-229416500D01*
X87734286Y-229464119D01*
X87781905Y-229559357D01*
X87829524Y-229749833D01*
X87829524Y-229987929D01*
X87781905Y-230178405D01*
X87734286Y-230273643D01*
X87686667Y-230321262D01*
X87591429Y-230368881D01*
X87496190Y-230368881D01*
X87400952Y-230321262D01*
X87353333Y-230273643D01*
X87305714Y-230178405D01*
X87258095Y-229987929D01*
X87258095Y-229749833D01*
X87305714Y-229559357D01*
X87353333Y-229464119D01*
X87400952Y-229416500D01*
X87496190Y-229368881D01*
X88305714Y-230368881D02*
X88496190Y-230368881D01*
X88591429Y-230321262D01*
X88639048Y-230273643D01*
X88734286Y-230130786D01*
X88781905Y-229940310D01*
X88781905Y-229559357D01*
X88734286Y-229464119D01*
X88686667Y-229416500D01*
X88591429Y-229368881D01*
X88400952Y-229368881D01*
X88305714Y-229416500D01*
X88258095Y-229464119D01*
X88210476Y-229559357D01*
X88210476Y-229797452D01*
X88258095Y-229892690D01*
X88305714Y-229940310D01*
X88400952Y-229987929D01*
X88591429Y-229987929D01*
X88686667Y-229940310D01*
X88734286Y-229892690D01*
X88781905Y-229797452D01*
X91214119Y-227817619D02*
X91166500Y-227912857D01*
X91071262Y-228008095D01*
X90928405Y-228150952D01*
X90880786Y-228246191D01*
X90880786Y-228341429D01*
X91118881Y-228293810D02*
X91071262Y-228389048D01*
X90976024Y-228484286D01*
X90785548Y-228531905D01*
X90452214Y-228531905D01*
X90261738Y-228484286D01*
X90166500Y-228389048D01*
X90118881Y-228293810D01*
X90118881Y-228103333D01*
X90166500Y-228008095D01*
X90261738Y-227912857D01*
X90452214Y-227865238D01*
X90785548Y-227865238D01*
X90976024Y-227912857D01*
X91071262Y-228008095D01*
X91118881Y-228103333D01*
X91118881Y-228293810D01*
X90118881Y-226960476D02*
X90118881Y-227436667D01*
X90595071Y-227484286D01*
X90547452Y-227436667D01*
X90499833Y-227341429D01*
X90499833Y-227103333D01*
X90547452Y-227008095D01*
X90595071Y-226960476D01*
X90690310Y-226912857D01*
X90928405Y-226912857D01*
X91023643Y-226960476D01*
X91071262Y-227008095D01*
X91118881Y-227103333D01*
X91118881Y-227341429D01*
X91071262Y-227436667D01*
X91023643Y-227484286D01*
X91118881Y-225960476D02*
X91118881Y-226531905D01*
X91118881Y-226246191D02*
X90118881Y-226246191D01*
X90261738Y-226341429D01*
X90356976Y-226436667D01*
X90404595Y-226531905D01*
X90118881Y-225341429D02*
X90118881Y-225246190D01*
X90166500Y-225150952D01*
X90214119Y-225103333D01*
X90309357Y-225055714D01*
X90499833Y-225008095D01*
X90737929Y-225008095D01*
X90928405Y-225055714D01*
X91023643Y-225103333D01*
X91071262Y-225150952D01*
X91118881Y-225246190D01*
X91118881Y-225341429D01*
X91071262Y-225436667D01*
X91023643Y-225484286D01*
X90928405Y-225531905D01*
X90737929Y-225579524D01*
X90499833Y-225579524D01*
X90309357Y-225531905D01*
X90214119Y-225484286D01*
X90166500Y-225436667D01*
X90118881Y-225341429D01*
X227340953Y-169952381D02*
X227007619Y-169476190D01*
X226769524Y-169952381D02*
X226769524Y-168952381D01*
X227150477Y-168952381D01*
X227245715Y-169000000D01*
X227293334Y-169047619D01*
X227340953Y-169142857D01*
X227340953Y-169285714D01*
X227293334Y-169380952D01*
X227245715Y-169428571D01*
X227150477Y-169476190D01*
X226769524Y-169476190D01*
X227721905Y-169047619D02*
X227769524Y-169000000D01*
X227864762Y-168952381D01*
X228102858Y-168952381D01*
X228198096Y-169000000D01*
X228245715Y-169047619D01*
X228293334Y-169142857D01*
X228293334Y-169238095D01*
X228245715Y-169380952D01*
X227674286Y-169952381D01*
X228293334Y-169952381D01*
X228912381Y-168952381D02*
X229007620Y-168952381D01*
X229102858Y-169000000D01*
X229150477Y-169047619D01*
X229198096Y-169142857D01*
X229245715Y-169333333D01*
X229245715Y-169571429D01*
X229198096Y-169761905D01*
X229150477Y-169857143D01*
X229102858Y-169904762D01*
X229007620Y-169952381D01*
X228912381Y-169952381D01*
X228817143Y-169904762D01*
X228769524Y-169857143D01*
X228721905Y-169761905D01*
X228674286Y-169571429D01*
X228674286Y-169333333D01*
X228721905Y-169142857D01*
X228769524Y-169047619D01*
X228817143Y-169000000D01*
X228912381Y-168952381D01*
X230150477Y-168952381D02*
X229674286Y-168952381D01*
X229626667Y-169428571D01*
X229674286Y-169380952D01*
X229769524Y-169333333D01*
X230007620Y-169333333D01*
X230102858Y-169380952D01*
X230150477Y-169428571D01*
X230198096Y-169523810D01*
X230198096Y-169761905D01*
X230150477Y-169857143D01*
X230102858Y-169904762D01*
X230007620Y-169952381D01*
X229769524Y-169952381D01*
X229674286Y-169904762D01*
X229626667Y-169857143D01*
X227340953Y-172202381D02*
X227007619Y-171726190D01*
X226769524Y-172202381D02*
X226769524Y-171202381D01*
X227150477Y-171202381D01*
X227245715Y-171250000D01*
X227293334Y-171297619D01*
X227340953Y-171392857D01*
X227340953Y-171535714D01*
X227293334Y-171630952D01*
X227245715Y-171678571D01*
X227150477Y-171726190D01*
X226769524Y-171726190D01*
X227721905Y-171297619D02*
X227769524Y-171250000D01*
X227864762Y-171202381D01*
X228102858Y-171202381D01*
X228198096Y-171250000D01*
X228245715Y-171297619D01*
X228293334Y-171392857D01*
X228293334Y-171488095D01*
X228245715Y-171630952D01*
X227674286Y-172202381D01*
X228293334Y-172202381D01*
X228912381Y-171202381D02*
X229007620Y-171202381D01*
X229102858Y-171250000D01*
X229150477Y-171297619D01*
X229198096Y-171392857D01*
X229245715Y-171583333D01*
X229245715Y-171821429D01*
X229198096Y-172011905D01*
X229150477Y-172107143D01*
X229102858Y-172154762D01*
X229007620Y-172202381D01*
X228912381Y-172202381D01*
X228817143Y-172154762D01*
X228769524Y-172107143D01*
X228721905Y-172011905D01*
X228674286Y-171821429D01*
X228674286Y-171583333D01*
X228721905Y-171392857D01*
X228769524Y-171297619D01*
X228817143Y-171250000D01*
X228912381Y-171202381D01*
X230102858Y-171202381D02*
X229912381Y-171202381D01*
X229817143Y-171250000D01*
X229769524Y-171297619D01*
X229674286Y-171440476D01*
X229626667Y-171630952D01*
X229626667Y-172011905D01*
X229674286Y-172107143D01*
X229721905Y-172154762D01*
X229817143Y-172202381D01*
X230007620Y-172202381D01*
X230102858Y-172154762D01*
X230150477Y-172107143D01*
X230198096Y-172011905D01*
X230198096Y-171773810D01*
X230150477Y-171678571D01*
X230102858Y-171630952D01*
X230007620Y-171583333D01*
X229817143Y-171583333D01*
X229721905Y-171630952D01*
X229674286Y-171678571D01*
X229626667Y-171773810D01*
X227340953Y-149952381D02*
X227007619Y-149476190D01*
X226769524Y-149952381D02*
X226769524Y-148952381D01*
X227150477Y-148952381D01*
X227245715Y-149000000D01*
X227293334Y-149047619D01*
X227340953Y-149142857D01*
X227340953Y-149285714D01*
X227293334Y-149380952D01*
X227245715Y-149428571D01*
X227150477Y-149476190D01*
X226769524Y-149476190D01*
X227721905Y-149047619D02*
X227769524Y-149000000D01*
X227864762Y-148952381D01*
X228102858Y-148952381D01*
X228198096Y-149000000D01*
X228245715Y-149047619D01*
X228293334Y-149142857D01*
X228293334Y-149238095D01*
X228245715Y-149380952D01*
X227674286Y-149952381D01*
X228293334Y-149952381D01*
X228912381Y-148952381D02*
X229007620Y-148952381D01*
X229102858Y-149000000D01*
X229150477Y-149047619D01*
X229198096Y-149142857D01*
X229245715Y-149333333D01*
X229245715Y-149571429D01*
X229198096Y-149761905D01*
X229150477Y-149857143D01*
X229102858Y-149904762D01*
X229007620Y-149952381D01*
X228912381Y-149952381D01*
X228817143Y-149904762D01*
X228769524Y-149857143D01*
X228721905Y-149761905D01*
X228674286Y-149571429D01*
X228674286Y-149333333D01*
X228721905Y-149142857D01*
X228769524Y-149047619D01*
X228817143Y-149000000D01*
X228912381Y-148952381D01*
X229579048Y-148952381D02*
X230245715Y-148952381D01*
X229817143Y-149952381D01*
X227340953Y-152202381D02*
X227007619Y-151726190D01*
X226769524Y-152202381D02*
X226769524Y-151202381D01*
X227150477Y-151202381D01*
X227245715Y-151250000D01*
X227293334Y-151297619D01*
X227340953Y-151392857D01*
X227340953Y-151535714D01*
X227293334Y-151630952D01*
X227245715Y-151678571D01*
X227150477Y-151726190D01*
X226769524Y-151726190D01*
X227721905Y-151297619D02*
X227769524Y-151250000D01*
X227864762Y-151202381D01*
X228102858Y-151202381D01*
X228198096Y-151250000D01*
X228245715Y-151297619D01*
X228293334Y-151392857D01*
X228293334Y-151488095D01*
X228245715Y-151630952D01*
X227674286Y-152202381D01*
X228293334Y-152202381D01*
X228912381Y-151202381D02*
X229007620Y-151202381D01*
X229102858Y-151250000D01*
X229150477Y-151297619D01*
X229198096Y-151392857D01*
X229245715Y-151583333D01*
X229245715Y-151821429D01*
X229198096Y-152011905D01*
X229150477Y-152107143D01*
X229102858Y-152154762D01*
X229007620Y-152202381D01*
X228912381Y-152202381D01*
X228817143Y-152154762D01*
X228769524Y-152107143D01*
X228721905Y-152011905D01*
X228674286Y-151821429D01*
X228674286Y-151583333D01*
X228721905Y-151392857D01*
X228769524Y-151297619D01*
X228817143Y-151250000D01*
X228912381Y-151202381D01*
X229817143Y-151630952D02*
X229721905Y-151583333D01*
X229674286Y-151535714D01*
X229626667Y-151440476D01*
X229626667Y-151392857D01*
X229674286Y-151297619D01*
X229721905Y-151250000D01*
X229817143Y-151202381D01*
X230007620Y-151202381D01*
X230102858Y-151250000D01*
X230150477Y-151297619D01*
X230198096Y-151392857D01*
X230198096Y-151440476D01*
X230150477Y-151535714D01*
X230102858Y-151583333D01*
X230007620Y-151630952D01*
X229817143Y-151630952D01*
X229721905Y-151678571D01*
X229674286Y-151726190D01*
X229626667Y-151821429D01*
X229626667Y-152011905D01*
X229674286Y-152107143D01*
X229721905Y-152154762D01*
X229817143Y-152202381D01*
X230007620Y-152202381D01*
X230102858Y-152154762D01*
X230150477Y-152107143D01*
X230198096Y-152011905D01*
X230198096Y-151821429D01*
X230150477Y-151726190D01*
X230102858Y-151678571D01*
X230007620Y-151630952D01*
X227340953Y-89952381D02*
X227007619Y-89476190D01*
X226769524Y-89952381D02*
X226769524Y-88952381D01*
X227150477Y-88952381D01*
X227245715Y-89000000D01*
X227293334Y-89047619D01*
X227340953Y-89142857D01*
X227340953Y-89285714D01*
X227293334Y-89380952D01*
X227245715Y-89428571D01*
X227150477Y-89476190D01*
X226769524Y-89476190D01*
X227674286Y-88952381D02*
X228293334Y-88952381D01*
X227960000Y-89333333D01*
X228102858Y-89333333D01*
X228198096Y-89380952D01*
X228245715Y-89428571D01*
X228293334Y-89523810D01*
X228293334Y-89761905D01*
X228245715Y-89857143D01*
X228198096Y-89904762D01*
X228102858Y-89952381D01*
X227817143Y-89952381D01*
X227721905Y-89904762D01*
X227674286Y-89857143D01*
X228912381Y-88952381D02*
X229007620Y-88952381D01*
X229102858Y-89000000D01*
X229150477Y-89047619D01*
X229198096Y-89142857D01*
X229245715Y-89333333D01*
X229245715Y-89571429D01*
X229198096Y-89761905D01*
X229150477Y-89857143D01*
X229102858Y-89904762D01*
X229007620Y-89952381D01*
X228912381Y-89952381D01*
X228817143Y-89904762D01*
X228769524Y-89857143D01*
X228721905Y-89761905D01*
X228674286Y-89571429D01*
X228674286Y-89333333D01*
X228721905Y-89142857D01*
X228769524Y-89047619D01*
X228817143Y-89000000D01*
X228912381Y-88952381D01*
X230150477Y-88952381D02*
X229674286Y-88952381D01*
X229626667Y-89428571D01*
X229674286Y-89380952D01*
X229769524Y-89333333D01*
X230007620Y-89333333D01*
X230102858Y-89380952D01*
X230150477Y-89428571D01*
X230198096Y-89523810D01*
X230198096Y-89761905D01*
X230150477Y-89857143D01*
X230102858Y-89904762D01*
X230007620Y-89952381D01*
X229769524Y-89952381D01*
X229674286Y-89904762D01*
X229626667Y-89857143D01*
X227340953Y-92202381D02*
X227007619Y-91726190D01*
X226769524Y-92202381D02*
X226769524Y-91202381D01*
X227150477Y-91202381D01*
X227245715Y-91250000D01*
X227293334Y-91297619D01*
X227340953Y-91392857D01*
X227340953Y-91535714D01*
X227293334Y-91630952D01*
X227245715Y-91678571D01*
X227150477Y-91726190D01*
X226769524Y-91726190D01*
X227674286Y-91202381D02*
X228293334Y-91202381D01*
X227960000Y-91583333D01*
X228102858Y-91583333D01*
X228198096Y-91630952D01*
X228245715Y-91678571D01*
X228293334Y-91773810D01*
X228293334Y-92011905D01*
X228245715Y-92107143D01*
X228198096Y-92154762D01*
X228102858Y-92202381D01*
X227817143Y-92202381D01*
X227721905Y-92154762D01*
X227674286Y-92107143D01*
X228912381Y-91202381D02*
X229007620Y-91202381D01*
X229102858Y-91250000D01*
X229150477Y-91297619D01*
X229198096Y-91392857D01*
X229245715Y-91583333D01*
X229245715Y-91821429D01*
X229198096Y-92011905D01*
X229150477Y-92107143D01*
X229102858Y-92154762D01*
X229007620Y-92202381D01*
X228912381Y-92202381D01*
X228817143Y-92154762D01*
X228769524Y-92107143D01*
X228721905Y-92011905D01*
X228674286Y-91821429D01*
X228674286Y-91583333D01*
X228721905Y-91392857D01*
X228769524Y-91297619D01*
X228817143Y-91250000D01*
X228912381Y-91202381D01*
X230102858Y-91202381D02*
X229912381Y-91202381D01*
X229817143Y-91250000D01*
X229769524Y-91297619D01*
X229674286Y-91440476D01*
X229626667Y-91630952D01*
X229626667Y-92011905D01*
X229674286Y-92107143D01*
X229721905Y-92154762D01*
X229817143Y-92202381D01*
X230007620Y-92202381D01*
X230102858Y-92154762D01*
X230150477Y-92107143D01*
X230198096Y-92011905D01*
X230198096Y-91773810D01*
X230150477Y-91678571D01*
X230102858Y-91630952D01*
X230007620Y-91583333D01*
X229817143Y-91583333D01*
X229721905Y-91630952D01*
X229674286Y-91678571D01*
X229626667Y-91773810D01*
X227340953Y-69952381D02*
X227007619Y-69476190D01*
X226769524Y-69952381D02*
X226769524Y-68952381D01*
X227150477Y-68952381D01*
X227245715Y-69000000D01*
X227293334Y-69047619D01*
X227340953Y-69142857D01*
X227340953Y-69285714D01*
X227293334Y-69380952D01*
X227245715Y-69428571D01*
X227150477Y-69476190D01*
X226769524Y-69476190D01*
X227674286Y-68952381D02*
X228293334Y-68952381D01*
X227960000Y-69333333D01*
X228102858Y-69333333D01*
X228198096Y-69380952D01*
X228245715Y-69428571D01*
X228293334Y-69523810D01*
X228293334Y-69761905D01*
X228245715Y-69857143D01*
X228198096Y-69904762D01*
X228102858Y-69952381D01*
X227817143Y-69952381D01*
X227721905Y-69904762D01*
X227674286Y-69857143D01*
X228912381Y-68952381D02*
X229007620Y-68952381D01*
X229102858Y-69000000D01*
X229150477Y-69047619D01*
X229198096Y-69142857D01*
X229245715Y-69333333D01*
X229245715Y-69571429D01*
X229198096Y-69761905D01*
X229150477Y-69857143D01*
X229102858Y-69904762D01*
X229007620Y-69952381D01*
X228912381Y-69952381D01*
X228817143Y-69904762D01*
X228769524Y-69857143D01*
X228721905Y-69761905D01*
X228674286Y-69571429D01*
X228674286Y-69333333D01*
X228721905Y-69142857D01*
X228769524Y-69047619D01*
X228817143Y-69000000D01*
X228912381Y-68952381D01*
X229579048Y-68952381D02*
X230245715Y-68952381D01*
X229817143Y-69952381D01*
X227340953Y-72202381D02*
X227007619Y-71726190D01*
X226769524Y-72202381D02*
X226769524Y-71202381D01*
X227150477Y-71202381D01*
X227245715Y-71250000D01*
X227293334Y-71297619D01*
X227340953Y-71392857D01*
X227340953Y-71535714D01*
X227293334Y-71630952D01*
X227245715Y-71678571D01*
X227150477Y-71726190D01*
X226769524Y-71726190D01*
X227674286Y-71202381D02*
X228293334Y-71202381D01*
X227960000Y-71583333D01*
X228102858Y-71583333D01*
X228198096Y-71630952D01*
X228245715Y-71678571D01*
X228293334Y-71773810D01*
X228293334Y-72011905D01*
X228245715Y-72107143D01*
X228198096Y-72154762D01*
X228102858Y-72202381D01*
X227817143Y-72202381D01*
X227721905Y-72154762D01*
X227674286Y-72107143D01*
X228912381Y-71202381D02*
X229007620Y-71202381D01*
X229102858Y-71250000D01*
X229150477Y-71297619D01*
X229198096Y-71392857D01*
X229245715Y-71583333D01*
X229245715Y-71821429D01*
X229198096Y-72011905D01*
X229150477Y-72107143D01*
X229102858Y-72154762D01*
X229007620Y-72202381D01*
X228912381Y-72202381D01*
X228817143Y-72154762D01*
X228769524Y-72107143D01*
X228721905Y-72011905D01*
X228674286Y-71821429D01*
X228674286Y-71583333D01*
X228721905Y-71392857D01*
X228769524Y-71297619D01*
X228817143Y-71250000D01*
X228912381Y-71202381D01*
X229817143Y-71630952D02*
X229721905Y-71583333D01*
X229674286Y-71535714D01*
X229626667Y-71440476D01*
X229626667Y-71392857D01*
X229674286Y-71297619D01*
X229721905Y-71250000D01*
X229817143Y-71202381D01*
X230007620Y-71202381D01*
X230102858Y-71250000D01*
X230150477Y-71297619D01*
X230198096Y-71392857D01*
X230198096Y-71440476D01*
X230150477Y-71535714D01*
X230102858Y-71583333D01*
X230007620Y-71630952D01*
X229817143Y-71630952D01*
X229721905Y-71678571D01*
X229674286Y-71726190D01*
X229626667Y-71821429D01*
X229626667Y-72011905D01*
X229674286Y-72107143D01*
X229721905Y-72154762D01*
X229817143Y-72202381D01*
X230007620Y-72202381D01*
X230102858Y-72154762D01*
X230150477Y-72107143D01*
X230198096Y-72011905D01*
X230198096Y-71821429D01*
X230150477Y-71726190D01*
X230102858Y-71678571D01*
X230007620Y-71630952D01*
X84420953Y-127702381D02*
X84087619Y-127226190D01*
X83849524Y-127702381D02*
X83849524Y-126702381D01*
X84230477Y-126702381D01*
X84325715Y-126750000D01*
X84373334Y-126797619D01*
X84420953Y-126892857D01*
X84420953Y-127035714D01*
X84373334Y-127130952D01*
X84325715Y-127178571D01*
X84230477Y-127226190D01*
X83849524Y-127226190D01*
X85278096Y-127035714D02*
X85278096Y-127702381D01*
X85040000Y-126654762D02*
X84801905Y-127369048D01*
X85420953Y-127369048D01*
X85992381Y-126702381D02*
X86087620Y-126702381D01*
X86182858Y-126750000D01*
X86230477Y-126797619D01*
X86278096Y-126892857D01*
X86325715Y-127083333D01*
X86325715Y-127321429D01*
X86278096Y-127511905D01*
X86230477Y-127607143D01*
X86182858Y-127654762D01*
X86087620Y-127702381D01*
X85992381Y-127702381D01*
X85897143Y-127654762D01*
X85849524Y-127607143D01*
X85801905Y-127511905D01*
X85754286Y-127321429D01*
X85754286Y-127083333D01*
X85801905Y-126892857D01*
X85849524Y-126797619D01*
X85897143Y-126750000D01*
X85992381Y-126702381D01*
X87230477Y-126702381D02*
X86754286Y-126702381D01*
X86706667Y-127178571D01*
X86754286Y-127130952D01*
X86849524Y-127083333D01*
X87087620Y-127083333D01*
X87182858Y-127130952D01*
X87230477Y-127178571D01*
X87278096Y-127273810D01*
X87278096Y-127511905D01*
X87230477Y-127607143D01*
X87182858Y-127654762D01*
X87087620Y-127702381D01*
X86849524Y-127702381D01*
X86754286Y-127654762D01*
X86706667Y-127607143D01*
X84420953Y-125452381D02*
X84087619Y-124976190D01*
X83849524Y-125452381D02*
X83849524Y-124452381D01*
X84230477Y-124452381D01*
X84325715Y-124500000D01*
X84373334Y-124547619D01*
X84420953Y-124642857D01*
X84420953Y-124785714D01*
X84373334Y-124880952D01*
X84325715Y-124928571D01*
X84230477Y-124976190D01*
X83849524Y-124976190D01*
X85278096Y-124785714D02*
X85278096Y-125452381D01*
X85040000Y-124404762D02*
X84801905Y-125119048D01*
X85420953Y-125119048D01*
X85992381Y-124452381D02*
X86087620Y-124452381D01*
X86182858Y-124500000D01*
X86230477Y-124547619D01*
X86278096Y-124642857D01*
X86325715Y-124833333D01*
X86325715Y-125071429D01*
X86278096Y-125261905D01*
X86230477Y-125357143D01*
X86182858Y-125404762D01*
X86087620Y-125452381D01*
X85992381Y-125452381D01*
X85897143Y-125404762D01*
X85849524Y-125357143D01*
X85801905Y-125261905D01*
X85754286Y-125071429D01*
X85754286Y-124833333D01*
X85801905Y-124642857D01*
X85849524Y-124547619D01*
X85897143Y-124500000D01*
X85992381Y-124452381D01*
X87182858Y-124452381D02*
X86992381Y-124452381D01*
X86897143Y-124500000D01*
X86849524Y-124547619D01*
X86754286Y-124690476D01*
X86706667Y-124880952D01*
X86706667Y-125261905D01*
X86754286Y-125357143D01*
X86801905Y-125404762D01*
X86897143Y-125452381D01*
X87087620Y-125452381D01*
X87182858Y-125404762D01*
X87230477Y-125357143D01*
X87278096Y-125261905D01*
X87278096Y-125023810D01*
X87230477Y-124928571D01*
X87182858Y-124880952D01*
X87087620Y-124833333D01*
X86897143Y-124833333D01*
X86801905Y-124880952D01*
X86754286Y-124928571D01*
X86706667Y-125023810D01*
X84420953Y-147702381D02*
X84087619Y-147226190D01*
X83849524Y-147702381D02*
X83849524Y-146702381D01*
X84230477Y-146702381D01*
X84325715Y-146750000D01*
X84373334Y-146797619D01*
X84420953Y-146892857D01*
X84420953Y-147035714D01*
X84373334Y-147130952D01*
X84325715Y-147178571D01*
X84230477Y-147226190D01*
X83849524Y-147226190D01*
X85278096Y-147035714D02*
X85278096Y-147702381D01*
X85040000Y-146654762D02*
X84801905Y-147369048D01*
X85420953Y-147369048D01*
X85992381Y-146702381D02*
X86087620Y-146702381D01*
X86182858Y-146750000D01*
X86230477Y-146797619D01*
X86278096Y-146892857D01*
X86325715Y-147083333D01*
X86325715Y-147321429D01*
X86278096Y-147511905D01*
X86230477Y-147607143D01*
X86182858Y-147654762D01*
X86087620Y-147702381D01*
X85992381Y-147702381D01*
X85897143Y-147654762D01*
X85849524Y-147607143D01*
X85801905Y-147511905D01*
X85754286Y-147321429D01*
X85754286Y-147083333D01*
X85801905Y-146892857D01*
X85849524Y-146797619D01*
X85897143Y-146750000D01*
X85992381Y-146702381D01*
X86659048Y-146702381D02*
X87325715Y-146702381D01*
X86897143Y-147702381D01*
X84420953Y-145452381D02*
X84087619Y-144976190D01*
X83849524Y-145452381D02*
X83849524Y-144452381D01*
X84230477Y-144452381D01*
X84325715Y-144500000D01*
X84373334Y-144547619D01*
X84420953Y-144642857D01*
X84420953Y-144785714D01*
X84373334Y-144880952D01*
X84325715Y-144928571D01*
X84230477Y-144976190D01*
X83849524Y-144976190D01*
X85278096Y-144785714D02*
X85278096Y-145452381D01*
X85040000Y-144404762D02*
X84801905Y-145119048D01*
X85420953Y-145119048D01*
X85992381Y-144452381D02*
X86087620Y-144452381D01*
X86182858Y-144500000D01*
X86230477Y-144547619D01*
X86278096Y-144642857D01*
X86325715Y-144833333D01*
X86325715Y-145071429D01*
X86278096Y-145261905D01*
X86230477Y-145357143D01*
X86182858Y-145404762D01*
X86087620Y-145452381D01*
X85992381Y-145452381D01*
X85897143Y-145404762D01*
X85849524Y-145357143D01*
X85801905Y-145261905D01*
X85754286Y-145071429D01*
X85754286Y-144833333D01*
X85801905Y-144642857D01*
X85849524Y-144547619D01*
X85897143Y-144500000D01*
X85992381Y-144452381D01*
X86897143Y-144880952D02*
X86801905Y-144833333D01*
X86754286Y-144785714D01*
X86706667Y-144690476D01*
X86706667Y-144642857D01*
X86754286Y-144547619D01*
X86801905Y-144500000D01*
X86897143Y-144452381D01*
X87087620Y-144452381D01*
X87182858Y-144500000D01*
X87230477Y-144547619D01*
X87278096Y-144642857D01*
X87278096Y-144690476D01*
X87230477Y-144785714D01*
X87182858Y-144833333D01*
X87087620Y-144880952D01*
X86897143Y-144880952D01*
X86801905Y-144928571D01*
X86754286Y-144976190D01*
X86706667Y-145071429D01*
X86706667Y-145261905D01*
X86754286Y-145357143D01*
X86801905Y-145404762D01*
X86897143Y-145452381D01*
X87087620Y-145452381D01*
X87182858Y-145404762D01*
X87230477Y-145357143D01*
X87278096Y-145261905D01*
X87278096Y-145071429D01*
X87230477Y-144976190D01*
X87182858Y-144928571D01*
X87087620Y-144880952D01*
X84420953Y-207702381D02*
X84087619Y-207226190D01*
X83849524Y-207702381D02*
X83849524Y-206702381D01*
X84230477Y-206702381D01*
X84325715Y-206750000D01*
X84373334Y-206797619D01*
X84420953Y-206892857D01*
X84420953Y-207035714D01*
X84373334Y-207130952D01*
X84325715Y-207178571D01*
X84230477Y-207226190D01*
X83849524Y-207226190D01*
X85325715Y-206702381D02*
X84849524Y-206702381D01*
X84801905Y-207178571D01*
X84849524Y-207130952D01*
X84944762Y-207083333D01*
X85182858Y-207083333D01*
X85278096Y-207130952D01*
X85325715Y-207178571D01*
X85373334Y-207273810D01*
X85373334Y-207511905D01*
X85325715Y-207607143D01*
X85278096Y-207654762D01*
X85182858Y-207702381D01*
X84944762Y-207702381D01*
X84849524Y-207654762D01*
X84801905Y-207607143D01*
X85992381Y-206702381D02*
X86087620Y-206702381D01*
X86182858Y-206750000D01*
X86230477Y-206797619D01*
X86278096Y-206892857D01*
X86325715Y-207083333D01*
X86325715Y-207321429D01*
X86278096Y-207511905D01*
X86230477Y-207607143D01*
X86182858Y-207654762D01*
X86087620Y-207702381D01*
X85992381Y-207702381D01*
X85897143Y-207654762D01*
X85849524Y-207607143D01*
X85801905Y-207511905D01*
X85754286Y-207321429D01*
X85754286Y-207083333D01*
X85801905Y-206892857D01*
X85849524Y-206797619D01*
X85897143Y-206750000D01*
X85992381Y-206702381D01*
X87230477Y-206702381D02*
X86754286Y-206702381D01*
X86706667Y-207178571D01*
X86754286Y-207130952D01*
X86849524Y-207083333D01*
X87087620Y-207083333D01*
X87182858Y-207130952D01*
X87230477Y-207178571D01*
X87278096Y-207273810D01*
X87278096Y-207511905D01*
X87230477Y-207607143D01*
X87182858Y-207654762D01*
X87087620Y-207702381D01*
X86849524Y-207702381D01*
X86754286Y-207654762D01*
X86706667Y-207607143D01*
X84420953Y-205452381D02*
X84087619Y-204976190D01*
X83849524Y-205452381D02*
X83849524Y-204452381D01*
X84230477Y-204452381D01*
X84325715Y-204500000D01*
X84373334Y-204547619D01*
X84420953Y-204642857D01*
X84420953Y-204785714D01*
X84373334Y-204880952D01*
X84325715Y-204928571D01*
X84230477Y-204976190D01*
X83849524Y-204976190D01*
X85325715Y-204452381D02*
X84849524Y-204452381D01*
X84801905Y-204928571D01*
X84849524Y-204880952D01*
X84944762Y-204833333D01*
X85182858Y-204833333D01*
X85278096Y-204880952D01*
X85325715Y-204928571D01*
X85373334Y-205023810D01*
X85373334Y-205261905D01*
X85325715Y-205357143D01*
X85278096Y-205404762D01*
X85182858Y-205452381D01*
X84944762Y-205452381D01*
X84849524Y-205404762D01*
X84801905Y-205357143D01*
X85992381Y-204452381D02*
X86087620Y-204452381D01*
X86182858Y-204500000D01*
X86230477Y-204547619D01*
X86278096Y-204642857D01*
X86325715Y-204833333D01*
X86325715Y-205071429D01*
X86278096Y-205261905D01*
X86230477Y-205357143D01*
X86182858Y-205404762D01*
X86087620Y-205452381D01*
X85992381Y-205452381D01*
X85897143Y-205404762D01*
X85849524Y-205357143D01*
X85801905Y-205261905D01*
X85754286Y-205071429D01*
X85754286Y-204833333D01*
X85801905Y-204642857D01*
X85849524Y-204547619D01*
X85897143Y-204500000D01*
X85992381Y-204452381D01*
X87182858Y-204452381D02*
X86992381Y-204452381D01*
X86897143Y-204500000D01*
X86849524Y-204547619D01*
X86754286Y-204690476D01*
X86706667Y-204880952D01*
X86706667Y-205261905D01*
X86754286Y-205357143D01*
X86801905Y-205404762D01*
X86897143Y-205452381D01*
X87087620Y-205452381D01*
X87182858Y-205404762D01*
X87230477Y-205357143D01*
X87278096Y-205261905D01*
X87278096Y-205023810D01*
X87230477Y-204928571D01*
X87182858Y-204880952D01*
X87087620Y-204833333D01*
X86897143Y-204833333D01*
X86801905Y-204880952D01*
X86754286Y-204928571D01*
X86706667Y-205023810D01*
X84420953Y-227702381D02*
X84087619Y-227226190D01*
X83849524Y-227702381D02*
X83849524Y-226702381D01*
X84230477Y-226702381D01*
X84325715Y-226750000D01*
X84373334Y-226797619D01*
X84420953Y-226892857D01*
X84420953Y-227035714D01*
X84373334Y-227130952D01*
X84325715Y-227178571D01*
X84230477Y-227226190D01*
X83849524Y-227226190D01*
X85325715Y-226702381D02*
X84849524Y-226702381D01*
X84801905Y-227178571D01*
X84849524Y-227130952D01*
X84944762Y-227083333D01*
X85182858Y-227083333D01*
X85278096Y-227130952D01*
X85325715Y-227178571D01*
X85373334Y-227273810D01*
X85373334Y-227511905D01*
X85325715Y-227607143D01*
X85278096Y-227654762D01*
X85182858Y-227702381D01*
X84944762Y-227702381D01*
X84849524Y-227654762D01*
X84801905Y-227607143D01*
X85992381Y-226702381D02*
X86087620Y-226702381D01*
X86182858Y-226750000D01*
X86230477Y-226797619D01*
X86278096Y-226892857D01*
X86325715Y-227083333D01*
X86325715Y-227321429D01*
X86278096Y-227511905D01*
X86230477Y-227607143D01*
X86182858Y-227654762D01*
X86087620Y-227702381D01*
X85992381Y-227702381D01*
X85897143Y-227654762D01*
X85849524Y-227607143D01*
X85801905Y-227511905D01*
X85754286Y-227321429D01*
X85754286Y-227083333D01*
X85801905Y-226892857D01*
X85849524Y-226797619D01*
X85897143Y-226750000D01*
X85992381Y-226702381D01*
X86659048Y-226702381D02*
X87325715Y-226702381D01*
X86897143Y-227702381D01*
X84420953Y-225452381D02*
X84087619Y-224976190D01*
X83849524Y-225452381D02*
X83849524Y-224452381D01*
X84230477Y-224452381D01*
X84325715Y-224500000D01*
X84373334Y-224547619D01*
X84420953Y-224642857D01*
X84420953Y-224785714D01*
X84373334Y-224880952D01*
X84325715Y-224928571D01*
X84230477Y-224976190D01*
X83849524Y-224976190D01*
X85325715Y-224452381D02*
X84849524Y-224452381D01*
X84801905Y-224928571D01*
X84849524Y-224880952D01*
X84944762Y-224833333D01*
X85182858Y-224833333D01*
X85278096Y-224880952D01*
X85325715Y-224928571D01*
X85373334Y-225023810D01*
X85373334Y-225261905D01*
X85325715Y-225357143D01*
X85278096Y-225404762D01*
X85182858Y-225452381D01*
X84944762Y-225452381D01*
X84849524Y-225404762D01*
X84801905Y-225357143D01*
X85992381Y-224452381D02*
X86087620Y-224452381D01*
X86182858Y-224500000D01*
X86230477Y-224547619D01*
X86278096Y-224642857D01*
X86325715Y-224833333D01*
X86325715Y-225071429D01*
X86278096Y-225261905D01*
X86230477Y-225357143D01*
X86182858Y-225404762D01*
X86087620Y-225452381D01*
X85992381Y-225452381D01*
X85897143Y-225404762D01*
X85849524Y-225357143D01*
X85801905Y-225261905D01*
X85754286Y-225071429D01*
X85754286Y-224833333D01*
X85801905Y-224642857D01*
X85849524Y-224547619D01*
X85897143Y-224500000D01*
X85992381Y-224452381D01*
X86897143Y-224880952D02*
X86801905Y-224833333D01*
X86754286Y-224785714D01*
X86706667Y-224690476D01*
X86706667Y-224642857D01*
X86754286Y-224547619D01*
X86801905Y-224500000D01*
X86897143Y-224452381D01*
X87087620Y-224452381D01*
X87182858Y-224500000D01*
X87230477Y-224547619D01*
X87278096Y-224642857D01*
X87278096Y-224690476D01*
X87230477Y-224785714D01*
X87182858Y-224833333D01*
X87087620Y-224880952D01*
X86897143Y-224880952D01*
X86801905Y-224928571D01*
X86754286Y-224976190D01*
X86706667Y-225071429D01*
X86706667Y-225261905D01*
X86754286Y-225357143D01*
X86801905Y-225404762D01*
X86897143Y-225452381D01*
X87087620Y-225452381D01*
X87182858Y-225404762D01*
X87230477Y-225357143D01*
X87278096Y-225261905D01*
X87278096Y-225071429D01*
X87230477Y-224976190D01*
X87182858Y-224928571D01*
X87087620Y-224880952D01*
X145132381Y-241035714D02*
X145846667Y-241035714D01*
X145989524Y-241083334D01*
X146084762Y-241178572D01*
X146132381Y-241321429D01*
X146132381Y-241416667D01*
X146132381Y-240035714D02*
X146132381Y-240607143D01*
X146132381Y-240321429D02*
X145132381Y-240321429D01*
X145275238Y-240416667D01*
X145370476Y-240511905D01*
X145418095Y-240607143D01*
X145132381Y-239416667D02*
X145132381Y-239321428D01*
X145180000Y-239226190D01*
X145227619Y-239178571D01*
X145322857Y-239130952D01*
X145513333Y-239083333D01*
X145751429Y-239083333D01*
X145941905Y-239130952D01*
X146037143Y-239178571D01*
X146084762Y-239226190D01*
X146132381Y-239321428D01*
X146132381Y-239416667D01*
X146084762Y-239511905D01*
X146037143Y-239559524D01*
X145941905Y-239607143D01*
X145751429Y-239654762D01*
X145513333Y-239654762D01*
X145322857Y-239607143D01*
X145227619Y-239559524D01*
X145180000Y-239511905D01*
X145132381Y-239416667D01*
X145132381Y-238178571D02*
X145132381Y-238654762D01*
X145608571Y-238702381D01*
X145560952Y-238654762D01*
X145513333Y-238559524D01*
X145513333Y-238321428D01*
X145560952Y-238226190D01*
X145608571Y-238178571D01*
X145703810Y-238130952D01*
X145941905Y-238130952D01*
X146037143Y-238178571D01*
X146084762Y-238226190D01*
X146132381Y-238321428D01*
X146132381Y-238559524D01*
X146084762Y-238654762D01*
X146037143Y-238702381D01*
X73666667Y-61252381D02*
X73333333Y-60776190D01*
X73095238Y-61252381D02*
X73095238Y-60252381D01*
X73476191Y-60252381D01*
X73571429Y-60300000D01*
X73619048Y-60347619D01*
X73666667Y-60442857D01*
X73666667Y-60585714D01*
X73619048Y-60680952D01*
X73571429Y-60728571D01*
X73476191Y-60776190D01*
X73095238Y-60776190D01*
X74095238Y-60728571D02*
X74428572Y-60728571D01*
X74571429Y-61252381D02*
X74095238Y-61252381D01*
X74095238Y-60252381D01*
X74571429Y-60252381D01*
X75333334Y-60728571D02*
X75000000Y-60728571D01*
X75000000Y-61252381D02*
X75000000Y-60252381D01*
X75476191Y-60252381D01*
X76000000Y-60252381D02*
X76000000Y-60490476D01*
X75761905Y-60395238D02*
X76000000Y-60490476D01*
X76238096Y-60395238D01*
X75857143Y-60680952D02*
X76000000Y-60490476D01*
X76142858Y-60680952D01*
X76761905Y-60252381D02*
X76761905Y-60490476D01*
X76523810Y-60395238D02*
X76761905Y-60490476D01*
X77000001Y-60395238D01*
X76619048Y-60680952D02*
X76761905Y-60490476D01*
X76904763Y-60680952D01*
X238666667Y-61252381D02*
X238333333Y-60776190D01*
X238095238Y-61252381D02*
X238095238Y-60252381D01*
X238476191Y-60252381D01*
X238571429Y-60300000D01*
X238619048Y-60347619D01*
X238666667Y-60442857D01*
X238666667Y-60585714D01*
X238619048Y-60680952D01*
X238571429Y-60728571D01*
X238476191Y-60776190D01*
X238095238Y-60776190D01*
X239095238Y-60728571D02*
X239428572Y-60728571D01*
X239571429Y-61252381D02*
X239095238Y-61252381D01*
X239095238Y-60252381D01*
X239571429Y-60252381D01*
X240333334Y-60728571D02*
X240000000Y-60728571D01*
X240000000Y-61252381D02*
X240000000Y-60252381D01*
X240476191Y-60252381D01*
X241000000Y-60252381D02*
X241000000Y-60490476D01*
X240761905Y-60395238D02*
X241000000Y-60490476D01*
X241238096Y-60395238D01*
X240857143Y-60680952D02*
X241000000Y-60490476D01*
X241142858Y-60680952D01*
X241761905Y-60252381D02*
X241761905Y-60490476D01*
X241523810Y-60395238D02*
X241761905Y-60490476D01*
X242000001Y-60395238D01*
X241619048Y-60680952D02*
X241761905Y-60490476D01*
X241904763Y-60680952D01*
X73666667Y-238752381D02*
X73333333Y-238276190D01*
X73095238Y-238752381D02*
X73095238Y-237752381D01*
X73476191Y-237752381D01*
X73571429Y-237800000D01*
X73619048Y-237847619D01*
X73666667Y-237942857D01*
X73666667Y-238085714D01*
X73619048Y-238180952D01*
X73571429Y-238228571D01*
X73476191Y-238276190D01*
X73095238Y-238276190D01*
X74095238Y-238228571D02*
X74428572Y-238228571D01*
X74571429Y-238752381D02*
X74095238Y-238752381D01*
X74095238Y-237752381D01*
X74571429Y-237752381D01*
X75333334Y-238228571D02*
X75000000Y-238228571D01*
X75000000Y-238752381D02*
X75000000Y-237752381D01*
X75476191Y-237752381D01*
X76000000Y-237752381D02*
X76000000Y-237990476D01*
X75761905Y-237895238D02*
X76000000Y-237990476D01*
X76238096Y-237895238D01*
X75857143Y-238180952D02*
X76000000Y-237990476D01*
X76142858Y-238180952D01*
X76761905Y-237752381D02*
X76761905Y-237990476D01*
X76523810Y-237895238D02*
X76761905Y-237990476D01*
X77000001Y-237895238D01*
X76619048Y-238180952D02*
X76761905Y-237990476D01*
X76904763Y-238180952D01*
X238666667Y-238752381D02*
X238333333Y-238276190D01*
X238095238Y-238752381D02*
X238095238Y-237752381D01*
X238476191Y-237752381D01*
X238571429Y-237800000D01*
X238619048Y-237847619D01*
X238666667Y-237942857D01*
X238666667Y-238085714D01*
X238619048Y-238180952D01*
X238571429Y-238228571D01*
X238476191Y-238276190D01*
X238095238Y-238276190D01*
X239095238Y-238228571D02*
X239428572Y-238228571D01*
X239571429Y-238752381D02*
X239095238Y-238752381D01*
X239095238Y-237752381D01*
X239571429Y-237752381D01*
X240333334Y-238228571D02*
X240000000Y-238228571D01*
X240000000Y-238752381D02*
X240000000Y-237752381D01*
X240476191Y-237752381D01*
X241000000Y-237752381D02*
X241000000Y-237990476D01*
X240761905Y-237895238D02*
X241000000Y-237990476D01*
X241238096Y-237895238D01*
X240857143Y-238180952D02*
X241000000Y-237990476D01*
X241142858Y-238180952D01*
X241761905Y-237752381D02*
X241761905Y-237990476D01*
X241523810Y-237895238D02*
X241761905Y-237990476D01*
X242000001Y-237895238D01*
X241619048Y-238180952D02*
X241761905Y-237990476D01*
X241904763Y-238180952D01*
M02*
