G04 #@! TF.FileFunction,Soldermask,Bot*
%FSLAX46Y46*%
G04 Gerber Fmt 4.6, Leading zero omitted, Abs format (unit mm)*
G04 Created by KiCad (PCBNEW 4.0.7-e2-6376~61~ubuntu18.04.1) date Mon Aug 19 20:20:04 2019*
%MOMM*%
%LPD*%
G01*
G04 APERTURE LIST*
%ADD10C,0.100000*%
%ADD11R,2.000000X2.000000*%
%ADD12O,2.000000X2.000000*%
%ADD13R,3.400000X7.400000*%
%ADD14O,1.900000X1.300000*%
%ADD15R,1.900000X1.300000*%
%ADD16C,1.800000*%
%ADD17O,1.800000X1.800000*%
G04 APERTURE END LIST*
D10*
D11*
X48809258Y-69809666D03*
D12*
X66589258Y-62189666D03*
X51349258Y-69809666D03*
X64049258Y-62189666D03*
X53889258Y-69809666D03*
X61509258Y-62189666D03*
X56429258Y-69809666D03*
X58969258Y-62189666D03*
X58969258Y-69809666D03*
X56429258Y-62189666D03*
X61509258Y-69809666D03*
X53889258Y-62189666D03*
X64049258Y-69809666D03*
X51349258Y-62189666D03*
X66589258Y-69809666D03*
X48809258Y-62189666D03*
D11*
X66589258Y-19009666D03*
D12*
X48809258Y-26629666D03*
X64049258Y-19009666D03*
X51349258Y-26629666D03*
X61509258Y-19009666D03*
X53889258Y-26629666D03*
X58969258Y-19009666D03*
X56429258Y-26629666D03*
X56429258Y-19009666D03*
X58969258Y-26629666D03*
X53889258Y-19009666D03*
X61509258Y-26629666D03*
X51349258Y-19009666D03*
X64049258Y-26629666D03*
X48809258Y-19009666D03*
X66589258Y-26629666D03*
D11*
X134851758Y-35519666D03*
D12*
X134851758Y-29169666D03*
D11*
X132311758Y-38059666D03*
D12*
X132311758Y-29169666D03*
D11*
X129771758Y-40599666D03*
D12*
X129771758Y-29169666D03*
D11*
X127231758Y-43139666D03*
D12*
X127231758Y-29169666D03*
D11*
X124691758Y-45679666D03*
D12*
X124691758Y-29169666D03*
D11*
X122151758Y-48219666D03*
D12*
X122151758Y-29169666D03*
D11*
X119611758Y-50759666D03*
D12*
X119611758Y-29169666D03*
D11*
X117071758Y-53299666D03*
D12*
X117071758Y-29169666D03*
D11*
X111674258Y-35519666D03*
D12*
X111674258Y-29169666D03*
D11*
X109134258Y-38059666D03*
D12*
X109134258Y-29169666D03*
D11*
X106594258Y-40599666D03*
D12*
X106594258Y-29169666D03*
D11*
X104054258Y-43139666D03*
D12*
X104054258Y-29169666D03*
D11*
X101514258Y-45679666D03*
D12*
X101514258Y-29169666D03*
D11*
X98974258Y-48219666D03*
D12*
X98974258Y-29169666D03*
D11*
X96434258Y-50759666D03*
D12*
X96434258Y-29169666D03*
D11*
X93894258Y-53299666D03*
D12*
X93894258Y-29169666D03*
D11*
X88496758Y-35519666D03*
D12*
X88496758Y-29169666D03*
D11*
X85956758Y-38059666D03*
D12*
X85956758Y-29169666D03*
D11*
X83416758Y-40599666D03*
D12*
X83416758Y-29169666D03*
D11*
X80876758Y-43139666D03*
D12*
X80876758Y-29169666D03*
D11*
X78336758Y-45679666D03*
D12*
X78336758Y-29169666D03*
D11*
X75796758Y-48219666D03*
D12*
X75796758Y-29169666D03*
D11*
X73256758Y-50759666D03*
D12*
X73256758Y-29169666D03*
D11*
X70716758Y-53299666D03*
D12*
X70716758Y-29169666D03*
D11*
X65319258Y-35519666D03*
D12*
X65319258Y-29169666D03*
D11*
X62779258Y-38059666D03*
D12*
X62779258Y-29169666D03*
D11*
X60239258Y-40599666D03*
D12*
X60239258Y-29169666D03*
D11*
X57699258Y-43139666D03*
D12*
X57699258Y-29169666D03*
D11*
X55159258Y-45679666D03*
D12*
X55086757Y-29169666D03*
D11*
X52619258Y-48219666D03*
D12*
X52619258Y-29169666D03*
D11*
X50079258Y-50759666D03*
D12*
X50079258Y-29169666D03*
D11*
X47539258Y-53299666D03*
D12*
X47539258Y-29169666D03*
D11*
X119611758Y-53299666D03*
D12*
X119611758Y-59649666D03*
D11*
X122151758Y-50759666D03*
D12*
X122151758Y-59649666D03*
D11*
X124691758Y-48219666D03*
D12*
X124691758Y-59649666D03*
D11*
X127231758Y-45679666D03*
D12*
X127231758Y-59649666D03*
D11*
X129771758Y-43139666D03*
D12*
X129771758Y-59649666D03*
D11*
X132311758Y-40599666D03*
D12*
X132311758Y-59649666D03*
D11*
X134851758Y-38059666D03*
D12*
X134851758Y-59649666D03*
D11*
X137391758Y-35519666D03*
D12*
X137391758Y-59649666D03*
D11*
X96434258Y-53299666D03*
D12*
X96434258Y-59649666D03*
D11*
X98974258Y-50759666D03*
D12*
X98974258Y-59649666D03*
D11*
X101514258Y-48219666D03*
D12*
X101514258Y-59649666D03*
D11*
X104054258Y-45679666D03*
D12*
X104054258Y-59649666D03*
D11*
X106594258Y-43139666D03*
D12*
X106594258Y-59649666D03*
D11*
X109134258Y-40599666D03*
D12*
X109134258Y-59649666D03*
D11*
X111674258Y-38059666D03*
D12*
X111674258Y-59649666D03*
D11*
X114214258Y-35519666D03*
D12*
X114214258Y-59649666D03*
D11*
X73256758Y-53299666D03*
D12*
X73256758Y-59649666D03*
D11*
X75796758Y-50759666D03*
D12*
X75796758Y-59649666D03*
D11*
X78336758Y-48219666D03*
D12*
X78336758Y-59649666D03*
D11*
X80876758Y-45679666D03*
D12*
X80876758Y-59649666D03*
D11*
X83416758Y-43139666D03*
D12*
X83416758Y-59649666D03*
D11*
X85956758Y-40599666D03*
D12*
X85956758Y-59649666D03*
D11*
X88496758Y-38059666D03*
D12*
X88496758Y-59649666D03*
D11*
X91036758Y-35519666D03*
D12*
X91036758Y-59649666D03*
D11*
X50079258Y-53299666D03*
D12*
X50079258Y-59649666D03*
D11*
X52619258Y-50759666D03*
D12*
X52619258Y-59649666D03*
D11*
X55159258Y-48219666D03*
D12*
X55159258Y-59649666D03*
D11*
X57699258Y-45679666D03*
D12*
X57699258Y-59649666D03*
D11*
X60239258Y-43139666D03*
D12*
X60239258Y-59649666D03*
D11*
X62779258Y-40599666D03*
D12*
X62779258Y-59649666D03*
D11*
X65319258Y-38059666D03*
D12*
X65319258Y-59649666D03*
D11*
X67859258Y-35519666D03*
D12*
X67859258Y-59649666D03*
D13*
X44900000Y-111442500D03*
X48900000Y-111442500D03*
X52900000Y-111442500D03*
X56900000Y-111442500D03*
X60900000Y-111442500D03*
X64900000Y-111442500D03*
X68900000Y-111442500D03*
X72900000Y-111442500D03*
X76900000Y-111442500D03*
X80900000Y-111442500D03*
X84900000Y-111442500D03*
X88900000Y-111442500D03*
D14*
X132715000Y-84455000D03*
X132715000Y-83185000D03*
D15*
X132715000Y-85725000D03*
D14*
X75565000Y-85407500D03*
X75565000Y-84137500D03*
D15*
X75565000Y-86677500D03*
D14*
X132715000Y-89852500D03*
X132715000Y-88582500D03*
D15*
X132715000Y-91122500D03*
D14*
X70802500Y-85407500D03*
X70802500Y-84137500D03*
D15*
X70802500Y-86677500D03*
D14*
X126365000Y-84455000D03*
X126365000Y-83185000D03*
D15*
X126365000Y-85725000D03*
D14*
X70802500Y-90805000D03*
X70802500Y-89535000D03*
D15*
X70802500Y-92075000D03*
D14*
X132715000Y-95250000D03*
X132715000Y-93980000D03*
D15*
X132715000Y-96520000D03*
D14*
X66040000Y-85407500D03*
X66040000Y-84137500D03*
D15*
X66040000Y-86677500D03*
D14*
X97790000Y-80010000D03*
X97790000Y-78740000D03*
D15*
X97790000Y-81280000D03*
D14*
X132715000Y-100647500D03*
X132715000Y-99377500D03*
D15*
X132715000Y-101917500D03*
D14*
X61277500Y-85407500D03*
X61277500Y-84137500D03*
D15*
X61277500Y-86677500D03*
D14*
X126365000Y-89852500D03*
X126365000Y-88582500D03*
D15*
X126365000Y-91122500D03*
D14*
X66040000Y-90805000D03*
X66040000Y-89535000D03*
D15*
X66040000Y-92075000D03*
D14*
X100012500Y-103505000D03*
X100012500Y-102235000D03*
D15*
X100012500Y-104775000D03*
D14*
X95250000Y-98107500D03*
X95250000Y-96837500D03*
D15*
X95250000Y-99377500D03*
D14*
X97790000Y-85407500D03*
X97790000Y-84137500D03*
D15*
X97790000Y-86677500D03*
D14*
X95250000Y-103505000D03*
X95250000Y-102235000D03*
D15*
X95250000Y-104775000D03*
D14*
X100012500Y-98107500D03*
X100012500Y-96837500D03*
D15*
X100012500Y-99377500D03*
D14*
X137477500Y-84455000D03*
X137477500Y-83185000D03*
D15*
X137477500Y-85725000D03*
D14*
X137477500Y-89852500D03*
X137477500Y-88582500D03*
D15*
X137477500Y-91122500D03*
D14*
X137477500Y-95250000D03*
X137477500Y-93980000D03*
D15*
X137477500Y-96520000D03*
D14*
X137477500Y-100647500D03*
X137477500Y-99377500D03*
D15*
X137477500Y-101917500D03*
D14*
X75565000Y-80010000D03*
X75565000Y-78740000D03*
D15*
X75565000Y-81280000D03*
D14*
X70802500Y-80010000D03*
X70802500Y-78740000D03*
D15*
X70802500Y-81280000D03*
D14*
X66040000Y-80010000D03*
X66040000Y-78740000D03*
D15*
X66040000Y-81280000D03*
D14*
X61277500Y-80010000D03*
X61277500Y-78740000D03*
D15*
X61277500Y-81280000D03*
D16*
X131445000Y-73660000D03*
D17*
X126365000Y-73660000D03*
D16*
X50165000Y-81280000D03*
D17*
X50165000Y-86360000D03*
D16*
X131445000Y-75882500D03*
D17*
X126365000Y-75882500D03*
D16*
X52387500Y-81280000D03*
D17*
X52387500Y-86360000D03*
D16*
X131445000Y-78105000D03*
D17*
X126365000Y-78105000D03*
D16*
X54610000Y-81280000D03*
D17*
X54610000Y-86360000D03*
D16*
X88582500Y-76200000D03*
D17*
X93662500Y-76200000D03*
D16*
X131445000Y-80327500D03*
D17*
X126365000Y-80327500D03*
D16*
X56832500Y-81280000D03*
D17*
X56832500Y-86360000D03*
D16*
X88582500Y-82550000D03*
D17*
X93662500Y-82550000D03*
D16*
X91440000Y-93980000D03*
D17*
X96520000Y-93980000D03*
D16*
X133350000Y-72390000D03*
D17*
X138430000Y-72390000D03*
D16*
X133350000Y-74612500D03*
D17*
X138430000Y-74612500D03*
D16*
X133350000Y-76835000D03*
D17*
X138430000Y-76835000D03*
D16*
X133350000Y-79057500D03*
D17*
X138430000Y-79057500D03*
D16*
X55562500Y-79375000D03*
D17*
X55562500Y-74295000D03*
D16*
X53340000Y-79375000D03*
D17*
X53340000Y-74295000D03*
D16*
X51117500Y-79375000D03*
D17*
X51117500Y-74295000D03*
D16*
X48895000Y-79375000D03*
D17*
X48895000Y-74295000D03*
D11*
X136121758Y-19009666D03*
D12*
X118341758Y-26629666D03*
X133581758Y-19009666D03*
X120881758Y-26629666D03*
X131041758Y-19009666D03*
X123421758Y-26629666D03*
X128501758Y-19009666D03*
X125961758Y-26629666D03*
X125961758Y-19009666D03*
X128501758Y-26629666D03*
X123421758Y-19009666D03*
X131041758Y-26629666D03*
X120881758Y-19009666D03*
X133581758Y-26629666D03*
X118341758Y-19009666D03*
X136121758Y-26629666D03*
D11*
X112944258Y-19009666D03*
D12*
X95164258Y-26629666D03*
X110404258Y-19009666D03*
X97704258Y-26629666D03*
X107864258Y-19009666D03*
X100244258Y-26629666D03*
X105324258Y-19009666D03*
X102784258Y-26629666D03*
X102784258Y-19009666D03*
X105324258Y-26629666D03*
X100244258Y-19009666D03*
X107864258Y-26629666D03*
X97704258Y-19009666D03*
X110404258Y-26629666D03*
X95164258Y-19009666D03*
X112944258Y-26629666D03*
D11*
X89766758Y-19009666D03*
D12*
X71986758Y-26629666D03*
X87226758Y-19009666D03*
X74526758Y-26629666D03*
X84686758Y-19009666D03*
X77066758Y-26629666D03*
X82146758Y-19009666D03*
X79606758Y-26629666D03*
X79606758Y-19009666D03*
X82146758Y-26629666D03*
X77066758Y-19009666D03*
X84686758Y-26629666D03*
X74526758Y-19009666D03*
X87226758Y-26629666D03*
X71986758Y-19009666D03*
X89766758Y-26629666D03*
D11*
X118341758Y-69809666D03*
D12*
X136121758Y-62189666D03*
X120881758Y-69809666D03*
X133581758Y-62189666D03*
X123421758Y-69809666D03*
X131041758Y-62189666D03*
X125961758Y-69809666D03*
X128501758Y-62189666D03*
X128501758Y-69809666D03*
X125961758Y-62189666D03*
X131041758Y-69809666D03*
X123421758Y-62189666D03*
X133581758Y-69809666D03*
X120881758Y-62189666D03*
X136121758Y-69809666D03*
X118341758Y-62189666D03*
D11*
X95164258Y-69809666D03*
D12*
X112944258Y-62189666D03*
X97704258Y-69809666D03*
X110404258Y-62189666D03*
X100244258Y-69809666D03*
X107864258Y-62189666D03*
X102784258Y-69809666D03*
X105324258Y-62189666D03*
X105324258Y-69809666D03*
X102784258Y-62189666D03*
X107864258Y-69809666D03*
X100244258Y-62189666D03*
X110404258Y-69809666D03*
X97704258Y-62189666D03*
X112944258Y-69809666D03*
X95164258Y-62189666D03*
D11*
X71986758Y-69809666D03*
D12*
X89766758Y-62189666D03*
X74526758Y-69809666D03*
X87226758Y-62189666D03*
X77066758Y-69809666D03*
X84686758Y-62189666D03*
X79606758Y-69809666D03*
X82146758Y-62189666D03*
X82146758Y-69809666D03*
X79606758Y-62189666D03*
X84686758Y-69809666D03*
X77066758Y-62189666D03*
X87226758Y-69809666D03*
X74526758Y-62189666D03*
X89766758Y-69809666D03*
X71986758Y-62189666D03*
M02*
