M48
;DRILL file {KiCad 4.0.7-e2-6376~61~ubuntu18.04.1} date Mon Aug 19 19:59:22 2019
;FORMAT={-:-/ absolute / inch / decimal}
FMAT,2
INCH,TZ
T1C0.016
T2C0.024
T3C0.028
T4C0.031
%
G90
G05
M72
T1
X2.075Y-4.15
X2.2375Y-4.125
X2.3875Y-4.1
X2.55Y-4.075
X2.7125Y-4.05
X2.8625Y-4.025
X3.025Y-4.
X3.0375Y-3.6125
X3.0625Y-3.4625
X3.1875Y-3.975
X3.4875Y-3.4375
X3.4875Y-3.4875
X3.4875Y-3.5375
X3.55Y-4.1625
X3.575Y-3.15
X3.575Y-3.4375
X3.6125Y-3.3625
X3.6125Y-3.4375
X3.6125Y-4.125
X4.875Y-3.2375
X4.9125Y-3.2125
T2
X2.4125Y-3.1
X2.4125Y-3.15
X2.4125Y-3.2
X2.4125Y-3.3125
X2.4125Y-3.3625
X2.4125Y-3.4125
X2.6Y-3.1
X2.6Y-3.15
X2.6Y-3.2
X2.6Y-3.3125
X2.6Y-3.3625
X2.6Y-3.4125
X2.6Y-3.525
X2.6Y-3.575
X2.6Y-3.625
X2.7875Y-3.1
X2.7875Y-3.15
X2.7875Y-3.2
X2.7875Y-3.3125
X2.7875Y-3.3625
X2.7875Y-3.4125
X2.7875Y-3.525
X2.7875Y-3.575
X2.7875Y-3.625
X2.975Y-3.1
X2.975Y-3.15
X2.975Y-3.2
X2.975Y-3.3125
X2.975Y-3.3625
X2.975Y-3.4125
X3.75Y-3.8125
X3.75Y-3.8625
X3.75Y-3.9125
X3.75Y-4.025
X3.75Y-4.075
X3.75Y-4.125
X3.85Y-3.1
X3.85Y-3.15
X3.85Y-3.2
X3.85Y-3.3125
X3.85Y-3.3625
X3.85Y-3.4125
X3.9375Y-3.8125
X3.9375Y-3.8625
X3.9375Y-3.9125
X3.9375Y-4.025
X3.9375Y-4.075
X3.9375Y-4.125
X4.975Y-3.275
X4.975Y-3.325
X4.975Y-3.375
X4.975Y-3.4875
X4.975Y-3.5375
X4.975Y-3.5875
X5.225Y-3.275
X5.225Y-3.325
X5.225Y-3.375
X5.225Y-3.4875
X5.225Y-3.5375
X5.225Y-3.5875
X5.225Y-3.7
X5.225Y-3.75
X5.225Y-3.8
X5.225Y-3.9125
X5.225Y-3.9625
X5.225Y-4.0125
X5.4125Y-3.275
X5.4125Y-3.325
X5.4125Y-3.375
X5.4125Y-3.4875
X5.4125Y-3.5375
X5.4125Y-3.5875
X5.4125Y-3.7
X5.4125Y-3.75
X5.4125Y-3.8
X5.4125Y-3.9125
X5.4125Y-3.9625
X5.4125Y-4.0125
T3
X1.925Y-2.925
X1.925Y-3.125
X1.975Y-3.2
X1.975Y-3.4
X2.0125Y-2.925
X2.0125Y-3.125
X2.0625Y-3.2
X2.0625Y-3.4
X2.1Y-2.925
X2.1Y-3.125
X2.15Y-3.2
X2.15Y-3.4
X2.1875Y-2.925
X2.1875Y-3.125
X2.2375Y-3.2
X2.2375Y-3.4
X3.4875Y-3.
X3.4875Y-3.25
X3.6Y-3.7
X3.6875Y-3.
X3.6875Y-3.25
X3.8Y-3.7
X4.975Y-2.9
X4.975Y-2.9875
X4.975Y-3.075
X4.975Y-3.1625
X5.175Y-2.9
X5.175Y-2.9875
X5.175Y-3.075
X5.175Y-3.1625
X5.25Y-2.85
X5.25Y-2.9375
X5.25Y-3.025
X5.25Y-3.1125
X5.45Y-2.85
X5.45Y-2.9375
X5.45Y-3.025
X5.45Y-3.1125
T4
X1.8716Y-1.1484
X1.8716Y-2.0984
X1.9216Y-0.7484
X1.9216Y-1.0484
X1.9216Y-2.4484
X1.9216Y-2.7484
X1.9716Y-1.1484
X1.9716Y-1.9984
X1.9716Y-2.0984
X1.9716Y-2.3484
X2.0216Y-0.7484
X2.0216Y-1.0484
X2.0216Y-2.4484
X2.0216Y-2.7484
X2.0716Y-1.1484
X2.0716Y-1.8984
X2.0716Y-1.9984
X2.0716Y-2.3484
X2.1216Y-0.7484
X2.1216Y-1.0484
X2.1216Y-2.4484
X2.1216Y-2.7484
X2.1688Y-1.1484
X2.1716Y-1.7984
X2.1716Y-1.8984
X2.1716Y-2.3484
X2.2216Y-0.7484
X2.2216Y-1.0484
X2.2216Y-2.4484
X2.2216Y-2.7484
X2.2716Y-1.1484
X2.2716Y-1.6984
X2.2716Y-1.7984
X2.2716Y-2.3484
X2.3216Y-0.7484
X2.3216Y-1.0484
X2.3216Y-2.4484
X2.3216Y-2.7484
X2.3716Y-1.1484
X2.3716Y-1.5984
X2.3716Y-1.6984
X2.3716Y-2.3484
X2.4216Y-0.7484
X2.4216Y-1.0484
X2.4216Y-2.4484
X2.4216Y-2.7484
X2.4716Y-1.1484
X2.4716Y-1.4984
X2.4716Y-1.5984
X2.4716Y-2.3484
X2.5216Y-0.7484
X2.5216Y-1.0484
X2.5216Y-2.4484
X2.5216Y-2.7484
X2.5716Y-1.1484
X2.5716Y-1.3984
X2.5716Y-1.4984
X2.5716Y-2.3484
X2.6216Y-0.7484
X2.6216Y-1.0484
X2.6216Y-2.4484
X2.6216Y-2.7484
X2.6716Y-1.3984
X2.6716Y-2.3484
X2.7841Y-1.1484
X2.7841Y-2.0984
X2.8341Y-0.7484
X2.8341Y-1.0484
X2.8341Y-2.4484
X2.8341Y-2.7484
X2.8841Y-1.1484
X2.8841Y-1.9984
X2.8841Y-2.0984
X2.8841Y-2.3484
X2.9341Y-0.7484
X2.9341Y-1.0484
X2.9341Y-2.4484
X2.9341Y-2.7484
X2.9841Y-1.1484
X2.9841Y-1.8984
X2.9841Y-1.9984
X2.9841Y-2.3484
X3.0341Y-0.7484
X3.0341Y-1.0484
X3.0341Y-2.4484
X3.0341Y-2.7484
X3.0841Y-1.1484
X3.0841Y-1.7984
X3.0841Y-1.8984
X3.0841Y-2.3484
X3.1341Y-0.7484
X3.1341Y-1.0484
X3.1341Y-2.4484
X3.1341Y-2.7484
X3.1841Y-1.1484
X3.1841Y-1.6984
X3.1841Y-1.7984
X3.1841Y-2.3484
X3.2341Y-0.7484
X3.2341Y-1.0484
X3.2341Y-2.4484
X3.2341Y-2.7484
X3.2841Y-1.1484
X3.2841Y-1.5984
X3.2841Y-1.6984
X3.2841Y-2.3484
X3.3341Y-0.7484
X3.3341Y-1.0484
X3.3341Y-2.4484
X3.3341Y-2.7484
X3.3841Y-1.1484
X3.3841Y-1.4984
X3.3841Y-1.5984
X3.3841Y-2.3484
X3.4341Y-0.7484
X3.4341Y-1.0484
X3.4341Y-2.4484
X3.4341Y-2.7484
X3.4841Y-1.1484
X3.4841Y-1.3984
X3.4841Y-1.4984
X3.4841Y-2.3484
X3.5341Y-0.7484
X3.5341Y-1.0484
X3.5341Y-2.4484
X3.5341Y-2.7484
X3.5841Y-1.3984
X3.5841Y-2.3484
X3.6966Y-1.1484
X3.6966Y-2.0984
X3.7466Y-0.7484
X3.7466Y-1.0484
X3.7466Y-2.4484
X3.7466Y-2.7484
X3.7966Y-1.1484
X3.7966Y-1.9984
X3.7966Y-2.0984
X3.7966Y-2.3484
X3.8466Y-0.7484
X3.8466Y-1.0484
X3.8466Y-2.4484
X3.8466Y-2.7484
X3.8966Y-1.1484
X3.8966Y-1.8984
X3.8966Y-1.9984
X3.8966Y-2.3484
X3.9466Y-0.7484
X3.9466Y-1.0484
X3.9466Y-2.4484
X3.9466Y-2.7484
X3.9966Y-1.1484
X3.9966Y-1.7984
X3.9966Y-1.8984
X3.9966Y-2.3484
X4.0466Y-0.7484
X4.0466Y-1.0484
X4.0466Y-2.4484
X4.0466Y-2.7484
X4.0966Y-1.1484
X4.0966Y-1.6984
X4.0966Y-1.7984
X4.0966Y-2.3484
X4.1466Y-0.7484
X4.1466Y-1.0484
X4.1466Y-2.4484
X4.1466Y-2.7484
X4.1966Y-1.1484
X4.1966Y-1.5984
X4.1966Y-1.6984
X4.1966Y-2.3484
X4.2466Y-0.7484
X4.2466Y-1.0484
X4.2466Y-2.4484
X4.2466Y-2.7484
X4.2966Y-1.1484
X4.2966Y-1.4984
X4.2966Y-1.5984
X4.2966Y-2.3484
X4.3466Y-0.7484
X4.3466Y-1.0484
X4.3466Y-2.4484
X4.3466Y-2.7484
X4.3966Y-1.1484
X4.3966Y-1.3984
X4.3966Y-1.4984
X4.3966Y-2.3484
X4.4466Y-0.7484
X4.4466Y-1.0484
X4.4466Y-2.4484
X4.4466Y-2.7484
X4.4966Y-1.3984
X4.4966Y-2.3484
X4.6091Y-1.1484
X4.6091Y-2.0984
X4.6591Y-0.7484
X4.6591Y-1.0484
X4.6591Y-2.4484
X4.6591Y-2.7484
X4.7091Y-1.1484
X4.7091Y-1.9984
X4.7091Y-2.0984
X4.7091Y-2.3484
X4.7591Y-0.7484
X4.7591Y-1.0484
X4.7591Y-2.4484
X4.7591Y-2.7484
X4.8091Y-1.1484
X4.8091Y-1.8984
X4.8091Y-1.9984
X4.8091Y-2.3484
X4.8591Y-0.7484
X4.8591Y-1.0484
X4.8591Y-2.4484
X4.8591Y-2.7484
X4.9091Y-1.1484
X4.9091Y-1.7984
X4.9091Y-1.8984
X4.9091Y-2.3484
X4.9591Y-0.7484
X4.9591Y-1.0484
X4.9591Y-2.4484
X4.9591Y-2.7484
X5.0091Y-1.1484
X5.0091Y-1.6984
X5.0091Y-1.7984
X5.0091Y-2.3484
X5.0591Y-0.7484
X5.0591Y-1.0484
X5.0591Y-2.4484
X5.0591Y-2.7484
X5.1091Y-1.1484
X5.1091Y-1.5984
X5.1091Y-1.6984
X5.1091Y-2.3484
X5.1591Y-0.7484
X5.1591Y-1.0484
X5.1591Y-2.4484
X5.1591Y-2.7484
X5.2091Y-1.1484
X5.2091Y-1.4984
X5.2091Y-1.5984
X5.2091Y-2.3484
X5.2591Y-0.7484
X5.2591Y-1.0484
X5.2591Y-2.4484
X5.2591Y-2.7484
X5.3091Y-1.1484
X5.3091Y-1.3984
X5.3091Y-1.4984
X5.3091Y-2.3484
X5.3591Y-0.7484
X5.3591Y-1.0484
X5.3591Y-2.4484
X5.3591Y-2.7484
X5.4091Y-1.3984
X5.4091Y-2.3484
T0
M30
